<?xml version="1.0" encoding="utf-8"?>
<!-- Generator: Adobe Illustrator 25.2.1, SVG Export Plug-In . SVG Version: 6.00 Build 0)  -->
<svg version="1.1" id="Layer_1" xmlns="http://www.w3.org/2000/svg" xmlns:xlink="http://www.w3.org/1999/xlink" x="0px" y="0px"
	 viewBox="0 0 31 29" style="enable-background:new 0 0 31 29;" xml:space="preserve">
<style type="text/css">
	.st0{fill:#FFFFFF;}
</style>
<path class="st0" d="M28.2,8.2c0.1-0.1,0.1-0.3,0-0.4s-0.3-0.1-0.4,0L26,9.6l1.2-1.9c0.1-0.1,0-0.3-0.1-0.4s-0.3,0-0.4,0.1l-0.6,1
	l0.2-0.8c0-0.1-0.1-0.3-0.2-0.3s-0.3,0.1-0.3,0.2l-0.3,1.3l-0.2-1.3c0-0.1-0.1-0.3-0.3-0.2c-0.1,0-0.2,0.1-0.2,0.3L24.9,9l-0.5-1.1
	c-0.1-0.1-0.2-0.2-0.4-0.1c-0.1,0.1-0.2,0.2-0.1,0.4l1.2,2.5l0,0l0,0c-0.4,0.2-2.7,1.3-4,1.9c-1.1,0.5-2.3,0.6-2.8,0.7
	c-0.1-0.6-0.2-1.1-0.3-1.5l1-0.2c0.1,0,0.2-0.1,0.2-0.2c0-0.1,0-0.2-0.1-0.3l-1.8-1.3l0,0c0-0.1-0.1-0.2-0.1-0.4
	c0.3-0.3,1.1-1.2,0.8-2c-0.2-0.5-0.7-0.8-1.6-1l0,0l0,0c0,0-1.1,0.1-1.6,0.8c-0.2,0.3-0.3,0.8-0.2,1.2l0,0c0,0,0.3,0.7,1.1,1
	c0.1,0,0.1,0.2,0.1,0.4c-0.1,0-0.2,0.1-0.3,0.2L15,11.7l-0.6,0.1c-0.1,0-0.2,0.1-0.2,0.2l-1.5-0.1c-0.1-0.1-0.1-0.2-0.2-0.4
	c-0.1-0.3-0.3-0.6-0.5-0.8l2.4-0.9c0.1,0,0.2-0.2,0.2-0.3s-0.2-0.2-0.3-0.2l-2.6,0.9c-0.1-0.1-0.2-0.2-0.2-0.3l1.9-1.7
	c0.1-0.1,0.1-0.3,0-0.4s-0.3-0.1-0.4,0l-2,1.7c-0.3-0.2-0.5-0.4-0.8-0.6l2.1-1.8c0.1-0.1,0.1-0.3,0-0.4s-0.3-0.1-0.4,0l-2,1.9
	L9.8,8.7l0,0c-0.1,0-0.3-0.1-0.5-0.2l1.3-1.8c0.1-0.1,0.1-0.3-0.1-0.4c-0.1-0.1-0.3-0.1-0.4,0.1l-1.3,2C8,8.1,6.8,7.8,5.9,7.8
	C5.1,7.8,4.5,8,4.1,8.4L3.9,8.6l0.3,0.2c0.1,0,1.7,1.1,3.2,1.7c0.2,0.1,1.9,1.5,2.5,5.1c0,0.1,0.1,0.7,0.6,1.4l-2.9,3
	c-0.1,0.1-0.1,0.2,0,0.3l2.5,5c0,0.1,0.1,0.1,0.2,0.1h0.1c0.1-0.1,0.2-0.2,0.1-0.4l-2.4-4.9l2.7-2.9c0.4,0.4,1.1,0.8,2,1l-1,1.3
	c-0.1,0.1-0.1,0.2,0,0.3l1.8,3.6c0,0.1,0.1,0.1,0.2,0.1h0.1c0.1-0.1,0.2-0.2,0.1-0.4l-1.7-3.5l1-1.3l0,0c0.6,0.1,1.2,0.2,2,0.2
	c0.3,0,0.7,0,1,0h0.1c0,0,2-0.6,4.1-1.5c0.3-0.1,0.6-0.2,0.8-0.4l-0.8,3.3c0,0.1,0,0.2,0,0.2l2.1,2.9c0.1,0.1,0.1,0.1,0.2,0.1
	s0.1,0,0.2,0c0.1-0.1,0.1-0.3,0.1-0.4l-2-2.8l0.9-3.6c0.4-0.2,0.8-0.4,1.1-0.6L22.6,20c0,0.1,0,0.1,0,0.2l2.4,3.7
	c0.1,0.1,0.1,0.1,0.2,0.1h0.1c0.1-0.1,0.2-0.2,0.1-0.4L23.1,20l0.5-4.6c0.8-0.6,1.3-1.1,1.4-1.7c0.1-0.2,0.7-2,0.4-3v-0.1l0,0
	L28.2,8.2z M15.8,12.1L15.8,12.1L15.8,12.1L15.8,12.1z M15.8,12.8c0,0.3-0.1,0.6-0.1,0.9c-0.1,0.1-0.5,0.4-1,0.4s-0.9-0.2-1.4-0.7
	c0-0.1-0.1-0.2-0.1-0.4H15c0.1,0,0.2-0.1,0.3-0.2v-0.1L15.8,12.8z M17.9,11.2c-0.1-0.2-0.1-0.4-0.1-0.5l0.6,0.5H17.9z M15.9,10.7
	c0,0.3,0,0.5,0,0.8h-0.3L15.9,10.7z"/>
</svg>
