<?xml version="1.0" encoding="utf-8"?>
<!-- Generator: Adobe Illustrator 25.2.1, SVG Export Plug-In . SVG Version: 6.00 Build 0)  -->
<svg version="1.1" id="Layer_1" xmlns="http://www.w3.org/2000/svg" xmlns:xlink="http://www.w3.org/1999/xlink" x="0px" y="0px"
	 viewBox="0 0 31 29" style="enable-background:new 0 0 31 29;" xml:space="preserve">
<style type="text/css">
	.st0{fill:#FFFFFF;}
</style>
<path class="st0" d="M23.7,10c0.3-0.7,0.2-1-0.1-1.1c-0.1-0.1-0.2-0.1-0.3-0.1c-0.1,0-0.3,0.1-0.4,0.2l0,0l0,0
	c-0.1,0.1-0.2,0.2-0.3,0.3c-0.3,0.4-0.6,0.8-0.8,1.2c-0.2,0.4-0.5,0.7-0.7,1.1v0.1c0,0,0,0,0,0.1l0,0l0,0c-0.1,0.1-0.2,0.2-0.3,0.3
	c0,0,0,0-0.1,0l0,0c-0.1,0-0.2,0.1-0.3,0l0,0h-0.1c-0.6-0.2-0.4-0.8-0.3-1V11c0.2-0.7,0.3-1.3,0.4-2c0.1-0.8,0.2-1.5,0.5-2.3
	c0.1-0.4,0.1-0.9,0-1.5c0-0.2-0.2-0.3-0.4-0.4c-0.1,0-0.2,0-0.3,0l0,0l0,0l0,0l0,0c0,0,0,0-0.1,0.1c-0.1,0.2-0.2,0.4-0.3,0.6
	c-0.6,1.4-1,2.9-1.4,4.4L18,10.8c0,0.1-0.1,0.4-0.2,0.5l0,0l0,0l0,0l0,0l0,0l0,0c0,0,0,0-0.1,0l0,0c0,0,0,0-0.1,0l0,0h-0.1l0,0h-0.1
	l0,0h-0.1c-0.6-0.1-0.5-0.6-0.5-0.8v-0.1c0-0.8-0.1-1.6-0.2-2.4c-0.1-1.3-0.2-2.5-0.2-3.8V4.1c0,0,0,0,0-0.1c0,0,0,0,0-0.1
	c0,0,0,0,0-0.1l0,0c0,0,0,0,0-0.1l0,0c0,0,0,0,0-0.1l0,0l0,0l0,0l0,0l0,0l0,0l0,0l0,0c0,0,0,0-0.1,0c0,0,0,0-0.1,0c0,0,0,0-0.1,0
	c0,0,0,0-0.1,0c0,0,0,0-0.1,0c0,0,0,0-0.1,0h-0.1c-0.4,0-0.7,0.1-0.8,0.9S14.8,6.2,14.8,7v0.1c0,0.3,0,0.5,0,0.8l0,0V8
	c0,0.2,0,0.4,0,0.7s0,0.6,0,0.9c0,0.3,0,0.6,0,0.9c0,0,0,0.1,0,0.2c0,0.2,0.1,0.7-0.4,0.9c-0.2,0.1-0.4,0-0.5,0l0,0l0,0l0,0l0,0
	c-0.2-0.1-0.2-0.4-0.3-0.5c0-0.1,0-0.1-0.1-0.2c-0.6-1.2-1-2.6-1.4-3.9c-0.1-0.3-0.2-0.7-0.3-1c-0.1-0.4-0.3-0.6-0.4-0.7
	c-0.1,0-0.1-0.1-0.2-0.1l0,0c-0.1,0-0.1,0-0.2,0c-0.4,0.1-0.5,0.3-0.4,1c0.3,1.4,0.7,2.8,1,4.2l0.2,0.7c0.3,1.1,0.6,2.4,0.2,3.8l0,0
	c-0.1,0.2-0.2,0.6-0.6,0.7c-0.1,0-0.1,0-0.2,0c-0.3,0-0.5-0.3-0.6-0.5l0,0c-0.3-0.5-0.6-1.2-0.9-1.9C9,12.5,8.5,12,8,11.8H7.9l0,0
	H7.8l0,0H7.7l0,0c0,0,0,0-0.1,0H7.5l0,0H7.4l0,0c0,0,0,0-0.1,0l0,0l0,0l0,0l0,0c0,0,0,0,0,0.1l0,0c0,0,0,0,0,0.1l0,0v0.1
	c0.1,0.3,0.1,0.6,0.2,0.8c0.2,1,0.3,2,1,2.8c0.8,1,1.3,2.2,1.5,3.5c0.1,0.8,0.5,1.8,1.5,2.4c1.4,0.8,2.2,1.9,2.6,3.5
	c0,0.1,0.1,0.2,0.1,0.3c0,0.1,0.1,0.1,0.1,0.1s0,0,0.1,0l0,0c0,0,0,0,0.1,0l0,0h0.1l0,0c0,0,0.1,0,0.1-0.1c1.2-0.6,2.6-0.7,3.9-0.8
	c0.5,0,0.9-0.1,1.4-0.1c0.2,0,0.3-0.1,0.3-0.1s0.1-0.1,0-0.4c-0.1-0.6-0.2-1.7,0-2.4l0,0l0,0c0.5-1.4,1-2.7,1.2-4
	c0.1-0.4,0.1-0.9,0.1-1.3c0.1-1.6,0.7-2.9,1.3-4c0.4-0.7,0.7-1.4,1-2.1L23.7,10z"/>
</svg>
