<?xml version="1.0" encoding="utf-8"?>
<!-- Generator: Adobe Illustrator 25.2.1, SVG Export Plug-In . SVG Version: 6.00 Build 0)  -->
<svg version="1.1" id="Layer_1" xmlns="http://www.w3.org/2000/svg" xmlns:xlink="http://www.w3.org/1999/xlink" x="0px" y="0px"
	 viewBox="0 0 31 29" style="enable-background:new 0 0 31 29;" xml:space="preserve">
<style type="text/css">
	.st0{fill:#FFFFFF;}
</style>
<path class="st0" d="M23.5,8.3c-2.2-2.6-5.3-4-8.3-4c-5.7,0-10,4.4-10,10v0.1v0.1c1.3,6.5,4.3,10.1,8.9,10.1c0.4,0,0.8,0,1.2-0.1
	c4.7-0.6,9.8-4.2,10.3-9.3C26,12.9,25.4,10.5,23.5,8.3z M25.2,15.2c0,0.3-0.1,0.5-0.1,0.8l-5.4-2.2l-0.4-0.1l-0.4-0.2
	c0.1-0.3,0.2-0.4,0.2-0.7c0,0,0-0.2,0-0.7s-0.1-0.8-0.2-0.9l3.8-2.7C24.4,10.3,25.4,12.8,25.2,15.2z M18.2,5.2
	c1.4,0.5,2.8,1.4,3.9,2.5c0,0-3.2,2.1-3.9,2.6c-0.3-0.2-0.6-0.4-1-0.5c0.1-0.5,0.3-1.7,0.3-1.8C17.7,7.8,18.2,5.2,18.2,5.2z
	 M15.3,4.7c0.6,0,1.1,0.1,1.7,0.2l-1.2,4.8h-0.4c-0.2,0-0.4,0-0.7,0.1l-2.5-4.6C13.2,4.9,14.2,4.7,15.3,4.7z M11.3,5.6
	C11.5,6,12,7.4,12.2,7.8c0.2,0.4,1.3,2.1,1.7,2.5c-0.5,0.3-0.8,0.8-1,1.3c-0.6-0.2-3.6-1.2-4.3-1.4L7,9.5C7.9,7.8,9.5,6.4,11.3,5.6z
	 M6.4,10.6c0.2,0.1,0.7,0.5,0.9,0.6c0.2,0.1,3.5,1.3,3.5,1.3l1.9,0.4v0.3c0,0.2,0.1,0.4,0.1,0.6c-0.9,1.2-3.2,2-3.6,2.5
	c-0.3,0.4-1.8,1.2-2.4,1.5c-0.5-1.2-0.9-2.4-1.2-3.8C5.8,12.9,6,11.7,6.4,10.6z M7.5,19.1c0.6-0.3,1.9-1.1,2-1.5
	c0.2-0.4,3.5-2.4,4.2-2.9c0.1,0.1,0.2,0.1,0.4,0.2L14,16.2l-0.3,1.4l-0.8,3c0,0.4-0.9,2.7-0.9,2.7l1.2,0.2
	C10.7,23.2,8.8,21.6,7.5,19.1z M15.3,23.5c-0.7,0.1-1.3,0.1-1.9,0l0.8-2.8l0.5-2.8L15,17c0-0.3,0.2-1.3,0.3-1.7c0.1,0,0.1,0,0.2,0
	h0.1l3.2,7.2C17.5,23,16.4,23.3,15.3,23.5z M19.6,22.1l-0.7-2.5c-0.1-0.3-1.3-3.7-1.6-4.5c0.3-0.1,0.5-0.3,0.7-0.5l0.8,0.3l0.5,0.2
	c0.4,0,4.3,1.5,5.3,1.9C23.7,19.4,21.8,21,19.6,22.1z"/>
</svg>
