<?xml version="1.0" encoding="utf-8"?>
<!-- Generator: Adobe Illustrator 25.2.1, SVG Export Plug-In . SVG Version: 6.00 Build 0)  -->
<svg version="1.1" id="Layer_1" xmlns="http://www.w3.org/2000/svg" xmlns:xlink="http://www.w3.org/1999/xlink" x="0px" y="0px"
	 viewBox="0 0 31 29" style="enable-background:new 0 0 31 29;" xml:space="preserve">
<style type="text/css">
	.st0{fill:#FFFFFF;}
</style>
<g>
	<path class="st0" d="M8.3,10.3c-0.5,0-0.8,0.3-0.8,0.8c0,0.4,0.4,0.8,0.8,0.8c0.5,0,0.8-0.3,0.8-0.8S8.7,10.3,8.3,10.3z"/>
	<ellipse class="st0" cx="7.5" cy="13" rx="0.9" ry="0.8"/>
	<path class="st0" d="M5.6,13.9c-0.5,0-1,0.4-1,0.9s0.4,0.9,1,0.9c0.5,0,1-0.4,1-0.9S6.1,13.9,5.6,13.9z"/>
	<path class="st0" d="M7.9,15.8c0.5,0,1-0.4,1-0.9S8.5,14,7.9,14c-0.5,0-1,0.4-1,0.9S7.4,15.8,7.9,15.8z"/>
	<path class="st0" d="M10.1,11c-0.5,0-0.8,0.3-0.8,0.8c0,0.4,0.4,0.8,0.8,0.8c0.5,0,0.8-0.3,0.8-0.8C10.9,11.4,10.5,11,10.1,11z"/>
	<path class="st0" d="M8.5,9.2c0,0.3,0.3,0.5,0.6,0.5c0.3,0,0.6-0.2,0.6-0.5S9.4,8.7,9.1,8.7C8.8,8.6,8.5,8.9,8.5,9.2z"/>
	<path class="st0" d="M10.5,8.5c0.4,0,0.7-0.3,0.7-0.6c0-0.3-0.3-0.6-0.7-0.6S9.8,7.6,9.8,7.9C9.8,8.2,10.1,8.5,10.5,8.5z"/>
	<path class="st0" d="M6.3,11.3C6.7,11.3,7,11,7,10.6C7,10.3,6.7,10,6.3,10c-0.4,0-0.7,0.3-0.7,0.7C5.6,11,5.9,11.3,6.3,11.3z"/>
	<path class="st0" d="M7.2,9.8C7.6,9.8,8,9.5,8,9.2S7.6,8.5,7.2,8.5c-0.4,0-0.7,0.3-0.7,0.7C6.5,9.6,6.8,9.8,7.2,9.8z"/>
	<ellipse class="st0" cx="8.5" cy="7.8" rx="0.6" ry="0.5"/>
	<path class="st0" d="M12.2,7.2c0.3,0,0.6-0.2,0.6-0.5s-0.3-0.5-0.6-0.5s-0.6,0.2-0.6,0.5S11.8,7.2,12.2,7.2z"/>
	<circle class="st0" cx="10.5" cy="10.2" r="0.7"/>
	<path class="st0" d="M15.4,6.8c0.2,0,0.4-0.2,0.4-0.4c0-0.2-0.1-0.4-0.4-0.4C15.1,6,15,6.2,15,6.4C15,6.6,15.2,6.8,15.4,6.8z"/>
	<path class="st0" d="M14,7.8c0.3,0,0.6-0.2,0.6-0.5S14.3,6.8,14,6.8S13.4,7,13.4,7.2C13.4,7.5,13.7,7.8,14,7.8z"/>
	<path class="st0" d="M25.9,15.3c-0.1-0.1-0.3-0.1-0.4-0.1c-0.3,0-0.6,0.1-0.7,0.4c-0.1,0.2-0.2,0.4-0.1,0.6
		c0.1,0.2,0.2,0.4,0.4,0.5c0.1,0.1,0.3,0.1,0.4,0.1c0.3,0,0.6-0.1,0.7-0.4C26.4,16,26.3,15.5,25.9,15.3z"/>
	<path class="st0" d="M24.4,15.3c0.1-0.2,0.2-0.4,0.1-0.7c-0.1-0.2-0.2-0.4-0.4-0.6c-0.2-0.1-0.3-0.1-0.5-0.1
		c-0.4,0-0.7,0.2-0.8,0.4c-0.3,0.4-0.2,1,0.3,1.3c0.2,0.1,0.3,0.1,0.5,0.1C23.9,15.7,24.3,15.5,24.4,15.3z"/>
	<path class="st0" d="M24.9,16.7c-0.2-0.1-0.3-0.1-0.5-0.1c-0.4,0-0.7,0.2-0.8,0.4c-0.1,0.2-0.2,0.4-0.1,0.7
		c0.1,0.2,0.2,0.4,0.5,0.6c0.2,0.1,0.3,0.1,0.5,0.1c0.4,0,0.7-0.2,0.8-0.4c0.1-0.2,0.2-0.4,0.1-0.7C25.3,17,25.1,16.8,24.9,16.7z"/>
	<path class="st0" d="M19.1,7.6c-0.1,0-0.2,0.1-0.3,0.2c0,0.1-0.1,0.2,0,0.2c0,0.1,0.1,0.2,0.2,0.2s0.1,0,0.2,0
		c0.1,0,0.2-0.1,0.3-0.2c0-0.1,0-0.3-0.2-0.4C19.2,7.6,19.2,7.6,19.1,7.6z"/>
	<path class="st0" d="M18.2,8.1c-0.1,0-0.1,0-0.2,0s-0.2,0.1-0.3,0.2c0,0.1-0.1,0.2,0,0.2c0,0.1,0.1,0.2,0.2,0.2c0.1,0,0.1,0,0.2,0
		c0.1,0,0.2-0.1,0.3-0.2C18.4,8.3,18.4,8.1,18.2,8.1z"/>
	<path class="st0" d="M23.8,11.7c0-0.2-0.2-0.3-0.3-0.4c-0.1-0.1-0.2-0.1-0.4-0.1c-0.3,0-0.5,0.1-0.6,0.3s-0.1,0.3-0.1,0.5
		s0.2,0.3,0.3,0.4c0.1,0.1,0.2,0.1,0.4,0.1c0.2,0,0.4-0.1,0.6-0.3C23.8,12,23.8,11.9,23.8,11.7z"/>
	<path class="st0" d="M26.5,14.2c-0.1-0.2-0.2-0.4-0.4-0.5c-0.1-0.1-0.3-0.1-0.4-0.1c-0.3,0-0.6,0.1-0.7,0.4
		c-0.1,0.2-0.2,0.4-0.1,0.6c0.1,0.2,0.2,0.4,0.4,0.5c0.1,0.1,0.3,0.1,0.4,0.1c0.3,0,0.6-0.1,0.7-0.4C26.6,14.6,26.6,14.4,26.5,14.2z
		"/>
	<path class="st0" d="M25.7,12.3c-0.2,0-0.4,0.1-0.5,0.3C25,12.7,25,12.9,25,13.1c0,0.2,0.1,0.3,0.3,0.4c0.1,0.1,0.2,0.1,0.3,0.1
		c0.2,0,0.4-0.1,0.5-0.3c0.3-0.4,0.2-0.7-0.1-0.9C25.9,12.3,25.8,12.3,25.7,12.3z"/>
	<path class="st0" d="M24.9,11.4c-0.1,0.1-0.1,0.3-0.1,0.4c0,0.2,0.1,0.3,0.3,0.4c0.1,0.1,0.2,0.1,0.3,0.1c0.2,0,0.4-0.1,0.5-0.3
		c0.1-0.1,0.1-0.3,0.1-0.4c0-0.2-0.1-0.3-0.3-0.4c-0.1-0.1-0.2-0.1-0.3-0.1C25.3,11.1,25,11.2,24.9,11.4z"/>
	<path class="st0" d="M20.5,9.5c0,0.1,0.1,0.2,0.2,0.3c0.1,0,0.2,0.1,0.3,0.1c0.2,0,0.4-0.1,0.5-0.2c0.1-0.1,0.1-0.2,0.1-0.4
		c0-0.1-0.1-0.2-0.2-0.3c-0.1,0-0.2-0.1-0.3-0.1c-0.2,0-0.4,0.1-0.5,0.2C20.5,9.2,20.5,9.3,20.5,9.5z"/>
	<path class="st0" d="M24,10.4c-0.1,0-0.2-0.1-0.3-0.1c-0.2,0-0.4,0.1-0.5,0.2c-0.1,0.1-0.1,0.2-0.1,0.4c0,0.1,0.1,0.2,0.2,0.3
		c0.1,0,0.2,0.1,0.3,0.1c0.4,0,0.5-0.1,0.6-0.2C24.4,10.9,24.3,10.6,24,10.4z"/>
	<path class="st0" d="M24.3,10.4c0,0.2,0.1,0.3,0.3,0.4c0.1,0.1,0.2,0.1,0.3,0.1c0.2,0,0.4-0.1,0.5-0.3c0.1-0.1,0.1-0.3,0.1-0.4
		c0-0.1-0.1-0.3-0.3-0.4c-0.1-0.1-0.2-0.1-0.3-0.1c-0.2,0-0.4,0.1-0.6,0.3C24.3,10,24.3,10.2,24.3,10.4z"/>
	<path class="st0" d="M21.9,7.5c0,0.1,0.1,0.2,0.2,0.2c0.1,0,0.1,0.1,0.2,0.1c0.1,0,0.3-0.1,0.3-0.2c0.1-0.1,0.1-0.2,0-0.3
		c0-0.1-0.1-0.2-0.2-0.2c-0.1,0-0.1-0.1-0.2-0.1c-0.1,0-0.3,0.1-0.4,0.2C21.9,7.3,21.9,7.4,21.9,7.5z"/>
	<path class="st0" d="M21.6,7.9c-0.1,0-0.1-0.1-0.2-0.1c-0.1,0-0.3,0.1-0.4,0.2c0,0.1,0,0.2,0,0.3c0,0.1,0.1,0.2,0.2,0.2
		c0.1,0,0.1,0.1,0.2,0.1c0.1,0,0.3-0.1,0.3-0.2c0.1-0.1,0.1-0.2,0-0.3C21.7,8,21.7,8,21.6,7.9z"/>
	<path class="st0" d="M22.3,8.5c-0.1,0-0.1-0.1-0.2-0.1c-0.1,0-0.3,0.1-0.4,0.2c-0.1,0.1-0.1,0.2,0,0.3c0,0.1,0.1,0.2,0.2,0.2
		c0.1,0,0.1,0.1,0.2,0.1c0.1,0,0.2,0,0.2-0.1c-0.1,0.1-0.1,0.2,0,0.3c0,0.1,0.1,0.2,0.2,0.2c0,0,0,0,0.1,0c-0.2,0-0.3,0.1-0.5,0.3
		c-0.2,0.3-0.1,0.6,0.2,0.8c0.1,0.1,0.2,0.1,0.3,0.1c0.2,0,0.4-0.1,0.5-0.3c0.1-0.1,0.1-0.3,0.1-0.4c0.1-0.2,0-0.3-0.2-0.4
		c0,0-0.1,0-0.1-0.1C23,9.6,23,9.5,23,9.5c0.1-0.1,0.1-0.2,0-0.3C23,9.1,22.9,9,22.8,9c-0.1,0-0.1-0.1-0.2-0.1c-0.1,0-0.2,0-0.2,0.1
		c0.1-0.1,0.1-0.2,0.1-0.3C22.5,8.6,22.4,8.5,22.3,8.5z"/>
	<path class="st0" d="M21.2,7.2c0.1,0,0.2,0.1,0.2,0.1c0.2,0,0.3-0.1,0.4-0.2c0.1-0.2,0.1-0.5-0.2-0.6c-0.1,0-0.2-0.1-0.2-0.1
		c-0.2,0-0.3,0.1-0.4,0.2c0,0.1,0,0.3,0,0.4S21.1,7.2,21.2,7.2z"/>
	<path class="st0" d="M23.5,9.3c0.1,0.1,0.2,0.1,0.4,0.1c0.2,0,0.5-0.1,0.6-0.3c0.1-0.1,0.1-0.3,0.1-0.5c0-0.2-0.2-0.3-0.3-0.4
		c-0.1-0.1-0.2-0.1-0.4-0.1c-0.2,0-0.5,0.1-0.6,0.3c-0.1,0.1-0.1,0.3-0.1,0.5C23.2,9.1,23.3,9.2,23.5,9.3z"/>
	<path class="st0" d="M17.7,6.9c-0.1,0.2-0.1,0.4,0.1,0.5c0.1,0,0.1,0.1,0.2,0.1s0.3-0.1,0.4-0.2c0.1-0.2,0.1-0.4-0.1-0.5
		c-0.1,0-0.1-0.1-0.2-0.1C18,6.7,17.8,6.8,17.7,6.9z"/>
	<path class="st0" d="M20.6,7.8c0,0-0.1,0-0.2,0c-0.1,0-0.2,0.1-0.3,0.1c-0.1,0.1,0,0.3,0.1,0.4c0.1,0,0.1,0,0.2,0
		c0.1,0,0.2-0.1,0.3-0.1c0-0.1,0.1-0.1,0-0.2C20.7,7.9,20.7,7.9,20.6,7.8z"/>
	<path class="st0" d="M19.7,7.8c0.1,0,0.1,0,0.2,0c0.1,0,0.2-0.1,0.3-0.1c0-0.1,0.1-0.1,0-0.2c0,0,0,0,0.1,0.1
		c0.1,0,0.1,0.1,0.2,0.1s0.3-0.1,0.4-0.2C21,7.4,21,7.3,21,7.2C21,7.1,20.9,7,20.8,7c-0.1,0-0.1-0.1-0.2-0.1c-0.1,0-0.3,0.1-0.4,0.2
		c0,0.1-0.1,0.2-0.1,0.3c0,0,0,0,0-0.1c0,0-0.1,0-0.2,0c-0.1,0-0.2,0.1-0.3,0.1C19.5,7.5,19.5,7.7,19.7,7.8z"/>
	<path class="st0" d="M19.7,8.7c-0.1,0.2-0.1,0.4,0.1,0.5c0.1,0,0.1,0.1,0.2,0.1s0.3-0.1,0.4-0.2c0.1-0.1,0.1-0.2,0-0.3
		c0-0.1-0.1-0.2-0.2-0.2c-0.1,0-0.1-0.1-0.2-0.1S19.7,8.6,19.7,8.7z"/>
	<path class="st0" d="M15.2,7.9h-0.1c-0.3,0-0.5,0.2-0.6,0.4c-0.1,0.3,0.2,0.6,0.5,0.6h0.1c0.3,0,0.5-0.2,0.6-0.4
		C15.8,8.2,15.6,7.9,15.2,7.9z"/>
	<path class="st0" d="M17.1,9.6c-0.1,0.3,0.2,0.6,0.5,0.6h0.1c0.3,0,0.5-0.2,0.6-0.4c0-0.3-0.2-0.6-0.5-0.6h-0.1
		C17.4,9.2,17.2,9.4,17.1,9.6z"/>
	<path class="st0" d="M15.8,8.8c-0.1,0.3,0.2,0.6,0.5,0.6h0.1c0.3,0,0.5-0.2,0.6-0.4c0.1-0.2-0.1-0.4-0.3-0.5c0.1,0,0.2-0.1,0.3-0.2
		c0.2-0.3,0.1-0.6-0.2-0.7c-0.1,0-0.2-0.1-0.3-0.1c-0.2,0-0.4,0.1-0.5,0.2c0,0.2,0,0.3,0,0.4c0,0.1,0.1,0.2,0.2,0.3c0,0,0,0,0.1,0
		C16,8.5,15.9,8.6,15.8,8.8z"/>
	<path class="st0" d="M18.6,11.5c0.2-0.4-0.1-0.7-0.5-0.8H18c-0.3,0-0.6,0.2-0.7,0.5c0,0.2,0,0.3,0.1,0.5c0.1,0.1,0.3,0.2,0.4,0.3
		h0.1C18.2,12,18.5,11.8,18.6,11.5z"/>
	<path class="st0" d="M19,8.7c-0.3,0-0.6,0.2-0.7,0.5c0,0.3,0.2,0.6,0.5,0.6c0,0,0,0,0.1,0c0.3,0,0.6-0.2,0.6-0.5
		c0-0.1,0-0.3-0.1-0.4C19.3,8.8,19.1,8.8,19,8.7z"/>
	<path class="st0" d="M19.2,10.5c0,0.2,0,0.3,0.1,0.5c0.1,0.2,0.2,0.3,0.4,0.3h0.1c0.2,0,0.5-0.1,0.6-0.3c0,0.3,0.3,0.5,0.6,0.6h0.1
		c0.3,0,0.6-0.2,0.7-0.5c0.1-0.3-0.2-0.7-0.6-0.7h-0.1c-0.2,0-0.5,0.1-0.6,0.3c0-0.1,0-0.3-0.1-0.4c-0.1-0.1-0.3-0.2-0.4-0.3h-0.1
		C19.6,10,19.3,10.2,19.2,10.5z"/>
	<path class="st0" d="M22.4,14c0.4,0,0.8-0.3,0.8-0.6c0.1-0.4-0.2-0.8-0.7-0.9h-0.1c-0.4,0-0.8,0.3-0.8,0.6
		c-0.1,0.4,0.2,0.8,0.7,0.9H22.4z"/>
	<path class="st0" d="M18.6,13.2h0.1c0.3,0,0.6-0.2,0.7-0.5c0.1-0.3-0.2-0.7-0.6-0.7h-0.1c-0.4,0-0.7,0.2-0.7,0.5
		C17.9,12.8,18.2,13.2,18.6,13.2z"/>
	<path class="st0" d="M16.5,6.8c0,0.1,0,0.2,0.1,0.3c0.1,0.1,0.2,0.2,0.3,0.2H17c0.2,0,0.4-0.1,0.5-0.4c0-0.2-0.1-0.5-0.4-0.5H17
		C16.7,6.4,16.5,6.6,16.5,6.8z"/>
	<path class="st0" d="M20.9,13.6c0.1-0.3-0.2-0.7-0.6-0.7h-0.1c-0.3,0-0.6,0.2-0.7,0.5c-0.1,0.3,0.2,0.7,0.6,0.7h0.1
		C20.5,14.1,20.8,13.9,20.9,13.6z"/>
	<path class="st0" d="M20.5,11.9c-0.1,0.1-0.1,0.3-0.1,0.5c0,0.2,0.2,0.3,0.3,0.4c0.1,0.1,0.2,0.1,0.4,0.1c0.3,0,0.5-0.1,0.6-0.3
		c0.1-0.1,0.1-0.3,0.1-0.5c0-0.2-0.2-0.3-0.3-0.4c-0.1-0.1-0.2-0.1-0.4-0.1C20.9,11.6,20.6,11.7,20.5,11.9z"/>
	<path class="st0" d="M12.7,13.1c0,0.4,0.3,0.7,0.7,0.7c0.4,0,0.7-0.3,0.7-0.7c0-0.4-0.3-0.7-0.7-0.7C13,12.4,12.7,12.7,12.7,13.1z"
		/>
	<path class="st0" d="M14.5,12.6c0.4,0,0.7-0.3,0.7-0.7c0-0.4-0.3-0.7-0.7-0.7s-0.7,0.3-0.7,0.7C13.8,12.3,14.1,12.6,14.5,12.6z"/>
	<path class="st0" d="M14.3,6.6c0.2,0,0.4-0.2,0.4-0.4s-0.2-0.4-0.4-0.4S13.9,6,13.9,6.2S14.1,6.6,14.3,6.6z"/>
	<path class="st0" d="M10.5,7.1C10.8,7.1,11,7,11,6.7s-0.2-0.4-0.4-0.4c-0.2,0-0.4,0.2-0.4,0.4S10.3,7.1,10.5,7.1z"/>
	<circle class="st0" cx="14.2" cy="10.5" r="0.7"/>
	<circle class="st0" cx="12.3" cy="11.5" r="0.7"/>
	<path class="st0" d="M12.4,10.7c0.4,0,0.7-0.3,0.7-0.6c0-0.3-0.3-0.6-0.7-0.6c-0.4,0-0.7,0.3-0.7,0.6C11.7,10.4,12,10.7,12.4,10.7z
		"/>
	<circle class="st0" cx="17.2" cy="13.2" r="0.7"/>
	<path class="st0" d="M19.9,14.8c0-0.5-0.4-0.9-1-0.9c-0.5,0-1,0.4-1,0.9s0.5,0.9,1,0.9S19.9,15.3,19.9,14.8z"/>
	<ellipse class="st0" cx="16.5" cy="10.5" rx="0.7" ry="0.6"/>
	<path class="st0" d="M15.5,11.9c0,0.3,0.3,0.6,0.7,0.6c0.3,0,0.7-0.3,0.7-0.6c0-0.3-0.3-0.6-0.7-0.6C15.8,11.3,15.5,11.6,15.5,11.9
		z"/>
	<path class="st0" d="M10.7,14.6c-0.6,0-1.1,0.4-1.1,1c0,0.5,0.5,1,1.1,1c0.6,0,1.1-0.4,1.1-1C11.8,15.1,11.3,14.6,10.7,14.6z"/>
	<path class="st0" d="M10.6,13c0,0.4,0.4,0.8,0.8,0.8c0.5,0,0.8-0.3,0.8-0.8c0-0.4-0.4-0.8-0.8-0.8C11,12.3,10.6,12.6,10.6,13z"/>
	<path class="st0" d="M15.2,14.4c0.1,0,0.1,0,0.2,0c0.4,0,0.8-0.3,0.9-0.7c0-0.2,0-0.4-0.1-0.6c-0.1-0.2-0.3-0.3-0.6-0.3
		c-0.1,0-0.1,0-0.2,0c-0.4,0-0.8,0.3-0.9,0.7C14.3,13.9,14.7,14.3,15.2,14.4z"/>
	<path class="st0" d="M21.1,15.9c0,0,0.1,0,0.2,0c0.3,0.1,0.6-0.2,0.7-0.6c0.1-0.4-0.2-0.8-0.7-0.9h-0.1c-0.4,0-0.8,0.3-0.8,0.6
		C20.3,15.4,20.6,15.8,21.1,15.9z"/>
	<path class="st0" d="M20.8,19.3c0,0,0.1,0,0.2,0c0.3,0,0.6-0.2,0.7-0.6c0.1-0.4-0.2-0.8-0.7-0.9h-0.1c-0.4,0-0.8,0.3-0.8,0.6
		C20,18.8,20.3,19.2,20.8,19.3z"/>
	<path class="st0" d="M19.8,17.5c0,0,0.1,0,0.2,0c0.3,0,0.6-0.3,0.7-0.6c0.1-0.4-0.2-0.8-0.7-0.9h-0.1c-0.4,0-0.8,0.3-0.8,0.6
		C19,17,19.3,17.4,19.8,17.5z"/>
	<path class="st0" d="M17.8,17.8c0,0,0.1,0,0.2,0c0.3,0,0.6-0.3,0.7-0.6c0.1-0.4-0.2-0.8-0.7-0.9h-0.1c-0.4,0-0.8,0.3-0.8,0.6
		C17,17.3,17.3,17.7,17.8,17.8z"/>
	<path class="st0" d="M9.9,14.4c0.5,0,0.8-0.3,0.8-0.8s-0.4-0.8-0.8-0.8c-0.5,0-0.8,0.3-0.8,0.8S9.4,14.4,9.9,14.4z"/>
	<path class="st0" d="M23.2,17.9c0.3-0.4,0.3-1-0.1-1.4c-0.4-0.4-1.1-0.4-1.5,0c-0.4,0.4-0.4,1,0.1,1.4
		C22.1,18.3,22.8,18.3,23.2,17.9z"/>
	<path class="st0" d="M15.4,15.6c0-0.5-0.5-0.9-1-0.9c-0.6,0-1,0.4-1,0.9s0.5,0.9,1,0.9C15,16.6,15.4,16.2,15.4,15.6z"/>
	<path class="st0" d="M11.8,14.5c0,0.4,0.4,0.8,0.8,0.8c0.5,0,0.8-0.3,0.8-0.8c0.1-0.4-0.3-0.8-0.8-0.8S11.8,14,11.8,14.5z"/>
	<path class="st0" d="M15.5,18.6c0.1,0,0.1,0,0.2,0c0.5,0,1-0.3,1.1-0.8c0.1-0.5-0.3-1-0.9-1.1c-0.1,0-0.1,0-0.2,0
		c-0.5,0-1,0.3-1.1,0.8C14.5,18,14.9,18.5,15.5,18.6z"/>
	<path class="st0" d="M12.7,18.1c0.1,0,0.1,0,0.2,0c0.5,0,1-0.3,1.1-0.8s-0.3-1-0.9-1.1c-0.1,0-0.1,0-0.2,0c-0.5,0-1,0.3-1.1,0.8
		c-0.1,0.3,0,0.5,0.2,0.7S12.4,18.1,12.7,18.1z"/>
	<path class="st0" d="M8.2,18c0.1,0,0.1,0,0.2,0c0.5,0,1-0.3,1.1-0.8c0.1-0.3,0-0.5-0.2-0.7s-0.4-0.4-0.7-0.4c-0.1,0-0.1,0-0.2,0
		c-0.5,0-1,0.3-1.1,0.8C7.2,17.4,7.6,17.9,8.2,18z"/>
	<path class="st0" d="M10.5,19.7c0.7,0,1.2-0.5,1.2-1.1c0-0.6-0.5-1.1-1.2-1.1S9.3,18,9.3,18.6C9.3,19.2,9.8,19.7,10.5,19.7z"/>
	<ellipse class="st0" cx="13.2" cy="19.5" rx="1.3" ry="1.2"/>
	<path class="st0" d="M19.7,18.7c-0.1-0.3-0.3-0.5-0.5-0.7c-0.2-0.1-0.4-0.2-0.6-0.2c-0.4,0-0.8,0.2-1,0.5c-0.2,0.2-0.2,0.5-0.1,0.8
		c0.1,0.3,0.3,0.5,0.5,0.7c0.2,0.1,0.4,0.2,0.6,0.2c0.4,0,0.8-0.2,1-0.5C19.7,19.3,19.7,19,19.7,18.7z"/>
	<path class="st0" d="M17.8,15.3c0-0.5-0.4-0.9-1-0.9c-0.5,0-1,0.4-1,0.9s0.4,0.9,1,0.9C17.3,16.2,17.8,15.8,17.8,15.3z"/>
	<path class="st0" d="M5.4,13.3c0.5,0,0.9-0.3,1-0.7c0.1-0.2,0-0.5-0.2-0.7c-0.1-0.2-0.4-0.3-0.6-0.4c-0.1,0-0.1,0-0.2,0
		c-0.5,0-0.9,0.3-1,0.7c-0.1,0.5,0.3,1,0.8,1.1C5.3,13.3,5.3,13.3,5.4,13.3z"/>
	<ellipse class="st0" cx="5.8" cy="17" rx="1.2" ry="1.1"/>
	<path class="st0" d="M15.8,20.8c0.6,0,1.1-0.4,1.1-1c0-0.6-0.5-1-1.1-1c-0.6,0-1.1,0.4-1.1,1C14.7,20.3,15.2,20.8,15.8,20.8z"/>
	<path class="st0" d="M21.2,20c-0.2-0.1-0.4-0.2-0.6-0.2c-0.4,0-0.8,0.2-1,0.5c-0.2,0.2-0.2,0.5-0.1,0.8c0.1,0.3,0.3,0.5,0.5,0.7
		c0.2,0.1,0.4,0.2,0.6,0.2c0.4,0,0.8-0.2,1-0.5c0.2-0.2,0.2-0.5,0.1-0.8C21.6,20.3,21.4,20.1,21.2,20z"/>
	<path class="st0" d="M23.7,18.6c-0.2-0.1-0.3-0.1-0.5-0.1c-0.4,0-0.7,0.2-0.9,0.5c-0.1,0.2-0.2,0.5-0.1,0.7
		c0.1,0.2,0.2,0.4,0.5,0.6c0.2,0.1,0.3,0.1,0.5,0.1c0.4,0,0.7-0.2,0.9-0.5C24.3,19.4,24.1,18.8,23.7,18.6z"/>
	<path class="st0" d="M8.1,19.8c0.3-0.5,0.2-1.1-0.4-1.4c-0.2-0.1-0.4-0.1-0.6-0.1c-0.4,0-0.8,0.2-1,0.5C6,19,6,19.3,6,19.6
		c0.1,0.3,0.3,0.5,0.5,0.6c0.2,0.1,0.4,0.1,0.6,0.1C7.5,20.3,7.9,20.2,8.1,19.8z"/>
	<path class="st0" d="M17.9,20.4c-0.1,0-0.2,0-0.2,0c-0.6,0-1.2,0.4-1.3,1c-0.1,0.7,0.4,1.3,1.1,1.4c0.1,0,0.2,0,0.2,0
		c0.6,0,1.2-0.4,1.3-1C19.1,21.2,18.7,20.6,17.9,20.4z"/>
	<path class="st0" d="M14.6,20.8c-0.7,0-1.3,0.5-1.3,1.2s0.6,1.2,1.3,1.2c0.7,0,1.3-0.5,1.3-1.2S15.3,20.8,14.6,20.8z"/>
	<path class="st0" d="M11.6,20.7c-0.7,0-1.3,0.5-1.3,1.2c0,0.6,0.6,1.2,1.3,1.2c0.7,0,1.3-0.5,1.3-1.2
		C12.9,21.2,12.3,20.7,11.6,20.7z"/>
	<path class="st0" d="M9,19.7c-0.7,0-1.3,0.5-1.3,1.2C7.7,21.5,8.3,22,9,22s1.3-0.5,1.3-1.2C10.3,20.2,9.8,19.7,9,19.7z"/>
	<path class="st0" d="M12.3,8.2c0,0.3,0.3,0.6,0.6,0.6c0.3,0,0.6-0.2,0.6-0.6c0-0.3-0.3-0.6-0.6-0.6C12.6,7.6,12.3,7.9,12.3,8.2z"/>
	<path class="st0" d="M14.1,8.6L14.1,8.6c-0.4,0-0.6,0.2-0.7,0.4c-0.1,0.3,0.2,0.6,0.5,0.6H14c0.3,0,0.5-0.2,0.6-0.4
		C14.6,9,14.4,8.7,14.1,8.6z"/>
	<path class="st0" d="M10.8,8.8c-0.1,0.3,0.2,0.6,0.5,0.6h0.1c0.3,0,0.5-0.2,0.6-0.4c0-0.2-0.2-0.5-0.5-0.6h-0.1
		C11.1,8.4,10.9,8.6,10.8,8.8z"/>
	<path class="st0" d="M18.6,7.1c0,0.2,0.2,0.4,0.4,0.4s0.4-0.2,0.4-0.4c0-0.2-0.1-0.4-0.4-0.4C18.8,6.7,18.6,6.9,18.6,7.1z"/>
	<path class="st0" d="M17.7,6.6c0.2,0,0.4-0.2,0.4-0.4s-0.2-0.4-0.4-0.4S17.3,6,17.3,6.2S17.5,6.6,17.7,6.6z"/>
	<path class="st0" d="M16.4,6.5c0.2,0,0.4-0.2,0.4-0.4c0-0.2-0.2-0.4-0.4-0.4C16.2,5.8,16,6,16,6.2S16.2,6.5,16.4,6.5z"/>
	<path class="st0" d="M15.3,7.3c0,0.2,0.2,0.4,0.4,0.4s0.4-0.2,0.4-0.4s-0.2-0.4-0.4-0.4S15.3,7.1,15.3,7.3z"/>
	<path class="st0" d="M18.9,6.6c0.2,0,0.4-0.2,0.4-0.4s-0.2-0.4-0.4-0.4c-0.2,0-0.4,0.2-0.4,0.4C18.4,6.4,18.6,6.6,18.9,6.6z"/>
	<path class="st0" d="M20.3,6.6c0.2,0,0.4-0.2,0.4-0.4s-0.2-0.4-0.4-0.4S19.9,6,19.9,6.2C19.9,6.5,20.1,6.6,20.3,6.6z"/>
	<path class="st0" d="M22.5,8.2c0,0.1,0.1,0.1,0.1,0.2c0,0,0.1,0,0.2,0c0.1,0,0.2-0.1,0.3-0.1c0-0.1,0.1-0.1,0-0.2
		C23.1,8,23,8,23,7.9c0,0-0.1,0-0.2,0c-0.1,0-0.2,0-0.3,0.1C22.5,8.1,22.4,8.1,22.5,8.2z"/>
</g>
</svg>
