<?xml version="1.0" encoding="utf-8"?>
<!-- Generator: Adobe Illustrator 25.2.1, SVG Export Plug-In . SVG Version: 6.00 Build 0)  -->
<svg version="1.1" id="Layer_1" xmlns="http://www.w3.org/2000/svg" xmlns:xlink="http://www.w3.org/1999/xlink" x="0px" y="0px"
	 viewBox="0 0 31 29" style="enable-background:new 0 0 31 29;" xml:space="preserve">
<style type="text/css">
	.st0{fill-rule:evenodd;clip-rule:evenodd;fill:#FFFFFF;}
</style>
<g>
	<path class="st0" d="M24.2,14.2c0-0.2-0.1-0.4-0.1-0.6c-0.2-0.6-0.7-0.9-1.3-0.8c-0.4,0-0.7,0.1-1,0.3c-0.5,0.3-0.9,0.6-1.2,1
		c-0.6,0.7-1,1.6-1.1,2.5c0,0.3,0,0.7,0.1,1c0.2,0.6,0.7,1,1.3,1c0.4,0,0.7-0.1,1-0.3c0.5-0.3,0.9-0.7,1.3-1.2
		c0.4-0.6,0.8-1.2,0.9-2c0-0.2,0.1-0.3,0.1-0.5C24.2,14.6,24.2,14.4,24.2,14.2C24.2,14.3,24.2,14.2,24.2,14.2z"/>
	<path class="st0" d="M11.9,13.3c0.2,0.4,0.5,0.7,0.8,0.9c0.5,0.3,1,0.3,1.5,0c0.3-0.2,0.5-0.4,0.6-0.7c0.3-0.6,0.4-1.2,0.5-1.8
		c0-0.5,0-0.9-0.1-1.4c-0.1-0.6-0.4-1.1-0.8-1.6c-0.2-0.3-0.5-0.5-0.8-0.6c-0.1,0-0.1,0-0.2-0.1c-0.1,0-0.2,0-0.3,0
		s-0.2,0.1-0.3,0.1c-0.3,0.1-0.6,0.4-0.8,0.7c-0.4,0.6-0.6,1.3-0.6,2c0,0.3,0,0.6,0,0.9C11.4,12.3,11.6,12.8,11.9,13.3z"/>
	<path class="st0" d="M9.8,17.2c0.4-0.1,0.7-0.3,0.9-0.6c0.3-0.4,0.3-0.8,0.4-1.3c0-0.5,0-1-0.2-1.5c-0.2-0.8-0.6-1.5-1.2-2.1
		c-0.3-0.3-0.6-0.5-0.9-0.6c-0.5-0.2-1-0.1-1.4,0.3c-0.3,0.3-0.4,0.6-0.5,1c0,0.2,0,0.3-0.1,0.5c0,0.2,0,0.3,0,0.5s0,0.3,0.1,0.5
		c0.2,0.9,0.5,1.6,1,2.3c0.3,0.3,0.6,0.6,1,0.8C9.2,17.1,9.5,17.2,9.8,17.2z"/>
	<path class="st0" d="M20.2,20.7c-0.1-0.2-0.3-0.5-0.5-0.6c-0.4-0.4-0.7-0.8-1.1-1.2C18,18,17.4,17.1,17,16.2
		c-0.1-0.1-0.1-0.2-0.2-0.3c-0.2-0.3-0.4-0.5-0.7-0.7c-0.4-0.3-0.9-0.4-1.4-0.2c-0.5,0.1-0.9,0.4-1.2,0.8c-0.2,0.3-0.4,0.6-0.7,0.8
		c-0.4,0.5-0.8,0.9-1.3,1.3c-0.2,0.2-0.5,0.4-0.8,0.5c-0.1,0-0.3,0.1-0.4,0.2c-0.5,0.3-1,0.7-1.4,1.1c0,0,0,0.1-0.1,0.1
		c-0.1,0.2-0.1,0.4-0.2,0.5c-0.1,0.3-0.2,0.6-0.2,0.9c0,0.2,0,0.5,0.1,0.7c0.1,0.5,0.4,1,0.8,1.4c0.4,0.3,0.8,0.5,1.3,0.6
		c0.5,0.2,1.1,0.2,1.7,0.2c0.3,0,0.6,0,1,0.1c0.3,0,0.6,0.1,0.9,0.1c0.4,0,0.7,0.1,1.1,0.1c0.4,0.1,0.9,0.1,1.3,0.2
		c0.2,0,0.5,0.1,0.7,0.1c0.6,0.1,1.1,0,1.6-0.2c0.6-0.2,1.1-0.6,1.4-1.2c0.2-0.4,0.3-0.8,0.2-1.3C20.6,21.5,20.4,21.1,20.2,20.7z"/>
	<path class="st0" d="M16.4,14c0.1,0.3,0.4,0.6,0.7,0.7c0.4,0.2,0.7,0.1,1.1,0c0.5-0.2,0.9-0.5,1.2-0.9c0.7-0.8,1.1-1.8,1.2-2.9
		c0-0.4,0-0.8-0.1-1.1S20.2,9.2,20,9c-0.3-0.3-0.7-0.3-1.2-0.2c-0.4,0.1-0.8,0.3-1.1,0.6c-0.4,0.4-0.7,0.8-1,1.4
		c-0.3,0.7-0.5,1.3-0.5,2.1c0,0.1,0,0.1,0,0.2C16.2,13.4,16.3,13.7,16.4,14z"/>
	<path class="st0" d="M6.1,11c0,0,0-1.6,1.8-1.1c0,0-1.3-1.1-1.8-1.5C5.2,7.8,5.4,7.6,6.1,11z"/>
	<path class="st0" d="M12,7.3c0,0,1-0.5,1.9,0c0,0-0.6-1.7-0.7-1.9c0,0-0.5-2.6-0.9,0.2L12,7.3z"/>
	<path class="st0" d="M19.1,8c0,0,0.8-0.9,1.5,0.5c0,0,0.3-1.7,0.3-2c0,0,0.5-2.9-0.8-0.1L19.1,8z"/>
	<path class="st0" d="M23.4,11.9c0,0,1.7,0,1.2,1.3c0,0,0.8-2.1,0.7-2.3c0,0,0.7-2.3-0.8-0.2L23.4,11.9z"/>
</g>
</svg>
