<?xml version="1.0" encoding="utf-8"?>
<!-- Generator: Adobe Illustrator 25.2.1, SVG Export Plug-In . SVG Version: 6.00 Build 0)  -->
<svg version="1.1" id="Layer_1" xmlns="http://www.w3.org/2000/svg" xmlns:xlink="http://www.w3.org/1999/xlink" x="0px" y="0px"
	 viewBox="0 0 31 29" style="enable-background:new 0 0 31 29;" xml:space="preserve">
<style type="text/css">
	.st0{fill:#FFFFFF;}
</style>
<g>
	<path class="st0" d="M24.8,20.3c-0.2-0.3-0.4-0.6-0.6-1c-0.5-0.9-1-1.8-1.6-2.6c-1.1-1.6-2.7-2.6-4.5-2.8c-3.3-0.4-6.2,0.5-8.6,2.4
		c-1.3,1.1-2.3,2.4-3.3,3.6L6.1,20c-0.1,0.1-0.4,0.5-0.2,1.1c0.1,0.2,0.3,0.3,0.5,0.3C6.8,21.3,7,21,7.1,20.9v-0.1
		c0.5-0.7,1.1-1.5,1.7-2.2c2-2.3,4.5-3.5,7.8-3.5c0.2,0,0.4,0,0.6,0c1.8,0.1,3.1,0.8,4.2,2.2c0.7,1,1.3,2.1,1.9,3.2l0.3,0.6l0,0
		c0,0.1,0.2,0.4,0.6,0.4h0.1c0.3-0.1,0.5-0.4,0.5-0.8C24.9,20.7,24.9,20.5,24.8,20.3z"/>
	<path class="st0" d="M25.4,17.8c-1.1-3.3-4.7-5.9-8.3-6.1c-2.4-0.1-4.5,0.8-6.6,1.6l-0.2,0.1c-2.2,0.9-3.8,2.4-4.7,4.5l0,0
		c-0.1,0.2-0.3,0.5-0.1,1c0.1,0.1,0.2,0.2,0.3,0.2c0,0,0,0,0.1,0s0.2,0,0.3-0.1c0.5-0.5,0.8-1,1-1.5c0.4-0.9,1-1.6,1.9-2.1
		c1.7-1,3.3-1.7,4.9-2.2c1.3-0.4,2.6-0.5,3.8-0.2c3.4,0.7,5.4,2.3,6.3,5.2v0.1c0,0.2,0.2,0.8,0.8,0.8c0.2,0,0.3-0.1,0.4-0.3
		C25.6,18.4,25.5,18.1,25.4,17.8L25.4,17.8z"/>
	<path class="st0" d="M6,15.6L6,15.6c0.4-0.1,0.6-0.3,0.8-0.5L7,14.9c0.3-0.4,0.7-0.7,1-1.1c1.9-2,5.1-3.2,8.2-3.2
		c2.4,0,4.7,0.7,6.6,2.1c0.5,0.4,0.8,0.7,1.1,1.1c0.1,0.3,0.4,0.6,0.8,0.8c0.1,0.1,0.3,0.1,0.4,0s0.2-0.2,0.2-0.3
		c0-0.6-0.2-0.9-0.5-1.3c-0.5-0.6-1.1-1.1-1.7-1.4c-3.7-2.5-7.8-2.8-12.2-1.1c-2.2,0.9-3.8,2.4-5.1,3.9c-0.1,0.1-0.5,0.5-0.1,1
		C5.7,15.5,5.9,15.6,6,15.6z"/>
	<path class="st0" d="M25.1,10.7C22.4,8.2,19,7,14.9,7.4C12,7.7,9.1,8.8,6.5,10.7l-0.2,0.1c-0.2,0.1-0.4,0.3-0.5,0.4l0,0
		c-0.1,0.1-0.3,0.3-0.3,0.5s0.1,0.3,0.2,0.4c0.1,0.1,0.3,0.2,0.4,0.2c0.3,0,0.4-0.2,0.6-0.3l0,0c0.1-0.1,0.2-0.2,0.3-0.3
		c0.1-0.1,0.3-0.3,0.4-0.4C9,10.4,10.7,9.6,12.5,9c4.6-1.4,8.6-0.5,11.9,2.7l0.1,0.1c0.1,0.2,0.4,0.4,0.8,0.3c0.2,0,0.4-0.3,0.3-0.5
		C25.5,11.2,25.5,11.1,25.1,10.7z"/>
</g>
</svg>
