<?xml version="1.0" encoding="utf-8"?>
<!-- Generator: Adobe Illustrator 25.2.1, SVG Export Plug-In . SVG Version: 6.00 Build 0)  -->
<svg version="1.1" id="Layer_1" xmlns:ev="http://www.w3.org/2001/xml-events"
	 xmlns="http://www.w3.org/2000/svg" xmlns:xlink="http://www.w3.org/1999/xlink" x="0px" y="0px" viewBox="0 0 103.9 136.9"
	 style="enable-background:new 0 0 103.9 136.9;" xml:space="preserve">
<style type="text/css">
	.st0{stroke:#FFFFFF;stroke-width:3;}
	.st1{fill:#FBFBFB;}
	.st2{fill:#ECECEC;}
	.st3{fill:#EFEFEF;}
</style>
<path class="st0" d="M100.3,14.4c-1.1-2.4-2.8-4.6-4.8-6.4C91.2,4.1,85.6,2,79.7,2H24.4C18.5,2,12.9,4.1,8.7,7.9
	C6.6,9.8,5,12,3.8,14.4c-1.2,2.5-1.8,5.2-1.8,8v0.1v0.1l4.4,52.2c0,2.8,0.7,5.4,2.2,8c1.3,2.4,3.2,4.6,5.5,6.4
	c4.6,3.7,10.7,5.8,16.6,5.8h22l8.8,10.1l1.3,1.5l1.3-1.4l9-10.1c6.6-0.1,12.7-2.2,17.3-5.8c2.3-1.9,4.1-4,5.4-6.5
	c1.3-2.5,2-5.2,2-7.9l4.3-52.2v-0.1v-0.1C102.1,19.6,101.5,16.9,100.3,14.4z"/>
<ellipse class="st0" cx="63" cy="123.5" rx="5.5" ry="4.3"/>
<g>
	<path class="st1" d="M25.3,55.1c0-0.9,0.2-1.5,0.9-1.8c0.8-0.3,1.3,0.1,1.7,0.7c0.3,0.6,0.6,1.2,0.8,1.9c1.6,4.8,4.7,8.5,9.1,10.5
		c10.7,4.8,21.5,4.8,31.9-0.8c4.1-2.2,7-5.7,8.7-10.1c0.4-1.1,0.8-2.8,2.4-2.2c1.9,0.7,1,2.2,0.4,3.4c-3,6.5-7.7,11.3-14.4,13.6
		c-10.8,3.7-21.5,3.8-31.7-2.1c-4.5-2.7-7.5-6.7-9.4-11.7C25.6,56,25.4,55.4,25.3,55.1z"/>
	<path class="st2" d="M34.6,34.5c0.3-1.6,1.5-2.3,2.9-2.3c1.5,0,3.1,0.7,3,2.5c-0.1,1.7-1.6,2.5-3.1,2.4
		C35.9,36.9,34.7,36.1,34.6,34.5z"/>
	<path class="st3" d="M67.4,37.1c-1.5-0.4-3-0.9-2.8-2.7c0.1-1.6,1.5-2.2,2.9-2.2c1.4,0,2.8,0.8,2.9,2.3
		C70.4,36.2,68.9,36.8,67.4,37.1z"/>
</g>
</svg>
