<?xml version="1.0" encoding="utf-8"?>
<!-- Generator: Adobe Illustrator 25.2.1, SVG Export Plug-In . SVG Version: 6.00 Build 0)  -->
<svg version="1.1" id="Layer_1" xmlns:ev="http://www.w3.org/2001/xml-events"
	 xmlns="http://www.w3.org/2000/svg" xmlns:xlink="http://www.w3.org/1999/xlink" x="0px" y="0px" viewBox="0 0 103 136.5"
	 style="enable-background:new 0 0 103 136.5;" xml:space="preserve">
<style type="text/css">
	.st0{stroke:#FFFFFF;stroke-width:3;}
	.st1{fill:#FFFFFF;}
</style>
<path class="st0" d="M99.7,13.9c-1.1-2.4-2.8-4.6-4.8-6.4c-4.2-3.8-9.8-5.9-15.8-5.9H23.9c-5.9,0-11.5,2.1-15.7,5.9
	c-2.1,1.9-3.7,4-4.8,6.4c-1.2,2.5-1.8,5.2-1.8,8V22V22l4.3,52.2c0,2.8,0.7,5.4,2.2,8c1.3,2.4,3.2,4.6,5.5,6.4
	c4.6,3.7,10.7,5.8,16.6,5.8h22l8.8,10.1l1.3,1.5l1.3-1.4l9-10.1c6.6-0.1,12.7-2.2,17.3-5.8c2.3-1.9,4.1-4,5.4-6.5
	c1.3-2.5,2-5.2,2-7.9l4.3-52.2v-0.1v-0.1C101.5,19.1,100.9,16.4,99.7,13.9z"/>
<ellipse class="st0" cx="62.4" cy="123" rx="5.5" ry="4.3"/>
<g>
	<path class="st1" d="M23.6,38.6h3.9v5.3c-0.6,0.2-1.2,0.4-1.8,0.4c-0.6,0.1-1.2,0.1-1.9,0.1c-1.6,0-2.8-0.5-3.7-1.4
		c-0.9-0.9-1.3-2.3-1.3-4c0-1.7,0.5-3,1.5-4c1-1,2.3-1.4,4-1.4c1.1,0,2.1,0.2,3.1,0.6l-0.6,1.4c-0.9-0.4-1.7-0.6-2.6-0.6
		c-1.1,0-2,0.4-2.7,1.1c-0.7,0.7-1,1.7-1,2.9c0,1.3,0.3,2.3,0.9,2.9c0.6,0.7,1.4,1,2.5,1c0.6,0,1.1-0.1,1.8-0.2v-2.7h-2.2V38.6z"/>
	<path class="st1" d="M35.4,44.3l-0.2-1H35c-0.2,0.4-0.6,0.7-1,0.9c-0.4,0.2-0.9,0.3-1.5,0.3c-1,0-1.7-0.2-2.2-0.7
		c-0.5-0.5-0.7-1.2-0.7-2.2v-5.2h1.7v4.9c0,0.6,0.1,1.1,0.4,1.4c0.2,0.3,0.6,0.5,1.2,0.5c0.7,0,1.2-0.2,1.6-0.6
		c0.3-0.4,0.5-1.1,0.5-2.1v-4h1.7v7.9H35.4z"/>
	<path class="st1" d="M45.8,44.3h-1.7v-4.9c0-0.6-0.1-1.1-0.3-1.4c-0.2-0.3-0.6-0.4-1.1-0.4c-0.7,0-1.1,0.2-1.4,0.6
		c-0.3,0.4-0.5,1.1-0.5,2.1v4h-1.7v-7.9h1.3l0.2,1h0.1c0.2-0.4,0.5-0.7,1-0.9c0.4-0.2,0.9-0.3,1.4-0.3c1.2,0,2,0.4,2.4,1.2h0.1
		c0.2-0.4,0.6-0.7,1-0.9c0.4-0.2,0.9-0.3,1.5-0.3c0.9,0,1.6,0.2,2.1,0.7c0.4,0.5,0.6,1.2,0.6,2.2v5.2h-1.7v-4.9
		c0-0.6-0.1-1.1-0.3-1.4c-0.2-0.3-0.6-0.4-1.1-0.4c-0.7,0-1.1,0.2-1.4,0.6c-0.3,0.4-0.5,1-0.5,1.9V44.3z"/>
	<path class="st1" d="M57.2,36.2c1,0,1.8,0.4,2.3,1.1s0.8,1.7,0.8,3c0,1.3-0.3,2.3-0.8,3s-1.3,1.1-2.3,1.1c-1,0-1.8-0.4-2.3-1.1
		h-0.1l-0.3,0.9h-1.3V33.1h1.7v2.7c0,0.2,0,0.5,0,0.9c0,0.4,0,0.6,0,0.7h0.1C55.4,36.6,56.2,36.2,57.2,36.2z M56.8,37.6
		c-0.7,0-1.2,0.2-1.5,0.6c-0.3,0.4-0.5,1.1-0.5,2v0.1c0,1,0.2,1.7,0.5,2.1c0.3,0.4,0.8,0.6,1.5,0.6c0.6,0,1.1-0.2,1.4-0.7
		c0.3-0.5,0.5-1.2,0.5-2.1C58.6,38.5,58,37.6,56.8,37.6z"/>
	<path class="st1" d="M62.2,34.2c0-0.3,0.1-0.5,0.2-0.7c0.2-0.2,0.4-0.2,0.7-0.2c0.3,0,0.5,0.1,0.7,0.2c0.2,0.2,0.2,0.4,0.2,0.7
		c0,0.3-0.1,0.5-0.2,0.7c-0.2,0.2-0.4,0.2-0.7,0.2c-0.3,0-0.5-0.1-0.7-0.2C62.3,34.8,62.2,34.5,62.2,34.2z M64,44.3h-1.7v-7.9H64
		V44.3z"/>
	<path class="st1" d="M70.5,36.2c1,0,1.8,0.4,2.3,1.1c0.6,0.7,0.8,1.7,0.8,3c0,1.3-0.3,2.3-0.8,3c-0.6,0.7-1.3,1.1-2.3,1.1
		c-1,0-1.8-0.4-2.3-1.1H68l-0.3,0.9h-1.3V33.1h1.7v2.7c0,0.2,0,0.5,0,0.9c0,0.4,0,0.6,0,0.7h0.1C68.6,36.6,69.4,36.2,70.5,36.2z
		 M70,37.6c-0.7,0-1.2,0.2-1.5,0.6c-0.3,0.4-0.5,1.1-0.5,2v0.1c0,1,0.2,1.7,0.5,2.1c0.3,0.4,0.8,0.6,1.5,0.6c0.6,0,1.1-0.2,1.4-0.7
		c0.3-0.5,0.5-1.2,0.5-2.1C71.9,38.5,71.3,37.6,70,37.6z"/>
	<path class="st1" d="M81.2,44.3l-0.2-1h-0.1c-0.2,0.4-0.6,0.7-1,0.9c-0.4,0.2-0.9,0.3-1.5,0.3c-1,0-1.7-0.2-2.2-0.7
		c-0.5-0.5-0.7-1.2-0.7-2.2v-5.2h1.7v4.9c0,0.6,0.1,1.1,0.4,1.4c0.2,0.3,0.6,0.5,1.2,0.5c0.7,0,1.2-0.2,1.6-0.6
		c0.3-0.4,0.5-1.1,0.5-2.1v-4h1.7v7.9H81.2z"/>
	<path class="st1" d="M25.4,62.4h-1.7v-4.9c0-0.6-0.1-1.1-0.4-1.4c-0.2-0.3-0.6-0.5-1.2-0.5c-0.7,0-1.2,0.2-1.6,0.6
		c-0.3,0.4-0.5,1.1-0.5,2.1v4h-1.7v-7.9h1.3l0.2,1h0.1c0.2-0.4,0.6-0.7,1-0.9c0.4-0.2,0.9-0.3,1.5-0.3c1.9,0,2.9,1,2.9,2.9V62.4z"/>
	<path class="st1" d="M34.5,54.5v0.9l-1.4,0.3c0.1,0.2,0.2,0.4,0.3,0.6c0.1,0.2,0.1,0.5,0.1,0.8c0,0.8-0.3,1.5-0.8,1.9
		c-0.6,0.5-1.3,0.7-2.3,0.7c-0.3,0-0.5,0-0.7-0.1c-0.4,0.2-0.5,0.5-0.5,0.8c0,0.2,0.1,0.3,0.3,0.4c0.2,0.1,0.5,0.1,0.9,0.1h1.4
		c0.9,0,1.5,0.2,2,0.6c0.5,0.4,0.7,0.9,0.7,1.6c0,0.9-0.4,1.6-1.1,2.1c-0.7,0.5-1.8,0.7-3.2,0.7c-1.1,0-1.9-0.2-2.5-0.6
		c-0.6-0.4-0.9-0.9-0.9-1.6c0-0.5,0.2-0.9,0.5-1.2c0.3-0.3,0.7-0.6,1.3-0.7c-0.2-0.1-0.4-0.2-0.6-0.5c-0.1-0.2-0.2-0.4-0.2-0.7
		c0-0.3,0.1-0.5,0.3-0.8c0.2-0.2,0.4-0.4,0.7-0.6c-0.4-0.2-0.7-0.5-1-0.9c-0.3-0.4-0.4-0.9-0.4-1.4c0-0.9,0.3-1.5,0.8-2
		c0.5-0.5,1.3-0.7,2.3-0.7c0.2,0,0.5,0,0.7,0c0.2,0,0.4,0.1,0.6,0.1H34.5z M28.3,63.7c0,0.4,0.2,0.6,0.5,0.8
		c0.3,0.2,0.8,0.3,1.4,0.3c0.9,0,1.6-0.1,2.1-0.4c0.4-0.3,0.7-0.6,0.7-1c0-0.3-0.1-0.6-0.4-0.7c-0.2-0.1-0.7-0.2-1.4-0.2h-1.3
		c-0.5,0-0.9,0.1-1.2,0.3C28.4,63,28.3,63.3,28.3,63.7z M29,57.1c0,0.5,0.1,0.9,0.4,1.1c0.3,0.3,0.6,0.4,1.1,0.4
		c1,0,1.5-0.5,1.5-1.6c0-0.5-0.1-0.9-0.4-1.2c-0.2-0.3-0.6-0.4-1.1-0.4c-0.5,0-0.9,0.1-1.1,0.4C29.1,56.1,29,56.5,29,57.1z"/>
	<path class="st1" d="M40.9,62.4l-0.3-1.1h-0.1c-0.4,0.5-0.8,0.8-1.2,1c-0.4,0.2-0.9,0.3-1.5,0.3c-0.8,0-1.4-0.2-1.8-0.6
		c-0.4-0.4-0.7-1-0.7-1.8c0-0.8,0.3-1.4,0.9-1.9c0.6-0.4,1.5-0.6,2.8-0.7l1.4,0v-0.4c0-0.5-0.1-0.9-0.4-1.1
		c-0.2-0.3-0.6-0.4-1.1-0.4c-0.4,0-0.8,0.1-1.2,0.2c-0.4,0.1-0.7,0.3-1.1,0.4L36.2,55c0.4-0.2,0.9-0.4,1.4-0.5
		c0.5-0.1,1-0.2,1.5-0.2c1,0,1.8,0.2,2.3,0.7c0.5,0.4,0.8,1.1,0.8,2.1v5.3H40.9z M38.4,61.3c0.6,0,1.1-0.2,1.5-0.5
		c0.4-0.3,0.6-0.8,0.6-1.4v-0.7l-1,0c-0.8,0-1.4,0.2-1.7,0.4c-0.4,0.2-0.5,0.6-0.5,1.1c0,0.4,0.1,0.6,0.3,0.8S38,61.3,38.4,61.3z"/>
	<path class="st1" d="M51.5,62.4h-1.7v-4.9c0-0.6-0.1-1.1-0.4-1.4c-0.2-0.3-0.6-0.5-1.2-0.5c-0.7,0-1.2,0.2-1.6,0.6
		c-0.3,0.4-0.5,1.1-0.5,2.1v3.9h-1.7V51.3h1.7v2.8c0,0.5,0,0.9-0.1,1.5h0.1c0.2-0.4,0.5-0.7,1-0.9c0.4-0.2,0.9-0.3,1.4-0.3
		c1.9,0,2.9,1,2.9,2.9V62.4z"/>
	<path class="st1" d="M57.9,54.3c0.3,0,0.6,0,0.8,0.1L58.5,56c-0.2-0.1-0.5-0.1-0.7-0.1c-0.7,0-1.2,0.2-1.6,0.7
		c-0.4,0.4-0.6,1-0.6,1.7v4.2h-1.7v-7.9h1.3l0.2,1.4h0.1c0.3-0.5,0.6-0.8,1-1.1C56.9,54.5,57.4,54.3,57.9,54.3z"/>
	<path class="st1" d="M60.1,52.4c0-0.3,0.1-0.5,0.2-0.7c0.2-0.2,0.4-0.2,0.7-0.2c0.3,0,0.5,0.1,0.7,0.2c0.2,0.2,0.2,0.4,0.2,0.7
		c0,0.3-0.1,0.5-0.2,0.7c-0.2,0.2-0.4,0.2-0.7,0.2c-0.3,0-0.5-0.1-0.7-0.2C60.1,52.9,60.1,52.7,60.1,52.4z M61.9,62.4h-1.7v-7.9h1.7
		V62.4z"/>
	<path class="st1" d="M71.3,62.4h-1.7v-4.9c0-0.6-0.1-1.1-0.4-1.4c-0.2-0.3-0.6-0.5-1.2-0.5c-0.7,0-1.2,0.2-1.6,0.6
		c-0.3,0.4-0.5,1.1-0.5,2.1v4h-1.7v-7.9h1.3l0.2,1h0.1c0.2-0.4,0.6-0.7,1-0.9c0.4-0.2,0.9-0.3,1.5-0.3c1.9,0,2.9,1,2.9,2.9V62.4z"/>
	<path class="st1" d="M72.4,54.5h1.8l1.6,4.5c0.2,0.6,0.4,1.2,0.5,1.8h0.1c0-0.3,0.1-0.6,0.2-1c0.1-0.4,0.7-2.2,1.8-5.4h1.8l-3.4,9
		c-0.6,1.7-1.6,2.5-3.1,2.5c-0.4,0-0.7,0-1.1-0.1v-1.3c0.3,0.1,0.5,0.1,0.9,0.1c0.8,0,1.4-0.5,1.7-1.4l0.3-0.7L72.4,54.5z"/>
	<path class="st1" d="M81.2,61.5c0-0.4,0.1-0.6,0.3-0.8c0.2-0.2,0.5-0.3,0.8-0.3c0.3,0,0.6,0.1,0.8,0.3c0.2,0.2,0.3,0.5,0.3,0.8
		s-0.1,0.6-0.3,0.8c-0.2,0.2-0.4,0.3-0.8,0.3c-0.3,0-0.6-0.1-0.8-0.3C81.3,62.2,81.2,61.9,81.2,61.5z M82.9,59.2h-1.2l-0.4-7.3h2
		L82.9,59.2z"/>
</g>
</svg>
