<?xml version="1.0" encoding="utf-8"?>
<!-- Generator: Adobe Illustrator 25.2.1, SVG Export Plug-In . SVG Version: 6.00 Build 0)  -->
<svg version="1.1" id="Layer_1" xmlns:ev="http://www.w3.org/2001/xml-events"
	 xmlns="http://www.w3.org/2000/svg" xmlns:xlink="http://www.w3.org/1999/xlink" x="0px" y="0px" viewBox="0 0 103.9 136.9"
	 style="enable-background:new 0 0 103.9 136.9;" xml:space="preserve">
<style type="text/css">
	.st0{stroke:#FFFFFF;stroke-width:3;}
	.st1{fill:#FFFFFF;}
</style>
<path class="st0" d="M100.3,14.4c-1.1-2.4-2.8-4.6-4.8-6.4C91.2,4.1,85.6,2,79.7,2H24.4C18.5,2,12.9,4.1,8.7,7.9
	C6.6,9.8,5,12,3.8,14.4c-1.2,2.5-1.8,5.2-1.8,8v0.1v0.1l4.4,52.2c0,2.8,0.7,5.4,2.2,8c1.3,2.4,3.2,4.6,5.5,6.4
	c4.6,3.7,10.7,5.8,16.6,5.8h22l8.8,10.1l1.3,1.5l1.3-1.4l9-10.1c6.6-0.1,12.7-2.2,17.3-5.8c2.3-1.9,4.1-4,5.4-6.5
	c1.3-2.5,2-5.2,2-7.9l4.3-52.2v-0.1v-0.1C102.1,19.6,101.5,16.9,100.3,14.4z"/>
<ellipse class="st0" cx="63" cy="123.5" rx="5.5" ry="4.3"/>
<path class="st1" d="M84.3,37.6c-0.9-3.9-4.8-8.6-10.4-12.2c-5.9-3.9-12.8-5.9-18.7-5.3c-16.9-0.3-28.5,6.2-34.7,20.2
	c-0.3,0.6-0.6,1.2-0.9,1.8c-0.3,0.6-0.3,0.9-0.6,1.5c-2.4,4.8-2.7,9.5-0.9,14.3c2.1,6.2,7.4,11.6,14.8,14.8c0.6,0.3,2.1,0.6,3,0.6
	c4.5-0.3,8.6,0.6,12.5,1.8c1.5,0.6,3,0.6,4.5,0.6s3-0.3,4.5-0.3c6.8-0.9,12.5-3.9,17.5-7.1c4.5-2.7,7.1-5.9,8-10.4v-0.3
	C84.3,51,85.8,44.7,84.3,37.6z M80.7,55.4c-1.2,5-5,10.1-10.7,13.7c-7.1,4.5-15.4,5.9-22.6,3.9h-0.6C44.8,72.6,43,72,40.9,72
	c-0.6,0-0.9,0-1.5,0c-4.2,0.6-6.8-1.2-9.5-3.3C19.8,61.4,17.8,53,22.8,41.2c3.3-7.7,8.3-12.5,15.7-15.7c5.6-2.1,10.1-3,14.8-3.3
	c8.3-0.9,16,2.1,24.1,8.6c3,2.7,4.8,6.2,4.8,10.7C82.5,45.9,81.9,50.7,80.7,55.4z"/>
<path class="st1" d="M54.6,28.1c-9.2-0.3-22.6,7.1-24.9,14.3C27.6,48.3,28.2,54.2,32,59c3.9,5.3,10.7,8.6,17.5,8.6
	c0.6,0,0.9,0,1.5,0c0.9,0,1.5,0,2.1-0.3c0.6,0,1.2,0,2.1,0c7.4-0.6,13.4-3.6,17.2-8.9c3.3-4.5,4.5-10.1,3-15.1
	C73.3,34.6,64.4,28.4,54.6,28.1z M72.7,51c-3,9.2-9.8,13.7-21.4,13.7c-3.3,0.3-6.5-0.3-8.9-1.5C36.2,60.8,32.6,56.6,32,51
	c-0.6-6.2,0.6-11.6,7.1-15.1c4.5-2.7,9.2-5.3,14.8-5.3c0.9,0,2.1,0,3.3,0.3c5.9,0.9,10.7,3.9,13.7,8.3C73.3,42.6,73.9,47.1,72.7,51z
	"/>
<path class="st1" d="M53.1,35.5c-2.7-0.3-5.6,0.9-8.3,3.3c-3.9,3.3-6.2,8.3-6.2,12.2c0,2.7,1.2,5.6,3.3,7.7
	c2.4,2.4,6.2,3.6,10.1,3.6c0.3,0,0.3,0,0.6,0c10.1-0.6,15.7-5.3,16.3-14C68.3,40,63.8,36.1,53.1,35.5z M52.2,60.2
	c-3.3,0-5.9-0.9-8-2.7c-1.8-1.8-2.7-4.2-2.7-6.5c0.3-5.3,7.1-13.1,11.6-13.1c0.3,0,0.6,0,0.6,0c3.9,0,7.1,1.2,9.5,3.6
	c1.8,1.8,3,4.2,3,6.5C65.9,55.4,59,59.6,52.2,60.2z"/>
<path class="st1" d="M53.4,40c-4.2,0-8.3,5-8.3,10.1c-0.3,2.4,0.6,4.5,1.8,5.6c1.2,1.5,3,2.1,5,2.1c0.3,0,0.6,0,0.6,0
	c3.3,0,6.5-1.2,8.9-3.3c1.8-1.8,2.7-3.9,2.7-6.2C64.1,42.9,60.5,40.3,53.4,40z M57.9,53.6c-0.6,0-1.2,0.3-1.5,0.6
	c-2.7,1.8-4.8,1.5-5.6,0.9c-1.8-0.9-3-3-3-5.3c0-3.3,1.8-5.6,4.8-6.5c0.9-0.3,1.8-0.3,2.7-0.3c2.4,0,4.5,1.2,5.6,3.3
	C61.7,48.9,60.5,52.1,57.9,53.6z"/>
<path class="st1" d="M54,45c-2.4,0-4.2,2.4-4.2,5c0,2.1,1.8,2.4,3.3,2.7c0.3,0,0.3,0,0.6,0c1.8,0,3.3-0.6,4.2-1.8
	c0.6-0.6,0.9-1.5,0.6-2.4C58.2,46.5,56.7,45.3,54,45z M55.5,49.8c-0.3,0.3-0.6,0.3-1.2,0.3c-1.2,0-1.5-0.3-1.5-0.9s0.3-1.2,0.9-1.8
	c1.5,0.3,1.5,0.9,1.8,1.5C55.5,49.2,55.5,49.8,55.5,49.8z"/>
</svg>
