<?xml version="1.0" encoding="utf-8"?>
<!-- Generator: Adobe Illustrator 25.2.1, SVG Export Plug-In . SVG Version: 6.00 Build 0)  -->
<svg version="1.1" id="Layer_1" xmlns="http://www.w3.org/2000/svg" xmlns:xlink="http://www.w3.org/1999/xlink" x="0px" y="0px"
	 viewBox="0 0 31 29" style="enable-background:new 0 0 31 29;" xml:space="preserve">
<style type="text/css">
	.st0{fill:#FFFFFF;}
</style>
<g>
	<path class="st0" d="M16.5,14.9c0.5,0.6,1,1.3,1.5,1.9c0.7,0.8,1.3,1.7,2,2.6c0.3,0.5,0.4,1.1-0.1,1.4c-0.5,0.4-0.9,0.1-1.3-0.3
		c-1.1-1-2.1-2.1-3.1-3.1c-0.2-0.2-0.7-0.6-0.8-0.5c0,0-0.2,0.1-0.3,0.2c0.2,0.2,0.4,0.6,0.6,0.7c1,0.9,1.9,1.7,2.9,2.6
		c0.3,0.3,0.6,0.5,0.2,1c-0.3,0.4-0.7,0.7-1.2,0.3c-0.4-0.2-0.7-0.5-1-0.8c-0.7-0.5-1.4-1-2.1-1.5c-0.2-0.1-0.4-0.2-0.6-0.3
		c0,0.1-0.1,0.1-0.1,0.2c1,0.8,2,1.5,3,2.3c-0.8,0.9-1.5,0.9-2.1,0c-0.6-0.6-1-1.4-2-1.6c-0.1,0-0.2-0.3-0.2-0.4
		c-0.2-0.7-0.7-1-1.4-1.1c-0.2,0-0.4-0.1-0.6-0.2C9.3,18,9,17.6,8.5,17.5c-1.2-0.3-2-1.1-2.8-2c-0.4-0.6-0.5-1.2-0.3-1.9
		C5.8,11.7,6.3,9.9,6.7,8C6.8,7.6,7,7.3,7.5,7.5c0.2,0.1,0.4,0.1,0.6,0.1c0.5,0,0.6,0.3,0.7,0.8c0,0.7,0.9,1.6,1.6,1.5
		c0.9,0,1.8-0.1,2.7-0.3c1.1-0.2,2,0,2.7,0.8c1.6,1.7,3.1,3.5,4.7,5.3c0.6,0.7,1.2,1.6,1.7,2.3c0.1,0.1,0.1,0.2,0.2,0.3
		c0.3,0.6,0.1,1.5-0.4,1.7c-0.3,0.2-1.1-0.2-1.4-0.7c-1.1-1.4-2.1-2.8-3.1-4.2c-0.2-0.2-0.5-0.7-0.6-0.6
		C16.6,14.8,16.5,14.8,16.5,14.9z"/>
	<path class="st0" d="M22.5,9.8c1,2.1,2,4.1,3.1,6.3c-0.9,0.5-1.9,1-2.8,1.5c-0.1,0.1-0.5-0.1-0.6-0.3c-1.7-2.1-3.3-4.2-5-6.3
		c-0.9-1.1-2-1.8-3.4-1.9c-0.4-0.1-0.9,0.1-1.3,0.1c-0.9,0-1.7,0-2.6-0.1c-0.2,0-0.5-0.2-0.6-0.4C9,8.4,9,8.1,9.4,7.9
		c1-0.4,2.1-0.8,3.1-1.1c0.3-0.1,0.7-0.1,1.1,0c2.2,0.6,4.4,1.1,6.1,2.8c0.5,0.6,1.3,0.7,2.1,0.5C22,10,22.3,9.9,22.5,9.8z"/>
	<path class="st0" d="M10.6,21.2c-0.6,0-1-0.5-1-1c0-0.9,0.3-1.3,0.9-1.2c0.6,0,1.1,0.7,1.1,1.4C11.5,20.7,11,21.2,10.6,21.2z"/>
	<path class="st0" d="M9.6,19c-0.2,0.4-0.4,0.9-0.7,1c-0.5,0.2-1.3-0.7-1.3-1.3c0-0.5,0.3-0.9,0.8-0.9C9.1,17.9,9.5,18.3,9.6,19z"/>
	<path class="st0" d="M13.6,21.8c-0.3,0.5-0.7,0.7-1.1,0.4c-0.5-0.3-0.9-1.1-0.7-1.5s0.5-0.3,0.7-0.1C12.9,21,13.3,21.4,13.6,21.8z"
		/>
	<path class="st0" d="M6.6,16.9c0.3,0.3,0.7,0.6,0.9,0.9c0.1,0.1-0.3,0.6-0.3,0.6c-0.3-0.1-0.7-0.2-0.9-0.5c-0.1-0.2,0-0.6,0.1-0.9
		C6.5,17,6.6,16.9,6.6,16.9z"/>
</g>
</svg>
