<?xml version="1.0" encoding="utf-8"?>
<!-- Generator: Adobe Illustrator 25.2.1, SVG Export Plug-In . SVG Version: 6.00 Build 0)  -->
<svg version="1.1" id="Layer_1" xmlns="http://www.w3.org/2000/svg" xmlns:xlink="http://www.w3.org/1999/xlink" x="0px" y="0px"
	 viewBox="0 0 31 29" style="enable-background:new 0 0 31 29;" xml:space="preserve">
<style type="text/css">
	.st0{fill:#FFFFFF;}
</style>
<path class="st0" d="M22.3,19c0-0.1,0-0.1,0-0.2c0-0.7-0.1-1.5-0.2-2.2c-0.1-0.9-0.2-1.9-0.2-2.8c0-2.4,0-9.6-5.7-9.6
	c-4.4,0-7,3.1-7,8.4c0,0.9-0.1,1.9-0.3,2.9c-0.2,1.3-0.3,2.7-0.3,4l0,0.3c0.1,1.1,0.4,2.2,1.2,3.1c0.9,1,2.2,1.6,4.1,1.9l0.6,0.1
	c0.6,0.1,1.2,0.1,1.8,0.1h0c2.3,0,3.9-0.5,4.8-1.6c0.1-0.1,0.2-0.3,0.3-0.4l0.3-0.6c0.2-0.5,0.3-1.1,0.4-1.6c0,0,0,0,0,0
	C22.3,20,22.3,19.5,22.3,19z M21.4,17.5l-0.4-0.5c0.1,0,0.1,0,0.2,0c0,0,0.1,0,0.1,0C21.4,17.2,21.4,17.4,21.4,17.5z M21.3,16.2
	c-0.2,0-0.5,0-0.9,0l-0.5-0.7c0.3,0,0.6,0,0.8,0.1L21.3,16.2C21.3,16.2,21.3,16.2,21.3,16.2z M17.4,15.3l0.5,0.7c-0.1,0-0.1,0-0.2,0
	l-0.5-0.7C17.3,15.3,17.3,15.3,17.4,15.3z M17.3,13.8c0.2,0,0.3,0,0.5,0.1c0,0.1,0,0.1,0.1,0.2l0.4,0.5c-0.1,0-0.3,0-0.4,0
	L17.3,13.8z M17.3,16.7l0.5,0.7c-0.1,0-0.2,0-0.2,0L17,16.7C17.1,16.7,17.2,16.7,17.3,16.7z M17.1,18.2l0.5,0.7
	c-0.2,0-0.4,0-0.6-0.1l-0.5-0.7C16.7,18.1,16.9,18.1,17.1,18.2z M16.1,15.2l0.5,0.7c-0.1,0-0.2,0-0.3,0l-0.5-0.7
	C15.9,15.1,16,15.1,16.1,15.2z M16,13.7c0.1,0,0.1,0,0.2,0l0.5,0.7c-0.1,0-0.1,0-0.2,0L16,13.7z M15.9,16.6l0.5,0.7
	c-0.2,0-0.4,0-0.6-0.1l-0.5-0.7C15.5,16.5,15.7,16.6,15.9,16.6z M15.9,18.6c-0.3,0-0.5-0.1-0.8-0.1c-0.2-0.2-0.3-0.4-0.5-0.7
	c0.3,0,0.5,0.1,0.8,0.1L15.9,18.6z M15.1,14.2l-0.5-0.7c0.1,0,0.2,0,0.4,0l0.5,0.7C15.3,14.2,15.2,14.2,15.1,14.2z M14.6,15l0.5,0.7
	c-0.2,0-0.4,0-0.5-0.1l-0.5-0.7C14.3,14.9,14.4,15,14.6,15z M14.2,16.4l0.5,0.7C14.5,17,14.2,17,14,17c-0.2-0.2-0.3-0.5-0.5-0.7
	C13.7,16.3,14,16.3,14.2,16.4z M14,18.4c-0.4,0-0.8-0.1-1.1-0.1c-0.1-0.2-0.3-0.4-0.4-0.7c0.3,0,0.7,0.1,1,0.1
	C13.7,18,13.9,18.2,14,18.4z M13.4,14l-0.5-0.7c0.2,0,0.4,0.1,0.6,0.1c0,0.1,0,0.2,0.1,0.2l0.3,0.4C13.7,14,13.6,14,13.4,14z
	 M13,14.8l0.5,0.7c-0.2,0-0.4,0-0.6-0.1c-0.2-0.2-0.3-0.5-0.5-0.7C12.6,14.7,12.8,14.8,13,14.8z M12.4,16.2c0.2,0.2,0.3,0.4,0.5,0.7
	c-0.3,0-0.6-0.1-0.9-0.1c-0.1-0.2-0.3-0.5-0.4-0.7C11.9,16.1,12.1,16.1,12.4,16.2z M11.3,14.6c0.1,0.2,0.3,0.4,0.5,0.7
	c-0.2,0-0.5-0.1-0.7-0.1c-0.1-0.2-0.3-0.5-0.4-0.7C10.9,14.5,11.1,14.5,11.3,14.6z M11.3,13.1c0.2,0,0.3,0,0.5,0.1
	c0,0.1,0,0.1,0.1,0.2l0.4,0.5c-0.2,0-0.3,0-0.5-0.1C11.6,13.6,11.5,13.3,11.3,13.1z M11.5,17.5c0.1,0.2,0.3,0.4,0.4,0.7
	C11.5,18.1,11,18,10.6,18c-0.1-0.2-0.3-0.4-0.4-0.7C10.6,17.4,11,17.4,11.5,17.5z M12.4,19c0.1,0.2,0.3,0.4,0.4,0.7
	c-0.4-0.1-0.8-0.1-1.2-0.2c-0.1-0.2-0.3-0.4-0.4-0.7C11.5,18.9,12,19,12.4,19z M13.3,20.6c0.1,0.2,0.3,0.5,0.4,0.7
	c-0.4-0.1-0.8-0.1-1.2-0.2c-0.1-0.2-0.3-0.4-0.4-0.7C12.5,20.5,12.9,20.6,13.3,20.6z M13.4,19.2c0.4,0.1,0.8,0.1,1.3,0.2
	c0.2,0.2,0.3,0.5,0.5,0.7c-0.5-0.1-0.9-0.1-1.4-0.2C13.7,19.6,13.6,19.4,13.4,19.2z M15.9,20.9c0.2,0.2,0.4,0.5,0.5,0.7
	c-0.5-0.1-1.1-0.1-1.6-0.2c-0.1-0.2-0.3-0.4-0.4-0.7C14.9,20.8,15.4,20.9,15.9,20.9z M16.3,20.1c-0.2-0.2-0.3-0.4-0.5-0.7
	c0.3,0,0.6,0.1,0.8,0.1l0.5,0.7C16.9,20.2,16.6,20.2,16.3,20.1z M17.8,21.1l0.5,0.7c-0.3,0-0.5-0.1-0.8-0.1
	c-0.2-0.2-0.3-0.4-0.5-0.7C17.3,21.1,17.6,21.1,17.8,21.1z M18.3,20.4l-0.5-0.7c0.2,0,0.4,0,0.6,0.1l0.5,0.7
	C18.7,20.4,18.5,20.4,18.3,20.4z M18.8,19l-0.5-0.7c0.1,0,0.1,0,0.2,0L19,19C18.9,19,18.8,19,18.8,19z M18.9,17.5l-0.5-0.7
	c0.1,0,0.1,0,0.2,0l0.5,0.7C19,17.5,19,17.5,18.9,17.5z M19,16.1l-0.5-0.7c0.1,0,0.2,0,0.4,0l0.5,0.7C19.2,16.1,19.1,16.1,19,16.1z
	 M19.3,14.7L18.8,14c0.2,0,0.4,0,0.6,0.1l0.6,0.7C19.8,14.7,19.5,14.7,19.3,14.7z M20.1,19.1l-0.5-0.7c0.1,0,0.2,0,0.2,0l0.5,0.7
	C20.2,19.1,20.1,19.1,20.1,19.1z M20.1,20.5c0,0-0.1,0-0.1,0l-0.5-0.7c0.1,0,0.1,0,0.2,0L20.1,20.5z M20.2,17.6L19.7,17
	c0.1,0,0.2,0,0.3,0l0.5,0.7C20.4,17.7,20.3,17.6,20.2,17.6z M21.2,14.8C21.2,14.8,21.2,14.8,21.2,14.8l-0.6-0.7c0.2,0,0.4,0,0.6,0
	C21.2,14.4,21.2,14.6,21.2,14.8z M16.2,4.9c3.3,0,4.9,2.7,4.9,8.4c-0.9,0-3.3-0.3-5.9-0.6l-5.1-0.6c0,0,0,0,0,0c-0.1,0-0.1,0-0.2,0
	C10.1,7.6,12.4,4.9,16.2,4.9z M10,12.9c0.1,0,0.2,0,0.3,0c0.1,0.2,0.3,0.4,0.5,0.7c-0.2,0-0.4,0-0.5-0.1c-0.1-0.2-0.2-0.3-0.2-0.4
	C10,13.1,10,13,10,12.9z M9.8,14.6c0.1,0.1,0.1,0.2,0.2,0.4c-0.1,0-0.2,0-0.3,0C9.8,14.9,9.8,14.8,9.8,14.6z M9.7,15.8
	c0.2,0,0.5,0.1,0.9,0.1c0.1,0.2,0.3,0.4,0.4,0.7c-0.4-0.1-0.8-0.1-1.2-0.2c0,0-0.1-0.1-0.1-0.1C9.7,16.1,9.7,16,9.7,15.8z M9.5,17.7
	c0,0.1,0.1,0.1,0.1,0.2c0,0-0.1,0-0.1,0C9.5,17.8,9.5,17.7,9.5,17.7z M9.7,19.3c-0.1,0-0.1,0-0.2,0c0-0.2,0-0.4,0-0.7
	c0,0,0.1,0,0.1,0c0.1,0,0.3,0,0.6,0.1c0.1,0.2,0.3,0.5,0.4,0.7C10.2,19.4,9.9,19.3,9.7,19.3z M10,20.2c0.3,0,0.6,0.1,1.1,0.1
	c0.1,0.2,0.3,0.5,0.4,0.7c-0.3,0-0.7-0.1-1-0.1C10.3,20.6,10.1,20.4,10,20.2z M11.1,21.8c0.3,0,0.6,0.1,0.9,0.1
	c0.2,0.3,0.3,0.5,0.5,0.8c-0.3,0-0.6-0.1-0.8-0.1C11.5,22.3,11.3,22,11.1,21.8z M12.5,23.5C12.5,23.5,12.5,23.5,12.5,23.5
	C12.5,23.5,12.5,23.5,12.5,23.5c0.1,0,0.4,0,0.6,0c0,0.1,0.1,0.1,0.1,0.2C13,23.7,12.7,23.6,12.5,23.5z M13.6,22.8
	c-0.2-0.2-0.3-0.5-0.5-0.8c0.4,0,0.8,0.1,1.2,0.2c0.2,0.3,0.4,0.6,0.5,0.8C14.4,22.9,14,22.9,13.6,22.8z M14.4,23.9
	c0-0.1-0.1-0.1-0.2-0.2c0.4,0.1,0.8,0.1,1.2,0.2c0,0,0.1,0.1,0.1,0.1C15.1,24,14.7,24,14.4,23.9z M15.9,23.1
	c-0.2-0.3-0.4-0.5-0.6-0.8c0.6,0.1,1.2,0.1,1.8,0.2c0.3,0.4,0.5,0.7,0.8,0.9C17.3,23.3,16.6,23.2,15.9,23.1z M19.6,23.5
	c-0.1,0-0.2,0-0.4,0c-0.2-0.1-0.5-0.4-0.9-0.9c0.3,0,0.5,0.1,0.8,0.1L19.6,23.5C19.6,23.5,19.6,23.5,19.6,23.5z M19.5,21.9l-0.5-0.7
	c0.2,0,0.4,0,0.6,0.1l0.5,0.7C19.9,22,19.7,21.9,19.5,21.9z M20.3,23l-0.2-0.2c0.1,0,0.3,0,0.4,0C20.4,22.9,20.4,23,20.3,23z
	 M21.1,21.9l-0.4-0.6c0,0,0.1,0,0.1,0L21.1,21.9C21.1,21.9,21.1,21.9,21.1,21.9z M21.2,20.6l-0.5-0.6c0.1,0,0.2,0,0.3,0l0.5,0.6
	C21.4,20.6,21.3,20.6,21.2,20.6z M21.5,19.1c0,0-0.1,0-0.1,0l-0.5-0.6c0.1,0,0.2,0,0.3,0L21.5,19.1C21.5,19.1,21.5,19.1,21.5,19.1
	C21.5,19.1,21.5,19.1,21.5,19.1z"/>
</svg>
