<?xml version="1.0" encoding="utf-8"?>
<!-- Generator: Adobe Illustrator 25.2.1, SVG Export Plug-In . SVG Version: 6.00 Build 0)  -->
<svg version="1.1" id="Layer_1" xmlns="http://www.w3.org/2000/svg" xmlns:xlink="http://www.w3.org/1999/xlink" x="0px" y="0px"
	 viewBox="0 0 31 29" style="enable-background:new 0 0 31 29;" xml:space="preserve">
<style type="text/css">
	.st0{fill:#FFFFFF;}
</style>
<g>
	<path class="st0" d="M26.7,11c-0.3-1.3-1.6-2.9-3.5-4.1c-2-1.3-4.3-2-6.3-1.8C11.2,5,7.3,7.2,5.2,11.9c-0.1,0.2-0.2,0.4-0.3,0.6
		c-0.1,0.2-0.1,0.3-0.2,0.5c-0.8,1.6-0.9,3.2-0.3,4.8c0.7,2.1,2.5,3.9,5,5c0.2,0.1,0.7,0.2,1,0.2c1.5-0.1,2.9,0.2,4.2,0.6
		c0.5,0.2,1,0.2,1.5,0.2s1-0.1,1.5-0.1c2.3-0.3,4.2-1.3,5.9-2.4c1.5-0.9,2.4-2,2.7-3.5v-0.1C26.7,15.5,27.2,13.4,26.7,11z M25.5,17
		c-0.4,1.7-1.7,3.4-3.6,4.6c-2.4,1.5-5.2,2-7.6,1.3h-0.2c-0.7-0.1-1.3-0.3-2-0.3c-0.2,0-0.3,0-0.5,0c-1.4,0.2-2.3-0.4-3.2-1.1
		C5,19,4.3,16.2,6,12.2C7.1,9.6,8.8,8,11.3,6.9c1.9-0.7,3.4-1,5-1.1c2.8-0.3,5.4,0.7,8.1,2.9c1,0.9,1.6,2.1,1.6,3.6
		C26.1,13.8,25.9,15.4,25.5,17z"/>
	<path class="st0" d="M16.7,7.8c-3.1-0.1-7.6,2.4-8.4,4.8c-0.7,2-0.5,4,0.8,5.6c1.3,1.8,3.6,2.9,5.9,2.9c0.2,0,0.3,0,0.5,0
		c0.3,0,0.5,0,0.7-0.1c0.2,0,0.4,0,0.7,0c2.5-0.2,4.5-1.2,5.8-3c1.1-1.5,1.5-3.4,1-5.1C23,10,20,7.9,16.7,7.8z M22.8,15.5
		c-1,3.1-3.3,4.6-7.2,4.6c-1.1,0.1-2.2-0.1-3-0.5c-2.1-0.8-3.3-2.2-3.5-4.1c-0.2-2.1,0.2-3.9,2.4-5.1c1.5-0.9,3.1-1.8,5-1.8
		c0.3,0,0.7,0,1.1,0.1c2,0.3,3.6,1.3,4.6,2.8C23,12.7,23.2,14.2,22.8,15.5z"/>
	<path class="st0" d="M16.2,10.3c-0.9-0.1-1.9,0.3-2.8,1.1c-1.3,1.1-2.1,2.8-2.1,4.1c0,0.9,0.4,1.9,1.1,2.6c0.8,0.8,2.1,1.2,3.4,1.2
		c0.1,0,0.1,0,0.2,0c3.4-0.2,5.3-1.8,5.5-4.7C21.3,11.8,19.8,10.5,16.2,10.3z M15.9,18.6c-1.1,0-2-0.3-2.7-0.9
		c-0.6-0.6-0.9-1.4-0.9-2.2c0.1-1.8,2.4-4.4,3.9-4.4c0.1,0,0.2,0,0.2,0c1.3,0,2.4,0.4,3.2,1.2c0.6,0.6,1,1.4,1,2.2
		C20.5,17,18.2,18.4,15.9,18.6z"/>
	<path class="st0" d="M16.3,11.8c-1.4,0-2.8,1.7-2.8,3.4c-0.1,0.8,0.2,1.5,0.6,1.9c0.4,0.5,1,0.7,1.7,0.7c0.1,0,0.2,0,0.2,0
		c1.1,0,2.2-0.4,3-1.1c0.6-0.6,0.9-1.3,0.9-2.1C19.9,12.8,18.7,11.9,16.3,11.8z M17.8,16.4c-0.2,0-0.4,0.1-0.5,0.2
		c-0.9,0.6-1.6,0.5-1.9,0.3c-0.6-0.3-1-1-1-1.8c0-1.1,0.6-1.9,1.6-2.2c0.3-0.1,0.6-0.1,0.9-0.1c0.8,0,1.5,0.4,1.9,1.1
		C19.1,14.8,18.7,15.9,17.8,16.4z"/>
	<path class="st0" d="M16.5,13.5c-0.8,0-1.4,0.8-1.4,1.7c0,0.7,0.6,0.8,1.1,0.9c0.1,0,0.1,0,0.2,0c0.6,0,1.1-0.2,1.4-0.6
		c0.2-0.2,0.3-0.5,0.2-0.8C17.9,14,17.4,13.6,16.5,13.5z M17,15.1c-0.1,0.1-0.2,0.1-0.4,0.1c-0.4,0-0.5-0.1-0.5-0.3
		c0-0.2,0.1-0.4,0.3-0.6c0.5,0.1,0.5,0.3,0.6,0.5C17,14.9,17,15.1,17,15.1z"/>
</g>
</svg>
