<?xml version="1.0" encoding="utf-8"?>
<!-- Generator: Adobe Illustrator 25.2.1, SVG Export Plug-In . SVG Version: 6.00 Build 0)  -->
<svg version="1.1" xmlns="http://www.w3.org/2000/svg" xmlns:xlink="http://www.w3.org/1999/xlink" x="0px" y="0px" width="100px"
	 viewBox="0 0 694.2 989.3" style="enable-background:new 0 0 694.2 989.3;" xml:space="preserve">
<style type="text/css">
	.st0{fill-rule:evenodd;clip-rule:evenodd;}
	.st1{fill:#FFFFFF;}
	.st2{fill:#FFFFFF;stroke:#FFFFFF;stroke-width:8;stroke-miterlimit:10;}
</style>
<g id="Layer_2">
</g>
<g id="Layer_3">
	<g transform="translate(-48 -48)">
		<g id="Shape_1_copy">
			<path class="st0" d="M402.3,687.6H246.9c-39.9,0-80.6-14.3-111.8-39.1c-32.8-26.2-50.9-60.1-51-95.7L53.9,190.2v-0.2
				c0-74.5,67-135.1,149.3-135.1h383.8c82.3,0,149.3,60.6,149.3,135.1v0.2L706,552.8c-0.1,36.5-17.4,70.4-48.6,95.7
				c-31.1,25.1-73.2,39-118.7,39.2l-68.7,76.9L402.3,687.6z"/>
			<path class="st1" d="M586.9,60.9c79.1,0,143.3,57.7,143.3,129.1L700,552.5c0,71.2-69.6,129.1-162.4,129.1c-0.2,0-0.4,0-0.5,0
				h-1.1l-66,73.9L405,681.6H246.9c-79.1,0-156.8-57.8-156.8-129.1L59.9,189.9c0-71.3,64.2-129.1,143.3-129.1H586.9 M586.9,48.9
				H203.1c-41.2,0-80.1,14.5-109.3,40.9c-14.4,12.9-25.6,28-33.5,44.8c-8.2,17.5-12.4,36.1-12.4,55.3v0.5l0,0.5L78.1,553
				c0.1,19.1,5.1,37.8,14.9,55.5c9.2,16.6,22.1,31.6,38.4,44.6c32.2,25.7,74.4,40.4,115.6,40.4h152.7l61.3,69.8l8.9,10.2l9-10.1
				l62.4-69.9c45.8-0.7,88.2-15.1,119.8-40.5c15.9-12.9,28.5-28,37.2-44.9c9-17.4,13.6-36,13.7-55.2l30.2-362.1l0-0.5v-0.5
				c0-19.2-4.2-37.8-12.4-55.3c-7.9-16.8-19.2-31.9-33.5-44.8C667,63.4,628.2,48.9,586.9,48.9L586.9,48.9z"/>
		</g>
	</g>
	<g>
		<path class="st1" d="M34.2,844.8c0-2.4,0.1-4.6,0.4-6.7c0.3-2,0.7-4.2,1.3-6.6h13.2v5.5c0,3,0.2,5.7,0.6,8c0.4,2.3,1,4.3,1.8,5.9
			c0.9,1.6,2,2.8,3.4,3.6c1.4,0.8,3.2,1.2,5.2,1.2c3.2,0,5.7-0.9,7.4-2.7c1.7-1.8,2.6-4.4,2.6-7.8c0-1.8-0.1-3.4-0.4-4.8
			c-0.2-1.5-0.7-2.9-1.3-4.4s-1.4-3-2.4-4.6c-1-1.6-2.3-3.4-3.9-5.4l-17.8-21.1c-3.2-4-5.6-8.1-7.3-12.2c-1.7-4.1-2.6-8.5-2.6-13.1
			c0-3.7,0.6-7.2,1.7-10.3c1.2-3.1,2.8-5.8,5-8.1c2.2-2.3,4.9-4,8.1-5.3s6.9-1.9,11-1.9c5,0,9.1,0.7,12.4,2.1c3.3,1.4,6,3.3,7.9,5.5
			c2,2.3,3.4,4.8,4.2,7.7c0.8,2.8,1.2,5.7,1.2,8.5c0,2.4-0.2,4.6-0.6,6.7c-0.4,2-0.8,4.3-1.3,6.8H71.3V786c0-6-0.9-10.6-2.6-13.7
			c-1.7-3.2-4.5-4.8-8.4-4.8c-3.2,0-5.6,0.9-7.2,2.7c-1.6,1.8-2.4,4.2-2.4,7.1c0,1.6,0.1,3,0.4,4.3c0.2,1.3,0.6,2.4,1.1,3.5
			c0.5,1.1,1,2.1,1.7,3.1c0.7,1,1.4,2.1,2.2,3.2l19.8,24c3.6,4.7,6.4,9.2,8.3,13.5c1.9,4.3,2.9,8.9,2.9,13.7c0,4-0.6,7.6-1.9,10.8
			c-1.3,3.2-3,5.9-5.4,8.2c-2.3,2.2-5.1,4-8.4,5.2c-3.3,1.2-7,1.8-11.1,1.8c-5.1,0-9.3-0.7-12.7-2c-3.4-1.4-6-3.2-8-5.4
			c-2-2.2-3.4-4.8-4.2-7.6C34.6,850.7,34.2,847.8,34.2,844.8z"/>
		<path class="st1" d="M112,768.5H93.9v-13.4h53.2v13.4H129v99.1H112V768.5z"/>
		<path class="st1" d="M183.5,868.6c-1.8,0-3.8-0.1-5.9-0.4c-2.1-0.3-4.2-0.9-6.3-1.8c-2.1-0.9-4.1-2.2-6-3.9
			c-1.9-1.7-3.6-3.9-5.1-6.7c-1.5-2.8-2.6-6.2-3.5-10.2c-0.9-4.1-1.3-8.9-1.3-14.5v-39.9c0-5.7,0.4-10.5,1.4-14.5
			c0.9-4,2.1-7.4,3.6-10.1c1.5-2.7,3.2-4.9,5.1-6.6c1.9-1.6,3.9-2.9,6-3.7c2.1-0.9,4.2-1.4,6.2-1.7c2.1-0.3,4-0.4,5.7-0.4
			c1.7,0,3.5,0.1,5.6,0.4c2,0.2,4.1,0.8,6.1,1.6c2,0.8,4,2,6,3.6c1.9,1.6,3.6,3.8,5.1,6.5c1.5,2.7,2.7,6.2,3.6,10.2
			c0.9,4.1,1.4,9,1.4,14.7V831c0,5.6-0.5,10.4-1.4,14.4c-0.9,4-2.1,7.4-3.6,10.2c-1.5,2.8-3.2,5-5.2,6.7c-2,1.7-4,3-6,4
			c-2,0.9-4.1,1.6-6.1,1.9C187,868.4,185.2,868.6,183.5,868.6z M183.5,855.7c1.7,0,3.1-0.3,4.4-0.9c1.3-0.6,2.3-1.6,3.1-3
			c0.8-1.4,1.4-3.3,1.8-5.6c0.4-2.3,0.6-5.2,0.6-8.7v-51.2c0-3.6-0.2-6.6-0.6-9c-0.4-2.4-1-4.4-1.8-5.8c-0.8-1.5-1.8-2.5-3.1-3.1
			c-1.3-0.6-2.7-0.9-4.4-0.9c-1.7,0-3.2,0.3-4.5,0.9c-1.3,0.6-2.3,1.7-3.2,3.1c-0.8,1.5-1.5,3.4-1.9,5.8c-0.4,2.4-0.6,5.4-0.6,9
			v51.2c0,3.5,0.2,6.4,0.6,8.7c0.4,2.3,1,4.2,1.9,5.6c0.8,1.4,1.9,2.4,3.2,3C180.3,855.4,181.8,855.7,183.5,855.7z"/>
		<path class="st1" d="M227.4,755.1h18.5c2.1,0,4.4,0.1,7,0.3c2.5,0.2,5.1,0.6,7.6,1.3c2.5,0.7,5,1.7,7.3,3.1
			c2.3,1.4,4.4,3.2,6.3,5.6c1.8,2.4,3.3,5.3,4.4,8.9c1.1,3.6,1.6,7.9,1.6,13v2.8c0,8.6-1.2,15.5-3.7,20.9
			c-2.5,5.4-6.1,9.3-10.9,11.6l18.1,45h-18.1l-15-42.1h-6.4v42.1h-16.7V755.1z M246.7,813.2c3,0,5.5-0.3,7.6-1
			c2.1-0.7,3.7-1.8,5-3.3c1.3-1.6,2.2-3.6,2.8-6.2c0.6-2.6,0.9-5.7,0.9-9.5v-8.9c0-2.9-0.3-5.4-0.8-7.5c-0.5-2.1-1.4-3.8-2.7-5.2
			s-2.9-2.4-5-3c-2.1-0.7-4.7-1-7.8-1h-2.6v45.7H246.7z"/>
		<path class="st1" d="M309.8,830.1l-22.7-75h17.2l13.8,53.8h0.8l13.6-53.8h17.1l-22.8,75v37.5h-17.1V830.1z"/>
		<path class="st1" d="M388.5,755.1h22.3l10.8,43.6c1.1,4.8,2,9.4,2.7,13.8c0.7,4.4,1.3,8.5,1.9,12.4h0.5c0.6-3.9,1.3-8,1.9-12.4
			c0.7-4.4,1.6-9,2.7-13.8l11.1-43.6h21.8v112.5h-15.9v-37.2c0-5.7,0.1-11.2,0.2-16.5c0.1-5.3,0.3-10.1,0.4-14.5
			c0.2-4.4,0.4-8.3,0.6-11.7c0.2-3.4,0.4-6.1,0.6-8h-1.3l-17,73.5H421l-17.1-73.5h-1.3c0.2,2,0.4,4.7,0.6,8
			c0.2,3.4,0.4,7.3,0.6,11.7c0.2,4.4,0.3,9.3,0.4,14.5c0.1,5.3,0.2,10.8,0.2,16.5v37.2h-15.9V755.1z"/>
		<path class="st1" d="M495.9,755.1h19.6l20.8,112.5h-17.3l-3.1-20.2h-20.6l-3,20.2h-17.3L495.9,755.1z M514,834.6l-7.9-56.1h-0.7
			l-8,56.1H514z"/>
		<path class="st1" d="M547.2,755.1h17.1c2.2,0,4.5,0.1,7.1,0.3c2.6,0.2,5.1,0.7,7.7,1.4c2.6,0.7,5,1.8,7.4,3.3
			c2.4,1.5,4.5,3.5,6.4,6.1s3.3,5.8,4.4,9.7c1.1,3.9,1.7,8.6,1.7,14.1v4c0,6-0.5,11.2-1.5,15.5c-1,4.3-2.4,7.9-4.1,10.8
			c-1.7,2.9-3.7,5.3-6,7c-2.3,1.8-4.6,3.1-7,4c-2.4,0.9-4.9,1.5-7.4,1.8c-2.5,0.3-4.8,0.4-7,0.4h-1.6v34.3h-17.1V755.1z
			 M565.1,820.8c3.1,0,5.7-0.4,7.8-1.4c2.1-0.9,3.8-2.3,5-4.2c1.3-1.9,2.2-4.4,2.7-7.4c0.5-3,0.8-6.6,0.8-10.8v-10.1
			c0-3.3-0.2-6.2-0.7-8.7c-0.5-2.4-1.4-4.4-2.6-6c-1.3-1.6-2.9-2.8-5-3.5c-2.1-0.8-4.8-1.2-8-1.2h-0.9v53.3H565.1z"/>
		<path class="st1" d="M607.6,844.8c0-2.4,0.1-4.6,0.4-6.7c0.3-2,0.7-4.2,1.3-6.6h13.2v5.5c0,3,0.2,5.7,0.6,8c0.4,2.3,1,4.3,1.8,5.9
			c0.9,1.6,2,2.8,3.4,3.6c1.4,0.8,3.2,1.2,5.2,1.2c3.2,0,5.7-0.9,7.4-2.7c1.7-1.8,2.6-4.4,2.6-7.8c0-1.8-0.1-3.4-0.4-4.8
			c-0.2-1.5-0.7-2.9-1.3-4.4s-1.4-3-2.4-4.6c-1-1.6-2.3-3.4-3.9-5.4l-17.8-21.1c-3.2-4-5.6-8.1-7.3-12.2s-2.6-8.5-2.6-13.1
			c0-3.7,0.6-7.2,1.7-10.3c1.2-3.1,2.8-5.8,5-8.1c2.2-2.3,4.9-4,8.1-5.3s6.9-1.9,11-1.9c5,0,9.1,0.7,12.4,2.1c3.3,1.4,6,3.3,7.9,5.5
			c2,2.3,3.4,4.8,4.2,7.7c0.8,2.8,1.2,5.7,1.2,8.5c0,2.4-0.2,4.6-0.6,6.7c-0.4,2-0.8,4.3-1.3,6.8h-13.2V786c0-6-0.9-10.6-2.6-13.7
			s-4.5-4.8-8.4-4.8c-3.2,0-5.6,0.9-7.2,2.7c-1.6,1.8-2.4,4.2-2.4,7.1c0,1.6,0.1,3,0.4,4.3c0.2,1.3,0.6,2.4,1.1,3.5
			c0.5,1.1,1,2.1,1.7,3.1c0.7,1,1.4,2.1,2.2,3.2l19.8,24c3.6,4.7,6.4,9.2,8.3,13.5c1.9,4.3,2.9,8.9,2.9,13.7c0,4-0.6,7.6-1.9,10.8
			c-1.3,3.2-3,5.9-5.4,8.2c-2.3,2.2-5.1,4-8.4,5.2c-3.3,1.2-7,1.8-11.1,1.8c-5.1,0-9.3-0.7-12.7-2c-3.4-1.4-6-3.2-8-5.4
			s-3.4-4.8-4.2-7.6C608,850.7,607.6,847.8,607.6,844.8z"/>
	</g>
	<g>
		<path class="st1" d="M27.9,898.7H46v5.8H35.3v14.6h8.3v5.8h-8.3v16.7h11v5.8H27.9V898.7z"/>
		<path class="st1" d="M48,898.7h7.6l5.4,38.6h0.3l5.4-38.6h7.5l-8.9,48.8h-8.5L48,898.7z"/>
		<path class="st1" d="M78.9,898.7H97v5.8H86.3v14.6h8.3v5.8h-8.3v16.7h11v5.8H78.9V898.7z"/>
		<path class="st1" d="M102.6,898.7h8c0.9,0,1.9,0,3,0.1s2.2,0.3,3.3,0.6c1.1,0.3,2.2,0.7,3.2,1.3c1,0.6,1.9,1.4,2.7,2.4
			c0.8,1,1.4,2.3,1.9,3.9c0.5,1.6,0.7,3.4,0.7,5.6v1.2c0,3.7-0.5,6.7-1.6,9.1s-2.6,4-4.7,5l7.8,19.5h-7.8l-6.5-18.2h-2.8v18.2h-7.3
			V898.7z M111,923.9c1.3,0,2.4-0.1,3.3-0.4c0.9-0.3,1.6-0.8,2.2-1.4c0.6-0.7,1-1.6,1.2-2.7c0.2-1.1,0.4-2.5,0.4-4.1v-3.9
			c0-1.3-0.1-2.3-0.3-3.3s-0.6-1.7-1.2-2.3c-0.5-0.6-1.3-1-2.2-1.3c-0.9-0.3-2-0.4-3.4-0.4h-1.1v19.8H111z"/>
		<path class="st1" d="M138.3,931.3l-9.8-32.5h7.5l6,23.3h0.3l5.9-23.3h7.4l-9.9,32.5v16.3h-7.4V931.3z"/>
		<path class="st1" d="M178.3,948c-1.8,0-3.4-0.3-4.6-0.9c-1.2-0.6-2.2-1.3-3-2.3c-0.8-1-1.3-2.1-1.6-3.4c-0.3-1.3-0.5-2.7-0.5-4.2
			c0-1,0.1-2.2,0.2-3.5s0.3-2.6,0.6-3.9h5.9l-0.1,5.9c0,1.3,0.1,2.3,0.2,3.2c0.1,0.8,0.3,1.5,0.5,2c0.2,0.5,0.5,0.9,0.9,1.1
			c0.4,0.2,0.8,0.3,1.4,0.3c0.4,0,0.8-0.1,1.2-0.3c0.4-0.2,0.7-0.5,0.9-0.9s0.4-1,0.6-1.7c0.1-0.7,0.2-1.7,0.2-2.8l0.1-38h7.4v37
			c0,2.5-0.3,4.6-0.9,6.2s-1.3,2.9-2.3,3.8s-2.1,1.5-3.3,1.9S179.6,948,178.3,948z"/>
		<path class="st1" d="M207.5,947.9c-0.8,0-1.6-0.1-2.5-0.2c-0.9-0.1-1.8-0.4-2.7-0.8c-0.9-0.4-1.8-1-2.6-1.7
			c-0.8-0.7-1.6-1.7-2.2-2.9c-0.6-1.2-1.1-2.7-1.5-4.4c-0.4-1.8-0.6-3.9-0.6-6.3v-17.3c0-2.5,0.2-4.6,0.6-6.3
			c0.4-1.7,0.9-3.2,1.6-4.4c0.6-1.2,1.4-2.1,2.2-2.8c0.8-0.7,1.7-1.2,2.6-1.6c0.9-0.4,1.8-0.6,2.7-0.7s1.7-0.2,2.5-0.2
			c0.7,0,1.5,0.1,2.4,0.2c0.9,0.1,1.8,0.3,2.7,0.7c0.9,0.4,1.7,0.9,2.6,1.6s1.6,1.6,2.2,2.8c0.6,1.2,1.2,2.7,1.6,4.4
			c0.4,1.8,0.6,3.9,0.6,6.4v17.3c0,2.4-0.2,4.5-0.6,6.2c-0.4,1.7-0.9,3.2-1.6,4.4s-1.4,2.2-2.2,2.9c-0.8,0.7-1.7,1.3-2.6,1.7
			c-0.9,0.4-1.8,0.7-2.6,0.8C209,947.9,208.2,947.9,207.5,947.9z M207.5,942.4c0.7,0,1.4-0.1,1.9-0.4c0.5-0.2,1-0.7,1.3-1.3
			c0.4-0.6,0.6-1.4,0.8-2.4c0.2-1,0.3-2.3,0.3-3.8v-22.2c0-1.6-0.1-2.9-0.3-3.9c-0.2-1-0.4-1.9-0.8-2.5c-0.4-0.6-0.8-1.1-1.3-1.4
			s-1.2-0.4-1.9-0.4c-0.7,0-1.4,0.1-1.9,0.4c-0.6,0.3-1,0.7-1.4,1.4c-0.4,0.6-0.6,1.5-0.8,2.5c-0.2,1-0.3,2.4-0.3,3.9v22.2
			c0,1.5,0.1,2.8,0.3,3.8c0.2,1,0.5,1.8,0.8,2.4c0.4,0.6,0.8,1,1.4,1.3C206.1,942.3,206.7,942.4,207.5,942.4z"/>
		<path class="st1" d="M226.3,898.7h7.5v35.8c0,1.5,0.1,2.8,0.2,3.8c0.2,1,0.4,1.8,0.7,2.4c0.3,0.6,0.8,1,1.3,1.3
			c0.5,0.3,1.1,0.4,1.9,0.4c0.7,0,1.4-0.1,1.9-0.4c0.5-0.3,1-0.7,1.3-1.3c0.4-0.6,0.6-1.4,0.8-2.4c0.2-1,0.3-2.3,0.3-3.8v-35.8h7.4
			v33.8c0,2.4-0.2,4.4-0.6,6.1c-0.4,1.7-0.9,3.1-1.5,4.3s-1.3,2-2.2,2.7c-0.8,0.7-1.6,1.2-2.5,1.5c-0.9,0.4-1.7,0.6-2.6,0.7
			c-0.9,0.1-1.6,0.1-2.3,0.1c-0.7,0-1.5,0-2.3-0.1c-0.8-0.1-1.7-0.3-2.6-0.7c-0.9-0.4-1.7-0.9-2.5-1.5c-0.8-0.7-1.5-1.6-2.1-2.7
			c-0.6-1.1-1.1-2.6-1.5-4.2c-0.4-1.7-0.6-3.7-0.6-6.1V898.7z"/>
		<path class="st1" d="M257.8,898.7h8c0.9,0,1.9,0,3,0.1s2.2,0.3,3.3,0.6c1.1,0.3,2.2,0.7,3.2,1.3c1,0.6,1.9,1.4,2.7,2.4
			c0.8,1,1.4,2.3,1.9,3.9c0.5,1.6,0.7,3.4,0.7,5.6v1.2c0,3.7-0.5,6.7-1.6,9.1s-2.6,4-4.7,5l7.8,19.5h-7.8l-6.5-18.2H265v18.2h-7.3
			V898.7z M266.1,923.9c1.3,0,2.4-0.1,3.3-0.4c0.9-0.3,1.6-0.8,2.2-1.4c0.6-0.7,1-1.6,1.2-2.7c0.2-1.1,0.4-2.5,0.4-4.1v-3.9
			c0-1.3-0.1-2.3-0.3-3.3s-0.6-1.7-1.2-2.3c-0.5-0.6-1.3-1-2.2-1.3c-0.9-0.3-2-0.4-3.4-0.4H265v19.8H266.1z"/>
		<path class="st1" d="M287.7,898.7h6l11.8,32.6h0.2c-0.1-0.8-0.1-1.6-0.2-2.5c-0.1-0.9-0.2-2-0.3-3.2c-0.1-1.2-0.1-2.5-0.2-4
			c-0.1-1.5-0.1-3.2-0.1-5.1v-17.8h6.6v48.8h-6.1l-11.8-31.8h-0.2c0.1,0.9,0.1,1.8,0.2,2.8c0.1,1,0.2,2.2,0.3,3.5
			c0.1,1.4,0.1,2.9,0.2,4.7c0.1,1.8,0.1,3.9,0.1,6.4v14.3h-6.6V898.7z"/>
		<path class="st1" d="M319.9,898.7H338v5.8h-10.7v14.6h8.3v5.8h-8.3v16.7h11v5.8h-18.4V898.7z"/>
		<path class="st1" d="M349.4,931.3l-9.8-32.5h7.5l6,23.3h0.3l5.9-23.3h7.4l-9.9,32.5v16.3h-7.4V931.3z"/>
		<path class="st1" d="M383.5,898.7h7.4v20.4h8.8v-20.4h7.4v48.8h-7.4V925h-8.8v22.5h-7.4V898.7z"/>
		<path class="st1" d="M420.8,898.7h8.5l9,48.8h-7.5l-1.3-8.7h-8.9l-1.3,8.7h-7.5L420.8,898.7z M428.7,933.2l-3.4-24.3h-0.3
			l-3.5,24.3H428.7z"/>
		<path class="st1" d="M441.2,937.6c0-1,0.1-2,0.2-2.9c0.1-0.9,0.3-1.8,0.6-2.9h5.7v2.4c0,1.3,0.1,2.5,0.2,3.5
			c0.2,1,0.4,1.9,0.8,2.6c0.4,0.7,0.9,1.2,1.5,1.6c0.6,0.4,1.4,0.5,2.3,0.5c1.4,0,2.5-0.4,3.2-1.2c0.7-0.8,1.1-1.9,1.1-3.4
			c0-0.8-0.1-1.5-0.2-2.1c-0.1-0.6-0.3-1.3-0.5-1.9s-0.6-1.3-1-2c-0.4-0.7-1-1.5-1.7-2.3l-7.7-9.2c-1.4-1.8-2.4-3.5-3.2-5.3
			c-0.7-1.8-1.1-3.7-1.1-5.7c0-1.6,0.3-3.1,0.8-4.5c0.5-1.4,1.2-2.5,2.2-3.5s2.1-1.7,3.5-2.3s3-0.8,4.8-0.8c2.2,0,3.9,0.3,5.4,0.9
			c1.4,0.6,2.6,1.4,3.4,2.4c0.9,1,1.5,2.1,1.8,3.3c0.4,1.2,0.5,2.5,0.5,3.7c0,1-0.1,2-0.2,2.9c-0.2,0.9-0.3,1.9-0.6,2.9h-5.7v-2.3
			c0-2.6-0.4-4.6-1.1-6c-0.7-1.4-2-2.1-3.6-2.1c-1.4,0-2.4,0.4-3.1,1.2s-1,1.8-1,3.1c0,0.7,0.1,1.3,0.2,1.9c0.1,0.6,0.3,1.1,0.5,1.5
			c0.2,0.5,0.4,0.9,0.7,1.4c0.3,0.4,0.6,0.9,1,1.4l8.6,10.4c1.6,2,2.8,4,3.6,5.9c0.8,1.9,1.3,3.9,1.3,6c0,1.7-0.3,3.3-0.8,4.7
			c-0.5,1.4-1.3,2.6-2.3,3.5c-1,1-2.2,1.7-3.7,2.2c-1.4,0.5-3,0.8-4.8,0.8c-2.2,0-4-0.3-5.5-0.9c-1.5-0.6-2.6-1.4-3.5-2.3
			c-0.9-1-1.5-2.1-1.8-3.3C441.4,940.2,441.2,938.9,441.2,937.6z"/>
		<path class="st1" d="M488.2,898.7h8.5l9,48.8h-7.5l-1.3-8.7H488l-1.3,8.7h-7.5L488.2,898.7z M496.1,933.2l-3.4-24.3h-0.3
			l-3.5,24.3H496.1z"/>
		<path class="st1" d="M521.1,937.6c0-1,0.1-2,0.2-2.9c0.1-0.9,0.3-1.8,0.6-2.9h5.7v2.4c0,1.3,0.1,2.5,0.2,3.5
			c0.2,1,0.4,1.9,0.8,2.6c0.4,0.7,0.9,1.2,1.5,1.6c0.6,0.4,1.4,0.5,2.3,0.5c1.4,0,2.5-0.4,3.2-1.2c0.7-0.8,1.1-1.9,1.1-3.4
			c0-0.8-0.1-1.5-0.2-2.1c-0.1-0.6-0.3-1.3-0.5-1.9s-0.6-1.3-1-2c-0.4-0.7-1-1.5-1.7-2.3l-7.7-9.2c-1.4-1.8-2.4-3.5-3.2-5.3
			c-0.7-1.8-1.1-3.7-1.1-5.7c0-1.6,0.3-3.1,0.8-4.5c0.5-1.4,1.2-2.5,2.2-3.5s2.1-1.7,3.5-2.3s3-0.8,4.8-0.8c2.2,0,3.9,0.3,5.4,0.9
			c1.4,0.6,2.6,1.4,3.4,2.4c0.9,1,1.5,2.1,1.8,3.3c0.4,1.2,0.5,2.5,0.5,3.7c0,1-0.1,2-0.2,2.9c-0.2,0.9-0.3,1.9-0.6,2.9h-5.7v-2.3
			c0-2.6-0.4-4.6-1.1-6c-0.7-1.4-2-2.1-3.6-2.1c-1.4,0-2.4,0.4-3.1,1.2s-1,1.8-1,3.1c0,0.7,0.1,1.3,0.2,1.9c0.1,0.6,0.3,1.1,0.5,1.5
			c0.2,0.5,0.4,0.9,0.7,1.4c0.3,0.4,0.6,0.9,1,1.4l8.6,10.4c1.6,2,2.8,4,3.6,5.9c0.8,1.9,1.3,3.9,1.3,6c0,1.7-0.3,3.3-0.8,4.7
			c-0.5,1.4-1.3,2.6-2.3,3.5c-1,1-2.2,1.7-3.7,2.2c-1.4,0.5-3,0.8-4.8,0.8c-2.2,0-4-0.3-5.5-0.9c-1.5-0.6-2.6-1.4-3.5-2.3
			c-0.9-1-1.5-2.1-1.8-3.3C521.3,940.2,521.1,938.9,521.1,937.6z"/>
		<path class="st1" d="M554.8,904.6H547v-5.8H570v5.8h-7.8v43h-7.4V904.6z"/>
		<path class="st1" d="M585.8,947.9c-0.8,0-1.6-0.1-2.5-0.2c-0.9-0.1-1.8-0.4-2.7-0.8c-0.9-0.4-1.8-1-2.6-1.7
			c-0.8-0.7-1.6-1.7-2.2-2.9c-0.6-1.2-1.1-2.7-1.5-4.4c-0.4-1.8-0.6-3.9-0.6-6.3v-17.3c0-2.5,0.2-4.6,0.6-6.3
			c0.4-1.7,0.9-3.2,1.6-4.4c0.6-1.2,1.4-2.1,2.2-2.8c0.8-0.7,1.7-1.2,2.6-1.6c0.9-0.4,1.8-0.6,2.7-0.7c0.9-0.1,1.7-0.2,2.5-0.2
			c0.7,0,1.5,0.1,2.4,0.2c0.9,0.1,1.8,0.3,2.7,0.7c0.9,0.4,1.7,0.9,2.6,1.6s1.6,1.6,2.2,2.8c0.6,1.2,1.2,2.7,1.6,4.4
			c0.4,1.8,0.6,3.9,0.6,6.4v17.3c0,2.4-0.2,4.5-0.6,6.2c-0.4,1.7-0.9,3.2-1.6,4.4s-1.4,2.2-2.2,2.9c-0.8,0.7-1.7,1.3-2.6,1.7
			c-0.9,0.4-1.8,0.7-2.6,0.8C587.3,947.9,586.5,947.9,585.8,947.9z M585.8,942.4c0.7,0,1.4-0.1,1.9-0.4c0.5-0.2,1-0.7,1.3-1.3
			c0.4-0.6,0.6-1.4,0.8-2.4c0.2-1,0.3-2.3,0.3-3.8v-22.2c0-1.6-0.1-2.9-0.3-3.9c-0.2-1-0.4-1.9-0.8-2.5c-0.4-0.6-0.8-1.1-1.3-1.4
			s-1.2-0.4-1.9-0.4c-0.7,0-1.4,0.1-1.9,0.4c-0.6,0.3-1,0.7-1.4,1.4c-0.4,0.6-0.6,1.5-0.8,2.5c-0.2,1-0.3,2.4-0.3,3.9v22.2
			c0,1.5,0.1,2.8,0.3,3.8c0.2,1,0.5,1.8,0.8,2.4c0.4,0.6,0.8,1,1.4,1.3C584.4,942.3,585.1,942.4,585.8,942.4z"/>
		<path class="st1" d="M604.9,898.7h8c0.9,0,1.9,0,3,0.1c1.1,0.1,2.2,0.3,3.3,0.6c1.1,0.3,2.2,0.7,3.2,1.3c1,0.6,1.9,1.4,2.7,2.4
			s1.4,2.3,1.9,3.9c0.5,1.6,0.7,3.4,0.7,5.6v1.2c0,3.7-0.5,6.7-1.6,9.1s-2.6,4-4.7,5l7.8,19.5h-7.8l-6.5-18.2h-2.8v18.2h-7.3V898.7z
			 M613.2,923.9c1.3,0,2.4-0.1,3.3-0.4c0.9-0.3,1.6-0.8,2.2-1.4c0.6-0.7,1-1.6,1.2-2.7c0.2-1.1,0.4-2.5,0.4-4.1v-3.9
			c0-1.3-0.1-2.3-0.3-3.3s-0.6-1.7-1.2-2.3c-0.5-0.6-1.3-1-2.2-1.3c-0.9-0.3-2-0.4-3.4-0.4h-1.1v19.8H613.2z"/>
		<path class="st1" d="M640.6,931.3l-9.8-32.5h7.5l6,23.3h0.3l5.9-23.3h7.4l-9.9,32.5v16.3h-7.4V931.3z"/>
	</g>
</g>
<g id="Layer_4">
	<path class="st1" d="M375.9,563.8c-0.2,0-0.4,0-0.6-0.1c-18.2-3-29-10.4-32-21.9c-4.2-15.8,6.8-38.4,32.8-67.2
		c17.4-19.3,36-35.1,39-37.6c48.3-72.5,48.7-106.1,40.6-121.4c-8-15.1-26.1-15.4-26.2-15.4c-0.3,0-0.6-0.1-0.9-0.1
		c-44.5-11.1-51.7-18.4-52.7-19.8c-0.2-0.3-0.4-0.6-0.4-0.9c-0.3-0.8-7.4-20.5,7.7-44.2c6.6-10.3,15.1-15.5,25.2-15.5h0.1
		c36.8,0.1,82.5,71.9,84.5,75c0.3,0.5,0.5,1.1,0.6,1.7c2.7,33-15.1,63.1-32.4,92.2c-11.5,19.4-22.3,37.6-25.3,54.6
		c-17,94.8-56.2,119-57.9,119.9C377.1,563.6,376.5,563.8,375.9,563.8z"/>
	<path class="st1" d="M323.4,495c-0.1,0-0.2,0-0.4,0c-2-0.2-6.5-4.3-8.4-6.1c-5.4-5-10.7-11.4-15.7-18.8
		c-19.9-29.4-29.8-67.9-34.6-95.1c0-0.1,0-0.1,0-0.1c-3-16.8-13.7-35.1-25.1-54.4c-16.3-27.7-34.8-59.1-32-92
		c0.1-0.6,0.2-1.2,0.6-1.7c2-3.1,47.6-74.4,84.2-74.4l0,0c10.1,0,18.6,5.2,25.1,15.5c15,23.6,7.9,43.2,7.6,44
		c-0.1,0.3-0.3,0.6-0.4,0.9c-1,1.3-8.1,8.6-52.5,19.6c-0.3,0.1-0.6,0.1-0.9,0.1c-0.7,0-18.3,0.3-26.2,15.3
		c-8.1,15.3-7.6,48.6,40.2,120.9c3,2.6,21.5,18.3,38.7,37.6c25.8,28.8,36.7,51.3,32.5,67c-3.1,11.4-13.8,18.7-31.9,21.7
		C323.8,495,323.7,495,323.4,495z"/>
	<path class="st2" d="M509.1,255.4c-3.4,0-6.6,2.9-7.3,6.9c-0.4,2.3,0.1,4.6,1.3,6.3c1,1.5,2.5,2.3,4.1,2.6c3.8,0.7,7.5-2.4,8.3-6.7
		c0,0,0,0,0-0.1c0.4-2.3-0.1-4.5-1.3-6.3c-1-1.5-2.5-2.4-4.1-2.6C509.8,255.4,509.5,255.4,509.1,255.4z"/>
	<path class="st2" d="M488.2,228.7c-4.7,0-9.1,4.3-10.2,10.3c-0.7,3.6,0.1,7.1,1.9,9.7c1,1.3,2.6,3.1,5.3,3.5l0,0
		c5.2,0.9,10.3-3.7,11.5-10.2c0.7-3.6-0.1-7.1-1.9-9.7c-1-1.3-2.6-3.1-5.3-3.5C489,228.7,488.5,228.7,488.2,228.7z"/>
	<path class="st2" d="M464.2,205.8c-4,0-8,4.6-9.1,10.6c-0.7,4-0.1,7.8,1.8,10.5c0.7,1,2,2.3,3.8,2.6c4.2,0.7,8.8-4.1,9.9-10.6
		c0.7-4,0.1-7.8-1.8-10.4c-0.7-1-2-2.3-3.8-2.6C464.7,205.8,464.4,205.8,464.2,205.8z"/>
	<path class="st2" d="M392,185.3c-1,5.2,0.1,10.3,2.7,14.1c1.9,2.7,4.5,4.4,7.5,4.9c7.3,1.2,14.6-5.4,16.3-14.7
		c1-5.2-0.1-10.3-2.7-14.1c-1.9-2.7-4.5-4.5-7.5-4.9C401,169.4,393.6,176,392,185.3L392,185.3z"/>
	<path class="st2" d="M430.1,187.8c-0.9,4.8,0,9.8,2.3,13c1,1.4,2.6,3.1,5.1,3.5c5.5,1,11.4-5.1,12.8-13.2c0.9-4.9,0-9.8-2.3-13
		c-1-1.4-2.6-3.1-5.1-3.5C437.4,173.6,431.5,179.7,430.1,187.8L430.1,187.8z"/>
	<path class="st2" d="M194.7,186.3c-0.4,0-0.7,0-1,0.1c-1.6,0.3-3.1,1.2-4.1,2.6c-1.2,1.8-1.7,4-1.3,6.3c0.8,4.4,4.5,7.4,8.3,6.8
		c0,0,0,0,0.1,0c1.6-0.3,3.1-1.2,4.1-2.6c1.2-1.8,1.7-4,1.3-6.3C201.3,189.2,198.1,186.3,194.7,186.3z"/>
	<path class="st2" d="M207.2,172.8c0,0.1,0,0.1,0,0.1c1.2,6.5,6.3,11.1,11.5,10.2c2.6-0.4,4.4-2.1,5.3-3.5c1.8-2.6,2.6-6.2,1.9-9.7
		c-1.2-6.5-6.3-11.1-11.5-10.2c-2.6,0.4-4.4,2.1-5.3,3.5C207.3,165.9,206.6,169.3,207.2,172.8z"/>
	<path class="st2" d="M238.9,136.9c-1.8,0.3-3.1,1.6-3.8,2.6c-1.8,2.6-2.5,6.5-1.8,10.4c1.2,6.5,5.7,11.3,9.9,10.6
		c1.8-0.3,3.1-1.6,3.8-2.6c1.8-2.6,2.5-6.5,1.8-10.4C247.7,141.1,243.2,136.2,238.9,136.9z"/>
	<path class="st2" d="M295.7,101.8c-3,0.5-5.6,2.2-7.5,4.9c-2.6,3.7-3.7,8.9-2.7,14c1.7,9.3,8.9,15.9,16.3,14.7
		c3-0.5,5.6-2.2,7.5-4.9c2.6-3.7,3.7-8.9,2.7-14C310.4,107.2,303.1,100.6,295.7,101.8z"/>
	<path class="st2" d="M262.3,105.5c-0.4,0-0.7,0-1.1,0.1l0,0c-2.5,0.4-4.2,2.1-5.1,3.4c-2.3,3.2-3.1,8.1-2.3,13
		c1.5,8.1,7.3,14.2,12.8,13.3c2.5-0.4,4.2-2.1,5.1-3.4c2.3-3.3,3.1-8.1,2.3-13C272.6,111.3,267.4,105.5,262.3,105.5z"/>
</g>
<g id="Layer_1">
</g>
</svg>
