<?xml version="1.0" encoding="utf-8"?>
<!-- Generator: Adobe Illustrator 25.2.1, SVG Export Plug-In . SVG Version: 6.00 Build 0)  -->
<svg version="1.1" id="Layer_1" xmlns="http://www.w3.org/2000/svg" xmlns:xlink="http://www.w3.org/1999/xlink" x="0px" y="0px"
	 viewBox="0 0 31 29" style="enable-background:new 0 0 31 29;" xml:space="preserve">
<style type="text/css">
	.st0{fill:#FFFFFF;}
</style>
<path class="st0" d="M23.9,10.9C24.3,8.3,21,9.2,21,9.2c-1.5,0.7-0.4-0.1-0.4-0.1l2.2-2.2c2.6-4.5-5.9-4-5.9-4
	C7.6,4,12.8,9.2,12.8,9.2c-1.9-0.7-3.9-1-3.9-1C8,8.6,7,13.9,7,13.9c-0.7,1.5,0,4.8,0,4.8c0.4,0.9,1.3,0.3,1.3,0.3
	c-0.6-1,0-4.3,0-4.3c0.2-1.1,1.3-3.8,1.3-3.8c0.3,0,0,3.9,0,3.9l1.7,10.3c1,2,6.3,0.3,6.3,0.3c1.5-2,3.4-7.5,3.4-7.5l0.9-2.9
	c0-1.2,0.9-2.4,0.9-2.4l0.1,1.4c0.1,0.4-0.2,1.3-0.2,1.3c0.1,0.8-1.6,3.9-1.6,3.9l1,0.2c1-0.3,2.4-5.2,2.4-5.2
	C24.6,13.4,23.9,10.9,23.9,10.9z M19.4,16.6l-0.6,1c0,0-0.5,0.7-0.5,1.4l-0.5,1.7c0,0-1,3.2-1.8,4.3c0,0-2.8,1-3.3-0.2l-0.9-6
	c0,0,0.2-2.3,0-2.3c0,0-0.4-1,0.1-1.1c0,0,0.7-0.2,1.7,0.2c0,0-2.8-3,2.2-3.7c0,0,4.6-0.3,3.2,2.3l-1.2,1.3c0,0-0.6,0.5,0.2,0.1
	C17.9,15.7,19.6,15.1,19.4,16.6z"/>
</svg>
