<?xml version="1.0" encoding="utf-8"?>
<!-- Generator: Adobe Illustrator 25.2.1, SVG Export Plug-In . SVG Version: 6.00 Build 0)  -->
<svg version="1.1" id="Layer_1" xmlns="http://www.w3.org/2000/svg" xmlns:xlink="http://www.w3.org/1999/xlink" x="0px" y="0px"
	 viewBox="0 0 143.6 70.4" style="enable-background:new 0 0 143.6 70.4;" xml:space="preserve">
<style type="text/css">
	.st0{display:none;}
	.st1{display:inline;}
</style>

<g id="dribbble">
<path d="M102.2,17.5c-3.1-5.4-7.4-9.7-12.8-12.8S78.2,0,71.8,0S59.5,1.6,54.2,4.7c-5.4,3.1-9.7,7.4-12.8,12.8
	c-3.1,5.4-4.7,11.3-4.7,17.7s1.6,12.3,4.7,17.7c3.1,5.4,7.4,9.7,12.8,12.8c5.4,3.1,11.3,4.7,17.6,4.7s12.3-1.6,17.7-4.7
	s9.7-7.4,12.8-12.8c3.1-5.4,4.7-11.3,4.7-17.7S105.4,22.9,102.2,17.5z M71.8,5.8c7,0,13.3,2.2,18.7,6.8c-3.2,4.1-8,7.5-14.4,10.2
	c-3.5-6.4-7.3-11.7-11.5-16C67,6.2,69.4,5.8,71.8,5.8z M49,16.9c2.7-3.3,5.8-5.9,9.5-7.8c4.3,4.2,8.2,9.5,11.7,15.8
	c-7,2.1-14.5,3.2-22.3,3.2c-2,0-3.5-0.1-4.6-0.1C44.5,23.9,46.3,20.2,49,16.9z M42.5,35.2c0-0.2,0-0.4,0-0.7c0-0.3,0-0.5,0-0.7
	c0.9,0.1,2.2,0.1,4.1,0.1c9.4,0,18.1-1.3,26.2-3.9c0.7,1.3,1.3,2.8,2,4.4c-4.6,1-9.4,3.5-14.3,7.5c-4.9,4-8.4,8.2-10.7,12.6
	C44.9,48.9,42.5,42.5,42.5,35.2z M71.8,64.5c-6.7,0-12.6-2.1-17.9-6.2c2.1-4.2,5.4-8.2,9.8-12c4.4-3.8,8.7-6.2,13-7.1
	c2.7,7.5,4.5,15.3,5.5,23.3C78.7,63.8,75.3,64.5,71.8,64.5z M96.7,50.6c-2.3,3.8-5.4,6.8-9.1,9.2c-0.8-7.3-2.5-14.4-4.8-21.4
	c3.3-0.2,6.2-0.3,8.8-0.3c2.8,0,5.9,0.1,9.3,0.3C100.4,42.8,99,46.8,96.7,50.6z M92.3,33c-4.1,0-7.9,0.2-11.3,0.5
	c-0.9-2.3-1.7-4.2-2.4-5.7c7.3-3.2,12.4-7.1,15.5-11.6c4.2,5,6.5,10.6,6.9,17C98.1,33.1,95.2,33,92.3,33z"/>

</g>
</svg>
