<?xml version="1.0" encoding="utf-8"?>
<!-- Generator: Adobe Illustrator 25.2.1, SVG Export Plug-In . SVG Version: 6.00 Build 0)  -->
<svg version="1.1" id="Layer_1" xmlns="http://www.w3.org/2000/svg" xmlns:xlink="http://www.w3.org/1999/xlink" x="0px" y="0px"
	 viewBox="0 0 143.6 70.4" style="enable-background:new 0 0 143.6 70.4;" xml:space="preserve">

<g id="github">
<path class="st2" d="M72,0C52.5,0,36.8,15.7,36.8,35.2c0,15.5,10.1,28.7,24.1,33.4c1.8,0.3,2.4-0.8,2.4-1.7c0-0.8,0-3,0-6
	c-9.8,2.1-11.9-4.7-11.9-4.7c-1.6-4.1-3.9-5.2-3.9-5.2c-3.2-2.2,0.2-2.1,0.2-2.1c3.5,0.2,5.4,3.6,5.4,3.6c3.1,5.4,8.2,3.8,10.2,2.9
	c0.3-2.3,1.2-3.8,2.2-4.7c-7.8-0.9-16-3.9-16-17.4c0-3.8,1.4-7,3.6-9.4c-0.4-0.9-1.6-4.5,0.4-9.3c0,0,3-1,9.7,3.6
	C66,17.4,69,17,72,17c3,0,6,0.4,8.8,1.2c6.7-4.5,9.7-3.6,9.7-3.6c1.9,4.8,0.7,8.4,0.4,9.3c2.3,2.5,3.6,5.6,3.6,9.4
	c0,13.5-8.2,16.5-16.1,17.4c1.3,1.1,2.4,3.2,2.4,6.5c0,4.7,0,8.5,0,9.7c0,0.9,0.6,2,2.4,1.7c14-4.7,24.1-17.8,24.1-33.4
	C107.2,15.7,91.4,0,72,0z"/>
</g>
</svg>
