<?xml version="1.0" encoding="utf-8"?>
<!-- Generator: Adobe Illustrator 25.2.1, SVG Export Plug-In . SVG Version: 6.00 Build 0)  -->
<svg version="1.1" id="Layer_1" xmlns="http://www.w3.org/2000/svg" xmlns:xlink="http://www.w3.org/1999/xlink" x="0px" y="0px"
	 viewBox="0 0 143.6 98.6" style="enable-background:new 0 0 143.6 98.6;" xml:space="preserve">
<g id="info">
		<path d="M71.8,53.8c-9.5,0-17.2-7.7-17.2-17.2s7.7-17.2,17.2-17.2S89,27.1,89,36.6S81.3,53.8,71.8,53.8z M71.8,25.3
			c-6.2,0-11.3,5.1-11.3,11.3s5.1,11.3,11.3,11.3s11.3-5.1,11.3-11.3S78,25.3,71.8,25.3z"/>
		<path d="M102.4,29.1c-1.3,0-2.4-0.8-2.8-2.1C95.8,14.8,84.6,6.6,71.8,6.6S47.8,14.8,44,27c-0.5,1.6-2.1,2.4-3.7,1.9
			c-1.6-0.5-2.4-2.1-2-3.7C43,10.5,56.4,0.6,71.8,0.6s28.8,9.9,33.4,24.6c0.5,1.6-0.4,3.2-1.9,3.7C103,29,102.7,29.1,102.4,29.1z"/>
		<path d="M72.6,98.5c-1.6,0-3-1.3-3-3V67.3c0-1.6,1.3-3,3-3s3,1.3,3,3v28.2C75.6,97.1,74.2,98.5,72.6,98.5z"/> 
</g>
</svg>
