<?xml version="1.0" encoding="utf-8"?>
<!-- Generator: Adobe Illustrator 25.2.1, SVG Export Plug-In . SVG Version: 6.00 Build 0)  -->
<svg version="1.1" id="Layer_1" xmlns="http://www.w3.org/2000/svg" xmlns:xlink="http://www.w3.org/1999/xlink" x="0px" y="0px"
	 viewBox="0 0 143.6 69.68" style="enable-background:new 0 0 143.6 69.68;" xml:space="preserve">
<g id="instagram">

			<path d="M106.46,19.44c-0.31-5.98-2.15-10.43-5.37-13.8s-7.82-5.06-13.8-5.37c-2.45-0.15-10.9-0.15-17.49-0.15
				c-6.44,0-11.04,0-13.49,0.15c-5.98,0.31-10.58,2.15-13.8,5.37c-3.37,3.22-5.06,7.82-5.37,13.8c-0.15,2.45-0.15,11.05-0.15,17.49
				s0,11.04,0.15,13.49c0.31,5.98,2.15,10.58,5.37,13.8c3.22,3.37,7.82,5.06,13.8,5.37c2.45,0.15,6.9,0.15,13.49,0.15
				c6.44,0,15.04,0,17.49-0.15c5.98-0.31,10.43-2.15,13.8-5.37c3.37-3.22,5.06-7.82,5.37-13.8c0.15-2.45,0.15-6.9,0.15-13.49
				C106.61,30.34,106.46,21.89,106.46,19.44z M100.79,33.71c0,1.99,0,3.07,0,3.22s0,1.23,0,3.22c0,1.84,0,3.37,0,4.45
				s-0.15,2.45-0.15,4.14c-0.15,1.84-0.31,3.22-0.46,4.45c-0.15,1.23-0.46,2.3-0.77,3.07c-0.61,1.53-1.38,2.76-2.45,3.83
				c-1.23,1.07-2.45,1.84-3.83,2.45c-0.77,0.31-1.84,0.61-3.07,0.77c-1.23,0.31-2.76,0.46-4.45,0.46c-1.69,0.15-3.07,0.15-4.14,0.15
				c-0.92,0-2.45,0-4.45,0c-1.99,0-7.07,0-7.22,0s-1.23,0-3.22,0c-1.84,0-3.37,0-4.45,0s-2.3,0-4.14-0.15s-3.22-0.31-4.45-0.46
				s-2.3-0.46-3.07-0.77c-1.53-0.61-2.76-1.38-3.83-2.45c-1.07-1.23-1.84-2.45-2.45-3.83c-0.31-0.77-0.46-1.84-0.77-3.07
				s-0.46-2.76-0.46-4.45c-0.15-1.69-0.15-3.07-0.15-4.14c0-0.92,0-2.45,0-4.45s0-3.07,0-3.22s0-1.23,0-3.22c0-1.84,0-7.37,0-8.45
				s0.15-2.45,0.15-4.14c0.15-1.84,0.31-3.22,0.46-4.45s0.46-2.3,0.77-3.07c0.61-1.53,1.38-2.76,2.45-3.83
				c1.23-1.07,2.45-1.84,3.83-2.45c0.77-0.31,1.84-0.61,3.07-0.77c1.23-0.31,2.76-0.46,4.45-0.46c1.69-0.15,3.07-0.15,4.14-0.15
				c0.92,0,2.45,0,4.45,0s3.07,0,3.22,0s5.23,0,7.22,0s3.53,0,4.45,0c1.07,0,2.45,0.15,4.14,0.15c1.84,0.15,3.22,0.31,4.45,0.46
				s2.3,0.46,3.07,0.77c1.53,0.61,2.76,1.38,3.83,2.45c1.07,1.23,1.84,2.45,2.45,3.83c0.31,0.77,0.61,1.84,0.77,3.07
				c0.31,1.23,0.46,2.76,0.46,4.45c0.15,1.69,0.15,3.07,0.15,4.14C100.79,26.19,100.79,31.72,100.79,33.71z"/>

		<path d="M83.61,22.97c-3.22-3.37-7.21-4.91-11.96-4.91s-8.74,1.69-11.96,4.91c-3.22,3.37-4.91,7.21-4.91,11.96
			s1.69,8.74,4.91,11.96c3.37,3.22,7.21,4.91,11.96,4.91s8.74-1.69,11.96-4.91c3.22-3.37,4.91-7.21,4.91-11.96
			S86.83,26.19,83.61,22.97z M79.47,42.6c-2.15,2.15-4.75,3.22-7.82,3.22s-5.67-1.07-7.82-3.22c-2.15-1.99-3.22-4.6-3.22-7.67
			s1.07-5.67,3.22-7.82s4.75-3.22,7.82-3.22s5.67,1.07,7.82,3.22s3.22,4.91,3.22,7.82C82.69,37.85,81.61,40.45,79.47,42.6z"/>
		<path d="M92.04,14.54c0.77,0.77,1.23,1.69,1.23,2.76s-0.46,1.99-1.23,2.76c-0.77,0.77-1.69,1.23-2.76,1.23s-1.99-0.46-2.76-1.23
			c-0.77-0.77-1.23-1.69-1.23-2.76s0.46-1.99,1.23-2.76c0.77-0.77,1.69-1.23,2.76-1.23S91.27,13.77,92.04,14.54z"/>

</g>
</svg>
