<?xml version="1.0" encoding="utf-8"?>
<!-- Generator: Adobe Illustrator 25.2.1, SVG Export Plug-In . SVG Version: 6.00 Build 0)  -->
<svg version="1.1" id="Layer_1" xmlns="http://www.w3.org/2000/svg" xmlns:xlink="http://www.w3.org/1999/xlink" x="0px" y="0px"
	 viewBox="0 0 143.6 69.7" style="enable-background:new 0 0 143.6 69.7;" xml:space="preserve">
<path d="M90.6,0H53.2C44.2,0,37,7.2,37,16.2v37.4c0,8.9,7.3,16.2,16.2,16.2h37.4c8.9,0,16.2-7.3,16.2-16.2V16.2
	C106.7,7.2,99.5,0,90.6,0z M100.5,53.6c0,5.5-4.4,9.9-9.9,9.9H53.2c-5.5,0-9.9-4.4-9.9-9.9V16.2c0-5.5,4.4-9.9,9.9-9.9h37.4
	c5.5,0,9.9,4.4,9.9,9.9V53.6z"/>
<g>
	<path d="M56.4,14.2c-2.8,0-5.1,2.3-5.1,5.1c0,2.8,2.3,5.1,5.1,5.1c2.8,0,5.1-2.3,5.1-5.1C61.5,16.5,59.2,14.2,56.4,14.2z"/>
	<rect x="52" y="28.3" width="8.8" height="28.2"/>
	<path d="M83.1,27.6c-4.3,0-7.1,2.3-8.3,4.6h-0.1v-3.9h-8.4v28.2H75v-14c0-3.7,0.7-7.2,5.3-7.2c4.5,0,4.6,4.2,4.6,7.5v13.7h8.8V41
		C93.6,33.4,92,27.6,83.1,27.6z"/>
</g>
</svg>
