<?xml version="1.0" encoding="utf-8"?>
<!-- Generator: Adobe Illustrator 25.2.1, SVG Export Plug-In . SVG Version: 6.00 Build 0)  -->
<svg version="1.1" id="Layer_1" xmlns="http://www.w3.org/2000/svg" xmlns:xlink="http://www.w3.org/1999/xlink" x="0px" y="0px"
	 viewBox="0 0 143.6 69.7" style="enable-background:new 0 0 143.6 69.7;" xml:space="preserve">
	<g id="linkedin">
		<path id="LinkedIn__x28_alt_x29_" d="M101.5,0H42.1C39.3,0,37,2.3,37,5v59.6c0,2.8,2.3,5,5.1,5h59.3c2.8,0,5.1-2.2,5.1-5V5
			C106.6,2.3,104.3,0,101.5,0z M58.1,58.3H47.6V26.9h10.5V58.3z M52.8,22.6L52.8,22.6c-3.6,0-5.9-2.4-5.9-5.4c0-3.1,2.4-5.4,6-5.4
			c3.6,0,5.8,2.3,5.9,5.4C58.8,20.2,56.5,22.6,52.8,22.6z M96,58.3H85.5V41.5c0-4.2-1.5-7.1-5.3-7.1c-2.9,0-4.6,1.9-5.4,3.8
			c-0.3,0.7-0.3,1.6-0.3,2.5v17.6H63.9c0,0,0.1-28.5,0-31.4h10.5v4.5c1.4-2.1,3.9-5.2,9.5-5.2c6.9,0,12.1,4.5,12.1,14.2V58.3
			L96,58.3z M74.4,31.4C74.4,31.4,74.4,31.4,74.4,31.4L74.4,31.4L74.4,31.4z"/>
	</g>
</svg>
