<?xml version="1.0" encoding="utf-8"?>
<!-- Generator: Adobe Illustrator 25.2.1, SVG Export Plug-In . SVG Version: 6.00 Build 0)  -->
<svg version="1.1" id="Layer_1" xmlns="http://www.w3.org/2000/svg" xmlns:xlink="http://www.w3.org/1999/xlink" x="0px" y="0px"
	 viewBox="0 0 143.6 58.96" style="enable-background:new 0 0 143.6 58.96;" xml:space="preserve">
<style type="text/css">
	.st0{display:none;}
	.st1{display:inline;}
</style>
<g id="mail">
	<path d="M110.89,8.02c0-4.41-3.59-8-8-8H40.72c-4.41,0-8,3.59-8,8v42.92c0,4.41,3.59,8,8,8h62.17c2.28,0,4.34-0.97,5.8-2.5
		c0.25-0.2,0.45-0.44,0.6-0.72c1-1.34,1.6-2.99,1.6-4.78V8.02z M84.7,32.45l20.07-22.32v39.42L84.7,32.45z M99.3,52.87H43.86
		l18.89-16.18l6.58,6.32l0.62,0.58c0.94,0.87,2.39,0.85,3.31-0.03l7.15-6.87L99.3,52.87z M78.66,30.1c-0.06,0.05-0.12,0.1-0.17,0.15
		l-6.9,6.63l-6.89-6.61c-0.06-0.06-0.13-0.12-0.2-0.18L42.51,5.75h58.15L78.66,30.1z M58.47,32.45L38.4,49.55V10.13L58.47,32.45z"/>
</g>
</svg>
