<?xml version="1.0" standalone="no"?>
<!DOCTYPE svg PUBLIC "-//W3C//DTD SVG 20010904//EN"
 "http://www.w3.org/TR/2001/REC-SVG-20010904/DTD/svg10.dtd">
<svg version="1.0" xmlns="http://www.w3.org/2000/svg"
 width="1172.000000pt" height="1172.000000pt" viewBox="0 0 1172.000000 1172.000000"
 preserveAspectRatio="xMidYMid meet">
<metadata>
Created by potrace 1.14, written by Peter Selinger 2001-2017
</metadata>
<g transform="translate(0.000000,1172.000000) scale(0.100000,-0.100000)"
fill="#000000" stroke="none">
<path d="M1978 9563 c-19 -22 -17 -32 17 -108 60 -131 116 -251 130 -276 8
-14 12 -29 8 -33 -3 -3 -1 -6 5 -6 7 0 12 -4 12 -9 0 -5 17 -44 37 -88 21 -43
38 -80 38 -83 1 -3 18 -41 39 -85 42 -87 91 -192 138 -295 17 -36 47 -101 68
-145 21 -44 52 -111 70 -150 18 -38 80 -171 137 -295 165 -353 174 -372 200
-430 14 -30 52 -111 84 -179 33 -68 59 -125 59 -126 0 -3 48 -106 144 -309 31
-65 56 -119 56 -121 0 -1 26 -58 59 -126 32 -68 69 -146 81 -174 60 -134 124
-262 137 -277 12 -14 33 -17 114 -16 l99 0 59 121 c32 67 69 145 81 172 12 28
41 91 65 140 23 50 53 113 65 140 13 28 43 93 68 145 24 52 57 122 72 155 40
87 81 176 134 288 25 55 46 103 46 107 0 5 4 10 9 12 5 2 11 12 13 23 1 11 5
22 8 25 3 3 44 88 90 190 46 102 88 188 93 191 5 3 8 9 7 13 -1 4 10 30 24 59
30 65 86 186 115 252 13 28 27 57 32 65 5 8 12 22 15 30 16 40 48 109 170 368
24 51 44 95 44 97 0 1 29 63 63 137 102 213 117 246 117 257 0 6 5 11 10 11 6
0 10 5 10 10 0 10 22 60 88 200 15 30 27 60 28 65 1 6 5 17 8 25 13 34 -10 45
-101 47 -112 2 -143 -10 -170 -68 -12 -24 -46 -96 -76 -159 -30 -63 -58 -125
-61 -137 -4 -13 -12 -23 -18 -23 -6 0 -8 -3 -5 -6 4 -4 -6 -32 -22 -63 -15
-31 -37 -76 -48 -101 -23 -50 -38 -82 -176 -377 -52 -111 -92 -204 -89 -207 3
-3 0 -6 -6 -6 -7 0 -12 -4 -12 -9 0 -6 -18 -49 -41 -98 -23 -48 -72 -155 -111
-238 -38 -82 -74 -155 -80 -162 -6 -7 -8 -13 -4 -13 3 0 -3 -17 -14 -37 -24
-48 -130 -274 -130 -278 0 -1 -22 -49 -49 -106 -89 -191 -123 -264 -153 -329
-17 -36 -46 -99 -65 -140 -20 -41 -69 -147 -110 -235 -92 -198 -103 -212 -122
-162 -5 12 -36 80 -70 151 -34 70 -61 130 -61 132 0 3 -15 36 -34 74 -19 37
-32 71 -28 74 3 3 0 6 -6 6 -7 0 -12 4 -12 9 0 9 -35 85 -131 290 -27 57 -49
105 -49 106 0 3 -47 103 -140 300 -42 88 -99 210 -137 295 -14 30 -49 106 -79
169 -30 62 -54 119 -54 126 0 7 -7 18 -15 25 -8 7 -15 16 -15 21 0 9 -11 34
-137 304 -39 83 -82 175 -96 205 -13 30 -44 96 -67 145 -23 50 -53 115 -67
145 -14 30 -47 100 -73 155 -26 55 -56 118 -66 140 -33 71 -46 78 -154 82 -83
3 -99 0 -112 -14z"/>
<path d="M6049 9559 c-18 -18 -17 -39 4 -66 5 -7 6 -13 2 -13 -4 0 -3 -6 3
-12 6 -7 37 -71 70 -143 33 -71 80 -173 105 -225 24 -52 56 -120 69 -150 32
-69 85 -183 154 -329 30 -62 54 -115 54 -116 0 -2 24 -54 54 -116 29 -63 66
-141 81 -174 15 -33 42 -91 60 -130 18 -38 46 -99 63 -135 17 -36 52 -112 80
-170 27 -58 66 -143 88 -190 21 -47 43 -88 49 -92 5 -4 7 -8 2 -8 -4 0 3 -19
15 -42 12 -24 23 -45 23 -48 2 -7 34 -75 88 -190 24 -52 61 -131 82 -175 20
-44 57 -122 81 -173 24 -51 44 -94 44 -97 0 -2 34 -74 75 -160 41 -87 75 -159
75 -161 0 -15 88 -183 103 -196 15 -14 38 -18 96 -18 42 0 85 3 97 6 20 5 43
45 100 169 14 33 53 115 85 182 33 68 59 125 59 127 0 2 23 53 52 113 28 59
52 110 53 113 0 3 13 30 27 60 14 30 43 91 63 135 20 44 61 131 91 193 30 63
54 115 54 117 0 4 41 92 157 335 30 63 55 120 56 125 1 6 4 12 7 15 3 3 21 39
40 80 18 41 62 135 97 209 35 73 63 135 63 136 0 2 23 52 51 112 55 117 93
199 144 308 72 157 88 191 96 205 5 8 12 22 16 30 3 8 30 68 60 132 29 65 58
128 63 140 6 13 14 30 19 38 18 30 91 191 97 214 11 43 -18 57 -113 55 -47 -1
-96 -7 -110 -13 -18 -8 -43 -48 -94 -153 -38 -79 -69 -145 -69 -147 0 -3 -29
-64 -64 -138 -35 -73 -73 -155 -86 -183 -12 -27 -42 -90 -65 -140 -23 -49 -52
-112 -65 -140 -12 -27 -42 -90 -65 -140 -23 -49 -52 -112 -65 -140 -12 -27
-41 -90 -65 -140 -106 -225 -135 -289 -135 -301 0 -8 -3 -14 -8 -14 -4 0 -13
-15 -21 -32 -8 -18 -32 -71 -53 -118 -22 -47 -60 -130 -85 -185 -25 -55 -48
-102 -52 -105 -3 -3 -7 -11 -9 -19 -2 -8 -24 -58 -49 -110 -25 -53 -59 -125
-75 -161 -50 -109 -88 -190 -144 -309 -30 -62 -57 -124 -60 -137 -3 -13 -10
-24 -15 -24 -5 0 -9 -9 -9 -20 0 -11 -4 -20 -10 -20 -5 0 -10 -6 -10 -13 0
-24 -32 -78 -43 -74 -14 4 -56 80 -50 90 2 4 -1 7 -6 7 -6 0 -11 4 -11 9 0 10
-33 83 -131 290 -33 68 -59 125 -59 127 0 2 -25 56 -56 121 -31 65 -66 141
-79 168 -51 111 -99 214 -133 285 -41 89 -89 192 -127 275 -15 33 -48 103 -72
155 -25 52 -58 122 -73 155 -15 33 -43 94 -63 135 -19 41 -53 116 -76 165 -50
107 -78 166 -122 260 -18 39 -34 72 -34 75 -1 3 -17 39 -37 80 -19 41 -50 107
-68 145 -18 39 -57 121 -86 184 -30 62 -54 116 -54 120 0 11 -41 84 -56 98
-21 22 -61 30 -142 31 -59 0 -77 -3 -93 -19z"/>
<path d="M10872 5383 c-13 -3 -45 -17 -71 -33 -26 -15 -85 -46 -131 -69 -45
-22 -88 -45 -94 -49 -6 -5 -78 -44 -161 -87 -82 -43 -186 -97 -230 -120 -44
-23 -120 -64 -170 -90 -128 -67 -140 -79 -137 -133 2 -19 87 -197 102 -212 3
-3 27 -48 54 -100 76 -147 128 -244 139 -257 5 -7 6 -13 3 -13 -4 0 1 -12 12
-27 17 -26 52 -96 52 -105 0 -10 -357 -178 -383 -181 -14 -1 -22 5 -25 18 -2
11 -19 70 -37 130 -19 61 -57 187 -86 280 -28 94 -61 203 -73 244 -26 85 -55
121 -97 121 -84 0 -141 -65 -116 -130 5 -15 32 -105 83 -280 14 -47 28 -92 31
-100 3 -8 7 -19 9 -25 2 -10 42 -143 75 -255 11 -36 22 -73 24 -82 3 -13 -19
-26 -98 -57 -56 -22 -115 -46 -132 -52 -16 -7 -32 -13 -35 -14 -3 -1 -18 -7
-33 -13 -22 -9 -34 -9 -50 0 -24 12 -214 154 -235 175 -7 7 -16 13 -20 13 -4
0 -21 13 -38 28 -18 15 -42 34 -54 42 -12 8 -56 41 -98 73 -43 32 -88 66 -101
75 -13 9 -32 25 -43 35 -10 9 -21 17 -24 17 -5 0 -83 58 -94 71 -3 3 -44 33
-91 67 -94 68 -119 74 -189 46 -25 -10 -47 -28 -56 -45 -18 -35 -18 -24 1 -84
9 -27 17 -57 19 -65 2 -8 48 -159 101 -335 53 -176 98 -324 100 -330 1 -5 6
-18 10 -28 4 -10 3 -23 -2 -28 -9 -9 -236 -70 -313 -85 -14 -2 -31 -7 -39 -10
-8 -2 -30 -7 -50 -10 -20 -3 -43 -10 -52 -15 -9 -4 -18 -6 -21 -4 -2 2 -21 0
-42 -6 -58 -16 -76 -19 -77 -11 0 4 -2 18 -3 32 -4 32 -16 101 -21 120 -2 8
-7 31 -10 50 -3 19 -10 58 -15 85 -5 28 -12 66 -15 85 -3 19 -13 73 -21 120
-9 47 -17 96 -19 110 -1 14 -5 34 -8 45 -3 11 -9 40 -13 65 -3 25 -7 50 -8 55
-4 24 -36 57 -62 64 -42 11 -96 -4 -123 -35 -20 -23 -22 -34 -17 -73 8 -62 14
-97 26 -151 5 -25 12 -61 14 -80 3 -19 10 -60 16 -90 6 -30 13 -68 15 -85 3
-16 7 -41 10 -55 3 -14 7 -41 10 -60 3 -19 8 -42 10 -50 2 -8 7 -33 10 -55 3
-23 7 -50 10 -60 2 -11 7 -35 11 -52 3 -18 3 -33 -2 -33 -5 0 -47 -7 -94 -15
-47 -9 -100 -18 -119 -21 -18 -3 -41 -7 -50 -9 -9 -1 -41 -6 -71 -10 -30 -4
-64 -9 -75 -11 -11 -3 -46 -7 -77 -10 -44 -4 -58 -2 -59 8 0 7 -2 22 -3 33 -4
25 -17 139 -21 185 -4 33 -8 74 -21 185 -3 28 -7 68 -9 90 -3 22 -7 63 -11 90
-3 28 -8 66 -10 85 -2 19 -6 47 -7 63 -2 15 -4 40 -5 56 -4 60 -48 88 -129 82
-35 -2 -75 -43 -76 -76 -1 -31 10 -151 18 -195 2 -14 6 -52 9 -85 3 -33 8 -71
10 -85 3 -14 8 -56 11 -95 3 -38 8 -86 10 -105 3 -19 7 -62 10 -95 2 -33 5
-60 5 -60 2 0 9 -40 13 -77 3 -30 1 -38 -12 -39 -9 0 -23 -2 -31 -4 -8 -1 -46
-5 -85 -9 -38 -4 -92 -9 -120 -12 -51 -5 -114 -10 -240 -19 -182 -12 -239 -15
-354 -21 -69 -3 -128 -7 -133 -10 -4 -3 -9 1 -10 8 0 7 -2 24 -4 38 -1 14 -5
36 -8 50 -3 14 -7 52 -11 85 -9 94 -24 232 -30 280 -2 17 -7 57 -10 89 -3 33
-8 73 -10 90 -3 17 -7 57 -9 88 -6 79 -27 115 -71 124 -86 16 -144 -23 -140
-93 3 -43 15 -166 20 -203 7 -45 14 -104 20 -165 3 -33 8 -80 12 -105 3 -25 7
-58 8 -75 9 -94 16 -154 20 -181 l5 -32 -167 4 c-181 3 -344 10 -463 20 -41 3
-97 8 -125 9 -110 8 -287 25 -401 40 -17 3 -57 7 -89 11 -32 3 -68 8 -79 10
-12 2 -44 7 -72 10 -28 2 -62 7 -75 9 -38 8 -102 17 -130 20 -41 3 -50 13 -43
48 3 18 7 39 8 47 7 46 20 98 33 122 7 15 13 31 13 35 0 5 12 32 28 62 47 94
166 200 275 245 20 8 37 13 37 10 0 -3 10 0 21 7 61 32 369 46 439 19 3 -1 10
-3 15 -4 67 -11 134 -33 198 -65 42 -22 85 -37 95 -34 23 6 63 70 70 111 4 28
1 38 -19 54 -60 47 -224 107 -334 122 -22 3 -51 8 -65 11 -28 6 -260 7 -305 1
-210 -28 -383 -113 -500 -245 -59 -67 -156 -221 -139 -221 3 0 -2 -12 -10 -27
-16 -30 -45 -126 -52 -177 -11 -79 -5 -75 -89 -64 -62 9 -344 68 -371 78 -13
5 -24 6 -24 3 0 -22 -22 20 -25 48 -3 19 -7 50 -10 69 -3 19 -7 46 -10 60 -2
14 -6 48 -10 75 -3 28 -8 57 -10 65 -2 8 -6 38 -10 65 -3 28 -7 61 -10 75 -2
14 -7 43 -10 65 -3 22 -8 54 -11 72 -3 17 -7 49 -9 70 -2 21 -4 38 -5 38 -1 0
-3 14 -5 30 -2 17 -7 48 -10 70 -4 22 -8 49 -9 60 -7 63 -36 88 -114 100 -38
5 -45 3 -75 -27 -18 -18 -46 -51 -62 -73 -16 -22 -35 -47 -42 -55 -23 -27
-138 -176 -158 -205 -11 -15 -25 -32 -30 -39 -6 -6 -29 -36 -53 -66 -23 -30
-45 -59 -50 -65 -4 -5 -39 -51 -78 -101 l-70 -90 -150 51 c-238 81 -416 149
-421 160 -2 6 18 51 45 100 87 161 261 490 283 535 9 19 15 46 13 60 -6 33
-59 78 -107 91 -42 11 -65 7 -94 -19 -11 -9 -35 -28 -53 -42 -18 -14 -79 -61
-135 -105 -56 -44 -137 -107 -179 -140 -43 -33 -86 -67 -96 -75 -10 -8 -27
-22 -37 -30 -10 -9 -39 -31 -65 -49 -27 -19 -48 -38 -48 -42 0 -4 -8 -10 -18
-13 -10 -4 -28 -15 -39 -26 -21 -19 -22 -19 -85 12 -225 109 -386 193 -383
198 4 7 18 211 19 287 1 29 3 53 6 53 3 0 5 21 6 48 1 48 11 218 19 307 13
150 13 222 2 245 -14 28 -84 70 -119 72 -58 2 -60 -1 -148 -167 -23 -44 -60
-112 -81 -151 -21 -39 -59 -111 -84 -160 -93 -179 -124 -236 -128 -240 -6 -7
-60 25 -194 112 -120 78 -148 90 -188 80 -23 -6 -86 -56 -70 -56 4 0 3 -6 -3
-13 -6 -7 -9 -22 -7 -32 2 -11 4 -25 4 -32 1 -15 60 -83 72 -83 5 0 32 -16 59
-35 27 -19 54 -35 59 -35 5 0 11 -3 13 -7 4 -11 86 -63 98 -63 5 0 10 -4 10
-10 0 -5 6 -10 14 -10 25 0 24 -24 -4 -75 -15 -27 -58 -108 -95 -180 -86 -165
-136 -257 -146 -270 -15 -21 -20 -89 -7 -106 40 -49 119 -71 154 -41 19 16 64
94 150 262 21 41 41 77 44 80 3 3 12 19 19 35 8 17 33 62 55 102 42 77 35 75
95 38 9 -6 51 -30 94 -54 l79 -43 -7 -107 c-9 -160 -14 -239 -20 -311 -3 -36
-8 -117 -11 -180 l-6 -115 27 -28 c15 -15 33 -27 39 -28 6 0 21 -2 33 -5 19
-3 110 56 199 130 11 8 75 59 144 113 69 53 126 101 128 105 2 4 8 8 13 8 6 0
19 9 31 20 12 11 38 31 58 45 l36 25 117 -52 117 -51 -34 -61 c-59 -107 -80
-151 -78 -158 1 -5 -2 -8 -8 -8 -5 0 -10 -4 -10 -10 0 -5 -13 -32 -30 -60 -16
-27 -27 -50 -24 -50 3 0 -3 -12 -13 -27 -10 -16 -28 -46 -38 -68 -11 -22 -22
-42 -25 -45 -14 -14 -40 -84 -40 -108 1 -34 16 -55 60 -79 37 -21 72 -21 103
0 17 11 68 99 158 277 19 36 38 68 44 72 5 4 6 8 1 8 -5 0 -4 6 1 13 11 13 65
112 101 184 l22 41 67 -25 c165 -60 314 -113 390 -139 l83 -27 -18 -27 c-9
-15 -29 -43 -44 -61 -15 -19 -76 -97 -135 -174 -59 -77 -112 -145 -117 -152
-26 -28 -62 -78 -78 -106 -36 -64 -18 -96 67 -117 80 -20 84 -17 255 209 47
61 112 147 145 190 33 43 71 92 85 110 49 64 37 62 182 20 73 -22 187 -53 253
-70 66 -17 127 -33 135 -36 8 -3 22 -7 31 -9 50 -10 69 -24 70 -51 1 -34 6
-71 12 -98 3 -11 8 -42 11 -70 3 -27 9 -68 12 -90 3 -22 7 -51 9 -65 2 -14 6
-43 10 -65 3 -22 7 -53 10 -70 2 -16 6 -46 9 -65 3 -19 8 -51 10 -71 12 -85
45 -118 124 -125 76 -7 99 28 80 126 -5 25 -11 65 -13 90 -3 25 -7 56 -10 70
-4 25 -15 94 -20 137 -2 13 -6 41 -10 63 -7 44 -10 60 -20 140 -3 29 -7 59 -8
65 -3 14 0 14 158 -20 44 -9 91 -19 105 -21 14 -2 36 -7 50 -11 14 -3 32 -7
40 -8 45 -5 90 -17 91 -23 0 -4 2 -29 4 -57 17 -274 149 -529 335 -649 25 -16
57 -37 72 -48 15 -10 32 -18 38 -18 6 0 24 -7 39 -14 40 -21 170 -54 243 -62
284 -31 620 31 714 133 22 24 23 27 9 60 -8 19 -24 48 -36 65 -19 26 -26 29
-56 25 -18 -3 -48 -16 -66 -29 -17 -13 -33 -22 -35 -20 -1 1 -33 -7 -70 -18
-84 -26 -126 -31 -282 -34 -130 -3 -259 17 -323 49 -16 8 -36 15 -42 15 -7 0
-18 7 -25 15 -7 9 -15 13 -18 10 -7 -6 -98 69 -145 119 -39 43 -104 158 -111
198 -3 13 -5 23 -6 23 -1 0 -3 8 -5 19 -2 10 -8 39 -14 65 -14 63 -17 126 -6
124 17 -2 99 -15 120 -18 11 -1 47 -6 80 -10 33 -4 69 -9 80 -11 32 -6 147
-20 235 -29 30 -3 71 -8 90 -11 19 -3 64 -7 100 -10 36 -3 85 -7 110 -9 44 -5
152 -13 280 -21 113 -7 310 -14 442 -17 71 -1 128 -4 129 -7 0 -3 2 -12 3 -20
10 -51 29 -229 30 -287 1 -24 4 -43 7 -43 3 0 6 -22 8 -49 1 -28 4 -60 7 -73
2 -13 7 -52 10 -88 4 -36 11 -71 17 -78 35 -44 125 -47 166 -7 26 25 29 55 18
150 -16 139 -19 163 -22 200 -2 22 -4 40 -5 40 -1 0 -3 16 -4 35 -2 19 -7 69
-11 110 -15 135 -21 124 65 126 108 3 287 13 345 19 28 2 91 7 140 10 50 3
110 8 135 10 25 3 65 7 90 9 122 11 185 18 192 22 5 3 8 -3 9 -13 0 -10 2 -27
4 -38 2 -11 7 -44 10 -72 8 -80 17 -165 20 -193 2 -14 6 -52 10 -85 12 -106
14 -120 18 -145 10 -65 67 -97 133 -74 69 24 78 50 60 194 -5 36 -10 79 -11
95 -12 120 -17 163 -21 185 -2 14 -7 57 -10 97 -5 65 -4 72 14 77 11 4 24 6
28 5 5 -1 11 0 14 1 3 1 19 3 36 5 16 2 47 6 67 9 20 3 54 8 75 12 20 3 62 9
92 14 30 5 72 12 94 16 44 6 69 11 109 20 15 3 27 2 28 -3 2 -21 8 -55 24
-143 9 -52 19 -108 20 -125 2 -16 4 -30 5 -30 2 0 2 -3 31 -164 20 -108 27
-130 51 -154 24 -25 34 -28 66 -23 72 10 97 30 106 81 1 9 -8 72 -29 190 -4
22 -8 47 -9 55 -2 8 -5 29 -9 45 -4 17 -9 48 -12 70 -3 23 -8 51 -10 63 -3 12
-7 32 -10 44 -7 31 -17 99 -19 122 0 11 6 20 17 22 47 7 235 49 362 81 77 19
150 37 162 39 12 2 34 9 47 14 30 11 31 11 56 -77 20 -64 43 -142 106 -346 35
-115 49 -132 108 -131 33 1 55 8 80 27 49 38 49 34 -56 377 -29 97 -39 131
-43 149 -3 9 -7 26 -11 38 -8 27 -23 20 261 113 121 40 232 78 246 86 26 13
44 7 86 -31 6 -5 45 -35 87 -65 42 -30 76 -58 76 -62 0 -4 6 -8 14 -8 7 0 24
-10 38 -22 13 -13 42 -35 64 -51 23 -15 50 -36 62 -47 12 -11 25 -20 31 -20 5
0 11 -3 13 -7 4 -10 65 -57 130 -102 53 -35 98 -37 158 -6 67 34 65 47 -34
370 -50 161 -50 160 -66 220 -23 83 -23 83 2 96 12 7 24 12 25 11 4 -2 148 65
270 124 109 54 133 59 133 28 0 -8 4 -14 10 -14 5 0 9 -3 8 -7 -2 -11 13 -45
27 -63 7 -8 45 -78 84 -155 40 -77 76 -144 81 -150 4 -5 9 -14 10 -20 0 -5 14
-33 30 -62 30 -53 70 -83 103 -78 9 2 88 41 175 87 86 46 177 94 202 107 25
12 99 51 165 86 66 36 149 79 185 97 36 18 67 35 70 38 3 3 40 23 83 45 125
64 144 91 111 162 -32 66 -82 76 -160 32 -20 -11 -91 -49 -158 -83 -66 -35
-143 -76 -171 -91 -80 -44 -130 -68 -135 -67 -3 0 -12 -5 -20 -12 -8 -6 -37
-24 -65 -38 -27 -14 -90 -47 -138 -72 -49 -25 -92 -46 -95 -46 -4 0 -12 10
-18 23 -14 30 -127 245 -174 332 -42 77 -42 77 25 110 22 11 42 23 45 26 3 3
10 8 15 10 10 4 189 104 223 124 10 6 44 25 77 44 33 19 62 37 65 40 9 10 64
42 83 48 9 3 17 9 17 14 0 5 4 9 9 9 14 0 263 164 280 184 19 23 22 85 6 116
-7 14 -25 32 -40 40 -46 25 -87 16 -167 -36 -40 -27 -82 -54 -93 -61 -11 -7
-76 -47 -145 -89 -69 -42 -136 -84 -150 -93 -14 -9 -34 -21 -45 -27 -59 -32
-118 -65 -154 -88 -23 -15 -41 -23 -41 -20 0 4 -6 2 -12 -4 -7 -6 -41 -26 -75
-46 l-63 -35 -12 22 c-6 12 -26 49 -43 82 -18 33 -61 114 -95 180 -35 66 -82
155 -106 198 -23 42 -40 77 -37 77 3 0 0 6 -6 14 -13 16 6 28 214 136 66 34
156 82 200 105 44 23 118 63 165 87 47 25 121 64 164 88 94 50 117 73 110 115
-6 33 -41 95 -54 95 -5 0 -14 2 -22 4 -7 2 -24 1 -36 -1z m-10057 -685 c-2
-13 -7 -63 -10 -113 -10 -161 -17 -260 -19 -262 -1 -1 -13 4 -26 11 -14 7 -44
23 -67 35 -24 13 -43 29 -43 37 0 8 18 46 39 84 22 39 37 70 33 70 -4 0 -2 4
3 8 6 4 17 21 25 37 21 43 63 115 67 115 2 0 1 -10 -2 -22z m1062 -660 c-24
-46 -57 -107 -72 -136 -15 -29 -30 -54 -34 -56 -7 -5 -52 13 -102 40 -14 7
-29 11 -33 7 -3 -3 -6 -2 -6 4 0 6 12 19 26 29 14 10 78 60 142 110 65 50 119
90 120 88 2 -1 -16 -40 -41 -86z m6810 -129 c40 -30 84 -63 99 -74 15 -11 52
-39 83 -62 74 -57 70 -54 116 -88 22 -16 46 -35 53 -42 8 -7 22 -18 33 -23 21
-12 26 -30 7 -30 -6 0 -82 -23 -167 -51 -86 -28 -163 -52 -171 -54 -8 -2 -22
-6 -30 -9 -16 -6 -18 0 -62 139 -6 22 -13 45 -14 50 -5 20 -56 190 -62 205 -8
22 -8 23 -16 55 -4 17 -10 37 -14 45 -3 8 -7 25 -8 38 -3 21 0 20 39 -12 23
-18 74 -58 114 -87z m-7584 -3 l128 -64 -43 -33 c-24 -18 -45 -36 -48 -39 -3
-3 -25 -21 -50 -40 -25 -19 -46 -38 -48 -42 -2 -4 -10 -8 -18 -8 -8 0 -14 -3
-14 -7 0 -5 -15 -18 -33 -30 -34 -23 -52 -30 -43 -15 3 5 8 58 12 118 4 60 8
127 9 149 2 22 4 48 4 58 1 9 5 17 9 17 4 0 65 -29 135 -64z m2013 -12 c3 -27
8 -62 10 -79 3 -16 7 -43 9 -60 2 -16 6 -50 10 -75 5 -41 8 -58 20 -125 1 -11
6 -40 9 -65 4 -25 9 -62 12 -84 5 -34 4 -37 -12 -32 -11 3 -32 8 -49 12 -16 4
-36 11 -42 17 -7 5 -13 7 -13 4 0 -6 -206 48 -283 75 l-38 14 66 84 c92 120
109 141 120 154 6 6 32 40 60 76 27 36 53 67 57 68 5 2 8 8 8 13 0 10 42 60
47 56 2 -2 6 -26 9 -53z m6604 -316 c12 -29 63 -198 65 -218 2 -8 6 -24 11
-35 9 -23 14 -26 -78 46 -44 34 -170 127 -197 146 -7 5 6 14 21 17 7 1 28 10
46 19 17 10 32 16 32 13 0 -2 17 4 38 14 48 25 51 24 62 -2z"/>
</g>
</svg>
