<!-- SVG Sprite -->
<svg width="0" height="0" class="hidden">

<symbol version="1.1" id="dribbble" class="symbol" xmlns="http://www.w3.org/2000/svg" xmlns:xlink="http://www.w3.org/1999/xlink" x="0px" y="0px" xml:space="preserve" viewBox="0 0 143.6 70.4">
<g id="dribbble" class="shape">
  <path d="M102.2,17.5c-3.1-5.4-7.4-9.7-12.8-12.8S78.2,0,71.8,0S59.5,1.6,54.2,4.7c-5.4,3.1-9.7,7.4-12.8,12.8
c-3.1,5.4-4.7,11.3-4.7,17.7s1.6,12.3,4.7,17.7c3.1,5.4,7.4,9.7,12.8,12.8c5.4,3.1,11.3,4.7,17.6,4.7s12.3-1.6,17.7-4.7
s9.7-7.4,12.8-12.8c3.1-5.4,4.7-11.3,4.7-17.7S105.4,22.9,102.2,17.5z M71.8,5.8c7,0,13.3,2.2,18.7,6.8c-3.2,4.1-8,7.5-14.4,10.2
c-3.5-6.4-7.3-11.7-11.5-16C67,6.2,69.4,5.8,71.8,5.8z M49,16.9c2.7-3.3,5.8-5.9,9.5-7.8c4.3,4.2,8.2,9.5,11.7,15.8
c-7,2.1-14.5,3.2-22.3,3.2c-2,0-3.5-0.1-4.6-0.1C44.5,23.9,46.3,20.2,49,16.9z M42.5,35.2c0-0.2,0-0.4,0-0.7c0-0.3,0-0.5,0-0.7
c0.9,0.1,2.2,0.1,4.1,0.1c9.4,0,18.1-1.3,26.2-3.9c0.7,1.3,1.3,2.8,2,4.4c-4.6,1-9.4,3.5-14.3,7.5c-4.9,4-8.4,8.2-10.7,12.6
C44.9,48.9,42.5,42.5,42.5,35.2z M71.8,64.5c-6.7,0-12.6-2.1-17.9-6.2c2.1-4.2,5.4-8.2,9.8-12c4.4-3.8,8.7-6.2,13-7.1
c2.7,7.5,4.5,15.3,5.5,23.3C78.7,63.8,75.3,64.5,71.8,64.5z M96.7,50.6c-2.3,3.8-5.4,6.8-9.1,9.2c-0.8-7.3-2.5-14.4-4.8-21.4
c3.3-0.2,6.2-0.3,8.8-0.3c2.8,0,5.9,0.1,9.3,0.3C100.4,42.8,99,46.8,96.7,50.6z M92.3,33c-4.1,0-7.9,0.2-11.3,0.5
c-0.9-2.3-1.7-4.2-2.4-5.7c7.3-3.2,12.4-7.1,15.5-11.6c4.2,5,6.5,10.6,6.9,17C98.1,33.1,95.2,33,92.3,33z"></path>
</g>

</symbol>
<symbol version="1.1" id="github" xmlns="http://www.w3.org/2000/svg" xmlns:xlink="http://www.w3.org/1999/xlink" x="0px" y="0px" xml:space="preserve" viewBox="0 0 143.6 70.4">
<g id="github" class="shape">
  <path d="M72,0C52.5,0,36.8,15.7,36.8,35.2c0,15.5,10.1,28.7,24.1,33.4c1.8,0.3,2.4-0.8,2.4-1.7c0-0.8,0-3,0-6
c-9.8,2.1-11.9-4.7-11.9-4.7c-1.6-4.1-3.9-5.2-3.9-5.2c-3.2-2.2,0.2-2.1,0.2-2.1c3.5,0.2,5.4,3.6,5.4,3.6c3.1,5.4,8.2,3.8,10.2,2.9
c0.3-2.3,1.2-3.8,2.2-4.7c-7.8-0.9-16-3.9-16-17.4c0-3.8,1.4-7,3.6-9.4c-0.4-0.9-1.6-4.5,0.4-9.3c0,0,3-1,9.7,3.6
C66,17.4,69,17,72,17c3,0,6,0.4,8.8,1.2c6.7-4.5,9.7-3.6,9.7-3.6c1.9,4.8,0.7,8.4,0.4,9.3c2.3,2.5,3.6,5.6,3.6,9.4
c0,13.5-8.2,16.5-16.1,17.4c1.3,1.1,2.4,3.2,2.4,6.5c0,4.7,0,8.5,0,9.7c0,0.9,0.6,2,2.4,1.7c14-4.7,24.1-17.8,24.1-33.4
C107.2,15.7,91.4,0,72,0z"></path>
</g>
</symbol>
<symbol version="1.1" id="info" xmlns="http://www.w3.org/2000/svg" xmlns:xlink="http://www.w3.org/1999/xlink" x="0px" y="0px" xml:space="preserve" viewBox="0 0 143.6 98.6">
<g id="info" class="shape">
  <path d="M75.5,61.6v25.2c0,1.6-1.3,3-3,3c-1.6,0-3-1.3-3-3V61.6c0-1.6,1.3-3,3-3C74.2,58.6,75.5,59.9,75.5,61.6z M105.2,24.5
  	c-4.6-14.7-18-24.6-33.4-24.6S43,9.8,38.4,24.5c-0.5,1.6,0.4,3.2,2,3.7c1.6,0.5,3.2-0.4,3.7-1.9C47.8,14,59,5.8,71.8,5.8
  	c12.8,0,24,8.2,27.8,20.4c0.4,1.3,1.6,2.1,2.8,2.1c0.3,0,0.6,0,0.9-0.1C104.8,27.7,105.7,26,105.2,24.5z M71.8,21.6
  	c-6.2,0-11.3,5.1-11.3,11.3c0,6.2,5.1,11.3,11.3,11.3c6.2,0,11.3-5.1,11.3-11.3C83.1,26.6,78,21.6,71.8,21.6z M83.1,32.8
  	c0-6.2-5.1-11.3-11.3-11.3c-6.2,0-11.3,5.1-11.3,11.3c0,6.2,5.1,11.3,11.3,11.3C78,44.1,83.1,39.1,83.1,32.8z"/>
  </g>
</symbol>
<symbol version="1.1" id="instagram" xmlns="http://www.w3.org/2000/svg" xmlns:xlink="http://www.w3.org/1999/xlink" x="0px" y="0px" xml:space="preserve" viewBox="0 0 143.6 69.68">
<g id="instagram" class="shape">
  <path d="M106.46,19.44c-0.31-5.98-2.15-10.43-5.37-13.8s-7.82-5.06-13.8-5.37c-2.45-0.15-10.9-0.15-17.49-0.15
    c-6.44,0-11.04,0-13.49,0.15c-5.98,0.31-10.58,2.15-13.8,5.37c-3.37,3.22-5.06,7.82-5.37,13.8c-0.15,2.45-0.15,11.05-0.15,17.49
    s0,11.04,0.15,13.49c0.31,5.98,2.15,10.58,5.37,13.8c3.22,3.37,7.82,5.06,13.8,5.37c2.45,0.15,6.9,0.15,13.49,0.15
    c6.44,0,15.04,0,17.49-0.15c5.98-0.31,10.43-2.15,13.8-5.37c3.37-3.22,5.06-7.82,5.37-13.8c0.15-2.45,0.15-6.9,0.15-13.49
    C106.61,30.34,106.46,21.89,106.46,19.44z M100.79,33.71c0,1.99,0,3.07,0,3.22s0,1.23,0,3.22c0,1.84,0,3.37,0,4.45
    s-0.15,2.45-0.15,4.14c-0.15,1.84-0.31,3.22-0.46,4.45c-0.15,1.23-0.46,2.3-0.77,3.07c-0.61,1.53-1.38,2.76-2.45,3.83
    c-1.23,1.07-2.45,1.84-3.83,2.45c-0.77,0.31-1.84,0.61-3.07,0.77c-1.23,0.31-2.76,0.46-4.45,0.46c-1.69,0.15-3.07,0.15-4.14,0.15
    c-0.92,0-2.45,0-4.45,0c-1.99,0-7.07,0-7.22,0s-1.23,0-3.22,0c-1.84,0-3.37,0-4.45,0s-2.3,0-4.14-0.15s-3.22-0.31-4.45-0.46
    s-2.3-0.46-3.07-0.77c-1.53-0.61-2.76-1.38-3.83-2.45c-1.07-1.23-1.84-2.45-2.45-3.83c-0.31-0.77-0.46-1.84-0.77-3.07
    s-0.46-2.76-0.46-4.45c-0.15-1.69-0.15-3.07-0.15-4.14c0-0.92,0-2.45,0-4.45s0-3.07,0-3.22s0-1.23,0-3.22c0-1.84,0-7.37,0-8.45
    s0.15-2.45,0.15-4.14c0.15-1.84,0.31-3.22,0.46-4.45s0.46-2.3,0.77-3.07c0.61-1.53,1.38-2.76,2.45-3.83
    c1.23-1.07,2.45-1.84,3.83-2.45c0.77-0.31,1.84-0.61,3.07-0.77c1.23-0.31,2.76-0.46,4.45-0.46c1.69-0.15,3.07-0.15,4.14-0.15
    c0.92,0,2.45,0,4.45,0s3.07,0,3.22,0s5.23,0,7.22,0s3.53,0,4.45,0c1.07,0,2.45,0.15,4.14,0.15c1.84,0.15,3.22,0.31,4.45,0.46
    s2.3,0.46,3.07,0.77c1.53,0.61,2.76,1.38,3.83,2.45c1.07,1.23,1.84,2.45,2.45,3.83c0.31,0.77,0.61,1.84,0.77,3.07
    c0.31,1.23,0.46,2.76,0.46,4.45c0.15,1.69,0.15,3.07,0.15,4.14C100.79,26.19,100.79,31.72,100.79,33.71z"></path>
  <path d="M83.61,22.97c-3.22-3.37-7.21-4.91-11.96-4.91s-8.74,1.69-11.96,4.91c-3.22,3.37-4.91,7.21-4.91,11.96
  s1.69,8.74,4.91,11.96c3.37,3.22,7.21,4.91,11.96,4.91s8.74-1.69,11.96-4.91c3.22-3.37,4.91-7.21,4.91-11.96
  S86.83,26.19,83.61,22.97z M79.47,42.6c-2.15,2.15-4.75,3.22-7.82,3.22s-5.67-1.07-7.82-3.22c-2.15-1.99-3.22-4.6-3.22-7.67
  s1.07-5.67,3.22-7.82s4.75-3.22,7.82-3.22s5.67,1.07,7.82,3.22s3.22,4.91,3.22,7.82C82.69,37.85,81.61,40.45,79.47,42.6z"></path>
  <path d="M92.04,14.54c0.77,0.77,1.23,1.69,1.23,2.76s-0.46,1.99-1.23,2.76c-0.77,0.77-1.69,1.23-2.76,1.23s-1.99-0.46-2.76-1.23
  c-0.77-0.77-1.23-1.69-1.23-2.76s0.46-1.99,1.23-2.76c0.77-0.77,1.69-1.23,2.76-1.23S91.27,13.77,92.04,14.54z"></path>
</g>
</symbol>

<symbol version="1.1" id="mail" xmlns="http://www.w3.org/2000/svg" xmlns:xlink="http://www.w3.org/1999/xlink" x="0px" y="0px" xml:space="preserve" viewBox="0 0 143.6 58.96">
<g id="mail">
  <path d="M110.89,8.02c0-4.41-3.59-8-8-8H40.72c-4.41,0-8,3.59-8,8v42.92c0,4.41,3.59,8,8,8h62.17c2.28,0,4.34-0.97,5.8-2.5
c0.25-0.2,0.45-0.44,0.6-0.72c1-1.34,1.6-2.99,1.6-4.78V8.02z M84.7,32.45l20.07-22.32v39.42L84.7,32.45z M99.3,52.87H43.86
l18.89-16.18l6.58,6.32l0.62,0.58c0.94,0.87,2.39,0.85,3.31-0.03l7.15-6.87L99.3,52.87z M78.66,30.1c-0.06,0.05-0.12,0.1-0.17,0.15
l-6.9,6.63l-6.89-6.61c-0.06-0.06-0.13-0.12-0.2-0.18L42.51,5.75h58.15L78.66,30.1z M58.47,32.45L38.4,49.55V10.13L58.47,32.45z"></path>
</g>
</symbol>
<symbol version="1.1" id="spy" xmlns="http://www.w3.org/2000/svg" xmlns:xlink="http://www.w3.org/1999/xlink" x="0px" y="0px" xml:space="preserve" viewBox="0 0 143.6 58.96">
<g id="spy">
  	<path class="st0" d="M20.3,0.1C11,0.1,2.9,6.1,0.1,15C-0.1,15.7,0,16.4,0.3,17c0.3,0.6,0.9,1.1,1.6,1.3c0.3,0.1,0.5,0.1,0.8,0.1
  		c1.1,0,2.2-0.7,2.6-1.9c2-6.6,8-11.1,15-11.1c6.9,0,13,4.4,15,11c0.3,1.1,1.4,1.9,2.6,1.9c0.2,0,0.5,0,0.8-0.1
  		c0.7-0.2,1.2-0.7,1.5-1.3c0.3-0.7,0.4-1.4,0.2-2C37.6,6.1,29.5,0.1,20.3,0.1z"/>
  	<path class="st0" d="M20.3,12.5c-4.1,0-7.5,3.4-7.5,7.6c0,4.1,3.4,7.5,7.5,7.5s7.5-3.4,7.5-7.6C27.8,15.9,24.4,12.5,20.3,12.5z
  		 M20.4,23.6c-1.6,0-2.9-1.3-2.9-2.9c0-1.6,1.3-2.9,2.9-2.9c1.6,0,2.9,1.3,2.9,2.9C23.3,22.3,22,23.6,20.4,23.6z"/>
  	<path class="st0" d="M85.9,15.2C83.1,6.3,75,0.3,65.8,0.3c-9.3,0-17.4,6-20.2,14.8c-0.2,0.7-0.1,1.4,0.2,2.1
  		c0.3,0.6,0.9,1.1,1.6,1.3c0.3,0.1,0.5,0.1,0.8,0.1c1.1,0,2.2-0.7,2.6-1.9c2-6.6,8-11.1,15-11.1c6.9,0,13,4.4,15,11
  		c0.3,1.1,1.4,1.9,2.6,1.9c0.2,0,0.5,0,0.8-0.1C85.6,18.1,86.4,16.5,85.9,15.2z"/>
  	<path class="st0" d="M65.8,12.7c-4.1,0-7.5,3.4-7.5,7.6c0,4.1,3.4,7.5,7.5,7.5s7.5-3.4,7.5-7.6C73.3,16.1,69.9,12.7,65.8,12.7z
  		 M66.2,23.6c-1.6,0-2.9-1.3-2.9-2.9c0-1.6,1.3-2.9,2.9-2.9s2.9,1.3,2.9,2.9C69.1,22.3,67.8,23.6,66.2,23.6z"/>
</g>
</symbol>
<symbol version="1.1" id="linkedin" xmlns="http://www.w3.org/2000/svg" xmlns:xlink="http://www.w3.org/1999/xlink" x="0px" y="0px" xml:space="preserve" viewBox="0 0 143.6 58.96">
<g id="linkedin">
  <path d="M90.6,0H53.2C44.2,0,37,7.2,37,16.2v37.4c0,8.9,7.3,16.2,16.2,16.2h37.4c8.9,0,16.2-7.3,16.2-16.2V16.2
  	C106.7,7.2,99.5,0,90.6,0z M100.5,53.6c0,5.5-4.4,9.9-9.9,9.9H53.2c-5.5,0-9.9-4.4-9.9-9.9V16.2c0-5.5,4.4-9.9,9.9-9.9h37.4
  	c5.5,0,9.9,4.4,9.9,9.9V53.6z"/>
  	<path d="M56.4,14.2c-2.8,0-5.1,2.3-5.1,5.1c0,2.8,2.3,5.1,5.1,5.1c2.8,0,5.1-2.3,5.1-5.1C61.5,16.5,59.2,14.2,56.4,14.2z"/>
  	<rect x="52" y="28.3" width="8.8" height="28.2"/>
  	<path d="M83.1,27.6c-4.3,0-7.1,2.3-8.3,4.6h-0.1v-3.9h-8.4v28.2H75v-14c0-3.7,0.7-7.2,5.3-7.2c4.5,0,4.6,4.2,4.6,7.5v13.7h8.8V41
  		C93.6,33.4,92,27.6,83.1,27.6z"/>
</g>
</symbol>
</svg>
