<?xml version="1.0" encoding="utf-8"?>
<!-- Generator: Adobe Illustrator 25.2.1, SVG Export Plug-In . SVG Version: 6.00 Build 0)  -->
<svg version="1.1" id="Layer_1" xmlns="http://www.w3.org/2000/svg" xmlns:xlink="http://www.w3.org/1999/xlink" x="0px" y="0px"
	 viewBox="0 0 36 36" style="enable-background:new 0 0 36 36;" xml:space="preserve">
<style type="text/css">
	.st0{fill:#FFFFFF;}
	.st1{fill:#7ACCCE;}
	.st2{fill:none;}
</style>
<path class="st0" d="M32.8,36H3.2C1.4,36,0,34.6,0,32.8V3.2C0,1.4,1.4,0,3.2,0h29.6C34.6,0,36,1.4,36,3.2v29.6
	C36,34.6,34.6,36,32.8,36z"/>
<path class="st0" d="M26.9,30.2c-0.4,0-0.9-0.2-1.1-0.4l-6.9-8.5c-1,0.5-2.2,0.7-3.3,0.7c-0.8,0-1.6-0.1-2.4-0.4
	C9,20.3,6.6,15.7,7.9,11.5s5.8-6.5,10-5.2s6.6,5.9,5.3,10.1c-0.4,1.1-1,2.2-1.8,3.1l-0.1,0.1l6.6,8.3c0.5,0.6,0.5,1.6-0.1,2.1
	C27.5,30.2,27.3,30.2,26.9,30.2z"/>
<g>
	<path class="st1" d="M27.6,5H8.5C7.1,5,6.1,6,6.1,7.4L6,28.6C6,29.9,7,31,8.4,31h19.2c1.3,0,2.4-1.1,2.4-2.4V7.4C30,6,29,5,27.6,5z
		 M8.4,9.4h0.7c-0.3,0.4-0.5,0.7-0.7,1.1V9.4z M8.4,24.4v-1.8h1.8v1.8H8.4z M8.4,19.8V18l0,0c0.3,0.7,0.8,1.2,1.2,1.7L8.4,19.8
		L8.4,19.8z M10.3,28.3H8.4v-1.8h1.9C10.3,26.5,10.3,28.3,10.3,28.3z M12.5,28.2c-0.4,0-0.8-0.3-0.8-0.8s0.3-0.8,0.8-0.8h10.3
		l1.2,1.5L12.5,28.2L12.5,28.2z M12.1,23.3c0-0.4,0.3-0.8,0.8-0.8h6.6l1.2,1.4h-7.9C12.3,24.1,12.1,23.7,12.1,23.3z M27.2,29.3
		c-0.2,0.2-0.4,0.3-0.6,0.2c-0.3,0-0.6-0.1-0.8-0.4L19,20.6c-1.1,0.6-2.2,0.9-3.4,0.9c-0.8,0-1.4-0.1-2.2-0.3
		c-3.8-1.2-5.9-5.3-4.7-9.1c1-3,3.7-5.1,6.9-5.1c0.8,0,1.4,0.1,2.2,0.3c3.8,1.2,5.9,5.3,4.7,9c-0.3,1.1-0.9,2-1.6,2.8
		c-0.1,0.1-0.3,0.3-0.4,0.4l6.7,8.3C27.6,28.2,27.6,28.9,27.2,29.3z M26.8,24.1h-1.3l-1.2-1.4h2.5c0.4,0,0.8,0.3,0.8,0.8
		S27.2,24.1,26.8,24.1z M26.8,19.6h-5l0,0c0.4-0.5,0.7-0.9,1-1.4h4c0.4,0,0.8,0.3,0.8,0.8C27.6,19.4,27.2,19.6,26.8,19.6z
		 M26.8,15.3h-3.1c0.1-0.5,0.1-1,0-1.4h3c0.4,0,0.8,0.3,0.8,0.8C27.5,15.1,27.2,15.3,26.8,15.3z M26.8,10.8h-3.7
		c-0.2-0.5-0.5-1-0.9-1.4h4.6c0.4,0,0.8,0.3,0.8,0.8C27.6,10.7,27.2,10.8,26.8,10.8z"/>
	<path class="st1" d="M18.9,10.8c-1.2,0.9-2.1,1.8-3,3c-0.5,0.7-1,1.3-1.4,2l-1.6-2.1c-0.3-0.2-0.6-0.3-1-0.1
		c-0.2,0.1-0.3,0.2-0.4,0.4c-0.1,0.2,0,0.4,0.1,0.6l2.2,3.5c0.1,0.2,0.3,0.4,0.5,0.4c0.1,0,0.3,0.1,0.4,0.1c0.4,0,0.8-0.2,1-0.6
		c0.5-1.2,1.1-2.2,1.8-3.2c0.7-1.1,1.5-1.9,2.5-2.8c0,0,0.1,0,0.1-0.1l0.1-0.1c0.3-0.3,0.2-0.8-0.1-1.1
		C19.6,10.7,19.2,10.7,18.9,10.8z"/>
</g>
<line class="st2" x1="31.6" y1="31.8" x2="31.6" y2="31.8"/>
</svg>
