<?xml version="1.0" encoding="utf-8"?>
<!-- Generator: Adobe Illustrator 25.2.1, SVG Export Plug-In . SVG Version: 6.00 Build 0)  -->
<svg version="1.1" id="Layer_1" xmlns="http://www.w3.org/2000/svg" xmlns:xlink="http://www.w3.org/1999/xlink" x="0px" y="0px"
	 viewBox="0 0 36 36" style="enable-background:new 0 0 36 36;" xml:space="preserve">
<style type="text/css">
	.st0{fill:#FFFFFF;}
	.st1{fill:#738189;}
</style>
<path class="st0" d="M32.8,36H3.2C1.4,36,0,34.6,0,32.8V3.2C0,1.4,1.4,0,3.2,0h29.6C34.6,0,36,1.4,36,3.2v29.6
	C36,34.6,34.6,36,32.8,36z"/>
<g>
	<path class="st1" d="M18,15.1c-1.6,0-2.8,1.3-2.8,2.8c0,1.6,1.3,2.8,2.8,2.8c1.6,0,2.8-1.3,2.8-2.8c0-0.4-0.1-0.7-0.2-1
		C20.2,15.7,19.2,15.1,18,15.1z"/>
	<path class="st1" d="M28.1,19.3c0.1-0.5,0.1-0.9,0.2-1.4c0-0.5,0-0.9-0.1-1.4l3.6-2.1c0.3-0.2,0.3-0.6,0.1-0.8l-3.1-5.3
		C28.7,8,28.3,7.8,28,7.9L24.4,10c-0.8-0.6-1.7-0.9-2.6-1.3V4.6C21.7,4.2,21.4,4,21,4h-6.1c-0.2,0-0.4,0.1-0.5,0.2s-0.2,0.2-0.2,0.4
		v4.3c-0.8,0.4-1.6,0.7-2.3,1.3L8.2,7.9c-0.4-0.1-0.7,0-0.8,0.4l-3.1,5.2c-0.1,0.2-0.1,0.4-0.1,0.6c0,0.1,0.1,0.3,0.2,0.4l3.8,2.2
		c-0.1,0.5-0.1,0.9-0.1,1.4s0,0.8,0.1,1.3l-3.7,2.2c-0.3,0.1-0.3,0.5-0.1,0.7l3.1,5.3c0.1,0.2,0.3,0.3,0.4,0.4s0.3,0.1,0.4,0
		l3.7-2.1c0.7,0.6,1.6,0.9,2.4,1.2v4.3c0.1,0.4,0.4,0.6,0.6,0.6h6c0.4,0,0.6-0.2,0.6-0.6V27c0.9-0.3,1.8-0.7,2.6-1.2l3.6,2.1
		c0.3,0.1,0.6,0,0.8-0.3l3.1-5.2c0.2-0.3,0.2-0.6-0.1-0.8L28.1,19.3z M18,23.2c-3,0-5.4-2.4-5.4-5.4s2.4-5.4,5.4-5.4
		s5.4,2.4,5.4,5.4l0,0C23.3,20.8,20.9,23.2,18,23.2z"/>
</g>
</svg>
