<?xml version="1.0" encoding="utf-8"?>
<!-- Generator: Adobe Illustrator 25.2.1, SVG Export Plug-In . SVG Version: 6.00 Build 0)  -->
<svg version="1.1" id="Layer_1" xmlns="http://www.w3.org/2000/svg" xmlns:xlink="http://www.w3.org/1999/xlink" x="0px" y="0px"
	 viewBox="0 0 36 36" style="enable-background:new 0 0 36 36;" xml:space="preserve">
<style type="text/css">
	.st0{fill:#FFFFFF;}
	.st1{fill:#FF9C9C;}
</style>
<path class="st0" d="M32.8,36H3.2C1.4,36,0,34.6,0,32.8V3.2C0,1.4,1.4,0,3.2,0h29.6C34.6,0,36,1.4,36,3.2v29.6
	C36,34.6,34.6,36,32.8,36z"/>
<g id="työpaikkailmoitukset_2">
	<path class="st1" d="M15,23.2L15,23.2z"/>
	<path class="st1" d="M26.7,27.5l0.2-0.1c0.2-0.2,0.5-0.5,0.7-0.7c4.8-5.3,4.4-13.5-0.9-18.3c-1.4-1.3-3.1-2.3-4.9-2.7
		c-1.2-0.4-2.6-0.6-3.9-0.6C10.6,5.2,5,11,5.1,18.2c0.1,5.7,3.8,10.6,9.3,12.2c1.2,0.4,2.6,0.6,3.9,0.6c2.1,0,4.2-0.6,6-1.5l0.4-0.3
		l0.1,0.1l2.7,3c0.3,0.3,0.7,0.5,1,0.5c0.4,0,0.7-0.1,0.9-0.4c0.6-0.5,0.7-1.4,0.1-2L26.7,27.5z M18.1,9.7c2.5,0,4.7,1.5,5.7,3.8
		c0.3,0.8,0.5,1.5,0.5,2.4c0,3.4-2.7,6.2-6.2,6.2S12,19.3,12,15.9S14.7,9.7,18.1,9.7z M23.1,27.9c-1.6,0.9-3.3,1.2-5,1.2H18
		c-1,0-2.2-0.2-3.2-0.5c-1.6-0.5-3.1-1.3-4.4-2.6c1-1.2,2.7-2,4.3-2.1h6.9c1.5,0.2,2.9,0.9,4,2.1L23.1,27.9z"/>
</g>
</svg>
