<?xml version="1.0" encoding="utf-8"?>
<!-- Generator: Adobe Illustrator 25.2.1, SVG Export Plug-In . SVG Version: 6.00 Build 0)  -->
<svg version="1.1" id="Layer_1" xmlns="http://www.w3.org/2000/svg" xmlns:xlink="http://www.w3.org/1999/xlink" x="0px" y="0px"
	 viewBox="0 0 36 36" style="enable-background:new 0 0 36 36;" xml:space="preserve">
<style type="text/css">
	.st0{fill:#FFFFFF;}
	.st1{fill:none;stroke:#397DA4;stroke-width:2;stroke-linecap:round;stroke-miterlimit:10;}
	.st2{fill:#397DA6;}
</style>
<path class="st0" d="M32.8,36H3.2C1.4,36,0,34.6,0,32.8V3.2C0,1.4,1.4,0,3.2,0h29.6C34.6,0,36,1.4,36,3.2v29.6
	C36,34.6,34.6,36,32.8,36z"/>
<path class="st1" d="M30,17.3L19.1,6.4c-0.7-0.6-1.6-0.6-2.2,0L6,17.3"/>
<path class="st2" d="M18.9,6.1c-0.1-0.1-0.3-0.2-0.4-0.2c-0.3,0-0.5,0-0.8,0c-0.2,0-0.3,0.1-0.5,0.3L6.7,15.7l0,13.2
	C6.8,30.1,7.8,31,9,31h6l0-7.5c0.1-1.2,1.1-2.2,2.3-2.1h1.2c1.2-0.1,2.3,0.9,2.3,2.1l0,7.5h6c1.2,0.1,2.3-0.9,2.3-2.1l0-13.3
	L18.9,6.1z"/>
</svg>
