<?xml version="1.0" encoding="utf-8"?>
<!-- Generator: Adobe Illustrator 25.2.1, SVG Export Plug-In . SVG Version: 6.00 Build 0)  -->
<svg version="1.1" id="Layer_1" xmlns="http://www.w3.org/2000/svg" xmlns:xlink="http://www.w3.org/1999/xlink" x="0px" y="0px"
	 viewBox="0 0 36 36" style="enable-background:new 0 0 36 36;" xml:space="preserve">
<style type="text/css">
	.st0{fill:#F7931E;}
	.st1{fill:#FFFFFF;}
</style>
<path class="st0" d="M32.8,36H3.2C1.4,36,0,34.6,0,32.8V3.2C0,1.4,1.4,0,3.2,0h29.6C34.6,0,36,1.4,36,3.2v29.6
	C36,34.6,34.6,36,32.8,36z"/>
<path class="st1" d="M32.8,36H3.2C1.4,36,0,34.6,0,32.8V3.2C0,1.4,1.4,0,3.2,0h29.6C34.6,0,36,1.4,36,3.2v29.6
	C36,34.6,34.6,36,32.8,36z"/>
<g>
	<path class="st0" d="M29.6,5.1H15.7c-1.3,0-2.3,1-2.3,2.3v0.9h6.9c2,0,3.7,1.7,3.7,3.7v11.6h0.6l5,4.6v-4.6l0,0
		c1.3,0,2.3-1,2.3-2.3V7.4C31.9,6.1,30.9,5.1,29.6,5.1z"/>
</g>
<path class="st0" d="M20.4,9.7H6.5c-1.3,0-2.3,1-2.3,2.3v13.9c0,1.3,1,2.3,2.3,2.3l0,0v4.6l5-4.6h8.9c1.3,0,2.3-1,2.3-2.3V12
	C22.7,10.7,21.7,9.7,20.4,9.7z M8.2,20.3c-0.7,0-1.4-0.6-1.4-1.4s0.6-1.4,1.4-1.4s1.4,0.6,1.4,1.4S9.1,20.3,8.2,20.3z M13.4,20.3
	c-0.7,0-1.4-0.6-1.4-1.4s0.6-1.4,1.4-1.4c0.7,0,1.4,0.6,1.4,1.4S14.2,20.3,13.4,20.3z M18.6,20.3c-0.7,0-1.4-0.6-1.4-1.4
	s0.6-1.4,1.4-1.4c0.7,0,1.4,0.6,1.4,1.4S19.3,20.3,18.6,20.3z"/>
</svg>
