<?xml version="1.0" encoding="utf-8"?>
<!-- Generator: Adobe Illustrator 25.2.1, SVG Export Plug-In . SVG Version: 6.00 Build 0)  -->
<svg version="1.1" id="Layer_1" xmlns="http://www.w3.org/2000/svg" xmlns:xlink="http://www.w3.org/1999/xlink" x="0px" y="0px"
	 viewBox="0 0 36 36" style="enable-background:new 0 0 36 36;" xml:space="preserve">
<style type="text/css">
	.st0{fill:#FFFFFF;}
	.st1{fill:#397DA5;}
	.st2{fill:#F7931E;}
</style>
<path class="st0" d="M32.8,36H3.2C1.4,36,0,34.6,0,32.8V3.2C0,1.4,1.4,0,3.2,0h29.6C34.6,0,36,1.4,36,3.2v29.6
	C36,34.6,34.6,36,32.8,36z"/>
<path class="st1" d="M16.8,13.9L16.8,13.9z"/>
<g>
	<path class="st2" d="M18,5c-2,0-3.6,1.6-3.6,3.6s1.6,3.6,3.6,3.6s3.6-1.6,3.6-3.6c0-0.5-0.1-0.9-0.3-1.4C20.8,5.9,19.4,5,18,5z"/>
	<path class="st2" d="M25.2,13.4c-0.4,0.9,0.1,2,1,2.4c0.2,0.1,0.5,0.1,0.6,0.1c0.7,0,1.4-0.5,1.6-1.1c0.4-0.9-0.1-2-1-2.4
		C26.5,12.1,25.6,12.4,25.2,13.4L25.2,13.4z"/>
	<path class="st2" d="M9.2,11.8c-1.2,0-2.1,0.9-2.1,2.1S8,16,9.2,16s2.1-0.9,2.1-2.1c0-0.3-0.1-0.5-0.2-0.8
		C10.8,12.3,10.1,11.9,9.2,11.8z"/>
	<path class="st2" d="M30.7,31H5.3c-0.5,0-0.9-0.4-0.9-0.9s0.4-0.9,0.9-0.9h25.4c0.5,0,0.9,0.4,0.9,0.9S31.2,31,30.7,31z"/>
	<path class="st2" d="M29.1,22.3c-0.3-1.5-0.6-3-1.1-4.4c-0.2-0.4-0.5-0.6-1-0.7h-0.7c-0.5,0-0.8,0.3-1,0.7c-0.5,1.4-0.8,3-1.1,4.4
		c-0.1,0.4-0.5,0.5-0.8,0.5c-0.5-0.2-0.8-0.5-1-1v-0.1l0,0c-0.1-0.5-0.1-0.9-0.2-1.4c-0.3-1.6-0.5-3.3-1-4.8
		c-0.1-0.2-0.1-0.5-0.2-0.6c-0.4-0.7-1-1.2-1.8-1.3h-2.4c-0.8,0.1-1.4,0.5-1.8,1.3c-0.1,0.3-0.2,0.5-0.3,0.7c-0.4,1.4-0.7,3-0.9,4.5
		c-0.1,0.5-0.2,1-0.3,1.4v0.1c-0.2,0.6-0.6,1-1.1,1.2c-0.4,0-0.7-0.2-0.8-0.5c-0.2-1.5-0.5-3-1-4.4c-0.2-0.4-0.6-0.6-1-0.7H8.9
		c-0.5,0-0.8,0.3-1,0.7c-0.5,1.4-0.8,3-1.1,4.4c-0.4,1.9-0.7,3.7-1.4,5.5l0,0l0,0h25C29.9,26,29.4,24.2,29.1,22.3z"/>
</g>
</svg>
