<?xml version="1.0" encoding="utf-8"?>
<!-- Generator: Adobe Illustrator 25.2.1, SVG Export Plug-In . SVG Version: 6.00 Build 0)  -->
<svg version="1.1" id="Layer_1" xmlns="http://www.w3.org/2000/svg" xmlns:xlink="http://www.w3.org/1999/xlink" x="0px" y="0px"
	 viewBox="0 0 36 36" style="enable-background:new 0 0 36 36;" xml:space="preserve">
<style type="text/css">
	.st0{fill:#FFFFFF;}
	.st1{fill:#F7931E;}
	.st2{fill:none;}
</style>
<path class="st0" d="M32.8,36H3.2C1.4,36,0,34.6,0,32.8V3.2C0,1.4,1.4,0,3.2,0h29.6C34.6,0,36,1.4,36,3.2v29.6
	C36,34.6,34.6,36,32.8,36z"/>
<path class="st1" d="M28.6,9.4h-2.2V8.1c0-1.6-1.4-3-3-3h-11c-1.6,0.1-3,1.5-3,3v1.3H7.2C6,9.4,5,10.3,5,11.5v3v14.3
	C5,30,6,31,7.2,31h2.2h17.2h2.2c1.2,0,2.2-1,2.2-2.2V14.5v-3C30.9,10.3,29.8,9.4,28.6,9.4z M11.1,8.1c0-0.7,0.6-1.3,1.3-1.3h11.1
	c0.7,0,1.3,0.6,1.3,1.3v1.3H23H12.7h-1.6C11.1,9.4,11.1,8.1,11.1,8.1z M15.5,23.1h5c1.6,0.1,3.2,1.1,3.9,2.7
	c0.1,0.3,0.2,0.4,0.2,0.6H11.4c0.1-0.2,0.1-0.3,0.2-0.6C12.4,24.3,13.8,23.3,15.5,23.1z M13.6,17.1c0-2.4,2-4.5,4.5-4.5
	c1.8,0.1,3.4,1.1,4,2.8c0.2,0.5,0.3,1.1,0.3,1.7c0,2.4-2.1,4.5-4.5,4.5S13.6,19.6,13.6,17.1z M25.5,28.7h-15c-0.5,0-0.9-0.3-0.9-0.9
	c0-0.5,0.3-0.9,0.9-0.9h15.1c0.5,0,0.9,0.3,0.9,0.9C26.4,28.4,26,28.7,25.5,28.7z"/>
<line class="st2" x1="-14.2" y1="60.6" x2="-14.2" y2="60.6"/>
</svg>
