<?xml version="1.0" encoding="utf-8"?>
<!-- Generator: Adobe Illustrator 25.2.1, SVG Export Plug-In . SVG Version: 6.00 Build 0)  -->
<svg version="1.1" id="Layer_1" xmlns="http://www.w3.org/2000/svg" xmlns:xlink="http://www.w3.org/1999/xlink" x="0px" y="0px"
	 viewBox="0 0 36 36" style="enable-background:new 0 0 36 36;" xml:space="preserve">
<style type="text/css">
	.st0{fill:#FFFFFF;}
	.st1{fill:#738189;}
</style>
<path class="st0" d="M32.8,36H3.2C1.4,36,0,34.6,0,32.8V3.2C0,1.4,1.4,0,3.2,0h29.6C34.6,0,36,1.4,36,3.2v29.6
	C36,34.6,34.6,36,32.8,36z"/>
<path class="st1" d="M28.6,5H7.4C6.1,5,5,6.1,5,7.4v20.2C5,29,6,30,7.4,30h2l0.1,3l5.1-3h14c1.3,0,2.4-1.1,2.4-2.4V7.4
	C31,6.1,29.9,5,28.6,5z M17.9,25.6c-0.7,0-1.4-0.6-1.4-1.4c0-0.7,0.6-1.4,1.4-1.4c0.7,0,1.4,0.6,1.4,1.4
	C19.3,24.9,18.7,25.6,17.9,25.6z M19.5,10.4l-0.7,9.3c0,0.4-0.3,0.7-0.9,0.7S17.2,20,17,19.7l-0.7-9.3C16.2,9.7,16.9,9,17.8,9
	C18.7,8.9,19.4,9.6,19.5,10.4L19.5,10.4z"/>
</svg>
