<?xml version="1.0" encoding="utf-8"?>
<!-- Generator: Adobe Illustrator 25.2.1, SVG Export Plug-In . SVG Version: 6.00 Build 0)  -->
<svg version="1.1" id="Layer_1" xmlns="http://www.w3.org/2000/svg" xmlns:xlink="http://www.w3.org/1999/xlink" x="0px" y="0px"
	 viewBox="0 0 36 36" style="enable-background:new 0 0 36 36;" xml:space="preserve">
<style type="text/css">
	.st0{fill:#FFFFFF;}
	.st1{fill:#397DA4;}
</style>
<path class="st0" d="M32.8,36H3.2C1.4,36,0,34.6,0,32.8V3.2C0,1.4,1.4,0,3.2,0h29.6C34.6,0,36,1.4,36,3.2v29.6
	C36,34.6,34.6,36,32.8,36z"/>
<path class="st1" d="M18,5.1c-7.1,0-12.9,5.9-12.9,13S10.9,31,18,31S31,25.2,31,18S25,5.1,18,5.1z M17.8,10.2c1,0,1.9,0.8,1.9,1.9
	s-0.8,1.9-1.9,1.9s-1.9-0.8-1.9-1.9S16.8,10.2,17.8,10.2z M19.5,27.5h-3.2c-0.8,0-1.4-0.6-1.4-1.4s0.6-1.4,1.4-1.4h0.3v-5.9h-0.2
	c-0.8,0-1.4-0.6-1.4-1.4s0.6-1.4,1.4-1.4h3v8.7c0.8,0,1.4,0.6,1.4,1.4S20.3,27.5,19.5,27.5z"/>
</svg>
