<?xml version="1.0" encoding="utf-8"?>
<!-- Generator: Adobe Illustrator 25.2.1, SVG Export Plug-In . SVG Version: 6.00 Build 0)  -->
<svg version="1.1" id="Layer_1" xmlns="http://www.w3.org/2000/svg" xmlns:xlink="http://www.w3.org/1999/xlink" x="0px" y="0px"
	 viewBox="0 0 36 36" style="enable-background:new 0 0 36 36;" xml:space="preserve">
<style type="text/css">
	.st0{fill:#FFFFFF;}
	.st1{fill:#397DA4;}
	.st2{fill:none;stroke:#397DA4;stroke-width:2;stroke-linecap:round;stroke-miterlimit:10;}
	.st3{fill:#397DA5;}
</style>
<path class="st0" d="M32.9,36H3.2c-1.8,0-3.2-1.4-3.2-3.2V3.2C0.1,1.4,1.5,0,3.2,0h29.6c1.8,0,3.2,1.4,3.2,3.2v29.6
	C36.1,34.6,34.6,36,32.9,36z"/>
<path class="st1" d="M18,5c-4.1,0-7.4,3.3-7.4,7.4s3.3,7.4,7.4,7.4s7.4-3.3,7.4-7.4c0-1-0.2-1.9-0.6-2.9C23.7,6.9,21,5.1,18,5z"/>
<line class="st2" x1="6" y1="30" x2="30" y2="30"/>
<path class="st3" d="M28.6,26.7c-1.2-2.5-3.7-4.2-6.4-4.4h-8.3c-2.8,0.2-5.2,1.9-6.4,4.4c-0.2,0.3-0.3,0.7-0.4,1h22
	C28.9,27.4,28.8,27,28.6,26.7z"/>
</svg>
