<?xml version="1.0" encoding="utf-8"?>
<!-- Generator: Adobe Illustrator 25.2.1, SVG Export Plug-In . SVG Version: 6.00 Build 0)  -->
<svg version="1.1" id="Layer_1" xmlns="http://www.w3.org/2000/svg" xmlns:xlink="http://www.w3.org/1999/xlink" x="0px" y="0px"
	 viewBox="0 0 36 36" style="enable-background:new 0 0 36 36;" xml:space="preserve">
<style type="text/css">
	.st0{fill:#FFFFFF;}
	.st1{fill:#397DA6;}
</style>
<path class="st0" d="M32.8,36H3.2C1.4,36,0,34.6,0,32.8V3.2C0,1.4,1.4,0,3.2,0h29.6C34.6,0,36,1.4,36,3.2v29.6
	C36,34.6,34.6,36,32.8,36z"/>
<g>
	<path class="st1" d="M16.2,20.7c0.4-0.1,0.9-0.2,1.4-0.2v-2.8h-2.3C15.3,18.7,15.6,19.7,16.2,20.7z"/>
	<path class="st1" d="M15.2,16.7h2.3v-2.8c-0.5,0-0.9-0.1-1.4-0.2C15.7,14.5,15.3,15.5,15.2,16.7z"/>
	<path class="st1" d="M21.5,11.9c-0.7-0.5-1.6-0.8-2.5-1c0.4,0.4,0.8,0.9,1.3,1.6C20.8,12.3,21.1,12.1,21.5,11.9z"/>
	<path class="st1" d="M17.5,22.6v-1.2c-0.3,0-0.6,0.1-0.8,0.1C16.9,21.9,17.2,22.2,17.5,22.6z"/>
	<path class="st1" d="M17.5,12.9v-1.2c-0.3,0.3-0.6,0.7-0.9,1.1C16.9,12.8,17.2,12.9,17.5,12.9z"/>
	<path class="st1" d="M14.5,22.5c0.7,0.5,1.6,0.8,2.5,1c-0.5-0.5-0.9-1.1-1.3-1.6C15.3,22,14.9,22.2,14.5,22.5z"/>
	<path class="st1" d="M15.2,13.3c-0.5-0.2-1-0.5-1.5-0.8c-1.2,1.1-1.9,2.6-2.1,4.2h2.6C14.3,15.4,14.7,14.3,15.2,13.3z"/>
	<path class="st1" d="M14.2,17.6h-2.6c0.1,1.7,0.9,3.2,2.1,4.2c0.5-0.4,1-0.7,1.5-0.9C14.7,19.9,14.3,18.8,14.2,17.6z"/>
	<path class="st1" d="M16.9,10.9c-0.9,0.1-1.7,0.5-2.4,0.9c0.4,0.3,0.8,0.5,1.2,0.6C16.1,11.8,16.6,11.3,16.9,10.9z"/>
	<path class="st1" d="M20.8,21c0.5,0.2,1.1,0.5,1.5,0.9c1.1-1.1,1.9-2.5,2-4.2h-2.6C21.7,18.8,21.4,19.9,20.8,21z"/>
	<path class="st1" d="M20.8,13.3c0.5,0.9,0.9,2.1,1,3.4h2.6c-0.1-1.7-0.9-3.1-2-4.2C21.8,12.8,21.3,13.1,20.8,13.3z"/>
	<path class="st1" d="M18.5,11.7v1.2c0.3,0,0.6-0.1,0.9-0.1C19.1,12.3,18.8,12,18.5,11.7z"/>
	<path class="st1" d="M19,23.4c0.9-0.1,1.8-0.5,2.6-1c-0.4-0.3-0.8-0.5-1.3-0.7C19.9,22.3,19.5,22.9,19,23.4z"/>
	<path class="st1" d="M18.5,21.4v1.2c0.3-0.4,0.6-0.7,0.8-1.1C19.1,21.4,18.8,21.4,18.5,21.4z"/>
	<path class="st1" d="M19.9,13.6c-0.5,0.1-0.9,0.2-1.4,0.2v2.8h2.3C20.7,15.5,20.4,14.5,19.9,13.6z"/>
	<path class="st1" d="M20.8,17.6h-2.3v2.8c0.5,0,0.9,0.1,1.4,0.2C20.4,19.7,20.7,18.6,20.8,17.6z"/>
	<path class="st1" d="M28.6,5H7.4C6.1,5,5,6.1,5,7.4l0,20.2C5,29,6,30,7.4,30h2l0.1,3l5.1-3h14c1.3,0,2.4-1.1,2.4-2.4l0-20.2
		C31,6.1,29.9,5,28.6,5z M18,24.5c-4,0-7.3-3.3-7.3-7.3S14,9.8,18,9.8s7.3,3.3,7.3,7.3S22,24.5,18,24.5z"/>
</g>
</svg>
