<?xml version="1.0" encoding="utf-8"?>
<!-- Generator: Adobe Illustrator 25.2.1, SVG Export Plug-In . SVG Version: 6.00 Build 0)  -->
<svg version="1.1" id="Layer_1" xmlns="http://www.w3.org/2000/svg" xmlns:xlink="http://www.w3.org/1999/xlink" x="0px" y="0px"
	 viewBox="0 0 36 36" style="enable-background:new 0 0 36 36;" xml:space="preserve">
<style type="text/css">
	.st0{fill:#FFFFFF;}
	.st1{fill:#995987;}
</style>
<path class="st0" d="M32.8,36H3.2C1.4,36,0,34.6,0,32.8V3.2C0,1.4,1.4,0,3.2,0h29.6C34.6,0,36,1.4,36,3.2v29.6
	C36,34.6,34.6,36,32.8,36z"/>
<g id="koulut_2">
	<path class="st1" d="M28.1,15.6h-6.3v-4l1,1c0.5,0.4,1.3,0.3,1.7-0.3c0.3-0.4,0.3-1,0-1.5L19,5.3C18.7,5.1,18.5,5,18.1,5
		s-0.6,0.2-0.9,0.3l-5.4,5.5c-0.5,0.5-0.5,1.3,0,1.7c0.2,0.3,0.5,0.3,0.9,0.3c0.3,0,0.6-0.1,0.9-0.3l1-1v4H8.1c-1,0-1.9,0.9-1.9,1.9
		L6.1,26v2H30v-1.9l0.1-8.6C30,16.5,29.2,15.6,28.1,15.6z M8,17.9c0-0.1,0.1-0.2,0.2-0.2h1.3c0.1,0,0.2,0.1,0.2,0.2v1.3
		c0,0.1-0.1,0.2-0.2,0.2H8.2c-0.1,0-0.2-0.1-0.2-0.2C8,19.2,8,17.9,8,17.9z M9.8,26.2c0,0.1-0.1,0.2-0.2,0.2H8.2
		c-0.1,0-0.2-0.1-0.2-0.2v-1.3c0-0.1,0.1-0.2,0.2-0.2h1.3c0.1,0,0.2,0.1,0.2,0.2L9.8,26.2L9.8,26.2z M9.8,22.7
		c0,0.1-0.1,0.2-0.2,0.2H8.2c-0.1,0-0.2-0.1-0.2-0.2v-1.3c0-0.1,0.1-0.2,0.2-0.2h1.4c0.1,0,0.2,0.1,0.2,0.2L9.8,22.7z M12.7,26.2
		c0,0.1-0.1,0.2-0.2,0.2h-1.4c-0.1,0-0.2-0.1-0.2-0.2v-1.3c0-0.1,0.1-0.2,0.2-0.2h1.3c0.1,0,0.2,0.1,0.2,0.2L12.7,26.2z M12.7,22.7
		c0,0.1-0.1,0.2-0.2,0.2h-1.4c-0.1,0-0.2-0.1-0.2-0.2v-1.3c0-0.1,0.1-0.2,0.2-0.2h1.3c0.1,0,0.2,0.1,0.2,0.2L12.7,22.7z M12.7,19.2
		c0,0.1-0.1,0.2-0.2,0.2h-1.4c-0.1,0-0.2-0.1-0.2-0.2v-1.3c0-0.1,0.1-0.2,0.2-0.2h1.3c0.1,0,0.2,0.1,0.2,0.2L12.7,19.2z M18.1,12.5
		c0.7,0,1.3,0.6,1.3,1.3s-0.6,1.3-1.3,1.3c-0.7,0-1.3-0.6-1.3-1.3S17.4,12.5,18.1,12.5z M20,25.6c0,0.2-0.1,0.3-0.3,0.3h-3.4
		c-0.2,0-0.3-0.1-0.3-0.3v-5.3c0-0.2,0.1-0.3,0.3-0.3h3.4c0.2,0,0.3,0.1,0.3,0.3V25.6z M25.2,26.2c0,0.1-0.1,0.2-0.2,0.2h-1.3
		c-0.1,0-0.2-0.1-0.2-0.2v-1.3c0-0.1,0.1-0.2,0.2-0.2H25c0.1,0,0.2,0.1,0.2,0.2V26.2z M25.2,22.7c0,0.1-0.1,0.2-0.2,0.2h-1.3
		c-0.1,0-0.2-0.1-0.2-0.2v-1.4c0-0.1,0.1-0.2,0.2-0.2H25c0.1,0,0.2,0.1,0.2,0.2V22.7z M25.2,19.2c0,0.1-0.1,0.2-0.2,0.2h-1.3
		c-0.1,0-0.2-0.1-0.2-0.2v-1.3c0-0.1,0.1-0.2,0.2-0.2H25c0.1,0,0.2,0.1,0.2,0.2V19.2z M28.2,26.2c0,0.1-0.1,0.2-0.2,0.2h-1.3
		c-0.1,0-0.2-0.1-0.2-0.2v-1.3c0-0.1,0.1-0.2,0.2-0.2H28c0.1,0,0.2,0.1,0.2,0.2V26.2z M28.2,22.7c0,0.1-0.1,0.2-0.2,0.2h-1.3
		c-0.1,0-0.2-0.1-0.2-0.2v-1.3c0-0.1,0.1-0.2,0.2-0.2H28c0.1,0,0.2,0.1,0.2,0.2V22.7z M28.2,19.2c0,0.1-0.1,0.2-0.2,0.2h-1.3
		c-0.1,0-0.2-0.1-0.2-0.2v-1.3c0-0.1,0.1-0.2,0.2-0.2H28c0.1,0,0.2,0.1,0.2,0.2V19.2z"/>
	<path class="st1" d="M30.2,31.1H5.9c-0.5,0-0.9-0.3-0.9-0.9s0.3-0.9,0.9-0.9h24.3c0.5,0,0.9,0.3,0.9,0.9S30.7,31.1,30.2,31.1z"/>
</g>
</svg>
