<?xml version="1.0" encoding="utf-8"?>
<!-- Generator: Adobe Illustrator 25.2.1, SVG Export Plug-In . SVG Version: 6.00 Build 0)  -->
<svg version="1.1" id="Layer_1" xmlns="http://www.w3.org/2000/svg" xmlns:xlink="http://www.w3.org/1999/xlink" x="0px" y="0px"
	 viewBox="0 0 36 36" style="enable-background:new 0 0 36 36;" xml:space="preserve">
<style type="text/css">
	.st0{fill:#FFFFFF;}
	.st1{fill:#7ACCCE;}
	.st2{fill:none;}
</style>
<path class="st0" d="M32.8,36H3.2C1.4,36,0,34.6,0,32.8V3.2C0,1.4,1.4,0,3.2,0h29.6C34.6,0,36,1.4,36,3.2v29.6
	C36,34.6,34.6,36,32.8,36z"/>
<path class="st1" d="M27.6,5H8.4C7.1,5,6,6.1,6,7.4v21.2C6,30,7,31,8.4,31h19.1c1.3,0,2.4-1.1,2.4-2.4L30,7.4C30,6.1,28.9,5,27.6,5z
	 M12.7,8.3h14c0.4,0,0.7,0.4,0.7,0.8c0,0.4-0.3,0.8-0.8,0.8H12.7c-0.4,0-0.8-0.3-0.8-0.8C12,8.6,12.3,8.3,12.7,8.3z M12.7,12.7h14
	c0.4,0,0.8,0.3,0.8,0.8s-0.3,0.8-0.8,0.8h-14c-0.4,0-0.8-0.3-0.8-0.8S12.3,12.7,12.7,12.7z M12.7,17.1h14c0.4,0,0.8,0.3,0.8,0.8
	s-0.3,0.8-0.8,0.8h-14c-0.4,0-0.8-0.3-0.8-0.8C12,17.4,12.3,17.1,12.7,17.1z M8.4,8.4h1.7v1.7H8.4V8.4z M8.4,12.6h1.7v1.7H8.4V12.6z
	 M8.4,17h1.7v1.7H8.4V17z M8.4,23.2v-1.8h1.8v1.8H8.4z M10.2,27.5H8.4v-1.8h1.8V27.5z M12.7,21.5h14c0.4,0,0.8,0.3,0.8,0.8
	s-0.3,0.8-0.8,0.8h-14c-0.4,0-0.8-0.3-0.8-0.8C12,21.8,12.3,21.5,12.7,21.5z M26.8,27.4h-14c-0.4,0-0.8-0.3-0.8-0.8s0.3-0.8,0.8-0.8
	h14c0.4,0,0.8,0.3,0.8,0.8S27.2,27.4,26.8,27.4z"/>
<line class="st2" x1="31.8" y1="31.8" x2="31.8" y2="31.8"/>
</svg>
