<?xml version="1.0" encoding="utf-8"?>
<!-- Generator: Adobe Illustrator 25.2.1, SVG Export Plug-In . SVG Version: 6.00 Build 0)  -->
<svg version="1.1" id="Layer_1" xmlns="http://www.w3.org/2000/svg" xmlns:xlink="http://www.w3.org/1999/xlink" x="0px" y="0px"
	 viewBox="0 0 36 36" style="enable-background:new 0 0 36 36;" xml:space="preserve">
<style type="text/css">
	.st0{fill:#FFFFFF;}
	.st1{fill:#7ACCCE;}
</style>
<path class="st0" d="M32.8,36H3.2C1.4,36,0,34.6,0,32.8V3.2C0,1.4,1.4,0,3.2,0h29.6C34.6,0,36,1.4,36,3.2v29.6
	C36,34.6,34.6,36,32.8,36z"/>
<g id="muistio_2">
	<path class="st1" d="M29.9,14.8h-6.8c-1.9,0-3.5-1.6-3.5-3.5V5.1L8.1,5C6.9,5,6,5.9,6,7.2v21.6C6,30,7,31,8.2,31h19.7
		c1.2,0,2.2-1,2.2-2.2L29.9,14.8L29.9,14.8z M8.8,9.3L8.8,9.3l8.3,0.1c0.3,0,0.6,0.3,0.6,0.7c0,0.3-0.3,0.6-0.7,0.6l0,0l-8.3-0.1
		c-0.3,0-0.6-0.3-0.6-0.6S8.4,9.3,8.8,9.3z M8.8,13.3L8.8,13.3l8.3,0.1c0.3,0,0.6,0.3,0.6,0.7c0,0.3-0.3,0.6-0.7,0.6l0,0l-8.3-0.1
		c-0.3,0-0.6-0.3-0.6-0.7C8.1,13.6,8.4,13.3,8.8,13.3z M27.2,26.7L8.8,26.6c-0.4,0-0.7-0.3-0.7-0.7c0-0.3,0.3-0.7,0.7-0.7l18.4,0.1
		c0.3,0,0.7,0.3,0.7,0.7S27.5,26.7,27.2,26.7z M27.2,22.7L8.8,22.6c-0.4,0-0.7-0.3-0.7-0.7s0.3-0.7,0.7-0.7l18.4,0.1
		c0.3,0,0.7,0.3,0.7,0.7S27.5,22.7,27.2,22.7z M27.2,18.7L8.8,18.6c-0.4,0-0.7-0.3-0.7-0.6c0-0.3,0.3-0.7,0.7-0.7l18.4,0.1
		c0.3,0,0.7,0.3,0.7,0.7S27.5,18.7,27.2,18.7z"/>
	<path class="st1" d="M20.9,5.1l9,8.4h-6.8c-1.2,0-2.2-1-2.2-2.2L20.9,5.1"/>
</g>
</svg>
