<?xml version="1.0" encoding="utf-8"?>
<!-- Generator: Adobe Illustrator 25.2.1, SVG Export Plug-In . SVG Version: 6.00 Build 0)  -->
<svg version="1.1" id="Layer_1" xmlns="http://www.w3.org/2000/svg" xmlns:xlink="http://www.w3.org/1999/xlink" x="0px" y="0px"
	 viewBox="0 0 36 36" style="enable-background:new 0 0 36 36;" xml:space="preserve">
<style type="text/css">
	.st0{fill:#FFFFFF;}
	.st1{fill:#B0C14F;}
</style>
<path class="st0" d="M32.8,36H3.2C1.4,36,0,34.6,0,32.8V3.2C0,1.4,1.4,0,3.2,0h29.6C34.6,0,36,1.4,36,3.2v29.6
	C36,34.6,34.6,36,32.8,36z"/>
<path class="st1" d="M32,5.7l-1.9-1.9c-0.6-0.6-1.4-0.9-2.2-0.9c-0.8,0-1.5,0.4-2,0.9l-0.9,1L25.2,5L14.3,16.4L12.9,15l-1,9l9.3-0.8
	l-1.5-1.4l10.8-11.3L31,11l1-1.1C33.1,8.7,33.1,6.9,32,5.7z M15.4,17.3L25.8,6.4c0.3-0.3,0.8-0.3,1.1,0c0.3,0.3,0.3,0.8,0,1.1
	L16.5,18.3c-0.1,0.2-0.3,0.2-0.5,0.2c-0.2,0-0.4-0.1-0.5-0.2C15.2,18.1,15.2,17.6,15.4,17.3z M13.5,22.4l0.5-4.3l4,3.9L13.5,22.4z
	 M29.5,9.6L19.1,20.5c-0.1,0.2-0.3,0.2-0.5,0.2s-0.4-0.1-0.5-0.2c-0.3-0.3-0.3-0.8,0-1.1L28.4,8.6c0.3-0.3,0.8-0.3,1.1,0
	C29.7,8.9,29.8,9.3,29.5,9.6z M31,8.9l-4.1-4.1c0.6-0.6,1.6-0.6,2.2,0L31,6.7C31.6,7.3,31.6,8.3,31,8.9z"/>
<path class="st1" d="M26.9,16.6v10.5H9V9h10.8l3.8-4h-16C6.1,5,5,6.1,5,7.5v21C5,29.9,6.1,31,7.5,31l0,0h20.9c1.4,0,2.5-1.1,2.5-2.5
	V12.4L26.9,16.6z"/>
</svg>
