<?xml version="1.0" encoding="utf-8"?>
<!-- Generator: Adobe Illustrator 25.2.1, SVG Export Plug-In . SVG Version: 6.00 Build 0)  -->
<svg version="1.1" id="Layer_1" xmlns="http://www.w3.org/2000/svg" xmlns:xlink="http://www.w3.org/1999/xlink" x="0px" y="0px"
	 viewBox="0 0 36 36" style="enable-background:new 0 0 36 36;" xml:space="preserve">
<style type="text/css">
	.st0{fill:#FFFFFF;}
	.st1{fill:#D34040;}
</style>
<path class="st0" d="M32.8,36H3.2C1.4,36,0,34.6,0,32.8V3.2C0,1.4,1.4,0,3.2,0h29.6C34.6,0,36,1.4,36,3.2v29.6
	C36,34.6,34.6,36,32.8,36z"/>
<g>
	<path class="st1" d="M8,30.5c0,1.4,1.1,2.5,2.5,2.5l14.9,0.1c1.4,0,2.5-1.2,2.5-2.5V13.5H8V30.5z M23.2,16.4c0-0.4,0.3-0.7,0.8-0.7
		c0.4,0,0.7,0.3,0.7,0.8V30c0,0.4-0.3,0.7-0.8,0.7c-0.4,0-0.7-0.3-0.7-0.8V16.4z M19.2,16.4c0-0.4,0.3-0.7,0.8-0.7
		c0.4,0,0.7,0.3,0.7,0.8V30c0,0.4-0.3,0.7-0.8,0.7c-0.4,0-0.7-0.3-0.7-0.8V16.4z M15.3,16.4c0-0.4,0.3-0.7,0.8-0.7
		c0.4,0,0.8,0.3,0.7,0.8V30c0,0.4-0.3,0.7-0.8,0.7c-0.4,0-0.8-0.3-0.7-0.8C15.3,29.9,15.3,16.4,15.3,16.4z M11.4,16.4
		c0-0.4,0.3-0.7,0.8-0.7c0.4,0,0.8,0.3,0.7,0.8V30c0,0.4-0.3,0.7-0.8,0.7c-0.4,0-0.8-0.3-0.7-0.8V16.4z"/>
	<path class="st1" d="M28.5,7.4l-6.2,0c0-0.1,0-0.2,0-0.2V5.5c0-1.4-1.1-2.5-2.5-2.5h-3.7c-1.4,0-2.5,1.1-2.5,2.5v1.7
		c0,0.1,0,0.2,0,0.2l-6.1,0C6.7,7.4,6,8.1,6,8.9V11c0,0.8,0.7,1.5,1.5,1.5l21,0c0.8,0,1.5-0.6,1.5-1.5V8.9C30,8.1,29.3,7.4,28.5,7.4
		z M15.7,5.5c0-0.3,0.2-0.5,0.5-0.5h3.7c0.3,0,0.5,0.2,0.5,0.5v1.6c0,0.1,0,0.2-0.1,0.2h-4.5c-0.1,0-0.1-0.1-0.1-0.2
		C15.7,7.1,15.7,5.5,15.7,5.5z"/>
</g>
</svg>
