<?xml version="1.0" encoding="utf-8"?>
<!-- Generator: Adobe Illustrator 25.2.1, SVG Export Plug-In . SVG Version: 6.00 Build 0)  -->
<svg version="1.1" id="Layer_1" xmlns="http://www.w3.org/2000/svg" xmlns:xlink="http://www.w3.org/1999/xlink" x="0px" y="0px"
	 viewBox="0 0 36 36" style="enable-background:new 0 0 36 36;" xml:space="preserve">
<style type="text/css">
	.st0{fill:#FFFFFF;}
	.st1{fill:#7ACCCE;}
</style>
<path class="st0" d="M31.8,36H4.2C1.9,36,0,34.1,0,31.8V4.2C0,1.9,1.9,0,4.2,0h27.5C34.1,0,36,1.9,36,4.2v27.5
	C36,34.1,34.1,36,31.8,36z"/>
<path class="st1" d="M26.7,5H9.4C8.2,5,7.2,6,7.2,7.2v21.6c0,1.2,1,2.2,2.2,2.2h17.3c1.2,0,2.2-1,2.2-2.2V7.1
	C28.9,5.9,27.9,5,26.7,5z M20.7,9.9c0-0.1,0.1-0.2,0.2-0.2h1.7c0.1,0,0.2,0.1,0.2,0.2v13.9c0,0.1-0.1,0.2-0.2,0.2h-1.7
	c-0.1,0-0.3-0.1-0.2-0.3V9.9z M16.4,12.7c0-0.1,0.1-0.2,0.2-0.2h1.7c0.1,0,0.2,0.1,0.2,0.2v11c0,0.1-0.1,0.2-0.2,0.2h-1.7
	c-0.1,0-0.2-0.1-0.2-0.2V12.7z M12.1,15.2c0-0.1,0.1-0.2,0.2-0.2H14c0.1,0,0.2,0.1,0.2,0.2v8.5c0,0.1-0.1,0.2-0.2,0.2h-1.7
	c-0.1,0-0.2-0.1-0.2-0.2V15.2z M26.1,26.5l-16,0.1l0,0c-0.4,0-0.7-0.3-0.7-0.7c0-0.3,0.3-0.7,0.6-0.7h16l0,0c0.3,0,0.6,0.3,0.7,0.6
	S26.4,26.5,26.1,26.5z"/>
</svg>
