<?xml version="1.0" encoding="utf-8"?>
<!-- Generator: Adobe Illustrator 25.2.1, SVG Export Plug-In . SVG Version: 6.00 Build 0)  -->
<svg version="1.1" id="Layer_1" xmlns="http://www.w3.org/2000/svg" xmlns:xlink="http://www.w3.org/1999/xlink" x="0px" y="0px"
	 viewBox="0 0 36 36" style="enable-background:new 0 0 36 36;" xml:space="preserve">
<style type="text/css">
	.st0{fill:#FFFFFF;}
	.st1{fill:#3B7DA6;}
</style>
<path class="st0" d="M32.8,36H3.2C1.4,36,0,34.6,0,32.8V3.2C0,1.4,1.4,0,3.2,0h29.6C34.6,0,36,1.4,36,3.2v29.6
	C36,34.6,34.6,36,32.8,36z"/>
<path class="st1" d="M28.3,9.6l-3.9,0V6.2C24.4,4.4,23,3,21.2,3H15c-1.8,0-3.2,1.4-3.2,3.2v3.3l-4.1,0C6.2,9.5,5,10.8,5,12.3l0,16
	C5,29.7,6.2,31,7.7,31l20.5,0c1.5,0,2.7-1.2,2.7-2.7l0-16C31,10.8,29.8,9.6,28.3,9.6z M13.6,6.2c0-0.8,0.6-1.4,1.4-1.4h6.2
	c0.8,0,1.4,0.6,1.4,1.4v3.3h-9V6.2z M19,20.4v3.8c0,0.6-0.5,1.1-1.1,1.1c-0.6,0-1.1-0.5-1.1-1.1v-3.8c-0.9-0.4-1.5-1.3-1.5-2.3
	c0-1.4,1.1-2.5,2.6-2.5c1,0,2,0.6,2.3,1.6c0.1,0.3,0.2,0.6,0.2,1C20.5,19.1,19.9,20,19,20.4z"/>
</svg>
