<?xml version="1.0" encoding="utf-8"?>
<!-- Generator: Adobe Illustrator 25.2.1, SVG Export Plug-In . SVG Version: 6.00 Build 0)  -->
<svg version="1.1" id="Layer_1" xmlns="http://www.w3.org/2000/svg" xmlns:xlink="http://www.w3.org/1999/xlink" x="0px" y="0px"
	 viewBox="0 0 36 36" style="enable-background:new 0 0 36 36;" xml:space="preserve">
<style type="text/css">
	.st0{fill:#FFFFFF;}
	.st1{fill:#738189;}
</style>
<path class="st0" d="M31.8,36H4.2C1.9,36,0,34.1,0,31.8V4.2C0,1.9,1.9,0,4.2,0h27.5C34.1,0,36,1.9,36,4.2v27.5
	C36,34.1,34.1,36,31.8,36z"/>
<path class="st1" d="M18,4.1c-7.6,0-13.8,6.2-13.8,13.8S10.4,31.7,18,31.7s13.8-6.2,13.8-13.8S25.6,4.1,18,4.1z M26.8,18.7
	c-0.2,0.3-0.6,0.5-1,0.5h-8.2v4.7c0,0.2-0.1,0.4-0.3,0.4c-0.1,0-0.1,0.1-0.2,0.1s-0.2,0-0.3-0.1l-7.6-5.9C9.1,18.3,9,18.2,9,18
	s0.1-0.3,0.2-0.4l7.6-5.9c0.2-0.1,0.4-0.1,0.5-0.1c0.2,0.1,0.3,0.3,0.3,0.4v4.7h8.3c0.4,0,0.7,0.2,1,0.6
	C27,17.8,27.1,18.3,26.8,18.7z"/>
</svg>
