<?xml version="1.0" encoding="utf-8"?>
<!-- Generator: Adobe Illustrator 25.2.1, SVG Export Plug-In . SVG Version: 6.00 Build 0)  -->
<svg version="1.1" id="Layer_1" xmlns="http://www.w3.org/2000/svg" xmlns:xlink="http://www.w3.org/1999/xlink" x="0px" y="0px"
	 viewBox="0 0 36 36" style="enable-background:new 0 0 36 36;" xml:space="preserve">
<style type="text/css">
	.st0{fill:#FFFFFF;}
	.st1{fill:#B0C14F;}
</style>
<path class="st0" d="M31.8,36H4.2C1.9,36,0,34.1,0,31.8V4.2C0,1.9,1.9,0,4.2,0h27.5C34.1,0,36,1.9,36,4.2v27.5
	C36,34.1,34.1,36,31.8,36z"/>
<rect x="10.6" y="5" class="st1" width="11.3" height="7.1"/>
<path class="st1" d="M30.9,12.2l-6.2-7.1h-1.4v8.4H9.2V5H7.3C6,5,5,6,5,7.4v21.2C5,29.9,6,31,7.4,31h21.3c1.3,0,2.4-1,2.4-2.4
	L30.9,12.2z M25.7,26.6H10.1c-0.4,0-0.7-0.4-0.7-0.8S9.7,25,10.2,25l0,0h15.6c0.4,0,0.8,0.3,0.8,0.8S26.2,26.6,25.7,26.6z
	 M25.7,22.9H10.1c-0.4,0-0.7-0.3-0.7-0.8c0-0.4,0.3-0.8,0.8-0.8l0,0h15.6c0.4,0,0.8,0.3,0.8,0.8S26.2,22.9,25.7,22.9z M25.7,19.2
	H10.1c-0.4,0-0.8-0.3-0.7-0.8s0.3-0.7,0.8-0.7l0,0h15.6c0.4,0,0.8,0.3,0.8,0.8S26.2,19.2,25.7,19.2z"/>
</svg>
