<?xml version="1.0" encoding="utf-8"?>
<!-- Generator: Adobe Illustrator 25.2.1, SVG Export Plug-In . SVG Version: 6.00 Build 0)  -->
<svg version="1.1" id="Layer_1" xmlns="http://www.w3.org/2000/svg" xmlns:xlink="http://www.w3.org/1999/xlink" x="0px" y="0px"
	 viewBox="0 0 36 36" style="enable-background:new 0 0 36 36;" xml:space="preserve">
<style type="text/css">
	.st0{fill:#FFFFFF;}
	.st1{fill:#738189;}
</style>
<path class="st0" d="M32.8,36H3.2C1.4,36,0,34.6,0,32.8V3.2C0,1.4,1.4,0,3.2,0h29.6C34.6,0,36,1.4,36,3.2v29.6
	C36,34.6,34.6,36,32.8,36z"/>
<g>
	<path class="st1" d="M17.3,19.4l-3-7.1c-0.2-0.3-0.6-0.4-0.9-0.3l-5.6,2.4c-0.2,0.1-0.3,0.2-0.4,0.3s-0.1,0.3,0,0.4l3,7.1l0,0
		c0.2,0.3,0.6,0.3,0.9,0.2l5.6-2.4C17.2,20,17.4,19.6,17.3,19.4z"/>
	<path class="st1" d="M20.6,5.3c0,0-1.1-1-1,1.2c0,0,0.1,0.4-0.6,1.4c-1,1.4-2.3,2.6-3.8,3.5l3.5,8c0,0,3.6-1.5,6.4,0.5
		c0,0,0.5,0.3,1,0.7s1.8,0.3,0.3-1.9C25.1,16.5,20.6,5.3,20.6,5.3z"/>
	<path class="st1" d="M6.8,17c-0.1-0.2-0.2-0.3-0.3-0.3c-0.2-0.1-0.3-0.1-0.5,0L5.5,17c-0.3,0-0.4,0-0.4,0.2c-0.1,0.2-0.1,0.3,0,0.5
		l2.1,4.9c0.1,0.2,0.2,0.3,0.3,0.3c0.1,0,0.2,0.1,0.3,0.1c0.1,0,0.2,0,0.3-0.1l0.5-0.3l0,0c0.3-0.2,0.5-0.5,0.3-0.9L6.8,17z"/>
	<path class="st1" d="M26.2,10.9c-0.5-1-1.6-1.6-2.8-1.6l2.4,5.7C26.8,13.9,26.9,12.2,26.2,10.9z"/>
	<path class="st1" d="M24.8,8.3C24.9,8.3,24.9,8.3,24.8,8.3c0.3,0,0.4-0.2,0.5-0.3l0.4-2.3c0-0.3-0.1-0.4-0.3-0.5
		c-0.3,0-0.4,0.1-0.5,0.3l-0.4,2.3C24.4,8,24.6,8.2,24.8,8.3z"/>
	<path class="st1" d="M19.1,25.1L19.1,25.1L17.5,22c-0.2-0.3-0.5-0.4-0.9-0.3l0,0l-4,1.7c-0.3,0.2-0.5,0.5-0.3,0.9l0,0l1.6,3.1
		c0.1,0.2,0.2,0.3,0.3,0.3s0.2,0.1,0.3,0c0.1,0,0.2,0,0.3-0.1l4-1.7C19,25.7,19.1,25.4,19.1,25.1z"/>
	<path class="st1" d="M26.8,9.4c0.1,0,0.3,0,0.3-0.1l1.6-1.7c0.2-0.2,0.2-0.4,0-0.6s-0.4-0.2-0.6,0l-1.6,1.6c-0.2,0.2-0.2,0.4,0,0.6
		C26.5,9.4,26.7,9.4,26.8,9.4z"/>
	<path class="st1" d="M27.4,11c0.1,0.2,0.3,0.3,0.4,0.3H28l2.2-0.5c0.3-0.1,0.3-0.3,0.3-0.5S30.3,10,30,10l-2.2,0.5
		C27.5,10.6,27.4,10.8,27.4,11z"/>
	<path class="st1" d="M30.6,13.1l-2.3-0.2c-0.2,0-0.4,0.2-0.4,0.4c0,0.3,0.2,0.4,0.4,0.4l2.3,0.2l0,0c0.3,0,0.4-0.2,0.4-0.4
		S30.8,13.1,30.6,13.1z"/>
	<path class="st1" d="M27.9,15c-0.2-0.2-0.4-0.1-0.6,0.1c-0.2,0.2-0.1,0.4,0.1,0.6l1.9,1.4c0.1,0.1,0.2,0.1,0.3,0.1
		c0.2,0,0.3-0.1,0.3-0.2c0.2-0.2,0.1-0.4-0.1-0.6L27.9,15z"/>
	<path class="st1" d="M18.5,28.2l-0.1-0.3c-0.1-0.2-0.3-0.3-0.4-0.3s-0.3,0-0.4,0.1L17,28h-0.1c-0.3,0.2-0.3,0.6-0.3,0.9l0.7,1.7
		c0.1,0.3,0.3,0.4,0.6,0.4c0.1,0,0.2,0,0.3-0.1l0.5-0.3c0.3-0.2,0.4-0.5,0.3-0.9L18.5,28.2z"/>
</g>
</svg>
