<?xml version="1.0" encoding="utf-8"?>
<!-- Generator: Adobe Illustrator 25.2.1, SVG Export Plug-In . SVG Version: 6.00 Build 0)  -->
<svg version="1.1" id="Layer_1" xmlns="http://www.w3.org/2000/svg" xmlns:xlink="http://www.w3.org/1999/xlink" x="0px" y="0px"
	 viewBox="0 0 36 36" style="enable-background:new 0 0 36 36;" xml:space="preserve">
<style type="text/css">
	.st0{fill:#FFFFFF;}
	.st1{fill:#EFC204;}
</style>
<path class="st0" d="M32.8,36H3.2C1.4,36,0,34.6,0,32.8V3.2C0,1.4,1.4,0,3.2,0h29.6C34.6,0,36,1.4,36,3.2v29.6
	C36,34.6,34.6,36,32.8,36z"/>
<g>
	<path class="st1" d="M31,11.5c0-1.2-1-2.2-2.3-2.2l0,0h-2.2V8c0-1.6-1.4-3-3-3H12.3c-1.6,0-3,1.4-3,3v1.3H7.2C6,9.3,5,10.3,5,11.5
		l0,0v3v11.9c0,1.2,0.9,2.2,2.2,2.2l0,0h2.2v-7.8c0-0.3,0.3-0.7,0.7-0.7h16c0.3,0,0.7,0.3,0.7,0.7v7.8h2.2c1.2,0,2.2-0.9,2.2-2.2
		V14.5L31,11.5z M21.6,15.5c-0.7,0-1.3-0.6-1.3-1.3c0-0.7,0.6-1.3,1.3-1.3s1.3,0.6,1.3,1.3C22.9,14.9,22.3,15.5,21.6,15.5z
		 M24.9,9.3h-1.7H12.7h-1.6V8c0-0.7,0.6-1.3,1.3-1.3h11.2c0.7,0,1.3,0.6,1.3,1.3V9.3z M26.4,15.5c-0.7,0-1.3-0.6-1.3-1.3
		c0-0.7,0.6-1.3,1.3-1.3c0.7,0,1.3,0.6,1.3,1.3C27.7,14.9,27.1,15.5,26.4,15.5z"/>
	<path class="st1" d="M10.6,21.4l0,11.6h14.7l0-11.6H10.6z M23.9,31.4L23.9,31.4H12.1c-0.3,0-0.7-0.3-0.6-0.7c0-0.3,0.3-0.6,0.7-0.6
		l0,0H24c0.3,0,0.6,0.3,0.6,0.7C24.5,31.1,24.2,31.4,23.9,31.4z M23.9,28L23.9,28H12.1c-0.3,0-0.7-0.3-0.6-0.7
		c0-0.3,0.3-0.6,0.7-0.6l0,0H24c0.3,0,0.6,0.3,0.6,0.7C24.5,27.6,24.3,28,23.9,28z M23.9,24.6L23.9,24.6H12.1
		c-0.3,0-0.7-0.3-0.6-0.7c0-0.3,0.3-0.6,0.7-0.6l0,0H24c0.3,0,0.6,0.3,0.6,0.7C24.5,24.3,24.3,24.6,23.9,24.6z"/>
</g>
</svg>
