<?xml version="1.0" encoding="utf-8"?>
<!-- Generator: Adobe Illustrator 25.2.1, SVG Export Plug-In . SVG Version: 6.00 Build 0)  -->
<svg version="1.1" id="Layer_1" xmlns="http://www.w3.org/2000/svg" xmlns:xlink="http://www.w3.org/1999/xlink" x="0px" y="0px"
	 viewBox="0 0 36 36" style="enable-background:new 0 0 36 36;" xml:space="preserve">
<style type="text/css">
	.st0{fill:#FFFFFF;}
	.st1{fill:#EFC100;}
</style>
<path class="st0" d="M31.8,36H4.2C1.9,36,0,34.1,0,31.8V4.2C0,1.9,1.9,0,4.2,0h27.5C34.1,0,36,1.9,36,4.2v27.5
	C36,34.1,34.1,36,31.8,36z"/>
<path class="st1" d="M706.3,725.6l-2.4-2.3c-0.8-0.7-1.9-1.2-2.9-1.1c-1,0-1.9,0.5-2.6,1.2l-1,1.1l0.3,0.3l-16.8,17.4l-1.8-1.7
	l-1.2,11.6l12.1-1l-1.7-1.7l16.6-17.2l0.3,0.3l1.1-1.3C707.7,729.6,707.7,727.2,706.3,725.6z M683.3,744.2c-0.2,0-0.4-0.1-0.5-0.2
	c-0.3-0.3-0.3-0.8,0-1.1l15.4-16c0.3-0.3,0.8-0.3,1.1,0s0.3,0.8,0,1.1l-15.4,16C683.7,744.2,683.5,744.2,683.3,744.2z M703.1,731.2
	l-15.5,16c-0.1,0.2-0.3,0.2-0.5,0.2s-0.4-0.1-0.5-0.2c-0.3-0.3-0.3-0.8,0-1.1l15.5-16c0.3-0.3,0.8-0.3,1.1,0
	C703.3,730.5,703.3,730.9,703.1,731.2z"/>
<polygon class="st0" points="680.1,750 680.7,744.8 685.5,749.5 "/>
<path class="st0" d="M704.7,729.8l-4.9-4.8c0.7-0.7,1.9-0.7,2.6,0l2.3,2.2C705.4,727.9,705.4,729,704.7,729.8z"/>
<g>
	<path class="st1" d="M707.1,743.8l-6.2-6.2l-1.4,1.4l6.2,6.2c0.2,0.2,0.2,0.5,0,0.7l-4,4c-0.1,0.1-0.3,0.1-0.4,0.1s-0.2,0-0.4-0.1
		l-0.3-0.3l2.7-2.8l-0.3-0.3l-2.7,2.8l-1-1l1.6-1.7l-0.3-0.3L699,748l-1-1l1.5-1.5l-0.3-0.3l-1.5,1.5l-1-1l2.7-2.7l-0.4-0.4
		l-2.7,2.7l-1-1l2.1-2.2l-0.3-0.3L695,744l0,0l-1.4,1.4l6,6c0.5,0.5,1.1,0.7,1.8,0.7s1.3-0.3,1.8-0.7l4-4
		C708,746.4,708,744.8,707.1,743.8z"/>
	<path class="st1" d="M682.6,722.8l-4,4c-0.5,0.5-0.7,1.1-0.7,1.8s0.3,1.3,0.7,1.8l6.2,6.2l1.4-1.4l0,0l1.6-1.6l-0.3-0.3l-1.6,1.6
		l-1-1l2.4-2.4l-0.3-0.3l-2.4,2.4l-1-1l1.3-1.3l-0.3-0.3l-1.3,1.3l-1-1l1.1-1.1l-0.3-0.3L682,731l-1-1l2.3-2.3l-0.4-0.4l-2.3,2.3
		l-0.5-0.5c-0.1-0.1-0.1-0.3-0.1-0.4c0-0.1,0-0.2,0.1-0.4l4-4c0.1-0.1,0.2-0.1,0.4-0.1s0.3,0,0.4,0.1l6.1,6.1l1.4-1.4l-6.1-6.1
		C685.1,721.9,683.5,721.9,682.6,722.8z"/>
</g>
<g>
	<path class="st1" d="M30.1,8.4l-2.4-2.3c-0.7-0.7-1.6-1-2.6-1c-0.9,0-1.6,0.4-2.2,1L22,7l0.3,0.3L7.9,22.2l-1.5-1.5l-1.1,9.9
		l10.4-0.9l-1.5-1.5l14.3-14.8l0.3,0.3l0.9-1.1C31.1,11.5,31.3,9.7,30.1,8.4z M9.5,22.9L22.7,9.1c0.3-0.3,0.7-0.3,0.9,0
		c0.3,0.3,0.3,0.7,0,0.9L10.4,23.8C10.3,24,10.1,24,10,24c-0.2,0-0.3-0.1-0.4-0.2C9.3,23.6,9.3,23.1,9.5,22.9z M7.3,28.9l0.4-4.4
		l4.1,4L7.3,28.9z M26.9,12.8L13.6,26.6c-0.1,0.2-0.3,0.2-0.4,0.2c-0.2,0-0.3-0.1-0.4-0.2c-0.3-0.3-0.3-0.7,0-0.9l13.3-13.7
		c0.3-0.3,0.7-0.3,0.9,0C27.2,12.2,27.2,12.6,26.9,12.8z M28.3,11.6l-4.2-4.1c0.6-0.6,1.6-0.6,2.2,0l2.1,1.8
		C28.9,10,28.9,10.9,28.3,11.6z"/>
	<g>
		<path class="st1" d="M30.4,23.6L25,18.3l-1.2,1.2l5.3,5.3c0.2,0.2,0.2,0.4,0,0.6l-3.4,3.4c-0.2,0.2-0.4,0.2-0.6,0l-0.3-0.3
			l2.3-2.4l-0.5-0.5l-2.3,2.4l-0.9-0.8l1.4-1.5l-0.6-0.6l-1.4,1.4L22,25.8l1.3-1.3l-0.6-0.6l-1.3,1.3l-0.9-0.9l2.1-2.1L22,21.4
			l-2.1,2.1l0,0l-1.2,1.2l5.1,5.1c0.4,0.4,0.9,0.6,1.5,0.6c0.5,0,1.1-0.2,1.5-0.6l3.4-3.4C31.2,25.8,31.2,24.5,30.4,23.6z"/>
		<path class="st1" d="M9.4,5.6L5.9,9.1c-0.4,0.4-0.7,1-0.7,1.5c0,0.6,0.3,1.1,0.6,1.5l5.4,5.3l1.2-1.2l0,0l2.1-2.1l-0.6-0.6
			l-2.1,2.1L11,14.8l1.2-1.2l-0.6-0.7l-1.2,1.3l-0.9-0.9l1.2-1.2l-0.6-0.7l-1.3,1.2l-0.8-0.8l2-2L9.4,9.2l-2.1,2l-0.3-0.3
			C7,10.9,7,10.7,7,10.6s0-0.2,0.1-0.3l3.4-3.4c0.2-0.1,0.3-0.1,0.4-0.1c0.1,0,0.3,0,0.3,0.1l5.2,5.2l1.2-1.2l-5.3-5.2
			C11.6,4.9,10.2,4.9,9.4,5.6z"/>
	</g>
</g>
</svg>
