<?xml version="1.0" encoding="utf-8"?>
<!-- Generator: Adobe Illustrator 25.2.1, SVG Export Plug-In . SVG Version: 6.00 Build 0)  -->
<svg version="1.1" xmlns="http://www.w3.org/2000/svg" xmlns:xlink="http://www.w3.org/1999/xlink" x="0px" y="0px"
	 viewBox="0 0 920.9 231.6" style="enable-background:new 0 0 920.9 231.6;" xml:space="preserve">
<style type="text/css">
	.st0{fill:#FFFFFF;}
	.st1{opacity:7.000000e-02;fill:url(#SVGID_1_);}
	.st2{fill:#E0EFC7;}
	.st3{fill:#BDD7E6;}
	.st4{fill:none;stroke:#BDD7E6;stroke-width:1.5;stroke-miterlimit:10;}
	.st5{fill:none;stroke:#5F9FD3;stroke-width:5;stroke-miterlimit:10;}
	.st6{fill:#5F9FD3;stroke:#5F9FD3;stroke-width:1.4;stroke-miterlimit:10;}
	.st7{fill:#BBD6E5;}
	.st8{fill:#387C9B;}
	.st9{fill:none;stroke:#717F87;stroke-width:0.25;stroke-miterlimit:10;}
	.st10{fill:#C6E0EF;}
	.st11{fill:#61A5D8;}
	.st12{fill:#F7E89F;}
	.st13{fill:#F29682;}
	.st14{fill:#B0C14F;}
	.st15{fill:none;stroke:#BBD6E5;stroke-width:1.5;stroke-miterlimit:10;}
	.st16{fill:#EFF6FB;}
	.st17{fill:#F7931E;}
	.st18{fill:#3A7DA5;}
	.st19{font-family:'Cairo-Bold';}
	.st20{font-size:12.0063px;}
	.st21{display:none;}
	.st22{display:inline;fill:#E0EFC7;}
	.st23{display:inline;}
	
		.st24{display:inline;fill:none;stroke:#C3DEED;stroke-width:1.5;stroke-linecap:round;stroke-linejoin:round;stroke-miterlimit:10;}
	.st25{display:inline;fill:#6AA1D3;}
	.st26{display:inline;fill:none;stroke:#BDD7E6;stroke-width:1.5;stroke-miterlimit:10;}
	.st27{display:inline;fill:#F7931E;}
	.st28{fill:#F7EA77;}
	.st29{display:inline;fill:#BBD6E5;}
	.st30{display:inline;fill:#F7E89F;}
	.st31{fill:none;stroke:#C6E0EF;stroke-width:1.5;stroke-miterlimit:10;}
	.st32{fill:#6AA1D3;}
	.st33{fill:#387CA3;}
	.st34{display:inline;fill:#387C9B;}
	.st35{display:inline;fill:#C3DEED;}
	.st36{display:inline;fill:#629DCF;}
	.st37{display:inline;fill:#B0C14F;}
</style>
<g id="Layer_2">
	<rect x="0.4" class="st0" width="919.8" height="231.6"/>
	<linearGradient id="SVGID_1_" gradientUnits="userSpaceOnUse" x1="460.9598" y1="226.6777" x2="460.3174" y2="10.5842">
		<stop  offset="0" style="stop-color:#E8F2F7;stop-opacity:0.29"/>
		<stop  offset="0.2401" style="stop-color:#C0DAED;stop-opacity:0.4605"/>
		<stop  offset="0.5908" style="stop-color:#8CBADF;stop-opacity:0.7095"/>
		<stop  offset="0.855" style="stop-color:#6BA6D6;stop-opacity:0.897"/>
		<stop  offset="1" style="stop-color:#5F9FD3"/>
	</linearGradient>
	<rect x="0.4" class="st1" width="920.5" height="231.6"/>
</g>
<g id="Layer_4">
	<path class="st2" d="M355.2,110.3c0.4,0,0.8,0.2,1.1,0.5l7.6,12.1c0,0.9-0.7,1.7-1.5,1.7l-2.5,0c0.5,0,1,0.2,1.3,0.6l3.7,6.1
		c0,1.1-0.8,2-1.8,2c0.6,0,1.1,0.3,1.5,0.7l4.2,6.8c0,1.2-0.9,2.2-2,2.2l-0.8,0.3l-20.9,0l-0.8-0.3c-1.1,0-2-1-2-2.2l4.2-6.8
		c0.4-0.4,0.9-0.7,1.4-0.7c-1,0-1.8-0.9-1.8-2l3.7-6.1c0.3-0.4,0.8-0.6,1.3-0.6l-2.4-0.2c-0.9,0-1.5-0.8-1.5-1.7l7.3-11.9
		C354.5,110.5,354.8,110.3,355.2,110.3"/>
	<g>
		<path class="st3" d="M707.2,131L707.2,131c4.4,0,8.3-2.6,9.9-6.6c1.3-3.3,1-7-1-9.9c-2-2.9-5.3-4.7-8.9-4.7
			c-4.3,0-8.3,2.6-9.9,6.6c-1.3,3.3-1,7,1,9.9C700.3,129.2,703.6,131,707.2,131z M698.7,116.9c1.4-3.4,4.8-5.6,8.5-5.6
			c3.1,0,5.9,1.5,7.6,4c1.7,2.5,2,5.7,0.9,8.5c-1.4,3.4-4.8,5.6-8.4,5.6v0.8l-0.1-0.8c-3.1,0-5.9-1.5-7.6-4
			C697.9,122.9,697.5,119.8,698.7,116.9z"/>
		<path class="st3" d="M84.9,175.9h53.5c1.8,0,3.2-1.5,3.2-3.2v-9.8c0-1.8-1.5-3.2-3.2-3.2H84.9c-1.8,0-3.2,1.5-3.2,3.2v9.8
			C81.7,174.4,83.1,175.9,84.9,175.9z M83.2,162.8c0-1,0.8-1.8,1.8-1.8h53.5c1,0,1.8,0.8,1.8,1.8v9.8c0,1-0.8,1.8-1.8,1.8H84.9
			c-1,0-1.8-0.8-1.8-1.8V162.8z"/>
		<path class="st3" d="M171.8,190.5c-3.4,0-6.2-2.8-6.2-6.2v-63.4c0-1.4-0.9-2.6-2.2-3.1v-7.9c0-4.3-3.5-7.8-7.8-7.8h-19.3
			c-4.3,0-7.8,3.5-7.8,7.8v4.6c-0.9,0.3-1.6,1.1-1.6,2.2c0,1.3,1,2.3,2.3,2.3c1.3,0,2.3-1,2.3-2.3c0-1-0.6-1.8-1.5-2.1v-4.6
			c0-3.4,2.8-6.2,6.2-6.2h19.3c3.4,0,6.2,2.8,6.2,6.2v7.7c-1.6,0.2-2.8,1.6-2.8,3.2v8.4v0.9v54.2c0,3.4-2.8,6.2-6.2,6.2l-12.5,0
			c-1,0-1.8-0.8-1.8-1.8s0.8-1.8,1.8-1.8h3.8v-0.1h0.1c1.8,0,3.2-1.5,3.2-3.2v-3.4c0-1.8-1.5-3.2-3.2-3.2H80.5
			c-1.8,0-3.2,1.5-3.2,3.2v3.4c0,1.5,1.1,2.8,2.5,3.2v0.2h5.8c1,0,1.8,0.8,1.8,1.8s-0.8,1.8-1.8,1.8H71.8c-3.4-0.1-6.1-2.9-6.1-6.2
			v-5c0-4.3-3.5-7.8-7.8-7.8l-57.9,0l0,1.5l57.9,0c3.4,0,6.2,2.8,6.2,6.2v5c0,4.2,3.4,7.6,7.6,7.7v0h0c0.1,0,0.1,0,0.2,0v0h13.6
			c1.8,0,3.2-1.5,3.2-3.2c0-0.7-0.2-1.3-0.6-1.8h49.3c-0.4,0.5-0.6,1.2-0.6,1.8c0,1.8,1.5,3.2,3.2,3.2l12.5,0c4.3,0,7.8-3.5,7.8-7.8
			v-54.2v-0.9v-8.4c0-1,0.8-1.8,1.8-1.8s1.8,0.8,1.8,1.8v63.4c0,4.3,3.5,7.8,7.8,7.8l5.3,0l0-1.5L171.8,190.5z M129.3,117.4
			c-0.4,0-0.8-0.3-0.8-0.8c0-0.4,0.3-0.8,0.8-0.8s0.8,0.3,0.8,0.8C130,117,129.7,117.4,129.3,117.4z M78.7,183.6v-3.4
			c0-1,0.8-1.8,1.8-1.8h63.6c1,0,1.8,0.8,1.8,1.8v3.4c0,1-0.8,1.8-1.8,1.8H80.5C79.5,185.4,78.7,184.6,78.7,183.6z"/>
		<path class="st3" d="M129.1,129.8c4.1,0,7.5-3.4,7.5-7.5c0-2.9-1.6-5.3-4-6.6v1.1c0,2-1.6,3.6-3.6,3.6c-2,0-3.6-1.6-3.6-3.6v-1.1
			c-2.4,1.3-4,3.8-4,6.6C121.6,126.5,125,129.8,129.1,129.8z M124.4,118.6c0.7,1.9,2.6,3.2,4.7,3.2c2.1,0,4-1.3,4.7-3.2
			c0.8,1,1.3,2.3,1.3,3.7c0,3.3-2.7,6-6,6c-3.3,0-6-2.7-6-6C123.1,120.9,123.6,119.6,124.4,118.6z"/>
		<path class="st3" d="M401.1,170.1c6.4,0,11.7-5.1,12-11.4l5-0.1c0.2,0,0.4-0.1,0.5-0.2l17.5-17.9c0.1-0.1,0.1-0.2,0.2-0.3l1.8,6.4
			c-4.8,1.6-8.3,6.1-8.3,11.4c0,6.6,5.4,12,12,12s12-5.4,12-12s-5.4-12-12-12c-0.8,0-1.6,0.1-2.3,0.2l-3.2-11.2
			c-0.1-0.4-0.5-0.6-0.9-0.5c0,0,0,0,0,0c-0.1,0-0.1,0-0.2,0l-6.7-0.1c0,0,0,0,0,0c-0.4,0-0.7,0.3-0.8,0.7c0,0.4,0.3,0.8,0.7,0.8
			l6.6,0.1l1,3.4c-0.1-0.1-0.3-0.2-0.5-0.2l-22,0.2l-1-3.5h4.3c0.4,0,0.8-0.3,0.8-0.8s-0.3-0.8-0.8-0.8h-9.7c-0.4,0-0.8,0.3-0.8,0.8
			s0.3,0.8,0.8,0.8h3.8l1.2,4.1l-5.1,7.6c-1.8-1-3.8-1.6-6.1-1.6c-6.6,0-12,5.4-12,12S394.4,170.1,401.1,170.1z M441.9,147.5
			c5.8,0,10.5,4.7,10.5,10.5s-4.7,10.5-10.5,10.5c-5.8,0-10.5-4.7-10.5-10.5c0-4.6,3-8.6,7.2-10l2.9,10c0.1,0.3,0.4,0.5,0.7,0.5
			c0.1,0,0.1,0,0.2,0c0.4-0.1,0.6-0.5,0.5-0.9l-2.8-10C440.7,147.6,441.3,147.5,441.9,147.5z M433.8,140.8l-15.4,15.6l-4.4-15.5
			L433.8,140.8z M412.8,141.9l4.3,15.2l-4,0c-0.3-3.5-2-6.6-4.7-8.7L412.8,141.9z M411.6,157.2l-9.1,0.1l5-7.5
			C409.8,151.5,411.3,154.1,411.6,157.2z M401.1,147.5c1.9,0,3.7,0.5,5.2,1.4l-5.8,8.7c-0.2,0.2-0.2,0.5,0,0.8
			c0.1,0.2,0.4,0.4,0.7,0.4c0,0,0,0,0,0l10.5-0.1c-0.3,5.5-4.9,9.9-10.5,9.9c-5.8,0-10.5-4.7-10.5-10.5S395.2,147.5,401.1,147.5z"/>
		<path class="st3" d="M221.9,167.8h89.9V96.1h-89.9V167.8z M223.4,149.7h16.1v16.6h-16.1V149.7z M276.1,132.7v15.5h-16.8v-15.5
			H276.1z M259.3,131.2v-16.5h16.8v16.5H259.3z M257.8,148.2H241v-15.5h16.8V148.2z M257.8,149.7v16.6H241v-16.6H257.8z
			 M259.3,149.7h16.8v16.6h-16.8V149.7z M277.6,149.7h16.8v16.6h-16.8V149.7z M277.6,148.2v-15.5h16.8v15.5H277.6z M296,132.7h14.3
			v15.5H296V132.7z M296,131.2v-16.5h14.3v16.5H296z M294.5,131.2h-16.8v-16.5h16.8V131.2z M277.6,113.2V97.6h16.8v15.6H277.6z
			 M276.1,113.2h-16.8V97.6h16.8V113.2z M257.8,113.2H241V97.6h16.8V113.2z M257.8,114.7v16.5H241v-16.5H257.8z M239.5,131.2h-16.1
			v-16.5h16.1V131.2z M239.5,132.7v15.5h-16.1v-15.5H239.5z M296,166.3v-16.6h14.3v16.6H296z M310.3,113.2H296V97.6h14.3V113.2z
			 M239.5,97.6v15.6h-16.1V97.6H239.5z"/>
		<path class="st3" d="M344,143.7l0.7,0.3c0.1,0,0.2,0.1,0.3,0.1h20.9c0.1,0,0.2,0,0.3-0.1l0.7-0.3c1.5-0.1,2.6-1.4,2.6-3
			c0-0.1,0-0.3-0.1-0.4l-4.2-6.8c0,0-0.1-0.1-0.1-0.1c-0.1-0.1-0.1-0.2-0.2-0.2c0.5-0.5,0.7-1.2,0.7-2c0-0.1,0-0.3-0.1-0.4l-3.4-5.5
			l0.3,0c1.3,0,2.3-1.1,2.3-2.5c0-0.1,0-0.3-0.1-0.4l-7.6-12.1c0,0,0-0.1-0.1-0.1c-0.4-0.5-1-0.8-1.7-0.8v0c-0.6,0-1.2,0.3-1.6,0.8
			c0,0-0.1,0.1-0.1,0.1l-7.3,11.9c-0.1,0.1-0.1,0.3-0.1,0.4c0,1.4,1,2.5,2.2,2.5c0,0,0,0,0,0l0.3,0l-3.5,5.7
			c-0.1,0.1-0.1,0.3-0.1,0.4c0,0.8,0.3,1.5,0.8,2c-0.1,0.1-0.1,0.1-0.2,0.2c0,0-0.1,0.1-0.1,0.1l-4.2,6.8c-0.1,0.1-0.1,0.3-0.1,0.4
			C341.4,142.3,342.5,143.6,344,143.7z M346.9,134.4c0.2-0.2,0.4-0.4,0.8-0.4c0.4,0,0.8-0.3,0.8-0.8s-0.3-0.8-0.8-0.8
			c-0.5,0-1-0.5-1.1-1.1l3.6-5.8c0.2-0.2,0.4-0.3,0.7-0.3c0.4,0,0.7-0.3,0.7-0.7c0-0.4-0.3-0.7-0.7-0.8l-2.5-0.2
			c-0.4,0-0.7-0.3-0.8-0.8l7.1-11.6c0.1-0.1,0.3-0.2,0.5-0.2v0c0.2,0,0.4,0.1,0.5,0.2l7.4,11.8c-0.1,0.4-0.4,0.8-0.8,0.8l-2.5,0h0h0
			c-0.4,0-0.7,0.3-0.7,0.8c0,0.4,0.3,0.7,0.8,0.7c0.3,0,0.5,0.1,0.7,0.3l3.6,5.8c-0.1,0.6-0.5,1.1-1,1.1c-0.4,0-0.8,0.3-0.8,0.8
			s0.3,0.8,0.8,0.8c0.3,0,0.6,0.1,0.9,0.4l4,6.5c-0.1,0.7-0.6,1.3-1.3,1.3c-0.1,0-0.2,0-0.3,0.1l-0.7,0.3h-20.6l-0.7-0.3
			c-0.1,0-0.2-0.1-0.3-0.1c-0.6,0-1.2-0.6-1.3-1.3L346.9,134.4z"/>
		<path class="st3" d="M874.5,171.8c-3.4,0-6.2-2.8-6.2-6.2l0-36.4c0-1,0.8-1.8,1.8-1.8l8.7,0l2.4,0c1.8,0,3.2-1.5,3.2-3.3
			c0-0.9-0.3-1.6-1-2.3l-46.6-37.6c-2-2-4.2-4.2-6.9-4.9c-3.2-0.8-6.4,0.5-10,4l0.1,0.1l-47.5,38.5l-0.1,0.1
			c-0.6,0.6-0.8,1.2-0.8,2.2c0,1.8,1.5,3.3,3.2,3.3l11.1,0c1,0,1.8,0.8,1.8,1.8l0,36.4h0c0,3.4-2.8,6.2-6.2,6.2h-26v0l-27.5-0.1
			l-0.9,0c-2.4-0.1-4.5-0.1-5.7-1.5c-0.8-0.9-1.3-1.9-1.5-3.1l-2.3-19.1c1,1,1.9,2,2.1,2.4c0.1,0.2,0,0.7,0,1.1
			c-0.1,0.7-0.1,1.7,0.1,2.7l0.1,0.5c0,0.1,0,0.2,0,0.3c0.3,2.6,0.6,3.9,1.5,4.3c0.4,0.2,0.8,0.1,1.1-0.2c0.4-0.3,0.4-0.7,0.5-2.4
			c0-0.3,0-0.8,0-1.2c0.1,0.1,0.2,0.2,0.3,0.3c0.2,0.2,0.5,0.5,0.7,0.8c1.2,1.4,2.7,3.1,4.1,2.8l0.4-0.1l0.1-0.4
			c0.2-0.6,0.1-1.3-0.2-2c1.2,0.8,2.2,1.2,2.9,0.5c0.2-0.3,0.3-0.6,0.3-1c-0.1-0.5-0.4-1-0.9-1.5c0.2,0,0.4-0.1,0.6-0.1
			c0.5-0.2,0.8-0.7,0.8-1.2c0.1-1.2-1.2-2.6-3.8-4.3c-0.2-0.1-0.4-0.2-1.6-0.5c-0.9-0.2-2.2-0.6-3.2-0.9c0,0-0.1-0.1-0.1-0.1
			c-0.1-0.1-0.2-0.3-0.4-0.5l-6.1-9c-1.4-2.9-3.6-6.3-7.8-6.3l-4,0c-3.5,0-7.2,2.6-8.4,5.9c-0.4,0.8-1.1,0.9-3.3,0.6
			c-1.4-0.1-2.9-0.3-3.2-0.5c-0.2-0.1-0.4-0.6-0.6-1.1c-0.3-0.7-0.7-1.5-1.4-2.3l-0.5-0.6l0,0c-1-1.3-2-2.3-2.9-2.2
			c-0.2,0-0.7,0.2-0.9,0.7c-0.2,0.5,0,0.9,0.7,2c0.1,0.2,0.3,0.5,0.4,0.7c-0.2,0-0.3,0-0.5-0.1c-0.3-0.1-0.8-0.3-1.2-0.6
			c-1.3-0.6-2.5-1.3-3.6-0.9c-0.3,0.1-0.8,0.4-1,1.1l-0.1,0.2l0,0.2c0,0.3,0.2,0.6,0.3,0.8c-1.2-0.1-2.1,0.1-2.4,1
			c-0.1,0.3,0,0.7,0.2,1c0.3,0.4,0.8,0.7,1.5,0.9c-0.2,0.1-0.5,0.3-0.6,0.5c-0.3,0.4-0.3,0.9-0.1,1.3c0.3,0.6,1.2,1.5,5.6,1.6
			c0.4,0,3.1-0.3,4.9-0.6c0,0,0.1,0,0.1,0.1c0.1,0.1,0.3,0.2,0.6,0.3l5.3,2.3c0.7,0.4,1.1,1.4,1,2.5l-2,20.4c-0.3,1-0.7,1.9-1.4,2.7
			c-1.1,1.3-3.2,1.4-5.7,1.5l-22.6,0.1v-0.1c-3.4,0-6.2-2.8-6.2-6.2v-8c0-4.3-3.5-7.8-7.8-7.8h-54.3c-4.3,0-7.8,3.5-7.8,7.8v8
			c0,3.4-2.8,6.2-6.2,6.2h-12.7c-3.9,0-5.3-3.4-5.3-6.2l0-13.4c0-1.8-1.5-3.2-3.2-3.2c-1.8,0-3.2,1.4-3.2,3.2l0,13.4
			c0,3.4-2.8,6.2-6.2,6.2l-16.8-0.1c-3.4,0-6.2-2.8-6.2-6.3c0-4.3-3.5-7.8-7.8-7.8h-31.3c-4.3,0-7.8,3.5-7.8,7.8
			c0,3.4-2.8,6.2-6.2,6.2l-107.9,0c-4,0-7.3-3.3-7.3-7.3l0-15.8c0-2-1.6-3.6-3.6-3.6c-2,0-3.6,1.6-3.6,3.6l0,15.8
			c0,4.1-3.2,7.4-7.2,7.4l-18.7,0c-3.4,0-6.2-2.8-6.2-6.2v-63h0v-6c0-4.3-3.5-7.8-7.8-7.8h-90.8c-4.3,0-7.8,3.5-7.8,7.8v69
			c0,3.4-2.8,6.2-6.2,6.2H193l0-0.2l-1.9,0c-4.3,0-7.8,3.5-7.8,7.8v5c0,3.4-2.8,6.2-6.2,6.2v1.5c4.3,0,7.8-3.5,7.8-7.8v-5
			c0-3.4,2.8-6.2,6.2-6.2l1,0v0.2h15.2c4.3,0,7.8-3.5,7.8-7.8v-69c0-3.4,2.7-6.1,6-6.2l91.1,0c3.4,0,6.2,2.8,6.2,6.2v62h0v7
			c0,4.3,3.5,7.8,7.8,7.8l18.7,0c4.8,0,8.7-4,8.7-8.9l0-15.8c0-1.2,0.9-2.1,2.1-2.1c1.2,0,2.1,1,2.1,2.1l0,15.8c0,4.9,4,8.8,8.8,8.8
			l107.9,0c4.3,0,7.8-3.5,7.8-7.8c0-3.4,2.8-6.2,6.2-6.2h31.3c3.4,0,6.2,2.8,6.2,6.3c0,4.3,3.5,7.8,7.7,7.8l16.8,0.1
			c4.3,0,7.8-3.5,7.8-7.8l0-13.4c0-1,0.8-1.7,1.7-1.7c1,0,1.8,0.8,1.8,1.8l0,13.4c0,4.6,2.7,7.7,6.8,7.7h12.7c4.3,0,7.8-3.5,7.8-7.8
			v-8c0-3.4,2.8-6.2,6.2-6.2h54.3c3.4,0,6.2,2.8,6.2,6.2v8c0,4.2,3.4,7.7,7.7,7.7l0,0.2l21.8-0.1l0.9,0c2.7-0.1,5.2-0.2,6.7-2
			c0.8-1,1.4-2.1,1.7-3.3l2-20.6c0.1-1.7-0.6-3.3-1.9-4l-5.5-2.3c-0.2-0.1-0.4-0.2-0.5-0.2c-0.3-0.1-0.5-0.3-1-0.2
			c-2,0.3-4.4,0.6-4.7,0.6c-2.7-0.1-3.7-0.4-4.1-0.6c0.1,0,0.2-0.1,0.2,0c4.6,0.6,4.7,0,4.9-0.4l0.1-0.4l-0.2-0.3
			c-0.3-0.5-1-0.6-2.7-1c-0.7-0.1-1.8-0.3-2.6-0.6c0.8,0.1,1.9,0.3,2.6,0.4c1.4,0.3,2.2,0.4,2.7,0.3l1.9-0.3l-1.6-1.1
			c-0.6-0.4-1.3-0.6-2.1-0.8c-0.8-0.2-1.8-0.5-2.1-0.9c0,0,0,0,0,0c0.4-0.2,1.6,0.5,2.4,0.8c0.5,0.3,1,0.5,1.4,0.7
			c0.6,0.2,1.3,0.2,1.7,0.2c0.1,0,0.2,0,0.2,0c0.3,0,0.6-0.1,0.8-0.4c0.2-0.4,0.1-0.9-0.3-1.6c0.1,0.1,0.1,0.2,0.2,0.2
			c0.2,0.2,0.3,0.4,0.5,0.6c0.5,0.7,0.8,1.3,1.1,2c0.3,0.7,0.6,1.3,1.1,1.6c0.8,0.5,3,0.7,3.9,0.8c1.6,0.2,3.8,0.5,4.8-1.5
			c1-2.7,4.2-5,7.1-5l4,0c2.8,0,4.7,1.6,6.5,5.5l6.3,9.2l0.1,0.1c0.2,0.2,0.3,0.3,0.3,0.4c0.2,0.2,0.4,0.5,0.8,0.6
			c1.1,0.4,2.4,0.7,3.3,0.9c0.5,0.1,1.1,0.3,1.2,0.3c2.6,1.7,3,2.6,3.1,2.9c0,0-0.1,0-0.1,0c-3.7-2.7-4.2-2.2-4.5-1.9l-0.3,0.3
			l0,0.3c0,0.6,0.6,1,1.9,2.1c0.5,0.4,1.4,1.1,2,1.7c-0.7-0.4-1.6-1.2-2.1-1.6c-1.1-0.9-1.7-1.4-2.2-1.6l-1.9-0.6l1,1.7
			c0.3,0.5,0.7,1,1.1,1.6c0.5,0.6,1.1,1.4,1.5,2.1c-0.7-0.5-1.5-1.5-1.9-2c-0.3-0.3-0.5-0.6-0.8-0.8c-0.2-0.2-0.4-0.4-0.5-0.6
			c-0.3-0.4-0.6-0.7-0.9-0.9l-0.5-0.2l-0.4,0.2c-0.4,0.2-0.6,0.7-0.7,2.1c0-0.2-0.1-0.5-0.1-0.6c-0.1-0.6-0.1-0.9-0.2-1.1
			c-0.1-0.8-0.1-1.5,0-2.2c0.1-0.7,0.1-1.4-0.2-1.9c-0.4-0.8-2.4-2.8-2.8-3.2l-0.1-0.1c-0.6-0.6-1.1-1-1.7-0.7
			c-0.7,0.4-0.5,1.2-0.2,2.4l2.3,19.3c0.3,1.4,0.9,2.7,1.8,3.8c1.6,1.8,4.1,1.9,6.7,2l32.7,0.1l0-0.1h21.7c4.3,0,7.8-3.5,7.8-7.8
			l0-36.4l0,0c0-1.8-1.5-3.2-3.2-3.2l-8.7,0l-2.4,0c-1,0-1.7-0.8-1.7-1.8c0-0.5,0.1-0.8,0.4-1.1l47.7-38.7l-0.1-0.1
			c3.1-3,5.8-4.2,8.4-3.5c2.3,0.6,4.3,2.6,6.2,4.5l46.6,37.7c0.3,0.3,0.5,0.7,0.5,1.2c0,1-0.8,1.8-1.8,1.8l-11.1,0
			c-1.8,0-3.2,1.5-3.2,3.2l0,36.4c0,4.3,3.5,7.8,7.8,7.8l46.1,0v-1.5L874.5,171.8z"/>
	</g>
	<path class="st4" d="M781.2,171.4"/>
	<path class="st5" d="M865.7,180"/>
	<path class="st5" d="M447.1,180.1"/>
	<path class="st4" d="M191.8,172"/>
	<path class="st6" d="M456.9,180"/>
	<path class="st6" d="M493,175.5"/>
	<path class="st5" d="M779.8,174.6"/>
	<path class="st7" d="M559.9,150.4c-0.4,0-0.8-0.3-0.8-0.8v-22.2c0-0.4,0.3-0.8,0.8-0.8s0.8,0.3,0.8,0.8v22.2
		C560.6,150.1,560.3,150.4,559.9,150.4z"/>
	<path class="st7" d="M559.9,127.7c-4.3,0-7.9-3.5-7.9-7.9s3.5-7.9,7.9-7.9s7.9,3.5,7.9,7.9S564.2,127.7,559.9,127.7z M559.9,113.4
		c-3.5,0-6.4,2.9-6.4,6.4s2.9,6.4,6.4,6.4s6.4-2.9,6.4-6.4S563.4,113.4,559.9,113.4z"/>
	<g>
		<path class="st8" d="M558.4,123.2c-0.4,0-0.8-0.3-0.8-0.8v-5.3c0-0.4,0.3-0.8,0.8-0.8s0.8,0.3,0.8,0.8v5.3
			C559.1,122.8,558.8,123.2,558.4,123.2z"/>
		<path class="st8" d="M561.4,123.2c-0.4,0-0.8-0.3-0.8-0.8v-5.3c0-0.4,0.3-0.8,0.8-0.8s0.8,0.3,0.8,0.8v5.3
			C562.1,122.8,561.8,123.2,561.4,123.2z"/>
	</g>
	<path class="st9" d="M704,143.2"/>
	<path class="st10" d="M680.6,145.9c-0.2,0-1.7-0.1-3.8-2.1c-0.2-0.2-0.2-0.5,0-0.7c0.2-0.2,0.5-0.2,0.7,0c1.8,1.8,3.1,1.8,3.1,1.8
		c0.3,0,0.5,0.2,0.5,0.5C681.1,145.7,680.9,145.9,680.6,145.9C680.6,145.9,680.6,145.9,680.6,145.9z"/>
	<path class="st10" d="M680.2,147.8C680.2,147.8,680.2,147.8,680.2,147.8c-0.2,0-3-0.5-5.1-3c-0.2-0.2-0.2-0.5,0.1-0.7
		c0.2-0.2,0.5-0.2,0.7,0.1c1.9,2.2,4.4,2.6,4.4,2.6c0.3,0,0.5,0.3,0.4,0.6C680.7,147.6,680.5,147.8,680.2,147.8z"/>
	<path class="st10" d="M688.5,133.8c-0.2,0-0.4-0.1-0.4-0.3c0,0-0.6-1.1-3-1.9c-0.3-0.1-0.4-0.4-0.3-0.6c0.1-0.3,0.4-0.4,0.6-0.3
		c2.8,1,3.5,2.3,3.5,2.4c0.1,0.2,0,0.5-0.2,0.7C688.6,133.7,688.6,133.8,688.5,133.8z"/>
	<path class="st10" d="M690.2,132.6c-0.2,0-0.3-0.1-0.4-0.2c0,0-1.5-2.1-4.3-2.8c-0.3-0.1-0.4-0.3-0.4-0.6c0.1-0.3,0.3-0.4,0.6-0.4
		c3.2,0.8,4.8,3.1,4.9,3.2c0.2,0.2,0.1,0.5-0.1,0.7C690.4,132.6,690.3,132.6,690.2,132.6z"/>
	
		<ellipse transform="matrix(0.8306 -0.5569 0.5569 0.8306 52.4664 414.304)" class="st11" cx="707.2" cy="120.9" rx="6.4" ry="6.4"/>
	<path class="st11" d="M617.2,144.5L617.2,144.5l7.8,0c0.2,0,0.4-0.1,0.5-0.2s0.2-0.3,0.2-0.5l-0.1-52.7c0-1.2-0.5-2.4-1.4-3.3
		c-0.9-0.9-2-1.4-3.3-1.4c0,0,0,0,0,0c-1.2,0-2.4,0.5-3.3,1.4c-0.9,0.9-1.4,2.1-1.4,3.3l0.1,52.7
		C616.5,144.2,616.8,144.5,617.2,144.5z M618.8,88.9c0.6-0.6,1.4-0.9,2.2-0.9c0,0,0,0,0,0c1.7,0,3.2,1.4,3.2,3.2l0.1,51.9l-6.3,0
		l-0.1-51.9C617.9,90.3,618.2,89.5,618.8,88.9z"/>
	<path class="st11" d="M594.7,147.5h53.4c0.4,0,0.8-0.3,0.8-0.8s-0.3-0.8-0.8-0.8h-53.4c-0.4,0-0.8,0.3-0.8,0.8
		S594.3,147.5,594.7,147.5z"/>
	<path class="st11" d="M229.2,161c0.1,0,0.2,0.1,0.3,0.1c0.3,0,0.6-0.2,0.7-0.4l10.8-23.8l17.7-13.3l18.3,9.2
		c0.1,0.1,0.2,0.1,0.4,0.1l17.8-0.4c0.3,0,0.6-0.2,0.7-0.5l10.1-26.4c0.1-0.4,0-0.8-0.4-1c-0.4-0.1-0.8,0-1,0.4l-10,25.9l-17.1,0.4
		L259,122c-0.3-0.1-0.6-0.1-0.8,0.1l-18.2,13.7c-0.1,0.1-0.2,0.2-0.2,0.3l-10.9,24C228.7,160.4,228.8,160.9,229.2,161z"/>
	<path class="st11" d="M869.9,177.4c-4.1,0-7.5-3.4-7.5-7.5v-26.2c0-6.9-5.6-12.5-12.5-12.5h-44c-6.9,0-12.5,5.6-12.5,12.5v26.2
		c0,3.7-2,7.5-6.4,7.5l-28.1,0l0,0.1l-38.8,0c-1.1,0-1.9-0.3-2.3-0.8c-0.3-0.3-0.4-0.7-0.4-1l-2.6-31.7c0-3.8-2.8-6.9-6.2-6.9h-3.9
		c-1.5,0-3,0.6-4.2,1.8c-1.2,1.3-2,3-1.9,4.7l-2.8,32.6c-0.1,0.3-0.2,0.5-0.3,0.6c-0.4,0.5-1.2,0.7-2.3,0.8l-30.4,0v-0.1h-4
		c-4.1,0-7.5-3.4-7.5-7.5v-0.2c0-6.9-5.6-12.5-12.5-12.5h-33c-6.9,0-12.5,5.6-12.5,12.5v0.2c0,5-3.5,7.5-10.5,7.5l-301.4,0.1
		l-80.7,0l0,0.1c-6.6,0.3-11.9,5.8-11.9,12.5v0.2c0,4.1-3.4,7.5-7.5,7.5h-114c-4.1,0-7.5-3.4-7.5-7.5v-0.2c0-6.7-4.2-11.7-10.1-12.4
		l0-0.2l-50.1,0l0,5l48.6,0v0.1c4.5,0,6.5,3.9,6.5,7.5v0.2c0,6.9,5.6,12.5,12.5,12.5h114c6.9,0,12.5-5.6,12.5-12.5v-0.2
		c0-4.1,3.4-7.5,7.5-7.5v-0.1l80.1,0l301.4-0.1c14,0,15.5-8.7,15.5-12.5v-0.2c0-4.1,3.4-7.5,7.5-7.5h33c4.1,0,7.5,3.4,7.5,7.5v0.2
		c0,6.9,5.6,12.5,12.5,12.5h4v-0.2l0.3,0c0.1,0,0.1,0,0.2,0l30.1,0c2.5-0.1,4.5-0.9,5.8-2.4c0.9-1,1.3-2.1,1.4-3h0.1l2.6-31.8
		c0-0.3,0.1-0.9,0.1-0.9c0-1.3,0.7-2.2,1.4-2.2h3.9c0.7,0,1.4,0.9,1.4,2.2c0,0.1,0,0.1,0,0.2l2.7,32c0.1,0.9,0.5,2.3,1.5,3.6
		c1.3,1.5,3.3,2.3,5.8,2.4l38.9,0l0,0.1l28.1,0c6.6,0,11.4-5.2,11.4-12.5v-26.2c0-4.1,3.4-7.5,7.5-7.5h44c4.1,0,7.5,3.4,7.5,7.5
		v26.2c0,6.9,5.6,12.5,12.5,12.5h51v-5H869.9z"/>
	<path class="st12" d="M129.1,129.8c4.1,0,7.5-3.4,7.5-7.5c0-2.9-1.6-5.3-4-6.6v1.1c0,2-1.6,3.6-3.6,3.6c-2,0-3.6-1.6-3.6-3.6v-1.1
		c-2.4,1.3-4,3.8-4,6.6C121.6,126.5,125,129.8,129.1,129.8z"/>
	<g>
		<path class="st7" d="M48.5,172.9c-0.4,0-0.8-0.3-0.8-0.8v-11.7c0-0.4,0.3-0.8,0.8-0.8s0.8,0.3,0.8,0.8v11.7
			C49.2,172.6,48.9,172.9,48.5,172.9z"/>
		<g>
			<path class="st7" d="M49,156.5c0.8,0,1.6,0.6,1.7,1.5c0.2,0.9-0.5,1.8-1.4,2c-0.1,0-0.2,0-0.3,0c-0.8,0-1.6-0.6-1.7-1.5
				c-0.2-0.9,0.5-1.8,1.4-2C48.8,156.5,48.9,156.5,49,156.5 M49,155c-0.2,0-0.3,0-0.5,0c-1.8,0.3-3,1.9-2.7,3.7
				c0.3,1.6,1.6,2.7,3.2,2.7c0.2,0,0.3,0,0.5,0c1.8-0.3,3-1.9,2.7-3.7C51.9,156.1,50.6,155,49,155L49,155z"/>
			<g>
				<path class="st13" d="M46.7,160.3c0.1-0.1,0.2-0.1,0.3-0.2c0.1-0.1,0.2-0.1,0.3-0.2c0.1-0.1,0.2-0.2,0.3-0.2
					c0.1-0.1,0.1-0.1,0.2-0.2c-0.2-0.2-0.4-0.4-0.5-0.8c-0.1-0.3-0.1-0.6-0.1-0.9c-0.1,0-0.2,0-0.3,0c-0.1,0-0.3,0-0.4,0
					c-0.1,0-0.3,0-0.4,0c-0.1,0-0.2,0-0.4,0.1c-0.1,0-0.3,0.1-0.4,0.1c-0.1,0-0.2,0.1-0.4,0.1c-0.1,0-0.2,0.1-0.4,0.1
					c-0.1,0.1-0.2,0.1-0.4,0.2c-0.1,0.1-0.2,0.1-0.3,0.2c-0.1,0.1-0.2,0.1-0.3,0.2c-0.1,0.1-0.2,0.2-0.3,0.2
					c-0.1,0.1-0.1,0.1-0.2,0.2l0,0c-0.4,0.4-0.8,0.8-1.1,1.3c0.5,0.2,1.1,0.3,1.7,0.3l0,0c0.1,0,0.2,0,0.3,0c0.1,0,0.3,0,0.4,0
					c0.1,0,0.3,0,0.4,0c0.1,0,0.2,0,0.4-0.1c0.1,0,0.3-0.1,0.4-0.1c0.1,0,0.2-0.1,0.4-0.1c0.1,0,0.2-0.1,0.4-0.1
					C46.5,160.5,46.6,160.4,46.7,160.3z"/>
				<path class="st7" d="M43.8,161.7C43.8,161.7,43.8,161.7,43.8,161.7l-0.6-0.1c-0.5-0.1-1-0.2-1.4-0.3L41,161l0.5-0.8
					c0.2-0.4,0.5-0.8,0.9-1.1l0,0l0.4-0.3c0.1,0,0.1-0.1,0.2-0.1c0.2-0.1,0.3-0.2,0.4-0.3c0.1-0.1,0.2-0.2,0.4-0.2
					c0.1-0.1,0.3-0.2,0.4-0.2c0.1-0.1,0.3-0.1,0.4-0.2c0.1-0.1,0.3-0.1,0.4-0.2c0.1,0,0.3-0.1,0.4-0.1c0.1,0,0.3-0.1,0.4-0.1
					c0.1,0,0.3,0,0.4-0.1c0.1,0,0.3,0,0.4,0c0.2,0,0.3,0,0.5,0c0.1,0,0.2,0,0.3,0l0.9,0L48,158c0,0.2,0,0.4,0,0.5
					c0.1,0.2,0.2,0.3,0.3,0.4l0.7,0.6l-0.7,0.6c-0.1,0-0.1,0.1-0.2,0.1c-0.2,0.1-0.3,0.2-0.4,0.3c-0.1,0.1-0.2,0.2-0.4,0.2
					c-0.1,0.1-0.3,0.2-0.4,0.2l0,0c-0.1,0.1-0.3,0.1-0.4,0.2c-0.1,0.1-0.3,0.1-0.4,0.2c-0.1,0-0.3,0.1-0.4,0.1
					c-0.1,0-0.3,0.1-0.4,0.1c-0.1,0-0.3,0-0.4,0.1c-0.2,0-0.3,0-0.4,0c-0.2,0-0.3,0-0.5,0C44,161.7,43.9,161.7,43.8,161.7z
					 M43.4,160.2c0.1,0,0.3,0,0.4,0l0.1,0l0.1,0c0.1,0,0.2,0,0.3,0c0.1,0,0.2,0,0.3,0c0.1,0,0.2,0,0.3-0.1c0.1,0,0.2-0.1,0.3-0.1
					c0.1,0,0.2-0.1,0.3-0.1c0.1,0,0.2-0.1,0.3-0.1c0.1,0,0.2-0.1,0.3-0.1c0.1,0,0.2-0.1,0.3-0.2c0.1,0,0.1-0.1,0.2-0.1
					c-0.1-0.1-0.1-0.2-0.2-0.4c0-0.1-0.1-0.3-0.1-0.4c-0.1,0-0.1,0-0.2,0c-0.1,0-0.2,0-0.3,0.1c-0.1,0-0.2,0.1-0.3,0.1
					c-0.1,0-0.2,0.1-0.3,0.1c-0.1,0-0.2,0.1-0.3,0.1c-0.1,0-0.2,0.1-0.3,0.1c-0.1,0-0.2,0.1-0.3,0.2c-0.1,0.1-0.2,0.1-0.3,0.2
					c-0.1,0.1-0.2,0.1-0.3,0.2l-0.2,0.2C43.6,160,43.5,160.1,43.4,160.2z"/>
			</g>
			<g>
				<path class="st13" d="M49.9,161.3c0-0.1,0-0.2,0-0.4c0-0.1,0-0.3,0-0.4c0-0.1,0-0.3-0.1-0.4c0-0.1,0-0.2-0.1-0.2
					c-0.3,0.1-0.6,0.2-0.9,0.1c-0.3,0-0.6-0.2-0.8-0.4c0,0.1-0.1,0.2-0.1,0.2c-0.1,0.1-0.1,0.2-0.2,0.4c-0.1,0.1-0.1,0.2-0.1,0.4
					c0,0.1-0.1,0.2-0.1,0.4c0,0.1-0.1,0.3-0.1,0.4c0,0.1,0,0.2-0.1,0.4c0,0.1,0,0.3,0,0.4c0,0.1,0,0.3,0,0.4c0,0.1,0,0.2,0,0.4
					c0,0.1,0,0.3,0,0.4c0,0.1,0.1,0.3,0.1,0.4c0,0.1,0,0.2,0.1,0.3l0,0c0.2,0.6,0.4,1.1,0.7,1.6c0.4-0.4,0.8-0.9,1-1.4l0,0
					c0-0.1,0.1-0.2,0.1-0.2c0.1-0.1,0.1-0.2,0.2-0.4c0.1-0.1,0.1-0.2,0.1-0.4c0-0.1,0.1-0.2,0.1-0.4c0-0.1,0.1-0.3,0.1-0.4
					c0-0.1,0-0.2,0.1-0.4c0-0.1,0-0.3,0-0.4C49.9,161.5,49.9,161.4,49.9,161.3z"/>
				<path class="st7" d="M48,166.7l-0.5-0.8c-0.2-0.4-0.5-0.8-0.6-1.3l0,0l-0.1-0.5c0-0.1,0-0.1,0-0.2c-0.1-0.2-0.1-0.4-0.1-0.5
					c0-0.2,0-0.3,0-0.5c0-0.1,0-0.3,0-0.4c0-0.2,0-0.3,0-0.5c0-0.1,0-0.3,0-0.4c0-0.1,0-0.3,0.1-0.4c0-0.1,0.1-0.3,0.1-0.4
					c0-0.1,0.1-0.3,0.1-0.4c0-0.1,0.1-0.3,0.2-0.4c0.1-0.1,0.1-0.3,0.2-0.4c0.1-0.1,0.1-0.2,0.1-0.2l0.4-0.8l0.7,0.5
					c0.1,0.1,0.3,0.2,0.5,0.2c0.2,0,0.3,0,0.5-0.1l0.8-0.4l0.2,0.9c0,0.1,0,0.1,0,0.2c0.1,0.2,0.1,0.4,0.1,0.5c0,0.1,0,0.3,0,0.4
					c0,0.1,0,0.3,0,0.4v0c0,0.2,0,0.3,0,0.4c0,0.1,0,0.3,0,0.4c0,0.1,0,0.3-0.1,0.4c0,0.1-0.1,0.3-0.1,0.4c0,0.1-0.1,0.3-0.1,0.4
					c0,0.1-0.1,0.3-0.2,0.4c-0.1,0.1-0.1,0.3-0.2,0.4l0,0.1c0,0.1-0.1,0.1-0.1,0.2l-0.2,0.4l0,0c-0.3,0.4-0.6,0.8-0.9,1.1L48,166.7z
					 M48.1,163.6l0,0.1c0,0.1,0.1,0.3,0.1,0.4c0.1-0.1,0.2-0.2,0.2-0.4l0.1-0.2c0.1-0.1,0.1-0.2,0.1-0.3c0-0.1,0.1-0.2,0.1-0.3
					c0-0.1,0.1-0.2,0.1-0.3c0-0.1,0.1-0.2,0.1-0.3c0-0.1,0-0.2,0.1-0.3c0-0.1,0-0.2,0-0.3c0-0.1,0-0.2,0-0.3c0-0.1,0-0.2,0-0.3
					c0-0.1,0-0.1,0-0.2c-0.1,0-0.3,0-0.4,0c-0.1,0-0.3,0-0.4-0.1c0,0.1,0,0.1-0.1,0.2c0,0.1-0.1,0.2-0.1,0.3c0,0.1-0.1,0.2-0.1,0.3
					c0,0.1,0,0.2-0.1,0.3c0,0.1,0,0.2,0,0.3c0,0.1,0,0.2,0,0.3c0,0.1,0,0.2,0,0.3c0,0.1,0,0.2,0,0.3c0,0.1,0,0.2,0.1,0.3L48.1,163.6
					z"/>
			</g>
			<g>
				<path class="st13" d="M46.2,156.8c0.1,0.1,0.2,0.2,0.3,0.2c0.1,0.1,0.2,0.2,0.3,0.2c0.1,0.1,0.2,0.1,0.3,0.2
					c0.1,0,0.1,0.1,0.2,0.1c0.1-0.3,0.3-0.6,0.5-0.8c0.2-0.2,0.5-0.3,0.8-0.4c0-0.1-0.1-0.2-0.1-0.2c0-0.1-0.1-0.2-0.2-0.4
					c-0.1-0.1-0.1-0.2-0.2-0.4c-0.1-0.1-0.1-0.2-0.2-0.3c-0.1-0.1-0.1-0.2-0.2-0.3c-0.1-0.1-0.2-0.2-0.2-0.3
					c-0.1-0.1-0.2-0.2-0.3-0.3c-0.1-0.1-0.2-0.2-0.3-0.3c-0.1-0.1-0.2-0.2-0.3-0.2c-0.1-0.1-0.2-0.2-0.3-0.2
					c-0.1-0.1-0.2-0.1-0.3-0.2c-0.1,0-0.1-0.1-0.2-0.1l0,0c-0.5-0.3-1.1-0.5-1.6-0.6c0,0.6,0.1,1.1,0.3,1.7l0,0
					c0,0.1,0.1,0.2,0.1,0.2c0,0.1,0.1,0.2,0.2,0.4c0.1,0.1,0.1,0.2,0.2,0.4c0.1,0.1,0.1,0.2,0.2,0.3c0.1,0.1,0.1,0.2,0.2,0.3
					c0.1,0.1,0.2,0.2,0.2,0.3c0.1,0.1,0.2,0.2,0.3,0.3C46,156.6,46.1,156.7,46.2,156.8z"/>
				<path class="st7" d="M47.8,158.7l-0.8-0.4c-0.1,0-0.1-0.1-0.2-0.1c-0.2-0.1-0.3-0.2-0.5-0.3c-0.1-0.1-0.2-0.2-0.4-0.3
					c-0.1-0.1-0.2-0.2-0.3-0.3l0,0c-0.1-0.1-0.2-0.2-0.3-0.3c-0.1-0.1-0.2-0.2-0.3-0.3c-0.1-0.1-0.2-0.2-0.3-0.3
					c-0.1-0.1-0.2-0.2-0.3-0.4c-0.1-0.1-0.1-0.2-0.2-0.4c-0.1-0.1-0.1-0.3-0.2-0.4c-0.1-0.1-0.1-0.3-0.2-0.4
					c-0.1-0.2-0.1-0.2-0.1-0.3l-0.2-0.5l0,0c-0.1-0.5-0.2-0.9-0.2-1.4l0-0.9l0.9,0.2c0.5,0.1,0.9,0.2,1.4,0.4l0,0l0.4,0.2
					c0.1,0,0.1,0.1,0.2,0.1c0.2,0.1,0.3,0.2,0.4,0.3c0.1,0.1,0.2,0.2,0.4,0.3c0.1,0.1,0.2,0.2,0.3,0.3c0.1,0.1,0.2,0.2,0.3,0.3
					c0.1,0.1,0.2,0.2,0.3,0.3c0.1,0.1,0.2,0.2,0.3,0.3c0.1,0.1,0.2,0.2,0.3,0.4c0.1,0.1,0.1,0.2,0.2,0.3c0.1,0.2,0.2,0.3,0.2,0.4
					c0.1,0.1,0.1,0.3,0.2,0.4c0.1,0.1,0.1,0.2,0.1,0.3l0.3,0.8l-0.9,0.1c-0.2,0-0.3,0.1-0.5,0.2c-0.1,0.1-0.2,0.3-0.3,0.4
					L47.8,158.7z M46.7,156.3c0.1,0.1,0.2,0.1,0.3,0.2c0.1,0,0.1,0.1,0.2,0.1c0.1-0.1,0.2-0.2,0.3-0.3c0.1-0.1,0.2-0.2,0.3-0.2
					c0-0.1-0.1-0.1-0.1-0.2c-0.1-0.1-0.1-0.2-0.2-0.3c-0.1-0.1-0.1-0.2-0.2-0.3c-0.1-0.1-0.1-0.2-0.2-0.3c-0.1-0.1-0.1-0.2-0.2-0.2
					c-0.1-0.1-0.2-0.2-0.2-0.2c-0.1-0.1-0.2-0.1-0.2-0.2c-0.1-0.1-0.2-0.1-0.3-0.2c-0.1-0.1-0.2-0.1-0.3-0.2l-0.2-0.1
					c-0.1-0.1-0.3-0.1-0.4-0.2c0,0.1,0.1,0.3,0.1,0.4l0.1,0.2c0,0.1,0.1,0.2,0.1,0.3c0,0.1,0.1,0.2,0.2,0.3c0.1,0.1,0.1,0.2,0.2,0.3
					c0.1,0.1,0.1,0.2,0.2,0.3c0.1,0.1,0.1,0.2,0.2,0.3c0.1,0.1,0.1,0.2,0.2,0.2C46.5,156.1,46.6,156.2,46.7,156.3z"/>
			</g>
			<g>
				<path class="st13" d="M49.9,155.2c-0.1,0.1-0.1,0.2-0.2,0.3c-0.1,0.1-0.1,0.2-0.2,0.4c-0.1,0.1-0.1,0.2-0.1,0.4
					c0,0.1-0.1,0.2-0.1,0.2c0.3,0,0.6,0.2,0.8,0.4c0.3,0.2,0.4,0.5,0.5,0.8c0.1,0,0.1-0.1,0.2-0.1c0.1-0.1,0.2-0.1,0.3-0.2
					c0.1-0.1,0.2-0.2,0.3-0.2c0.1-0.1,0.2-0.2,0.3-0.2c0.1-0.1,0.2-0.2,0.3-0.3c0.1-0.1,0.2-0.2,0.3-0.3c0.1-0.1,0.2-0.2,0.2-0.3
					c0.1-0.1,0.2-0.2,0.2-0.3c0.1-0.1,0.1-0.2,0.2-0.3c0.1-0.1,0.1-0.2,0.2-0.4c0.1-0.1,0.1-0.2,0.1-0.4c0-0.1,0.1-0.2,0.1-0.3l0,0
					c0.2-0.5,0.3-1.1,0.3-1.7c-0.6,0.1-1.1,0.3-1.6,0.6l0,0c-0.1,0-0.2,0.1-0.2,0.1c-0.1,0.1-0.2,0.1-0.3,0.2
					c-0.1,0.1-0.2,0.2-0.3,0.2c-0.1,0.1-0.2,0.2-0.3,0.2c-0.1,0.1-0.2,0.2-0.3,0.3c-0.1,0.1-0.2,0.2-0.3,0.3
					c-0.1,0.1-0.2,0.2-0.2,0.3C50,154.9,49.9,155.1,49.9,155.2z"/>
				<path class="st7" d="M50.2,158.7l-0.3-0.8c-0.1-0.2-0.2-0.3-0.3-0.4c-0.1-0.1-0.3-0.2-0.5-0.2l-0.9-0.1l0.3-0.8
					c0-0.1,0-0.1,0.1-0.2c0.1-0.2,0.1-0.4,0.2-0.5c0.1-0.1,0.1-0.3,0.2-0.4c0.1-0.1,0.1-0.2,0.2-0.4l0,0c0.1-0.1,0.2-0.2,0.3-0.4
					c0.1-0.1,0.2-0.2,0.3-0.3c0.1-0.1,0.2-0.2,0.3-0.3c0.1-0.1,0.2-0.2,0.3-0.3c0.1-0.1,0.2-0.2,0.3-0.3c0.1-0.1,0.2-0.2,0.4-0.3
					c0.1-0.1,0.2-0.1,0.3-0.2l0.1-0.1c0.1,0,0.1-0.1,0.2-0.1l0.5-0.2l0,0c0.4-0.2,0.9-0.3,1.3-0.4l0.9-0.2l0,0.9
					c0,0.5-0.1,1-0.2,1.4l0,0l-0.1,0.5c0,0.1-0.1,0.1-0.1,0.2l0,0.1c0,0.1-0.1,0.3-0.2,0.4c-0.1,0.1-0.1,0.3-0.2,0.4
					c-0.1,0.1-0.1,0.2-0.2,0.4c-0.1,0.1-0.2,0.2-0.2,0.4c-0.1,0.1-0.2,0.2-0.3,0.3c-0.1,0.1-0.2,0.2-0.3,0.3
					c-0.1,0.1-0.2,0.2-0.3,0.3c-0.1,0.1-0.2,0.2-0.3,0.3c-0.1,0.1-0.2,0.2-0.4,0.3c-0.1,0.1-0.3,0.2-0.4,0.2
					c-0.1,0.1-0.2,0.1-0.2,0.1L50.2,158.7z M50.3,156c0.1,0.1,0.2,0.1,0.3,0.2c0.1,0.1,0.2,0.2,0.3,0.3c0.1,0,0.1-0.1,0.2-0.1
					c0.1-0.1,0.2-0.1,0.2-0.2c0.1-0.1,0.2-0.2,0.2-0.2c0.1-0.1,0.2-0.2,0.2-0.2c0.1-0.1,0.1-0.2,0.2-0.3c0.1-0.1,0.1-0.2,0.2-0.3
					c0.1-0.1,0.1-0.2,0.2-0.3c0.1-0.1,0.1-0.2,0.2-0.3c0-0.1,0.1-0.2,0.1-0.3l0.1-0.2c0-0.1,0.1-0.3,0.1-0.4
					c-0.1,0.1-0.3,0.1-0.4,0.2l-0.2,0.1c-0.1,0.1-0.2,0.1-0.3,0.2c-0.1,0.1-0.2,0.1-0.3,0.2c-0.1,0.1-0.2,0.1-0.3,0.2
					c-0.1,0.1-0.2,0.2-0.2,0.2c-0.1,0.1-0.2,0.2-0.2,0.2c-0.1,0.1-0.1,0.2-0.2,0.3c-0.1,0.1-0.1,0.2-0.2,0.3
					c-0.1,0.1-0.1,0.2-0.2,0.3C50.3,155.9,50.3,156,50.3,156z"/>
			</g>
			<g>
				<path class="st13" d="M52.1,158.6c-0.1,0-0.2-0.1-0.4-0.1c-0.1,0-0.3-0.1-0.4-0.1c-0.1,0-0.3-0.1-0.4-0.1c-0.1,0-0.2,0-0.2-0.1
					c0,0.3-0.1,0.6-0.2,0.9c-0.2,0.3-0.4,0.5-0.7,0.6c0.1,0.1,0.1,0.1,0.2,0.2c0.1,0.1,0.2,0.2,0.3,0.3c0.1,0.1,0.2,0.2,0.3,0.3
					c0.1,0.1,0.2,0.2,0.3,0.2c0.1,0.1,0.2,0.2,0.3,0.2c0.1,0.1,0.2,0.1,0.3,0.2c0.1,0.1,0.2,0.1,0.3,0.2c0.1,0.1,0.2,0.1,0.4,0.2
					c0.1,0,0.2,0.1,0.4,0.1c0.1,0,0.3,0.1,0.4,0.1c0.1,0,0.3,0.1,0.4,0.1c0.1,0,0.2,0,0.3,0.1l0,0c0.6,0.1,1.1,0.1,1.7,0
					c-0.2-0.5-0.5-1-0.8-1.5l0,0c-0.1-0.1-0.1-0.1-0.2-0.2c-0.1-0.1-0.2-0.2-0.3-0.3c-0.1-0.1-0.2-0.2-0.3-0.3
					c-0.1-0.1-0.2-0.2-0.3-0.2c-0.1-0.1-0.2-0.2-0.3-0.2c-0.1-0.1-0.2-0.1-0.3-0.2c-0.1-0.1-0.2-0.1-0.3-0.2
					C52.4,158.7,52.3,158.6,52.1,158.6z"/>
				<path class="st7" d="M54,162.7l-0.5-0.1c-0.1,0-0.2,0-0.2,0c-0.2,0-0.4-0.1-0.5-0.1c-0.1,0-0.3-0.1-0.4-0.1
					c-0.1,0-0.3-0.1-0.4-0.1c-0.1-0.1-0.3-0.1-0.4-0.2c-0.1-0.1-0.3-0.1-0.4-0.2c-0.1-0.1-0.2-0.2-0.4-0.2c-0.1-0.1-0.2-0.2-0.4-0.3
					c-0.1-0.1-0.2-0.2-0.3-0.3c-0.1-0.1-0.2-0.2-0.3-0.3c-0.1-0.1-0.2-0.2-0.3-0.3c-0.1-0.1-0.1-0.2-0.2-0.2l-0.6-0.7l0.8-0.4
					c0.2-0.1,0.3-0.2,0.4-0.4c0.1-0.1,0.1-0.3,0.1-0.5l0-0.9l0.9,0.1c0.1,0,0.1,0,0.2,0l0.1,0c0.1,0,0.3,0.1,0.4,0.1
					c0.1,0,0.3,0.1,0.4,0.1c0.1,0,0.3,0.1,0.4,0.1l0,0c0.1,0.1,0.3,0.1,0.4,0.2c0.1,0.1,0.2,0.1,0.4,0.2c0.1,0.1,0.2,0.2,0.4,0.2
					c0.1,0.1,0.2,0.2,0.4,0.3c0.1,0.1,0.2,0.2,0.3,0.3c0.1,0.1,0.2,0.2,0.3,0.3c0.1,0.1,0.2,0.2,0.3,0.3l0.1,0.1
					c0.1,0.1,0.1,0.1,0.2,0.2l0.3,0.4l0,0c0.3,0.4,0.5,0.8,0.7,1.3l0.3,0.9l-0.9,0.2C55,162.7,54.5,162.7,54,162.7L54,162.7z
					 M53.6,161.1l0.1,0c0.1,0,0.3,0,0.4,0c-0.1-0.1-0.2-0.2-0.2-0.3l-0.1-0.2c-0.1-0.1-0.2-0.2-0.2-0.3c-0.1-0.1-0.2-0.2-0.3-0.2
					c-0.1-0.1-0.2-0.1-0.2-0.2c-0.1-0.1-0.2-0.1-0.3-0.2c-0.1-0.1-0.2-0.1-0.3-0.2c-0.1-0.1-0.2-0.1-0.3-0.1
					c-0.1-0.1-0.2-0.1-0.3-0.1c-0.1,0-0.2-0.1-0.3-0.1c-0.1,0-0.1,0-0.2-0.1c0,0.1-0.1,0.3-0.2,0.4c-0.1,0.1-0.1,0.2-0.2,0.3
					c0,0,0.1,0.1,0.1,0.1c0.1,0.1,0.2,0.1,0.2,0.2c0.1,0.1,0.2,0.1,0.3,0.2c0.1,0.1,0.2,0.1,0.3,0.2c0.1,0.1,0.2,0.1,0.3,0.2
					c0.1,0,0.2,0.1,0.3,0.1c0.1,0,0.2,0.1,0.3,0.1c0.1,0,0.2,0.1,0.3,0.1c0.1,0,0.2,0,0.3,0.1L53.6,161.1z"/>
			</g>
		</g>
	</g>
	<path class="st14" d="M614.4,144.5h-7.8c-0.4,0-0.8-0.3-0.8-0.8V72c0-2.6,2.1-4.7,4.7-4.7s4.7,2.1,4.7,4.7v71.8
		C615.2,144.2,614.9,144.5,614.4,144.5z M607.4,143h6.3V72c0-1.7-1.4-3.2-3.2-3.2s-3.2,1.4-3.2,3.2V143z"/>
	<path class="st8" d="M646.1,144.5h-7.8c-0.4,0-0.8-0.3-0.8-0.8V87.4c0-2.6,2.1-4.7,4.7-4.7s4.7,2.1,4.7,4.7v56.4
		C646.8,144.2,646.5,144.5,646.1,144.5z M639,143h6.3V87.4c0-1.7-1.4-3.2-3.2-3.2s-3.2,1.4-3.2,3.2V143z"/>
	<circle class="st14" cx="258.5" cy="123.1" r="1.4"/>
	<circle class="st8" cx="240.5" cy="136.1" r="1.7"/>
	<path class="st8" d="M304.8,102.3l-5,3.7c-0.2,0.1-0.3,0.4-0.2,0.6c0.1,0.3,0.4,0.4,0.6,0.3l4.2-1.4l1.1,4.5
		c0.1,0.2,0.2,0.4,0.5,0.4c0.3,0,0.5-0.2,0.5-0.5l0.4-6.5l0.2-2.9L304.8,102.3z"/>
	<path class="st8" d="M229.5,153.9l0.9,6.4l-2-1.4l6-1.5c0.3-0.1,0.5,0.1,0.6,0.4c0.1,0.2,0,0.4-0.2,0.6l-5.3,3.2l-2.5,1.5l0.4-2.9
		l1-6.4c0-0.3,2.3-1.5,2.6-1.4C231.3,152.5,229.5,153.7,229.5,153.9z"/>
	<circle class="st14" cx="294.9" cy="132" r="1.4"/>
	<g>
		<path class="st15" d="M274.6,137.5"/>
	</g>
	<path class="st5" d="M425.8,180"/>
	<path class="st5" d="M154.1,193.1"/>
	<path class="st7" d="M758.4,172.4c-0.4,0-0.8-0.3-0.8-0.8v-11.7c0-0.4,0.3-0.8,0.8-0.8s0.8,0.3,0.8,0.8v11.7
		C759.1,172,758.8,172.4,758.4,172.4z"/>
	<g>
		<path class="st7" d="M758.7,156c0.3,0,0.5,0.1,0.8,0.2c0.9,0.4,1.2,1.5,0.8,2.3c-0.3,0.6-0.9,1-1.6,1c-0.3,0-0.5-0.1-0.8-0.2
			c-0.9-0.4-1.2-1.5-0.8-2.3C757.4,156.3,758.1,156,758.7,156 M758.7,154.5c-1.2,0-2.4,0.7-2.9,1.8c-0.8,1.6-0.1,3.5,1.5,4.3
			c0.4,0.2,0.9,0.3,1.4,0.3c1.2,0,2.4-0.7,2.9-1.8c0.4-0.8,0.4-1.7,0.1-2.5c-0.3-0.8-0.9-1.5-1.6-1.9
			C759.7,154.6,759.2,154.5,758.7,154.5L758.7,154.5z"/>
		<g>
			<path class="st13" d="M755.6,158.1c0.1,0,0.2,0,0.4,0c0.1,0,0.3,0,0.4,0c0.1,0,0.3,0,0.4,0c0.1,0,0.2,0,0.3,0
				c-0.1-0.3-0.1-0.6,0-0.9c0.1-0.3,0.3-0.6,0.5-0.8c-0.1-0.1-0.1-0.1-0.2-0.1c-0.1-0.1-0.2-0.2-0.3-0.2c-0.1-0.1-0.2-0.1-0.3-0.2
				c-0.1-0.1-0.2-0.1-0.3-0.2c-0.1-0.1-0.2-0.1-0.4-0.1c-0.1,0-0.2-0.1-0.4-0.1c-0.1,0-0.2-0.1-0.4-0.1c-0.1,0-0.3-0.1-0.4-0.1
				c-0.1,0-0.2,0-0.4,0c-0.1,0-0.3,0-0.4,0c-0.1,0-0.3,0-0.4,0c-0.1,0-0.2,0-0.3,0l0,0c-0.6,0.1-1.1,0.2-1.7,0.4
				c0.3,0.5,0.7,0.9,1.2,1.2l0,0c0.1,0.1,0.1,0.1,0.2,0.2c0.1,0.1,0.2,0.2,0.3,0.2c0.1,0.1,0.2,0.1,0.3,0.2c0.1,0.1,0.2,0.1,0.3,0.2
				c0.1,0.1,0.2,0.1,0.4,0.1c0.1,0,0.2,0.1,0.4,0.1c0.1,0,0.2,0.1,0.4,0.1C755.4,158.1,755.5,158.1,755.6,158.1z"/>
			<path class="st7" d="M756.4,158.9c-0.2,0-0.3,0-0.5,0c-0.1,0-0.3,0-0.4,0c-0.1,0-0.3,0-0.4-0.1c-0.1,0-0.3-0.1-0.4-0.1
				c-0.1,0-0.3-0.1-0.4-0.1c-0.1,0-0.3-0.1-0.4-0.2c-0.1-0.1-0.3-0.1-0.4-0.2c-0.2-0.1-0.3-0.1-0.4-0.2c-0.1-0.1-0.2-0.1-0.3-0.2
				l-0.1-0.1c-0.1,0-0.1-0.1-0.2-0.1l-0.4-0.3l0,0c-0.4-0.3-0.7-0.7-1-1.1l-0.5-0.8l0.8-0.4c0.4-0.2,0.9-0.3,1.4-0.4l0,0l0.5-0.1
				c0.1,0,0.2,0,0.2,0c0.2,0,0.4,0,0.5,0c0.1,0,0.3,0,0.4,0c0.1,0,0.3,0,0.4,0c0.1,0,0.3,0,0.4,0.1c0.1,0,0.3,0.1,0.4,0.1
				c0.1,0,0.3,0.1,0.4,0.1c0.1,0,0.3,0.1,0.4,0.2c0.1,0.1,0.3,0.1,0.4,0.2c0.1,0.1,0.3,0.1,0.4,0.2s0.2,0.2,0.4,0.3
				c0.1,0.1,0.2,0.1,0.2,0.2l0.7,0.5L758,157c-0.1,0.1-0.2,0.3-0.3,0.4c0,0.2,0,0.3,0,0.5l0.2,0.9l-0.9,0.1c-0.1,0-0.1,0-0.2,0
				C756.7,158.9,756.6,158.9,756.4,158.9z M753.5,156.5L753.5,156.5c0.2,0.1,0.3,0.2,0.4,0.2c0.1,0.1,0.2,0.1,0.3,0.2
				c0.1,0.1,0.2,0.1,0.3,0.2c0.1,0,0.2,0.1,0.3,0.1c0.1,0,0.2,0.1,0.3,0.1c0.1,0,0.2,0.1,0.3,0.1c0.1,0,0.2,0,0.3,0.1l0,0
				c0.1,0,0.2,0,0.3,0c0.1,0,0.1,0,0.2,0c0-0.1,0-0.3,0.1-0.4c0-0.1,0.1-0.3,0.1-0.4c-0.1,0-0.1-0.1-0.2-0.1
				c-0.1-0.1-0.2-0.1-0.3-0.1c-0.1,0-0.2-0.1-0.3-0.1c-0.1,0-0.2-0.1-0.3-0.1c-0.1,0-0.2-0.1-0.3-0.1c-0.1,0-0.2,0-0.3-0.1
				c-0.1,0-0.2,0-0.3,0c-0.1,0-0.2,0-0.4,0c-0.1,0-0.2,0-0.3,0l-0.2,0c-0.1,0-0.3,0-0.4,0.1c0.1,0.1,0.2,0.2,0.3,0.3L753.5,156.5z"
				/>
		</g>
		<g>
			<path class="st13" d="M757.7,160.7c0.1-0.1,0.1-0.2,0.2-0.3c0.1-0.1,0.1-0.2,0.2-0.3c0.1-0.1,0.1-0.2,0.2-0.4
				c0-0.1,0.1-0.2,0.1-0.2c-0.3-0.1-0.6-0.2-0.8-0.4c-0.2-0.2-0.4-0.5-0.5-0.8c-0.1,0-0.1,0.1-0.2,0.1c-0.1,0.1-0.2,0.1-0.3,0.2
				c-0.1,0.1-0.2,0.2-0.3,0.2c-0.1,0.1-0.2,0.1-0.3,0.2c-0.1,0.1-0.2,0.2-0.3,0.3c-0.1,0.1-0.2,0.2-0.3,0.3
				c-0.1,0.1-0.2,0.2-0.2,0.3c-0.1,0.1-0.2,0.2-0.2,0.3c-0.1,0.1-0.1,0.2-0.2,0.3c-0.1,0.1-0.1,0.2-0.2,0.3
				c-0.1,0.1-0.1,0.2-0.2,0.4c0,0.1-0.1,0.2-0.1,0.2l0,0c-0.2,0.5-0.3,1.1-0.3,1.7c0.6-0.1,1.1-0.3,1.6-0.5l0,0
				c0.1,0,0.2-0.1,0.2-0.1c0.1-0.1,0.2-0.1,0.3-0.2c0.1-0.1,0.2-0.2,0.3-0.2c0.1-0.1,0.2-0.1,0.3-0.2c0.1-0.1,0.2-0.2,0.3-0.3
				c0.1-0.1,0.2-0.2,0.3-0.3c0.1-0.1,0.2-0.2,0.2-0.3C757.6,160.9,757.7,160.8,757.7,160.7z"/>
			<path class="st7" d="M753.1,164l0-0.9c0-0.5,0.1-1,0.2-1.4l0,0l0.1-0.5c0-0.1,0.1-0.1,0.1-0.2c0.1-0.2,0.1-0.3,0.2-0.5
				c0.1-0.1,0.1-0.3,0.2-0.4c0.1-0.1,0.1-0.2,0.2-0.4c0.1-0.1,0.2-0.2,0.3-0.4c0.1-0.1,0.2-0.2,0.3-0.3c0.1-0.1,0.2-0.2,0.3-0.3
				c0.1-0.1,0.2-0.2,0.3-0.3c0.1-0.1,0.2-0.2,0.3-0.3c0.1-0.1,0.2-0.2,0.4-0.3c0.1-0.1,0.3-0.1,0.4-0.2l0.1-0.1
				c0.1,0,0.1-0.1,0.2-0.1l0.8-0.4l0.3,0.8c0.1,0.2,0.1,0.3,0.3,0.4c0.1,0.1,0.3,0.2,0.5,0.2l0.9,0.2l-0.3,0.8c0,0.1,0,0.1-0.1,0.2
				c-0.1,0.2-0.1,0.3-0.2,0.5c-0.1,0.1-0.1,0.2-0.2,0.4c-0.1,0.2-0.2,0.3-0.2,0.4c-0.1,0.1-0.2,0.2-0.3,0.4
				c-0.1,0.1-0.2,0.2-0.3,0.3c-0.1,0.1-0.2,0.2-0.3,0.3c-0.1,0.1-0.2,0.2-0.3,0.3c-0.1,0.1-0.2,0.2-0.3,0.3
				c-0.1,0.1-0.2,0.2-0.4,0.3c-0.1,0.1-0.3,0.2-0.4,0.2c-0.1,0.1-0.2,0.1-0.3,0.2l-0.5,0.2l0,0c-0.5,0.2-0.9,0.3-1.4,0.4L753.1,164z
				 M754.9,161.6l0,0.1c0,0.1-0.1,0.3-0.1,0.4c0.1-0.1,0.3-0.1,0.4-0.2l0.2-0.1c0.1-0.1,0.2-0.1,0.3-0.2c0.1-0.1,0.2-0.1,0.3-0.2
				c0.1-0.1,0.2-0.1,0.3-0.2c0.1-0.1,0.2-0.2,0.3-0.2c0.1-0.1,0.2-0.2,0.2-0.2c0.1-0.1,0.1-0.2,0.2-0.3c0.1-0.1,0.1-0.2,0.2-0.3l0,0
				c0.1-0.1,0.1-0.2,0.2-0.3c0-0.1,0.1-0.1,0.1-0.2c-0.1-0.1-0.2-0.2-0.3-0.2c-0.1-0.1-0.2-0.2-0.3-0.3c-0.1,0-0.1,0.1-0.2,0.1
				c-0.1,0.1-0.2,0.1-0.3,0.2c-0.1,0.1-0.2,0.2-0.3,0.2c-0.1,0.1-0.2,0.2-0.2,0.2c-0.1,0.1-0.1,0.2-0.2,0.2
				c-0.1,0.1-0.1,0.2-0.2,0.3c-0.1,0.1-0.1,0.2-0.2,0.3c-0.1,0.1-0.1,0.2-0.2,0.3c-0.1,0.1-0.1,0.2-0.1,0.3L754.9,161.6z"/>
		</g>
		<g>
			<path class="st13" d="M757.2,154.9c0,0.1,0.1,0.2,0.1,0.4c0,0.1,0.1,0.3,0.1,0.4c0,0.1,0.1,0.2,0.2,0.4c0,0.1,0.1,0.2,0.1,0.2
				c0.2-0.2,0.5-0.3,0.9-0.3c0.3,0,0.6,0,0.9,0.2c0-0.1,0-0.2,0.1-0.2c0-0.1,0.1-0.3,0.1-0.4c0-0.1,0-0.3,0.1-0.4c0-0.1,0-0.2,0-0.4
				c0-0.1,0-0.3,0-0.4c0-0.1,0-0.3,0-0.4c0-0.1,0-0.3-0.1-0.4c0-0.1,0-0.3-0.1-0.4c0-0.1-0.1-0.2-0.1-0.4c0-0.1-0.1-0.3-0.1-0.4
				c0-0.1-0.1-0.2-0.2-0.4c0-0.1-0.1-0.2-0.1-0.2l0,0c-0.3-0.5-0.6-1-1-1.4c-0.3,0.5-0.6,1-0.7,1.6l0,0c0,0.1,0,0.2-0.1,0.3
				c0,0.1-0.1,0.3-0.1,0.4c0,0.1,0,0.3-0.1,0.4c0,0.1,0,0.2,0,0.4c0,0.1,0,0.3,0,0.4c0,0.1,0,0.3,0,0.4c0,0.1,0,0.3,0.1,0.4
				C757.2,154.7,757.2,154.8,757.2,154.9z"/>
			<path class="st7" d="M757.5,157.4l-0.4-0.8c0-0.1-0.1-0.1-0.1-0.2c-0.1-0.2-0.2-0.3-0.2-0.5c-0.1-0.1-0.1-0.3-0.1-0.4
				c0-0.1-0.1-0.3-0.1-0.4c0-0.1-0.1-0.3-0.1-0.4c0-0.1,0-0.3-0.1-0.4c0-0.1,0-0.3,0-0.4c0-0.2,0-0.3,0-0.5c0-0.1,0-0.3,0-0.4
				c0-0.1,0-0.3,0.1-0.4c0-0.1,0.1-0.3,0.1-0.4c0-0.2,0-0.2,0.1-0.3l0.2-0.5c0.2-0.5,0.4-0.9,0.7-1.3l0.5-0.8l0.6,0.6
				c0.3,0.3,0.6,0.7,0.9,1.1l0,0l0.2,0.4c0,0.1,0.1,0.1,0.1,0.2c0.1,0.2,0.2,0.3,0.2,0.5c0.1,0.1,0.1,0.3,0.1,0.4
				c0,0.1,0.1,0.3,0.1,0.4c0,0.2,0.1,0.3,0.1,0.4c0,0.1,0,0.3,0.1,0.4c0,0.1,0,0.3,0,0.4c0,0.1,0,0.3,0,0.4c0,0.1,0,0.3,0,0.4
				c0,0.2,0,0.3-0.1,0.4s-0.1,0.3-0.1,0.4c0,0.1,0,0.2-0.1,0.3l-0.2,0.9l-0.8-0.4c-0.2-0.1-0.3-0.1-0.5-0.1c-0.2,0-0.3,0.1-0.5,0.2
				L757.5,157.4z M758,152.3L758,152.3c-0.1,0.2-0.1,0.3-0.1,0.4c0,0.1,0,0.2,0,0.3c0,0.1,0,0.2,0,0.3c0,0.1,0,0.2,0,0.3
				c0,0.1,0,0.2,0,0.3c0,0.1,0,0.2,0,0.3c0,0.1,0,0.2,0.1,0.3l0,0c0,0.1,0.1,0.2,0.1,0.3c0,0.1,0,0.1,0.1,0.2c0.1,0,0.3-0.1,0.4-0.1
				c0.1,0,0.3,0,0.4,0c0-0.1,0-0.1,0-0.2c0-0.1,0-0.2,0-0.3c0-0.1,0-0.2,0-0.3c0-0.1,0-0.2,0-0.3c0-0.1,0-0.2,0-0.3
				c0-0.1,0-0.2-0.1-0.3c0-0.1-0.1-0.2-0.1-0.3c0-0.1-0.1-0.2-0.1-0.3c0-0.1-0.1-0.2-0.1-0.3l-0.1-0.2c-0.1-0.1-0.1-0.3-0.2-0.4
				c-0.1,0.1-0.1,0.3-0.1,0.4L758,152.3z"/>
		</g>
		<g>
			<path class="st13" d="M761.2,155.7c-0.1,0-0.2,0.1-0.3,0.2c-0.1,0.1-0.2,0.1-0.4,0.2c-0.1,0.1-0.2,0.1-0.3,0.2
				c-0.1,0-0.1,0.1-0.2,0.1c0.2,0.2,0.4,0.5,0.5,0.8c0.1,0.3,0.1,0.6,0,0.9c0.1,0,0.2,0,0.3,0c0.1,0,0.3,0,0.4,0c0.1,0,0.3,0,0.4,0
				c0.1,0,0.2,0,0.4,0c0.1,0,0.3,0,0.4-0.1c0.1,0,0.2-0.1,0.4-0.1c0.1,0,0.2-0.1,0.4-0.1c0.1,0,0.2-0.1,0.4-0.1
				c0.1,0,0.2-0.1,0.3-0.2c0.1-0.1,0.2-0.1,0.3-0.2c0.1-0.1,0.2-0.1,0.3-0.2c0.1-0.1,0.2-0.1,0.2-0.1l0,0c0.5-0.4,0.9-0.8,1.2-1.2
				c-0.5-0.2-1.1-0.4-1.7-0.4l0,0c-0.1,0-0.2,0-0.3,0c-0.1,0-0.3,0-0.4,0c-0.1,0-0.3,0-0.4,0c-0.1,0-0.2,0-0.4,0
				c-0.1,0-0.3,0-0.4,0.1c-0.1,0-0.2,0.1-0.4,0.1c-0.1,0-0.2,0.1-0.4,0.1C761.5,155.6,761.3,155.7,761.2,155.7z"/>
			<path class="st7" d="M761.1,158.9c-0.1,0-0.3,0-0.5,0c-0.1,0-0.2,0-0.3,0l-0.9-0.1l0.2-0.9c0-0.2,0.1-0.4,0-0.5
				c0-0.2-0.1-0.3-0.3-0.4l-0.6-0.6l0.7-0.5c0.1,0,0.1-0.1,0.2-0.1c0.2-0.1,0.3-0.2,0.4-0.3c0.1-0.1,0.3-0.1,0.4-0.2
				c0.1-0.1,0.2-0.1,0.4-0.2l0,0c0.1-0.1,0.3-0.1,0.4-0.2c0.1,0,0.3-0.1,0.4-0.1c0.1,0,0.3-0.1,0.4-0.1c0.1,0,0.3-0.1,0.4-0.1
				c0.1,0,0.3,0,0.4,0c0.3,0,0.6,0,0.9,0c0.1,0,0.2,0,0.3,0l0.5,0.1c0.5,0.1,0.9,0.2,1.4,0.4l0.8,0.4l-0.5,0.7
				c-0.3,0.4-0.6,0.7-1,1.1l0,0l-0.4,0.3c-0.1,0-0.1,0.1-0.2,0.1l-0.1,0.1c-0.1,0.1-0.2,0.2-0.4,0.2s-0.3,0.1-0.4,0.2
				c-0.1,0.1-0.3,0.1-0.4,0.2c-0.1,0.1-0.3,0.1-0.4,0.2c-0.1,0-0.3,0.1-0.4,0.1c-0.1,0-0.3,0.1-0.4,0.1c-0.1,0-0.3,0.1-0.4,0.1
				c-0.1,0-0.3,0-0.4,0C761.4,158.9,761.3,158.9,761.1,158.9z M761,156.6c0.1,0.1,0.1,0.3,0.1,0.4c0,0.1,0.1,0.3,0.1,0.4
				c0.1,0,0.1,0,0.2,0c0.1,0,0.2,0,0.3,0c0.1,0,0.2,0,0.3-0.1c0.1,0,0.2,0,0.3-0.1c0.1,0,0.2-0.1,0.3-0.1c0.1,0,0.2-0.1,0.3-0.1
				c0.1,0,0.2-0.1,0.3-0.1c0.1-0.1,0.2-0.1,0.3-0.2c0.1-0.1,0.2-0.1,0.3-0.2l0.2-0.2c0.1-0.1,0.2-0.2,0.3-0.3c-0.1,0-0.3,0-0.4-0.1
				l-0.2,0c-0.2,0-0.5,0-0.7,0c-0.1,0-0.2,0-0.3,0c-0.1,0-0.2,0-0.3,0.1c-0.1,0-0.2,0-0.3,0.1c-0.1,0-0.2,0.1-0.3,0.1
				c-0.1,0-0.2,0.1-0.3,0.1c-0.1,0-0.2,0.1-0.3,0.1C761.2,156.6,761.1,156.6,761,156.6z"/>
		</g>
		<g>
			<path class="st13" d="M761.1,159.8c-0.1-0.1-0.1-0.2-0.2-0.3c-0.1-0.1-0.2-0.2-0.2-0.3c-0.1-0.1-0.2-0.2-0.3-0.3
				c-0.1-0.1-0.1-0.1-0.2-0.2c-0.2,0.3-0.4,0.5-0.7,0.6c-0.3,0.1-0.6,0.2-0.9,0.1c0,0.1,0,0.2,0,0.3c0,0.1,0,0.3,0,0.4
				c0,0.1,0.1,0.3,0.1,0.4c0,0.1,0.1,0.2,0.1,0.4c0,0.1,0.1,0.3,0.1,0.4c0,0.1,0.1,0.2,0.1,0.3c0.1,0.1,0.1,0.2,0.2,0.3
				c0.1,0.1,0.1,0.2,0.2,0.3c0.1,0.1,0.1,0.2,0.2,0.3c0.1,0.1,0.2,0.2,0.2,0.3c0.1,0.1,0.2,0.2,0.3,0.3c0.1,0.1,0.1,0.1,0.2,0.2l0,0
				c0.4,0.4,0.9,0.7,1.4,1c0.1-0.6,0.2-1.1,0.2-1.7l0,0c0-0.1,0-0.2,0-0.3c0-0.1,0-0.3,0-0.4c0-0.1-0.1-0.3-0.1-0.4
				c0-0.1-0.1-0.2-0.1-0.4c0-0.1-0.1-0.3-0.1-0.4c0-0.1-0.1-0.2-0.1-0.3c-0.1-0.1-0.1-0.2-0.2-0.3
				C761.3,160,761.2,159.9,761.1,159.8z"/>
			<path class="st7" d="M762.4,165.4l-0.8-0.4c-0.4-0.2-0.8-0.5-1.2-0.8l0,0l-0.4-0.3c-0.1-0.1-0.1-0.1-0.2-0.2
				c-0.2-0.2-0.3-0.3-0.4-0.4c-0.1-0.1-0.2-0.2-0.3-0.4c-0.1-0.1-0.2-0.2-0.2-0.3c-0.1-0.1-0.2-0.3-0.2-0.4
				c-0.1-0.1-0.1-0.2-0.2-0.4c-0.1-0.1-0.1-0.3-0.2-0.4c-0.1-0.1-0.1-0.3-0.2-0.4c0-0.1-0.1-0.3-0.1-0.4c0-0.1-0.1-0.3-0.1-0.4
				c0-0.1,0-0.3,0-0.4l0-0.1c0-0.1,0-0.1,0-0.2l0-0.9l0.9,0.1c0.2,0,0.4,0,0.5-0.1c0.2-0.1,0.3-0.2,0.4-0.3l0.5-0.7l0.6,0.6
				c0,0,0.1,0.1,0.1,0.1c0.2,0.2,0.3,0.3,0.4,0.4c0.1,0.1,0.2,0.2,0.3,0.4c0.1,0.1,0.2,0.2,0.2,0.3l0,0c0.1,0.1,0.2,0.3,0.2,0.4
				c0.1,0.1,0.1,0.2,0.2,0.4c0.1,0.1,0.1,0.3,0.2,0.4c0.1,0.1,0.1,0.3,0.2,0.4c0,0.1,0.1,0.3,0.1,0.4c0,0.1,0.1,0.3,0.1,0.4
				c0,0.2,0,0.3,0.1,0.5c0,0.1,0,0.2,0,0.3l0,0.5l0,0c0,0.5-0.1,1-0.2,1.4L762.4,165.4z M760.9,162.7L760.9,162.7
				c0.2,0.2,0.3,0.3,0.4,0.3c0-0.1,0-0.3,0-0.4l0-0.2c0-0.1,0-0.2,0-0.3c0-0.1,0-0.2-0.1-0.3c0-0.1,0-0.2-0.1-0.3
				c0-0.1-0.1-0.2-0.1-0.3c0-0.1-0.1-0.2-0.1-0.3c0-0.1-0.1-0.2-0.2-0.3c-0.1-0.1-0.1-0.2-0.2-0.3l0,0c-0.1-0.1-0.1-0.2-0.2-0.3
				c0-0.1-0.1-0.1-0.1-0.2c-0.1,0.1-0.2,0.1-0.4,0.2c-0.1,0.1-0.2,0.1-0.4,0.1c0,0.1,0,0.1,0,0.2c0,0.1,0.1,0.2,0.1,0.3
				c0,0.1,0.1,0.2,0.1,0.3c0,0.1,0.1,0.2,0.1,0.3c0,0.1,0.1,0.2,0.2,0.3c0.1,0.1,0.1,0.2,0.2,0.3c0.1,0.1,0.1,0.2,0.2,0.2
				c0.1,0.1,0.2,0.2,0.2,0.3c0.1,0.1,0.1,0.2,0.2,0.2L760.9,162.7z"/>
		</g>
	</g>
	<g>
		<g>
			<rect x="488.3" y="152.3" class="st16" width="12.5" height="12.5"/>
			<path class="st7" d="M500.7,152.3v12.5h-12.5v-12.5H500.7 M502.2,150.8h-1.5h-12.5h-1.5v1.5v12.5v1.5h1.5h12.5h1.5v-1.5v-12.5
				V150.8L502.2,150.8z"/>
		</g>
	</g>
	<g>
		<g>
			<rect x="506.3" y="152.3" class="st16" width="12.5" height="12.5"/>
			<path class="st7" d="M518.7,152.3v12.5h-12.5v-12.5H518.7 M520.2,150.8h-1.5h-12.5h-1.5v1.5v12.5v1.5h1.5h12.5h1.5v-1.5v-12.5
				V150.8L520.2,150.8z"/>
		</g>
	</g>
	<path class="st17" d="M631.6,91.7c-2.6,0-4.7,2.1-4.7,4.7v47.4c0,0.4,0.3,0.8,0.8,0.8h7.8c0.4,0,0.8-0.3,0.8-0.8V96.3
		C636.3,93.8,634.2,91.7,631.6,91.7z M634.8,143h-6.3V96.3c0-1.7,1.4-3.2,3.2-3.2s3.2,1.4,3.2,3.2V143z"/>
	<path class="st17" d="M600,103.7c-2.6,0-4.7,2.1-4.7,4.7v35.4c0,0.4,0.3,0.8,0.8,0.8h7.8c0.4,0,0.8-0.3,0.8-0.8v-35.4
		C604.7,105.8,602.6,103.7,600,103.7z M603.2,143h-6.3v-34.7c0-1.7,1.4-3.2,3.2-3.2s3.2,1.4,3.2,3.2V143z"/>
	<path class="st17" d="M276.5,130.8c-0.8,0-1.4,0.6-1.4,1.4c0,0.8,0.6,1.4,1.4,1.4c0.8,0,1.4-0.6,1.4-1.4
		C278,131.5,277.3,130.8,276.5,130.8z"/>
	<path class="st17" d="M497.7,155.1c-0.3-0.3-0.8-0.2-1.1,0.1l-2.1,2.5l-2.1-2.5c-0.3-0.3-0.7-0.4-1.1-0.1c-0.3,0.3-0.4,0.7-0.1,1.1
		l2.3,2.7l-2.3,2.7c-0.3,0.3-0.2,0.8,0.1,1.1c0.1,0.1,0.3,0.2,0.5,0.2c0.2,0,0.4-0.1,0.6-0.3l2.1-2.5l2.1,2.5
		c0.1,0.2,0.4,0.3,0.6,0.3c0.2,0,0.3-0.1,0.5-0.2c0.3-0.3,0.4-0.7,0.1-1.1l-2.3-2.7l2.3-2.7C498,155.8,498,155.4,497.7,155.1z"/>
	<g>
		<text transform="matrix(1 0 0 1 509.3526 162.9202)" class="st18 st19 st20">?</text>
	</g>
</g>
<g id="Layer_3" class="st21">
	<path class="st22" d="M160.5,108.7c0.4,0,0.8,0.2,1.1,0.5l7.6,10.9c0,0.9-0.7,1.5-1.5,1.5l-2.5,0c0.5,0,1,0.2,1.3,0.5l3.7,5.5
		c0,1-0.8,1.8-1.8,1.8c0.6,0,1.1,0.2,1.5,0.6l4.2,6.1c0,1.1-0.9,2-2,2l-0.8,0.3c0.6,0,1.2,0.2,1.6,0.7l4.5,6.8
		c0,1.2-1.1,2.2-2.3,2.2l4.8,7.5c0,1.4-1.1,2.5-2.5,2.5h-33.1c-1.4,0-2.5-1.1-2.5-2.5l4.8-7.5c-1.2,0-2.3-1-2.3-2.2l4.5-6.8
		c0.4-0.4,1-0.7,1.6-0.7l-0.8-0.3c-1.1,0-2-0.9-2-2l4.2-6.1c0.4-0.4,0.9-0.6,1.4-0.6c-1,0-1.8-0.8-1.8-1.8l3.7-5.5
		c0.3-0.3,0.8-0.5,1.3-0.5l-2.4-0.2c-0.9,0-1.5-0.7-1.5-1.5l7.3-10.7C159.7,108.9,160.1,108.7,160.5,108.7"/>
	<g class="st23">
		<path class="st3" d="M884.8,172.9v-0.1c-3.4,0-6.2-2.8-6.2-6.2v-7c0-4.3-3.5-7.8-7.8-7.8h-53.3c-4.3,0-7.8,3.5-7.8,7.8v7
			c0,3.4-2.8,6.2-6.2,6.2v0l-15.7,0v1.5l15.8,0v0c4.2-0.1,7.6-3.5,7.6-7.7v-7c0-3.4,2.8-6.2,6.2-6.2h53.3c3.4,0,6.2,2.8,6.2,6.2v7
			c0,4.1,3.3,7.5,7.4,7.7v0.1H921v-1.5H884.8z"/>
		<path class="st3" d="M144.1,158.9h33.1c1.8,0,3.2-1.5,3.2-3.2c0-0.1,0-0.3-0.1-0.4l-4.2-6.6c1.1-0.5,1.9-1.5,1.9-2.7
			c0-0.1,0-0.3-0.1-0.4l-4.5-6.8c0,0-0.1-0.1-0.1-0.1c0,0,0,0,0,0c0.9-0.5,1.5-1.4,1.5-2.5c0-0.2,0-0.3-0.1-0.4l-4.2-6.1
			c0,0-0.1-0.1-0.1-0.1c0,0-0.1-0.1-0.1-0.1c0.4-0.5,0.7-1.1,0.7-1.8c0-0.2,0-0.3-0.1-0.4l-3.3-4.9l0.2,0c1.3,0,2.3-1,2.3-2.3
			c0-0.2,0-0.3-0.1-0.4l-7.6-10.9c0,0-0.1-0.1-0.1-0.1c-0.4-0.4-1-0.7-1.6-0.7v0c-0.6,0-1.2,0.2-1.6,0.7c0,0-0.1,0.1-0.1,0.1
			l-7.3,10.7c-0.1,0.1-0.1,0.3-0.1,0.4c0,1.3,1,2.3,2.2,2.3c0,0,0,0,0,0l0.3,0l-3.4,5c-0.1,0.1-0.1,0.3-0.1,0.4
			c0,0.7,0.3,1.3,0.7,1.8c0,0-0.1,0.1-0.1,0.1c0,0-0.1,0.1-0.1,0.1l-4.2,6.1c-0.1,0.1-0.1,0.3-0.1,0.4c0,1.1,0.6,2,1.5,2.5
			c0,0,0,0,0,0c0,0-0.1,0.1-0.1,0.1l-4.5,6.8c-0.1,0.1-0.1,0.3-0.1,0.4c0,1.2,0.8,2.3,1.9,2.7l-4.2,6.6c-0.1,0.1-0.1,0.3-0.1,0.4
			C140.9,157.4,142.3,158.9,144.1,158.9z M147.1,148.5c0.1-0.2,0.2-0.5,0-0.8c-0.1-0.2-0.4-0.4-0.7-0.4c-0.8,0-1.4-0.6-1.6-1.3
			l4.3-6.5c0.3-0.3,0.6-0.4,1-0.4c0.4,0,0.7-0.3,0.7-0.6c0.1-0.4-0.1-0.7-0.5-0.8l-0.8-0.3c-0.1,0-0.2,0-0.3,0
			c-0.6,0-1.2-0.5-1.3-1.1l4-5.8c0.2-0.2,0.5-0.3,0.8-0.3c0.4,0,0.8-0.3,0.8-0.8s-0.3-0.8-0.8-0.8c-0.5,0-1-0.4-1.1-0.9l3.5-5.2
			c0.2-0.2,0.4-0.3,0.7-0.3c0.4,0,0.7-0.3,0.7-0.7s-0.3-0.7-0.7-0.8l-2.5-0.2c-0.4,0-0.7-0.3-0.8-0.6l7.1-10.4
			c0.1-0.1,0.3-0.2,0.5-0.2v0c0.2,0,0.3,0.1,0.5,0.2l7.3,10.6c-0.1,0.3-0.4,0.6-0.8,0.6l-2.5,0c0,0,0,0,0,0h0
			c-0.4,0-0.7,0.3-0.7,0.8c0,0.4,0.3,0.7,0.8,0.7c0.3,0,0.5,0.1,0.7,0.3l3.5,5.2c-0.1,0.5-0.5,0.9-1,0.9c-0.4,0-0.8,0.3-0.8,0.8
			s0.3,0.8,0.8,0.8c0.3,0,0.7,0.1,0.9,0.3l4,5.8c-0.1,0.6-0.6,1.1-1.3,1.1c-0.1,0-0.2,0-0.3,0l-0.8,0.3c-0.3,0.1-0.5,0.5-0.5,0.8
			c0.1,0.4,0.4,0.6,0.7,0.6c0.4,0,0.7,0.1,1,0.4l4.3,6.5c-0.1,0.7-0.8,1.3-1.6,1.3c-0.3,0-0.5,0.1-0.7,0.4c-0.1,0.2-0.1,0.5,0,0.8
			l4.7,7.3c-0.1,0.9-0.8,1.5-1.7,1.5h-33.1c-0.9,0-1.6-0.7-1.7-1.5L147.1,148.5z"/>
		<path class="st3" d="M457.5,159H480c1.8,0,3.2-1.5,3.2-3.2V146c0-1.8-1.5-3.2-3.2-3.2h-22.5c-1.8,0-3.2,1.5-3.2,3.2v9.8
			C454.2,157.5,455.7,159,457.5,159z M455.7,146c0-1,0.8-1.8,1.8-1.8H480c1,0,1.8,0.8,1.8,1.8v9.8c0,1-0.8,1.8-1.8,1.8h-22.5
			c-1,0-1.8-0.8-1.8-1.8V146z"/>
		<path class="st3" d="M523.3,123.5c4.1,0,7.5-3.4,7.5-7.5c0-2.9-1.6-5.3-4-6.6v1.1c0,2-1.6,3.6-3.6,3.6c-2,0-3.6-1.6-3.6-3.6v-1.1
			c-2.4,1.3-4,3.8-4,6.6C515.8,120.1,519.1,123.5,523.3,123.5z M518.5,112.2c0.7,1.9,2.6,3.2,4.7,3.2c2.1,0,4-1.3,4.7-3.2
			c0.8,1,1.3,2.3,1.3,3.7c0,3.3-2.7,6-6,6c-3.3,0-6-2.7-6-6C517.3,114.6,517.7,113.3,518.5,112.2z"/>
		<path class="st3" d="M586.1,105.8L586.1,105.8c-1-0.1-1.8-0.9-1.8-1.8v-5.3c0-1,0.8-1.8,1.8-1.8h119c1,0,1.8,0.8,1.8,1.8v5.3
			c0,0.8-0.6,1.5-1.3,1.7v0c-2.4,0-4.3,1.9-4.3,4.3h1.5c0-1.4,1-2.5,2.4-2.7v0c1.8,0,3.2-1.5,3.2-3.2v-5.3c0-1.8-1.5-3.2-3.2-3.2
			h-119c-1.8,0-3.2,1.5-3.2,3.2v5.3c0,1.8,1.4,3.2,3.2,3.2v0.1c1.5,0,2.7,1.2,2.8,2.7h0v56c0,3.4-2.8,6.2-6.2,6.2l-14.8,0v0l-5.6,0
			c-3.4,0-6.2-2.8-6.2-6.2v-39.4c0-1.5-1-2.8-2.4-3.1v-18c0-4.3-3.5-7.8-7.8-7.8h-15.3c-4.3,0-7.8,3.5-7.8,7.8v2.6
			c-0.9,0.3-1.6,1.1-1.6,2.2c0,1.3,1,2.3,2.3,2.3s2.3-1,2.3-2.3c0-1-0.6-1.8-1.5-2.1v-2.6c0-3.4,2.8-6.2,6.2-6.2h15.3
			c3.4,0,6.2,2.8,6.2,6.2v17.9c-1.5,0.3-2.6,1.6-2.6,3.2v8.5v0.7v30.3c0,3.4-2.8,6.2-6.2,6.2l-5.3,0l0,0c-3.1-0.3-5.6-3-5.6-6.2v-9
			h0V156c0-1.8-1.5-3.2-3.2-3.2h-27.6c-1.8,0-3.2,1.5-3.2,3.2v1.4h0.1v8.8c0,3.4-2.8,6.2-6.2,6.2v0.1l-13.5,0
			c-0.8,0-1.5-0.6-1.7-1.3c0-0.2-0.1-1.1-0.1-1.4c0-1,0.8-1.8,1.8-1.8h3.9c1.8,0,3.2-1.5,3.2-3.2v-1.4c0-1.8-1.5-3.2-3.2-3.2h-27.6
			c-1.8,0-3.2,1.5-3.2,3.2v1.4c0,1.8,1.5,3.2,3.2,3.2h5c1,0,1.8,0.8,1.8,1.8c0,0.1,0,1.1,0,1.3c-0.1,0.8-0.9,1.5-1.7,1.5h-9.2
			l-7.9,0.1c-4.1,0-7.4-3.3-7.4-7.4l0-20.8c0-2-1.6-3.7-3.7-3.7c-2,0-3.6,1.6-3.6,3.6l0,20.8c0,3.6-2.7,6.7-6.1,7.3v0l-21.8,0
			c-3.4,0-6.2-2.8-6.2-6.2v-44h0v-6c0-4.3-3.5-7.8-7.8-7.8h-78.8c-4.3,0-7.8,3.5-7.8,7.8v50c0,3.4-2.8,6.2-6.2,6.2h-21.2
			c-3.4,0-6.2-2.8-6.2-6.3c0-4.3-3.5-7.8-7.8-7.8h-33.3c-4.3,0-7.8,3.5-7.8,7.8c0,3.4-2.8,6.2-6.2,6.2l-40.9,0
			c-3.4,0-6.3-2.8-6.3-6.2l0-2.4c0-1.8-1.5-3.2-3.2-3.2c-1.8,0-3.2,1.4-3.2,3.2l0,2.4c0,3.4-2.8,6.2-6.2,6.2l-18.7,0
			c-3.1,0-5.6-2.5-5.6-5.6l0-33.1l0-2.2c0-1.7-1.4-3-3-3c-1.4,0-2.5,0.9-2.9,2.2l0,0c-6.1,11.6-17.9,18.8-31,18.8
			c-12.6,0-23.8-6.3-30-16.9c-0.1-1.4-1.2-2.4-2.9-2.4c-1.6,0-2.9,1.3-2.9,2.9l0,2.1l0,28.2c-0.2,4.9-4.3,8.8-9.2,8.8h-44v1.5h44
			c5.7,0,10.4-4.4,10.7-10l0-0.4c0-0.1,0-0.2,0-0.3l0-27.7l0-2.1c0-0.8,0.6-1.4,1.4-1.4c0.5,0,1.4,0.1,1.4,1.1v0.2l0.1,0.2
			c6.5,11.1,18.3,17.8,31.4,17.8c13.6,0,25.9-7.4,32.3-19.4h0.2c0-0.8,0.7-1.5,1.5-1.5c0.8,0,1.5,0.7,1.5,1.5l0.1,35.3
			c0,3.9,3.2,7.1,7.1,7.1l18.7,0c4.3,0,7.8-3.5,7.8-7.7l0-2.4c0-1,0.8-1.7,1.7-1.7c1,0,1.8,0.8,1.8,1.8l0,2.4c0,4.3,3.5,7.7,7.8,7.7
			l40.9,0c4.2,0,7.7-3.5,7.7-7.8c0-3.4,2.8-6.2,6.2-6.2h33.3c3.4,0,6.2,2.8,6.2,6.3c0,4.3,3.5,7.8,7.8,7.8h21.2
			c4.3,0,7.8-3.5,7.8-7.8v-50c0-3.4,2.7-6.1,6-6.2l79.1,0c3.4,0,6.2,2.8,6.2,6.2v43h0v7c0,4.3,3.5,7.8,7.8,7.8l20.6,0v0.1
			c4.9,0,8.9-4,8.9-8.9l0-20.8c0-1.2,0.9-2.1,2.1-2.1c1.2,0,2.2,1,2.2,2.2l0,20.8c0,4.9,4,8.9,8.9,8.9l7.9-0.1h9.2
			c1.6,0,3-1.2,3.2-2.7c0-0.2,0-1.5,0-1.5c0-0.6-0.2-1.2-0.5-1.8h13.2c-0.3,0.5-0.5,1.1-0.5,1.8c0,0,0,1.4,0.1,1.8
			c0.3,1.5,1.6,2.5,3.2,2.5l13.6,0l0-0.1c4.2-0.1,7.6-3.5,7.6-7.7v-9h-0.1V156c0-1,0.8-1.8,1.8-1.8h27.6c1,0,1.8,0.8,1.8,1.8v1.4h0
			v8.8c0,4.3,3.5,7.8,7.8,7.8v-0.1l4.6,0c4.3,0,7.8-3.5,7.8-7.8v-30.3v-0.7v-8.5c0-1,0.8-1.8,1.8-1.8s1.8,0.8,1.8,1.8V166
			c0,4.3,3.5,7.8,7.8,7.8l10.3,0v0l10.1,0c4.3,0,7.8-3.5,7.8-7.8v-55.9h0C590.4,107.7,588.5,105.9,586.1,105.8z M523.4,111
			c-0.4,0-0.8-0.3-0.8-0.8c0-0.4,0.3-0.8,0.8-0.8c0.4,0,0.8,0.3,0.8,0.8C524.2,110.7,523.8,111,523.4,111z M454.7,166.5
			c-1,0-1.8-0.8-1.8-1.8v-1.4c0-1,0.8-1.8,1.8-1.8h27.6c1,0,1.8,0.8,1.8,1.8v1.4c0,1-0.8,1.8-1.8,1.8H454.7z"/>
		<path class="st3" d="M579.5,93.2c0.7,0.5,1.6,0.7,2.5,0.7l2.9,0l60.8,0l60.8,0l2.9,0c1,0,1.9-0.3,2.5-0.7c0.8-0.5,1.2-1.3,1.2-2.1
			c0-0.6-0.2-1.4-1.1-2l-55.8-38.9l-0.2-0.1c-4.6-3.2-10.2-7.1-19.5-0.7l-57,39.6l0,0c-0.7,0.5-1.2,1.3-1.2,2.1
			C578.3,91.9,578.7,92.6,579.5,93.2z M580.2,90.3L580.2,90.3l57.1-39.7c8.4-5.9,13.2-2.5,17.8,0.7l56,39c0.4,0.3,0.5,0.6,0.5,0.8
			c0,0.4-0.3,0.7-0.6,0.9c-0.4,0.3-1,0.5-1.7,0.5l-2.9,0l-60.8,0l-60.8,0l-2.9,0c-0.6,0-1.3-0.2-1.7-0.5c-0.2-0.1-0.6-0.4-0.6-0.9
			C579.8,90.7,580,90.5,580.2,90.3z"/>
		<path class="st3" d="M762.5,130L762.5,130c4,0,7.6-2.4,9-5.9c1.2-3,0.9-6.3-0.9-8.9c-1.8-2.6-4.8-4.2-8.1-4.2
			c-3.9,0-7.6,2.4-9,5.9c-1.2,3-0.9,6.3,0.9,8.9C756.2,128.4,759.3,130,762.5,130z M754.9,117.4c1.2-3,4.3-5,7.6-5
			c2.8,0,5.3,1.4,6.8,3.6c1.5,2.2,1.8,5,0.8,7.5c-1.2,3-4.3,5-7.6,5v0.8l-0.1-0.8c-2.8,0-5.3-1.4-6.8-3.6
			C754.2,122.7,753.9,119.9,754.9,117.4z"/>
		<path class="st3" d="M787.6,151.1l0.2-0.2l0-0.3c0-0.1,0-0.2,0-0.3c1.4,0.6,2.2,0.6,2.7,0l0.1-0.1c0.1-0.3,0.3-0.8,0-1.4
			c-0.2-0.5-0.6-0.9-1.2-1.4c0.1,0,0.1-0.1,0.2-0.1c0.4-0.3,0.5-0.7,0.5-1.2c-0.2-1.1-1.6-2.1-4.4-3.2c-0.3-0.1-2.6-1-4.5-1.1
			c0,0-0.1,0-0.1-0.1c-0.1-0.1-0.3-0.2-0.5-0.4l-6.6-4.5l-0.9-1.1c-1.3-3-4.5-5.2-7.8-5.2c0,0,0,0,0,0l-3.6-0.2
			c-1.8,0-4.6,0.7-6.1,2.1c-0.6,0.6-1.4,1.7-2,2.8c-0.2,0.5-0.5,0.8-0.7,0.8c-0.2,0-0.4-0.1-0.5-0.1l-4.1-4
			c-0.2-0.2-0.4-0.4-0.5-0.5c-0.5-1.9-0.8-3.8-0.9-4.1l0-0.1c-0.2-1.2-0.8-3.1-1.7-4.5c-1.1-1.6-2.9-2.2-4.8-1.5l-0.5,0.2l0,0.5
			c0,0.1,0,0.1,0,0.2c-0.7-0.2-1.3-0.2-1.8-0.1c-0.4,0.1-0.8,0.4-0.9,0.8l0,0.2c-0.1,1.2,1.1,1.8,2.1,2.3c0.5,0.3,1.1,0.5,1.5,0.9
			c-0.5-0.2-0.9-0.3-1.3-0.3c-1.7,0.1-3.2,1.6-3.8,3.1l-0.1,0.6l0.4,0.3c0.4,0.3,0.8,0.1,1.2-0.1c1.3-0.6,2.3-0.8,3,0.3
			c0.2,0.3,0.4,0.6,0.6,0.9c0.2,0.3,0.7,1,0.6,1.1l-0.1,0.1c0,0.1-0.1,0.1-0.1,0.1c-0.3,0.1-1-0.1-3-1.5c-0.6-0.4-1-0.7-1.4-0.3
			l-0.1,0.1c-0.4,0.6-0.5,1.3-0.2,2.2c0.4,1.2,1.7,2.6,3.4,3c1.1,0.3,2.4,0.2,3.6,0c0.6-0.1,1.3-0.2,1.5-0.1
			c0.5,0.3,4.2,4.1,6.5,6.5l-1.4,15.5c-0.2,0.7-1,1.1-1.8,0.9l-3.5-2.7c0,0-0.1,0-0.1-0.1c-0.5-0.3-2.4-1.1-4.7-1.1
			c-1,0-2,0.2-2.9,0.5c-2.4,0.9-4.2,2.8-5.2,5.5l-0.2,0.6c0,0.1,0,0.1,0,0.2l-0.6,6.7c-0.8,2.6-3.2,4.4-6,4.4l-0.8,0l0,0l-14.5-0.1
			c-2,0-4-0.8-5.4-2.3c-1.2-1.3-1.9-2.9-1.8-4.5v-56h-1.5l0,56c-0.1,2,0.7,4,2.2,5.5c1.7,1.8,4.1,2.8,6.5,2.8l6.5,0v0.1l8.8,0
			c2.9,0,5.5-1.6,6.8-4c0.3-0.1,0.6-0.3,0.6-0.7l0.1-1.1c0.2-0.6,0.3-1.3,0.3-2H733l0.4-4.7l0.2-0.5c0.8-2.2,2.4-3.9,4.3-4.6
			c0.8-0.3,1.6-0.4,2.4-0.4c2,0,3.6,0.6,4,0.8l3.6,2.8c0.1,0.1,0.2,0.1,0.3,0.1c1.6,0.4,3.2-0.4,3.7-2c0,0,0-0.1,0-0.1l1.4-15.8
			c0-0.3-0.1-0.5-0.3-0.6l0.1-0.1c-1-1.1-6.3-6.4-7-6.9c-0.5-0.4-1.4-0.3-2.5-0.1c-1,0.1-2.2,0.3-3.1,0c-1.1-0.2-2-1.2-2.4-1.9
			c1.3,0.9,2.6,1.6,3.7,1.3c0.5-0.1,0.8-0.5,1-0.9c0.5-1-0.2-1.9-0.7-2.7c-0.2-0.3-0.4-0.5-0.6-0.9c-0.9-1.3-2.1-1.5-3.1-1.4
			c0.4-0.3,0.8-0.5,1.2-0.5c1,0,1.8,1.1,2.2,2.1l1.4-0.6c0-0.1-0.1-0.4-0.1-0.6c-0.1-1-0.3-2.4-1.2-3.2c-0.6-0.5-1.3-0.9-2-1.2
			c-0.3-0.1-0.7-0.3-1-0.5c0.7,0.1,1.9,0.5,3.4,1.7c0.6,0.9,0.9,1.7,1,2.1c0,0,0,0.1,0,0.1c0,0.2,0,0.4,0.1,0.5l0.1,0.5l1,0.2
			l0.3-0.4c0.1-0.2,0.1-0.6,0-1c-0.1-0.7-0.2-1.8-0.9-2.8c-0.3-0.7-0.9-1.3-1.5-1.7c0.5,0.1,1,0.4,1.5,1.1c0.7,1.1,1.2,2.7,1.4,3.8
			c0,0.6,0.4,2.6,0.9,4.4c0.1,0.4,0.3,0.6,0.5,0.7c0.1,0.1,0.2,0.1,0.4,0.3l4.3,4.1c0.7,0.6,1.4,0.6,1.8,0.5
			c0.7-0.2,1.3-0.8,1.6-1.6c0.5-0.9,1.2-1.8,1.7-2.3c1.2-1.1,3.5-1.7,5.1-1.7l3.6,0.2c2.7,0,5.5,1.9,6.5,4.4l1.1,1.5l6.9,4.8
			c0.2,0.1,0.3,0.2,0.4,0.3c0.2,0.2,0.4,0.4,0.9,0.4c1.7,0.2,3.9,0.9,4.1,1c1.9,0.7,2.8,1.3,3.2,1.6c-0.7-0.2-2.2-0.8-3.2-0.9
			c-0.1,0-0.2-0.1-0.3-0.1l0,0c-0.3,0-0.5,0-0.7,0.1l-0.4,0.3l0.3,0.9l0.4,0.1c1.9,0.5,4.1,2.1,4.7,2.9c-1-0.3-3.2-1.5-4-2
			c-0.6-0.4-1-0.6-1.2-0.7l-0.7,1.3c0.1,0.1,0.3,0.2,0.5,0.3c1.5,0.9,2.2,1.4,2.4,1.8c-0.7-0.1-1.8-0.9-2.4-1.4
			c-0.3-0.2-0.7-0.5-0.9-0.6c-0.2-0.1-0.4-0.3-0.5-0.4c-0.4-0.3-0.8-0.6-1.3-0.4l-0.5,0.3l0,0.5c0,0.2,0.1,0.6,0.2,1.1
			c0.1,0.4,0.2,1.2,0.3,1.6c-0.1,0-0.2,0-0.2,0c-0.1,0-0.4-0.3-0.7-2.1c0-0.2-0.1-0.4-0.1-0.6c-0.3-0.7-0.4-1.3-0.4-1.9
			c-0.1-0.7-0.2-1.2-0.5-1.7c-0.5-0.6-2.5-1.9-3.2-2.3c-0.8-0.4-1.4-0.3-1.8-0.2c-0.7,0.3-1.2,1-1.6,2l-0.1,0.2l3.3,22.6
			c0,4.2,3.4,7.6,7.7,7.6l3.8,0l0-1.5l-3.8,0c-3.5,0-6.2-2.7-6.2-6.1l-3.3-22.4c0.2-0.5,0.4-0.8,0.6-0.9c0,0,0.2-0.1,0.5,0.1
			c1.2,0.8,2.6,1.7,2.8,2c0.1,0.1,0.2,0.6,0.2,1c0.1,0.7,0.2,1.5,0.6,2.4c0,0,0,0.1,0,0.1c0.1,0.9,0.4,2.7,1.6,3.3
			c0.4,0.2,1.1,0.3,2-0.4l0.2-0.2c0.2-0.3,0.2-0.8,0-2c0.2,0.1,0.3,0.2,0.5,0.3C784.5,150.9,786.3,152.2,787.6,151.1z"/>
		<rect x="858.3" y="62" class="st3" width="1.5" height="31.5"/>
		<path class="st3" d="M307,188.4h78.6v-71.6H307V188.4z M308.5,170.4h18.1v16.6h-18.1V170.4z M345.5,170.4v16.6H328v-16.6H345.5z
			 M328,168.9v-15.5h17.5v15.5H328z M347,170.4h18.5v16.6H347V170.4z M347,168.9v-15.5h18.5v15.5H347z M367,153.4h17.1v15.5H367
			V153.4z M367,151.9v-16.5h17.1v16.5H367z M365.5,151.9H347v-16.5h18.5V151.9z M347,133.9v-15.6h18.5v15.6H347z M345.5,133.9H328
			v-15.6h17.5V133.9z M345.5,135.4v16.5H328v-16.5H345.5z M326.5,151.9h-18.1v-16.5h18.1V151.9z M326.5,153.4v15.5h-18.1v-15.5
			H326.5z M367,186.9v-16.6h17.1v16.6H367z M384.1,133.9H367v-15.6h17.1V133.9z M326.5,118.3v15.6h-18.1v-15.6H326.5z"/>
	</g>
	<path class="st24" d="M567.9,188.2"/>
	<rect x="779.9" y="177.9" class="st25" width="140.8" height="5"/>
	<path class="st26" d="M903.8,180.5"/>
	<g class="st23">
		<path class="st15" d="M298,172.8"/>
	</g>
	<polygon class="st25" points="729.9,182.9 709.1,182.9 703,182.9 702.9,177.9 709.1,177.9 730,177.9 	"/>
	<path class="st25" d="M296.9,182.9H128c-6.9,0-12.5-5.6-12.5-12.4l0-0.9c0-4-3.1-6.9-7.5-6.9H73c-4.1,0-7.5,3.4-7.5,7.5v0.2
		c0,6.9-5.6,12.5-12.5,12.5h-53v-5h53c4.1,0,7.5-3.4,7.5-7.5v-0.2c0-6.9,5.6-12.5,12.5-12.5h35c7.1,0,12.4,5.1,12.5,11.8l0,0.9
		c0,4.1,3.4,7.5,7.5,7.5h168.9V182.9z"/>
	<path class="st26" d="M893.4,173.4"/>
	<path class="st25" d="M89.3,145.6c-17.5,0-31.7-14.2-31.7-31.7s14.2-31.7,31.7-31.7c0.4,0,0.9,0.3,0.9,0.8v30.7h30.1
		c0.2,0,0.4,0.1,0.5,0.2c0.1,0.1,0.2,0.3,0.2,0.5C120.7,131.5,106.5,145.6,89.3,145.6z M88.7,83.6C72.3,83.9,59,97.4,59,113.8
		c0,16.7,13.6,30.2,30.2,30.2c16.2,0,29.6-12.9,30.2-29H89.4c-0.4,0-0.8-0.3-0.8-0.8V83.6z"/>
	<path class="st27" d="M125.3,110.8H92.9v-33l0.8,0c17.4,0.1,31.6,14.3,31.6,31.7c0,0.1,0,0.2,0,0.3L125.3,110.8z M94.4,109.3h29.4
		c-0.1-16.2-13.2-29.5-29.4-30V109.3z"/>
	<g class="st23">
		<path class="st28" d="M194.9,161.6c-0.1,0.1-0.1,0.1-0.2,0.2c-0.1,0.1-0.1,0.1-0.2,0.2c-0.1,0.1-0.1,0.1-0.2,0.2
			c0,0-0.1,0.1-0.1,0.1c0.2,0.1,0.4,0.2,0.5,0.4c0.1,0.2,0.2,0.4,0.2,0.6c0.1,0,0.1,0,0.2-0.1c0.1,0,0.2-0.1,0.3-0.1
			c0.1,0,0.2-0.1,0.2-0.1c0.1,0,0.2-0.1,0.2-0.1c0.1,0,0.2-0.1,0.2-0.1c0.1,0,0.1-0.1,0.2-0.1c0.1-0.1,0.1-0.1,0.2-0.2
			c0.1-0.1,0.1-0.1,0.2-0.2c0.1-0.1,0.1-0.1,0.2-0.2c0.1-0.1,0.1-0.1,0.2-0.2c0.1-0.1,0.1-0.1,0.2-0.2c0-0.1,0.1-0.1,0.1-0.1l0,0
			c0.2-0.3,0.4-0.7,0.5-1.1c-0.4,0-0.8,0-1.2,0.1l0,0c-0.1,0-0.1,0-0.2,0.1c-0.1,0-0.2,0.1-0.3,0.1c-0.1,0-0.2,0.1-0.2,0.1
			c-0.1,0-0.2,0.1-0.2,0.1c-0.1,0-0.2,0.1-0.2,0.1c-0.1,0-0.1,0.1-0.2,0.1c-0.1,0.1-0.1,0.1-0.2,0.2
			C195.1,161.5,195,161.6,194.9,161.6z"/>
		<path class="st7" d="M194.4,164.3l-0.1-0.9c0-0.1,0-0.2-0.1-0.2c0-0.1-0.1-0.1-0.2-0.1l-0.8-0.3l0.5-0.8c0,0,0.1-0.1,0.1-0.1
			c0.1-0.1,0.1-0.2,0.2-0.3c0.1-0.1,0.1-0.2,0.2-0.2c0.1-0.1,0.1-0.1,0.2-0.2c0.1-0.1,0.2-0.1,0.2-0.2c0.1-0.1,0.2-0.1,0.2-0.2
			c0.1-0.1,0.2-0.1,0.3-0.2c0.1-0.1,0.2-0.1,0.3-0.2c0.1,0,0.2-0.1,0.3-0.1c0.1,0,0.2-0.1,0.3-0.1c0.1,0,0.2-0.1,0.3-0.1
			c0.1,0,0.2-0.1,0.2-0.1l0.5-0.1l0,0c0.3,0,0.6,0,0.8,0l0.9,0l-0.2,0.9c-0.1,0.3-0.2,0.6-0.3,0.8l0,0L198,162
			c0,0.1-0.1,0.1-0.1,0.1c-0.1,0.1-0.2,0.2-0.2,0.3c-0.1,0.1-0.1,0.2-0.2,0.2c-0.1,0.1-0.1,0.1-0.2,0.2c-0.1,0.1-0.2,0.2-0.2,0.2
			c-0.1,0.1-0.2,0.1-0.2,0.2c-0.1,0.1-0.2,0.1-0.2,0.2c-0.1,0.1-0.2,0.1-0.3,0.2c-0.1,0-0.2,0.1-0.3,0.1c-0.1,0-0.2,0.1-0.3,0.1
			c-0.1,0-0.2,0.1-0.3,0.1c-0.1,0-0.1,0-0.2,0.1L194.4,164.3z M195.4,162.3C195.4,162.3,195.4,162.3,195.4,162.3
			c0.1,0.1,0.1,0.1,0.1,0.1c0,0,0.1,0,0.1-0.1c0.1,0,0.1-0.1,0.2-0.1c0.1,0,0.1-0.1,0.2-0.1c0.1,0,0.1-0.1,0.2-0.1
			c0.1,0,0.1-0.1,0.2-0.1c0,0,0.1-0.1,0.1-0.1c0-0.1,0.1-0.1,0.1-0.2c0,0,0,0,0-0.1c0,0,0,0-0.1,0c-0.1,0-0.1,0.1-0.2,0.1
			c-0.1,0-0.1,0.1-0.2,0.1c-0.1,0-0.1,0.1-0.2,0.1c-0.1,0-0.1,0.1-0.2,0.1c-0.1,0-0.1,0.1-0.2,0.1
			C195.6,162.1,195.5,162.1,195.4,162.3L195.4,162.3C195.4,162.2,195.4,162.2,195.4,162.3z"/>
	</g>
	<g class="st23">
		<path class="st28" d="M192.7,161.7c0,0.1,0.1,0.2,0.1,0.2c0,0.1,0.1,0.2,0.1,0.2c0,0.1,0.1,0.2,0.1,0.2c0,0.1,0.1,0.1,0.1,0.2
			c0.2-0.1,0.3-0.2,0.6-0.3c0.2,0,0.4,0,0.6,0.1c0-0.1,0-0.1,0-0.2c0-0.1,0-0.2,0-0.3c0-0.1,0-0.2,0-0.3c0-0.1,0-0.2,0-0.3
			c0-0.1,0-0.2,0-0.3c0-0.1,0-0.2,0-0.3c0-0.1,0-0.2-0.1-0.3c0-0.1,0-0.2-0.1-0.3c0-0.1-0.1-0.2-0.1-0.2c0-0.1-0.1-0.2-0.1-0.2
			c0-0.1-0.1-0.2-0.1-0.2c0-0.1-0.1-0.1-0.1-0.2l0,0c-0.2-0.3-0.5-0.6-0.8-0.9c-0.2,0.3-0.3,0.7-0.4,1.1l0,0c0,0.1,0,0.1,0,0.2
			c0,0.1,0,0.2,0,0.3c0,0.1,0,0.2,0,0.3c0,0.1,0,0.2,0,0.3c0,0.1,0,0.2,0,0.3c0,0.1,0,0.2,0,0.3c0,0.1,0,0.2,0.1,0.3
			C192.6,161.5,192.6,161.6,192.7,161.7z"/>
		<path class="st7" d="M192.9,163.7l-0.5-0.9c-0.1-0.1-0.1-0.2-0.2-0.3c0-0.1-0.1-0.2-0.1-0.3c0-0.1-0.1-0.2-0.1-0.3l0,0
			c0-0.1-0.1-0.2-0.1-0.3c0-0.1,0-0.2-0.1-0.3c0-0.1,0-0.2,0-0.3c0-0.1,0-0.2,0-0.3c0-0.1,0-0.2,0-0.3c0-0.1,0-0.2,0-0.3
			c0-0.1,0-0.2,0-0.3c0-0.1,0-0.2,0-0.2l0.2-0.5c0.1-0.3,0.2-0.5,0.3-0.8l0.4-0.8l0.7,0.6c0.2,0.2,0.4,0.4,0.6,0.6l0,0l0.3,0.5
			c0,0.1,0.1,0.1,0.1,0.2c0.1,0.1,0.1,0.2,0.2,0.3c0,0.1,0.1,0.2,0.1,0.3c0,0.1,0.1,0.2,0.1,0.3c0,0.1,0.1,0.2,0.1,0.3
			c0,0.1,0,0.2,0.1,0.3c0,0.1,0,0.2,0,0.3c0,0.1,0,0.2,0,0.3c0,0.1,0,0.2,0,0.3c0,0.1,0,0.2,0,0.3c0,0.1,0,0.2,0,0.3
			c0,0.1,0,0.1,0,0.2l-0.2,0.9L194,163c-0.1,0-0.2,0-0.2,0c-0.1,0-0.1,0-0.2,0.1L192.9,163.7z M193.2,160.1
			C193.2,160.2,193.2,160.2,193.2,160.1c0,0.1,0,0.2,0,0.3c0,0.1,0,0.1,0,0.2c0,0.1,0,0.1,0,0.2c0,0.1,0,0.1,0,0.2
			c0,0.1,0,0.1,0,0.2c0,0.1,0,0.1,0.1,0.2l0,0c0,0,0,0.1,0,0.1c0,0,0.1,0,0.1,0c0,0,0.1,0,0.1,0c0,0,0-0.1,0-0.1c0-0.1,0-0.1,0-0.2
			c0-0.1,0-0.1,0-0.2c0-0.1,0-0.1,0-0.2c0-0.1,0-0.1-0.1-0.2c0-0.1,0-0.1-0.1-0.2C193.3,160.3,193.3,160.3,193.2,160.1
			C193.3,160.2,193.2,160.2,193.2,160.1z"/>
	</g>
	<g class="st23">
		<path class="st28" d="M196,163.8c-0.1,0-0.2-0.1-0.2-0.1c-0.1,0-0.2-0.1-0.3-0.1c-0.1,0-0.2,0-0.3-0.1c-0.1,0-0.1,0-0.2,0
			c0,0.2-0.1,0.4-0.2,0.6c-0.1,0.2-0.3,0.3-0.5,0.4c0,0,0.1,0.1,0.1,0.1c0.1,0.1,0.1,0.1,0.2,0.2c0.1,0.1,0.1,0.1,0.2,0.2
			c0.1,0.1,0.1,0.1,0.2,0.2c0.1,0.1,0.1,0.1,0.2,0.2c0.1,0.1,0.1,0.1,0.2,0.1c0.1,0,0.1,0.1,0.2,0.1c0.1,0,0.2,0.1,0.2,0.1
			c0.1,0,0.2,0.1,0.2,0.1c0.1,0,0.2,0.1,0.3,0.1c0.1,0,0.2,0,0.3,0.1c0.1,0,0.1,0,0.2,0l0,0c0.4,0.1,0.8,0.1,1.2,0
			c-0.1-0.4-0.3-0.7-0.5-1l0,0c0-0.1-0.1-0.1-0.1-0.1c-0.1-0.1-0.1-0.1-0.2-0.2c-0.1-0.1-0.1-0.1-0.2-0.2c-0.1-0.1-0.1-0.1-0.2-0.2
			c-0.1-0.1-0.1-0.1-0.2-0.2c-0.1-0.1-0.1-0.1-0.2-0.1c-0.1,0-0.1-0.1-0.2-0.1C196.1,163.9,196,163.9,196,163.8z"/>
		<path class="st7" d="M197.2,166.9l-0.5-0.1c-0.1,0-0.1,0-0.2,0c-0.2,0-0.3-0.1-0.4-0.1c-0.1,0-0.2-0.1-0.3-0.1
			c-0.1-0.1-0.2-0.1-0.3-0.1c-0.1,0-0.2-0.1-0.3-0.2c-0.1,0-0.2-0.1-0.3-0.1c-0.1-0.1-0.2-0.1-0.3-0.2c-0.1-0.1-0.2-0.1-0.3-0.2
			c-0.1-0.1-0.1-0.1-0.2-0.2c-0.1-0.1-0.2-0.2-0.2-0.2c-0.1-0.1-0.1-0.2-0.2-0.2c-0.1-0.1-0.1-0.1-0.1-0.2l-0.5-0.7l0.8-0.4
			c0.1,0,0.1-0.1,0.2-0.1c0-0.1,0.1-0.1,0.1-0.2l0-0.9l1,0.2c0.2,0,0.3,0.1,0.4,0.1c0.1,0,0.2,0.1,0.3,0.1c0.1,0,0.2,0.1,0.3,0.1
			c0.1,0,0.2,0.1,0.3,0.1c0.1,0,0.2,0.1,0.3,0.2c0.1,0.1,0.2,0.1,0.3,0.2c0.1,0.1,0.2,0.1,0.3,0.2c0.1,0.1,0.1,0.1,0.2,0.2
			c0.1,0.1,0.2,0.1,0.2,0.2s0.1,0.2,0.2,0.2c0.1,0.1,0.1,0.1,0.1,0.2l0.3,0.4l0,0c0.2,0.3,0.3,0.5,0.4,0.8l0.3,0.9l-0.9,0.1
			C197.8,166.9,197.5,166.9,197.2,166.9L197.2,166.9z M195.4,164.6C195.5,164.6,195.5,164.7,195.4,164.6c0.1,0.1,0.2,0.2,0.3,0.2
			c0.1,0,0.1,0.1,0.2,0.1c0,0,0.1,0.1,0.2,0.1c0.1,0,0.1,0.1,0.2,0.1c0.1,0,0.1,0.1,0.2,0.1c0.1,0,0.1,0.1,0.2,0.1c0,0,0,0,0.1,0
			c0,0,0,0,0-0.1c0-0.1-0.1-0.1-0.2-0.2c0,0-0.1-0.1-0.1-0.1c-0.1,0-0.1-0.1-0.2-0.1c-0.1,0-0.1-0.1-0.2-0.1c-0.1,0-0.1-0.1-0.2-0.1
			c-0.1,0-0.1-0.1-0.2-0.1l0,0c0,0-0.1,0-0.1,0C195.5,164.5,195.5,164.5,195.4,164.6C195.5,164.6,195.5,164.6,195.4,164.6z"/>
	</g>
	<g class="st23">
		<path class="st28" d="M193.9,165.6c0-0.1,0-0.2,0.1-0.2c0-0.1,0-0.2,0-0.3c0-0.1,0-0.2,0-0.3c0-0.1,0-0.1,0-0.2
			c-0.2,0-0.4,0-0.6-0.1c-0.2-0.1-0.4-0.2-0.5-0.4c0,0-0.1,0.1-0.1,0.1c-0.1,0.1-0.1,0.1-0.2,0.2c-0.1,0.1-0.1,0.1-0.2,0.2
			c0,0.1-0.1,0.1-0.1,0.2c0,0.1-0.1,0.2-0.1,0.2c0,0.1-0.1,0.2-0.1,0.2c0,0.1-0.1,0.2-0.1,0.2c0,0.1-0.1,0.2-0.1,0.3
			c0,0.1,0,0.2-0.1,0.2c0,0.1,0,0.2,0,0.3c0,0.1,0,0.2,0,0.3c0,0.1,0,0.1,0,0.2l0,0c0,0.4,0,0.8,0.2,1.2c0.3-0.2,0.7-0.4,0.9-0.7
			l0,0c0,0,0.1-0.1,0.1-0.1c0.1-0.1,0.1-0.1,0.2-0.2c0.1-0.1,0.1-0.1,0.2-0.2c0-0.1,0.1-0.1,0.1-0.2c0-0.1,0.1-0.2,0.1-0.2
			c0-0.1,0.1-0.2,0.1-0.2c0-0.1,0.1-0.2,0.1-0.2C193.8,165.8,193.9,165.7,193.9,165.6z"/>
		<path class="st7" d="M191.5,169.2l-0.3-0.9c-0.1-0.3-0.1-0.6-0.2-0.9l0,0l0-0.4c0-0.1,0-0.1,0-0.2c0-0.2,0-0.3,0-0.4
			c0-0.1,0-0.2,0.1-0.3c0-0.1,0-0.2,0.1-0.3c0-0.1,0.1-0.2,0.1-0.3c0-0.1,0.1-0.2,0.1-0.3c0-0.1,0.1-0.2,0.1-0.3
			c0-0.1,0.1-0.2,0.2-0.3c0-0.1,0.1-0.2,0.2-0.2c0.1-0.1,0.1-0.2,0.2-0.3c0.1-0.1,0.1-0.2,0.2-0.2c0.1-0.1,0.1-0.1,0.1-0.1l0.6-0.6
			l0.5,0.7c0,0.1,0.1,0.1,0.2,0.1c0.1,0,0.1,0,0.2,0l0.9-0.1l0,1c0,0.2,0,0.3,0,0.4c0,0.1,0,0.2-0.1,0.3c0,0.1,0,0.2-0.1,0.3l0,0
			c0,0.1-0.1,0.2-0.1,0.3c0,0.1-0.1,0.2-0.1,0.3c0,0.1-0.1,0.2-0.1,0.3c0,0.1-0.1,0.2-0.1,0.3c-0.1,0.1-0.1,0.2-0.2,0.2
			c-0.1,0.1-0.1,0.2-0.2,0.3c-0.1,0.1-0.1,0.2-0.2,0.2c-0.1,0.1-0.1,0.1-0.2,0.2l-0.4,0.4l0,0c-0.2,0.2-0.5,0.4-0.7,0.5L191.5,169.2
			z M193,165.3C193,165.3,193,165.3,193,165.3c-0.1,0.2-0.1,0.2-0.2,0.3c0,0.1-0.1,0.1-0.1,0.2c0,0.1,0,0.1-0.1,0.2
			c0,0.1,0,0.1-0.1,0.2c0,0.1,0,0.1,0,0.2c0,0.1,0,0.1,0,0.2c0,0,0,0,0,0.1c0,0,0,0,0-0.1c0-0.1,0.1-0.1,0.1-0.2
			c0-0.1,0.1-0.1,0.1-0.2c0-0.1,0.1-0.1,0.1-0.2c0-0.1,0.1-0.1,0.1-0.2c0-0.1,0-0.1,0.1-0.2c0-0.1,0-0.1,0.1-0.2v0c0,0,0-0.1,0-0.1
			C193.2,165.3,193.1,165.3,193,165.3C193.1,165.3,193.1,165.3,193,165.3z"/>
	</g>
	<g class="st23">
		<path class="st28" d="M191.7,163.9c0.1,0,0.2,0,0.3,0c0.1,0,0.2,0,0.3,0c0.1,0,0.2,0,0.3,0c0.1,0,0.1,0,0.2,0
			c-0.1-0.2-0.1-0.4,0-0.6c0-0.2,0.2-0.4,0.3-0.5c0,0-0.1-0.1-0.1-0.1c-0.1,0-0.2-0.1-0.2-0.1c-0.1,0-0.2-0.1-0.2-0.1
			c-0.1,0-0.2-0.1-0.2-0.1c-0.1,0-0.2-0.1-0.3-0.1c-0.1,0-0.2,0-0.2-0.1c-0.1,0-0.2,0-0.3,0c-0.1,0-0.2,0-0.3,0c-0.1,0-0.2,0-0.3,0
			c-0.1,0-0.2,0-0.3,0c-0.1,0-0.2,0-0.3,0c-0.1,0-0.1,0-0.2,0l0,0c-0.4,0.1-0.8,0.2-1.1,0.4c0.2,0.3,0.5,0.6,0.8,0.8l0,0
			c0.1,0,0.1,0.1,0.2,0.1c0.1,0,0.2,0.1,0.2,0.1c0.1,0,0.2,0.1,0.2,0.1c0.1,0,0.2,0.1,0.2,0.1c0.1,0,0.2,0.1,0.3,0.1
			c0.1,0,0.2,0,0.2,0.1c0.1,0,0.2,0,0.3,0C191.6,163.9,191.6,163.9,191.7,163.9z"/>
		<path class="st7" d="M192.1,164.6c-0.1,0-0.3,0-0.5,0l0,0c-0.1,0-0.2,0-0.3,0c-0.1,0-0.2,0-0.3-0.1c-0.1,0-0.2-0.1-0.3-0.1
			c-0.1,0-0.2-0.1-0.3-0.1c-0.1,0-0.2-0.1-0.3-0.1c-0.1,0-0.2-0.1-0.3-0.1c-0.1-0.1-0.2-0.1-0.3-0.2c-0.1-0.1-0.1-0.1-0.2-0.1
			l-0.4-0.3l0,0c-0.2-0.2-0.4-0.4-0.6-0.7l-0.6-0.7l0.8-0.4c0.3-0.1,0.5-0.2,0.8-0.3l0,0l0.5-0.1c0.1,0,0.1,0,0.2,0
			c0.1,0,0.2,0,0.4,0c0.1,0,0.2,0,0.3,0c0.1,0,0.2,0,0.3,0c0.1,0,0.2,0,0.3,0c0.1,0,0.2,0,0.3,0.1c0.1,0,0.2,0.1,0.3,0.1
			c0.1,0,0.2,0.1,0.3,0.1c0.1,0,0.2,0.1,0.3,0.1c0.1,0,0.2,0.1,0.3,0.1c0.1,0.1,0.2,0.1,0.3,0.2c0.1,0,0.1,0.1,0.2,0.1l0.7,0.5
			l-0.6,0.6c-0.1,0.1-0.1,0.1-0.1,0.2c0,0.1,0,0.1,0,0.2l0.3,0.8l-1,0.1c-0.2,0-0.3,0-0.4,0C192.2,164.6,192.2,164.6,192.1,164.6z
			 M191.8,163.1c0,0,0.1,0,0.1,0c0,0,0-0.1,0-0.1c0,0,0-0.1,0-0.1c0,0-0.1,0-0.1,0c-0.1,0-0.1,0-0.2-0.1s-0.1,0-0.2-0.1
			c-0.1,0-0.1,0-0.2,0c-0.1,0-0.1,0-0.2,0c-0.1,0-0.2,0-0.3,0c0,0-0.1,0-0.1,0c0,0,0,0,0.1,0c0.1,0,0.1,0.1,0.2,0.1
			c0.1,0,0.1,0.1,0.2,0.1c0.1,0,0.1,0,0.2,0.1s0.1,0,0.2,0.1c0.1,0,0.1,0,0.2,0C191.7,163.1,191.7,163.1,191.8,163.1z"/>
	</g>
	<path class="st29" d="M194.4,173.6c-0.4,0-0.8-0.3-0.8-0.8v-8c0-0.4,0.3-0.8,0.8-0.8s0.8,0.3,0.8,0.8v8
		C195.2,173.2,194.8,173.6,194.4,173.6z"/>
	<path class="st29" d="M193.6,162.3c-0.6,0-1.2,0.5-1.2,1.2s0.5,1.2,1.2,1.2s1.2-0.5,1.2-1.2S194.3,162.3,193.6,162.3L193.6,162.3z"
		/>
	<path class="st30" d="M523.3,123.5c4.1,0,7.5-3.4,7.5-7.5c0-2.9-1.6-5.3-4-6.6v1.1c0,2-1.6,3.6-3.6,3.6c-2,0-3.6-1.6-3.6-3.6v-1.1
		c-2.4,1.3-4,3.8-4,6.6C515.8,120.1,519.1,123.5,523.3,123.5z"/>
	<path class="st25" d="M703.6,182.9c-6.9,0-12.5-5.6-12.5-12.5v-2.2c0-4.1-3.4-7.5-7.5-7.5h-75c-4.1,0-7.5,3.4-7.5,7.5v2.2
		c0,7.2-4.8,12.5-11.4,12.5v-5c4.4,0,6.4-3.8,6.4-7.5v-2.2c0-6.9,5.6-12.5,12.5-12.5h75c6.9,0,12.5,5.6,12.5,12.5v2.2
		c0,4.1,3.4,7.5,7.5,7.5V182.9z"/>
	<g class="st23">
		<path class="st3" d="M635.9,143.3h-22c-3.2,0-5.8-2.6-5.8-5.8v-22c0-3.2,2.6-5.8,5.8-5.8h22c3.2,0,5.8,2.6,5.8,5.8v22
			C641.6,140.7,639,143.3,635.9,143.3z M613.9,111.3c-2.3,0-4.2,1.9-4.2,4.2v22c0,2.3,1.9,4.2,4.2,4.2h22c2.3,0,4.2-1.9,4.2-4.2v-22
			c0-2.3-1.9-4.2-4.2-4.2H613.9z"/>
		<path class="st3" d="M677.2,143.3h-22c-3.2,0-5.8-2.6-5.8-5.8v-22c0-3.2,2.6-5.8,5.8-5.8h22c3.2,0,5.8,2.6,5.8,5.8v22
			C683,140.7,680.4,143.3,677.2,143.3z M655.2,111.3c-2.3,0-4.2,1.9-4.2,4.2v22c0,2.3,1.9,4.2,4.2,4.2h22c2.3,0,4.2-1.9,4.2-4.2v-22
			c0-2.3-1.9-4.2-4.2-4.2H655.2z"/>
	</g>
	<g class="st23">
		<path class="st10" d="M766.8,137.1"/>
	</g>
	<g class="st23">
		<path class="st31" d="M766.8,137.1"/>
	</g>
	<g class="st23">
		<path class="st32" d="M739.9,172l0-2.8l0.3-3.8c0.2-0.6,0.6-1,0.9-1.1c0.5-0.2,1.3,0,1.6,0.2l4.6,3.5l0,0l2.6,2l0.2,0.1
			c0.2,0.1,1.3,0.7,2.7,0.7c0.5,0,1-0.1,1.5-0.3c0.9-0.3,2.1-1.1,2.9-3.1l0.1-0.2l1.1-12.7l0.9-11.9c0-0.4,0.1-1.2,0.1-1.2
			c0-1.4,0.8-2.5,1.8-2.5h3.5c1,0,1.8,1.2,1.8,2.5c0,0,0,0.1,0,0.1l1.6,13.5l0,0l1.8,16.3l3.1-0.2l-1.9-16.2l-1.5-13.5
			c0-3.1-2.2-5.6-4.9-5.6h-3.5c-2.7,0-4.9,2.5-4.9,5.2l-1,12.6l-1.1,13c-0.2,0.6-0.6,1-0.9,1.1c-0.5,0.2-1.3-0.1-1.6-0.2l-4.6-3.5
			l0,0l-2.6-2l-0.2-0.1c-0.2-0.1-2.2-1.2-4.2-0.4c-0.9,0.3-2.1,1.2-2.8,3.2l-0.1,0.2l-0.6,8.2"/>
		<path class="st32" d="M737.5,172.9l-1.7-0.1l0.6-8.4l0.1-0.2c0.8-2.3,2.3-3.3,3.4-3.7c2.4-0.9,4.7,0.3,5,0.5l0.2,0.1l2,1.5l0,0
			l0.7,0.5l4.5,3.4c0.3,0.1,0.7,0.2,0.8,0.1c0.1,0,0.2-0.2,0.4-0.5l1.1-12.9l1-12.6c0-1.6,0.7-3.2,1.8-4.3c1.1-1.1,2.5-1.7,3.9-1.7
			h3.5c3.2,0,5.8,2.9,5.8,6.4l1.5,13.5l2,17.1l-4.9,0.4l-1.9-17.1l-1.6-13.5c0-0.1,0-0.2,0-0.2c0-0.9-0.5-1.6-0.9-1.6h-3.5
			c-0.4,0-0.9,0.7-0.9,1.6c0,0,0,0.1,0,0.3c0,0.3-0.1,0.7-0.1,1l-0.9,11.9l-1.1,13l-0.1,0.2c-0.8,2.3-2.3,3.3-3.4,3.7
			c-0.6,0.2-1.2,0.3-1.8,0.3c-1.6,0-2.9-0.7-3.2-0.8l-0.2-0.1l-7.2-5.4c-0.3-0.1-0.7-0.2-0.8-0.1c-0.1,0-0.2,0.2-0.4,0.5l-0.3,3.7
			l0,2.8l-1.8,0l0-2.8l0.4-4.1c0.3-0.8,0.8-1.4,1.4-1.6c0.9-0.4,2,0.1,2.3,0.2l0.2,0.1l3.9,2.9l0,0l3.5,2.6l0,0c0,0,1,0.6,2.2,0.6
			c0.4,0,0.8-0.1,1.2-0.2c0.7-0.3,1.7-0.9,2.3-2.6l0-0.1l1.1-12.6l0.9-11.9c0-0.3,0-0.7,0.1-1l0-0.2c0-1.8,1.2-3.4,2.7-3.4h3.5
			c1.5,0,2.7,1.5,2.7,3.4l1.6,13.6l1.7,15.4l1.4-0.1l-1.8-15.3l-1.5-13.5c0-2.7-1.8-4.8-4.1-4.8h-3.5c-1,0-1.9,0.4-2.7,1.2
			c-0.8,0.8-1.3,2-1.3,3.2l-1,12.6l-1.2,13.3c-0.3,0.8-0.8,1.4-1.4,1.6c-0.9,0.4-2-0.1-2.3-0.2l-0.2-0.1l-7.3-5.5c0,0-1.8-1-3.5-0.3
			c-0.7,0.3-1.7,0.9-2.3,2.6l0,0.1L737.5,172.9z"/>
	</g>
	<g class="st23">
		<path class="st11" d="M757.2,118.8c-1.5,3.8,1.2,7.9,5.4,7.9c2.3,0,4.5-1.4,5.3-3.5c1.5-3.8-1.2-7.9-5.4-7.9
			C760.2,115.2,758,116.7,757.2,118.8z"/>
		<path class="st33" d="M762.5,115.2C762.5,115.2,762.5,115.2,762.5,115.2c4.2,0,7,4.1,5.4,7.9c-0.9,2.1-3,3.5-5.3,3.5c0,0,0,0,0,0
			c-4.1,0-6.9-4.1-5.4-7.9C758,116.7,760.2,115.2,762.5,115.2 M762.5,115c-2.4,0-4.6,1.5-5.5,3.7c-0.8,1.9-0.6,3.9,0.5,5.5
			c1.1,1.7,3,2.7,5.1,2.7c2.5,0,4.7-1.5,5.6-3.7c0.8-1.9,0.6-3.9-0.5-5.5C766.4,116,764.6,115,762.5,115L762.5,115L762.5,115
			L762.5,115z"/>
	</g>
	<path class="st25" d="M729.4,182.9v-5c4.4,0,6.4-3.8,6.4-7.5h5C740.8,177.7,736,182.9,729.4,182.9z"/>
	<path class="st25" d="M780.3,182.9c-6.6,0-11.4-5.2-11.4-12.5h5c0,3.7,2,7.5,6.4,7.5V182.9z"/>
	<path class="st25" d="M834.6,143.3h-11c-0.2,0-0.4-0.1-0.5-0.2c-0.1-0.2-0.2-0.4-0.2-0.6l5.4-83.2c0-0.4,0.4-0.7,0.7-0.7
		c0,0,0,0,0,0c0.4,0,0.7,0.3,0.7,0.7l5.6,83.2c0,0.2-0.1,0.4-0.2,0.6C835,143.2,834.8,143.3,834.6,143.3z M824.4,141.8h9.4L829,70.7
		L824.4,141.8z"/>
	<path class="st34" d="M849.8,143.3h-11c-0.2,0-0.4-0.1-0.5-0.2c-0.1-0.1-0.2-0.3-0.2-0.6l5.4-110.2c0-0.4,0.3-0.7,0.7-0.7l0,0
		c0.4,0,0.7,0.3,0.7,0.7l5.6,110.2c0,0.2-0.1,0.4-0.2,0.6C850.2,143.2,850,143.3,849.8,143.3z M839.6,141.8h9.4l-4.8-94.4
		L839.6,141.8z"/>
	<path class="st27" d="M864.7,143.3h-11c-0.2,0-0.4-0.1-0.6-0.2c-0.1-0.2-0.2-0.4-0.2-0.6l5.5-48.8c0-0.4,0.4-0.7,0.7-0.7
		s0.7,0.3,0.7,0.7l5.5,48.8c0,0.2,0,0.4-0.2,0.6C865.1,143.2,864.9,143.3,864.7,143.3z M854.6,141.8h9.3l-4.7-41.3L854.6,141.8z"/>
	<path class="st35" d="M864.6,62.7H854c-0.4,0-0.8-0.3-0.8-0.8V51.3c0-0.4,0.3-0.8,0.8-0.8h10.6c0.4,0,0.8,0.3,0.8,0.8V62
		C865.4,62.4,865.1,62.7,864.6,62.7z M854.8,61.2h9.1v-9.1h-9.1V61.2z"/>
	<path class="st27" d="M861.9,60.7c-0.2,0-0.4-0.1-0.6-0.3l-5.4-6.4c-0.3-0.3-0.2-0.8,0.1-1.1c0.3-0.3,0.8-0.2,1.1,0.1l5.4,6.4
		c0.3,0.3,0.2,0.8-0.1,1.1C862.3,60.6,862.1,60.7,861.9,60.7z"/>
	<path class="st27" d="M856.5,60.7c-0.2,0-0.3-0.1-0.5-0.2c-0.3-0.3-0.4-0.7-0.1-1.1l5.4-6.4c0.3-0.3,0.7-0.4,1.1-0.1
		c0.3,0.3,0.4,0.7,0.1,1.1l-5.4,6.4C856.9,60.6,856.7,60.7,856.5,60.7z"/>
	<path class="st27" d="M829,55c-0.2,0-0.4-0.1-0.5-0.2l-5-5c-0.3-0.3-0.3-0.8,0-1.1l5.1-5.1c0.3-0.3,0.8-0.3,1.1,0l5,5
		c0.3,0.3,0.3,0.8,0,1.1l-5.1,5.1C829.4,54.9,829.2,55,829,55z M825,49.2l3.9,3.9l4-4l-3.9-3.9L825,49.2z"/>
	<path class="st36" d="M871.5,148.5h-54.8c-0.4,0-0.8-0.3-0.8-0.8s0.3-0.8,0.8-0.8h54.8c0.4,0,0.8,0.3,0.8,0.8
		S872,148.5,871.5,148.5z"/>
	<g class="st23">
		<path class="st7" d="M431.7,141.7c-0.4,0-0.8-0.3-0.8-0.8v-6.4c0-0.4,0.3-0.8,0.8-0.8s0.8,0.3,0.8,0.8v6.4
			C432.4,141.4,432.1,141.7,431.7,141.7z"/>
		<path class="st7" d="M431.6,135.3c-4.1,0-7.4-3.3-7.4-7.4c0-4.1,3.3-7.4,7.4-7.4s7.4,3.3,7.4,7.4C439,132,435.7,135.3,431.6,135.3
			z M431.6,121.9c-3.3,0-5.9,2.7-5.9,5.9c0,3.3,2.7,5.9,5.9,5.9s5.9-2.7,5.9-5.9C437.5,124.6,434.8,121.9,431.6,121.9z"/>
	</g>
	<circle class="st37" cx="431.7" cy="112.2" r="4.4"/>
	<g class="st23">
		<path class="st7" d="M431.6,119.3c-4.1,0-7.4-3.3-7.4-7.4s3.3-7.4,7.4-7.4s7.4,3.3,7.4,7.4S435.7,119.3,431.6,119.3z M431.6,105.9
			c-3.3,0-5.9,2.7-5.9,5.9s2.7,5.9,5.9,5.9s5.9-2.7,5.9-5.9S434.8,105.9,431.6,105.9z"/>
	</g>
	<circle class="st25" cx="431.5" cy="127.9" r="4.4"/>
	<path class="st25" d="M301.5,189.9h-5c0,0,0-6.8,0-7.1l0-4.9c2.7,0,4.9,2.1,5,4.8C301.5,182.8,301.5,182.8,301.5,189.9z"/>
	<path class="st25" d="M395.1,190.9h-5c0-8.1,0-8.1,0-8.2c0.1-2.7,2.3-4.8,5-4.8l85.2,0h109.7v5H480.3l-85.2,0
		C395.1,183.1,395.1,190.9,395.1,190.9z"/>
	<path class="st25" d="M309,202.2c-6.9,0-12.5-5.6-12.5-12.5h5c0,4.1,3.4,7.5,7.5,7.5l73.6,0c4.3,0,7.5-2.9,7.5-6.9h5
		c0,6.8-5.4,11.9-12.5,11.9L309,202.2z"/>
	<path class="st25" d="M316.6,180.8c-0.1,0-0.2,0-0.3-0.1c-0.4-0.2-0.5-0.6-0.3-1l10.9-21c0.2-0.4,0.6-0.5,1-0.3l9.4,4.1l8.6-10.1
		c0.1-0.2,0.3-0.3,0.6-0.3l14.3-0.3l14.8-21.5c0.2-0.3,0.7-0.4,1-0.2c0.3,0.2,0.4,0.7,0.2,1l-15,21.8c-0.1,0.2-0.4,0.3-0.6,0.3
		l-14.4,0.3l-8.8,10.3c-0.2,0.3-0.6,0.3-0.9,0.2l-9.3-4.1l-10.5,20.3C317.1,180.6,316.8,180.8,316.6,180.8z"/>
	<circle class="st27" cx="337.3" cy="163.4" r="1.4"/>
	<circle class="st34" cx="346.4" cy="152.7" r="1.7"/>
	<path class="st34" d="M376,128.4l-5,3.7c-0.2,0.1-0.3,0.4-0.2,0.6c0.1,0.3,0.4,0.4,0.6,0.3l4.2-1.4l1.1,4.5
		c0.1,0.2,0.2,0.4,0.5,0.4c0.3,0,0.5-0.2,0.5-0.5l0.4-6.5l0.2-2.9L376,128.4z"/>
	<path class="st34" d="M316.5,173.6l0.9,6.4l-2-1.4l6-1.5c0.3-0.1,0.5,0.1,0.6,0.4c0.1,0.2,0,0.4-0.2,0.6l-5.3,3.2l-2.5,1.5l0.4-2.9
		l1-6.4c0-0.3,0.3-0.5,0.6-0.4C316.3,173.2,316.5,173.4,316.5,173.6z"/>
	<g class="st23">
		<polygon class="st14" points="854.4,41.6 859.2,46.8 864.2,41.6 		"/>
		<circle class="st14" cx="327.4" cy="159.4" r="1.4"/>
		<path class="st14" d="M361,151.1c-0.8,0-1.4,0.6-1.4,1.4s0.6,1.4,1.4,1.4c0.8,0,1.4-0.6,1.4-1.4S361.7,151.1,361,151.1z"/>
	</g>
	<g class="st23">
		<g>
			<rect x="224.5" y="153.2" class="st16" width="12.5" height="12.5"/>
			<path class="st7" d="M237,153.2v12.5h-12.5v-12.5H237 M238.5,151.7H237h-12.5H223v1.5v12.5v1.5h1.5H237h1.5v-1.5v-12.5V151.7
				L238.5,151.7z"/>
		</g>
	</g>
	<g class="st23">
		<g>
			<g>
				<rect x="245.5" y="153.2" class="st16" width="12.5" height="12.5"/>
				<path class="st7" d="M258,153.2v12.5h-12.5v-12.5H258 M259.5,151.7H258h-12.5H244v1.5v12.5v1.5h1.5H258h1.5v-1.5v-12.5V151.7
					L259.5,151.7z"/>
			</g>
		</g>
		<path class="st18" d="M255.5,156.8c-0.9,0.9-1.6,1.9-2.3,2.9c-0.3,0.5-0.6,1.1-0.9,1.6c-0.3,0.6-0.5,1.1-0.7,1.7l0,0
			c-0.1,0.4-0.6,0.6-1,0.4c-0.2-0.1-0.3-0.2-0.4-0.3l-2.1-3.6c-0.2-0.4-0.1-0.8,0.3-1c0.4-0.2,0.8-0.1,1,0.3l2.1,3.6l-1.3,0.1l0,0
			c0.3-0.7,0.6-1.2,0.9-1.8c0.3-0.6,0.7-1.2,1.1-1.7c0.8-1.1,1.6-2.1,2.6-3c0.2-0.2,0.6-0.2,0.8,0
			C255.7,156.2,255.7,156.5,255.5,156.8L255.5,156.8z"/>
	</g>
	<g class="st23">
		<text transform="matrix(1 0 0 1 227.7136 164.1761)" class="st18 st19 st20">?</text>
	</g>
</g>
</svg>
