<?xml version="1.0" encoding="utf-8"?>
<!-- Generator: Adobe Illustrator 25.2.1, SVG Export Plug-In . SVG Version: 6.00 Build 0)  -->
<svg version="1.1" id="Layer_1" xmlns="http://www.w3.org/2000/svg" xmlns:xlink="http://www.w3.org/1999/xlink" x="0px" y="0px"
	 viewBox="0 0 920.9 231.6" style="enable-background:new 0 0 920.9 231.6;" xml:space="preserve">
<style type="text/css">
	.st0{fill:#FFFFFF;}
	.st1{opacity:7.000000e-02;fill:url(#SVGID_1_);enable-background:new    ;}
	.st2{fill:none;stroke:#C3DEED;stroke-width:1.5;stroke-linecap:round;stroke-linejoin:round;stroke-miterlimit:10;}
	.st3{fill:#C3DEED;}
	.st4{fill:none;stroke:#BBD6E5;stroke-width:1.5;stroke-miterlimit:10;}
	.st5{fill:none;}
	.st6{fill:#BDD7E6;}
	.st7{fill:#EFF6FB;}
	.st8{fill:#B0C14F;}
	.st9{fill:#619CCF;}
	.st10{fill:none;stroke:#717F80;stroke-width:0.25;stroke-miterlimit:10;}
	.st11{fill:#5F9FD3;}
	.st12{fill:#E0EFC7;}
	.st13{fill:#3B7C9A;}
	.st14{fill:#397CA4;}
	.st15{fill:#F7931E;}
	.st16{fill:#6AA1D3;}
	.st17{fill:#387C9B;}
	.st18{fill:#F7EA77;}
	.st19{fill:#3A7DA5;}
</style>
<g id="Layer_2_1_">
	<rect x="0.4" class="st0" width="919.8" height="231.6"/>
	
		<linearGradient id="SVGID_1_" gradientUnits="userSpaceOnUse" x1="460.9796" y1="7.3224" x2="460.3372" y2="223.4159" gradientTransform="matrix(1 0 0 -1 0 234)">
		<stop  offset="0" style="stop-color:#E8F2F7;stop-opacity:0.29"/>
		<stop  offset="0.2401" style="stop-color:#C0DAED;stop-opacity:0.4605"/>
		<stop  offset="0.5908" style="stop-color:#8CBADF;stop-opacity:0.7095"/>
		<stop  offset="0.855" style="stop-color:#6BA6D6;stop-opacity:0.897"/>
		<stop  offset="1" style="stop-color:#5F9FD3"/>
	</linearGradient>
	<rect x="0.4" class="st1" width="920.5" height="231.6"/>
</g>
<path class="st2" d="M436.1,188"/>
<g>
	<path class="st3" d="M60.7,66.3h-8.5c-1.8,0-3.2-1.5-3.2-3.2v-8.5c0-1.8,1.5-3.2,3.2-3.2h8.5c1.8,0,3.2,1.5,3.2,3.2V63
		C63.9,64.8,62.5,66.3,60.7,66.3z M52.2,52.8c-1,0-1.8,0.8-1.8,1.8V63c0,1,0.8,1.8,1.8,1.8h8.5c1,0,1.8-0.8,1.8-1.8v-8.5
		c0-1-0.8-1.8-1.8-1.8L52.2,52.8L52.2,52.8z"/>
	<path class="st3" d="M83.6,66.3h-8.5c-1.8,0-3.2-1.5-3.2-3.2v-8.5c0-1.8,1.5-3.2,3.2-3.2h8.5c1.8,0,3.2,1.5,3.2,3.2V63
		C86.8,64.8,85.4,66.3,83.6,66.3z M75.1,52.8c-1,0-1.8,0.8-1.8,1.8V63c0,1,0.8,1.8,1.8,1.8h8.5c1,0,1.8-0.8,1.8-1.8v-8.5
		c0-1-0.8-1.8-1.8-1.8L75.1,52.8L75.1,52.8z"/>
	<path class="st3" d="M106.5,66.3H98c-1.8,0-3.2-1.5-3.2-3.2v-8.5c0-1.8,1.5-3.2,3.2-3.2h8.5c1.8,0,3.2,1.5,3.2,3.2V63
		C109.7,64.8,108.3,66.3,106.5,66.3z M98,52.8c-1,0-1.8,0.8-1.8,1.8V63c0,1,0.8,1.8,1.8,1.8h8.5c1,0,1.8-0.8,1.8-1.8v-8.5
		c0-1-0.8-1.8-1.8-1.8L98,52.8L98,52.8z"/>
	<path class="st3" d="M129.4,66.3h-8.5c-1.8,0-3.2-1.5-3.2-3.2v-8.5c0-1.8,1.5-3.2,3.2-3.2h8.5c1.8,0,3.2,1.5,3.2,3.2V63
		C132.6,64.8,131.2,66.3,129.4,66.3z M120.9,52.8c-1,0-1.8,0.8-1.8,1.8V63c0,1,0.8,1.8,1.8,1.8h8.5c1,0,1.8-0.8,1.8-1.8v-8.5
		c0-1-0.8-1.8-1.8-1.8L120.9,52.8L120.9,52.8z"/>
</g>
<g>
	<path class="st3" d="M60.7,86h-8.5c-1.8,0-3.2-1.5-3.2-3.2v-8.5c0-1.8,1.5-3.2,3.2-3.2h8.5c1.8,0,3.2,1.5,3.2,3.2v8.5
		C63.9,84.6,62.5,86,60.7,86z M52.2,72.6c-1,0-1.8,0.8-1.8,1.8v8.5c0,1,0.8,1.8,1.8,1.8h8.5c1,0,1.8-0.8,1.8-1.8v-8.5
		c0-1-0.8-1.8-1.8-1.8H52.2z"/>
	<path class="st3" d="M83.6,86h-8.5c-1.8,0-3.2-1.5-3.2-3.2v-8.5c0-1.8,1.5-3.2,3.2-3.2h8.5c1.8,0,3.2,1.5,3.2,3.2v8.5
		C86.8,84.6,85.4,86,83.6,86z M75.1,72.6c-1,0-1.8,0.8-1.8,1.8v8.5c0,1,0.8,1.8,1.8,1.8h8.5c1,0,1.8-0.8,1.8-1.8v-8.5
		c0-1-0.8-1.8-1.8-1.8H75.1z"/>
	<path class="st3" d="M106.5,86H98c-1.8,0-3.2-1.5-3.2-3.2v-8.5c0-1.8,1.5-3.2,3.2-3.2h8.5c1.8,0,3.2,1.5,3.2,3.2v8.5
		C109.7,84.6,108.3,86,106.5,86z M98,72.6c-1,0-1.8,0.8-1.8,1.8v8.5c0,1,0.8,1.8,1.8,1.8h8.5c1,0,1.8-0.8,1.8-1.8v-8.5
		c0-1-0.8-1.8-1.8-1.8H98z"/>
	<path class="st3" d="M129.4,86h-8.5c-1.8,0-3.2-1.5-3.2-3.2v-8.5c0-1.8,1.5-3.2,3.2-3.2h8.5c1.8,0,3.2,1.5,3.2,3.2v8.5
		C132.6,84.6,131.2,86,129.4,86z M120.9,72.6c-1,0-1.8,0.8-1.8,1.8v8.5c0,1,0.8,1.8,1.8,1.8h8.5c1,0,1.8-0.8,1.8-1.8v-8.5
		c0-1-0.8-1.8-1.8-1.8H120.9z"/>
</g>
<g>
	<path class="st3" d="M60.7,105.8h-8.5c-1.8,0-3.2-1.5-3.2-3.2v-8.5c0-1.8,1.5-3.2,3.2-3.2h8.5c1.8,0,3.2,1.5,3.2,3.2v8.5
		C63.9,104.3,62.5,105.8,60.7,105.8z M52.2,92.3c-1,0-1.8,0.8-1.8,1.8v8.5c0,1,0.8,1.8,1.8,1.8h8.5c1,0,1.8-0.8,1.8-1.8v-8.5
		c0-1-0.8-1.8-1.8-1.8H52.2z"/>
	<path class="st3" d="M83.6,105.8h-8.5c-1.8,0-3.2-1.5-3.2-3.2v-8.5c0-1.8,1.5-3.2,3.2-3.2h8.5c1.8,0,3.2,1.5,3.2,3.2v8.5
		C86.8,104.3,85.4,105.8,83.6,105.8z M75.1,92.3c-1,0-1.8,0.8-1.8,1.8v8.5c0,1,0.8,1.8,1.8,1.8h8.5c1,0,1.8-0.8,1.8-1.8v-8.5
		c0-1-0.8-1.8-1.8-1.8H75.1z"/>
	<path class="st3" d="M106.5,105.8H98c-1.8,0-3.2-1.5-3.2-3.2v-8.5c0-1.8,1.5-3.2,3.2-3.2h8.5c1.8,0,3.2,1.5,3.2,3.2v8.5
		C109.7,104.3,108.3,105.8,106.5,105.8z M98,92.3c-1,0-1.8,0.8-1.8,1.8v8.5c0,1,0.8,1.8,1.8,1.8h8.5c1,0,1.8-0.8,1.8-1.8v-8.5
		c0-1-0.8-1.8-1.8-1.8H98z"/>
	<path class="st3" d="M129.4,105.8h-8.5c-1.8,0-3.2-1.5-3.2-3.2v-8.5c0-1.8,1.5-3.2,3.2-3.2h8.5c1.8,0,3.2,1.5,3.2,3.2v8.5
		C132.6,104.3,131.2,105.8,129.4,105.8z M120.9,92.3c-1,0-1.8,0.8-1.8,1.8v8.5c0,1,0.8,1.8,1.8,1.8h8.5c1,0,1.8-0.8,1.8-1.8v-8.5
		c0-1-0.8-1.8-1.8-1.8H120.9z"/>
</g>
<g>
	<path class="st3" d="M60.7,126.5h-8.5c-1.8,0-3.2-1.5-3.2-3.2v-8.5c0-1.8,1.5-3.2,3.2-3.2h8.5c1.8,0,3.2,1.5,3.2,3.2v8.5
		C63.9,125,62.5,126.5,60.7,126.5z M52.2,113c-1,0-1.8,0.8-1.8,1.8v8.5c0,1,0.8,1.8,1.8,1.8h8.5c1,0,1.8-0.8,1.8-1.8v-8.5
		c0-1-0.8-1.8-1.8-1.8H52.2z"/>
	<path class="st3" d="M83.6,126.5h-8.5c-1.8,0-3.2-1.5-3.2-3.2v-8.5c0-1.8,1.5-3.2,3.2-3.2h8.5c1.8,0,3.2,1.5,3.2,3.2v8.5
		C86.8,125,85.4,126.5,83.6,126.5z M75.1,113c-1,0-1.8,0.8-1.8,1.8v8.5c0,1,0.8,1.8,1.8,1.8h8.5c1,0,1.8-0.8,1.8-1.8v-8.5
		c0-1-0.8-1.8-1.8-1.8H75.1z"/>
	<path class="st3" d="M106.5,126.5H98c-1.8,0-3.2-1.5-3.2-3.2v-8.5c0-1.8,1.5-3.2,3.2-3.2h8.5c1.8,0,3.2,1.5,3.2,3.2v8.5
		C109.7,125,108.3,126.5,106.5,126.5z M98,113c-1,0-1.8,0.8-1.8,1.8v8.5c0,1,0.8,1.8,1.8,1.8h8.5c1,0,1.8-0.8,1.8-1.8v-8.5
		c0-1-0.8-1.8-1.8-1.8H98z"/>
	<path class="st3" d="M129.4,126.5h-8.5c-1.8,0-3.2-1.5-3.2-3.2v-8.5c0-1.8,1.5-3.2,3.2-3.2h8.5c1.8,0,3.2,1.5,3.2,3.2v8.5
		C132.6,125,131.2,126.5,129.4,126.5z M120.9,113c-1,0-1.8,0.8-1.8,1.8v8.5c0,1,0.8,1.8,1.8,1.8h8.5c1,0,1.8-0.8,1.8-1.8v-8.5
		c0-1-0.8-1.8-1.8-1.8H120.9z"/>
</g>
<g>
	<path class="st3" d="M60.7,147.2h-8.5c-1.8,0-3.2-1.5-3.2-3.2v-8.5c0-1.8,1.5-3.2,3.2-3.2h8.5c1.8,0,3.2,1.5,3.2,3.2v8.5
		C63.9,145.7,62.5,147.2,60.7,147.2z M52.2,133.7c-1,0-1.8,0.8-1.8,1.8v8.5c0,1,0.8,1.8,1.8,1.8h8.5c1,0,1.8-0.8,1.8-1.8v-8.5
		c0-1-0.8-1.8-1.8-1.8H52.2z"/>
	<path class="st3" d="M83.6,147.2h-8.5c-1.8,0-3.2-1.5-3.2-3.2v-8.5c0-1.8,1.5-3.2,3.2-3.2h8.5c1.8,0,3.2,1.5,3.2,3.2v8.5
		C86.8,145.7,85.4,147.2,83.6,147.2z M75.1,133.7c-1,0-1.8,0.8-1.8,1.8v8.5c0,1,0.8,1.8,1.8,1.8h8.5c1,0,1.8-0.8,1.8-1.8v-8.5
		c0-1-0.8-1.8-1.8-1.8H75.1z"/>
	<path class="st3" d="M106.5,147.2H98c-1.8,0-3.2-1.5-3.2-3.2v-8.5c0-1.8,1.5-3.2,3.2-3.2h8.5c1.8,0,3.2,1.5,3.2,3.2v8.5
		C109.7,145.7,108.3,147.2,106.5,147.2z M98,133.7c-1,0-1.8,0.8-1.8,1.8v8.5c0,1,0.8,1.8,1.8,1.8h8.5c1,0,1.8-0.8,1.8-1.8v-8.5
		c0-1-0.8-1.8-1.8-1.8H98z"/>
	<path class="st3" d="M129.4,147.2h-8.5c-1.8,0-3.2-1.5-3.2-3.2v-8.5c0-1.8,1.5-3.2,3.2-3.2h8.5c1.8,0,3.2,1.5,3.2,3.2v8.5
		C132.6,145.7,131.2,147.2,129.4,147.2z M120.9,133.7c-1,0-1.8,0.8-1.8,1.8v8.5c0,1,0.8,1.8,1.8,1.8h8.5c1,0,1.8-0.8,1.8-1.8v-8.5
		c0-1-0.8-1.8-1.8-1.8H120.9z"/>
</g>
<path class="st4" d="M233.3,172.5"/>
<g>
	<line class="st5" x1="320.7" y1="129.6" x2="320.7" y2="100.4"/>
	<path class="st6" d="M320.7,130.4c-0.4,0-0.8-0.3-0.8-0.8v-29.3c0-0.4,0.3-0.8,0.8-0.8s0.8,0.3,0.8,0.8v29.3
		C321.4,130,321.1,130.4,320.7,130.4z"/>
</g>
<g>
	<rect x="314.3" y="84.5" class="st7" width="13.9" height="13.9"/>
	<path class="st6" d="M328.2,84.5v13.9h-13.9V84.5H328.2 M329.7,83h-1.5h-13.9h-1.5v1.5v13.9v1.5h1.5h13.9h1.5v-1.5V84.5V83
		L329.7,83z"/>
</g>
<path class="st8" d="M324.7,96.5c-0.2,0-0.4-0.1-0.6-0.3l-7.1-8.3c-0.3-0.3-0.2-0.8,0.1-1.1c0.3-0.3,0.8-0.2,1.1,0.1l7.1,8.3
	c0.3,0.3,0.2,0.8-0.1,1.1C325,96.4,324.8,96.5,324.7,96.5z"/>
<path class="st8" d="M317.6,96.5c-0.2,0-0.3-0.1-0.5-0.2c-0.3-0.3-0.4-0.7-0.1-1.1l7.1-8.3c0.3-0.3,0.7-0.4,1.1-0.1
	c0.3,0.3,0.4,0.7,0.1,1.1l-7.1,8.3C318,96.4,317.8,96.5,317.6,96.5z"/>
<path class="st9" d="M196.9,111.3c2.8,0,5.4,1.8,6.5,4.4c1.9,4.7-1.5,9.7-6.5,9.8l0,0c-2.8,0-5.4-1.8-6.5-4.4
	C188.4,116.4,191.8,111.3,196.9,111.3L196.9,111.3"/>
<path class="st10" d="M195.1,137.7"/>
<g>
	<path class="st11" d="M921,176.3l-265.7,1.4c-4.1,0-7.5-3.4-7.5-7.5V168c0-6.9-5.6-12.5-12.5-12.5h-9c-6.9,0-12.5,5.6-12.5,12.5
		v2.2c0,4.1-3.4,7.5-7.5,7.5h-22.8h-74.2c-4.1,0-7.5-3.4-7.5-7.5V146c-0.1-7.9-6.8-13.2-14.5-12.5c-6.9,0-12.5,5.6-12.5,12.5v24.2
		c0,3.6-2,7.5-6.5,7.5h-64.7l0,0H301.2c-2.7,0-4.9,2.1-5,4.8c0,0.1,0,0.1,0,4.2h-16.6c0-4.1,0-4.1,0-4.2c-0.1-2.7-2.3-4.8-5-4.8h-54
		v-0.1l-10,0.1c-1.4-0.1-2.3-0.3-2.6-1.4l-2.9-34.7c0.1-3.5-2.9-6.9-6.4-6.9h-4.1c-3.5,0-6.5,3.2-6.5,7.2l-2.7,33.9
		c-0.1,1.3-1.2,1.7-2.7,1.8l-7.3,0.1v-0.1h-27.3c-4.1,0.1-7.7-3.6-7.5-7.7c0-6.9-5.6-12.5-12.5-12.5h-75c-6.9,0-12.5,5.6-12.5,12.5
		l0,0l0,0c0.2,4.1-3.4,7.7-7.5,7.6h-33v5h33l0,0h0.3l0,0c6.7,0,12.5-6,12.2-12.7c0-4.1,3.4-7.5,7.5-7.5h75c4.1,0,7.5,3.4,7.5,7.5
		c-0.3,6.8,5.7,12.9,12.5,12.7h8v0.1c6.6,0,20,0,26.6,0c4.1,0.1,7.5-2.8,7.7-6.4l2.8-34.1c0-0.1,0-1.2,0-1.2c0-0.9,0.3-1.2,1.4-1.2
		h4.1c0.6,0,1.4,0.9,1.4,2.2c0,0.1,0,0.6,0.1,0.9l2.7,33.4l0.1,0.7h0.1c0.7,3.4,3.7,5.6,7.6,5.7h9.3h0.4l0.1-0.1l54.3-0.1
		c0,0.2,0,4,0,4.1c0,2.8,2.2,5,5,5h16.6c2.8,0,5-2.2,5-5c0,0,0-3.9,0-4h102.4l0,0h64.6c6.7,0,11.5-5.3,11.5-12.5v-24
		c0-4.1,3.4-7.5,7.5-7.5h2c4.1,0,7.5,3.4,7.5,7.5v24.2c0,6.9,5.6,12.5,12.5,12.5c16.7,0,81.6,0,97,0c6.9,0,12.5-5.6,12.5-12.5V168
		c0-4.1,3.4-7.5,7.5-7.5h9c4.1,0,7.5,3.4,7.5,7.5v2.2c0,6.9,5.6,12.5,12.5,12.5v-2.5v2.5l265.8-1.4L921,176.3z"/>
	<path class="st11" d="M196.8,125.4c5.1,0,8.4-5.1,6.5-9.8c-3.8-8.5-16.3-3.4-13.1,5.4C191.3,123.7,194,125.4,196.8,125.4z"/>
</g>
<path class="st12" d="M395.5,127c1.1,0.1,2.2-0.8,2.8-2.1c1.5-0.2,2.9-2.4,3.1-5.2c0.2-2.2-0.4-4.2-1.4-5.1c0.1-0.2,0.1-0.5,0.1-0.8
	c0.2-2.4-1-4.5-2.6-4.7c-1.2-0.1-2.4,0.9-3,2.4c-0.2,0-0.3-0.1-0.5-0.1c-1.7-0.1-3.2,1.7-3.4,4.2c-0.1,0.9,0,1.7,0.3,2.4
	c-0.2,0.5-0.3,1-0.3,1.5c-0.2,2.2,0.8,4.2,2.2,4.6C393.3,125.7,394.2,126.9,395.5,127z"/>
<polygon class="st13" points="569.5,123.4 569.5,115.9 576.9,119.7 "/>
<g>
	<path class="st6" d="M747.9,150.7L747.9,150.7l-0.1-1.5l0,0c1.4,0,2.4-0.1,2.9-0.7c0.8-0.8,1.1-2.5,1.1-5.6c0-7,7.4-12.2,17.2-12.2
		h13.4v1.5H769c-9,0-15.7,4.6-15.7,10.8c0,3.6-0.4,5.6-1.5,6.7C750.9,150.6,749.4,150.7,747.9,150.7z"/>
	<path class="st6" d="M753.9,163.9h-6c-3.1,0-5.6-2.5-5.6-5.6v-3.5c0-3.1,2.5-5.6,5.6-5.6v1.5c-2.3,0-4.1,1.9-4.1,4.1v3.5
		c0,2.3,1.9,4.1,4.1,4.1h6V163.9z"/>
	<path class="st6" d="M820.1,163.9H811v-1.5h9.1c2.2,0,3.9-1.8,3.9-3.9v-3.3c0-1.9-4.6-3.9-7.1-3.9c-8-0.6-12.5-5.4-17-10.1
		c-6.5-8-7.9-9-17.4-9h-13.4v-1.5h13.4c10,0,11.8,1.3,18.5,9.5c4.4,4.6,8.6,9,15.9,9.6l0,0c2.9,0,8.5,2.3,8.5,5.4v3.3
		C825.6,161.5,823.1,163.9,820.1,163.9z"/>
	<rect x="769.5" y="162.4" class="st6" width="25.6" height="1.5"/>
	<rect x="752" y="146.5" class="st6" width="55.8" height="1.5"/>
	<rect x="773.6" y="130.6" class="st6" width="1.5" height="16.6"/>
	<circle class="st14" cx="761.8" cy="163.1" r="7.3"/>
	<circle class="st14" cx="803" cy="163.1" r="7.3"/>
</g>
<g>
	<path class="st6" d="M854.6,122.5c-0.4,0-0.8-0.3-0.8-0.8v-6.4c0-0.4,0.3-0.8,0.8-0.8s0.8,0.3,0.8,0.8v6.4
		C855.4,122.2,855.1,122.5,854.6,122.5z"/>
	<path class="st6" d="M854.6,116.1c-4.1,0-7.4-3.3-7.4-7.4s3.3-7.4,7.4-7.4s7.4,3.3,7.4,7.4S858.7,116.1,854.6,116.1z M854.6,102.8
		c-3.3,0-5.9,2.7-5.9,5.9s2.7,5.9,5.9,5.9s5.9-2.7,5.9-5.9S857.8,102.8,854.6,102.8z"/>
</g>
<circle class="st8" cx="854.5" cy="108.8" r="4.4"/>
<g>
	<path class="st6" d="M854.6,100.1c-4.1,0-7.4-3.3-7.4-7.4s3.3-7.4,7.4-7.4s7.4,3.3,7.4,7.4S858.7,100.1,854.6,100.1z M854.6,86.8
		c-3.3,0-5.9,2.7-5.9,5.9s2.7,5.9,5.9,5.9s5.9-2.7,5.9-5.9S857.8,86.8,854.6,86.8z"/>
</g>
<circle class="st15" cx="854.5" cy="92.8" r="4.4"/>
<path class="st6" d="M209.5,146.8l-1.2-0.9l7.6-10.6c1.8-3.2,2.9-6.5,3-7v-0.1c0.3-3.5-0.2-4.9-1-5.7l0,0c-0.1,0.4-0.4,0.6-0.8,0.6
	c-0.5,0-1.1,0-1.5,0.2v0.1c0.1,0.4-0.2,0.8-0.6,0.9l0,0c-0.3,0.1-0.8,0.2-0.9,0.3c0.1,0.1,0.2,0.4,0.7,0.7c0.2,0.1,0.3,0.3,0.3,0.5
	c0.2,0.9,0.8,1.4,1.4,1.9c0.2,0.1,0.3,0.2,0.5,0.4c0.4,0.4,1.2,1.1-2.4,6.1c-1.2,1.3-5.4,4.5-8.3,3.1l0.7-1.4
	c1.9,0.9,5.3-1.3,6.5-2.7c1.2-1.7,2.2-3.5,2.4-4.1c-0.1,0-0.1-0.1-0.2-0.1c-0.6-0.5-1.6-1.2-2-2.5c-1-0.7-1.1-1.6-1.2-1.7
	c-0.1-0.9,0.5-1.4,1.2-1.6c0.1-0.3,0.3-0.6,0.4-0.7l0.1-0.1c0.2-0.2,0.5-0.3,0.7-0.4c-0.2-0.2-0.5-0.4-0.8-0.6
	c-0.4-0.3-1.1-0.4-1.6-0.4c-0.7-0.1-1.4-0.2-1.5-0.9c-0.2-0.4,0-1,0.5-1.3c0.8-0.7,2.6-0.8,4.4,0.3c0.9,0.6,1.8,1.3,2.5,2.1
	c1.4,1.2,2.3,3,1.9,7.3l0,0c-0.1,1.2-1.6,5-3.2,7.8L209.5,146.8z M214.8,122.7L214.8,122.7L214.8,122.7L214.8,122.7z"/>
<path class="st3" d="M629.3,97.4c-0.1,0-0.1,0-0.2,0c-0.4-0.1-0.6-0.4-0.6-0.8s0.4-0.7,0.7-0.7l0,0c0.4,0,0.7,0.3,0.7,0.7
	C629.9,97,629.7,97.3,629.3,97.4C629.4,97.4,629.4,97.4,629.3,97.4z"/>
<path class="st8" d="M638.4,145.1h-6.1c-0.4,0-0.8-0.3-0.8-0.8V91c0-2.1,1.7-3.8,3.8-3.8s3.8,1.7,3.8,3.8v53.3
	C639.1,144.8,638.8,145.1,638.4,145.1z M633,143.6h4.6V91c0-1.3-1-2.3-2.3-2.3s-2.3,1-2.3,2.3V143.6z"/>
<path class="st16" d="M623.3,145.1c-0.4,0-0.7-0.3-0.8-0.7l-0.1-38.3c0-1,0.4-2,1.1-2.7c0.7-0.7,1.7-1.1,2.7-1.1l0,0
	c1.1,0,2,0.4,2.7,1.1s1.1,1.7,1.1,2.7l0.1,38.3c0,0.2-0.1,0.4-0.2,0.5s-0.3,0.2-0.5,0.2H623.3L623.3,145.1z M626.2,103.7
	c-0.6,0-1.2,0.2-1.6,0.7c-0.4,0.4-0.7,1-0.7,1.6l0.1,37.6h4.6l-0.1-37.6c0-0.6-0.2-1.2-0.7-1.6C627.4,103.9,626.9,103.7,626.2,103.7
	C626.3,103.7,626.2,103.7,626.2,103.7z M626.2,102.9L626.2,102.9L626.2,102.9z"/>
<path class="st15" d="M647.3,145.1h-6.1c-0.4,0-0.8-0.3-0.8-0.8v-28.8c0-2.1,1.7-3.8,3.8-3.8s3.8,1.7,3.8,3.8v28.8
	C648.1,144.8,647.8,145.1,647.3,145.1z M642,143.6h4.6v-28c0-1.3-1-2.3-2.3-2.3s-2.3,1-2.3,2.3V143.6z"/>
<path class="st17" d="M620.3,145.1h-6.1c-0.4,0-0.8-0.3-0.8-0.8v-41.2c0-2.1,1.7-3.8,3.8-3.8s3.8,1.7,3.8,3.8v41.2
	C621.1,144.8,620.7,145.1,620.3,145.1z M615,143.6h4.6v-40.5c0-1.3-1-2.3-2.3-2.3s-2.3,1-2.3,2.3V143.6z"/>
<path class="st12" d="M700.6,106.4c0.4,0,0.8,0.2,1.1,0.5l7.6,10.9c0,0.9-0.7,1.5-1.5,1.5h-2.5c0.5,0,1,0.2,1.3,0.5l3.7,5.5
	c0,1-0.8,1.8-1.8,1.8c0.6,0,1.1,0.2,1.5,0.6l4.2,6.1c0,1.1-0.9,2-2,2l-0.8,0.3c0.6,0,1.2,0.2,1.6,0.7l4.5,4.8c0,1.2-1.1,2.2-2.3,2.2
	h-28.4c-1.2,0-2.3-1-2.3-2.2l4.5-4.8c0.4-0.4,1-0.7,1.6-0.7l-0.8-0.3c-1.1,0-2-0.9-2-2l4.2-6.1c0.4-0.4,0.9-0.6,1.4-0.6
	c-1,0-1.8-0.8-1.8-1.8l3.7-5.5c0.3-0.3,0.8-0.5,1.3-0.5l-2.4-0.2c-0.9,0-1.5-0.7-1.5-1.5l7.3-10.7
	C699.8,106.6,700.2,106.4,700.6,106.4"/>
<g>
	<path class="st18" d="M672.2,159.1c-0.1,0.1-0.1,0.1-0.2,0.2c-0.1,0.1-0.1,0.2-0.2,0.2c-0.1,0.1-0.1,0.2-0.2,0.3
		c0,0.1-0.1,0.1-0.1,0.2c0.2,0.1,0.4,0.3,0.6,0.5c0.2,0.2,0.2,0.5,0.3,0.7c0.1,0,0.1,0,0.2-0.1c0.1,0,0.2-0.1,0.3-0.1
		s0.2-0.1,0.3-0.1s0.2-0.1,0.3-0.1c0.1-0.1,0.2-0.1,0.3-0.2c0.1-0.1,0.2-0.1,0.3-0.2c0.1-0.1,0.2-0.1,0.2-0.2
		c0.1-0.1,0.2-0.1,0.2-0.2c0.1-0.1,0.1-0.1,0.2-0.2c0.1-0.1,0.1-0.2,0.2-0.2c0.1-0.1,0.1-0.2,0.2-0.3c0-0.1,0.1-0.1,0.1-0.2l0,0
		c0.2-0.4,0.4-0.8,0.6-1.3c-0.5,0-1,0-1.4,0.1l0,0c-0.1,0-0.1,0-0.2,0.1c-0.1,0-0.2,0.1-0.3,0.1s-0.2,0.1-0.3,0.1s-0.2,0.1-0.3,0.1
		c-0.1,0.1-0.2,0.1-0.3,0.2c-0.1,0.1-0.2,0.1-0.3,0.2c-0.1,0.1-0.2,0.1-0.2,0.2C672.3,159,672.2,159.1,672.2,159.1z"/>
	<path class="st6" d="M671.6,162.2l-0.1-0.9c0-0.1-0.1-0.2-0.1-0.3c-0.1-0.1-0.2-0.2-0.3-0.2l-0.8-0.3l0.5-0.8l0.1-0.1l0.6,0.3l0,0
		l-0.6-0.4c0.1-0.1,0.1-0.2,0.2-0.3c0.1-0.1,0.2-0.2,0.2-0.3c0.1-0.1,0.2-0.2,0.2-0.3c0.1-0.1,0.2-0.2,0.3-0.3s0.2-0.2,0.3-0.2
		c0.1-0.1,0.2-0.1,0.3-0.2c0.1-0.1,0.2-0.1,0.3-0.2c0.1-0.1,0.2-0.1,0.3-0.2c0.1-0.1,0.2-0.1,0.3-0.2c0.1,0,0.2-0.1,0.3-0.1
		c0.2-0.1,0.2-0.1,0.3-0.1l0.5-0.1l0,0c0.4-0.1,0.8-0.1,1.1-0.1l0.9,0.1l-0.2,0.9c-0.1,0.4-0.2,0.7-0.4,1.1l0,0l-0.3,0.4
		c0,0.1-0.1,0.1-0.1,0.2c-0.1,0.2-0.2,0.3-0.3,0.4c-0.1,0.1-0.2,0.2-0.2,0.3c-0.1,0.1-0.2,0.2-0.2,0.3c-0.1,0.1-0.2,0.2-0.3,0.3
		s-0.2,0.2-0.3,0.2c-0.1,0.1-0.2,0.1-0.3,0.2c-0.1,0.1-0.2,0.1-0.3,0.2c-0.1,0.1-0.2,0.1-0.3,0.2c-0.1,0.1-0.2,0.1-0.4,0.2
		c-0.1,0-0.2,0.1-0.3,0.1l-0.3-0.7l0.2,0.7c-0.1,0-0.1,0-0.2,0L671.6,162.2z M672.5,159.9c0.1,0.1,0.1,0.1,0.2,0.2
		c0,0.1,0.1,0.1,0.1,0.2l0,0c0.1,0,0.2-0.1,0.2-0.1c0.1,0,0.2-0.1,0.2-0.1c0.1,0,0.1-0.1,0.2-0.1c0.1,0,0.1-0.1,0.2-0.2
		c0.1-0.1,0.1-0.1,0.2-0.2c0.1-0.1,0.1-0.1,0.2-0.2c0.1-0.1,0.1-0.1,0.2-0.2c0.1-0.1,0.1-0.1,0.2-0.2l0.1-0.2c0,0,0,0,0-0.1
		c0,0,0,0-0.1,0l-0.2,0.1c-0.1,0-0.2,0.1-0.3,0.1s-0.2,0.1-0.3,0.1s-0.2,0.1-0.2,0.1c-0.1,0-0.2,0.1-0.2,0.1c-0.1,0-0.1,0.1-0.2,0.1
		c-0.1,0-0.1,0.1-0.2,0.2c-0.1,0.1-0.1,0.1-0.2,0.2l0,0C672.6,159.7,672.6,159.8,672.5,159.9L672.5,159.9z"/>
</g>
<g>
	<path class="st18" d="M669.4,159.2c0,0.1,0.1,0.2,0.1,0.3s0.1,0.2,0.1,0.3s0.1,0.2,0.2,0.3c0,0.1,0.1,0.1,0.1,0.2
		c0.2-0.2,0.4-0.3,0.7-0.3s0.5,0,0.8,0.1c0-0.1,0-0.1,0-0.2c0-0.1,0-0.2,0-0.3s0-0.2,0-0.3s0-0.2,0-0.3s0-0.2,0-0.3s0-0.2,0-0.3
		s0-0.2-0.1-0.3c0-0.1-0.1-0.2-0.1-0.3s-0.1-0.2-0.1-0.3s-0.1-0.2-0.1-0.3s-0.1-0.2-0.2-0.3c0-0.1-0.1-0.1-0.1-0.2l0,0
		c-0.3-0.4-0.6-0.8-0.9-1.1c-0.2,0.4-0.4,0.9-0.5,1.3l0,0c0,0.1,0,0.1,0,0.2c0,0.1,0,0.2,0,0.3s0,0.2,0,0.3s0,0.2,0,0.3s0,0.2,0,0.3
		s0,0.2,0,0.3s0,0.2,0.1,0.3C669.3,159,669.4,159.1,669.4,159.2z"/>
	<path class="st6" d="M669.7,161.4l-0.5-0.8c0,0-0.1-0.1-0.1-0.2c-0.1-0.2-0.2-0.3-0.2-0.4c-0.1-0.1-0.1-0.2-0.1-0.3
		c-0.1-0.1-0.1-0.2-0.1-0.4c0-0.1-0.1-0.2-0.1-0.4c0-0.1-0.1-0.2-0.1-0.4c0-0.1,0-0.2,0-0.4c0-0.1,0-0.2,0-0.4c0-0.1,0-0.2,0-0.4
		c0-0.1,0-0.3,0-0.4c0-0.1,0-0.2,0-0.3c0-0.2,0-0.2,0-0.3l0.1-0.5c0.1-0.4,0.3-0.7,0.4-1l0.4-0.8l0.7,0.6c0.3,0.2,0.5,0.5,0.8,0.8
		l0,0l0.3,0.4c0,0.1,0.1,0.1,0.1,0.2c0.1,0.2,0.2,0.3,0.2,0.4c0.1,0.1,0.1,0.2,0.2,0.4c0,0.1,0.1,0.2,0.1,0.3s0.1,0.2,0.1,0.4
		c0,0.1,0.1,0.2,0.1,0.4s0,0.2,0,0.4c0,0.1,0,0.3,0,0.4c0,0.1,0,0.2,0,0.4c0,0.1,0,0.2,0,0.4c0,0.1,0,0.3-0.1,0.4c0,0.1,0,0.2,0,0.2
		l-0.2,0.9l-0.8-0.3c-0.1,0-0.2-0.1-0.4,0c-0.1,0-0.2,0.1-0.3,0.2L669.7,161.4z M670,157L670,157c0,0.2,0,0.3-0.1,0.4
		c0,0.1,0,0.2,0,0.3s0,0.2,0,0.3s0,0.2,0,0.3s0,0.2,0,0.3s0,0.2,0.1,0.3c0,0.1,0,0.2,0.1,0.3l0,0c0,0.1,0.1,0.2,0.1,0.2l0,0
		c0.1,0,0.2,0,0.2-0.1c0.1,0,0.2,0,0.2,0l0,0c0-0.1,0-0.2,0-0.3s0-0.2,0-0.3s0-0.2,0-0.3s0-0.2-0.1-0.3c0-0.1,0-0.2-0.1-0.3
		c0-0.1-0.1-0.2-0.1-0.2c0-0.1-0.1-0.2-0.1-0.3s-0.1-0.2-0.1-0.2l-0.1-0.2c0,0,0,0,0-0.1c0,0,0,0,0,0.1L670,157z"/>
</g>
<g>
	<path class="st18" d="M673.4,161.8c-0.1,0-0.2-0.1-0.3-0.1s-0.2-0.1-0.3-0.1s-0.2-0.1-0.3-0.1s-0.1,0-0.2-0.1
		c0,0.3-0.1,0.5-0.2,0.7c-0.1,0.2-0.3,0.4-0.6,0.5c0,0.1,0.1,0.1,0.1,0.2c0.1,0.1,0.1,0.2,0.2,0.3c0.1,0.1,0.2,0.2,0.2,0.2
		c0.1,0.1,0.1,0.1,0.2,0.2c0.1,0.1,0.2,0.1,0.3,0.2c0.1,0.1,0.2,0.1,0.3,0.2c0.1,0.1,0.2,0.1,0.3,0.2c0.1,0.1,0.2,0.1,0.3,0.1
		s0.2,0.1,0.3,0.1s0.2,0.1,0.3,0.1s0.2,0.1,0.3,0.1s0.1,0,0.2,0.1l0,0c0.5,0.1,0.9,0.1,1.4,0c-0.1-0.5-0.4-0.9-0.6-1.3l0,0
		c0-0.1-0.1-0.1-0.1-0.2c-0.1-0.1-0.1-0.2-0.2-0.3c-0.1-0.1-0.2-0.2-0.2-0.2c-0.1-0.1-0.1-0.1-0.2-0.2c-0.1-0.1-0.2-0.1-0.3-0.2
		c-0.1-0.1-0.2-0.1-0.3-0.2c-0.1-0.1-0.2-0.1-0.3-0.2C673.6,161.9,673.5,161.8,673.4,161.8z"/>
	<path class="st6" d="M674.9,165.4l-0.5-0.1c-0.1,0-0.1,0-0.2,0c-0.2,0-0.3-0.1-0.4-0.1c-0.1,0-0.2-0.1-0.4-0.1
		c-0.1,0-0.2-0.1-0.3-0.1s-0.2-0.1-0.3-0.2c-0.1-0.1-0.2-0.1-0.3-0.2c-0.1-0.1-0.2-0.1-0.3-0.2c-0.1-0.1-0.2-0.1-0.3-0.2
		c-0.1-0.1-0.2-0.2-0.3-0.2c-0.1-0.1-0.2-0.2-0.3-0.3s-0.2-0.2-0.2-0.3c-0.1-0.1-0.1-0.1-0.1-0.2l-0.5-0.7l0.8-0.4
		c0.1-0.1,0.2-0.1,0.3-0.2c0.1-0.1,0.1-0.2,0.1-0.3v-0.9l0.9,0.2c0.1,0,0.1,0,0.2,0c0.2,0,0.3,0.1,0.4,0.1c0.1,0,0.2,0.1,0.3,0.1
		s0.2,0.1,0.3,0.1l0,0c0.1,0.1,0.2,0.1,0.3,0.2c0.1,0.1,0.2,0.1,0.3,0.2c0.1,0.1,0.2,0.1,0.3,0.2c0.1,0.1,0.2,0.2,0.3,0.2
		c0.1,0.1,0.2,0.2,0.3,0.2c0.1,0.1,0.2,0.2,0.3,0.3s0.2,0.2,0.2,0.3c0.1,0.1,0.1,0.2,0.2,0.2l0.3,0.4l0,0c0.2,0.3,0.4,0.7,0.5,1
		l0.3,0.9l-0.9,0.1C675.7,165.4,675.3,165.4,674.9,165.4L674.9,165.4z M674.6,163.8L674.6,163.8c0.1,0,0.1,0,0.2,0c0,0,0,0,0-0.1
		l-0.1-0.2c-0.1-0.1-0.1-0.2-0.2-0.2c-0.1-0.1-0.1-0.1-0.2-0.2c-0.1-0.1-0.1-0.1-0.2-0.2c-0.1-0.1-0.1-0.1-0.2-0.2
		c-0.1,0-0.1-0.1-0.2-0.1c-0.1-0.1-0.2-0.1-0.2-0.1c-0.1,0-0.2-0.1-0.2-0.1c-0.1,0-0.2-0.1-0.2-0.1l0,0c0,0.1-0.1,0.1-0.1,0.2
		c0,0.1-0.1,0.1-0.1,0.2l0,0c0.1,0.1,0.1,0.1,0.2,0.2c0.1,0.1,0.1,0.1,0.2,0.2c0.1,0.1,0.1,0.1,0.2,0.1c0.1,0.1,0.2,0.1,0.2,0.1
		c0.1,0,0.2,0.1,0.2,0.1c0.1,0,0.2,0.1,0.2,0.1c0.1,0,0.2,0.1,0.3,0.1C674.3,163.8,674.4,163.8,674.6,163.8L674.6,163.8z"/>
</g>
<g>
	<path class="st18" d="M670.9,164c0-0.1,0-0.2,0.1-0.3c0-0.1,0-0.2,0.1-0.3c0-0.1,0-0.2,0-0.3s0-0.1,0-0.2c-0.2,0-0.5,0-0.8-0.1
		c-0.2-0.1-0.4-0.3-0.6-0.5c0,0.1-0.1,0.1-0.1,0.2c-0.1,0.1-0.1,0.2-0.2,0.3c-0.1,0.1-0.1,0.2-0.2,0.3c-0.1,0.1-0.1,0.2-0.2,0.3
		c-0.1,0.1-0.1,0.2-0.2,0.3c0,0.1-0.1,0.2-0.1,0.3s-0.1,0.2-0.1,0.3s-0.1,0.2-0.1,0.3s0,0.2-0.1,0.3c0,0.1,0,0.2-0.1,0.3
		c0,0.1,0,0.2,0,0.3s0,0.1,0,0.2l0,0c0,0.5,0.1,0.9,0.2,1.4c0.4-0.2,0.8-0.5,1.1-0.9l0,0c0.1-0.1,0.1-0.1,0.1-0.2
		c0.1-0.1,0.1-0.2,0.2-0.3c0.1-0.1,0.1-0.2,0.2-0.3c0.1-0.1,0.1-0.2,0.2-0.3c0.1-0.1,0.1-0.2,0.2-0.3c0-0.1,0.1-0.2,0.1-0.3
		s0.1-0.2,0.1-0.3C670.8,164.2,670.9,164.1,670.9,164z"/>
	<path class="st6" d="M668.1,168.1l-0.3-0.9c-0.1-0.4-0.2-0.7-0.2-1.1l0,0v-0.5c0-0.1,0-0.1,0-0.2c0-0.2,0-0.3,0-0.4
		c0-0.1,0-0.2,0.1-0.4c0-0.1,0-0.2,0.1-0.4c0-0.1,0.1-0.2,0.1-0.4c0-0.1,0.1-0.2,0.1-0.3s0.1-0.2,0.2-0.3c0.1-0.1,0.1-0.2,0.2-0.3
		c0.1-0.1,0.1-0.2,0.2-0.3c0.1-0.1,0.1-0.2,0.2-0.3c0.1-0.1,0.1-0.2,0.2-0.3l0.6,0.4l0,0l-0.6-0.5l0.1-0.1l0.6-0.6l0.5,0.7
		c0.1,0.1,0.2,0.2,0.3,0.2s0.2,0.1,0.4,0l0.9-0.1v0.9c0,0.1,0,0.1,0,0.2c0,0.2,0,0.3,0,0.4c0,0.1,0,0.3-0.1,0.4c0,0.1,0,0.2-0.1,0.3
		c0,0.1-0.1,0.2-0.1,0.4c0,0.1-0.1,0.2-0.1,0.3s-0.1,0.2-0.2,0.3c-0.1,0.1-0.1,0.2-0.2,0.3c-0.1,0.1-0.1,0.2-0.2,0.3
		c-0.1,0.1-0.1,0.2-0.2,0.3c-0.1,0.1-0.1,0.2-0.2,0.3l-0.7-0.4l0.6,0.5l-0.1,0.1l-0.4,0.4l0,0c-0.3,0.2-0.6,0.5-0.9,0.6L668.1,168.1
		z M669.1,165.5L669.1,165.5c0,0.1,0,0.1,0,0.2l0,0V165.5c0.2,0,0.2,0,0.3-0.1c0.1-0.1,0.1-0.1,0.2-0.2c0-0.1,0.1-0.1,0.1-0.2
		c0-0.1,0.1-0.2,0.1-0.2c0-0.1,0.1-0.2,0.1-0.2c0-0.1,0.1-0.2,0.1-0.2c0-0.1,0.1-0.2,0.1-0.3l0,0c0-0.1,0-0.2,0.1-0.3l0,0
		c-0.1,0-0.1,0-0.2-0.1c-0.1,0-0.1-0.1-0.2-0.1l0,0c0,0.1-0.1,0.1-0.1,0.2c0,0.1-0.1,0.2-0.1,0.2c0,0.1-0.1,0.2-0.1,0.2
		c0,0.1-0.1,0.2-0.1,0.2c0,0.1-0.1,0.2-0.1,0.3s0,0.2-0.1,0.3c0,0.1,0,0.2,0,0.3S669.2,165.5,669.1,165.5L669.1,165.5z"/>
</g>
<g>
	<path class="st18" d="M668.3,161.9c0.1,0,0.2,0,0.3,0s0.2,0,0.3,0s0.2,0,0.3,0s0.1,0,0.2,0c-0.1-0.2-0.1-0.5,0-0.8s0.2-0.5,0.4-0.7
		c-0.1,0-0.1-0.1-0.2-0.1c-0.1-0.1-0.2-0.1-0.3-0.2c-0.1-0.1-0.2-0.1-0.3-0.1s-0.2-0.1-0.3-0.1s-0.2-0.1-0.3-0.1s-0.2-0.1-0.3-0.1
		s-0.2,0-0.3-0.1c-0.1,0-0.2,0-0.3,0s-0.2,0-0.3,0s-0.2,0-0.3,0s-0.2,0-0.3,0s-0.1,0-0.2,0l0,0c-0.5,0.1-0.9,0.2-1.4,0.4
		c0.3,0.4,0.6,0.7,1,1l0,0c0.1,0,0.1,0.1,0.2,0.1c0.1,0.1,0.2,0.1,0.3,0.2c0.1,0.1,0.2,0.1,0.3,0.1s0.2,0.1,0.3,0.1s0.2,0.1,0.3,0.1
		s0.2,0.1,0.3,0.1s0.2,0,0.3,0.1C668.1,161.8,668.2,161.9,668.3,161.9z"/>
	<path class="st6" d="M668.8,162.6c-0.1,0-0.1,0-0.2,0c-0.1,0-0.2,0-0.4,0l0,0c-0.1,0-0.3,0-0.4,0c-0.1,0-0.2,0-0.3-0.1
		c-0.1,0-0.2-0.1-0.3-0.1s-0.3-0.1-0.4-0.1c-0.1,0-0.2-0.1-0.3-0.1c-0.1-0.1-0.2-0.1-0.3-0.2c-0.1-0.1-0.2-0.1-0.3-0.2
		c-0.1-0.1-0.2-0.1-0.2-0.1l-0.4-0.3l0,0c-0.3-0.3-0.6-0.5-0.8-0.8l-0.6-0.7l0.8-0.4c0.3-0.2,0.7-0.3,1-0.4l0,0l0.5-0.1
		c0.1,0,0.1,0,0.2,0c0.2,0,0.3,0,0.4,0c0.1,0,0.3,0,0.4,0c0.1,0,0.2,0,0.4,0c0.1,0,0.3,0,0.4,0c0.1,0,0.2,0,0.3,0.1
		c0.1,0,0.2,0.1,0.3,0.1s0.3,0.1,0.4,0.1c0.1,0,0.2,0.1,0.3,0.1c0.2,0.1,0.3,0.1,0.4,0.2c0.1,0.1,0.2,0.1,0.3,0.2
		c0.1,0.1,0.1,0.1,0.2,0.1l0.7,0.5l-0.6,0.6c-0.1,0.1-0.1,0.2-0.2,0.3c0,0.1,0,0.2,0,0.4l0.3,0.8l-0.9,0.1c-0.1,0-0.1,0-0.2,0
		c-0.2,0-0.3,0-0.4,0C668.9,162.6,668.8,162.6,668.8,162.6z M668.4,161.1c0.1,0,0.2,0,0.3,0l0,0c0-0.1,0-0.2,0-0.2
		c0-0.1,0-0.1,0.1-0.2l0,0c-0.1-0.1-0.2-0.1-0.3-0.1s-0.2-0.1-0.3-0.1s-0.2-0.1-0.3-0.1s-0.2,0-0.3,0s-0.2,0-0.3,0s-0.2,0-0.3,0
		s-0.2,0-0.3,0s-0.2,0-0.3,0h-0.2c0,0,0,0-0.1,0c0,0,0,0,0.1,0l0.2,0.1c0.1,0.1,0.2,0.1,0.2,0.1c0.1,0,0.2,0.1,0.2,0.1
		c0.1,0,0.2,0.1,0.2,0.1c0.1,0,0.2,0.1,0.3,0.1s0.2,0.1,0.3,0.1s0.2,0,0.3,0C668.2,161.1,668.3,161.1,668.4,161.1z"/>
</g>
<path class="st6" d="M670.6,160c-0.8,0-1.4,0.6-1.4,1.4c0,0.8,0.6,1.4,1.4,1.4s1.4-0.6,1.4-1.4S671.4,160,670.6,160L670.6,160z"/>
<path class="st17" d="M648.4,149.1L648.4,149.1l-35.2-0.4c-0.4,0-0.7-0.3-0.7-0.8s0.4-0.7,0.8-0.7l35.2,0.4c0.4,0,0.7,0.3,0.7,0.8
	C649.1,148.7,648.8,149.1,648.4,149.1z"/>
<path class="st12" d="M383.9,112c2.3,0.2,4.5-1.1,5.7-3.2c3.1-0.2,5.9-3.6,6.2-8.1c0.3-3.5-1-6.7-3-8.2c0.1-0.4,0.2-0.8,0.2-1.2
	c0.3-3.9-2.2-7.2-5.6-7.5c-2.5-0.2-4.8,1.3-6,3.7c-0.3-0.1-0.6-0.1-1-0.2c-3.4-0.3-6.4,2.6-6.7,6.5c-0.1,1.4,0.1,2.6,0.6,3.8
	c-0.3,0.7-0.5,1.5-0.6,2.3c-0.3,3.6,1.8,6.7,4.7,7.4C379.3,109.8,381.3,111.8,383.9,112z"/>
<path class="st12" d="M368.5,116.8c1.1,0.1,2.2-0.4,2.8-1.3c1.5-0.1,2.8-1.4,3-3.2c0.1-1.4-0.5-2.7-1.5-3.3c0-0.2,0.1-0.3,0.1-0.5
	c0.1-1.6-1.1-2.9-2.8-3.1c-1.2-0.1-2.3,0.5-2.9,1.5c-0.2,0-0.3-0.1-0.5-0.1c-1.7-0.1-3.1,1-3.2,2.6c0,0.5,0.1,1.1,0.3,1.5
	c-0.1,0.3-0.2,0.6-0.3,0.9c-0.1,1.4,0.9,2.7,2.4,3C366.3,115.9,367.3,116.7,368.5,116.8z"/>
<g>
	<path class="st6" d="M24.6,171.8h-24v1.2h24c5.9,0,10.6-4.8,10.6-10.6H34C34,167.6,29.8,171.8,24.6,171.8z"/>
	<path class="st6" d="M196.7,129.3L196.7,129.3c4,0,7.6-1.9,9.7-5.1c2.1-3.2,2.6-7.2,1.1-10.8c-1.7-4.3-6.1-7.2-10.8-7.2
		c-3.9,0-7.5,1.9-9.6,5.1s-2.6,7.2-1.1,10.8C187.8,126.4,192.1,129.3,196.7,129.3z M188.3,112.1c1.9-2.8,5.1-4.5,8.5-4.5
		c4.2,0,8,2.5,9.5,6.3c1.3,3.2,0.9,6.7-1,9.5s-5.1,4.5-8.5,4.5h-0.1c-4.1,0-7.9-2.5-9.4-6.3C186,118.5,186.4,114.9,188.3,112.1z"/>
	<path class="st6" d="M198.6,130.3h-4.5c-3.7,0-6.3,2-8.5,6.4l-6.8,9.4c-0.2,0.2-0.4,0.4-0.5,0.6c-0.1,0.1-0.1,0.1-0.2,0.1
		c-2,0.6-4.7,1.7-5,1.9c-3,1.8-4.4,3.2-4.3,4.3c0,0.4,0.3,0.7,0.6,0.9c0.3,0.1,0.6,0.1,0.9,0.1c-0.7,0.7-1.1,1.2-1.1,1.7
		c0,0.4,0.1,0.7,0.3,1c0.7,0.7,1.8,0.1,2.9-0.6c-0.1,0.4-0.1,0.8,0,1.2c0.1,0.2,0.3,0.4,0.5,0.4c1.5,0.3,3-1.3,4.3-2.7l0.1-0.1
		c0.2-0.2,0.3-0.4,0.5-0.5c0.2-0.2,0.5-0.4,0.7-0.5c0,0.4,0,0.8-0.1,1.1c-0.1,1.3-0.1,1.8,0.3,2.1c0.5,0.4,0.9,0.3,1.1,0.2
		c0.9-0.3,1.4-1.7,1.8-3.4v-0.1c0-0.2,0.1-0.3,0.1-0.4c0-0.1,0.1-0.1,0.1-0.2c0.2-1.1,0.1-2,0.1-2.8c0-0.5-0.1-1,0-1.2
		c0.2-0.4,1.6-1.9,2.6-2.8c0,0.1,0,0.2-0.1,0.3l-2.5,20.1c-0.3,1.3-0.8,2.4-1.7,3.3c-1.3,1.4-3.7,1.5-6.4,1.6l-12.4,0.1l0,0H155
		c-5.1,0-9.3-4.1-9.4-9.2l0,0v-116c0-4.2-3.4-7.6-7.6-7.6h-7.9v-0.1H41.3c-4.2,0-7.6,3.4-7.6,7.6v116h1.2v-116
		c0-3.5,2.9-6.4,6.4-6.4h7.9v0.1H138c3.5,0,6.4,2.9,6.4,6.4v115.9l0,0c0,5.9,4.8,10.6,10.6,10.6h6.2c0.1,0,0.1,0,0.2,0h3.6h0.9l0,0
		l6.9-0.1h1c2.9-0.1,5.6-0.2,7.4-2c1-1.1,1.7-2.4,2-4l2.5-20.1c0.3-1.4,0.4-2.1-0.2-2.4c-0.6-0.3-1,0.1-1.7,0.7l-0.2,0.1
		c-0.6,0.6-2.7,2.5-3.1,3.3c-0.3,0.5-0.2,1.2-0.2,1.9c0.1,0.7,0.1,1.5,0,2.4c-0.1,0.2-0.2,0.5-0.2,0.8c-0.2,0.9-0.4,1.5-0.5,1.9
		c0-0.1,0-0.2,0-0.4c0.1-1.6,0.1-2.4-0.4-2.7c-0.2-0.1-0.6-0.1-0.8,0c-0.1,0-0.1,0.1-0.2,0.1c-0.4,0.2-1,0.5-1.5,1
		c-0.2,0.2-0.4,0.4-0.7,0.7c-0.7,0.7-1.7,1.8-2.5,2.2c0.2-0.5,0.9-1.1,1.5-1.7c0.6-0.6,1.2-1.1,1.6-1.7c0.1-0.2,0.1-0.5-0.1-0.7
		s-0.5-0.3-0.7-0.2c-0.5,0.2-1.2,0.7-2.4,1.6c-0.7,0.6-2.5,2-3.1,2.2c0.1-0.2,0.6-0.8,2.8-2.5c1.5-1.1,2-1.5,2.1-2.1
		c0-0.2-0.1-0.5-0.2-0.6c-0.3-0.3-0.7-0.7-4.8,2c0,0,0,0-0.1,0c0.3-0.4,1.1-1.3,3.5-2.8c0.2-0.1,2.6-1.1,4.7-1.7
		c0.5-0.1,0.6-0.4,0.8-0.6c0.1-0.1,0.2-0.3,0.4-0.5l6.9-9.6c2-4.1,4.2-5.8,7.4-5.8h4.5c3.2,0,6.8,2.4,8,5.3l0.2-0.1l0,0l0.9-0.4l0,0
		h0.1C206.5,133,202.4,130.3,198.6,130.3z"/>
	<path class="st6" d="M206.3,138.5v0.1c0.2,0,0.4,0,0.5,0.1l0.1-0.2C206.7,138.4,206.5,138.4,206.3,138.5L206.3,138.5z"/>
	<path class="st6" d="M865.6,172.4c-4.1,0-7.4-3.3-7.4-7.4v-39.8c0-2-1.6-3.7-3.7-3.7c-2,0-3.6,1.6-3.6,3.6v39.8
		c0,4.1-3.3,7.4-7.4,7.4h-14.3l-117.6,0.2c-4,0-7.3-3.3-7.3-7.3v-15.8c0-2-1.6-3.6-3.6-3.6s-3.6,1.6-3.6,3.6v15.8
		c0,4-3.2,7.2-7.2,7.3v-0.1h-17.6V163c0-0.4-0.3-0.8-0.8-0.8s-0.8,0.3-0.8,0.8v9.5H660c-3.4,0-6.2-2.8-6.2-6.2v-8
		c0-4.3-3.5-7.8-7.8-7.8h-30.3c-4.3,0-7.8,3.5-7.8,7.8v8c0,3.4-2.8,6.2-6.3,6.2l-18.9,0.1c-4.1,0-7.4-3.3-7.4-7.4v-17.8
		c0-1.8-1.3-3.3-3-3.6v-15.4c4.7-0.4,8.4-4.4,8.4-9.2c0-5.1-4.2-9.3-9.3-9.3s-9.3,4.2-9.3,9.3c0,4.9,3.8,8.9,8.6,9.3v15.4
		c-1.6,0.4-2.9,1.8-2.9,3.5v17.8c0,4.1-3.3,7.4-7.4,7.4h-3v-0.1h-17.8c-3.4,0-6.2-2.8-6.2-6.2h-0.1v-65.7c0.1-0.4,1.3-1.6,1.6-1.7
		h8.2h2.3c0.8,0,1.6-0.3,2.2-0.9c0.6-0.6,0.9-1.4,0.9-2.2c0-0.8-0.3-1.6-0.9-2.1l-0.1-0.1l-48.2-27.3c-2.5-1.5-5.1-1.6-7.7-0.2
		l-48.7,27.5l-0.5,0.3l-0.2,0.1c-0.7,0.7-0.8,1.4-0.8,2c0,0.8,0.3,1.6,0.9,2.2s1.4,0.9,2.2,0.9h2.3h8.1c0.4,0.1,1.6,1.2,1.7,1.6v65
		l0,0c0,3.4-2.8,6.2-6.2,6.2l-7.1-0.1c-3.4,0-6.2-2.8-6.2-6.3c0-4.3-3.5-7.8-7.8-7.8H417c-4.3,0-7.8,3.5-7.8,7.8
		c0,3.4-2.8,6.2-6.2,6.2v0.1h-9.6c-4.1,0-7.4-3.3-7.4-7.4l-0.1-26.9l7.5-10.4c0.4,0.3,0.9,0.5,1.5,0.5c0.1,0,0.2,0,0.2,0
		c1.2,0,2.4-0.8,3.2-2.2c1.7-0.5,3.1-2.8,3.4-5.8c0.2-2.2-0.3-4.2-1.3-5.4c0-0.2,0-0.3,0.1-0.5c0.1-1.3-0.1-2.6-0.7-3.6
		c-0.6-1.1-1.5-1.8-2.6-1.9c-1.4-0.1-2.7,0.8-3.5,2.3c-1-0.1-2.1,0.4-2.8,1.4c-0.7,0.9-1.2,2.1-1.3,3.5c-0.1,0.8,0,1.7,0.2,2.4
		c-0.1,0.5-0.2,0.9-0.3,1.4c-0.2,1.9,0.5,3.7,1.5,4.7l-4,5.7v-17.9c1-0.6,1.9-1.4,2.5-2.4c3.4-0.5,6.1-4.1,6.5-8.7
		c0.3-3.5-0.9-6.8-2.9-8.5c0.1-0.3,0.1-0.6,0.1-0.9c0.2-2.1-0.4-4-1.5-5.6c-1.2-1.6-2.9-2.6-4.7-2.7c-2.6-0.2-5,1.2-6.4,3.6
		c-0.2,0-0.3-0.1-0.5-0.1c-3.8-0.3-7.2,2.9-7.5,7.2c-0.1,1.3,0.1,2.6,0.6,3.8c-0.3,0.7-0.4,1.5-0.5,2.3c-0.3,3.7,1.8,7.1,4.9,8.1
		c0.5,1.4,1.3,2.5,2.3,3.4c0,0.2-0.1,0.3-0.1,0.5v9.8l-5.5-7.8c0.2-0.4,0.3-0.9,0.4-1.4c0.1-1.5-0.4-2.9-1.5-3.7v-0.1
		c0.1-1-0.2-1.9-0.9-2.6c-0.7-0.7-1.6-1.2-2.5-1.3c-1.3-0.1-2.5,0.4-3.3,1.4c0,0,0,0-0.1,0c-1-0.1-2,0.2-2.7,0.8
		c-0.8,0.6-1.2,1.5-1.3,2.5c0,0.5,0,1.1,0.3,1.6c-0.1,0.3-0.2,0.6-0.2,0.9c-0.1,1.7,0.9,3.2,2.6,3.7c0.6,1.2,1.7,2,3.1,2.1
		c0.1,0,0.2,0,0.3,0c0.8,0,1.5-0.2,2.1-0.6l9.3,12l0.1,0.9v34.8c0,4.1-3.3,7.4-7.4,7.4h-7c-5.6,0-10-1.8-13.9-5.7l-25-29.3l-0.1-0.1
		c-2.3-2-4.8-3-7.3-2.8c-2.1,0.2-4,1.2-5.4,3L291.6,168l-0.1-0.1c-2,2.5-5.7,2.8-8.1,0.8l-15.5-16.6c-3.2-3.2-8.5-3.2-11.7,0
		l-10.2,14c-3.9,3.9-8.4,5.8-14,5.8h-9v0.1l-0.9-0.1h-1c-4.1-0.1-6.7-0.8-7.7-1.9c-0.8-0.8-1.3-1.8-1.6-2.8l-2.2-21.4h-0.1l-1,0.1
		l0,0h-0.2l2.2,21.5c0.4,1.3,1,2.4,1.9,3.4c1.3,1.4,4.1,2.2,8.7,2.3l1.9,0.1v0.1h9c6,0,10.9-2,15.1-6.2l10.5-14.1
		c2.6-2.6,6.9-2.6,9.5,0l15.6,16.7c3,2.5,7.3,2.1,10-0.6l0.2,0.1l22.6-31.2c1.1-1.4,2.7-2.3,4.4-2.4c2-0.2,4.1,0.6,6.1,2.4l25,29.3
		c4.2,4.2,9,6.2,15,6.2h7c4.9,0,8.9-4,8.9-8.9v-34.8l-0.1-1.4l-9.5-12.2c0.6-0.2,1.2-0.5,1.6-1l7.9,11.1v-14.1
		c0.7,0.3,1.4,0.5,2.1,0.6c0.2,0,0.3,0,0.5,0c0.6,0,1.1-0.1,1.7-0.2V132l-0.1,0.2l0.1,0.1l0,0l0,0l1.1,0.8l5.4-7.6
		c0.1,0.3,0.3,0.6,0.4,0.8l-8,11.1l0.1,27.4c0,4.9,4,8.9,8.9,8.9h11v-0.2c3.6-0.6,6.4-3.8,6.4-7.6c0-3.4,2.8-6.2,6.2-6.2h12.3
		c3.4,0,6.2,2.8,6.2,6.3c0,4.3,3.5,7.8,7.7,7.8l7.1,0.1c4.3,0,7.7-3.5,7.7-7.7l0,0v-65c0-1.1-2-3.1-3.1-3.1h-8.2H445
		c-0.4,0-0.8-0.2-1.1-0.5c-0.3-0.3-0.5-0.7-0.5-1.1c0-0.5,0.1-0.7,0.3-0.9l49-27.8c2.2-1.1,4.2-1.1,6.3,0.2l48,27.2
		c0.2,0.3,0.4,0.6,0.4,1s-0.2,0.8-0.5,1.1c-0.3,0.3-0.7,0.5-1.1,0.5h-10.4c-1.1,0-3.1,2-3.1,3.1v66h0.1c0.1,4.2,3.5,7.5,7.7,7.5
		h12.6v0.1h8.3c4.9,0,8.9-4,8.9-8.9v-17.8c0-1.2,0.9-2.1,2.1-2.1c1.2,0,2.2,1,2.2,2.2v17.8c0,4.9,4,8.9,8.9,8.9l18.9-0.1
		c4.3,0,7.8-3.5,7.8-7.8v-8c0-3.4,2.8-6.2,6.2-6.2h30.3c3.4,0,6.2,2.8,6.2,6.2v8c0,4.3,3.5,7.8,7.8,7.8H690v0.1c4.9,0,8.8-4,8.8-8.8
		V150c0-1.2,0.9-2.1,2.1-2.1c1.2,0,2.1,1,2.1,2.1v15.8c0,4.9,4,8.8,8.8,8.8l117.6-0.2h14.3c4.9,0,8.9-4,8.9-8.9v-39.8
		c0-1.2,0.9-2.1,2.1-2.1c1.2,0,2.2,1,2.2,2.2v39.8c0,4.9,4,8.9,8.9,8.9l54.5,0.1v-1.5L865.6,172.4z M373.4,112.6l-0.7,1.4
		c-0.3,0.4-0.8,0.6-1.2,0.7l-1.6,1c-0.4,0.3-0.9,0.4-1.4,0.3c-0.9-0.1-1.7-0.6-2-1.5l-0.1-0.4L366,114c-1.1-0.2-1.9-1.2-1.8-2.2
		c0-0.2,0.1-0.5,0.2-0.7l0.2-0.3l-0.2-0.3c-0.2-0.3-0.3-0.7-0.2-1.1c0-0.6,0.3-1.1,0.8-1.4c0.5-0.4,1.1-0.5,1.7-0.5
		c0.1,0,0.2,0,0.4,0.1l0.5,0.1l0.3-0.5c0.4-0.7,1.3-1.2,2.2-1.1c0.6,0.1,1.2,0.3,1.6,0.8c0.4,0.4,0.6,1,0.5,1.5c0,0.1,0,0.2-0.1,0.4
		l-0.1,0.5l0.5,0.3c0.8,0.5,1.3,1.5,1.2,2.6C373.5,112.3,373.5,112.4,373.4,112.6z M385.9,111c-0.6,0.2-1.3,0.3-1.9,0.2
		c-0.7-0.1-1.3-0.3-1.9-0.6l-1.2-0.9c-0.7-0.7-1.2-1.6-1.5-2.7l-0.1-0.4l-0.4-0.1c-2.6-0.6-4.4-3.5-4.2-6.6c0.1-0.7,0.2-1.4,0.5-2.1
		l0.1-0.3l-0.1-0.3c-0.5-1-0.7-2.2-0.6-3.4c0.3-3.3,2.7-5.8,5.5-5.8c0.1,0,0.3,0,0.4,0c0.2,0,0.5,0.1,0.8,0.2l0.6,0.2l0.3-0.6
		c1.1-2.2,3.1-3.5,5.2-3.3c1.4,0.1,2.7,0.9,3.6,2.1c0.9,1.3,1.4,2.9,1.2,4.6c0,0.3-0.1,0.7-0.2,1.1l-0.1,0.5l0.4,0.3
		c1.9,1.4,3,4.4,2.7,7.5c-0.3,4-2.8,7.2-5.5,7.4h-0.4l-0.2,0.4c-0.5,0.8-1.1,1.5-1.8,1.9L385.9,111z M392.4,122.9
		c-0.7-0.7-1-2-0.9-3.3c0-0.4,0.1-0.9,0.3-1.3l0.1-0.2l-0.1-0.2c-0.2-0.6-0.3-1.3-0.2-2.1c0.1-1,0.4-2,1-2.6
		c0.3-0.3,0.8-0.9,1.6-0.8c0.1,0,0.2,0,0.3,0.1l0.7,0.2l0.3-0.7c0.5-1.2,1.4-2,2.2-1.9c0.7,0.1,1.2,0.7,1.4,1.1
		c0.4,0.8,0.6,1.7,0.5,2.8c0,0.2-0.1,0.5-0.1,0.7l-0.1,0.4l0.3,0.3c0.7,0.7,1.3,2.3,1.2,4.5c-0.2,2.6-1.5,4.4-2.5,4.5H398l-0.2,0.4
		c-0.5,1.1-1.3,1.8-2.1,1.7c-0.2,0-0.5-0.1-0.7-0.3l-0.9-1.3c-0.1-0.2-0.2-0.5-0.2-0.8v-0.2L392.4,122.9z M563.9,119.2
		c0-4.3,3.5-7.8,7.8-7.8s7.8,3.5,7.8,7.8c0,4.2-3.4,7.6-7.5,7.8c-0.1,0-0.1,0-0.2,0c-0.1,0-0.1,0-0.2,0
		C567.4,127,563.9,123.5,563.9,119.2z"/>
	<path class="st6" d="M686.5,144.6h28.4c1.7,0,3.1-1.3,3.1-3c0-0.2-0.1-0.4-0.2-0.5l-4.5-4.8l0,0c0.9-0.5,1.5-1.4,1.5-2.5
		c0-0.2,0-0.3-0.1-0.4l-4.2-6.1l-0.1-0.1l-0.1-0.1c0.4-0.5,0.7-1.1,0.7-1.8c0-0.2,0-0.3-0.1-0.4l-3.3-4.9h0.2c1.3,0,2.3-1,2.3-2.3
		c0-0.2,0-0.3-0.1-0.4l-7.6-10.9l-0.1-0.1c-0.4-0.4-1-0.7-1.6-0.7l0,0c-0.6,0-1.2,0.2-1.6,0.7l-0.1,0.1l-7.3,10.7
		c-0.1,0.1-0.1,0.3-0.1,0.4c0,1.3,1,2.3,2.2,2.3l0,0h0.3l-3.4,5c-0.1,0.1-0.1,0.3-0.1,0.4c0,0.7,0.3,1.3,0.7,1.8l-0.1,0.1l-0.1,0.1
		l-4.2,6.1c-0.1,0.1-0.1,0.3-0.1,0.4c0,1.1,0.6,2,1.5,2.5l0,0l-4.5,4.8c-0.1,0.1-0.2,0.3-0.2,0.5
		C683.4,143.3,684.8,144.6,686.5,144.6z M689.2,137.4c0.3-0.3,0.7-0.4,1.1-0.4c0.4,0,0.7-0.3,0.7-0.6s-0.1-0.7-0.5-0.8l-0.8-0.3
		c-0.1,0-0.2,0-0.3,0c-0.6,0-1.2-0.5-1.3-1.1l4-5.8c0.2-0.2,0.5-0.3,0.8-0.3c0.4,0,0.8-0.3,0.8-0.8s-0.3-0.8-0.8-0.8s-1-0.4-1.1-0.9
		l3.5-5.2c0.2-0.2,0.4-0.3,0.7-0.3c0.4,0,0.7-0.3,0.7-0.7c0-0.4-0.3-0.7-0.7-0.8l-2.5-0.2c-0.4,0-0.7-0.3-0.8-0.6l7.1-10.4
		c0.1-0.1,0.3-0.2,0.5-0.2l0,0c0.2,0,0.3,0.1,0.5,0.2l7.3,10.6c-0.1,0.3-0.4,0.6-0.8,0.6h-2.5l0,0l0,0c-0.4,0-0.7,0.3-0.7,0.8
		c0,0.4,0.3,0.7,0.8,0.7c0.3,0,0.5,0.1,0.7,0.3l3.5,5.2c-0.1,0.5-0.5,0.9-1,0.9c-0.4,0-0.8,0.3-0.8,0.8s0.3,0.8,0.8,0.8
		c0.3,0,0.7,0.1,0.9,0.3l4,5.8c-0.1,0.6-0.6,1.1-1.3,1.1c-0.1,0-0.2,0-0.3,0l-0.8,0.3c-0.3,0.1-0.5,0.5-0.5,0.8s0.4,0.6,0.7,0.6
		c0.4,0,0.8,0.2,1,0.4l4.3,4.5c-0.1,0.7-0.8,1.2-1.5,1.2h-28.4c-0.8,0-1.4-0.5-1.5-1.2L689.2,137.4z"/>
</g>
<g>
	<g>
		<rect x="417.4" y="152.6" class="st7" width="12.5" height="12.5"/>
		<path class="st6" d="M429.8,152.6V165h-12.5v-12.5h12.5 M431.3,151.1h-1.5h-12.5h-1.5v1.5V165v1.5h1.5h12.5h1.5V165v-12.5V151.1
			L431.3,151.1z"/>
	</g>
</g>
<path class="st19" d="M427.3,156.2c-0.9,0.9-1.6,1.9-2.3,2.9c-0.3,0.5-0.6,1.1-0.9,1.6c-0.3,0.6-0.5,1.1-0.7,1.7l0,0
	c-0.1,0.4-0.6,0.6-1,0.4c-0.2-0.1-0.3-0.2-0.4-0.3l-2.1-3.6c-0.2-0.4-0.1-0.8,0.3-1s0.8-0.1,1,0.3l2.1,3.6l-1.3,0.1l0,0
	c0.3-0.7,0.6-1.2,0.9-1.8s0.7-1.2,1.1-1.7c0.8-1.1,1.6-2.1,2.6-3c0.2-0.2,0.6-0.2,0.8,0C427.5,155.6,427.5,155.9,427.3,156.2
	L427.3,156.2z"/>
<circle class="st8" cx="320.5" cy="134.5" r="4.3"/>
<circle class="st19" cx="263.4" cy="149.8" r="4.3"/>
<circle class="st15" cx="287.3" cy="170.6" r="4.3"/>
</svg>
