<?xml version="1.0" encoding="utf-8"?>
<!-- Generator: Adobe Illustrator 25.2.1, SVG Export Plug-In . SVG Version: 6.00 Build 0)  -->
<svg version="1.1" xmlns="http://www.w3.org/2000/svg" xmlns:xlink="http://www.w3.org/1999/xlink" x="0px" y="0px"
	 viewBox="0 0 920.9 231.6" style="enable-background:new 0 0 920.9 231.6;" xml:space="preserve">
<style type="text/css">
	.st0{fill:#FFFFFF;}
	.st1{opacity:7.000000e-02;fill:url(#SVGID_1_);}
	.st2{fill:#BDD7E6;}
	.st3{fill:none;stroke:#717F80;stroke-width:0.25;stroke-miterlimit:10;}
	.st4{fill:#B0C14F;}
	.st5{fill:none;stroke:#C3DEED;stroke-width:1.5;stroke-linecap:round;stroke-linejoin:round;stroke-miterlimit:10;}
	.st6{fill:#6AA1D3;}
	.st7{fill:#F7E89F;}
	.st8{fill:#D3EFA8;}
	.st9{fill:#BBD6E5;}
	.st10{fill:#E0EFC7;}
	.st11{fill:#D2E2A7;}
	.st12{fill:#EFF6FB;}
	.st13{fill:#F7931E;}
	.st14{fill:#387C9B;}
</style>
<g id="Layer_2">
	<rect x="0.4" class="st0" width="919.8" height="231.6"/>
	<linearGradient id="SVGID_1_" gradientUnits="userSpaceOnUse" x1="460.9598" y1="226.6777" x2="460.3174" y2="10.5842">
		<stop  offset="0" style="stop-color:#E8F2F7;stop-opacity:0.29"/>
		<stop  offset="0.2401" style="stop-color:#C0DAED;stop-opacity:0.4605"/>
		<stop  offset="0.5908" style="stop-color:#8CBADF;stop-opacity:0.7095"/>
		<stop  offset="0.855" style="stop-color:#6BA6D6;stop-opacity:0.897"/>
		<stop  offset="1" style="stop-color:#5F9FD3"/>
	</linearGradient>
	<rect x="0.4" class="st1" width="920.5" height="231.6"/>
</g>
<g id="Layer_1">
	<g>
		<path class="st2" d="M626.9,54.8h-104c-0.4,0-0.8,0.3-0.8,0.8v89c0,0.4,0.3,0.8,0.8,0.8h104c0.4,0,0.8-0.3,0.8-0.8v-89
			C627.7,55.2,627.3,54.8,626.9,54.8z M538.6,143.8h-14.9v-16.4h14.9V143.8z M538.6,125.9h-14.9v-16.5h14.9V125.9z M538.6,107.9
			h-14.9V91.4h14.9V107.9z M538.6,89.9h-14.9V73.4h14.9V89.9z M556.6,143.8h-16.5v-16.4h16.5V143.8z M556.6,125.9h-16.5v-16.5h16.5
			V125.9z M556.6,107.9h-16.5V91.4h16.5V107.9z M556.6,89.9h-16.5V73.4h16.5V89.9z M574.6,143.8h-16.5v-16.4h16.5V143.8z
			 M574.6,125.9h-16.5v-16.5h16.5V125.9z M574.6,107.9h-16.5V91.4h16.5V107.9z M574.6,89.9h-16.5V73.4h16.5V89.9z M592.6,143.8
			h-16.5v-16.4h16.5V143.8z M592.6,125.9h-16.5v-16.5h16.5V125.9z M592.6,107.9h-16.5V91.4h16.5V107.9z M592.6,89.9h-16.5V73.4h16.5
			V89.9z M609.6,143.8h-15.5v-16.4h15.5V143.8z M609.6,125.9h-15.5v-16.5h15.5V125.9z M609.6,107.9h-15.5V91.4h15.5V107.9z
			 M609.6,89.9h-15.5V73.4h15.5V89.9z M626.2,143.8h-15.1v-16.4h15.1V143.8z M626.2,125.9h-15.1v-16.5h15.1V125.9z M626.2,107.9
			h-15.1V91.4h15.1V107.9z M626.2,89.9h-15.1V73.4h15.1V89.9z M626.2,71.9h-15.1V56.7h-1.5v15.3h-15.5V56.7h-1.5v15.3h-16.5V56.7
			h-1.5v15.3h-16.5V56.7h-1.5v15.3h-16.5V56.7h-1.5v15.3h-14.9V56.3h102.5V71.9z"/>
		<path class="st2" d="M844.3,125c8,0.2,14-8.4,10.8-15.8c-3.3-8.4-15.3-9.6-20.3-2C829.6,114.6,835.2,125.1,844.3,125z
			 M835.9,107.9c4.4-6.7,15-5.6,18,1.8c2.8,6.6-2.4,14.1-9.5,14C836.3,123.8,831.3,114.4,835.9,107.9z"/>
		<path class="st2" d="M873,142.7c0.3,0,2.1-0.1,4.7-2.5c0.2-0.2,0.3-0.6,0-0.9c-0.2-0.2-0.6-0.2-0.9,0c-2.3,2.1-3.8,2.2-3.8,2.2
			C872.2,141.5,872.2,142.7,873,142.7z"/>
		<path class="st2" d="M873.2,145C873.2,145,873.2,145,873.2,145c0.2,0,3.7-0.6,6.3-3.6c0.2-0.3,0.2-0.6-0.1-0.9
			c-0.3-0.2-0.7-0.2-0.9,0.1c-2.3,2.7-5.4,3.2-5.5,3.2C872.3,143.9,872.4,145,873.2,145z"/>
		<path class="st2" d="M864.7,126c-0.3,0.7,0.7,1.2,1.1,0.5c0,0,0.7-1.2,3.5-2.2c0.3-0.1,0.5-0.4,0.4-0.7c-0.1-0.3-0.4-0.5-0.8-0.3
			C865.6,124.4,864.8,125.8,864.7,126z"/>
		<path class="st2" d="M861.9,125.8c0.8-0.2,1.4-2.3,5.2-3.3c0.3-0.1,0.5-0.4,0.4-0.7c-0.1-0.3-0.4-0.5-0.7-0.4
			C863.2,122.3,860,125.6,861.9,125.8z"/>
		<path class="st2" d="M896.9,172.1L896.9,172.1l-26.2-0.1c-4.9-0.1-8.5-0.1-9.9-4.9l-2.4-22.6c-0.1-1.3,0.4-2.6,1.3-3.1l6.6-2.7
			c0.5-0.1,0.7-0.3,1-0.4c1.5,0.2,3.7,0.3,6,0.1c5.3-0.1,6.3-0.9,6.7-1.5c0.5-0.8-0.4-1.6-1.2-1.8c1.5-0.5,2.5-0.9,2.3-2.2
			c-0.3-1-1.7-1-3.1-0.9c1.1-1,0.6-2.3-0.5-2.7c-2-0.8-4.6,1.8-6.7,1.8c0.5-0.9,2-2.8,1.5-3.3c-1.4-2.1-3.4,0.6-4.8,2.1
			c-1.3,1.2-1.7,3.1-2.7,4.1c-0.4,0.2-2.2,0.5-4.1,0.7c-2.3,0.3-3.6,0.3-4.1-0.8c-1.5-3.8-6-6.8-10.2-6.8l-4.9,0
			c-4,0-6.9,2.2-9.4,7.1l-7.5,10.4c-0.4,0.3-0.5,0.6-0.7,0.8c-2.2,0.7-5.1,1.8-5.5,2.1c-3.3,2-4.8,3.5-4.7,4.7
			c0,0.8,0.9,1.2,1.7,1.1c-1.1,1.1-1.8,1.9-0.9,3c0.8,0.7,2,0.1,3.2-0.6c-0.2,0.6-0.2,1.6,0.6,1.8c2.3,0.4,4.2-3,6.2-4.3
			c0,1.1-0.4,3.4,0.3,3.6c2.2,1.3,2.8-2,3.3-4.1c0.6-1.6-0.1-3.4,0.2-4.7c0.3-0.5,1.8-2.1,3-3.1c0,0.1,0,0.2-0.1,0.3l-2.8,21.2
			c-1,4.6-4,5.5-8.9,5.4c-9,0.1-29.1,0.1-38.3,0.1c-1,0-1.8-0.8-1.8-1.7s0.8-1.8,1.8-1.8c1.3,0,4.6,0,5.8,0V168
			c0.8-0.6,1.3-1.5,1.3-2.6V162c0-1.8-1.5-3.2-3.2-3.2h-78.6c-1.8,0-3.2,1.5-3.2,3.2v3.4c0,1.5,1.1,2.8,2.5,3.2v0.1
			c0.4,0,5.3,0,5.8,0c2.3,0,2.3,3.5,0,3.5c0,0-21.5,0-21.5,0c-3.4,0-6.2-2.8-6.2-6.2v-54.2c0-0.8,0-8.3,0-9.2c0-1.6-1.2-3-2.8-3.2
			v-7.7c0-3.4,2.8-6.2,6.2-6.2h19.3c3.4,0,6.2,2.8,6.2,6.2v4.6c-2.3,0.9-1.7,4.4,0.8,4.4c2.6,0,3.1-3.7,0.7-4.4v-4.6
			c0-4.3-3.5-7.8-7.8-7.8H687c-4.3,0-7.8,3.5-7.8,7.8v7.9c-1.3,0.4-2.2,1.6-2.2,3.1v63.4c0,3.4-2.8,6.2-6.2,6.2l-10.2,0v0
			c0,0-0.1,0-0.1,0v0l-10.7,0c-3.4,0-6.2-2.8-6.2-6.2v-111h-0.2c0,0,0-7,0-7c0-4.3-3.5-7.8-7.8-7.8H515.8c-4.3,0-7.8,3.5-7.8,7.8
			v118c0,3.4-2.8,6.2-6.2,6.2c0,0-14.2,0-14.2,0c-3.5,0-6.4-2.9-6.4-6.4l0-15.6c0-1.8-1.5-3.3-3.3-3.3c-1.8,0-3.3,1.5-3.3,3.3
			c0,0,0,15.7,0,15.7c0,3.5-2.9,6.4-6.4,6.4h-6.4c-3.4,0-6.3-2.8-6.3-6.2c0,0,0-6.4,0-6.4c-0.1-4.3-6.4-4.3-6.5,0c0,0,0,6.4,0,6.4
			c0,3.4-2.8,6.2-6.2,6.2c-5,0-29.5,0-35,0c-3.4,0-6.3-2.8-6.3-6.2c0,0,0-24.9,0-24.9c0.1-0.1,0.2-0.2,0.3-0.3l6.5-12.8
			c0.2-0.4,0-0.8-0.3-1c-0.4-0.2-0.8,0-1,0.3l-5.5,10.7l0-13.7c5.5,0.3,10.5-3.7,11.4-9.1c8-3.6,8.4-15.2,0.8-19.5
			c-1.9-10.9-19.5-12.8-25.1-3.4c-12.3-1.4-17.3,15.1-6.3,20.8c-0.9,7.1,5.7,13.3,12.7,12l0,15.4l-3.1-6.8c-0.2-0.4-0.6-0.5-1-0.4
			c-0.4,0.2-0.5,0.6-0.4,1l4.5,9.8c0,0,0,21.8,0,21.8c0,3.4-2.8,6.2-6.2,6.2h-31c-3.4,0-6.2-2.8-6.2-6.2c0,0,0-41,0-41s0-2.4,0-2.4
			c-0.1-4-5.9-4.4-6.5-0.5l0,0c-16.6,32.2-63.4,31.7-79.7-0.4c-1-3.6-6.3-2.9-6.4,0.8c0,0,0,2.4,0,2.4s0,41,0,41
			c0,3.4-2.8,6.2-6.2,6.2c0,0-32,0-32,0c-3.4,0-6.2-2.8-6.2-6.2l0-22.4c0-1,0.8-1.8,1.8-1.8h8.7l2.4,0c2.8,0.1,4.3-3.6,2.4-5.5
			c0,0-46.7-46.7-46.7-46.7c-5.1-5.6-10.4-7.6-16.9-0.9l0.1,0.1l-47.5,47.4l0,0c-2,1.9-0.5,5.6,2.3,5.5c0,0,11.1,0,11.1,0
			c1,0,1.8,0.8,1.8,1.8l0,22.4l0,0c0,3.4-2.8,6.2-6.2,6.2c0,0-29,0-29,0c-3.4,0-6.2-2.8-6.2-6.2c0,0,0-1.5,0-1.5
			c0-1.8-1.5-3.2-3.2-3.2c-2.7,0-40.3,0-42,0c-1.8,0-3.2,1.5-3.2,3.2l0,1.5c0,3.4-2.8,6.3-6.3,6.3l-37.3,0.1l0,1.5
			c0,0,37.2-0.1,37.2-0.1c4.3,0,7.7-3.5,7.7-7.8l0-1.5c0-1,0.8-1.8,1.8-1.8l39.5,0l2.5,0c1,0,1.8,0.8,1.8,1.8
			c-0.6,4.8,2.7,9.2,7.7,9.2c0,0,29,0,29,0c4.3,0,7.7-3.5,7.7-7.8l0-22.4l0,0c0-1.8-1.5-3.2-3.2-3.2h-8.7l-2.4,0
			c-1.4,0.1-2.3-1.8-1.3-2.9l0,0l47.8-47.7l-0.1-0.1c5.8-5.9,10-3.9,14.6,1.1c0,0,46.6,46.6,46.6,46.6c1.1,1,0.2,3-1.3,2.9
			c0,0-11.1,0-11.1,0c-1.8,0-3.2,1.5-3.2,3.2l0,22.4c0,4.3,3.5,7.8,7.8,7.8h32c4.3,0,7.8-3.5,7.8-7.8l0-41c0,0,0-2.4,0-2.4
			c0-2.3,3.5-2.3,3.5,0h0.1c17,33.1,65.2,33.4,82.3,0.3l-0.5-0.3h0.7c0-2.3,3.5-2.3,3.5,0c0,0,0,2.4,0,2.4l0,41
			c0,4.3,3.5,7.8,7.8,7.8h31c4.3,0,7.8-3.5,7.8-7.8l0-21.1c0.2-0.3,0.2-0.7,0-1l0-19.1c0.8-0.2,1.5-0.5,2.2-0.9
			c0.4,0.1,0.9,0.2,1.3,0.3c0,0,0,41.8,0,41.8c0,4.3,3.5,7.7,7.8,7.7c0,0,27.7,0,27.7,0s7.3,0,7.3,0c4.3,0,7.8-3.5,7.8-7.7l0-6.4
			c0-2.3,3.5-2.2,3.5,0c0,0,0,6.4,0,6.4c0,4.3,3.5,7.7,7.8,7.7h6.4c4.4,0,7.9-3.5,7.9-7.9l0-15.7c0-1,0.8-1.8,1.8-1.8
			c1,0,1.8,0.8,1.8,1.8l0,15.6c0,4.4,3.5,7.9,7.9,7.9h14.2c4.3,0,7.8-3.5,7.8-7.8c0,0,0-118,0-118c0-3.4,2.7-6.1,6-6.2l120.1,0
			c3.4,0,6.2,2.8,6.2,6.2v111h0.2c0,0,0,7,0,7c0,4.3,3.5,7.8,7.8,7.8c0,0,10.8,0,10.8,0l10.2,0c4.3,0,7.8-3.5,7.8-7.8v-63.4
			c0-2.3,3.5-2.3,3.5,0c0,4.5,0,57.3,0,63.4c0,4.3,3.5,7.8,7.8,7.8c0,0,21.5,0,21.5,0c2.5,0.1,4.1-3,2.7-5h64.2
			c-1.4,2,0.2,5.1,2.7,5c0,0,25.6,0,25.6,0v-0.1l11.6-0.1c5.9,0,9.9-0.5,11.4-6.6l2.8-21.2c0.3-1.6,0.5-2.3-0.2-2.7
			c-0.6-0.4-1.3,0.3-2,0.9c-0.3,0.3-2.9,2.7-3.4,3.7c-0.6,1.4,0.2,3.1-0.2,4.7c-0.3,0.8-0.7,2.6-0.9,3c0.1-1.6,0.2-3.3-0.4-3.4
			c-0.4-0.2-0.8-0.1-1.1,0.1c-0.5,0.2-1.1,0.5-1.7,1.1c-1,1-2.3,2.6-3.5,3.2c0.6-1.3,2.7-2.6,3.4-3.8c0.3-0.6-0.3-1.2-0.9-1
			c-1.3,0.4-4.6,3.6-6.1,4.1c0.1-0.3,0.7-0.9,3.1-2.7c1.6-1.2,2.2-1.7,2.3-2.3c-0.2-1.4-1-1.4-5.6,1.6c0.3-0.5,1.2-1.4,3.9-3.1
			c0.2-0.1,2.8-1.2,5.2-1.9c0.9-0.3,0.8-0.6,1.4-1.2l7.6-10.6c2.3-4.5,4.7-6.4,8.1-6.4l4.9,0c3.6,0,7.5,2.7,8.8,5.9
			c1.1,2,3.2,1.9,5.6,1.6c0.6,0,3.8-0.3,4.8-0.9c1.2-0.9,1.5-2.9,2.7-4.1c0.2-0.1,0.4-0.4,0.6-0.6l0,0c0.6-0.7,1.1-1.2,1.4-1.5
			c-1.1,1.8-2.2,3.2-0.5,3.5c0.7,0,1.4,0.1,2.3-0.2c1.3-0.4,3.7-2,4.8-1.7c0,0,0.1,0,0.2,0.1c-0.8,1.1-4,1.3-5.2,2.2
			c-0.6,0.3-0.4,1.2,0.3,1.3c1.3,0.2,5.9-1.1,7.4-1c-0.2,0.2-1.1,0.5-4.1,1.1c-2,0.3-2.8,0.5-3.1,1c-0.4,1.2,0,1.7,5.6,1
			c0.1,0,0.1,0,0.2,0c-0.6,0.2-2,0.5-4.9,0.5c-1.1,0.1-3.5,0.3-5.7-0.1c-0.9-0.1-1,0.2-1.8,0.5l-6.7,2.7c-1.4,0.7-2.3,2.5-2.1,4.5
			l2.4,22.7c1.4,5,5,6.1,10.2,6l27.3,0.1v0.1l24,0v-1.5L896.9,172.1z M713.3,97.5c1,0,1,1.5,0,1.5C712.3,99,712.3,97.5,713.3,97.5z
			 M398.9,122.2l-0.3-0.1c-0.6,0.4-1.3,0.8-2,1l0-2.7c0-2.3,3.5-2.2,3.5,0c0,0,0,2.1,0,2.1C399.7,122.5,399.3,122.4,398.9,122.2z
			 M401.5,120.5c-0.1-4.3-6.4-4.3-6.5,0c0,0,0,3.1,0,3.1c-6.6,1.4-12.6-4.9-11.1-11.4c-11-4.5-6.2-20.6,5.5-18.2
			c4.4-9.4,21.9-7.8,23,2.7c7.5,3.6,7,14.6-0.8,17.5c-0.5,5.1-5,9-10.1,8.6L401.5,120.5z M711.3,167.1h-5c-1,0-1.8-0.8-1.8-1.8V162
			c0-1,0.8-1.8,1.8-1.8h78.6c1,0,1.8,0.8,1.8,1.8v3.4c0,1-0.8,1.8-1.8,1.8H781H711.3z"/>
		<path class="st2" d="M708.7,144.6v9.8c0,1.8,1.5,3.2,3.2,3.2h68.5c1.8,0,3.2-1.5,3.2-3.2v-9.8c0-1.8-1.5-3.2-3.2-3.2H712
			C710.2,141.3,708.7,142.8,708.7,144.6z M782.2,144.6v9.8c0,1-0.8,1.8-1.8,1.8H712c-1,0-1.8-0.8-1.8-1.8v-9.8c0-1,0.8-1.8,1.8-1.8
			h68.5C781.4,142.8,782.2,143.6,782.2,144.6z"/>
		<path class="st2" d="M709.9,98.4v-1.1c-6.8,3.7-4.3,14.1,3.6,14.1c7.8-0.1,10.3-10.5,3.6-14.1v1.1
			C716.9,103.1,710,103.1,709.9,98.4z M718.2,100.3c3.1,3.8,0.2,9.8-4.7,9.7c-4.9,0.1-7.8-5.9-4.7-9.7
			C710.3,104.5,716.6,104.5,718.2,100.3z"/>
	</g>
	<path class="st3" d="M842.7,139.4"/>
	<path class="st4" d="M351,96.1h-40.3c-0.4,0-0.8-0.3-0.8-0.8V54.3c0-0.2,0.1-0.4,0.2-0.5s0.3-0.2,0.5-0.2
		c22.7,0.1,41.1,18.6,41.1,41.2c0,0.1,0,0.3,0,0.4l0,0.3C351.8,95.8,351.4,96.1,351,96.1z M311.5,94.6h38.8
		c-0.1-21.5-17.4-39.1-38.8-39.6V94.6z"/>
	<circle class="st4" cx="557.3" cy="108.7" r="2"/>
	<path class="st5" d="M487.9,187.6"/>
	<path class="st4" d="M57.2,156h-7.8c-0.4,0-0.8-0.3-0.8-0.8V74.5c0-2.6,2.1-4.7,4.7-4.7c2.6,0,4.7,2.1,4.7,4.7v80.8
		C58,155.7,57.6,156,57.2,156z M50.2,154.5h6.3v-80c0-1.7-1.4-3.2-3.2-3.2s-3.2,1.4-3.2,3.2V154.5z"/>
	<g>
		<path class="st6" d="M886.8,177.3L886.8,177.3l-27.7-0.2c-1.5-0.1-2.5-0.3-2.8-1.5l-3-36.7c0.1-3.6-3.1-7.2-6.7-7.2
			c0,0-4.3,0-4.3,0c-3.7,0-6.7,3.4-6.8,7.5l-2.9,35.8c-0.1,1.4-1.3,1.9-2.9,1.9c-45.2,0.5-139.7,0.1-184.6,0.3
			c-4.2,0-7.6-3.5-7.5-7.7c0-6.9-5.6-12.5-12.5-12.5c0,0-99,0-99,0c-6.9,0-12.5,5.6-12.5,12.5c0.1,3.7-2,7.7-6.5,7.7
			c0,0-291,0-291,0c-4.1,0-7.5-3.4-7.5-7.5c0,0,0-25.2,0-25.2c0-6.9-5.6-12.5-12.5-12.5c0,0-44,0-44,0c-6.9,0-12.5,5.6-12.5,12.5
			v25.2c0,3.7-2,7.5-6.4,7.5c0,0-133.1,0-133.1,0l0,5c0,0,133.1,0,133.1,0c6.6,0,11.4-5.2,11.4-12.5c0,0,0-25.2,0-25.2
			c0-4.1,3.4-7.5,7.5-7.5c0,0,44,0,44,0c4.1,0,7.5,3.4,7.5,7.5c0,0,0,25.2,0,25.2c0,6.9,5.6,12.5,12.5,12.5h291
			c6.7,0,11.5-5.3,11.5-12.5c-0.1-4.2,3.3-7.7,7.5-7.7c0,0,99,0,99,0c4.2,0,7.6,3.5,7.5,7.7c0,6.9,5.6,12.5,12.5,12.5
			c28.4,0,119.6,0,149.1,0l0,0c8.5,0,27.2,0,35.6,0c4.3,0.1,7.8-3,8.1-6.6l2.9-36.1c-0.1-1.3,0.7-2.6,1.5-2.6c0,0,4.3,0,4.3,0
			c0.7,0,1.5,1,1.5,2.4c0,0.1,0,0.7,0.1,1l2.8,35.4l0.1,0.6l0,0c0.6,3.6,3.9,6,8,6l20-0.1h0.3l0,0c0.6,0,2.1,0,3.3-0.1l3.5,0h34v-5
			H886.8z"/>
		<path class="st6" d="M844.3,121.4c5.1,0.1,8.9-5.4,6.8-10.1c-2.1-5.4-9.7-6.1-12.8-1.3C835,114.7,838.6,121.5,844.3,121.4z"/>
		<path class="st6" d="M305,141.6c22.4,0,40.9-18.2,41.2-40.6c0-0.4-0.3-0.8-0.8-0.8c0,0-39.6,0-39.6,0V59.9c0-0.4-0.4-0.7-0.8-0.8
			C250.3,61.3,250.2,139.3,305,141.6z M304.4,60.6V101c0,0.4,0.3,0.8,0.8,0.8h39.5c-3.9,51.7-77.4,50.5-79.4-1.4
			C265.3,78.6,282.7,61,304.4,60.6z"/>
		<path class="st6" d="M528.7,139.5l28.6-30.3l17.5,18c0.2,0.2,0.4,0.3,0.7,0.2c0.3-0.1,0.5-0.2,0.5-0.5l17.4-51.3l28,63.8
			c0.1,0.3,0.4,0.4,0.7,0.4c0.5,0,0.9-0.6,0.7-1.1c0,0-28.8-65.6-28.8-65.6c-0.2-0.6-1.2-0.6-1.4,0.1c0,0-17.6,51.9-17.6,51.9
			l-17.2-17.7c-0.1-0.1-0.3-0.3-0.5-0.2c-0.2,0-0.4,0.1-0.5,0.2l-29.1,30.9C527,139.1,528,140.2,528.7,139.5z"/>
		<path class="st6" d="M59.1,155.8c0.1,0.1,0.3,0.2,0.5,0.2c0,0,7.8,0,7.8,0c0.4,0,0.7-0.3,0.7-0.8l-0.1-61.7
			c0.1-2.5-2.2-4.7-4.7-4.7c-2.5,0-4.7,2.2-4.7,4.7c0,0,0.1,61.7,0.1,61.7C58.9,155.5,59,155.7,59.1,155.8z M63.5,90.4
			c1.7,0,3.2,1.5,3.2,3.2c0,0,0.1,60.9,0.1,60.9l-6.3,0l-0.1-60.9C60.3,91.8,61.7,90.4,63.5,90.4z"/>
		<path class="st6" d="M47.4,159h42.4c1,0,1-1.5,0-1.5c0,0-42.4,0-42.4,0C46.4,157.5,46.4,159,47.4,159z"/>
	</g>
	<path class="st7" d="M713.5,111.5c-4.1,0-7.5-3.4-7.5-7.5c0-2.9,1.6-5.3,4-6.6v1.1c0,2,1.6,3.6,3.6,3.6c2,0,3.6-1.6,3.6-3.6v-1.1
		c2.4,1.3,4,3.8,4,6.6C721,108.1,717.6,111.5,713.5,111.5z"/>
	<line class="st8" x1="401.1" y1="140.4" x2="407.7" y2="127.6"/>
	<line class="st8" x1="396" y1="144.3" x2="391.3" y2="134"/>
	<path class="st9" d="M452.2,157.8c-0.4,0-0.8-0.3-0.8-0.8v-16.2c0-0.4,0.3-0.8,0.8-0.8s0.8,0.3,0.8,0.8V157
		C453,157.4,452.6,157.8,452.2,157.8z"/>
	<path class="st10" d="M418.5,105.2c0-3.9-2.2-7.3-5.4-9c-0.6-5.2-6-9.2-12.5-9.2c-5.2,0-9.6,2.5-11.5,6.2c-0.6-0.1-1.2-0.2-1.8-0.2
		c-5.7,0-10.3,4.6-10.3,10.3c0,4.2,2.5,7.8,6.1,9.4c-0.1,0.5-0.1,1.1-0.1,1.6c0,5.7,4.6,10.3,10.3,10.3c2,0,3.8-0.6,5.4-1.5
		c1.1,0.4,2.2,0.6,3.5,0.6c5.2,0,9.5-3.9,10.2-8.9C416,113.1,418.5,109.5,418.5,105.2z"/>
	<g>
		<line class="st11" x1="477.7" y1="147.6" x2="477.7" y2="131.3"/>
		<path class="st9" d="M477.7,148.3c-0.4,0-0.8-0.3-0.8-0.8v-16.3c0-0.4,0.3-0.8,0.8-0.8s0.8,0.3,0.8,0.8v16.3
			C478.5,148,478.1,148.3,477.7,148.3z"/>
	</g>
	<g>
		<rect x="472.5" y="119" class="st12" width="10.3" height="10.3"/>
		<path class="st9" d="M482.9,119v10.3h-10.3V119H482.9 M484.4,117.5h-1.5h-10.3H471v1.5v10.3v1.5h1.5h10.3h1.5v-1.5V119V117.5
			L484.4,117.5z"/>
	</g>
	<g>
		<path class="st13" d="M575.3,124.7c-1.1,0-2,0.9-2,2c0,1.1,0.9,2,2,2s2-0.9,2-2C577.3,125.6,576.4,124.7,575.3,124.7z"/>
		<path class="st13" d="M73.7,101.1c-2.6,0-4.7,2.1-4.7,4.7v49.4c0,0.4,0.3,0.8,0.8,0.8h7.8c0.4,0,0.8-0.3,0.8-0.8v-49.4
			C78.4,103.2,76.3,101.1,73.7,101.1z M76.9,154.5h-6.3v-48.7c0-1.7,1.4-3.2,3.2-3.2s3.2,1.4,3.2,3.2V154.5z"/>
		<path class="st13" d="M480.7,120.6c-0.3-0.3-0.8-0.2-1.1,0.1l-2.1,2.4l-2.1-2.4c-0.3-0.3-0.7-0.4-1.1-0.1
			c-0.3,0.3-0.4,0.7-0.1,1.1l2.2,2.6l-2.2,2.6c-0.3,0.3-0.2,0.8,0.1,1.1c0.1,0.1,0.3,0.2,0.5,0.2c0.2,0,0.4-0.1,0.6-0.3l2.1-2.4
			l2.1,2.4c0.1,0.2,0.4,0.3,0.6,0.3c0.2,0,0.3-0.1,0.5-0.2c0.3-0.3,0.4-0.7,0.1-1.1l-2.2-2.6l2.2-2.6
			C481.1,121.3,481,120.8,480.7,120.6z"/>
	</g>
	<path class="st9" d="M452.2,141c-4.3,0-7.9-3.5-7.9-7.9s3.5-7.9,7.9-7.9c4.3,0,7.9,3.5,7.9,7.9S456.6,141,452.2,141z M452.2,126.7
		c-3.5,0-6.4,2.9-6.4,6.4s2.9,6.4,6.4,6.4c3.5,0,6.4-2.9,6.4-6.4S455.8,126.7,452.2,126.7z"/>
	<polygon class="st4" points="472.7,109.8 482.5,109.8 477.5,115 	"/>
	<g>
		<path class="st14" d="M593.3,70.3c-1.3,0-2.4,1.1-2.4,2.4s1.1,2.4,2.4,2.4s2.4-1.1,2.4-2.4S594.6,70.3,593.3,70.3z"/>
		<path class="st14" d="M623.9,138l-0.4-8.8c0-0.3-0.2-0.6-0.5-0.7c-0.4-0.1-0.8,0.1-0.9,0.5l-1.7,6l-6.2-2.3
			c-0.3-0.1-0.6,0-0.8,0.2c-0.2,0.3-0.2,0.8,0.1,1l7.3,5.6l3.2,2.5L623.9,138z"/>
		<path class="st14" d="M536.6,136.6l-6.3,0l0.6-6.6c0-0.3-0.1-0.6-0.4-0.7c-0.4-0.2-0.8,0-0.9,0.4l-3.5,8.5l-1.6,3.8l3.9-1.2
			l8.4-2.6c0.3-0.1,0.5-0.4,0.5-0.7C537.3,137,537,136.6,536.6,136.6z"/>
		<path class="st14" d="M83.9,85.2c-2.6,0-4.7,2.1-4.7,4.7v65.4c0,0.4,0.3,0.8,0.8,0.8h7.8c0.4,0,0.8-0.3,0.8-0.8V89.9
			C88.5,87.3,86.4,85.2,83.9,85.2z M87,154.5h-6.3V89.9c0-1.7,1.4-3.2,3.2-3.2s3.2,1.4,3.2,3.2V154.5z"/>
		<path class="st14" d="M450.7,129.7c-0.4,0-0.8,0.3-0.8,0.8v5.3c0,0.4,0.3,0.8,0.8,0.8s0.8-0.3,0.8-0.8v-5.3
			C451.5,130,451.1,129.7,450.7,129.7z"/>
		<path class="st14" d="M453.7,129.7c-0.4,0-0.8,0.3-0.8,0.8v5.3c0,0.4,0.3,0.8,0.8,0.8s0.8-0.3,0.8-0.8v-5.3
			C454.5,130,454.1,129.7,453.7,129.7z"/>
		<polygon class="st14" points="477.5,108 482.5,102.8 472.7,102.8 		"/>
	</g>
	<path class="st9" d="M426.3,172.6c-0.4,0-0.8-0.3-0.8-0.8v-11.7c0-0.4,0.3-0.8,0.8-0.8s0.8,0.3,0.8,0.8v11.7
		C427,172.2,426.7,172.6,426.3,172.6z"/>
	<path class="st9" d="M426.6,156.2c0.3,0,0.5,0.1,0.8,0.2c0.9,0.4,1.2,1.5,0.8,2.3c-0.3,0.6-0.9,1-1.6,1c-0.3,0-0.5-0.1-0.8-0.2
		c-0.9-0.4-1.2-1.5-0.8-2.3C425.3,156.5,426,156.2,426.6,156.2 M426.6,154.7c-1.2,0-2.4,0.7-2.9,1.8c-0.8,1.6-0.1,3.5,1.5,4.3
		c0.4,0.2,0.9,0.3,1.4,0.3c1.2,0,2.4-0.7,2.9-1.8c0.8-1.6,0.1-3.5-1.5-4.3C427.6,154.8,427.1,154.7,426.6,154.7L426.6,154.7z"/>
	<g>
		<path class="st13" d="M422.4,158c0.8,0.3,1.7,0.4,2.5,0.3c-0.2-0.6,0-1.3,0.5-1.7c-1.2-0.9-2.7-1.3-4.1-1.2l0,0
			c-0.6,0.1-1.1,0.2-1.7,0.4c0.3,0.5,0.7,0.9,1.2,1.2l0,0C421.3,157.5,421.8,157.9,422.4,158z"/>
		<path class="st13" d="M425,158.5c-1.3,0.7-2.4,1.8-2.9,3.2l0,0c-0.2,0.5-0.3,1.1-0.3,1.7c0.6-0.1,1.1-0.3,1.6-0.5l0,0
			c1.3-0.7,2.4-1.8,2.9-3.2C425.7,159.5,425.1,159,425,158.5z"/>
		<path class="st13" d="M427.4,156.1c0.4-1.3,0.2-2.8-0.5-4l0,0c-0.3-0.5-0.6-1-1-1.4c-0.3,0.5-0.6,1-0.7,1.6l0,0
			c-0.4,1.4-0.3,3,0.4,4.3c0.5-0.4,1.2-0.5,1.8-0.2C427.4,156.2,427.4,156.1,427.4,156.1z"/>
		<path class="st13" d="M433.7,155.9c-0.5-0.2-1.1-0.4-1.7-0.4l0,0c-1.5-0.2-3,0.2-4.2,1.1c0.5,0.4,0.7,1.1,0.5,1.7
			c1.5,0.2,3-0.3,4.2-1.2l0,0C432.9,156.8,433.4,156.4,433.7,155.9z"/>
		<path class="st13" d="M428.1,158.9c-0.3,0.5-1,0.8-1.6,0.8c0.1,1.5,0.8,2.9,1.8,3.9l0,0c0.4,0.4,0.9,0.7,1.4,1
			c0.1-0.6,0.2-1.1,0.2-1.7l0,0c0-0.2,0-0.4-0.1-0.7C429.6,160.9,429,159.8,428.1,158.9z"/>
	</g>
	<path class="st9" d="M434,155.3c-1.8-0.8-4-0.7-5.7,0.2c0.2-1.5-0.2-3-0.9-4.2l0,0c-0.4-0.7-1-1.2-1.5-1.8
		c-1.2,1.6-1.9,3.7-1.5,5.7c-1.2-0.5-2.4-0.6-3.7-0.4l0,0c-0.7,0.1-1.5,0.5-2.2,0.8c0.4,0.6,0.9,1.3,1.5,1.8l0,0
		c0.9,0.7,1.9,1.3,3,1.5c-0.8,0.8-1.4,1.9-1.7,3l0,0c-0.2,0.7-0.2,1.6-0.3,2.3c0.7-0.1,1.6-0.2,2.3-0.5l0,0c1.1-0.5,2.2-1.2,2.9-2.2
		c0.4,1.2,1.1,2.2,2.1,2.9l0,0c0.6,0.5,1.4,0.8,2,1.2c0.2-0.7,0.4-1.5,0.4-2.3l0,0c0-1.5-0.5-3-1.4-4.2c1.5,0,2.9-0.7,4-1.6l0,0
		c0.6-0.5,1.1-1.2,1.5-1.8L434,155.3z M425.7,153.3c0-0.4,0.2-0.9,0.3-1.3c0.6,1,0.9,2.2,0.7,3.4c-0.3,0-0.5,0-0.8,0.1
		C425.8,154.8,425.7,154,425.7,153.3z M422.3,157.2c-0.5-0.2-1-0.5-1.4-0.9c1.2-0.2,2.4,0,3.4,0.5c-0.1,0.2-0.2,0.5-0.2,0.8
		c-0.2,0-0.4,0-0.5,0l0,0C423.2,157.5,422.7,157.4,422.3,157.2z M425.2,160.2c-0.6,1-1.5,1.7-2.5,2.1c0.3-1.1,1-2.2,2-2.8
		c0.2,0.2,0.4,0.4,0.6,0.5C425.2,160.1,425.2,160.2,425.2,160.2z M427.1,158.8c-1.1,0.5-2-1-1-1.7
		C427.2,156.2,428.4,158.2,427.1,158.8z M428.8,163c-0.8-0.7-1.3-1.7-1.5-2.7c0.3-0.1,0.5-0.2,0.7-0.3c0.7,0.9,1.1,2.1,1.1,3.3
		C429.1,163.2,429,163.1,428.8,163z M432,156.6c-0.8,0.6-1.8,1-2.9,1c0-0.3-0.1-0.5-0.2-0.8c1-0.6,2.3-0.8,3.4-0.5
		C432.3,156.4,432.2,156.5,432,156.6z"/>
</g>
</svg>
