<?xml version="1.0" encoding="utf-8"?>
<!-- Generator: Adobe Illustrator 25.2.1, SVG Export Plug-In . SVG Version: 6.00 Build 0)  -->
<svg version="1.1" id="Layer_1" xmlns="http://www.w3.org/2000/svg" xmlns:xlink="http://www.w3.org/1999/xlink" x="0px" y="0px"
	 viewBox="0 0 36 36" style="enable-background:new 0 0 36 36;" xml:space="preserve">
<style type="text/css">
	.st0{fill:#FFFFFF;}
	.st1{fill:#995987;}
</style>
<path class="st0" d="M32.8,36H3.2C1.4,36,0,34.6,0,32.8V3.2C0,1.4,1.4,0,3.2,0h29.6C34.6,0,36,1.4,36,3.2v29.6
	C36,34.6,34.6,36,32.8,36z"/>
<g id="yritykset_2">
	<path class="st1" d="M10.8,10.4H8.2c-1.1,0-2.1,0.1-2.1,1.2v7.3v7.2v2.1h6.7V11.6C12.8,10.5,11.9,10.4,10.8,10.4z M10.9,26
		c0,0.1-0.1,0.3-0.3,0.3H8.3C8.2,26.2,8,26.1,8,26v-1.4c0-0.1,0.1-0.3,0.3-0.3h2.4c0.1,0,0.3,0.1,0.3,0.3L10.9,26L10.9,26z M10.9,22
		c0,0.1-0.1,0.3-0.3,0.3H8.3C8.2,22.2,8,22.2,8,22v-1.4c0-0.1,0.1-0.3,0.3-0.3h2.4c0.1,0,0.3,0.1,0.3,0.3L10.9,22L10.9,22z
		 M10.9,17.7c0,0.1-0.1,0.3-0.3,0.3H8.3C8.2,18,8,17.9,8,17.7v-1.4C8,16.2,8.1,16,8.3,16h2.4c0.1,0,0.3,0.1,0.3,0.3L10.9,17.7
		L10.9,17.7z M11,13.7c0,0.1-0.1,0.3-0.3,0.3H8.3C8.2,14,8,13.9,8,13.7v-1.5c0-0.1,0.1-0.3,0.3-0.3h2.4c0.1,0,0.3,0.1,0.3,0.3
		C11,12.2,11,13.7,11,13.7z"/>
	<path class="st1" d="M30,14.3L30,14.3c-0.1-1.2-1-2.1-2.1-2.1H27h-1.6c-1.1,0-2.1,1-2.1,2.1l0,0v13.9H27h3V14.3L30,14.3z
		 M24.3,15.1c0-0.1,0.1-0.3,0.3-0.3H26c0.1,0,0.3,0.1,0.3,0.3v1.4c0,0.1-0.1,0.3-0.3,0.3h-1.4c-0.1,0-0.3-0.1-0.3-0.3
		C24.3,16.5,24.3,15.1,24.3,15.1z M26.2,24c0,0.1-0.1,0.3-0.3,0.3h-1.4c-0.1,0-0.3-0.1-0.3-0.3v-1.4c0-0.1,0.1-0.3,0.3-0.3H26
		c0.1,0,0.3,0.1,0.3,0.3L26.2,24L26.2,24z M26.2,20.3c0,0.1-0.1,0.3-0.3,0.3h-1.5c-0.1,0-0.3-0.1-0.3-0.3v-1.5
		c0-0.1,0.1-0.3,0.3-0.3H26c0.1,0,0.3,0.1,0.3,0.3L26.2,20.3L26.2,20.3z M29,24c0,0.1-0.1,0.3-0.3,0.3h-1.4c-0.1,0-0.3-0.1-0.3-0.3
		v-1.4c0-0.1,0.1-0.3,0.3-0.3h1.4c0.1,0,0.3,0.1,0.3,0.3V24z M29,20.3c0,0.1-0.1,0.3-0.3,0.3h-1.4c-0.1,0-0.3-0.1-0.3-0.3v-1.4
		c0-0.1,0.1-0.3,0.3-0.3h1.4c0.1,0,0.3,0.1,0.3,0.3V20.3z M29,16.5c0,0.1-0.1,0.3-0.3,0.3h-1.4c-0.1,0-0.3-0.1-0.3-0.3v-1.4
		c0-0.1,0.1-0.3,0.3-0.3h1.4c0.1,0,0.3,0.1,0.3,0.3V16.5z"/>
	<path class="st1" d="M20.3,5c-0.1,0-0.1,0-0.2,0h-3.9c-1.1,0-2.1,1-2.1,2.1v21.1h7.8v-21l0,0C22.1,6,21.3,5.2,20.3,5z M19,26.2
		h-1.9c-0.1,0-0.3-0.1-0.3-0.3v-5.2c0-0.1,0.1-0.3,0.3-0.3H19c0.1,0,0.3,0.1,0.3,0.3V26C19.2,26.1,19.1,26.2,19,26.2z M19.3,17.7
		c0,0.2-0.1,0.3-0.3,0.3h-2.2c-0.1,0-0.3-0.1-0.3-0.3v-1.4c0-0.1,0.1-0.3,0.3-0.3l0,0H19c0.1,0,0.3,0.1,0.3,0.3V17.7z M19.3,14.6
		c0,0.1-0.1,0.3-0.3,0.3l0,0h-2.2c-0.1,0-0.3-0.1-0.3-0.3v-1.3c0-0.2,0.1-0.3,0.3-0.3H19c0.1,0,0.3,0.1,0.3,0.3V14.6z M19.3,11.8
		c0,0.1-0.1,0.3-0.3,0.3h-2.2c-0.1,0-0.3-0.1-0.3-0.3v-1.4c0-0.1,0.1-0.3,0.3-0.3H19c0.1,0,0.3,0.1,0.3,0.3V11.8z M19.3,8.8
		c0,0.1-0.1,0.3-0.3,0.3h-2.2c-0.1,0-0.3-0.1-0.3-0.3V7.4c0-0.1,0.1-0.3,0.3-0.3H19c0.2,0,0.3,0.1,0.3,0.3V8.8z"/>
	<path class="st1" d="M30.1,31H5.9C5.3,31,5,30.7,5,30.1s0.3-0.9,0.9-0.9h24.3c0.5,0,0.9,0.3,0.9,0.9S30.6,31,30.1,31z"/>
</g>
<path class="st0" d="M41,26.6L41,26.6z"/>
</svg>
