<?xml version="1.0" encoding="utf-8"?>
<!-- Generator: Adobe Illustrator 25.2.1, SVG Export Plug-In . SVG Version: 6.00 Build 0)  -->
<svg version="1.1" id="Layer_1" xmlns="http://www.w3.org/2000/svg" xmlns:xlink="http://www.w3.org/1999/xlink" x="0px" y="0px"
	 viewBox="0 0 1462 251.8" style="enable-background:new 0 0 1462 251.8;" xml:space="preserve">
<style type="text/css">
	.st0{enable-background:new    ;}
	.st1{fill:#EBECEC;}
	.st2{fill:#797979;}
	.st3{fill:#953FA0;}
</style>
<g id="Layer_2_1_">
	<g id="Layer_1-2">
		<g class="st0">
			<path class="st1" d="M336.1,48c-0.4,0.8-0.9,1.4-1.4,1.7c-0.5,0.3-1.2,0.5-1.9,0.5c-0.7,0-1.5-0.3-2.4-0.8
				c-0.9-0.6-2-1.2-3.2-1.9c-1.2-0.7-2.7-1.3-4.3-1.9c-1.7-0.6-3.6-0.8-5.8-0.8c-2,0-3.8,0.2-5.3,0.7c-1.5,0.5-2.8,1.2-3.8,2
				s-1.8,1.9-2.3,3.1c-0.5,1.2-0.8,2.5-0.8,4c0,1.8,0.5,3.4,1.6,4.6c1,1.2,2.4,2.3,4.1,3.2c1.7,0.9,3.6,1.7,5.8,2.3
				c2.2,0.7,4.4,1.4,6.7,2.2c2.3,0.8,4.5,1.7,6.7,2.7s4.1,2.3,5.8,3.9c1.7,1.6,3.1,3.5,4.1,5.8c1,2.3,1.6,5.1,1.6,8.3
				c0,3.6-0.6,6.9-1.8,10c-1.2,3.1-3,5.8-5.3,8.1c-2.3,2.3-5.2,4.1-8.6,5.4s-7.2,2-11.6,2c-2.5,0-5-0.2-7.4-0.7
				c-2.4-0.5-4.8-1.2-7-2.1c-2.2-0.9-4.3-2-6.3-3.3c-1.9-1.3-3.7-2.7-5.2-4.2l4.2-7c0.4-0.5,0.9-0.9,1.4-1.3
				c0.6-0.3,1.2-0.5,1.9-0.5c0.9,0,1.9,0.4,2.9,1.1c1.1,0.7,2.3,1.6,3.7,2.5c1.4,0.9,3.1,1.7,5.1,2.5c1.9,0.7,4.3,1.1,7,1.1
				c4.2,0,7.4-1,9.7-3c2.3-2,3.4-4.8,3.4-8.5c0-2.1-0.5-3.8-1.6-5.1c-1-1.3-2.4-2.4-4.1-3.3c-1.7-0.9-3.6-1.6-5.8-2.3
				c-2.2-0.6-4.4-1.3-6.6-2c-2.2-0.7-4.5-1.6-6.6-2.6c-2.2-1-4.1-2.3-5.8-4c-1.7-1.6-3.1-3.7-4.1-6.1c-1-2.4-1.6-5.5-1.6-9.1
				c0-2.9,0.6-5.7,1.7-8.4c1.1-2.7,2.8-5.1,5-7.2c2.2-2.1,4.9-3.8,8.1-5.1c3.2-1.3,6.8-1.9,10.9-1.9c4.6,0,8.9,0.7,12.8,2.2
				c3.9,1.5,7.3,3.5,10,6.1L336.1,48z"/>
			<path class="st1" d="M374.6,55.7c3.5,0,6.8,0.6,9.7,1.7c3,1.1,5.5,2.8,7.6,4.9c2.1,2.2,3.8,4.8,5,7.9s1.8,6.7,1.8,10.7
				c0,1,0,1.9-0.1,2.5c-0.1,0.7-0.3,1.2-0.5,1.6c-0.2,0.4-0.6,0.7-1,0.8c-0.4,0.2-0.9,0.2-1.5,0.2h-34.5c0.4,5.7,1.9,9.9,4.6,12.6
				c2.7,2.7,6.2,4,10.7,4c2.2,0,4.1-0.3,5.6-0.8c1.6-0.5,3-1.1,4.1-1.7c1.2-0.6,2.2-1.2,3.1-1.7c0.9-0.5,1.7-0.8,2.6-0.8
				c0.5,0,1,0.1,1.4,0.3c0.4,0.2,0.7,0.5,1,0.9l3.9,4.9c-1.5,1.7-3.2,3.2-5,4.4c-1.8,1.2-3.8,2.1-5.8,2.8s-4.1,1.2-6.1,1.5
				c-2.1,0.3-4.1,0.4-6.1,0.4c-3.9,0-7.5-0.6-10.8-1.9c-3.3-1.3-6.2-3.2-8.7-5.7c-2.5-2.5-4.4-5.6-5.8-9.4c-1.4-3.7-2.1-8-2.1-12.9
				c0-3.8,0.6-7.4,1.8-10.7c1.2-3.4,3-6.3,5.3-8.8c2.3-2.5,5.1-4.5,8.4-5.9C366.7,56.4,370.5,55.7,374.6,55.7z M374.9,65.3
				c-3.9,0-7,1.1-9.2,3.3c-2.2,2.2-3.6,5.3-4.2,9.4h25.2c0-1.7-0.2-3.4-0.7-4.9c-0.5-1.5-1.2-2.9-2.2-4.1c-1-1.2-2.2-2.1-3.7-2.7
				C378.6,65.7,376.9,65.3,374.9,65.3z"/>
			<path class="st1" d="M453.4,112.4h-6c-1.3,0-2.3-0.2-3-0.6c-0.7-0.4-1.3-1.2-1.6-2.3l-1.2-4c-1.4,1.3-2.8,2.4-4.2,3.3
				c-1.4,1-2.8,1.8-4.2,2.4c-1.5,0.7-3,1.1-4.6,1.5s-3.4,0.5-5.4,0.5c-2.4,0-4.5-0.3-6.5-1c-2-0.6-3.7-1.6-5.1-2.9
				c-1.4-1.3-2.5-2.9-3.3-4.7c-0.8-1.9-1.2-4.1-1.2-6.6c0-2.1,0.6-4.2,1.7-6.2c1.1-2.1,2.9-3.9,5.5-5.6c2.6-1.7,6-3,10.3-4.1
				c4.3-1.1,9.6-1.6,15.9-1.6v-3.3c0-3.8-0.8-6.5-2.4-8.4c-1.6-1.8-3.9-2.7-6.9-2.7c-2.2,0-4,0.3-5.4,0.8c-1.5,0.5-2.7,1.1-3.8,1.7
				c-1.1,0.6-2.1,1.2-3,1.7c-0.9,0.5-1.9,0.8-3,0.8c-0.9,0-1.7-0.2-2.3-0.7c-0.7-0.5-1.2-1.1-1.6-1.7l-2.4-4.3
				c6.4-5.9,14.2-8.8,23.2-8.8c3.3,0,6.2,0.5,8.7,1.6c2.6,1.1,4.7,2.6,6.5,4.5c1.8,1.9,3.1,4.2,4.1,6.8c0.9,2.6,1.4,5.5,1.4,8.7
				V112.4z M427.3,104c1.4,0,2.6-0.1,3.8-0.4c1.2-0.2,2.3-0.6,3.3-1.1c1-0.5,2-1.1,3-1.8c1-0.7,1.9-1.6,2.9-2.6v-9.3
				c-3.9,0-7.2,0.2-9.8,0.7c-2.6,0.5-4.7,1.1-6.3,1.9c-1.6,0.8-2.7,1.7-3.4,2.7c-0.7,1-1,2.1-1,3.3c0,2.4,0.7,4.1,2.1,5.1
				C423.3,103.5,425.1,104,427.3,104z"/>
			<path class="st1" d="M466.7,112.4V56.6h8.2c1.7,0,2.9,0.8,3.4,2.4l0.9,4.1c1-1.1,2-2.1,3.1-3c1.1-0.9,2.2-1.7,3.4-2.3
				c1.2-0.7,2.5-1.2,3.9-1.5s2.9-0.6,4.6-0.6c3.5,0,6.4,1,8.7,2.9c2.3,1.9,4,4.4,5.1,7.6c0.9-1.8,2-3.4,3.3-4.8
				c1.3-1.3,2.7-2.4,4.3-3.2c1.6-0.8,3.2-1.5,5-1.8c1.8-0.4,3.5-0.6,5.3-0.6c3.1,0,5.8,0.5,8.2,1.4c2.4,0.9,4.4,2.3,6,4.1
				s2.9,4,3.7,6.6c0.9,2.6,1.3,5.6,1.3,9v35.5h-13.4V76.9c0-3.6-0.8-6.2-2.3-8c-1.6-1.8-3.8-2.7-6.9-2.7c-1.4,0-2.7,0.2-3.8,0.7
				c-1.2,0.5-2.2,1.2-3.1,2c-0.9,0.9-1.6,2-2.1,3.3c-0.5,1.3-0.8,2.9-0.8,4.6v35.5h-13.5V76.9c0-3.7-0.8-6.5-2.3-8.2
				c-1.5-1.7-3.7-2.6-6.7-2.6c-1.9,0-3.7,0.5-5.4,1.4c-1.7,1-3.3,2.3-4.7,3.9v40.9H466.7z"/>
			<path class="st1" d="M595.1,84.7v27.7h-14.6V33.7h25.6c5.3,0,9.8,0.6,13.7,1.8c3.8,1.2,7,3,9.5,5.2c2.5,2.2,4.4,4.9,5.5,7.9
				s1.8,6.5,1.8,10.1c0,3.8-0.6,7.3-1.9,10.5c-1.3,3.2-3.2,5.9-5.7,8.2c-2.5,2.3-5.7,4.1-9.5,5.3c-3.8,1.3-8.3,1.9-13.4,1.9H595.1z
				 M595.1,73.3h11c2.7,0,5-0.3,7-1c2-0.7,3.6-1.6,4.9-2.9s2.3-2.8,2.9-4.6s1-3.8,1-6c0-2.1-0.3-4-1-5.7c-0.7-1.7-1.6-3.2-2.9-4.4
				c-1.3-1.2-3-2.1-4.9-2.7c-2-0.6-4.3-1-7-1h-11V73.3z"/>
			<path class="st1" d="M647.2,112.4V56.6h7.9c1.4,0,2.3,0.3,2.9,0.8c0.5,0.5,0.9,1.4,1.1,2.6l0.8,6.7c2-3.4,4.3-6.2,7-8.2
				s5.7-3,9-3c2.8,0,5,0.6,6.9,1.9l-1.7,10.1c-0.1,0.7-0.3,1.1-0.7,1.4c-0.4,0.3-0.9,0.4-1.5,0.4c-0.5,0-1.3-0.1-2.2-0.4
				c-0.9-0.3-2.2-0.4-3.8-0.4c-2.8,0-5.2,0.8-7.2,2.3c-2,1.5-3.7,3.8-5.1,6.8v34.8H647.2z"/>
			<path class="st1" d="M715.5,55.7c4.2,0,8,0.7,11.3,2c3.4,1.3,6.3,3.2,8.7,5.7s4.2,5.5,5.5,9c1.3,3.6,2,7.5,2,11.9
				c0,4.4-0.7,8.4-2,12c-1.3,3.6-3.2,6.6-5.5,9.1c-2.4,2.5-5.3,4.4-8.7,5.8c-3.4,1.3-7.2,2-11.3,2s-8-0.7-11.4-2
				c-3.4-1.3-6.3-3.3-8.7-5.8c-2.4-2.5-4.3-5.5-5.6-9.1c-1.3-3.6-2-7.5-2-12c0-4.4,0.7-8.4,2-11.9c1.3-3.6,3.2-6.6,5.6-9
				c2.4-2.5,5.3-4.4,8.7-5.7C707.6,56.4,711.3,55.7,715.5,55.7z M715.5,102.9c4.6,0,8.1-1.6,10.3-4.7c2.2-3.1,3.3-7.7,3.3-13.7
				s-1.1-10.6-3.3-13.8c-2.2-3.2-5.7-4.7-10.3-4.7c-4.7,0-8.2,1.6-10.4,4.8c-2.2,3.2-3.4,7.8-3.4,13.7s1.1,10.5,3.4,13.7
				C707.3,101.3,710.8,102.9,715.5,102.9z"/>
			<path class="st1" d="M767.8,56.6v57.7c0,2.4-0.3,4.7-1,6.9c-0.6,2.1-1.7,4-3,5.6c-1.4,1.6-3.2,2.9-5.5,3.8
				c-2.3,0.9-5,1.4-8.3,1.4c-1.3,0-2.4-0.1-3.5-0.2c-1.1-0.2-2.2-0.4-3.3-0.8l0.4-7.2c0.1-0.7,0.4-1.2,0.9-1.4
				c0.5-0.2,1.4-0.3,2.7-0.3c1.3,0,2.5-0.1,3.4-0.4c0.9-0.3,1.7-0.7,2.2-1.3c0.6-0.6,1-1.4,1.2-2.4c0.2-1,0.4-2.2,0.4-3.6V56.6
				H767.8z M769.9,40.3c0,1.2-0.2,2.2-0.7,3.3c-0.5,1-1.1,1.9-1.9,2.7c-0.8,0.8-1.7,1.4-2.7,1.8c-1.1,0.5-2.2,0.7-3.4,0.7
				c-1.2,0-2.3-0.2-3.3-0.7c-1-0.5-1.9-1.1-2.7-1.8c-0.8-0.8-1.4-1.6-1.8-2.7c-0.5-1-0.7-2.1-0.7-3.3c0-1.2,0.2-2.3,0.7-3.4
				c0.5-1.1,1.1-2,1.8-2.7c0.8-0.8,1.7-1.4,2.7-1.8c1-0.5,2.1-0.7,3.3-0.7c1.2,0,2.3,0.2,3.4,0.7c1.1,0.5,2,1.1,2.7,1.8
				c0.8,0.8,1.4,1.7,1.9,2.7C769.6,38,769.9,39.1,769.9,40.3z"/>
			<path class="st1" d="M805.9,55.7c3.5,0,6.8,0.6,9.7,1.7c3,1.1,5.5,2.8,7.6,4.9c2.1,2.2,3.8,4.8,5,7.9c1.2,3.1,1.8,6.7,1.8,10.7
				c0,1,0,1.9-0.1,2.5c-0.1,0.7-0.3,1.2-0.5,1.6c-0.2,0.4-0.6,0.7-1,0.8c-0.4,0.2-0.9,0.2-1.5,0.2h-34.5c0.4,5.7,1.9,9.9,4.6,12.6
				s6.2,4,10.7,4c2.2,0,4.1-0.3,5.6-0.8c1.6-0.5,3-1.1,4.1-1.7c1.2-0.6,2.2-1.2,3.1-1.7c0.9-0.5,1.8-0.8,2.6-0.8
				c0.5,0,1,0.1,1.4,0.3s0.7,0.5,1,0.9l3.9,4.9c-1.5,1.7-3.2,3.2-5,4.4s-3.8,2.1-5.8,2.8s-4.1,1.2-6.1,1.5c-2.1,0.3-4.1,0.4-6.1,0.4
				c-3.9,0-7.5-0.6-10.8-1.9s-6.2-3.2-8.7-5.7s-4.4-5.6-5.8-9.4c-1.4-3.7-2.1-8-2.1-12.9c0-3.8,0.6-7.4,1.8-10.7
				c1.2-3.4,3-6.3,5.3-8.8c2.3-2.5,5.1-4.5,8.4-5.9C797.9,56.4,801.7,55.7,805.9,55.7z M806.1,65.3c-3.9,0-7,1.1-9.2,3.3
				c-2.2,2.2-3.6,5.3-4.2,9.4h25.2c0-1.7-0.2-3.4-0.7-4.9c-0.5-1.5-1.2-2.9-2.2-4.1c-1-1.2-2.2-2.1-3.7-2.7
				C809.9,65.7,808.1,65.3,806.1,65.3z"/>
			<path class="st1" d="M880.2,68.4c-0.4,0.5-0.8,0.9-1.2,1.2s-0.9,0.4-1.7,0.4c-0.7,0-1.4-0.2-2-0.6c-0.7-0.4-1.4-0.9-2.3-1.4
				c-0.9-0.5-2-1-3.2-1.4c-1.3-0.4-2.8-0.6-4.7-0.6c-2.4,0-4.4,0.4-6.2,1.3c-1.8,0.9-3.3,2.1-4.4,3.7c-1.2,1.6-2.1,3.5-2.6,5.8
				c-0.6,2.3-0.9,4.8-0.9,7.7c0,3,0.3,5.6,1,7.9c0.6,2.3,1.6,4.3,2.7,5.8c1.2,1.6,2.6,2.8,4.4,3.6c1.7,0.8,3.6,1.2,5.8,1.2
				s3.9-0.3,5.2-0.8c1.3-0.5,2.4-1.1,3.3-1.7s1.7-1.2,2.4-1.7c0.7-0.5,1.4-0.8,2.3-0.8c1.1,0,1.9,0.4,2.4,1.3l3.9,4.9
				c-1.5,1.7-3.1,3.2-4.8,4.4c-1.7,1.2-3.5,2.1-5.4,2.8c-1.9,0.7-3.8,1.2-5.8,1.5c-2,0.3-4,0.4-5.9,0.4c-3.4,0-6.7-0.6-9.7-1.9
				c-3-1.3-5.7-3.2-8-5.6c-2.3-2.5-4.1-5.5-5.4-9.1c-1.3-3.6-2-7.6-2-12.2c0-4.1,0.6-7.9,1.8-11.4c1.2-3.5,2.9-6.5,5.2-9.1
				c2.3-2.6,5.1-4.6,8.5-6c3.4-1.5,7.3-2.2,11.6-2.2c4.2,0,7.8,0.7,11,2c3.1,1.3,6,3.3,8.5,5.8L880.2,68.4z"/>
			<path class="st1" d="M911.2,113.2c-4.8,0-8.5-1.4-11.2-4.1c-2.6-2.7-3.9-6.5-3.9-11.3V66.6h-5.7c-0.7,0-1.4-0.2-1.9-0.7
				c-0.5-0.5-0.8-1.2-0.8-2.1v-5.3l9-1.5l2.8-15.2c0.1-0.7,0.5-1.3,1-1.7c0.5-0.4,1.2-0.6,2-0.6h7v17.6h14.7v9.6h-14.7v30.2
				c0,1.7,0.4,3.1,1.3,4.1c0.9,1,2,1.5,3.5,1.5c0.8,0,1.5-0.1,2.1-0.3c0.6-0.2,1.1-0.4,1.5-0.6c0.4-0.2,0.8-0.4,1.1-0.6
				c0.3-0.2,0.7-0.3,1-0.3c0.4,0,0.7,0.1,1,0.3c0.3,0.2,0.5,0.5,0.8,0.9l4,6.5c-2,1.6-4.2,2.9-6.7,3.7
				C916.5,112.8,913.9,113.2,911.2,113.2z"/>
			<path class="st1" d="M998.9,48c-0.4,0.8-0.9,1.4-1.4,1.7c-0.5,0.3-1.2,0.5-1.9,0.5c-0.7,0-1.5-0.3-2.4-0.8
				c-0.9-0.6-2-1.2-3.2-1.9c-1.2-0.7-2.7-1.3-4.3-1.9c-1.7-0.6-3.6-0.8-5.8-0.8c-2,0-3.8,0.2-5.3,0.7c-1.5,0.5-2.8,1.2-3.8,2
				c-1,0.9-1.8,1.9-2.3,3.1s-0.8,2.5-0.8,4c0,1.8,0.5,3.4,1.6,4.6c1,1.2,2.4,2.3,4.1,3.2c1.7,0.9,3.6,1.7,5.8,2.3
				c2.2,0.7,4.4,1.4,6.7,2.2c2.3,0.8,4.5,1.7,6.7,2.7s4.1,2.3,5.8,3.9c1.7,1.6,3.1,3.5,4.1,5.8c1,2.3,1.6,5.1,1.6,8.3
				c0,3.6-0.6,6.9-1.8,10c-1.2,3.1-3,5.8-5.3,8.1c-2.3,2.3-5.2,4.1-8.6,5.4c-3.4,1.3-7.2,2-11.6,2c-2.5,0-5-0.2-7.4-0.7
				c-2.4-0.5-4.8-1.2-7-2.1s-4.3-2-6.3-3.3c-1.9-1.3-3.7-2.7-5.2-4.2l4.2-7c0.4-0.5,0.9-0.9,1.4-1.3c0.6-0.3,1.2-0.5,1.9-0.5
				c0.9,0,1.9,0.4,2.9,1.1c1.1,0.7,2.3,1.6,3.7,2.5c1.4,0.9,3.1,1.7,5.1,2.5c1.9,0.7,4.3,1.1,7,1.1c4.2,0,7.4-1,9.7-3
				c2.3-2,3.4-4.8,3.4-8.5c0-2.1-0.5-3.8-1.5-5.1s-2.4-2.4-4.1-3.3c-1.7-0.9-3.6-1.6-5.8-2.3c-2.2-0.6-4.4-1.3-6.6-2
				c-2.2-0.7-4.5-1.6-6.6-2.6c-2.2-1-4.1-2.3-5.8-4c-1.7-1.6-3.1-3.7-4.1-6.1c-1-2.4-1.5-5.5-1.5-9.1c0-2.9,0.6-5.7,1.7-8.4
				c1.1-2.7,2.8-5.1,5-7.2c2.2-2.1,4.9-3.8,8.1-5.1c3.2-1.3,6.8-1.9,10.9-1.9c4.6,0,8.9,0.7,12.8,2.2c3.9,1.5,7.3,3.5,10,6.1
				L998.9,48z"/>
			<path class="st1" d="M1032.6,113.2c-4.8,0-8.5-1.4-11.2-4.1c-2.6-2.7-3.9-6.5-3.9-11.3V66.6h-5.7c-0.7,0-1.4-0.2-1.9-0.7
				c-0.5-0.5-0.8-1.2-0.8-2.1v-5.3l9-1.5l2.8-15.2c0.1-0.7,0.5-1.3,1-1.7c0.5-0.4,1.2-0.6,2-0.6h7v17.6h14.7v9.6H1031v30.2
				c0,1.7,0.4,3.1,1.3,4.1c0.9,1,2,1.5,3.5,1.5c0.8,0,1.5-0.1,2.1-0.3c0.6-0.2,1.1-0.4,1.5-0.6c0.4-0.2,0.8-0.4,1.1-0.6
				c0.3-0.2,0.7-0.3,1-0.3c0.4,0,0.7,0.1,1,0.3c0.3,0.2,0.5,0.5,0.8,0.9l4,6.5c-2,1.6-4.2,2.9-6.7,3.7
				C1038,112.8,1035.3,113.2,1032.6,113.2z"/>
			<path class="st1" d="M1068.7,56.6V92c0,3.4,0.8,6,2.4,7.9c1.6,1.9,3.9,2.8,7.1,2.8c2.3,0,4.5-0.5,6.5-1.5c2-1,4-2.5,5.8-4.3V56.6
				h13.4v55.8h-8.2c-1.7,0-2.9-0.8-3.4-2.4l-0.9-4.5c-1.2,1.2-2.4,2.2-3.6,3.2c-1.2,1-2.5,1.8-3.9,2.4c-1.4,0.7-2.9,1.2-4.5,1.6
				c-1.6,0.4-3.3,0.6-5.2,0.6c-3,0-5.7-0.5-8.1-1.5c-2.3-1-4.3-2.5-5.9-4.4s-2.8-4.1-3.6-6.7c-0.8-2.6-1.2-5.4-1.2-8.6V56.6H1068.7z
				"/>
			<path class="st1" d="M1157.5,112.4c-1.7,0-2.9-0.8-3.4-2.4l-1.1-5.4c-1.2,1.3-2.4,2.5-3.6,3.5s-2.6,2-4.1,2.7
				c-1.5,0.8-3,1.4-4.7,1.8c-1.7,0.4-3.5,0.6-5.5,0.6c-3,0-5.8-0.6-8.4-1.9c-2.5-1.3-4.7-3.1-6.6-5.5c-1.8-2.4-3.2-5.4-4.2-8.9
				s-1.5-7.6-1.5-12.2c0-4.1,0.6-8,1.7-11.5c1.1-3.6,2.7-6.6,4.8-9.2c2.1-2.6,4.6-4.7,7.6-6.1s6.2-2.2,9.9-2.2c3.1,0,5.8,0.5,8,1.5
				c2.2,1,4.2,2.3,5.9,4V31.5h13.4v80.8H1157.5z M1139.6,102.5c2.8,0,5.2-0.6,7.1-1.7c2-1.2,3.8-2.8,5.5-5v-25
				c-1.5-1.8-3.2-3.2-5-3.9c-1.8-0.8-3.7-1.1-5.8-1.1c-2,0-3.9,0.4-5.5,1.1c-1.7,0.8-3,1.9-4.2,3.5c-1.1,1.5-2,3.5-2.6,5.9
				c-0.6,2.4-0.9,5.2-0.9,8.4c0,3.3,0.3,6,0.8,8.3c0.5,2.3,1.3,4.1,2.3,5.5c1,1.4,2.2,2.5,3.6,3.1
				C1136.3,102.2,1137.9,102.5,1139.6,102.5z"/>
			<path class="st1" d="M1196.6,40.3c0,1.2-0.2,2.2-0.7,3.3c-0.5,1-1.1,1.9-1.9,2.7c-0.8,0.8-1.7,1.4-2.7,1.8
				c-1.1,0.5-2.2,0.7-3.4,0.7c-1.2,0-2.3-0.2-3.3-0.7c-1-0.5-1.9-1.1-2.7-1.8c-0.8-0.8-1.4-1.6-1.8-2.7c-0.5-1-0.7-2.1-0.7-3.3
				c0-1.2,0.2-2.3,0.7-3.4c0.5-1.1,1.1-2,1.8-2.7c0.8-0.8,1.7-1.4,2.7-1.8c1-0.5,2.1-0.7,3.3-0.7c1.2,0,2.3,0.2,3.4,0.7
				c1.1,0.5,2,1.1,2.7,1.8c0.8,0.8,1.4,1.7,1.9,2.7C1196.3,38,1196.6,39.1,1196.6,40.3z M1194.6,56.6v55.8h-13.4V56.6H1194.6z"/>
			<path class="st1" d="M1233.6,55.7c4.2,0,8,0.7,11.3,2c3.4,1.3,6.3,3.2,8.7,5.7s4.2,5.5,5.5,9c1.3,3.6,2,7.5,2,11.9
				c0,4.4-0.7,8.4-2,12c-1.3,3.6-3.2,6.6-5.5,9.1c-2.4,2.5-5.3,4.4-8.7,5.8c-3.4,1.3-7.2,2-11.3,2s-8-0.7-11.4-2
				c-3.4-1.3-6.3-3.3-8.7-5.8c-2.4-2.5-4.3-5.5-5.6-9.1c-1.3-3.6-2-7.5-2-12c0-4.4,0.7-8.4,2-11.9c1.3-3.6,3.2-6.6,5.6-9
				c2.4-2.5,5.3-4.4,8.7-5.7C1225.6,56.4,1229.4,55.7,1233.6,55.7z M1233.6,102.9c4.6,0,8.1-1.6,10.3-4.7c2.2-3.1,3.3-7.7,3.3-13.7
				s-1.1-10.6-3.3-13.8c-2.2-3.2-5.7-4.7-10.3-4.7c-4.7,0-8.2,1.6-10.4,4.8c-2.2,3.2-3.4,7.8-3.4,13.7s1.1,10.5,3.4,13.7
				C1225.4,101.3,1228.8,102.9,1233.6,102.9z"/>
			<path class="st1" d="M1304.7,67.4c-0.4,0.6-0.7,1-1.1,1.2c-0.4,0.2-0.9,0.4-1.5,0.4c-0.7,0-1.4-0.2-2.1-0.5s-1.6-0.8-2.6-1.2
				c-1-0.5-2.1-0.9-3.3-1.2c-1.3-0.4-2.7-0.5-4.4-0.5c-2.6,0-4.7,0.6-6.3,1.7c-1.5,1.1-2.3,2.6-2.3,4.4c0,1.2,0.4,2.2,1.2,3
				c0.8,0.8,1.8,1.5,3.1,2.1c1.3,0.6,2.7,1.2,4.4,1.7s3.3,1,5,1.6c1.7,0.6,3.4,1.2,5,2c1.6,0.7,3.1,1.7,4.4,2.8
				c1.3,1.1,2.3,2.5,3.1,4.1c0.8,1.6,1.2,3.5,1.2,5.8c0,2.7-0.5,5.2-1.5,7.4c-1,2.3-2.4,4.2-4.3,5.9c-1.9,1.7-4.2,2.9-7,3.9
				c-2.8,0.9-6,1.4-9.5,1.4c-1.9,0-3.8-0.2-5.6-0.5c-1.8-0.3-3.6-0.8-5.3-1.4c-1.7-0.6-3.2-1.3-4.7-2.2c-1.4-0.8-2.7-1.7-3.8-2.7
				l3.1-5.1c0.4-0.6,0.9-1.1,1.4-1.4s1.2-0.5,2.1-0.5s1.6,0.2,2.4,0.7c0.7,0.5,1.6,1,2.6,1.5s2.1,1.1,3.5,1.5c1.3,0.5,3,0.7,5,0.7
				c1.6,0,3-0.2,4.1-0.6c1.1-0.4,2.1-0.9,2.8-1.5c0.7-0.6,1.3-1.3,1.6-2.1c0.3-0.8,0.5-1.7,0.5-2.5c0-1.3-0.4-2.4-1.2-3.2
				c-0.8-0.8-1.8-1.6-3.1-2.2c-1.3-0.6-2.8-1.2-4.4-1.7c-1.7-0.5-3.3-1-5.1-1.6c-1.7-0.6-3.4-1.3-5.1-2c-1.7-0.8-3.1-1.8-4.4-3
				c-1.3-1.2-2.3-2.7-3.1-4.4c-0.8-1.7-1.2-3.8-1.2-6.3c0-2.3,0.5-4.5,1.4-6.5c0.9-2.1,2.2-3.9,4-5.4c1.8-1.5,4-2.8,6.6-3.7
				c2.6-0.9,5.7-1.4,9.1-1.4c3.8,0,7.3,0.6,10.5,1.9c3.2,1.3,5.8,2.9,7.9,5L1304.7,67.4z"/>
		</g>
		<g class="st0">
			<path class="st2" d="M334.1,189c0,4.3-0.7,8.3-2.2,11.9c-1.4,3.6-3.5,6.7-6.1,9.4c-2.6,2.6-5.8,4.6-9.4,6.1
				c-3.7,1.4-7.8,2.2-12.2,2.2h-22.6v-59.1h22.6c4.5,0,8.5,0.7,12.2,2.2c3.7,1.5,6.8,3.5,9.4,6.1c2.6,2.6,4.6,5.7,6.1,9.3
				C333.4,180.7,334.1,184.7,334.1,189z M322.8,189c0-3.2-0.4-6.2-1.3-8.7c-0.9-2.6-2.1-4.8-3.7-6.5c-1.6-1.8-3.6-3.2-5.9-4.1
				c-2.3-1-4.9-1.4-7.8-1.4h-11.5v41.6h11.5c2.9,0,5.5-0.5,7.8-1.4c2.3-1,4.3-2.3,5.9-4.1c1.6-1.8,2.8-4,3.7-6.5
				C322.4,195.2,322.8,192.3,322.8,189z"/>
			<path class="st2" d="M354.4,164.4c0,0.9-0.2,1.7-0.5,2.5c-0.4,0.8-0.8,1.4-1.4,2c-0.6,0.6-1.3,1-2.1,1.4s-1.6,0.5-2.5,0.5
				c-0.9,0-1.7-0.2-2.5-0.5s-1.5-0.8-2-1.4c-0.6-0.6-1-1.2-1.4-2c-0.3-0.8-0.5-1.6-0.5-2.5c0-0.9,0.2-1.7,0.5-2.5
				c0.3-0.8,0.8-1.5,1.4-2c0.6-0.6,1.2-1,2-1.4s1.6-0.5,2.5-0.5c0.9,0,1.7,0.2,2.5,0.5s1.5,0.8,2.1,1.4c0.6,0.6,1.1,1.3,1.4,2
				C354.2,162.7,354.4,163.5,354.4,164.4z M352.9,176.6v42h-10.1v-42H352.9z"/>
			<path class="st2" d="M378.8,175.9c1.8,0,3.5,0.2,5.1,0.6c1.6,0.4,3,0.9,4.3,1.6h12.1v3.8c0,0.6-0.2,1.1-0.5,1.5
				c-0.3,0.4-0.9,0.6-1.7,0.7l-3.8,0.7c0.3,0.7,0.5,1.5,0.6,2.2c0.1,0.8,0.2,1.6,0.2,2.5c0,2.1-0.4,3.9-1.2,5.6
				c-0.8,1.7-2,3.1-3.4,4.3c-1.5,1.2-3.2,2.1-5.2,2.7c-2,0.6-4.2,1-6.5,1c-1.6,0-3.1-0.1-4.6-0.5c-1.3,0.8-2,1.7-2,2.7
				c0,0.9,0.4,1.5,1.2,1.9c0.8,0.4,1.8,0.7,3.1,0.8c1.3,0.2,2.7,0.2,4.3,0.2c1.6,0,3.3,0.1,4.9,0.2s3.3,0.4,4.9,0.7
				c1.6,0.3,3,0.9,4.3,1.6c1.3,0.7,2.3,1.7,3.1,3c0.8,1.3,1.2,2.9,1.2,4.9c0,1.9-0.5,3.7-1.4,5.4c-0.9,1.8-2.2,3.3-4,4.7
				c-1.7,1.4-3.9,2.5-6.4,3.3c-2.5,0.8-5.4,1.3-8.6,1.3c-3.2,0-6-0.3-8.3-0.9c-2.3-0.6-4.3-1.4-5.8-2.5c-1.5-1-2.7-2.2-3.5-3.5
				c-0.8-1.3-1.1-2.7-1.1-4.2c0-2,0.6-3.6,1.8-4.9c1.2-1.3,2.9-2.4,5-3.2c-1-0.6-1.9-1.3-2.5-2.3c-0.6-1-0.9-2.2-0.9-3.7
				c0-0.6,0.1-1.3,0.3-1.9c0.2-0.7,0.6-1.3,1-2c0.4-0.7,1-1.3,1.7-1.9c0.7-0.6,1.5-1.1,2.4-1.6c-2.1-1.1-3.8-2.7-5-4.6
				c-1.2-1.9-1.8-4.1-1.8-6.7c0-2.1,0.4-3.9,1.2-5.6c0.8-1.7,2-3.1,3.5-4.3c1.5-1.2,3.2-2.1,5.3-2.7
				C374.2,176.2,376.4,175.9,378.8,175.9z M389.9,220.4c0-0.8-0.2-1.5-0.7-2c-0.5-0.5-1.2-0.9-2-1.2c-0.8-0.3-1.8-0.5-3-0.6
				c-1.1-0.1-2.3-0.2-3.6-0.2s-2.6,0-3.9,0c-1.4,0-2.7-0.2-3.9-0.5c-1.1,0.6-2.1,1.4-2.8,2.2c-0.7,0.9-1,1.8-1,3
				c0,0.7,0.2,1.4,0.6,2.1c0.4,0.6,1,1.2,1.8,1.7c0.8,0.5,1.8,0.8,3.1,1.1c1.3,0.3,2.8,0.4,4.7,0.4c1.9,0,3.5-0.1,4.9-0.4
				c1.4-0.3,2.5-0.7,3.4-1.2c0.9-0.5,1.5-1.1,1.9-1.8C389.7,222,389.9,221.2,389.9,220.4z M378.8,196.6c1.3,0,2.3-0.2,3.3-0.5
				c0.9-0.3,1.7-0.8,2.3-1.4c0.6-0.6,1.1-1.3,1.4-2.2c0.3-0.8,0.5-1.8,0.5-2.8c0-2.1-0.6-3.7-1.9-4.9c-1.2-1.2-3.1-1.8-5.6-1.8
				c-2.5,0-4.3,0.6-5.6,1.8c-1.2,1.2-1.9,2.9-1.9,4.9c0,1,0.2,1.9,0.5,2.7c0.3,0.8,0.8,1.6,1.4,2.2c0.6,0.6,1.4,1.1,2.3,1.4
				C376.5,196.4,377.6,196.6,378.8,196.6z"/>
			<path class="st2" d="M418.9,164.4c0,0.9-0.2,1.7-0.5,2.5c-0.4,0.8-0.8,1.4-1.4,2c-0.6,0.6-1.3,1-2.1,1.4s-1.6,0.5-2.5,0.5
				c-0.9,0-1.7-0.2-2.5-0.5s-1.5-0.8-2-1.4c-0.6-0.6-1-1.2-1.4-2c-0.3-0.8-0.5-1.6-0.5-2.5c0-0.9,0.2-1.7,0.5-2.5
				c0.3-0.8,0.8-1.5,1.4-2c0.6-0.6,1.2-1,2-1.4s1.6-0.5,2.5-0.5c0.9,0,1.7,0.2,2.5,0.5s1.5,0.8,2.1,1.4c0.6,0.6,1.1,1.3,1.4,2
				C418.7,162.7,418.9,163.5,418.9,164.4z M417.4,176.6v42h-10.1v-42H417.4z"/>
			<path class="st2" d="M442.6,219.3c-3.6,0-6.4-1-8.4-3.1s-2.9-4.9-2.9-8.5v-23.4H427c-0.5,0-1-0.2-1.4-0.5
				c-0.4-0.4-0.6-0.9-0.6-1.6v-4l6.7-1.1l2.1-11.5c0.1-0.5,0.4-1,0.8-1.3c0.4-0.3,0.9-0.5,1.5-0.5h5.2V177h11v7.2h-11v22.7
				c0,1.3,0.3,2.3,1,3.1s1.5,1.1,2.6,1.1c0.6,0,1.2-0.1,1.6-0.2c0.4-0.1,0.8-0.3,1.1-0.5c0.3-0.2,0.6-0.3,0.8-0.5
				c0.2-0.1,0.5-0.2,0.7-0.2c0.3,0,0.5,0.1,0.7,0.2c0.2,0.2,0.4,0.4,0.6,0.7l3,4.9c-1.5,1.2-3.2,2.2-5.1,2.8
				C446.6,218.9,444.6,219.3,442.6,219.3z"/>
			<path class="st2" d="M493.4,218.6h-4.5c-1,0-1.7-0.1-2.2-0.4c-0.5-0.3-1-0.9-1.2-1.7l-0.9-3c-1.1,1-2.1,1.8-3.1,2.5
				c-1,0.7-2.1,1.3-3.2,1.8c-1.1,0.5-2.2,0.9-3.5,1.1c-1.2,0.2-2.6,0.4-4.1,0.4c-1.8,0-3.4-0.2-4.9-0.7c-1.5-0.5-2.8-1.2-3.9-2.2
				c-1.1-1-1.9-2.1-2.5-3.6c-0.6-1.4-0.9-3.1-0.9-5c0-1.6,0.4-3.2,1.2-4.7c0.8-1.5,2.2-2.9,4.2-4.2c1.9-1.2,4.5-2.3,7.7-3.1
				c3.2-0.8,7.2-1.2,12-1.2v-2.5c0-2.8-0.6-4.9-1.8-6.3c-1.2-1.4-2.9-2-5.2-2c-1.6,0-3,0.2-4.1,0.6c-1.1,0.4-2,0.8-2.8,1.3
				c-0.8,0.5-1.5,0.9-2.2,1.3c-0.7,0.4-1.4,0.6-2.2,0.6c-0.7,0-1.3-0.2-1.8-0.5c-0.5-0.4-0.9-0.8-1.2-1.3l-1.8-3.2
				c4.8-4.4,10.6-6.6,17.5-6.6c2.5,0,4.6,0.4,6.6,1.2c1.9,0.8,3.6,1.9,4.9,3.4c1.3,1.4,2.4,3.1,3,5.1c0.7,2,1,4.2,1,6.5V218.6z
				 M473.7,212.3c1,0,2-0.1,2.9-0.3c0.9-0.2,1.7-0.5,2.5-0.8s1.5-0.8,2.2-1.4c0.7-0.6,1.5-1.2,2.2-2v-7c-2.9,0-5.4,0.2-7.4,0.6
				c-2,0.4-3.6,0.8-4.8,1.4c-1.2,0.6-2.1,1.2-2.6,2c-0.5,0.8-0.8,1.6-0.8,2.5c0,1.8,0.5,3.1,1.6,3.8
				C470.7,211.9,472,212.3,473.7,212.3z"/>
			<path class="st2" d="M514.1,157.8v60.8H504v-60.8H514.1z"/>
			<path class="st2" d="M536.1,176.6h8c0.8,0,1.4,0.2,1.9,0.5s0.8,0.8,1,1.3l6,22.4c0.3,1.2,0.6,2.4,0.8,3.6
				c0.2,1.2,0.4,2.3,0.6,3.5c0.3-1.2,0.6-2.3,1-3.5c0.3-1.2,0.7-2.4,1.1-3.6l7-22.5c0.2-0.5,0.5-1,1-1.3c0.5-0.4,1.1-0.5,1.7-0.5
				h4.5c0.7,0,1.4,0.2,1.8,0.5c0.5,0.4,0.8,0.8,1,1.3l6.9,22.9c0.4,1.2,0.7,2.3,1,3.4c0.3,1.1,0.6,2.2,0.8,3.3
				c0.2-1.2,0.4-2.3,0.6-3.5c0.2-1.2,0.5-2.4,0.9-3.6l6.2-22.4c0.1-0.5,0.5-1,1-1.3c0.5-0.4,1.1-0.5,1.8-0.5h7.7l-13.3,42h-8.1
				c-0.9,0-1.5-0.6-1.9-1.8l-7.6-24.3c-0.2-0.8-0.5-1.6-0.7-2.4s-0.4-1.6-0.5-2.4c-0.2,0.8-0.3,1.6-0.5,2.4
				c-0.2,0.8-0.4,1.6-0.7,2.4l-7.6,24.2c-0.4,1.2-1.1,1.8-2.2,1.8h-7.7L536.1,176.6z"/>
			<path class="st2" d="M623.9,176c3.1,0,6,0.5,8.5,1.5c2.5,1,4.7,2.4,6.5,4.3s3.2,4.1,4.2,6.8c1,2.7,1.5,5.7,1.5,9
				c0,3.3-0.5,6.3-1.5,9c-1,2.7-2.4,5-4.2,6.8c-1.8,1.9-4,3.3-6.5,4.3c-2.6,1-5.4,1.5-8.5,1.5s-6-0.5-8.5-1.5
				c-2.6-1-4.8-2.5-6.6-4.3c-1.8-1.9-3.2-4.2-4.2-6.8c-1-2.7-1.5-5.7-1.5-9c0-3.3,0.5-6.3,1.5-9c1-2.7,2.4-4.9,4.2-6.8
				s4-3.3,6.6-4.3S620.7,176,623.9,176z M623.9,211.4c3.5,0,6.1-1.2,7.8-3.5s2.5-5.8,2.5-10.3c0-4.5-0.8-8-2.5-10.3
				c-1.7-2.4-4.3-3.6-7.8-3.6c-3.5,0-6.2,1.2-7.9,3.6c-1.7,2.4-2.5,5.8-2.5,10.3c0,4.5,0.8,7.9,2.5,10.3
				C617.7,210.3,620.3,211.4,623.9,211.4z"/>
			<path class="st2" d="M652.5,218.6v-42h5.9c1,0,1.8,0.2,2.2,0.6c0.4,0.4,0.7,1,0.8,2l0.6,5.1c1.5-2.6,3.3-4.6,5.3-6.1
				c2-1.5,4.3-2.2,6.8-2.2c2.1,0,3.8,0.5,5.2,1.4l-1.3,7.6c-0.1,0.5-0.3,0.8-0.5,1c-0.3,0.2-0.6,0.3-1.1,0.3c-0.4,0-1-0.1-1.7-0.3
				c-0.7-0.2-1.7-0.3-2.8-0.3c-2.1,0-3.9,0.6-5.4,1.7c-1.5,1.2-2.8,2.9-3.8,5.1v26.1H652.5z"/>
			<path class="st2" d="M696.1,157.8v34.8h1.9c0.7,0,1.2-0.1,1.6-0.3s0.8-0.5,1.2-1.1l10.4-12.9c0.5-0.5,1-1,1.5-1.3
				c0.5-0.3,1.2-0.5,2-0.5h9.2l-13,15.6c-0.5,0.6-0.9,1.1-1.4,1.6c-0.5,0.5-1,0.9-1.6,1.2c0.6,0.4,1.1,0.9,1.5,1.4
				c0.4,0.5,0.9,1.1,1.3,1.8l14,20.4h-9.1c-0.8,0-1.5-0.1-2-0.4c-0.5-0.3-1-0.7-1.5-1.4l-10.7-15.9c-0.4-0.6-0.8-1-1.2-1.2
				c-0.4-0.2-1-0.3-1.8-0.3h-2.3v19.2H686v-60.8H696.1z"/>
			<path class="st2" d="M755.9,184.8c-0.3,0.4-0.6,0.7-0.9,0.9c-0.3,0.2-0.7,0.3-1.1,0.3c-0.5,0-1-0.1-1.6-0.4
				c-0.6-0.3-1.2-0.6-1.9-0.9s-1.6-0.6-2.5-0.9c-0.9-0.3-2.1-0.4-3.3-0.4c-2,0-3.6,0.4-4.7,1.3c-1.1,0.8-1.7,2-1.7,3.3
				c0,0.9,0.3,1.7,0.9,2.3c0.6,0.6,1.4,1.2,2.3,1.6c1,0.5,2.1,0.9,3.3,1.2c1.2,0.4,2.5,0.8,3.8,1.2c1.3,0.4,2.5,0.9,3.8,1.5
				c1.2,0.6,2.3,1.3,3.3,2.1c1,0.9,1.7,1.9,2.3,3.1c0.6,1.2,0.9,2.6,0.9,4.3c0,2-0.4,3.9-1.1,5.6c-0.7,1.7-1.8,3.2-3.2,4.4
				c-1.4,1.2-3.2,2.2-5.3,2.9s-4.5,1-7.2,1c-1.4,0-2.9-0.1-4.2-0.4c-1.4-0.3-2.7-0.6-4-1.1c-1.3-0.5-2.4-1-3.5-1.6
				c-1.1-0.6-2-1.3-2.8-2l2.3-3.8c0.3-0.5,0.7-0.8,1.1-1.1c0.4-0.2,0.9-0.4,1.6-0.4c0.6,0,1.2,0.2,1.8,0.5c0.6,0.4,1.2,0.7,1.9,1.1
				c0.7,0.4,1.6,0.8,2.6,1.1c1,0.4,2.3,0.5,3.8,0.5c1.2,0,2.2-0.1,3.1-0.4s1.6-0.7,2.1-1.1c0.6-0.5,1-1,1.2-1.6
				c0.3-0.6,0.4-1.2,0.4-1.9c0-1-0.3-1.8-0.9-2.4c-0.6-0.6-1.4-1.2-2.3-1.6c-1-0.5-2.1-0.9-3.3-1.2c-1.2-0.4-2.5-0.8-3.8-1.2
				s-2.6-0.9-3.8-1.5c-1.2-0.6-2.3-1.3-3.3-2.2c-1-0.9-1.7-2-2.3-3.3c-0.6-1.3-0.9-2.9-0.9-4.7c0-1.7,0.3-3.4,1-4.9s1.7-2.9,3-4.1
				c1.3-1.2,3-2.1,4.9-2.8c2-0.7,4.3-1,6.9-1c2.9,0,5.5,0.5,7.9,1.4c2.4,1,4.3,2.2,5.9,3.8L755.9,184.8z"/>
			<path class="st2" d="M766,183.9c0-0.8,0.2-1.6,0.5-2.4s0.8-1.4,1.3-2c0.6-0.5,1.2-1,2-1.3c0.8-0.3,1.6-0.5,2.5-0.5
				c0.8,0,1.6,0.2,2.4,0.5s1.4,0.8,2,1.3c0.5,0.5,1,1.2,1.3,2s0.5,1.6,0.5,2.4c0,0.9-0.2,1.7-0.5,2.4c-0.3,0.8-0.8,1.4-1.3,1.9
				c-0.5,0.5-1.2,1-2,1.3c-0.8,0.3-1.6,0.5-2.4,0.5c-0.9,0-1.7-0.2-2.5-0.5c-0.8-0.3-1.4-0.7-2-1.3c-0.6-0.5-1-1.2-1.3-1.9
				C766.1,185.6,766,184.7,766,183.9z M766.3,212.4c0-0.8,0.1-1.5,0.4-2.1c0.3-0.7,0.7-1.3,1.2-1.8c0.5-0.5,1.1-0.9,1.9-1.2
				c0.7-0.3,1.5-0.4,2.4-0.4c1,0,1.9,0.2,2.7,0.6c0.8,0.4,1.4,0.9,1.9,1.5c0.5,0.6,0.9,1.4,1.1,2.2s0.4,1.7,0.4,2.6
				c0,1.3-0.2,2.7-0.6,4.1c-0.4,1.4-1,2.9-1.7,4.3c-0.8,1.4-1.7,2.8-2.8,4.2s-2.4,2.6-3.8,3.8l-1.8-1.6c-0.5-0.4-0.7-0.9-0.7-1.5
				c0-0.2,0.1-0.5,0.2-0.7c0.1-0.3,0.3-0.5,0.6-0.7c0.3-0.3,0.7-0.7,1.1-1.2c0.4-0.5,0.9-1,1.3-1.6c0.4-0.6,0.8-1.3,1.2-2
				s0.6-1.5,0.8-2.3c-0.8,0-1.6-0.2-2.3-0.5c-0.7-0.3-1.3-0.7-1.8-1.3c-0.5-0.5-0.9-1.2-1.2-1.9
				C766.4,214.1,766.3,213.3,766.3,212.4z"/>
			<path class="st2" d="M829.1,184.8c-0.3,0.4-0.6,0.7-0.9,0.9c-0.3,0.2-0.7,0.3-1.1,0.3c-0.5,0-1-0.1-1.6-0.4
				c-0.6-0.3-1.2-0.6-1.9-0.9s-1.6-0.6-2.5-0.9c-0.9-0.3-2.1-0.4-3.3-0.4c-2,0-3.6,0.4-4.7,1.3c-1.1,0.8-1.7,2-1.7,3.3
				c0,0.9,0.3,1.7,0.9,2.3c0.6,0.6,1.4,1.2,2.3,1.6c1,0.5,2.1,0.9,3.3,1.2c1.2,0.4,2.5,0.8,3.8,1.2c1.3,0.4,2.5,0.9,3.8,1.5
				c1.2,0.6,2.3,1.3,3.3,2.1c1,0.9,1.7,1.9,2.3,3.1c0.6,1.2,0.9,2.6,0.9,4.3c0,2-0.4,3.9-1.1,5.6c-0.7,1.7-1.8,3.2-3.2,4.4
				c-1.4,1.2-3.2,2.2-5.3,2.9s-4.5,1-7.2,1c-1.4,0-2.9-0.1-4.2-0.4c-1.4-0.3-2.7-0.6-4-1.1c-1.3-0.5-2.4-1-3.5-1.6s-2-1.3-2.8-2
				l2.3-3.8c0.3-0.5,0.7-0.8,1.1-1.1s0.9-0.4,1.6-0.4c0.6,0,1.2,0.2,1.8,0.5c0.6,0.4,1.2,0.7,1.9,1.1c0.7,0.4,1.6,0.8,2.6,1.1
				c1,0.4,2.3,0.5,3.8,0.5c1.2,0,2.2-0.1,3.1-0.4s1.6-0.7,2.1-1.1c0.6-0.5,1-1,1.2-1.6c0.3-0.6,0.4-1.2,0.4-1.9c0-1-0.3-1.8-0.9-2.4
				c-0.6-0.6-1.4-1.2-2.3-1.6c-1-0.5-2.1-0.9-3.3-1.2c-1.2-0.4-2.5-0.8-3.8-1.2s-2.6-0.9-3.8-1.5c-1.2-0.6-2.3-1.3-3.3-2.2
				c-1-0.9-1.7-2-2.3-3.3c-0.6-1.3-0.9-2.9-0.9-4.7c0-1.7,0.3-3.4,1-4.9s1.7-2.9,3-4.1c1.3-1.2,3-2.1,4.9-2.8c2-0.7,4.3-1,6.9-1
				c2.9,0,5.5,0.5,7.9,1.4c2.4,1,4.3,2.2,5.9,3.8L829.1,184.8z"/>
			<path class="st2" d="M853.8,219.3c-3.6,0-6.4-1-8.4-3.1c-2-2.1-2.9-4.9-2.9-8.5v-23.4h-4.3c-0.5,0-1-0.2-1.4-0.5
				c-0.4-0.4-0.6-0.9-0.6-1.6v-4l6.7-1.1l2.1-11.5c0.1-0.5,0.4-1,0.8-1.3c0.4-0.3,0.9-0.5,1.5-0.5h5.2V177h11v7.2h-11v22.7
				c0,1.3,0.3,2.3,1,3.1c0.7,0.7,1.5,1.1,2.6,1.1c0.6,0,1.2-0.1,1.6-0.2c0.4-0.1,0.8-0.3,1.1-0.5c0.3-0.2,0.6-0.3,0.8-0.5
				c0.2-0.1,0.5-0.2,0.7-0.2c0.3,0,0.5,0.1,0.7,0.2c0.2,0.2,0.4,0.4,0.6,0.7l3,4.9c-1.5,1.2-3.2,2.2-5.1,2.8
				C857.8,218.9,855.8,219.3,853.8,219.3z"/>
			<path class="st2" d="M883.9,164.4c0,0.9-0.2,1.7-0.5,2.5c-0.4,0.8-0.8,1.4-1.4,2c-0.6,0.6-1.3,1-2.1,1.4s-1.6,0.5-2.5,0.5
				c-0.9,0-1.7-0.2-2.5-0.5s-1.5-0.8-2-1.4c-0.6-0.6-1-1.2-1.4-2c-0.3-0.8-0.5-1.6-0.5-2.5c0-0.9,0.2-1.7,0.5-2.5
				c0.3-0.8,0.8-1.5,1.4-2c0.6-0.6,1.2-1,2-1.4s1.6-0.5,2.5-0.5c0.9,0,1.7,0.2,2.5,0.5s1.5,0.8,2.1,1.4c0.6,0.6,1.1,1.3,1.4,2
				C883.7,162.7,883.9,163.5,883.9,164.4z M882.4,176.6v42h-10.1v-42H882.4z"/>
			<path class="st2" d="M907.6,219.3c-3.6,0-6.4-1-8.4-3.1c-2-2.1-2.9-4.9-2.9-8.5v-23.4H892c-0.5,0-1-0.2-1.4-0.5
				c-0.4-0.4-0.6-0.9-0.6-1.6v-4l6.7-1.1l2.1-11.5c0.1-0.5,0.4-1,0.8-1.3c0.4-0.3,0.9-0.5,1.5-0.5h5.2V177h11v7.2h-11v22.7
				c0,1.3,0.3,2.3,1,3.1c0.7,0.7,1.5,1.1,2.6,1.1c0.6,0,1.2-0.1,1.6-0.2c0.4-0.1,0.8-0.3,1.1-0.5c0.3-0.2,0.6-0.3,0.8-0.5
				c0.2-0.1,0.5-0.2,0.7-0.2c0.3,0,0.5,0.1,0.7,0.2c0.2,0.2,0.4,0.4,0.6,0.7l3,4.9c-1.5,1.2-3.2,2.2-5.1,2.8
				C911.6,218.9,909.6,219.3,907.6,219.3z"/>
			<path class="st2" d="M955,185.5c-0.3,0.4-0.6,0.7-0.9,0.9c-0.3,0.2-0.7,0.3-1.2,0.3c-0.5,0-1-0.2-1.5-0.5
				c-0.5-0.3-1.1-0.7-1.8-1.1c-0.7-0.4-1.5-0.7-2.4-1.1c-0.9-0.3-2.1-0.5-3.5-0.5c-1.8,0-3.3,0.3-4.7,1c-1.3,0.6-2.4,1.6-3.3,2.8
				c-0.9,1.2-1.5,2.7-2,4.4c-0.4,1.7-0.7,3.6-0.7,5.8c0,2.2,0.2,4.2,0.7,6c0.5,1.7,1.2,3.2,2.1,4.4c0.9,1.2,2,2.1,3.3,2.7
				c1.3,0.6,2.7,0.9,4.3,0.9s2.9-0.2,3.9-0.6c1-0.4,1.8-0.8,2.5-1.3c0.7-0.5,1.3-0.9,1.8-1.3c0.5-0.4,1.1-0.6,1.7-0.6
				c0.8,0,1.4,0.3,1.8,0.9l2.9,3.7c-1.1,1.3-2.3,2.4-3.6,3.3c-1.3,0.9-2.7,1.6-4.1,2.1c-1.4,0.5-2.9,0.9-4.4,1.1
				c-1.5,0.2-3,0.3-4.5,0.3c-2.6,0-5-0.5-7.3-1.5s-4.3-2.4-6-4.2c-1.7-1.9-3.1-4.1-4-6.8c-1-2.7-1.5-5.7-1.5-9.2
				c0-3.1,0.4-5.9,1.3-8.6c0.9-2.6,2.2-4.9,3.9-6.8c1.7-1.9,3.8-3.4,6.4-4.5s5.5-1.6,8.8-1.6c3.1,0,5.9,0.5,8.2,1.5
				c2.4,1,4.5,2.5,6.4,4.3L955,185.5z"/>
			<path class="st2" d="M964.5,218.6v-60.8h10.1v23.4c1.6-1.6,3.4-2.8,5.4-3.8c2-1,4.3-1.4,6.9-1.4c2.3,0,4.3,0.4,6.1,1.2
				s3.3,1.9,4.4,3.3s2.1,3.1,2.7,5c0.6,2,0.9,4.1,0.9,6.4v26.7H991v-26.7c0-2.6-0.6-4.5-1.8-6c-1.2-1.4-3-2.1-5.3-2.1
				c-1.7,0-3.4,0.4-4.9,1.2s-3,1.9-4.3,3.2v30.4H964.5z"/>
		</g>
		<g class="st0">
			<path class="st2" d="M1026.9,218.6v-60.8h10.1v24c1.7-1.8,3.5-3.2,5.6-4.2c2.1-1,4.6-1.6,7.4-1.6c2.3,0,4.4,0.5,6.3,1.4
				c1.9,0.9,3.5,2.3,4.9,4.1s2.4,4,3.2,6.7c0.7,2.6,1.1,5.7,1.1,9.1c0,3.1-0.4,6-1.3,8.7c-0.8,2.7-2.1,5-3.6,7
				c-1.6,2-3.5,3.5-5.7,4.6c-2.2,1.1-4.7,1.7-7.5,1.7c-1.3,0-2.5-0.1-3.5-0.4s-2-0.6-2.9-1.1c-0.9-0.5-1.7-1-2.4-1.7
				c-0.8-0.7-1.5-1.4-2.1-2.2l-0.5,2.8c-0.2,0.7-0.4,1.2-0.8,1.5c-0.4,0.3-0.9,0.5-1.6,0.5H1026.9z M1046.5,183.8
				c-2.1,0-3.9,0.4-5.4,1.3c-1.5,0.9-2.9,2.1-4.2,3.7v18.8c1.1,1.4,2.4,2.4,3.7,3c1.3,0.6,2.8,0.8,4.4,0.8c1.5,0,2.9-0.3,4.1-0.9
				c1.2-0.6,2.3-1.4,3.1-2.6c0.9-1.2,1.5-2.7,2-4.4s0.7-3.9,0.7-6.3c0-2.5-0.2-4.5-0.6-6.2c-0.4-1.7-1-3.1-1.7-4.2s-1.6-1.8-2.7-2.3
				C1049.1,184.1,1047.9,183.8,1046.5,183.8z"/>
		</g>
		<g class="st0">
			<path class="st2" d="M1087,230.1c-0.3,0.7-0.7,1.2-1.2,1.6c-0.5,0.4-1.2,0.6-2.2,0.6h-7.5l7.9-16.8l-17-38.9h8.8
				c0.8,0,1.4,0.2,1.9,0.6s0.8,0.8,1,1.3l9,21.8c0.3,0.7,0.6,1.4,0.8,2.2c0.2,0.8,0.4,1.5,0.6,2.3c0.2-0.8,0.5-1.6,0.7-2.3
				c0.3-0.7,0.5-1.5,0.8-2.2l8.4-21.7c0.2-0.5,0.6-1,1.1-1.3s1.1-0.5,1.7-0.5h8.1L1087,230.1z"/>
			<path class="st2" d="M1156.4,184.8c-0.3,0.4-0.6,0.7-0.9,0.9c-0.3,0.2-0.7,0.3-1.1,0.3c-0.5,0-1-0.1-1.6-0.4
				c-0.6-0.3-1.2-0.6-1.9-0.9s-1.6-0.6-2.5-0.9s-2.1-0.4-3.3-0.4c-2,0-3.6,0.4-4.7,1.3c-1.1,0.8-1.7,2-1.7,3.3
				c0,0.9,0.3,1.7,0.9,2.3c0.6,0.6,1.4,1.2,2.3,1.6c1,0.5,2.1,0.9,3.3,1.2s2.5,0.8,3.8,1.2c1.3,0.4,2.5,0.9,3.8,1.5
				c1.2,0.6,2.3,1.3,3.3,2.1c1,0.9,1.7,1.9,2.3,3.1c0.6,1.2,0.9,2.6,0.9,4.3c0,2-0.4,3.9-1.1,5.6c-0.7,1.7-1.8,3.2-3.2,4.4
				c-1.4,1.2-3.2,2.2-5.3,2.9s-4.5,1-7.2,1c-1.4,0-2.9-0.1-4.2-0.4s-2.7-0.6-4-1.1c-1.3-0.5-2.4-1-3.5-1.6s-2-1.3-2.8-2l2.3-3.8
				c0.3-0.5,0.7-0.8,1.1-1.1c0.4-0.2,0.9-0.4,1.6-0.4s1.2,0.2,1.8,0.5s1.2,0.7,1.9,1.1c0.7,0.4,1.6,0.8,2.6,1.1
				c1,0.4,2.3,0.5,3.8,0.5c1.2,0,2.2-0.1,3.1-0.4c0.9-0.3,1.6-0.7,2.1-1.1c0.6-0.5,1-1,1.2-1.6c0.3-0.6,0.4-1.2,0.4-1.9
				c0-1-0.3-1.8-0.9-2.4c-0.6-0.6-1.4-1.2-2.3-1.6c-1-0.5-2.1-0.9-3.3-1.2c-1.2-0.4-2.5-0.8-3.8-1.2c-1.3-0.4-2.6-0.9-3.8-1.5
				c-1.2-0.6-2.3-1.3-3.3-2.2c-1-0.9-1.7-2-2.3-3.3c-0.6-1.3-0.9-2.9-0.9-4.7c0-1.7,0.3-3.4,1-4.9c0.7-1.6,1.7-2.9,3-4.1
				c1.3-1.2,3-2.1,5-2.8c2-0.7,4.3-1,6.9-1c2.9,0,5.5,0.5,7.9,1.4c2.4,1,4.3,2.2,5.9,3.8L1156.4,184.8z"/>
			<path class="st2" d="M1181,219.3c-3.6,0-6.4-1-8.4-3.1c-2-2.1-2.9-4.9-2.9-8.5v-23.4h-4.3c-0.5,0-1-0.2-1.4-0.5
				c-0.4-0.4-0.6-0.9-0.6-1.6v-4l6.8-1.1l2.1-11.5c0.1-0.5,0.4-1,0.8-1.3c0.4-0.3,0.9-0.5,1.5-0.5h5.2V177h11v7.2h-11v22.7
				c0,1.3,0.3,2.3,1,3.1s1.5,1.1,2.6,1.1c0.6,0,1.2-0.1,1.6-0.2c0.4-0.1,0.8-0.3,1.1-0.5c0.3-0.2,0.6-0.3,0.8-0.5
				c0.2-0.1,0.5-0.2,0.7-0.2c0.3,0,0.5,0.1,0.7,0.2c0.2,0.2,0.4,0.4,0.6,0.7l3,4.9c-1.5,1.2-3.2,2.2-5.1,2.8
				C1185.1,218.9,1183.1,219.3,1181,219.3z"/>
			<path class="st2" d="M1211.2,164.4c0,0.9-0.2,1.7-0.5,2.5c-0.4,0.8-0.8,1.4-1.4,2c-0.6,0.6-1.3,1-2.1,1.4s-1.6,0.5-2.5,0.5
				c-0.9,0-1.7-0.2-2.5-0.5s-1.5-0.8-2-1.4c-0.6-0.6-1-1.2-1.4-2c-0.3-0.8-0.5-1.6-0.5-2.5c0-0.9,0.2-1.7,0.5-2.5
				c0.3-0.8,0.8-1.5,1.4-2c0.6-0.6,1.2-1,2-1.4s1.6-0.5,2.5-0.5c0.9,0,1.7,0.2,2.5,0.5s1.5,0.8,2.1,1.4c0.6,0.6,1.1,1.3,1.4,2
				C1211,162.7,1211.2,163.5,1211.2,164.4z M1209.7,176.6v42h-10.1v-42H1209.7z"/>
			<path class="st2" d="M1234.9,219.3c-3.6,0-6.4-1-8.4-3.1c-2-2.1-2.9-4.9-2.9-8.5v-23.4h-4.3c-0.5,0-1-0.2-1.4-0.5
				c-0.4-0.4-0.6-0.9-0.6-1.6v-4l6.8-1.1l2.1-11.5c0.1-0.5,0.4-1,0.8-1.3c0.4-0.3,0.9-0.5,1.5-0.5h5.2V177h11v7.2h-11v22.7
				c0,1.3,0.3,2.3,1,3.1s1.5,1.1,2.6,1.1c0.6,0,1.2-0.1,1.6-0.2c0.4-0.1,0.8-0.3,1.1-0.5c0.3-0.2,0.6-0.3,0.8-0.5
				c0.2-0.1,0.5-0.2,0.7-0.2c0.3,0,0.5,0.1,0.7,0.2c0.2,0.2,0.4,0.4,0.6,0.7l3,4.9c-1.5,1.2-3.2,2.2-5.1,2.8
				C1238.9,218.9,1236.9,219.3,1234.9,219.3z"/>
			<path class="st2" d="M1282.2,185.5c-0.3,0.4-0.6,0.7-0.9,0.9c-0.3,0.2-0.7,0.3-1.2,0.3c-0.5,0-1-0.2-1.5-0.5
				c-0.5-0.3-1.1-0.7-1.8-1.1c-0.7-0.4-1.5-0.7-2.4-1.1c-0.9-0.3-2.1-0.5-3.5-0.5c-1.8,0-3.3,0.3-4.7,1c-1.3,0.6-2.4,1.6-3.3,2.8
				c-0.9,1.2-1.5,2.7-2,4.4c-0.4,1.7-0.7,3.6-0.7,5.8c0,2.2,0.2,4.2,0.7,6c0.5,1.7,1.2,3.2,2.1,4.4c0.9,1.2,2,2.1,3.3,2.7
				c1.3,0.6,2.7,0.9,4.3,0.9c1.6,0,2.9-0.2,3.9-0.6c1-0.4,1.8-0.8,2.5-1.3c0.7-0.5,1.3-0.9,1.8-1.3c0.5-0.4,1.1-0.6,1.7-0.6
				c0.8,0,1.4,0.3,1.8,0.9l2.9,3.7c-1.1,1.3-2.3,2.4-3.6,3.3c-1.3,0.9-2.7,1.6-4.1,2.1c-1.4,0.5-2.9,0.9-4.4,1.1
				c-1.5,0.2-3,0.3-4.5,0.3c-2.6,0-5-0.5-7.3-1.5c-2.3-1-4.3-2.4-6-4.2c-1.7-1.9-3.1-4.1-4-6.8c-1-2.7-1.5-5.7-1.5-9.2
				c0-3.1,0.4-5.9,1.3-8.6c0.9-2.6,2.2-4.9,3.9-6.8c1.7-1.9,3.8-3.4,6.4-4.5s5.5-1.6,8.8-1.6c3.1,0,5.9,0.5,8.2,1.5
				c2.4,1,4.5,2.5,6.4,4.3L1282.2,185.5z"/>
			<path class="st2" d="M1291.8,218.6v-60.8h10.1v23.4c1.6-1.6,3.4-2.8,5.4-3.8c2-1,4.3-1.4,6.9-1.4c2.3,0,4.3,0.4,6.1,1.2
				c1.8,0.8,3.3,1.9,4.4,3.3c1.2,1.4,2.1,3.1,2.7,5c0.6,2,0.9,4.1,0.9,6.4v26.7h-10.1v-26.7c0-2.6-0.6-4.5-1.8-6
				c-1.2-1.4-3-2.1-5.3-2.1c-1.7,0-3.4,0.4-4.9,1.2c-1.5,0.8-3,1.9-4.3,3.2v30.4H1291.8z"/>
		</g>
		<path class="st3" d="M130.2,75.6c-11.6-0.1-23.1,1.9-33.9,5.9c26.7-14.9,57.6-17.2,84.4-2.6c-6.1-95.5-126-102-167.3-31.9
			c-41.1,74.7,30.7,146,108.3,118.9c-25.6,15.8-59.7,13.3-87.1-0.6c2.5,84.5,95.6,108.6,151.5,65.2
			C256.6,175.6,217.1,73.3,130.2,75.6z M191.7,164.2v2c-2.3,20.9-16,40.5-34.9,49c-35.1,16-75.6-0.7-87.7-34.3
			c0.5,0.6,12.3,2.1,27.4-0.4c3.6,3.9,9.5,8.4,13.1,9.9c19.3,12.8,51.4-3,55-23.8c4.7-26.7-23.6-47.4-56-30.4
			c-16.8,5.8-33.5,2.2-47.7-6.6C2.1,89.5,67,3.4,129,39.1c10.2,6.2,16.3,15,19.5,26.2c-4.5-0.3-10.2-1-24.9,1.3
			c-0.7-1.8-3.4-6.4-6.8-8.8c-18.6-13-51.9,1.5-54.5,25.2c-2.3,21,16.9,35.5,37.3,30.2c20.9-8.8,43.3-13.2,67.2,1.9
			C183.6,125.6,194,143.4,191.7,164.2z"/>
	</g>
</g>
</svg>
