<?xml version="1.0" encoding="utf-8"?>
<!-- Generator: Adobe Illustrator 25.2.1, SVG Export Plug-In . SVG Version: 6.00 Build 0)  -->
<svg version="1.1" id="Layer_1" xmlns="http://www.w3.org/2000/svg" xmlns:xlink="http://www.w3.org/1999/xlink" x="0px" y="0px"
	 viewBox="0 0 1460.45 251.78" style="enable-background:new 0 0 1460.45 251.78;" xml:space="preserve">
<style type="text/css">
	.st0{fill:#FFFFFF;}
	.st1{font-family:'Lato-Bold';}
	.st2{font-size:108.79px;}
	.st3{font-size:81.81px;}
</style>
<g id="Layer_2_1_">
	<g id="Layer_1-2">
		<text transform="matrix(1 0 0 1 284.4654 112.3324)" class="st0 st1 st2">Seam Project Studios</text>
		<text transform="matrix(1 0 0 1 274.0353 218.5625)" class="st0 st1 st3">Digital works; stitch </text>
		<text transform="matrix(1 0 0 1 1065.1254 218.5625)" class="st0 st1 st3">y stitch</text>
		<path class="st0" d="M128.68,75.53c-11.58-0.1-23.08,1.9-33.94,5.91c26.73-14.89,57.61-17.16,84.44-2.56
			c-6.11-95.49-126-102-167.3-31.86c-41.14,74.67,30.68,146,108.31,118.87c-25.55,15.78-59.68,13.32-87.1-0.59
			c2.46,84.54,95.59,108.61,151.52,65.2C255.04,175.56,215.59,73.27,128.68,75.53z M190.13,164.11v2c-2.27,20.92-16,40.45-34.92,49
			c-35.12,16-75.56-0.69-87.7-34.33c0.5,0.6,12.34,2.07,27.43-0.39c3.55,3.94,9.47,8.38,13.12,9.86c19.33,12.83,51.39-3,55-23.77
			c4.74-26.73-23.57-47.45-56-30.38c-16.77,5.82-33.54,2.17-47.65-6.61c-58.89-40.05,6-126.17,68-90.46
			c10.16,6.21,16.28,15,19.54,26.24c-4.54-0.3-10.16-1-24.86,1.28c-0.69-1.78-3.36-6.41-6.81-8.78c-18.64-13-51.89,1.48-54.45,25.25
			c-2.27,21,16.86,35.52,37.29,30.19c20.91-8.78,43.3-13.22,67.17,1.87C182.04,125.54,192.5,143.4,190.13,164.11z"/>
	</g>
</g>
<text transform="matrix(1 0 0 1 1019.8454 218.5625)" class="st0 st1 st3">b</text>
</svg>
