<?xml version="1.0" encoding="utf-8"?>
<!-- Generator: Adobe Illustrator 25.2.1, SVG Export Plug-In . SVG Version: 6.00 Build 0)  -->
<svg version="1.1" id="Layer_1" xmlns="http://www.w3.org/2000/svg" xmlns:xlink="http://www.w3.org/1999/xlink" x="0px" y="0px"
	 viewBox="0 0 1462 251.8" style="enable-background:new 0 0 1462 251.8;" xml:space="preserve">
<style type="text/css">
	.st0{fill:#EBECEC;}
	.st1{font-family:'Lato-Bold';}
	.st2{font-size:108.79px;}
	.st3{fill:#797979;}
	.st4{font-size:81.81px;}
	.st5{fill:#953FA0;}
</style>
<g id="Layer_2_1_">
	<g id="Layer_1-2">
		<text transform="matrix(1 0 0 1 286.0125 112.3712)" class="st0 st1 st2">Seam Project Studios</text>
		<text transform="matrix(1 0 0 1 275.5825 218.6013)" class="st3 st1 st4">Digital works; stitch </text>
		<text transform="matrix(1 0 0 1 1021.3925 218.6013)" class="st3 st1 st4">b</text>
		<text transform="matrix(1 0 0 1 1066.6725 218.6013)" class="st3 st1 st4">y stitch</text>
		<path class="st5" d="M130.2,75.6c-11.6-0.1-23.1,1.9-33.9,5.9c26.7-14.9,57.6-17.2,84.4-2.6c-6.1-95.5-126-102-167.3-31.9
			c-41.1,74.7,30.7,146,108.3,118.9c-25.6,15.8-59.7,13.3-87.1-0.6c2.5,84.5,95.6,108.6,151.5,65.2
			C256.6,175.6,217.1,73.3,130.2,75.6z M191.7,164.2v2c-2.3,20.9-16,40.5-34.9,49c-35.1,16-75.6-0.7-87.7-34.3
			c0.5,0.6,12.3,2.1,27.4-0.4c3.6,3.9,9.5,8.4,13.1,9.9c19.3,12.8,51.4-3,55-23.8c4.7-26.7-23.6-47.4-56-30.4
			c-16.8,5.8-33.5,2.2-47.7-6.6C2.1,89.5,67,3.4,129,39.1c10.2,6.2,16.3,15,19.5,26.2c-4.5-0.3-10.2-1-24.9,1.3
			c-0.7-1.8-3.4-6.4-6.8-8.8c-18.6-13-51.9,1.5-54.5,25.2c-2.3,21,16.9,35.5,37.3,30.2c20.9-8.8,43.3-13.2,67.2,1.9
			C183.6,125.6,194,143.4,191.7,164.2z"/>
	</g>
</g>
</svg>
