<?xml version="1.0" encoding="utf-8"?>
<!-- Generator: Adobe Illustrator 25.2.1, SVG Export Plug-In . SVG Version: 6.00 Build 0)  -->
<svg version="1.1" id="Layer_1" xmlns="http://www.w3.org/2000/svg" xmlns:xlink="http://www.w3.org/1999/xlink" x="0px" y="0px"
	 viewBox="0 0 1460.4 251.8" style="enable-background:new 0 0 1460.4 251.8;" xml:space="preserve">
<style type="text/css">
	.st0{enable-background:new    ;}
	.st1{fill:#FFFFFF;}
	.st2{font-family:'Lato-Bold';}
	.st3{font-size:81.81px;}
</style>
<g id="Layer_2_1_">
	<g id="Layer_1-2">
		<g class="st0">
			<path class="st1" d="M334.6,48c-0.4,0.8-0.9,1.4-1.4,1.7c-0.5,0.3-1.2,0.5-1.9,0.5c-0.7,0-1.5-0.3-2.4-0.8
				c-0.9-0.6-2-1.2-3.2-1.9c-1.2-0.7-2.7-1.3-4.3-1.9c-1.7-0.6-3.6-0.8-5.8-0.8c-2,0-3.8,0.2-5.3,0.7c-1.5,0.5-2.8,1.2-3.8,2
				s-1.8,1.9-2.3,3.1c-0.5,1.2-0.8,2.5-0.8,4c0,1.8,0.5,3.4,1.6,4.6c1,1.2,2.4,2.3,4.1,3.2c1.7,0.9,3.6,1.7,5.8,2.3
				c2.2,0.7,4.4,1.4,6.7,2.2c2.3,0.8,4.5,1.7,6.7,2.7s4.1,2.3,5.8,3.9c1.7,1.6,3.1,3.5,4.1,5.8c1,2.3,1.6,5.1,1.6,8.3
				c0,3.6-0.6,6.9-1.8,10c-1.2,3.1-3,5.8-5.3,8.1c-2.3,2.3-5.2,4.1-8.6,5.4s-7.2,2-11.6,2c-2.5,0-5-0.2-7.4-0.7
				c-2.4-0.5-4.8-1.2-7-2.1c-2.2-0.9-4.3-2-6.3-3.3c-1.9-1.3-3.7-2.7-5.2-4.2l4.2-7c0.4-0.5,0.9-0.9,1.4-1.3
				c0.6-0.3,1.2-0.5,1.9-0.5c0.9,0,1.9,0.4,2.9,1.1c1.1,0.7,2.3,1.6,3.7,2.5c1.4,0.9,3.1,1.7,5.1,2.5c1.9,0.7,4.3,1.1,7,1.1
				c4.2,0,7.4-1,9.7-3c2.3-2,3.4-4.8,3.4-8.5c0-2.1-0.5-3.8-1.6-5.1c-1-1.3-2.4-2.4-4.1-3.3c-1.7-0.9-3.6-1.6-5.8-2.3
				c-2.2-0.6-4.4-1.3-6.6-2c-2.2-0.7-4.5-1.6-6.6-2.6c-2.2-1-4.1-2.3-5.8-4c-1.7-1.6-3.1-3.7-4.1-6.1c-1-2.4-1.6-5.5-1.6-9.1
				c0-2.9,0.6-5.7,1.7-8.4c1.1-2.7,2.8-5.1,5-7.2c2.2-2.1,4.9-3.8,8.1-5.1c3.2-1.3,6.8-1.9,10.9-1.9c4.6,0,8.9,0.7,12.8,2.2
				c3.9,1.5,7.3,3.5,10,6.1L334.6,48z"/>
			<path class="st1" d="M373.1,55.7c3.5,0,6.8,0.6,9.7,1.7c3,1.1,5.5,2.8,7.6,4.9c2.1,2.2,3.8,4.8,5,7.9s1.8,6.7,1.8,10.7
				c0,1,0,1.9-0.1,2.5c-0.1,0.7-0.3,1.2-0.5,1.6c-0.2,0.4-0.6,0.7-1,0.8c-0.4,0.2-0.9,0.2-1.5,0.2h-34.5c0.4,5.7,1.9,9.9,4.6,12.6
				c2.7,2.7,6.2,4,10.7,4c2.2,0,4.1-0.3,5.6-0.8c1.6-0.5,3-1.1,4.1-1.7c1.2-0.6,2.2-1.2,3.1-1.7c0.9-0.5,1.7-0.8,2.6-0.8
				c0.5,0,1,0.1,1.4,0.3c0.4,0.2,0.7,0.5,1,0.9l3.9,4.9c-1.5,1.7-3.2,3.2-5,4.4c-1.8,1.2-3.8,2.1-5.8,2.8s-4.1,1.2-6.1,1.5
				c-2.1,0.3-4.1,0.4-6.1,0.4c-3.9,0-7.5-0.6-10.8-1.9c-3.3-1.3-6.2-3.2-8.7-5.7c-2.5-2.5-4.4-5.6-5.8-9.4c-1.4-3.7-2.1-8-2.1-12.9
				c0-3.8,0.6-7.4,1.8-10.7c1.2-3.4,3-6.3,5.3-8.8c2.3-2.5,5.1-4.5,8.4-5.9C365.2,56.4,368.9,55.7,373.1,55.7z M373.3,65.3
				c-3.9,0-7,1.1-9.2,3.3c-2.2,2.2-3.6,5.3-4.2,9.4h25.2c0-1.7-0.2-3.4-0.7-4.9c-0.5-1.5-1.2-2.9-2.2-4.1c-1-1.2-2.2-2.1-3.7-2.7
				C377.1,65.6,375.3,65.3,373.3,65.3z"/>
			<path class="st1" d="M451.9,112.3h-6c-1.3,0-2.3-0.2-3-0.6c-0.7-0.4-1.3-1.2-1.6-2.3l-1.2-4c-1.4,1.3-2.8,2.4-4.2,3.3
				c-1.4,1-2.8,1.8-4.2,2.4c-1.5,0.7-3,1.1-4.6,1.5s-3.4,0.5-5.4,0.5c-2.4,0-4.5-0.3-6.5-1c-2-0.6-3.7-1.6-5.1-2.9
				c-1.4-1.3-2.5-2.9-3.3-4.7c-0.8-1.9-1.2-4.1-1.2-6.6c0-2.1,0.6-4.2,1.7-6.2c1.1-2.1,2.9-3.9,5.5-5.6c2.6-1.7,6-3,10.3-4.1
				c4.3-1.1,9.6-1.6,15.9-1.6v-3.3c0-3.8-0.8-6.5-2.4-8.4c-1.6-1.8-3.9-2.7-6.9-2.7c-2.2,0-4,0.3-5.4,0.8c-1.5,0.5-2.7,1.1-3.8,1.7
				c-1.1,0.6-2.1,1.2-3,1.7c-0.9,0.5-1.9,0.8-3,0.8c-0.9,0-1.7-0.2-2.3-0.7c-0.7-0.5-1.2-1.1-1.6-1.7l-2.4-4.3
				c6.4-5.9,14.2-8.8,23.2-8.8c3.3,0,6.2,0.5,8.7,1.6c2.6,1.1,4.7,2.6,6.5,4.5c1.8,1.9,3.1,4.2,4.1,6.8c0.9,2.6,1.4,5.5,1.4,8.7
				V112.3z M425.8,104c1.4,0,2.6-0.1,3.8-0.4c1.2-0.2,2.3-0.6,3.3-1.1c1-0.5,2-1.1,3-1.8c1-0.7,1.9-1.6,2.9-2.6v-9.3
				c-3.9,0-7.2,0.2-9.8,0.7c-2.6,0.5-4.7,1.1-6.3,1.9c-1.6,0.8-2.7,1.7-3.4,2.7c-0.7,1-1,2.1-1,3.3c0,2.4,0.7,4.1,2.1,5.1
				C421.7,103.4,423.5,104,425.8,104z"/>
			<path class="st1" d="M465.1,112.3V56.5h8.2c1.7,0,2.9,0.8,3.4,2.4l0.9,4.1c1-1.1,2-2.1,3.1-3c1.1-0.9,2.2-1.7,3.4-2.3
				c1.2-0.7,2.5-1.2,3.9-1.5s2.9-0.6,4.6-0.6c3.5,0,6.4,1,8.7,2.9c2.3,1.9,4,4.4,5.1,7.6c0.9-1.8,2-3.4,3.3-4.8
				c1.3-1.3,2.7-2.4,4.3-3.2c1.6-0.8,3.2-1.5,5-1.8c1.8-0.4,3.5-0.6,5.3-0.6c3.1,0,5.8,0.5,8.2,1.4c2.4,0.9,4.4,2.3,6,4.1
				s2.9,4,3.7,6.6c0.9,2.6,1.3,5.6,1.3,9v35.5h-13.4V76.8c0-3.6-0.8-6.2-2.3-8c-1.6-1.8-3.8-2.7-6.9-2.7c-1.4,0-2.7,0.2-3.8,0.7
				c-1.2,0.5-2.2,1.2-3.1,2c-0.9,0.9-1.6,2-2.1,3.3c-0.5,1.3-0.8,2.9-0.8,4.6v35.5h-13.5V76.8c0-3.7-0.8-6.5-2.3-8.2
				c-1.5-1.7-3.7-2.6-6.7-2.6c-1.9,0-3.7,0.5-5.4,1.4c-1.7,1-3.3,2.3-4.7,3.9v40.9H465.1z"/>
			<path class="st1" d="M593.6,84.6v27.7H579V33.7h25.6c5.3,0,9.8,0.6,13.7,1.8c3.8,1.2,7,3,9.5,5.2c2.5,2.2,4.4,4.9,5.5,7.9
				s1.8,6.5,1.8,10.1c0,3.8-0.6,7.3-1.9,10.5c-1.3,3.2-3.2,5.9-5.7,8.2c-2.5,2.3-5.7,4.1-9.5,5.3c-3.8,1.3-8.3,1.9-13.4,1.9H593.6z
				 M593.6,73.2h11c2.7,0,5-0.3,7-1c2-0.7,3.6-1.6,4.9-2.9s2.3-2.8,2.9-4.6s1-3.8,1-6c0-2.1-0.3-4-1-5.7c-0.7-1.7-1.6-3.2-2.9-4.4
				c-1.3-1.2-3-2.1-4.9-2.7c-2-0.6-4.3-1-7-1h-11V73.2z"/>
			<path class="st1" d="M645.7,112.3V56.5h7.9c1.4,0,2.3,0.3,2.9,0.8c0.5,0.5,0.9,1.4,1.1,2.6l0.8,6.7c2-3.4,4.3-6.2,7-8.2
				s5.7-3,9-3c2.8,0,5,0.6,6.9,1.9l-1.7,10.1c-0.1,0.7-0.3,1.1-0.7,1.4c-0.4,0.3-0.9,0.4-1.5,0.4c-0.5,0-1.3-0.1-2.2-0.4
				c-0.9-0.3-2.2-0.4-3.8-0.4c-2.8,0-5.2,0.8-7.2,2.3c-2,1.5-3.7,3.8-5.1,6.8v34.8H645.7z"/>
			<path class="st1" d="M714,55.7c4.2,0,8,0.7,11.3,2c3.4,1.3,6.3,3.2,8.7,5.7s4.2,5.5,5.5,9c1.3,3.6,2,7.5,2,11.9
				c0,4.4-0.7,8.4-2,12c-1.3,3.6-3.2,6.6-5.5,9.1c-2.4,2.5-5.3,4.4-8.7,5.8c-3.4,1.3-7.2,2-11.3,2s-8-0.7-11.4-2
				c-3.4-1.3-6.3-3.3-8.7-5.8c-2.4-2.5-4.3-5.5-5.6-9.1c-1.3-3.6-2-7.5-2-12c0-4.4,0.7-8.4,2-11.9c1.3-3.6,3.2-6.6,5.6-9
				c2.4-2.5,5.3-4.4,8.7-5.7C706,56.3,709.8,55.7,714,55.7z M714,102.8c4.6,0,8.1-1.6,10.3-4.7c2.2-3.1,3.3-7.7,3.3-13.7
				s-1.1-10.6-3.3-13.8c-2.2-3.2-5.7-4.7-10.3-4.7c-4.7,0-8.2,1.6-10.4,4.8c-2.2,3.2-3.4,7.8-3.4,13.7s1.1,10.5,3.4,13.7
				C705.8,101.2,709.3,102.8,714,102.8z"/>
			<path class="st1" d="M766.3,56.5v57.7c0,2.4-0.3,4.7-1,6.9c-0.6,2.1-1.7,4-3,5.6c-1.4,1.6-3.2,2.9-5.5,3.8
				c-2.3,0.9-5,1.4-8.3,1.4c-1.3,0-2.4-0.1-3.5-0.2c-1.1-0.2-2.2-0.4-3.3-0.8l0.4-7.2c0.1-0.7,0.4-1.2,0.9-1.4
				c0.5-0.2,1.4-0.3,2.7-0.3c1.3,0,2.5-0.1,3.4-0.4c0.9-0.3,1.7-0.7,2.2-1.3c0.6-0.6,1-1.4,1.2-2.4c0.2-1,0.4-2.2,0.4-3.6V56.5
				H766.3z M768.3,40.3c0,1.2-0.2,2.2-0.7,3.3c-0.5,1-1.1,1.9-1.9,2.7c-0.8,0.8-1.7,1.4-2.7,1.8c-1.1,0.5-2.2,0.7-3.4,0.7
				c-1.2,0-2.3-0.2-3.3-0.7c-1-0.5-1.9-1.1-2.7-1.8c-0.8-0.8-1.4-1.6-1.8-2.7c-0.5-1-0.7-2.1-0.7-3.3c0-1.2,0.2-2.3,0.7-3.4
				c0.5-1.1,1.1-2,1.8-2.7c0.8-0.8,1.7-1.4,2.7-1.8c1-0.5,2.1-0.7,3.3-0.7c1.2,0,2.3,0.2,3.4,0.7c1.1,0.5,2,1.1,2.7,1.8
				c0.8,0.8,1.4,1.7,1.9,2.7C768.1,37.9,768.3,39.1,768.3,40.3z"/>
			<path class="st1" d="M804.3,55.7c3.5,0,6.8,0.6,9.7,1.7c3,1.1,5.5,2.8,7.6,4.9c2.1,2.2,3.8,4.8,5,7.9c1.2,3.1,1.8,6.7,1.8,10.7
				c0,1,0,1.9-0.1,2.5c-0.1,0.7-0.3,1.2-0.5,1.6c-0.2,0.4-0.6,0.7-1,0.8c-0.4,0.2-0.9,0.2-1.5,0.2h-34.5c0.4,5.7,1.9,9.9,4.6,12.6
				s6.2,4,10.7,4c2.2,0,4.1-0.3,5.6-0.8c1.6-0.5,3-1.1,4.1-1.7c1.2-0.6,2.2-1.2,3.1-1.7c0.9-0.5,1.8-0.8,2.6-0.8
				c0.5,0,1,0.1,1.4,0.3s0.7,0.5,1,0.9l3.9,4.9c-1.5,1.7-3.2,3.2-5,4.4s-3.8,2.1-5.8,2.8s-4.1,1.2-6.1,1.5c-2.1,0.3-4.1,0.4-6.1,0.4
				c-3.9,0-7.5-0.6-10.8-1.9s-6.2-3.2-8.7-5.7s-4.4-5.6-5.8-9.4c-1.4-3.7-2.1-8-2.1-12.9c0-3.8,0.6-7.4,1.8-10.7
				c1.2-3.4,3-6.3,5.3-8.8c2.3-2.5,5.1-4.5,8.4-5.9C796.4,56.4,800.1,55.7,804.3,55.7z M804.6,65.3c-3.9,0-7,1.1-9.2,3.3
				c-2.2,2.2-3.6,5.3-4.2,9.4h25.2c0-1.7-0.2-3.4-0.7-4.9c-0.5-1.5-1.2-2.9-2.2-4.1c-1-1.2-2.2-2.1-3.7-2.7
				C808.3,65.6,806.6,65.3,804.6,65.3z"/>
			<path class="st1" d="M878.6,68.3c-0.4,0.5-0.8,0.9-1.2,1.2s-0.9,0.4-1.7,0.4c-0.7,0-1.4-0.2-2-0.6c-0.7-0.4-1.4-0.9-2.3-1.4
				c-0.9-0.5-2-1-3.2-1.4c-1.3-0.4-2.8-0.6-4.7-0.6c-2.4,0-4.4,0.4-6.2,1.3c-1.8,0.9-3.3,2.1-4.4,3.7c-1.2,1.6-2.1,3.5-2.6,5.8
				c-0.6,2.3-0.9,4.8-0.9,7.7c0,3,0.3,5.6,1,7.9c0.6,2.3,1.6,4.3,2.7,5.8c1.2,1.6,2.6,2.8,4.4,3.6c1.7,0.8,3.6,1.2,5.8,1.2
				s3.9-0.3,5.2-0.8c1.3-0.5,2.4-1.1,3.3-1.7s1.7-1.2,2.4-1.7c0.7-0.5,1.4-0.8,2.3-0.8c1.1,0,1.9,0.4,2.4,1.3l3.9,4.9
				c-1.5,1.7-3.1,3.2-4.8,4.4c-1.7,1.2-3.5,2.1-5.4,2.8c-1.9,0.7-3.8,1.2-5.8,1.5c-2,0.3-4,0.4-5.9,0.4c-3.4,0-6.7-0.6-9.7-1.9
				c-3-1.3-5.7-3.2-8-5.6c-2.3-2.5-4.1-5.5-5.4-9.1c-1.3-3.6-2-7.6-2-12.2c0-4.1,0.6-7.9,1.8-11.4c1.2-3.5,2.9-6.5,5.2-9.1
				c2.3-2.6,5.1-4.6,8.5-6c3.4-1.5,7.3-2.2,11.6-2.2c4.2,0,7.8,0.7,11,2c3.1,1.3,6,3.3,8.5,5.8L878.6,68.3z"/>
			<path class="st1" d="M909.6,113.2c-4.8,0-8.5-1.4-11.2-4.1c-2.6-2.7-3.9-6.5-3.9-11.3V66.6h-5.7c-0.7,0-1.4-0.2-1.9-0.7
				c-0.5-0.5-0.8-1.2-0.8-2.1v-5.3l9-1.5l2.8-15.2c0.1-0.7,0.5-1.3,1-1.7c0.5-0.4,1.2-0.6,2-0.6h7V57h14.7v9.6H908v30.2
				c0,1.7,0.4,3.1,1.3,4.1c0.9,1,2,1.5,3.5,1.5c0.8,0,1.5-0.1,2.1-0.3c0.6-0.2,1.1-0.4,1.5-0.6c0.4-0.2,0.8-0.4,1.1-0.6
				c0.3-0.2,0.7-0.3,1-0.3c0.4,0,0.7,0.1,1,0.3c0.3,0.2,0.5,0.5,0.8,0.9l4,6.5c-2,1.6-4.2,2.9-6.7,3.7
				C915,112.8,912.3,113.2,909.6,113.2z"/>
			<path class="st1" d="M997.3,48c-0.4,0.8-0.9,1.4-1.4,1.7c-0.5,0.3-1.2,0.5-1.9,0.5c-0.7,0-1.5-0.3-2.4-0.8
				c-0.9-0.6-2-1.2-3.2-1.9c-1.2-0.7-2.7-1.3-4.3-1.9c-1.7-0.6-3.6-0.8-5.8-0.8c-2,0-3.8,0.2-5.3,0.7c-1.5,0.5-2.8,1.2-3.8,2
				c-1,0.9-1.8,1.9-2.3,3.1s-0.8,2.5-0.8,4c0,1.8,0.5,3.4,1.6,4.6c1,1.2,2.4,2.3,4.1,3.2c1.7,0.9,3.6,1.7,5.8,2.3
				c2.2,0.7,4.4,1.4,6.7,2.2c2.3,0.8,4.5,1.7,6.7,2.7s4.1,2.3,5.8,3.9c1.7,1.6,3.1,3.5,4.1,5.8c1,2.3,1.6,5.1,1.6,8.3
				c0,3.6-0.6,6.9-1.8,10c-1.2,3.1-3,5.8-5.3,8.1c-2.3,2.3-5.2,4.1-8.6,5.4c-3.4,1.3-7.2,2-11.6,2c-2.5,0-5-0.2-7.4-0.7
				c-2.4-0.5-4.8-1.2-7-2.1s-4.3-2-6.3-3.3c-1.9-1.3-3.7-2.7-5.2-4.2l4.2-7c0.4-0.5,0.9-0.9,1.4-1.3c0.6-0.3,1.2-0.5,1.9-0.5
				c0.9,0,1.9,0.4,2.9,1.1c1.1,0.7,2.3,1.6,3.7,2.5c1.4,0.9,3.1,1.7,5.1,2.5c1.9,0.7,4.3,1.1,7,1.1c4.2,0,7.4-1,9.7-3
				c2.3-2,3.4-4.8,3.4-8.5c0-2.1-0.5-3.8-1.5-5.1s-2.4-2.4-4.1-3.3c-1.7-0.9-3.6-1.6-5.8-2.3c-2.2-0.6-4.4-1.3-6.6-2
				c-2.2-0.7-4.5-1.6-6.6-2.6c-2.2-1-4.1-2.3-5.8-4c-1.7-1.6-3.1-3.7-4.1-6.1c-1-2.4-1.5-5.5-1.5-9.1c0-2.9,0.6-5.7,1.7-8.4
				c1.1-2.7,2.8-5.1,5-7.2c2.2-2.1,4.9-3.8,8.1-5.1c3.2-1.3,6.8-1.9,10.9-1.9c4.6,0,8.9,0.7,12.8,2.2c3.9,1.5,7.3,3.5,10,6.1
				L997.3,48z"/>
			<path class="st1" d="M1031.1,113.2c-4.8,0-8.5-1.4-11.2-4.1c-2.6-2.7-3.9-6.5-3.9-11.3V66.6h-5.7c-0.7,0-1.4-0.2-1.9-0.7
				c-0.5-0.5-0.8-1.2-0.8-2.1v-5.3l9-1.5l2.8-15.2c0.1-0.7,0.5-1.3,1-1.7c0.5-0.4,1.2-0.6,2-0.6h7V57h14.7v9.6h-14.7v30.2
				c0,1.7,0.4,3.1,1.3,4.1c0.9,1,2,1.5,3.5,1.5c0.8,0,1.5-0.1,2.1-0.3c0.6-0.2,1.1-0.4,1.5-0.6c0.4-0.2,0.8-0.4,1.1-0.6
				c0.3-0.2,0.7-0.3,1-0.3c0.4,0,0.7,0.1,1,0.3c0.3,0.2,0.5,0.5,0.8,0.9l4,6.5c-2,1.6-4.2,2.9-6.7,3.7
				C1036.4,112.8,1033.8,113.2,1031.1,113.2z"/>
			<path class="st1" d="M1067.1,56.5V92c0,3.4,0.8,6,2.4,7.9c1.6,1.9,3.9,2.8,7.1,2.8c2.3,0,4.5-0.5,6.5-1.5c2-1,4-2.5,5.8-4.3V56.5
				h13.4v55.8h-8.2c-1.7,0-2.9-0.8-3.4-2.4l-0.9-4.5c-1.2,1.2-2.4,2.2-3.6,3.2c-1.2,1-2.5,1.8-3.9,2.4c-1.4,0.7-2.9,1.2-4.5,1.6
				c-1.6,0.4-3.3,0.6-5.2,0.6c-3,0-5.7-0.5-8.1-1.5c-2.3-1-4.3-2.5-5.9-4.4s-2.8-4.1-3.6-6.7c-0.8-2.6-1.2-5.4-1.2-8.6V56.5H1067.1z
				"/>
			<path class="st1" d="M1156,112.3c-1.7,0-2.9-0.8-3.4-2.4l-1.1-5.4c-1.2,1.3-2.4,2.5-3.6,3.5s-2.6,2-4.1,2.7
				c-1.5,0.8-3,1.4-4.7,1.8c-1.7,0.4-3.5,0.6-5.5,0.6c-3,0-5.8-0.6-8.4-1.9c-2.5-1.3-4.7-3.1-6.6-5.5c-1.8-2.4-3.2-5.4-4.2-8.9
				s-1.5-7.6-1.5-12.2c0-4.1,0.6-8,1.7-11.5c1.1-3.6,2.7-6.6,4.8-9.2c2.1-2.6,4.6-4.7,7.6-6.1s6.2-2.2,9.9-2.2c3.1,0,5.8,0.5,8,1.5
				c2.2,1,4.2,2.3,5.9,4V31.5h13.4v80.8H1156z M1138.1,102.5c2.8,0,5.2-0.6,7.1-1.7c2-1.2,3.8-2.8,5.5-5v-25c-1.5-1.8-3.2-3.2-5-3.9
				c-1.8-0.8-3.7-1.1-5.8-1.1c-2,0-3.9,0.4-5.5,1.1c-1.7,0.8-3,1.9-4.2,3.5c-1.1,1.5-2,3.5-2.6,5.9c-0.6,2.4-0.9,5.2-0.9,8.4
				c0,3.3,0.3,6,0.8,8.3c0.5,2.3,1.3,4.1,2.3,5.5c1,1.4,2.2,2.5,3.6,3.1C1134.8,102.2,1136.3,102.5,1138.1,102.5z"/>
			<path class="st1" d="M1195,40.3c0,1.2-0.2,2.2-0.7,3.3c-0.5,1-1.1,1.9-1.9,2.7c-0.8,0.8-1.7,1.4-2.7,1.8
				c-1.1,0.5-2.2,0.7-3.4,0.7c-1.2,0-2.3-0.2-3.3-0.7c-1-0.5-1.9-1.1-2.7-1.8c-0.8-0.8-1.4-1.6-1.8-2.7c-0.5-1-0.7-2.1-0.7-3.3
				c0-1.2,0.2-2.3,0.7-3.4c0.5-1.1,1.1-2,1.8-2.7c0.8-0.8,1.7-1.4,2.7-1.8c1-0.5,2.1-0.7,3.3-0.7c1.2,0,2.3,0.2,3.4,0.7
				c1.1,0.5,2,1.1,2.7,1.8c0.8,0.8,1.4,1.7,1.9,2.7C1194.8,37.9,1195,39.1,1195,40.3z M1193,56.5v55.8h-13.4V56.5H1193z"/>
			<path class="st1" d="M1232,55.7c4.2,0,8,0.7,11.3,2c3.4,1.3,6.3,3.2,8.7,5.7s4.2,5.5,5.5,9c1.3,3.6,2,7.5,2,11.9
				c0,4.4-0.7,8.4-2,12c-1.3,3.6-3.2,6.6-5.5,9.1c-2.4,2.5-5.3,4.4-8.7,5.8c-3.4,1.3-7.2,2-11.3,2s-8-0.7-11.4-2
				c-3.4-1.3-6.3-3.3-8.7-5.8c-2.4-2.5-4.3-5.5-5.6-9.1c-1.3-3.6-2-7.5-2-12c0-4.4,0.7-8.4,2-11.9c1.3-3.6,3.2-6.6,5.6-9
				c2.4-2.5,5.3-4.4,8.7-5.7C1224.1,56.3,1227.8,55.7,1232,55.7z M1232,102.8c4.6,0,8.1-1.6,10.3-4.7c2.2-3.1,3.3-7.7,3.3-13.7
				s-1.1-10.6-3.3-13.8c-2.2-3.2-5.7-4.7-10.3-4.7c-4.7,0-8.2,1.6-10.4,4.8c-2.2,3.2-3.4,7.8-3.4,13.7s1.1,10.5,3.4,13.7
				C1223.8,101.2,1227.3,102.8,1232,102.8z"/>
			<path class="st1" d="M1303.2,67.4c-0.4,0.6-0.7,1-1.1,1.2c-0.4,0.2-0.9,0.4-1.5,0.4c-0.7,0-1.4-0.2-2.1-0.5s-1.6-0.8-2.6-1.2
				c-1-0.5-2.1-0.9-3.3-1.2c-1.3-0.4-2.7-0.5-4.4-0.5c-2.6,0-4.7,0.6-6.3,1.7c-1.5,1.1-2.3,2.6-2.3,4.4c0,1.2,0.4,2.2,1.2,3
				c0.8,0.8,1.8,1.5,3.1,2.1c1.3,0.6,2.7,1.2,4.4,1.7s3.3,1,5,1.6c1.7,0.6,3.4,1.2,5,2c1.6,0.7,3.1,1.7,4.4,2.8
				c1.3,1.1,2.3,2.5,3.1,4.1c0.8,1.6,1.2,3.5,1.2,5.8c0,2.7-0.5,5.2-1.5,7.4c-1,2.3-2.4,4.2-4.3,5.9c-1.9,1.7-4.2,2.9-7,3.9
				c-2.8,0.9-6,1.4-9.5,1.4c-1.9,0-3.8-0.2-5.6-0.5c-1.8-0.3-3.6-0.8-5.3-1.4c-1.7-0.6-3.2-1.3-4.7-2.2c-1.4-0.8-2.7-1.7-3.8-2.7
				l3.1-5.1c0.4-0.6,0.9-1.1,1.4-1.4s1.2-0.5,2.1-0.5s1.6,0.2,2.4,0.7c0.7,0.5,1.6,1,2.6,1.5s2.1,1.1,3.5,1.5c1.3,0.5,3,0.7,5,0.7
				c1.6,0,3-0.2,4.1-0.6c1.1-0.4,2.1-0.9,2.8-1.5c0.7-0.6,1.3-1.3,1.6-2.1c0.3-0.8,0.5-1.7,0.5-2.5c0-1.3-0.4-2.4-1.2-3.2
				c-0.8-0.8-1.8-1.6-3.1-2.2c-1.3-0.6-2.8-1.2-4.4-1.7c-1.7-0.5-3.3-1-5.1-1.6c-1.7-0.6-3.4-1.3-5.1-2c-1.7-0.8-3.1-1.8-4.4-3
				c-1.3-1.2-2.3-2.7-3.1-4.4c-0.8-1.7-1.2-3.8-1.2-6.3c0-2.3,0.5-4.5,1.4-6.5c0.9-2.1,2.2-3.9,4-5.4c1.8-1.5,4-2.8,6.6-3.7
				c2.6-0.9,5.7-1.4,9.1-1.4c3.8,0,7.3,0.6,10.5,1.9c3.2,1.3,5.8,2.9,7.9,5L1303.2,67.4z"/>
		</g>
		<g class="st0">
			<path class="st1" d="M332.5,189c0,4.3-0.7,8.3-2.2,11.9c-1.4,3.6-3.5,6.7-6.1,9.4c-2.6,2.6-5.8,4.6-9.4,6.1
				c-3.7,1.4-7.8,2.2-12.2,2.2H280v-59.1h22.6c4.5,0,8.5,0.7,12.2,2.2c3.7,1.5,6.8,3.5,9.4,6.1c2.6,2.6,4.6,5.7,6.1,9.3
				C331.8,180.7,332.5,184.7,332.5,189z M321.3,189c0-3.2-0.4-6.2-1.3-8.7c-0.9-2.6-2.1-4.8-3.7-6.5c-1.6-1.8-3.6-3.2-5.9-4.1
				c-2.3-1-4.9-1.4-7.8-1.4h-11.5v41.6h11.5c2.9,0,5.5-0.5,7.8-1.4c2.3-1,4.3-2.3,5.9-4.1c1.6-1.8,2.8-4,3.7-6.5
				C320.8,195.1,321.3,192.2,321.3,189z"/>
			<path class="st1" d="M352.9,164.4c0,0.9-0.2,1.7-0.5,2.5c-0.4,0.8-0.8,1.4-1.4,2c-0.6,0.6-1.3,1-2.1,1.4s-1.6,0.5-2.5,0.5
				c-0.9,0-1.7-0.2-2.5-0.5s-1.5-0.8-2-1.4c-0.6-0.6-1-1.2-1.4-2c-0.3-0.8-0.5-1.6-0.5-2.5c0-0.9,0.2-1.7,0.5-2.5
				c0.3-0.8,0.8-1.5,1.4-2c0.6-0.6,1.2-1,2-1.4s1.6-0.5,2.5-0.5c0.9,0,1.7,0.2,2.5,0.5s1.5,0.8,2.1,1.4c0.6,0.6,1.1,1.3,1.4,2
				C352.7,162.6,352.9,163.5,352.9,164.4z M351.3,176.6v42h-10.1v-42H351.3z"/>
			<path class="st1" d="M377.3,175.9c1.8,0,3.5,0.2,5.1,0.6c1.6,0.4,3,0.9,4.3,1.6h12.1v3.8c0,0.6-0.2,1.1-0.5,1.5
				c-0.3,0.4-0.9,0.6-1.7,0.7l-3.8,0.7c0.3,0.7,0.5,1.5,0.6,2.2c0.1,0.8,0.2,1.6,0.2,2.5c0,2.1-0.4,3.9-1.2,5.6
				c-0.8,1.7-2,3.1-3.4,4.3c-1.5,1.2-3.2,2.1-5.2,2.7c-2,0.6-4.2,1-6.5,1c-1.6,0-3.1-0.1-4.6-0.5c-1.3,0.8-2,1.7-2,2.7
				c0,0.9,0.4,1.5,1.2,1.9c0.8,0.4,1.8,0.7,3.1,0.8c1.3,0.2,2.7,0.2,4.3,0.2c1.6,0,3.3,0.1,4.9,0.2s3.3,0.4,4.9,0.7
				c1.6,0.3,3,0.9,4.3,1.6c1.3,0.7,2.3,1.7,3.1,3c0.8,1.3,1.2,2.9,1.2,4.9c0,1.9-0.5,3.7-1.4,5.4c-0.9,1.8-2.2,3.3-4,4.7
				c-1.7,1.4-3.9,2.5-6.4,3.3c-2.5,0.8-5.4,1.3-8.6,1.3c-3.2,0-6-0.3-8.3-0.9c-2.3-0.6-4.3-1.4-5.8-2.5c-1.5-1-2.7-2.2-3.5-3.5
				c-0.8-1.3-1.1-2.7-1.1-4.2c0-2,0.6-3.6,1.8-4.9c1.2-1.3,2.9-2.4,5-3.2c-1-0.6-1.9-1.3-2.5-2.3c-0.6-1-0.9-2.2-0.9-3.7
				c0-0.6,0.1-1.3,0.3-1.9c0.2-0.7,0.6-1.3,1-2c0.4-0.7,1-1.3,1.7-1.9c0.7-0.6,1.5-1.1,2.4-1.6c-2.1-1.1-3.8-2.7-5-4.6
				c-1.2-1.9-1.8-4.1-1.8-6.7c0-2.1,0.4-3.9,1.2-5.6c0.8-1.7,2-3.1,3.5-4.3c1.5-1.2,3.2-2.1,5.3-2.7
				C372.7,176.2,374.9,175.9,377.3,175.9z M388.4,220.3c0-0.8-0.2-1.5-0.7-2c-0.5-0.5-1.2-0.9-2-1.2c-0.8-0.3-1.8-0.5-3-0.6
				c-1.1-0.1-2.3-0.2-3.6-0.2s-2.6,0-3.9,0c-1.4,0-2.7-0.2-3.9-0.5c-1.1,0.6-2.1,1.4-2.8,2.2c-0.7,0.9-1,1.8-1,3
				c0,0.7,0.2,1.4,0.6,2.1c0.4,0.6,1,1.2,1.8,1.7c0.8,0.5,1.8,0.8,3.1,1.1c1.3,0.3,2.8,0.4,4.7,0.4c1.9,0,3.5-0.1,4.9-0.4
				c1.4-0.3,2.5-0.7,3.4-1.2c0.9-0.5,1.5-1.1,1.9-1.8C388.2,221.9,388.4,221.2,388.4,220.3z M377.3,196.6c1.3,0,2.3-0.2,3.3-0.5
				c0.9-0.3,1.7-0.8,2.3-1.4c0.6-0.6,1.1-1.3,1.4-2.2c0.3-0.8,0.5-1.8,0.5-2.8c0-2.1-0.6-3.7-1.9-4.9c-1.2-1.2-3.1-1.8-5.6-1.8
				c-2.5,0-4.3,0.6-5.6,1.8c-1.2,1.2-1.9,2.9-1.9,4.9c0,1,0.2,1.9,0.5,2.7c0.3,0.8,0.8,1.6,1.4,2.2c0.6,0.6,1.4,1.1,2.3,1.4
				C375,196.4,376.1,196.6,377.3,196.6z"/>
			<path class="st1" d="M417.4,164.4c0,0.9-0.2,1.7-0.5,2.5c-0.4,0.8-0.8,1.4-1.4,2c-0.6,0.6-1.3,1-2.1,1.4s-1.6,0.5-2.5,0.5
				c-0.9,0-1.7-0.2-2.5-0.5s-1.5-0.8-2-1.4c-0.6-0.6-1-1.2-1.4-2c-0.3-0.8-0.5-1.6-0.5-2.5c0-0.9,0.2-1.7,0.5-2.5
				c0.3-0.8,0.8-1.5,1.4-2c0.6-0.6,1.2-1,2-1.4s1.6-0.5,2.5-0.5c0.9,0,1.7,0.2,2.5,0.5s1.5,0.8,2.1,1.4c0.6,0.6,1.1,1.3,1.4,2
				C417.2,162.6,417.4,163.5,417.4,164.4z M415.9,176.6v42h-10.1v-42H415.9z"/>
			<path class="st1" d="M441,219.2c-3.6,0-6.4-1-8.4-3.1s-2.9-4.9-2.9-8.5v-23.4h-4.3c-0.5,0-1-0.2-1.4-0.5
				c-0.4-0.4-0.6-0.9-0.6-1.6v-4l6.7-1.1l2.1-11.5c0.1-0.5,0.4-1,0.8-1.3c0.4-0.3,0.9-0.5,1.5-0.5h5.2V177h11v7.2h-11v22.7
				c0,1.3,0.3,2.3,1,3.1s1.5,1.1,2.6,1.1c0.6,0,1.2-0.1,1.6-0.2c0.4-0.1,0.8-0.3,1.1-0.5c0.3-0.2,0.6-0.3,0.8-0.5
				c0.2-0.1,0.5-0.2,0.7-0.2c0.3,0,0.5,0.1,0.7,0.2c0.2,0.2,0.4,0.4,0.6,0.7l3,4.9c-1.5,1.2-3.2,2.2-5.1,2.8
				C445.1,218.9,443.1,219.2,441,219.2z"/>
			<path class="st1" d="M491.8,218.6h-4.5c-1,0-1.7-0.1-2.2-0.4c-0.5-0.3-1-0.9-1.2-1.7l-0.9-3c-1.1,1-2.1,1.8-3.1,2.5
				c-1,0.7-2.1,1.3-3.2,1.8c-1.1,0.5-2.2,0.9-3.5,1.1c-1.2,0.2-2.6,0.4-4.1,0.4c-1.8,0-3.4-0.2-4.9-0.7c-1.5-0.5-2.8-1.2-3.9-2.2
				c-1.1-1-1.9-2.1-2.5-3.6c-0.6-1.4-0.9-3.1-0.9-5c0-1.6,0.4-3.2,1.2-4.7c0.8-1.5,2.2-2.9,4.2-4.2c1.9-1.2,4.5-2.3,7.7-3.1
				c3.2-0.8,7.2-1.2,12-1.2v-2.5c0-2.8-0.6-4.9-1.8-6.3c-1.2-1.4-2.9-2-5.2-2c-1.6,0-3,0.2-4.1,0.6c-1.1,0.4-2,0.8-2.8,1.3
				c-0.8,0.5-1.5,0.9-2.2,1.3c-0.7,0.4-1.4,0.6-2.2,0.6c-0.7,0-1.3-0.2-1.8-0.5c-0.5-0.4-0.9-0.8-1.2-1.3l-1.8-3.2
				c4.8-4.4,10.6-6.6,17.5-6.6c2.5,0,4.6,0.4,6.6,1.2c1.9,0.8,3.6,1.9,4.9,3.4c1.3,1.4,2.4,3.1,3,5.1c0.7,2,1,4.2,1,6.5V218.6z
				 M472.2,212.3c1,0,2-0.1,2.9-0.3c0.9-0.2,1.7-0.5,2.5-0.8s1.5-0.8,2.2-1.4c0.7-0.6,1.5-1.2,2.2-2v-7c-2.9,0-5.4,0.2-7.4,0.6
				c-2,0.4-3.6,0.8-4.8,1.4c-1.2,0.6-2.1,1.2-2.6,2c-0.5,0.8-0.8,1.6-0.8,2.5c0,1.8,0.5,3.1,1.6,3.8
				C469.1,211.9,470.5,212.3,472.2,212.3z"/>
			<path class="st1" d="M512.5,157.8v60.8h-10.1v-60.8H512.5z"/>
			<path class="st1" d="M534.6,176.6h8c0.8,0,1.4,0.2,1.9,0.5s0.8,0.8,1,1.3l6,22.4c0.3,1.2,0.6,2.4,0.8,3.6
				c0.2,1.2,0.4,2.3,0.6,3.5c0.3-1.2,0.6-2.3,1-3.5c0.3-1.2,0.7-2.4,1.1-3.6l7-22.5c0.2-0.5,0.5-1,1-1.3c0.5-0.4,1.1-0.5,1.7-0.5
				h4.5c0.7,0,1.4,0.2,1.8,0.5c0.5,0.4,0.8,0.8,1,1.3l6.9,22.9c0.4,1.2,0.7,2.3,1,3.4c0.3,1.1,0.6,2.2,0.8,3.3
				c0.2-1.2,0.4-2.3,0.6-3.5c0.2-1.2,0.5-2.4,0.9-3.6l6.2-22.4c0.1-0.5,0.5-1,1-1.3c0.5-0.4,1.1-0.5,1.8-0.5h7.7l-13.3,42h-8.1
				c-0.9,0-1.5-0.6-1.9-1.8l-7.6-24.3c-0.2-0.8-0.5-1.6-0.7-2.4s-0.4-1.6-0.5-2.4c-0.2,0.8-0.3,1.6-0.5,2.4
				c-0.2,0.8-0.4,1.6-0.7,2.4l-7.6,24.2c-0.4,1.2-1.1,1.8-2.2,1.8h-7.7L534.6,176.6z"/>
			<path class="st1" d="M622.3,175.9c3.1,0,6,0.5,8.5,1.5c2.5,1,4.7,2.4,6.5,4.3s3.2,4.1,4.2,6.8c1,2.7,1.5,5.7,1.5,9
				c0,3.3-0.5,6.3-1.5,9c-1,2.7-2.4,5-4.2,6.8c-1.8,1.9-4,3.3-6.5,4.3c-2.6,1-5.4,1.5-8.5,1.5s-6-0.5-8.5-1.5
				c-2.6-1-4.8-2.5-6.6-4.3c-1.8-1.9-3.2-4.2-4.2-6.8c-1-2.7-1.5-5.7-1.5-9c0-3.3,0.5-6.3,1.5-9c1-2.7,2.4-4.9,4.2-6.8
				s4-3.3,6.6-4.3S619.2,175.9,622.3,175.9z M622.3,211.4c3.5,0,6.1-1.2,7.8-3.5s2.5-5.8,2.5-10.3c0-4.5-0.8-8-2.5-10.3
				c-1.7-2.4-4.3-3.6-7.8-3.6c-3.5,0-6.2,1.2-7.9,3.6c-1.7,2.4-2.5,5.8-2.5,10.3c0,4.5,0.8,7.9,2.5,10.3
				C616.2,210.2,618.8,211.4,622.3,211.4z"/>
			<path class="st1" d="M650.9,218.6v-42h5.9c1,0,1.8,0.2,2.2,0.6c0.4,0.4,0.7,1,0.8,2l0.6,5.1c1.5-2.6,3.3-4.6,5.3-6.1
				c2-1.5,4.3-2.2,6.8-2.2c2.1,0,3.8,0.5,5.2,1.4l-1.3,7.6c-0.1,0.5-0.3,0.8-0.5,1c-0.3,0.2-0.6,0.3-1.1,0.3c-0.4,0-1-0.1-1.7-0.3
				c-0.7-0.2-1.7-0.3-2.8-0.3c-2.1,0-3.9,0.6-5.4,1.7c-1.5,1.2-2.8,2.9-3.8,5.1v26.1H650.9z"/>
			<path class="st1" d="M694.6,157.8v34.8h1.9c0.7,0,1.2-0.1,1.6-0.3s0.8-0.5,1.2-1.1l10.4-12.9c0.5-0.5,1-1,1.5-1.3
				c0.5-0.3,1.2-0.5,2-0.5h9.2l-13,15.6c-0.5,0.6-0.9,1.1-1.4,1.6c-0.5,0.5-1,0.9-1.6,1.2c0.6,0.4,1.1,0.9,1.5,1.4
				c0.4,0.5,0.9,1.1,1.3,1.8l14,20.4h-9.1c-0.8,0-1.5-0.1-2-0.4c-0.5-0.3-1-0.7-1.5-1.4l-10.7-15.9c-0.4-0.6-0.8-1-1.2-1.2
				c-0.4-0.2-1-0.3-1.8-0.3h-2.3v19.2h-10.1v-60.8H694.6z"/>
			<path class="st1" d="M754.4,184.8c-0.3,0.4-0.6,0.7-0.9,0.9c-0.3,0.2-0.7,0.3-1.1,0.3c-0.5,0-1-0.1-1.6-0.4
				c-0.6-0.3-1.2-0.6-1.9-0.9s-1.6-0.6-2.5-0.9c-0.9-0.3-2.1-0.4-3.3-0.4c-2,0-3.6,0.4-4.7,1.3c-1.1,0.8-1.7,2-1.7,3.3
				c0,0.9,0.3,1.7,0.9,2.3c0.6,0.6,1.4,1.2,2.3,1.6c1,0.5,2.1,0.9,3.3,1.2c1.2,0.4,2.5,0.8,3.8,1.2c1.3,0.4,2.5,0.9,3.8,1.5
				c1.2,0.6,2.3,1.3,3.3,2.1c1,0.9,1.7,1.9,2.3,3.1c0.6,1.2,0.9,2.6,0.9,4.3c0,2-0.4,3.9-1.1,5.6c-0.7,1.7-1.8,3.2-3.2,4.4
				c-1.4,1.2-3.2,2.2-5.3,2.9s-4.5,1-7.2,1c-1.4,0-2.9-0.1-4.2-0.4c-1.4-0.3-2.7-0.6-4-1.1c-1.3-0.5-2.4-1-3.5-1.6s-2-1.3-2.8-2
				l2.3-3.8c0.3-0.5,0.7-0.8,1.1-1.1s0.9-0.4,1.6-0.4c0.6,0,1.2,0.2,1.8,0.5c0.6,0.4,1.2,0.7,1.9,1.1c0.7,0.4,1.6,0.8,2.6,1.1
				c1,0.4,2.3,0.5,3.8,0.5c1.2,0,2.2-0.1,3.1-0.4s1.6-0.7,2.1-1.1c0.6-0.5,1-1,1.2-1.6c0.3-0.6,0.4-1.2,0.4-1.9c0-1-0.3-1.8-0.9-2.4
				c-0.6-0.6-1.4-1.2-2.3-1.6c-1-0.5-2.1-0.9-3.3-1.2c-1.2-0.4-2.5-0.8-3.8-1.2s-2.6-0.9-3.8-1.5c-1.2-0.6-2.3-1.3-3.3-2.2
				c-1-0.9-1.7-2-2.3-3.3c-0.6-1.3-0.9-2.9-0.9-4.7c0-1.7,0.3-3.4,1-4.9s1.7-2.9,3-4.1c1.3-1.2,3-2.1,4.9-2.8c2-0.7,4.3-1,6.9-1
				c2.9,0,5.5,0.5,7.9,1.4c2.4,1,4.3,2.2,5.9,3.8L754.4,184.8z"/>
			<path class="st1" d="M764.4,183.8c0-0.8,0.2-1.6,0.5-2.4s0.8-1.4,1.3-2c0.6-0.5,1.2-1,2-1.3c0.8-0.3,1.6-0.5,2.5-0.5
				c0.8,0,1.6,0.2,2.4,0.5s1.4,0.8,2,1.3c0.5,0.5,1,1.2,1.3,2s0.5,1.6,0.5,2.4c0,0.9-0.2,1.7-0.5,2.4c-0.3,0.8-0.8,1.4-1.3,1.9
				c-0.5,0.5-1.2,1-2,1.3c-0.8,0.3-1.6,0.5-2.4,0.5c-0.9,0-1.7-0.2-2.5-0.5c-0.8-0.3-1.4-0.7-2-1.3c-0.6-0.5-1-1.2-1.3-1.9
				C764.6,185.5,764.4,184.7,764.4,183.8z M764.7,212.3c0-0.8,0.1-1.5,0.4-2.1c0.3-0.7,0.7-1.3,1.2-1.8c0.5-0.5,1.1-0.9,1.9-1.2
				c0.7-0.3,1.5-0.4,2.4-0.4c1,0,1.9,0.2,2.7,0.6c0.8,0.4,1.4,0.9,1.9,1.5c0.5,0.6,0.9,1.4,1.1,2.2s0.4,1.7,0.4,2.6
				c0,1.3-0.2,2.7-0.6,4.1c-0.4,1.4-1,2.9-1.7,4.3c-0.8,1.4-1.7,2.8-2.8,4.2s-2.4,2.6-3.8,3.8l-1.8-1.6c-0.5-0.4-0.7-0.9-0.7-1.5
				c0-0.2,0.1-0.5,0.2-0.7c0.1-0.3,0.3-0.5,0.6-0.7c0.3-0.3,0.7-0.7,1.1-1.2c0.4-0.5,0.9-1,1.3-1.6c0.4-0.6,0.8-1.3,1.2-2
				s0.6-1.5,0.8-2.3c-0.8,0-1.6-0.2-2.3-0.5c-0.7-0.3-1.3-0.7-1.8-1.3c-0.5-0.5-0.9-1.2-1.2-1.9C764.9,214,764.7,213.2,764.7,212.3z
				"/>
			<path class="st1" d="M827.6,184.8c-0.3,0.4-0.6,0.7-0.9,0.9c-0.3,0.2-0.7,0.3-1.1,0.3c-0.5,0-1-0.1-1.6-0.4
				c-0.6-0.3-1.2-0.6-1.9-0.9s-1.6-0.6-2.5-0.9c-0.9-0.3-2.1-0.4-3.3-0.4c-2,0-3.6,0.4-4.7,1.3c-1.1,0.8-1.7,2-1.7,3.3
				c0,0.9,0.3,1.7,0.9,2.3c0.6,0.6,1.4,1.2,2.3,1.6c1,0.5,2.1,0.9,3.3,1.2c1.2,0.4,2.5,0.8,3.8,1.2c1.3,0.4,2.5,0.9,3.8,1.5
				c1.2,0.6,2.3,1.3,3.3,2.1c1,0.9,1.7,1.9,2.3,3.1c0.6,1.2,0.9,2.6,0.9,4.3c0,2-0.4,3.9-1.1,5.6c-0.7,1.7-1.8,3.2-3.2,4.4
				c-1.4,1.2-3.2,2.2-5.3,2.9s-4.5,1-7.2,1c-1.4,0-2.9-0.1-4.2-0.4c-1.4-0.3-2.7-0.6-4-1.1c-1.3-0.5-2.4-1-3.5-1.6s-2-1.3-2.8-2
				l2.3-3.8c0.3-0.5,0.7-0.8,1.1-1.1s0.9-0.4,1.6-0.4c0.6,0,1.2,0.2,1.8,0.5c0.6,0.4,1.2,0.7,1.9,1.1c0.7,0.4,1.6,0.8,2.6,1.1
				c1,0.4,2.3,0.5,3.8,0.5c1.2,0,2.2-0.1,3.1-0.4s1.6-0.7,2.1-1.1c0.6-0.5,1-1,1.2-1.6c0.3-0.6,0.4-1.2,0.4-1.9c0-1-0.3-1.8-0.9-2.4
				c-0.6-0.6-1.4-1.2-2.3-1.6c-1-0.5-2.1-0.9-3.3-1.2c-1.2-0.4-2.5-0.8-3.8-1.2s-2.6-0.9-3.8-1.5c-1.2-0.6-2.3-1.3-3.3-2.2
				c-1-0.9-1.7-2-2.3-3.3c-0.6-1.3-0.9-2.9-0.9-4.7c0-1.7,0.3-3.4,1-4.9s1.7-2.9,3-4.1c1.3-1.2,3-2.1,4.9-2.8c2-0.7,4.3-1,6.9-1
				c2.9,0,5.5,0.5,7.9,1.4c2.4,1,4.3,2.2,5.9,3.8L827.6,184.8z"/>
			<path class="st1" d="M852.2,219.2c-3.6,0-6.4-1-8.4-3.1c-2-2.1-2.9-4.9-2.9-8.5v-23.4h-4.3c-0.5,0-1-0.2-1.4-0.5
				c-0.4-0.4-0.6-0.9-0.6-1.6v-4l6.7-1.1l2.1-11.5c0.1-0.5,0.4-1,0.8-1.3c0.4-0.3,0.9-0.5,1.5-0.5h5.2V177h11v7.2h-11v22.7
				c0,1.3,0.3,2.3,1,3.1c0.7,0.7,1.5,1.1,2.6,1.1c0.6,0,1.2-0.1,1.6-0.2c0.4-0.1,0.8-0.3,1.1-0.5c0.3-0.2,0.6-0.3,0.8-0.5
				c0.2-0.1,0.5-0.2,0.7-0.2c0.3,0,0.5,0.1,0.7,0.2c0.2,0.2,0.4,0.4,0.6,0.7l3,4.9c-1.5,1.2-3.2,2.2-5.1,2.8
				C856.2,218.9,854.3,219.2,852.2,219.2z"/>
			<path class="st1" d="M882.4,164.4c0,0.9-0.2,1.7-0.5,2.5c-0.4,0.8-0.8,1.4-1.4,2c-0.6,0.6-1.3,1-2.1,1.4s-1.6,0.5-2.5,0.5
				c-0.9,0-1.7-0.2-2.5-0.5s-1.5-0.8-2-1.4c-0.6-0.6-1-1.2-1.4-2c-0.3-0.8-0.5-1.6-0.5-2.5c0-0.9,0.2-1.7,0.5-2.5
				c0.3-0.8,0.8-1.5,1.4-2c0.6-0.6,1.2-1,2-1.4s1.6-0.5,2.5-0.5c0.9,0,1.7,0.2,2.5,0.5s1.5,0.8,2.1,1.4c0.6,0.6,1.1,1.3,1.4,2
				C882.2,162.6,882.4,163.5,882.4,164.4z M880.9,176.6v42h-10.1v-42H880.9z"/>
			<path class="st1" d="M906.1,219.2c-3.6,0-6.4-1-8.4-3.1c-2-2.1-2.9-4.9-2.9-8.5v-23.4h-4.3c-0.5,0-1-0.2-1.4-0.5
				c-0.4-0.4-0.6-0.9-0.6-1.6v-4l6.7-1.1l2.1-11.5c0.1-0.5,0.4-1,0.8-1.3c0.4-0.3,0.9-0.5,1.5-0.5h5.2V177h11v7.2h-11v22.7
				c0,1.3,0.3,2.3,1,3.1c0.7,0.7,1.5,1.1,2.6,1.1c0.6,0,1.2-0.1,1.6-0.2c0.4-0.1,0.8-0.3,1.1-0.5c0.3-0.2,0.6-0.3,0.8-0.5
				c0.2-0.1,0.5-0.2,0.7-0.2c0.3,0,0.5,0.1,0.7,0.2c0.2,0.2,0.4,0.4,0.6,0.7l3,4.9c-1.5,1.2-3.2,2.2-5.1,2.8
				C910.1,218.9,908.1,219.2,906.1,219.2z"/>
			<path class="st1" d="M953.4,185.5c-0.3,0.4-0.6,0.7-0.9,0.9c-0.3,0.2-0.7,0.3-1.2,0.3c-0.5,0-1-0.2-1.5-0.5
				c-0.5-0.3-1.1-0.7-1.8-1.1c-0.7-0.4-1.5-0.7-2.4-1.1c-0.9-0.3-2.1-0.5-3.5-0.5c-1.8,0-3.3,0.3-4.7,1c-1.3,0.6-2.4,1.6-3.3,2.8
				c-0.9,1.2-1.5,2.7-2,4.4c-0.4,1.7-0.7,3.6-0.7,5.8c0,2.2,0.2,4.2,0.7,6c0.5,1.7,1.2,3.2,2.1,4.4c0.9,1.2,2,2.1,3.3,2.7
				c1.3,0.6,2.7,0.9,4.3,0.9s2.9-0.2,3.9-0.6c1-0.4,1.8-0.8,2.5-1.3c0.7-0.5,1.3-0.9,1.8-1.3c0.5-0.4,1.1-0.6,1.7-0.6
				c0.8,0,1.4,0.3,1.8,0.9l2.9,3.7c-1.1,1.3-2.3,2.4-3.6,3.3c-1.3,0.9-2.7,1.6-4.1,2.1c-1.4,0.5-2.9,0.9-4.4,1.1
				c-1.5,0.2-3,0.3-4.5,0.3c-2.6,0-5-0.5-7.3-1.5s-4.3-2.4-6-4.2c-1.7-1.9-3.1-4.1-4-6.8c-1-2.7-1.5-5.7-1.5-9.2
				c0-3.1,0.4-5.9,1.3-8.6c0.9-2.6,2.2-4.9,3.9-6.8c1.7-1.9,3.8-3.4,6.4-4.5s5.5-1.6,8.8-1.6c3.1,0,5.9,0.5,8.2,1.5
				c2.4,1,4.5,2.5,6.4,4.3L953.4,185.5z"/>
			<path class="st1" d="M962.9,218.6v-60.8h10.1v23.4c1.6-1.6,3.4-2.8,5.4-3.8c2-1,4.3-1.4,6.9-1.4c2.3,0,4.3,0.4,6.1,1.2
				s3.3,1.9,4.4,3.3s2.1,3.1,2.7,5c0.6,2,0.9,4.1,0.9,6.4v26.7h-10.1v-26.7c0-2.6-0.6-4.5-1.8-6c-1.2-1.4-3-2.1-5.3-2.1
				c-1.7,0-3.4,0.4-4.9,1.2s-3,1.9-4.3,3.2v30.4H962.9z"/>
		</g>
		<g class="st0">
			<path class="st1" d="M1085.4,230.1c-0.3,0.7-0.7,1.2-1.2,1.6s-1.2,0.6-2.2,0.6h-7.5l7.9-16.8l-17-38.9h8.8c0.8,0,1.4,0.2,1.9,0.6
				c0.4,0.4,0.8,0.8,1,1.3l9,21.8c0.3,0.7,0.6,1.4,0.8,2.2c0.2,0.8,0.4,1.5,0.6,2.3c0.2-0.8,0.5-1.6,0.7-2.3
				c0.3-0.7,0.5-1.5,0.8-2.2l8.4-21.7c0.2-0.5,0.6-1,1.1-1.3c0.5-0.4,1.1-0.5,1.7-0.5h8.1L1085.4,230.1z"/>
			<path class="st1" d="M1154.9,184.8c-0.3,0.4-0.6,0.7-0.9,0.9c-0.3,0.2-0.7,0.3-1.1,0.3c-0.5,0-1-0.1-1.6-0.4
				c-0.6-0.3-1.2-0.6-1.9-0.9s-1.6-0.6-2.5-0.9c-0.9-0.3-2.1-0.4-3.3-0.4c-2,0-3.6,0.4-4.7,1.3c-1.1,0.8-1.7,2-1.7,3.3
				c0,0.9,0.3,1.7,0.9,2.3c0.6,0.6,1.4,1.2,2.3,1.6c1,0.5,2.1,0.9,3.3,1.2c1.2,0.4,2.5,0.8,3.8,1.2c1.3,0.4,2.5,0.9,3.8,1.5
				c1.2,0.6,2.3,1.3,3.3,2.1c1,0.9,1.7,1.9,2.3,3.1c0.6,1.2,0.9,2.6,0.9,4.3c0,2-0.4,3.9-1.1,5.6c-0.7,1.7-1.8,3.2-3.2,4.4
				c-1.4,1.2-3.2,2.2-5.3,2.9c-2.1,0.7-4.5,1-7.2,1c-1.4,0-2.9-0.1-4.2-0.4c-1.4-0.3-2.7-0.6-4-1.1c-1.3-0.5-2.4-1-3.5-1.6
				c-1.1-0.6-2-1.3-2.8-2l2.3-3.8c0.3-0.5,0.7-0.8,1.1-1.1s0.9-0.4,1.6-0.4c0.6,0,1.2,0.2,1.8,0.5c0.6,0.4,1.2,0.7,1.9,1.1
				c0.7,0.4,1.6,0.8,2.6,1.1c1,0.4,2.3,0.5,3.8,0.5c1.2,0,2.2-0.1,3.1-0.4c0.9-0.3,1.6-0.7,2.1-1.1c0.6-0.5,1-1,1.2-1.6
				c0.3-0.6,0.4-1.2,0.4-1.9c0-1-0.3-1.8-0.9-2.4c-0.6-0.6-1.4-1.2-2.3-1.6c-1-0.5-2.1-0.9-3.3-1.2c-1.2-0.4-2.5-0.8-3.8-1.2
				s-2.6-0.9-3.8-1.5c-1.2-0.6-2.3-1.3-3.3-2.2c-1-0.9-1.7-2-2.3-3.3c-0.6-1.3-0.9-2.9-0.9-4.7c0-1.7,0.3-3.4,1-4.9s1.7-2.9,3-4.1
				c1.3-1.2,3-2.1,4.9-2.8s4.3-1,6.9-1c2.9,0,5.5,0.5,7.9,1.4c2.4,1,4.3,2.2,5.9,3.8L1154.9,184.8z"/>
			<path class="st1" d="M1179.5,219.2c-3.6,0-6.4-1-8.4-3.1c-2-2.1-2.9-4.9-2.9-8.5v-23.4h-4.3c-0.5,0-1-0.2-1.4-0.5
				s-0.6-0.9-0.6-1.6v-4l6.7-1.1l2.1-11.5c0.1-0.5,0.4-1,0.8-1.3s0.9-0.5,1.5-0.5h5.2V177h11v7.2h-11v22.7c0,1.3,0.3,2.3,1,3.1
				s1.5,1.1,2.6,1.1c0.6,0,1.2-0.1,1.6-0.2c0.4-0.1,0.8-0.3,1.1-0.5c0.3-0.2,0.6-0.3,0.8-0.5c0.2-0.1,0.5-0.2,0.7-0.2
				c0.3,0,0.5,0.1,0.7,0.2c0.2,0.2,0.4,0.4,0.6,0.7l3,4.9c-1.5,1.2-3.2,2.2-5.1,2.8C1183.5,218.9,1181.5,219.2,1179.5,219.2z"/>
			<path class="st1" d="M1209.6,164.4c0,0.9-0.2,1.7-0.5,2.5c-0.4,0.8-0.8,1.4-1.4,2c-0.6,0.6-1.3,1-2.1,1.4s-1.6,0.5-2.5,0.5
				c-0.9,0-1.7-0.2-2.5-0.5s-1.5-0.8-2-1.4c-0.6-0.6-1-1.2-1.4-2c-0.3-0.8-0.5-1.6-0.5-2.5c0-0.9,0.2-1.7,0.5-2.5
				c0.3-0.8,0.8-1.5,1.4-2c0.6-0.6,1.2-1,2-1.4s1.6-0.5,2.5-0.5c0.9,0,1.7,0.2,2.5,0.5s1.5,0.8,2.1,1.4c0.6,0.6,1.1,1.3,1.4,2
				C1209.5,162.6,1209.6,163.5,1209.6,164.4z M1208.1,176.6v42H1198v-42H1208.1z"/>
			<path class="st1" d="M1233.3,219.2c-3.6,0-6.4-1-8.4-3.1c-2-2.1-2.9-4.9-2.9-8.5v-23.4h-4.3c-0.5,0-1-0.2-1.4-0.5
				s-0.6-0.9-0.6-1.6v-4l6.7-1.1l2.1-11.5c0.1-0.5,0.4-1,0.8-1.3s0.9-0.5,1.5-0.5h5.2V177h11v7.2h-11v22.7c0,1.3,0.3,2.3,1,3.1
				s1.5,1.1,2.6,1.1c0.6,0,1.2-0.1,1.6-0.2c0.4-0.1,0.8-0.3,1.1-0.5c0.3-0.2,0.6-0.3,0.8-0.5c0.2-0.1,0.5-0.2,0.7-0.2
				c0.3,0,0.5,0.1,0.7,0.2c0.2,0.2,0.4,0.4,0.6,0.7l3,4.9c-1.5,1.2-3.2,2.2-5.1,2.8C1237.3,218.9,1235.4,219.2,1233.3,219.2z"/>
			<path class="st1" d="M1280.7,185.5c-0.3,0.4-0.6,0.7-0.9,0.9c-0.3,0.2-0.7,0.3-1.2,0.3c-0.5,0-1-0.2-1.5-0.5
				c-0.5-0.3-1.1-0.7-1.8-1.1c-0.7-0.4-1.5-0.7-2.4-1.1c-0.9-0.3-2.1-0.5-3.5-0.5c-1.8,0-3.3,0.3-4.7,1c-1.3,0.6-2.4,1.6-3.3,2.8
				c-0.9,1.2-1.5,2.7-2,4.4c-0.4,1.7-0.7,3.6-0.7,5.8c0,2.2,0.2,4.2,0.7,6c0.5,1.7,1.2,3.2,2.1,4.4c0.9,1.2,2,2.1,3.3,2.7
				c1.3,0.6,2.7,0.9,4.3,0.9s2.9-0.2,3.9-0.6c1-0.4,1.8-0.8,2.5-1.3c0.7-0.5,1.3-0.9,1.8-1.3c0.5-0.4,1.1-0.6,1.7-0.6
				c0.8,0,1.4,0.3,1.8,0.9l2.9,3.7c-1.1,1.3-2.3,2.4-3.6,3.3c-1.3,0.9-2.7,1.6-4.1,2.1c-1.4,0.5-2.9,0.9-4.4,1.1
				c-1.5,0.2-3,0.3-4.5,0.3c-2.6,0-5-0.5-7.3-1.5c-2.3-1-4.3-2.4-6-4.2s-3.1-4.1-4-6.8c-1-2.7-1.5-5.7-1.5-9.2
				c0-3.1,0.4-5.9,1.3-8.6c0.9-2.6,2.2-4.9,3.9-6.8s3.8-3.4,6.4-4.5s5.5-1.6,8.8-1.6c3.1,0,5.9,0.5,8.2,1.5s4.5,2.5,6.4,4.3
				L1280.7,185.5z"/>
			<path class="st1" d="M1290.2,218.6v-60.8h10.1v23.4c1.6-1.6,3.4-2.8,5.4-3.8c2-1,4.3-1.4,6.9-1.4c2.3,0,4.3,0.4,6.1,1.2
				s3.3,1.9,4.4,3.3s2.1,3.1,2.7,5c0.6,2,0.9,4.1,0.9,6.4v26.7h-10.1v-26.7c0-2.6-0.6-4.5-1.8-6c-1.2-1.4-3-2.1-5.3-2.1
				c-1.7,0-3.4,0.4-4.9,1.2s-3,1.9-4.3,3.2v30.4H1290.2z"/>
		</g>
		<path class="st1" d="M128.7,75.5c-11.6-0.1-23.1,1.9-33.9,5.9c26.7-14.9,57.6-17.2,84.4-2.6c-6.1-95.5-126-102-167.3-31.9
			c-41.1,74.7,30.7,146,108.3,118.9c-25.6,15.8-59.7,13.3-87.1-0.6c2.5,84.5,95.6,108.6,151.5,65.2C255,175.6,215.6,73.3,128.7,75.5
			z M190.1,164.1v2c-2.3,20.9-16,40.4-34.9,49c-35.1,16-75.6-0.7-87.7-34.3c0.5,0.6,12.3,2.1,27.4-0.4c3.6,3.9,9.5,8.4,13.1,9.9
			c19.3,12.8,51.4-3,55-23.8c4.7-26.7-23.6-47.4-56-30.4c-16.8,5.8-33.5,2.2-47.7-6.6c-58.9-40.1,6-126.2,68-90.5
			c10.2,6.2,16.3,15,19.5,26.2c-4.5-0.3-10.2-1-24.9,1.3c-0.7-1.8-3.4-6.4-6.8-8.8c-18.6-13-51.9,1.5-54.5,25.2
			c-2.3,21,16.9,35.5,37.3,30.2c20.9-8.8,43.3-13.2,67.2,1.9C182,125.5,192.5,143.4,190.1,164.1z"/>
	</g>
</g>
<text transform="matrix(1 0 0 1 1019.8454 218.5625)" class="st1 st2 st3">b</text>
</svg>
