<?xml version="1.0" encoding="utf-8"?>
<!-- Generator: Adobe Illustrator 25.2.1, SVG Export Plug-In . SVG Version: 6.00 Build 0)  -->
<svg version="1.1" id="Layer_1" xmlns="http://www.w3.org/2000/svg" xmlns:xlink="http://www.w3.org/1999/xlink" x="0px" y="0px"
	 viewBox="0 0 190.2 190.2" style="enable-background:new 0 0 190.2 190.2;" xml:space="preserve">
<style type="text/css">
	.st0{fill:#FFFFFF;}
	.st1{fill:url(#SVGID_1_);}
	.st2{fill:#1D1D1B;}
	.st3{fill:url(#SVGID_2_);}
	.st4{fill:none;stroke:#1D1D1B;stroke-linecap:round;stroke-linejoin:round;stroke-miterlimit:10;}
	.st5{fill:url(#SVGID_3_);}
	.st6{fill:none;stroke:#1D1D1B;stroke-miterlimit:10;}
	.st7{fill:url(#SVGID_4_);}
	.st8{fill:url(#SVGID_5_);}
	.st9{fill:url(#SVGID_6_);}
	.st10{fill:url(#SVGID_7_);}
	.st11{fill:url(#SVGID_8_);}
	.st12{fill:url(#SVGID_9_);}
	.st13{fill:url(#SVGID_10_);}
	.st14{fill:url(#SVGID_11_);}
	.st15{fill:url(#SVGID_12_);}
</style>
<g>
	<circle class="st0" cx="95" cy="95.8" r="77.2"/>
	<path d="M162.5,96.6c0.1-1-0.3-1.5-0.7-1.8c-1-0.7-2.4-0.1-3.6,0.3c-0.2,0.1-0.5,0.2-0.6,0.2c-0.6,0.1-2.4,0.3-3.5,0.4
		c-0.8,0-1.3,0.4-1.4,0.6c-0.5,0.8-0.2,1.8,0,2.4l0.1,0.8c0,0,0-0.1,0-0.1c-0.1,0.3-0.1,0.7,0.1,0.9c0,0,0,0,0,0l0,0.6
		c0.1,1.9,0.2,7.9,0.3,8.4c0,0.5,0.1,5.8,0.1,9c0,0.6,0,1.2,0,1.7l0.3,4.2c0,0,0.3,4.9-0.1,6.2c-0.7,2.4,0.7,2.1,1.5,1.6
		c0.9-0.5,0.2-1.8,0-1.8c-0.2-0.1-0.3-3.2-0.1-4.5c0.1-0.5,0.3-1.4,0.5-2.3c0.6-1.3,1.5-2.7,2.8-1.8c0,0,0.5,1.3,0,1.8
		c-0.6,0.5,0.8,1.1,1.1,0.6c0.3-0.4,0-1.5,0-1.5s0.3-3,0.8-5.4c0.3-0.7,0.4-1.4,0.5-2c0-0.1,0.1-0.2,0.1-0.3c0.1-0.1,0-0.2,0-0.2
		c0-0.2,0-0.4,0-0.5c0-0.4,0.1-2.6,0.2-4c0.1-1.9,0.2-2.5,0.2-2.7C161,106.7,161.9,100.5,162.5,96.6z M159,105.4
		c-0.3,0.6-1.3,2.9-1.8,3c0,0,0.8-0.2,1.2,0.1c-0.1,0.5-0.2,1-0.3,1.6c0,0.2,0,0.3,0,0.5l0.3,0.8c0.5,4-0.2,6.3-2.4,7.4
		c-0.1,0.1-0.3,0.2-0.3,0.3c0,0-0.1,0.1-0.3,0.1c0,0,0,0,0,0c0-0.1,0-0.2,0-0.3c0-0.1,0-0.2,0-0.3c-0.1-1.4-0.1-2.8-0.1-4.1
		c0-0.1,0-0.2,0-0.3c0.4-0.6,1-0.4,1.4-0.6c0.4-0.3,0.1-0.7-0.6-0.5c-0.7,0.3-0.8-1.2-0.8-1.2s0,0,0,0.1c-0.1-1.7-0.2-3.4-0.7-5.3
		c-0.2-0.9,0-1.7,0.2-2.5c0.3-1.2,0.7-2.9-1.2-4.1c0-0.1,0.1-0.3,0.1-0.4c0.1,0,0.1,0,0.2,0c0.3,0,0.7-0.2,0.9-0.5
		c0.2-0.4,0.4-0.6,0.5-0.8c0.1,0,0.1,0,0.2,0c0.3,0,0.5-0.1,0.7-0.3c0.3-0.3,1.4-0.7,2.1-0.7c0.1,0,0.2,0,0.2,0c0,0,0,0,0,0
		c0,0.3,0.1,0.9,0.2,2c0,0.1,0,0.1,0,0.2C159.4,101.7,159.3,103.4,159,105.4z"/>
	<linearGradient id="SVGID_1_" gradientUnits="userSpaceOnUse" x1="117.332" y1="128.5124" x2="117.332" y2="128.4493">
		<stop  offset="2.801804e-03" style="stop-color:#6C853F"/>
		<stop  offset="0.1259" style="stop-color:#7C9334"/>
		<stop  offset="0.4652" style="stop-color:#A2B518"/>
		<stop  offset="0.7367" style="stop-color:#BAC906"/>
		<stop  offset="0.9048" style="stop-color:#C3D100"/>
	</linearGradient>
	<path class="st1" d="M117.4,128.5L117.4,128.5C117.3,128.5,117.3,128.5,117.4,128.5C117.3,128.5,117.3,128.5,117.4,128.5z"/>
	<polygon class="st2" points="40.7,66.6 42.4,67.3 40.5,67.1 	"/>
	<g>
		<path d="M57,135.4c0.1-12.2-1.2-24-0.5-36.2c0.1-5,2.2-13-3.7-15.4c-2.9,0-5.2,1.3-7.9-0.2c0.4-0.9,1.3-1.6,1.5-2.6
			c3.1-2.6,9.2,0.4,10-2.6c0-8.1,0.4-16.2,0.5-24.2c-0.8-2.6,0.2-15.5-1.9-14.5c-3.3,2,1.2,5-0.7,8c-0.5,1.6-0.7,1.6-2.4,2.1
			c-1.5-0.3-1.7-2.8-1.5-4.6c0.3-2-2.8-0.7-1.7,0.8c1.8,2.6-0.9,7-1.7,6.7c-2.8,0.4-0.7-3.9-2.4-3.6c-2.3,1.2,0.7,3.1-0.3,5.4
			c-0.8,2-3.7,3.9-3.8,1.3c0.1-0.3,0.1-2-0.7-1.2c-2.1,2.5,2.4,1.8-1.7,4.8C32,63.4,31.5,71,29.2,77.2l0.1-0.1
			c-1.8,4.3-1.2,8.9-0.9,13.4c-0.1,0.9-0.8,9.9,3.4,10.3c2.3,0.2,3.7,2.6,6,3c2.9,0.4,4.3,3.6,7.3,4.1c0.1,1.3-1,2.5-1,3.8
			c-3.5-0.6-5.1-5.1-8.9-5.1l0,0c-1.4,0.1-5.9-0.1-6.5-2.2c-3.1-2.9,1.5,13.8,1.5,13.8l0.1-0.3c0.4,3.6,2.4,7,5.2,9.3
			c1.2,1.4,0,3.5,0.9,4.6c1,0.2,0.2-2.2,1.3-2.3c1.5,1.6,2.9,3.7,2.2,5.6c-1.4,0.9,1.3,3.8,0.9,0.8c-0.5-2.1,2.2-2.6,3-1
			c2.6,3.8-1.3,6.8,1.1,7.7c0.9,0.1,0.8-0.4,0.7-1.5c0.3-3.9,4.2-1.4,4,2.2c0,0,0,1.5-0.5,2.2c-1.1,1.5,2,2.8,1.7,0.8
			c-0.3-1.8,0-4.1,1.4-4.4c1.7,0.5,1.9,0.5,2.4,2.1c1.9,3-2.6,6,0.7,8C57.2,153.4,56.7,137.7,57,135.4z M52.6,76.2
			c-0.1,0-0.2,0-0.2,0.1L52.6,76.2C52.6,76.2,52.6,76.2,52.6,76.2z M33.3,75.5c0.1-0.2,0.3-0.5,0.4-0.7l-0.4,0.9
			C33.3,75.6,33.3,75.5,33.3,75.5z M44.7,107.8c0.1,0,0.1,0,0.2,0c0,0,0,0,0,0L44.7,107.8z M35.2,112.1c0.1,0,0.2-0.1,0.3-0.1
			c0.1,0.1-0.5,0.2-0.6,0.2C35,112.1,35.1,112.1,35.2,112.1z M52.5,136.2L52.5,136.2c0.1,0,0.1,0,0.2,0.1L52.5,136.2z M52.5,135.2
			C52.5,135.2,52.5,135.2,52.5,135.2C52.6,135.2,52.6,135.2,52.5,135.2z M54,110.3l-0.5,9.3c-3.7-2.7-0.5,1.4-0.5,3.1
			c-3,3.8,2.8,10.8-1.5,13c-3.1-0.9-5.9-4.4-5.7-7.8l0,0.1c0.2-0.6,0.3-1.3,0.3-2c-4.1,6.8-4.1,3.1-7.3-1.2
			c-0.8-0.9-0.4-8.7-1.3-4.9c-1.4,2.7-6.3-2-3.9-4.1c1.2-1.3,0.3-1.4-0.2-2.5c0.8-1.7,6.8-2.4,4.9,0.5c0,0,1,2.9,1.1,0
			c0,0,0-0.9,0.5-0.3c0.6,0.6,0.5,2.1,1.5,2.2c1.1,0.2,0.7,2.3,0.7,2.3s0.6,1.9,0.7-1.5c0-1.2,0.1-2,0.2-2.5
			c2.9,1.2-0.3,4.8,1.9,6.7l-0.3,2c0.8-1.4,2.1-2,0.5-3.5c0.2-1.2,1.5,0.9,2.7,0.2c4.6,0.1,3.8-7.8,2.7-11.9
			c-0.3-1.3,0.1-2.9-1.4-3.8c-1.1-0.5-0.6-2.9-1.3-4.1c-0.4-0.9-0.6-1.8-0.9-2.7c-0.6-0.6-1.3,0.4-0.6,0.8l-0.1,0
			c0.4,0.7,0.7,1.4,0.9,2.1c0.2,2.8-1.8,1.7-3.8,1.7c-0.4-0.7-0.4-1.6-0.5-1.9c-0.3-0.5-1.4-0.8-1.1,0.3c0.1,0.5-0.2,0.9-0.5,1.3
			c-2.4-0.3-2.3-2-3.2-3.9c-2.9-3.2-0.2-4.1-1.3-5.6c-0.7-1.8-0.6,2.6-3.3-0.8l0.4,2.8c-1.7,0.1-1.6-23.7,1.6-17.7
			c1.1,2.2,1.6-1,1.6-1c-0.5-2.9,0.4-8,2.7-10.3c0.5,0.1,1,0.3,0.8,1l0.3,1l0.6,0l0-4.2c2.5-2.2,5.3-4.6,8.2-6.1l0,0
			c0,0,2.5-1.1,3.2,2.9l0,0c1.8,5.6,1.8,11,0,16.6c-0.3,0.1-1.5,0.3-0.7-1.4c0.9-1.9-0.1-2.1-0.2-1.6c-0.5,2.8-0.9,4-3.6,4
			c-2.4-1.5-2.4-2.2-3-4.5c-0.6,0.2,0.7,4.8-1.2,4.9c-2-1.2-2.5,1.1-3.2,2.4c-0.7,1.6,1.4,2.6,1.6,4c0.3,1.1-1.4,1.6-1.7,2.4
			c-0.4,1.5,0.8,3,2.3,2.9c0,0.2-0.1,1.7-0.1,1.8c0,0,1.1,2.3,1.1,2.3l-0.1-2.3c1.2-1.6,3-3.9,4.9-4.6c1.2,0.3,1,1.6,1.2,2.8
			c0.6,1.1,0,0.9,0,0.9c2.1,1.7,0.4-2.8,1.5-3.1c0,0.4,0,0.8,0.6,0.4c1.9-1.1,0.7,0.3,0.7,1.6c0,1.2-0.2,3.3,0.6,2.4
			C56.4,89.3,51.7,106.7,54,110.3z"/>
		<path d="M50.9,93.1c0.8,0,0.8-1.4,0-1.3C50.2,91.7,50.2,93.1,50.9,93.1z"/>
		<path d="M37.7,116.9c-0.5,0-0.5,1.6,0,1.5C38.2,118.4,38.2,116.9,37.7,116.9z"/>
		<path d="M46.2,124.4c-0.4,0-0.4,1.2,0,1.2C46.6,125.6,46.6,124.4,46.2,124.4z"/>
		<path d="M45.5,99.1c-0.3,1.2-2.5,0.8-1,1.7C46,101.8,45.9,98.4,45.5,99.1z"/>
		<path d="M39.1,77.2c-1.1-2.4-1.2-2.6-1.5,0.2c-0.3,0.5-0.8,0.8-1.2,1C37,77.5,39.7,78.6,39.1,77.2z M37.7,77.3l0.3-0.6
			C37.9,76.9,37.8,77.1,37.7,77.3z"/>
		<path d="M33.5,84.5c0,1.9,0.3,3.8,0.8,5.6c-0.3-3.6-0.9-7.6,0.8-11C33.9,80.6,33.6,82.7,33.5,84.5z"/>
		<path d="M50.9,133.8c-0.3,0.1-0.8,0.1-1.2,0c1.9,1.8,3.4-1.2,2.8-2.9C52.1,131.9,52,133.4,50.9,133.8z"/>
		<path d="M48.6,58.8c1.6-0.4,2.2,0.9,2.7,2.2l0,0c1.4-2.3-1.9-4.3-3.4-2.2C48.2,58.9,48.4,58.8,48.6,58.8z"/>
	</g>
	<linearGradient id="SVGID_2_" gradientUnits="userSpaceOnUse" x1="95.2483" y1="147.7261" x2="95.2483" y2="114.5441">
		<stop  offset="2.801804e-03" style="stop-color:#6C853F"/>
		<stop  offset="0.1869" style="stop-color:#82982F"/>
		<stop  offset="0.5336" style="stop-color:#A5B716"/>
		<stop  offset="0.8171" style="stop-color:#BBCA06"/>
		<stop  offset="1" style="stop-color:#C3D100"/>
	</linearGradient>
	<path class="st3" d="M104.8,146.2c0-1.2-0.4-2.5-0.8-3.9c-0.5-1.4-0.3-3-0.1-4.6c0.1-1.1,0.4-2.8-0.1-3.1c-0.7-0.6-1.7-1.2-1.8-2.5
		c0-0.4,0.1-1,0.7-1.6c0.9-1,0.9-3.3,0.8-5.6c-0.2-0.5-2.3-1-0.9-1.6c0.6-0.6,0.9-1.9,1-3c0.1-2-0.2-2.9-0.9-4.7
		c-0.1-0.1-0.2-0.2-0.4-0.2l0,0.1c-0.8-0.2-0.6,1.5-1,1.6c-0.4,0.1-0.5,0-0.4-0.7s-1-1.4-1-1.4l0,0c-1,0.1-1,0.3-0.7,1.3
		c0.2,0.6-0.2,1.3-0.9,1.3c-0.4,0-0.6,0.2-0.6,0.6c0,0.3,0,0.6,0.1,0.9c0.1,0.3,0.2,0.5,0.4,0.6c1.3,0.9,1.9,4.1,0.4,9.2
		c-0.7,2.3-0.3,4.5-0.2,6.8c0.2,1.1,1.3,2,0.6,3.3c-0.6,1.1-2.3,0.3-3.3-0.1c-0.4-0.1-0.8-0.2-1.2-0.3c-0.4-0.1-1-0.1-1.3,0.7
		c-0.3,0.8-1,0.4-0.8-0.3c0.1-0.6-0.5-3.3-0.5-3.3l0.1,0.1c-0.7-1.7-0.9-3.9-1-6.3l0,0c0,0-0.3-1.4-1.2-1.1
		c-0.9,0.3-0.5-0.5-0.2-0.6C91,127.5,91,125,91,125l0,0c0.1-2.9,0.3-6.9,0-8.8c-0.5-2.3-3.1-1.9-3.8-0.6c-0.7,1,0.3,3.1,1.2,4.4
		c1.2,1,1,3.6,0.5,2.6c-0.3-0.7-0.9-0.9-1.2-0.9c-0.1,0-0.2,0-0.4,0c0,0-0.1,0.1-0.2,0.4c0,0.1,0,0.6,0,0.9c0.2,1.7-0.4,3.6-0.7,5.3
		l0.1-0.2c0,0,0,0.1-0.1,0.2c-0.1,0.5-0.2,1.1-0.3,1.6c-0.1,1.7-0.2,3.3-0.3,4.9c0.1,0.2,0.2,0.3,0.4,0.4c0.7,0.4,3.1-2.9,2.3-0.2
		c-0.5,1.6-0.8,2.4-1.2,2.9c-0.5,0.5-0.4,2.5-0.4,3.1c0.1,0.3,0.2,0.6,0.4,0.9c0.3,0.4,1.8,2.5,2.9,1.2c0,0,0.5-1,0.4,0.9
		c0,0-0.2,1,0.5,1.7c1,0.3,2.2,0.9,3,1c0.1,0.1,0.4-0.7,0.4-0.8c0,0,0,0,0,0s0.7-2.4,0.7-3.4c0,0,1,1.2,1.3,2.6
		c0.1,0.2,0.1,0.3,0.1,0.5c0,0.1-0.1,1.1,1.4,1.7c0.9,0.3,1.3,0.5,2.3-0.3C101.6,145.8,103.3,146.7,104.8,146.2z"/>
	<path d="M98.2,123.1l0-0.1c-0.1-0.7-0.2-1.4-0.3-2c0.4,0.8,0.6,2.3,0.3,4.5C98.2,124.5,98.2,123.6,98.2,123.1z"/>
	<path d="M86.7,119.2c0.1,0.2,0.2,0.4,0.4,0.6c0.5,0.8,0.6,0.9,0.4,0.9c-0.1,0-0.1,0-0.2,0c-0.2,0-0.4,0-0.6,0.2
		C86.6,120.3,86.7,119.7,86.7,119.2z"/>
	<path class="st4" d="M100.2,80.3"/>
	<g>
		<linearGradient id="SVGID_3_" gradientUnits="userSpaceOnUse" x1="74.217" y1="89.295" x2="66.8598" y2="47.5705">
			<stop  offset="9.520742e-02" style="stop-color:#C3D100"/>
			<stop  offset="0.2611" style="stop-color:#BBCA06"/>
			<stop  offset="0.5207" style="stop-color:#A5B616"/>
			<stop  offset="0.8398" style="stop-color:#809730"/>
			<stop  offset="0.9972" style="stop-color:#6C853F"/>
		</linearGradient>
		<path class="st5" d="M77.4,78.1c1.1,1.5,1.5,0.2,1.7-0.6c0-4,0-8,0-11.9c0,0,0,0,0,0c-0.1-0.3-0.4-0.9-1-0.4
			c-0.5,0.3-0.6,0.2-0.7-0.4s0.7-0.7,0.7-0.7c0.4-0.3,0.6-1,0.8-1.7c0-0.3-0.1-0.5-0.2-0.7c-3.9-4.3,0.3-1.4,0.2-3.2
			c0-0.8-0.2-1.2-0.4-1.6c-0.2-0.5,0.3-1.4,0.3-1.4s0.1-1.2-0.5-1.8s-0.6-1,0-1.4c0.5-0.3,0.6-2,0.6-2.8c0-0.2,0-0.3-0.1-0.5
			c0,0,0,0,0-0.1c0-0.2-0.1-0.4-0.1-0.5c0,0,0,0,0,0c0-0.2-0.1-0.3-0.2-0.5c0,0,0-0.1,0-0.1c-0.1-0.2-0.1-0.3-0.2-0.5
			c0,0,0-0.1-0.1-0.1c-0.1-0.1-0.2-0.3-0.3-0.4c0,0,0,0,0,0c-0.1-0.1-0.2-0.2-0.4-0.3c0,0-0.1,0-0.1-0.1c-0.1-0.1-0.3-0.2-0.5-0.2
			c0,0-0.1,0-0.1,0c-0.2,0-0.4-0.1-0.6-0.1c-0.1,0-0.3,0-0.4,0c0,0,0,0,0,0c-0.4,0-0.9,0.2-1.2,0.5c-0.1,0.1-0.2,0.2-0.2,0.4
			c0,0,0,0,0,0.1c-0.1,0.1-0.1,0.3-0.1,0.4c0,0.1,0,0.1,0,0.2c0,0,0,0,0,0.1c0,0.1,0,0.2,0,0.4c0,0.2,0,0.5,0.1,0.8
			c0,0.2,0.1,0.4,0.1,0.5v0c0,0.1,0,0.1,0,0.2c0,0,0,0.1,0,0.1c0,0.2-0.1,0.4-0.2,0.4c-0.1,0-0.1,0-0.2,0c0,0,0,0,0,0h0
			c-0.1,0-0.2-0.1-0.2-0.2l0,0c0,0,0,0,0,0c-0.1-0.1-0.2-0.2-0.3-0.3c0,0,0,0,0,0l0,0c-0.1-0.1-0.2-0.3-0.3-0.5l-0.4,0.1
			c0,0-0.1,0-0.1,0l0,0c0,0,0,0,0,0c0,0-0.1,0.1-0.1,0.2c0,0,0,0,0,0c0,0,0,0.1,0,0.1c0,0,0,0.1,0,0.1c0,0.1,0,0.1,0,0.2
			c0,0,0,0.1,0,0.1c0,0.1,0,0.1,0,0.2c0,0,0,0,0,0c0,0.1,0,0.2,0,0.3c0,0.1,0,0.3,0,0.4c0,0,0,0,0,0.1c0,0,0,0.1,0,0.1
			c0,0.1,0,0.3,0,0.5c0,0.1,0,0.1,0,0.2c0,0,0,0,0,0.1c0,0.2,0,0.3,0,0.5c0,0,0,0,0,0c0,0.1,0,0.2,0,0.2c0,0.2,0,0.3,0,0.5
			c0,0.1,0,0.1,0,0.2c0,0.2,0,0.5,0,0.7c0,0.1,0,0.2,0,0.3c0,0.2,0,0.3,0,0.5c0,0.1,0,0.2,0,0.4c0,0.2,0,0.4,0,0.5
			c0,0.1,0,0.2,0,0.3c0,0.3,0,0.6,0,0.9c0,1,0.7,1.3,0.8,2.4c0,0.2,0,0.4,0,0.5c0,0,0,0.1,0,0.1c0,0.1,0,0.2,0,0.3c0,0,0,0.1,0,0.1
			c0,0.1,0,0.2-0.1,0.3c0,0,0,0,0,0c-0.1,0.4-0.2,0.6-0.3,1.3c0.2,0.5,0.6,1.2,1.2,1.5c0,0,0.3,0.3,0.6-0.1c0.3-0.4,0.5-0.2,0.1,0.2
			c-0.4,0.4-0.7,0.9-1.3,0.7c-0.1-0.1-0.3,0-0.4,0.1c0.3,0.7,0.8,1.5,1.5,1.7c0,0,1,2.7-0.4,3.6c0,0-0.5,0.9-0.8,1.9c0,0,0,0,0,0
			c0,0.2,0,0.3,0,0.4c0,0,0,0,0,0c0,0.1,0,0.3,0,0.4c0,0.1,0,0.3,0,0.4c0,0.1,0.1,0.1,0.1,0.2c0.6,1.6,1.1,0.4,1.4-0.3
			c0.3-0.7,0.8-1,0.9-0.3c0.1,0.6-0.5,1.8-1.1,2.1c-0.5,0.3-0.8,2.4-0.8,2.4l-0.1-0.1c0,0,0,0,0,0c0,0.2,0,0.4,0,0.6c0,0,0,0,0,0
			c0,0.2,0,0.3,0,0.5c0,0,0,0.1,0,0.1c0,0.2,0,0.3,0,0.4c0,0.1,0,0.1,0,0.1c0,0.1,0,0.3-0.1,0.4c0,0.1,0,0.1,0,0.2
			c0,0.1,0,0.2-0.1,0.3c0,0.1-0.1,0.1-0.1,0.2c0,0.1-0.1,0.2-0.1,0.2c0,0.1-0.1,0.2-0.1,0.3c0,0.1-0.1,0.1-0.1,0.2
			c-0.1,0.1-0.2,0.3-0.3,0.4c-0.5,0.5-0.7-0.6-1.4-0.5c-0.7,0.1,0.5,1.5-0.5,1.6c-0.2,0-0.5,0-0.7,0c0,0,0,0,0,0
			c-0.2,0-0.4-0.1-0.6-0.1c-0.3,0.1-0.9,0.6-1.1,1.9c-0.3,1.9-0.5-0.7-0.5-0.7s0.2-1.2-0.3-2.5c-0.3-0.3-0.5-0.7-0.6-1.1
			c-0.1-0.3-0.2-0.6-0.3-0.9c0-0.1-0.1-0.2-0.1-0.3c-0.1-0.2-0.1-0.5-0.2-0.7c0-0.1,0-0.3-0.1-0.4c0-0.2-0.1-0.5-0.1-0.7
			c0-0.1,0-0.3,0-0.5c0-0.2,0-0.5-0.1-0.7c0-0.1,0-0.3,0-0.5c0-0.3,0-0.5,0-0.8c0-0.1,0-0.3,0-0.4c0-0.3,0-0.6,0-0.9
			c0-0.1,0-0.2,0-0.3c0-0.3,0-0.7,0.1-1c0-0.1,0-0.1,0-0.2c0-0.4,0.1-0.8,0.1-1.2c0,0,0,0,0,0c-0.1-0.7-0.4-1.9-0.4-1.9
			c-0.4-0.6,0-1,0-1c0.7-0.5,1-2.6,1-2.6l0,0c0-0.3,0.1-0.5,0.1-0.8c0,0,0-0.1,0-0.1c0-0.3,0-0.5,0.1-0.7c0-0.3,0-0.6,0.1-1
			c0-0.1,0-0.2,0-0.3c0-0.3,0-0.5,0-0.8c0-0.1,0-0.2,0-0.3c0-0.7,0.1-1.5,0.1-2.2c0,0,0,0,0,0c-0.3-0.1-1.1,1.1-1.3,1.2
			c-0.2,0.2-0.3-0.2-0.3-0.3c0.2-0.7,0.5-1.2,0.5-1.2c0.7-0.7,1-1.6,1.1-2.2c0-0.3,0-0.7,0-0.9c0,0,0-0.1,0-0.1c0-0.3,0-0.5,0-0.8
			c0-0.1,0-0.2,0-0.3c0-0.1,0-0.1,0-0.2c0-0.1,0-0.1,0-0.2c0,0,0-0.1,0-0.1c0,0,0-0.1,0-0.1c0,0,0,0,0,0c0,0,0-0.1,0-0.1
			c0,0,0,0,0,0c0,0,0,0,0,0c0,0,0,0,0,0c0,0,0,0,0,0c0,0,0,0.1,0,0.1c0-0.1,0-0.2,0-0.3c0,0,0,0,0,0c0,0,0,0,0-0.1
			c0-0.3,0-0.5,0-0.8c0,0,0,0,0,0c0-0.3-0.1-0.6-0.2-0.9c0,0,0,0,0,0c-0.1-0.4-0.4-0.7-0.8-0.8c0,0,0,0,0,0
			c-1.1,0.7-0.6,1.6-0.6,1.6C65.5,52,65,52.2,65,52.2c0.1-1.1-0.2-1.7-0.6-2c0,0,0,0,0,0c-0.1,0-0.2,0-0.3,0c-0.1,0-0.2,0-0.2,0
			c-0.1,0-0.2,0-0.3,0.1c-0.1,0-0.1,0-0.2,0c-0.2,0-0.3,0.1-0.5,0.2c0,0,0,0,0,0c-0.1,0-0.1,0.1-0.2,0.1c0,0-0.1,0-0.1,0
			c-0.1,0-0.1,0.1-0.1,0.1c0,0,0,0,0,0c-0.1,0.1-0.2,0.2-0.2,0.2c0,0,0,0,0,0c0,0,0,0.1-0.1,0.1c0,0,0,0,0,0
			c-0.2,0.7,0.7,1.5,1.1,2.1c0,0,0,0,0,0.1c0,0,0,0.1,0.1,0.1c0,0.1,0,0.1,0.1,0.2c0,0,0,0,0,0.1c0,0,0,0.1,0,0.1c0,0,0,0,0,0.1
			c0,0,0,0.1,0,0.1c0,0,0,0,0,0c0,0,0,0.1-0.1,0.1c0,0,0,0,0,0c0,0-0.1,0.1-0.1,0.1c0,0,0,0-0.1,0c-0.1,0-0.1,0.1-0.2,0.1
			c-0.2,0-0.3,0.1-0.4,0.1c-0.1,0-0.2,0.1-0.3,0.1c-0.1,0-0.1,0.1-0.2,0.1c0,0,0,0,0,0c-0.1,0-0.1,0.1-0.1,0.1c0,0,0,0,0,0
			c0,0-0.1,0.1-0.1,0.1c0,0,0,0,0,0c0,0,0,0.1,0,0.1c0,0,0,0,0,0c0,0,0,0,0,0c0,0.1,0,0.1,0,0.2c0,0,0,0,0,0c0,0,0,0,0,0
			c0,0.1,0,0.1,0.1,0.2c0,0,0,0,0,0c0,0.1,0.1,0.1,0.1,0.2c0,0,0,0,0,0c0.1,0.1,0.2,0.3,0.3,0.4c0.1,0.1,0.2,0.1,0.2,0.2
			c0,0,0,0,0.1,0.1c0,0,0,0,0.1,0.1c0,0,0,0,0.1,0.1c0,0,0,0,0,0c0,0,0,0,0,0.1c-0.1,0-0.1,0-0.1,0.1c0,0-0.1,0.1-0.1,0.1
			c0,0,0,0,0,0.1c-0.1,0.1-0.1,0.3-0.2,0.6c0,0.1-0.1,0.2-0.1,0.3c0,0.1-0.1,0.3-0.1,0.4c0,0,0,0.1,0,0.1c0,0.6,0.2,2,0.9,2.3
			c0,0,2.2,0.7-0.1,1.1c0,0-1.4,0-0.9,1L62,62.7c0.3,0.5,0.6,1,0.7,1.4c0.2,0.7-0.3,1.8-0.4,2c-0.1,0.2-0.6,1.9-0.8,2.7
			c0,0,0,0,0,0.1c0,0.9-0.1,1.8-0.1,2.7c0,0.6-0.1,1.2-0.1,1.8c0,0.1,0,0.3,0,0.4c-0.1,1.2-0.1,2.4-0.1,3.5c0,0.1,0,0.2,0,0.3
			c0,0.6,0,1.1,0,1.6c0,0,0,0,0,0c0.2,0.7,0.5,2.1,0.8,1.1c0,0,0.5-0.1,0.5-0.7s0.6-0.3,0,1.3c0,0-1,0.7-1.2,1.6c0,0,0,0,0,0
			c0,0.2,0,0.4,0.1,0.6c0,0,0,0,0,0c0.1,0.5,0.1,0.9,0.3,1.2c0,0.1,0,0.1,0.1,0.2c0,0.1,0.1,0.1,0.1,0.1c0,0.1,0.1,0.1,0.1,0.1
			c0,0,0,0,0.1,0.1c0,0,0.1,0.1,0.1,0.1c0,0,0,0,0.1,0c0.1,0,0.2,0,0.2-0.1c0,0,0,0,0,0c0,0,0.1,0,0.1-0.1c-0.1-0.2-0.1-0.4,0.2-0.4
			c1.6-0.1,0.4-1,1.3-1.8c0.9-0.8,0.2,0.2,0.2,0.2l0.1,1c-0.2,0.5,0.8,3.2,1,3.7c0,0,0,0,0,0c0.1,0.2,0.1,0.3,0.2,0.4
			c0,0,0,0.1,0.1,0.1c0.1,0.1,0.1,0.2,0.2,0.2c0,0,0.1,0.1,0.1,0.1c0.1,0.1,0.1,0.1,0.2,0.2c0,0,0.1,0.1,0.1,0.1
			c0.1,0,0.2,0.1,0.2,0.1c0,0,0.1,0,0.1,0c0.2,0.1,0.5,0.1,0.8,0.2c0,0,0,0,0.1,0c0.1,0,0.2,0,0.4,0c0,0,0.1,0,0.1,0
			c0.1,0,0.2,0,0.4,0c0,0,0,0,0.1,0c0.8-0.1,1.7-0.4,2.4-0.5c0.4-0.4,1-1,1.1-2.1l-0.1-1.2c0,0,1.1,0.5,0.4,2.5l0.2,0.9
			c0.2,0.3,0,0.8,0.2,1c0,0,0,0,0,0c0,0,0.1,0,0.1,0c0,0,0,0,0,0c0,0,0.1,0,0.2,0c0,0,0,0,0,0c0.1,0,0.1,0,0.2,0c0,0,0.1,0,0.1,0
			c0.1,0,0.1,0,0.2-0.1c0,0,0.1,0,0.1,0c0.1,0,0.2-0.1,0.4-0.2c1.1-0.5,1.1-0.6,1.7-1.6c0.1-0.1,0.1-0.2,0.1-0.3c0,0,0-0.1,0-0.1
			c0-0.1,0-0.2,0-0.2c0,0,0-0.1,0-0.1c0-0.1,0-0.2,0-0.2c0,0,0-0.1,0-0.1c0-0.1,0-0.2-0.1-0.3c0,0,0,0,0,0c-0.3-0.3-0.7-0.8-1.4-1.1
			c-1.2-0.6-0.6-2-0.6-2s0.2-1,0.4,0.7c0,0,1.7,1.3,2.5,0.7l1-0.7c0.2-0.2,0.4-0.4,0.6-0.7c0,0,0,0,0,0c0.2-0.2,0.4-0.5,0.6-0.7
			c0,0,0,0,0,0c0.6-2.2-0.4-1.5-1.1-3.1C76.6,77.7,77.4,78.1,77.4,78.1z M74.2,51.6c-0.2,0-0.8-0.6-0.8-0.9c0-0.2,0.5,0.4,0.7,0.3
			c0.2,0,0.6-0.8,0.6-0.6C74.7,50.7,74.4,51.5,74.2,51.6z M62.5,78.8c-0.1,0-0.2-0.2-0.2-0.3s0.1-0.3,0.2-0.3s0.2,0.2,0.2,0.3
			S62.7,78.8,62.5,78.8z M64.4,54.7c-0.2,0.2-0.4,0.4-0.7,0.4c-0.2,0-0.5,0-0.7-0.1c0.4-0.1,0.8-0.3,0.9-0.6C64,54.3,64,54.2,64,54
			c0-0.2-0.1-0.4-0.1-0.6c0.2,0.1,0.4,0.2,0.6,0.4C64.6,54.1,64.6,54.4,64.4,54.7z M66.1,80.2c-0.3-0.3-0.5-0.8-0.6-1.2
			c-0.1-0.4-0.2-0.9-0.2-1.3c0-0.4,0.1-0.9,0.2-1.3c0.2,0.8,0.3,1.7,0.5,2.4c0.1,0.4,0.2,0.8,0.4,1.1c0.2,0.3,0.4,0.6,0.8,0.9
			C66.9,80.8,66.5,80.5,66.1,80.2z M70.9,84.7c-0.1,0-0.2-0.2-0.2-0.5c0-0.3,0.1-0.5,0.2-0.5s0.2,0.2,0.2,0.5
			C71.2,84.5,71.1,84.7,70.9,84.7z M78.4,78.2c0.1-0.3,0.1-0.7,0.1-1l0-1.1c0-0.4,0-0.7,0.1-1.1c0.2,0.7,0.2,1.4,0.2,2.1
			c0,0.4,0,0.7-0.2,1.1c0,0.1-0.2,0.2-0.3,0.2c-0.1,0-0.2-0.1-0.3-0.2c-0.1-0.2-0.2-0.3-0.3-0.5c0.1,0.1,0.2,0.3,0.4,0.4
			C78.3,78.3,78.3,78.3,78.4,78.2z M75.4,47.2c0.2-0.3,0.5-0.4,0.8-0.5c0.3-0.1,0.7-0.1,1,0.1c0.3,0.2,0.5,0.5,0.7,0.8
			c0.1,0.2,0.1,0.3,0.2,0.5c0,0.2,0.1,0.3,0.1,0.5c-0.2-0.3-0.3-0.5-0.5-0.8c-0.2-0.2-0.4-0.5-0.6-0.6C76.6,46.8,76,47,75.4,47.2z
			 M76.7,65.1c0.2-0.3,0,0.8,0.3,0.9s1.2-0.5,1-0.2c-0.2,0.3-1.1,0.8-1.4,0.7C76.4,66.4,76.6,65.4,76.7,65.1z M77,77.7
			c-0.2,0-0.4-0.2-0.4-0.4c0-0.2,0.2-0.4,0.4-0.4c0.2,0,0.4,0.2,0.4,0.4C77.4,77.5,77.2,77.7,77,77.7z"/>
	</g>
	<path d="M92.4,51.3"/>
	<path class="st6" d="M91.4,50.3"/>
	<path class="st6" d="M92.1,49.4"/>
	<path d="M123.3,62.3"/>
	<linearGradient id="SVGID_4_" gradientUnits="userSpaceOnUse" x1="120.0154" y1="88.3969" x2="127.2378" y2="47.4366">
		<stop  offset="0" style="stop-color:#C3D100"/>
		<stop  offset="1" style="stop-color:#6C853F"/>
	</linearGradient>
	<path class="st7" d="M134.8,81.7c-0.1-0.7-0.3-1.3-0.5-1.3c-0.7-0.1-2.8,3-1.2,0.2c0.7-1.2,1.4-1.3,1.4-2.7l0-0.4
		c0-0.3-0.1-0.6-0.1-0.9c0,0.3,0,0.5,0,0.5s0-0.3,0-0.8c-0.1-0.4-0.1-0.8-0.2-1.2c0,0,0-0.1,0-0.1c0-0.1,0-0.3,0-0.5
		c-0.3-1.9-0.9-4.2-2.3-4.7c-2.3-0.8,0-1.6,0-1.6s1.5,0.7,2.6-3c-0.2-0.4-0.3-1.1-0.2-2.2c0.1-3.5-1.4-1.8-2-1.9
		c-0.6-0.1-1-1.9,0.5-1.2c0.9,0.4,1.4-1.8,1.6-3.9c-0.2-0.6-0.5-0.7-0.5-0.7c-1.4-0.2-1.7-1.2-1.9-1.7c0-0.1,0-0.1-0.1-0.2
		c0,0-0.1,0-0.1-0.1l-0.4-0.4c-0.4,0.3-0.7,0.7-0.7,0.7c-0.2,0.3-0.5,0.5-0.8,0.5c-0.1,0-0.3,0-0.4-0.1c-0.2-0.1-0.3-0.1-0.3-0.1
		c-0.1,0-0.3,0.2-0.5,0.5c0,0,0,0,0,0.1c0.1,0.5,0.4,2.6,1.2,3.1c0,0-0.8-0.6-2.2,0.6l-0.1-0.1c0,0.8,0.1,2.1,0.4,4.1
		c0,0.1,0,0.3,0,0.4c-0.2,0.7-0.7,1.1-1.4,1.1c-1,0-1.9-1-2.5-1.9c-0.6-1-0.7-2-0.3-2.7c0.1-0.1,0.1-0.4-0.1-0.8
		c-0.1-0.2-0.4-0.6-1.1-0.7c-0.1,0-0.1,0-0.2,0c-0.4,0-0.8,0.2-1.2,0.4c-0.4,0.2-0.7,0.4-1.2,0.4c-0.2,0-0.3,0-0.5-0.1
		c-0.3,0.1-0.6,0.5-0.6,1.4c0,1.9-0.7,0.7-0.7,0.7c0-0.1,0-0.2,0-0.3l0,0.1c0,0-0.2-3.1-1.2-3.7c-0.8-0.5-1.3-2.5-0.9-2.3
		c0.5,0.2,1.7,1.7,2.1,0.9c0.1-0.6,0.2-0.9,0.2-0.9l0,0c0-0.3,0.1-0.6,0.1-0.9c0.1-0.8,0.2-1.6,0.2-2.2c0,0,0,0,0,0c0,0,0,0,0-0.1
		l-0.1,0.1c-0.2-1.4-0.9-1.6-1.4-1.6s-0.5-0.9,0.3-1.2c0.4-0.1,0.4-0.6,0.3-1c-0.1-0.2-0.3-0.4-0.6-0.6c-0.2-0.2-0.4-0.2-0.4-0.2
		c-0.1,0-0.2,0.1-0.4,0.1c-0.3,0.1-0.6,0.3-1.1,0.3c-0.1,0-0.2,0-0.3,0c-0.7-0.1-1.1-0.6-1.4-1c-0.3-0.4-0.4-0.5-0.6-0.5
		c-0.3,0.1-0.8,1-1.1,5c-0.1,1-0.1,1.7-0.3,2.2c0,0,0,0.1,0,0.1c-0.3,0.8-0.4,2.1,0.5,3.5c0,0,0,0.1,0.1,0.1
		c0.6,0.1,1.6-0.2,1.7-2.4c0,0,0.9-2.5,0.3,2.2c0,0-0.8,3.7-1.5,4.5c0,0,0,0.1,0,0.1c0.1,0.6,0.4,3,0.9,3.7c0.6,1-1.7,2.1-1.8,3.4
		c0,1,0.1,1.9,0.1,2.9c0.2,0.5,0.6,0.9,1.3,0.9c2.9,0.1,0.6,2.3-0.6,2.6c-0.2,0.1-0.4,0.3-0.5,0.6c0,1.2,0,2.1-0.3,2.7
		c0,0.9,0,1.9-0.3,2.6c-0.1,0.3-0.2,0.7-0.3,1c0.2,0.6,0.4,1.2,0.7,1.7c0.2-0.1,0.9-0.3,0.9-0.7c0-0.5,0.6-2.2,0.5,1.1
		c0,0-0.1,0.6-0.2,1.3c0.8,1.1,1.2,1.9,1.6,3.3l0.6,0.1c0.2,0,0.6-0.5,0.8-1.4c0.2-0.9,0.3-3,0.4-5.1l-0.5-1.2c0,0,0.6-1.9-0.4-2.3
		c-0.6-0.2-0.9-1,0-1.4c0.7-0.2,1.1-1.3,1.3-2.1c0.1-0.4,0.1-0.7,0.2-1c0,0,0-0.1,0-0.1l0,0c0.1-0.6,0.3-1,0.6-1.3
		c0.4-0.8,1.3-2.4,1.6-3.6c0.1-0.4,0.2-0.7,0.2-0.7c0,0.2-0.1,0.4-0.2,0.7c-0.2,0.8-0.3,2.1,0.3,2.8c0.1,0.1,0.3,0.1,0.4,0.2
		c0.3,0.3,0.3,0.7,0.3,1.1c0,0.5-0.1,1.8,0.8,4c0.4,0.6,0.5,1.2,0.6,1.7c0.1,0.8,0.2,1.1,1.5,1.6c0.6-0.2,1-0.4,1.3-0.7
		c0.2-0.7-0.5-1.4-0.7-2.3c-0.4-1.9,0.8-0.6,0.8-0.6c0,0.5,0.7,0,1.1-0.4c0-0.3,0.1-0.6,0.1-1l-0.1,0c0,0,0-0.1,0.1-0.2
		c0-0.1,0-0.1,0-0.2c0-0.1,0-0.2,0.1-0.3c0.1-0.6,0-1.6-0.8-2.9c0,0,0.4-0.4,1.4,1.8l0.6,0.6c0.1,0,0.1,0.1,0.2,0.1
		c3,1.8,2.5,6.8,2.1,10.9c-0.1,1.1-0.2,2.1-0.2,2.8l0,0.1c0,1.1,0.1,2.1,0.8,2.4c0,0,0,0,0,0c0.8-0.6,1.7-1.5,1.8-2.2
		c0.1-1.1,0.8-0.3,1.2,1.4c0.1,0.5,0.4,0.8,0.7,0.9c0.1,0,0.2,0,0.2,0c0,0,0.1,0,0.1-0.1c0.1-0.1,0.2-0.1,0.4-0.2
		c0.1-0.1,0.1-0.2,0.2-0.6l0-0.2l0.1-0.5C134.9,86.3,134.9,84,134.8,81.7z M117.1,53c0.2,0.1,0.1,0.1,0.3,0c0.1-0.1,0.2-0.1,0.3-0.3
		c0.1-0.1,0.1-0.3,0.1-0.5c0.2,0.1,0.3,0.3,0.3,0.6c0,0.3-0.2,0.5-0.4,0.7c-0.1,0.1-0.2,0.1-0.4,0.1c-0.2,0-0.3-0.2-0.4-0.3
		c-0.1-0.2-0.2-0.4-0.2-0.6C116.8,52.8,117,52.9,117.1,53z M115.9,84.5c0.5-1-0.2,2.2-0.5,2.2c-0.3,0-2.1-3.3-1-2.4
		C115.5,85.3,115.4,85.5,115.9,84.5z M114.8,47.7c-0.3,0-0.6-0.2-0.8-0.4c-0.2-0.2-0.4-0.4-0.5-0.5c0,0,0,0-0.1,0.1
		c0,0.1-0.1,0.2-0.1,0.3c-0.1,0.5-0.1,1.1-0.1,1.6c0,0.5-0.1,1.1-0.2,1.6c0.1-1.1-0.2-2.2,0-3.3c0-0.1,0-0.3,0.1-0.5
		c0-0.1,0.1-0.2,0.2-0.2c0.1-0.1,0.3-0.1,0.4-0.1c0.4,0.1,0.5,0.4,0.7,0.6c0.3,0.4,0.7,0.6,1.3,0.3
		C115.5,47.5,115.2,47.7,114.8,47.7z M118.7,62.8c-0.2,0-0.3-0.2-0.4-0.4c0-0.1,0-0.2,0-0.3s0-0.2,0-0.3c0.1-0.2,0.2-0.4,0.4-0.4
		c0.3,0,0.5,0.3,0.5,0.7S119,62.8,118.7,62.8z M129.8,55.8c-0.3,0-0.5-0.2-0.5-0.5c0-0.3,0.2-0.5,0.5-0.5s0.5,0.2,0.5,0.5
		C130.3,55.5,130.1,55.8,129.8,55.8z M127.3,65.9c-0.6-0.2-1-0.7-1.1-1.2c0.5,0.3,0.9,0.5,1.3,0.6c0.4,0.1,0.8,0,1.1-0.2
		c0.3-0.2,0.4-0.6,0.5-1.1c0.1-0.5,0.1-1,0.2-1.5c0.2,0.5,0.4,1,0.4,1.6c0,0.3,0,0.6-0.1,0.9c-0.1,0.3-0.3,0.6-0.5,0.8
		C128.5,66,127.8,66.1,127.3,65.9z M131,79.4l-0.2,1L131,79.4l-0.1-1.1c0-0.7-0.1-1.4-0.3-2.1c-0.2-0.7-0.4-1.3-0.8-1.9
		c-0.4-0.6-0.8-1.1-1.4-1.5c0.7,0.2,1.2,0.8,1.6,1.4c0.4,0.6,0.7,1.3,0.8,2c0.2,0.7,0.2,1.4,0.2,2.1C131.1,78.7,131,79,131,79.4z"/>
	<g>
		<path d="M162.7,88.3c-0.7-6.7-1.6-11.7-1.6-11.7l0-0.1c0,0-0.8-2.5-1.5-4.7c-0.2-0.5-0.2-1-0.3-1.4c-0.2-0.6-0.5-1.2-0.8-2.5
			c-0.6-3-1-6.6-1-6.6s0.3-1.1,0-1.5c-0.3-0.4-2.1,0.1-1.4,0.6s0.1,1.8,0.1,1.8c-1.9,1.1-3.1,0.1-3.7-0.7c-0.1-0.3-0.2-0.7-0.2-0.9
			c-0.3-1.3-0.1-4.4,0.1-4.5s1.1-1.3,0-1.8c-1-0.5-2.6-0.8-1.8,1.6c0.4,1.3,0.1,6.2,0.1,6.2l-0.4,3.7c0,0.4,0,0.9,0,1l0.1,1l0.5,9.2
			c0.8,6.3,0.1,6.6-0.6,6.9c0,0,0,0,0,0c-0.1,0-0.1,0-0.2,0c-0.2,0-0.4,0-0.5-0.2c-1.5-1.5-0.8-9.3-0.5-12.6c0.1-1.5,0.2-2.8,0.2-4
			c0.2-3.3-0.6-9.4-0.6-9.4s0.1-4.4,0.4-5.4c0.4-1.3-1-1.8-1.3-1.6c-0.5,0.3-0.4,1.6-0.1,2c0.6,0.5-0.6,4-0.6,4
			c-1.8,1.3-3.5-1-4.1-2c-0.3-1-0.5-2.1-0.4-3.1c0.1-1.4,0.2-4.9,0.4-5c0.2-0.1,1.2-1.3,0-1.8c-1-0.5-2.7-0.7-1.9,1.6
			c0.5,1.3,0.1,6.2,0.1,6.2l-1.2,6.8c-0.2,0.5-0.1,3.9-0.1,4l0,2c-0.1,1.8-0.5,20.2,0.8,23.4c1.3,3.2,3.3,3.9,6.8,4.8
			c1.6,0.4,2.9,0.6,4.2,0.6c1.3,0,2.6-0.2,4.3-0.3l1-0.1c3-0.3,5-1.2,5.8-2.7C163.1,89.9,162.8,88.8,162.7,88.3z M158.5,88.5
			c-0.3,0.4-0.7,0.9-0.9,1.5c-0.1,0.2-0.3,0.5-0.4,0.7c0,0.1-0.1,0.2-0.1,0.3c-0.2,0.2-0.3,0.2-0.3,0.2c-0.1,0-0.1,0-0.2,0
			c-0.2,0-0.5,0-0.9,0.1c0,0-0.1,0-0.1,0c0,0-0.2,0-0.4,0c-0.3,0-0.5-0.1-0.6-0.1c-0.1-0.2-0.2-0.3-0.3-0.5c-0.8-0.7-1.6-1-2.5-1
			c-0.9,0-1.6,0.3-2.3,0.6c-0.7,0.3-1.3,0.5-1.9,0.5c-0.3,0-0.5,0-0.8-0.1c-0.6-0.3-0.7-1,0-1.8c0.7-0.9-1.4-1.5-1-0.1
			c0.2,0.9-0.1,1.2-0.4,1.3c-1.1-0.3-2.3-2.3-3.1-6.4c-0.2-1.1-1-5.6,0.3-5.8c1.5-0.2,0.6-1.7-0.1-2.3c-0.4-0.4-0.9-2.2-1.2-3.4
			c0.1-0.3,0.1-1,0.4-0.6c1.8,2.2,1,0,0.1-0.5c-0.4-0.2-0.6-0.7-0.6-1.1c0.1-0.6,0.3-1.4,0.6-1.4c0.5-0.1,0.9-1,0.2-1.3
			c-0.4-0.2-0.7-0.7-0.8-1.2c0.1-2.1,0.2-3.5,0.4-3.8c0-0.1,0.1-0.2,0.1-0.3c0-0.5,0.2-1.3,0.4-1.9l0.2,0c0.1,0.2,0.2,0.5,0.2,0.6
			c0.2,0.7,0.5,1.9,1.8,1.9c0.1,0,0.2,0,0.3,0c0.1,0,0.3-0.1,0.4-0.1c0,0,0.1,0,0.1,0c0.2,0.4,0.5,0.8,0.7,1.2
			c0.1,0.3,0.2,0.6,0.2,0.8c0.1,0.4,0.3,0.8,0.2,1.9c-0.1,0.7-0.1,1.3-0.2,1.8c0-0.3,0-0.5,0-0.5l0,0.7c0,0.2,0,0.4,0,0.6
			c-0.1,1.1-0.4,2.3-1.3,0.6c-0.4-0.7-1.4,0.4,0.5,1.7c0.4,0.3,0.5,0.6,0.6,0.9c-0.1,0.9,0,1.5,0.1,2.3c0.1,0.9,0.3,1.9,0.2,3.8
			c0,0,0,0.1,0,0.1c0,0.5,0.1,1.1,0.1,1.7c0,0.4,0,0.7,0,1.1l-0.2,2.6c-0.8,1.4-0.4,1.9-0.4,1.9c0.4-1.3,0.9-1.4,1.2-1.4
			c0.6,1.3,1.6,2.4,3.7,2.8c1.1,0.3,3.7,1.2,4,2.1c0,0.1,1,0.3-0.6-2.4c-0.5-0.8-0.5-1.9-0.5-2.6c0.5-0.8,0.6-1,0.6-1
			c0.2-0.3-0.1-1.4-0.3-1.8c0.1-0.5,0.2-0.8,0.3-1c0.4-0.4,0.5-0.9,0.6-1.7c0,0,0,0,0,0l0,0c0.1-0.2,0.1-0.4,0.2-0.7
			c0-0.1,0-0.2,0-0.3c0-0.1,0.1-0.2,0.2-0.2c-0.1-0.1-0.2,0.1-0.3,0.2c0,0.1-0.1,0.2-0.1,0.3c-0.1,0.1-0.1,0.3-0.2,0.4
			c-0.2,0.1-0.5,0.3-0.8,0.2c-0.4-0.1-0.7-1.1-0.9-3.3c0-0.3,0-0.4-0.1-0.5c0-0.9,0.1-1.8,0.4-2.6c0.1-0.2,0.1-0.4,0-0.6
			c-0.4-1.2-0.3-1.7-0.1-2.7c0.1-0.4,0.1-0.8,0.2-1.3c0-0.4,0.1-0.7,0.2-0.8c0.6,0.4,1,0.5,1.2,0.6c0.1,0,0.1,0,0.2,0.1
			c0.1,0.1,0.2,0.2,0.3,0.3c0,0,0,0,0,0l1.7,2.3l0.1,0.2c0.8,1.1,1.2,1.8,0.7,2.9c-0.4,0.6-0.6,1.1-0.5,1.7c0.1,0.8,0.7,1.2,1.1,1.5
			c0.4,0.3,0.6,0.5,0.6,0.7c0.1,1,0,1.3-0.1,1.8c-0.1,0.4-0.2,1-0.2,2.1c-1.1,3.1-0.9,4.7,0.8,5.4C159.2,87.6,158.9,88,158.5,88.5z"
			/>
		<path d="M144.9,66.5c0.1,0.1,0.3,0.1,0.4,0.2c0.1,0.1,0.1,0.2,0.1,0.3c0,0.3-0.1,0.7-0.1,1c0.2-0.3,0.4-0.6,0.5-1
			c0.1-0.2,0.1-0.5-0.1-0.7c-0.2-0.2-0.3-0.3-0.5-0.4c-0.3-0.1-0.4-0.3-0.5-0.6c-0.1-0.3-0.1-0.6-0.2-1c-0.2,0.3-0.2,0.7-0.2,1.1
			c0,0.2,0.1,0.4,0.2,0.6C144.5,66.2,144.7,66.4,144.9,66.5z"/>
		<path d="M142.3,64c-0.2,0-0.6,0.1-0.6,0.4c0,0.7,0.4,0.8,0.3,0.6c-0.2-0.6,0.4-0.5,0.7-0.5C143,64.5,142.5,64,142.3,64z"/>
		<path d="M154.9,90c-0.1,0.1-0.7-0.2-0.6,0s0.9,0.7,1,0.6c0.1-0.1,0.1-1,0-1.2C155.2,89.3,155.1,90,154.9,90z"/>
		<path d="M153.6,68.1c-0.2-0.1-0.4,1.8-0.4,1.8c0,0.3,0,0.3,0.2,0.8s0.5-0.4,0.4-1.1c-0.1-1.1,1.3-0.8,1.3-0.8
			C154.5,68.2,153.9,68.2,153.6,68.1z"/>
		<path d="M142.6,83.6c-0.2-1.1-0.4-2.2-0.5-3.3c0,1.1,0.1,2.2,0.3,3.3c0.1,0.5,0.2,1.1,0.4,1.6c0.2,0.5,0.4,1.1,0.9,1.4
			c-0.4-0.4-0.6-0.9-0.7-1.4C142.9,84.7,142.8,84.2,142.6,83.6z"/>
		<path d="M158,79.9c0.1-0.2,0.2-0.5,0.3-0.7c0-0.3,0.1-0.5,0.1-0.8c-0.1-0.5-0.3-1.1-0.8-1.3c0.4,0.4,0.6,0.8,0.6,1.3
			C158.2,78.9,158.2,79.4,158,79.9z"/>
		<path d="M158.4,87.3c0,0.2,0,0.3-0.1,0.7c0.2,0,0.3-0.1,0.4-0.3c0.1-0.2,0.1-0.4,0-0.5c-0.2-0.3-0.4-0.5-0.7-0.5
			C158.2,86.9,158.3,87.1,158.4,87.3z"/>
		<path d="M153.3,75.4c0-0.3,0-0.5,0.1-0.8c0-0.5,0.1-1.1,0.2-1.6c-0.2,0.5-0.3,1.1-0.3,1.6C153.2,74.9,153.2,75.2,153.3,75.4
			c-0.1,0.3,0,0.6,0.1,0.8C153.3,76,153.3,75.7,153.3,75.4z"/>
		<ellipse cx="153.5" cy="76.8" rx="0.2" ry="0.3"/>
	</g>
	<linearGradient id="SVGID_5_" gradientUnits="userSpaceOnUse" x1="70.3784" y1="142.9082" x2="70.3784" y2="99.3201">
		<stop  offset="2.801804e-03" style="stop-color:#6C853F"/>
		<stop  offset="0.241" style="stop-color:#899E2A"/>
		<stop  offset="0.5542" style="stop-color:#A9BA13"/>
		<stop  offset="0.8185" style="stop-color:#BCCB05"/>
		<stop  offset="1" style="stop-color:#C3D100"/>
	</linearGradient>
	<path class="st8" d="M78.8,118.8c0.8,0.3,1.1-0.3,1.3-0.6c0-0.1,0.1-0.2,0.1-0.4c0.2-6.8-1.1-8.1-2.4-9.5c-1.1-1.1-2.4-2.4-2.9-6.1
		c0,0-0.1-0.1-0.1-0.1c-1.3-0.8-2.1-1.2-2.4-1.3c0,0,0,0-0.1,0c-0.1,0.2-0.3,0.6-0.6,1.1c-1,2-1.4,1.3-1.1,0.5
		c0.2-0.5-0.2-1.5-0.4-2.1c0,0,0,0,0,0c0,0,0-0.1-0.1-0.1c0,0-0.1-0.1-0.1-0.1c0,0,0-0.1-0.1-0.1c0,0,0-0.1-0.1-0.1
		c0,0,0-0.1-0.1-0.1c0,0,0,0-0.1-0.1c0,0,0,0-0.1-0.1c0,0,0,0-0.1-0.1c0,0-0.1,0-0.1-0.1c0,0-0.1,0-0.1,0c0,0-0.1,0-0.1,0
		c0,0-0.1,0-0.1-0.1c0,0-0.1,0-0.1,0c-0.1,0-0.2-0.1-0.3-0.1c-0.1,0-0.2-0.1-0.3-0.1c-0.9,0-2.4,1.1-2.4,2.8c0,0.1,0,0.3,0,0.4
		c0.1,0.6,0.4,1.3,0.4,2.5c-0.1,2.3-0.5,2.7-0.5,2.7c-0.8-2.7-2.2-1.6-2.7-1.1c-1,1.3-1.4,2.1-0.9,2.6c0.4,0.4,0.4,1,0.1,1.4
		c-1,1.1-1.6,3.7-1.7,6.9c0.1,1,0.3,2,1.1,2.2c0,0,0.9,1.8-0.2,3.1c-0.5,0.6-0.6,1.6-0.5,2.5c0.1,0.7,0.2,1.4,0.4,2.1
		c0,0.1,0.1,0.2,0.1,0.2l0,0c0.3,1.3,0.6,2.5,1,3.7c0.3,0.9,0.9,2.2,1.6,2.4c1.1,0.3,1.9,1.4,1.5,2.2c-0.3,0.6-0.1,1.9,0,2.5
		c0.6,1.1,1.7,1.9,3,2.8c0.6,0.4,1.2,0.8,1.7,1.3c0.3,0.2,0.7,0.3,1.3,0.3c0.2,0,0.3,0,0.5,0c0.1-0.1,0.2-0.2,0.3-0.3l-0.1-0.4
		c0-0.1,0-0.2,0-0.3c0-0.2-0.1-0.5-0.1-0.7c0-0.6,0.3-1.2,0.2-1.4c0-0.2,0.3,0.1,0.6,0.7c0.4,0.6,0.5,0.4,0.5,0.4l-0.1,0.1
		c0.3,0.1,0.5,0.2,0.7,0.5c0.2,0.3,0.3,0.4,0.4,0.5c0,0,0,0,0,0c0.1-0.1,0.1-0.1,0.2-0.2c4.8-5.3,6.3-12.1,5.2-16
		c-0.5-1.7-0.5-2.9-0.4-4l-0.1,0.1c0,0-0.5-0.9-1.2-2.3c-0.7-1.4,0.4-2.6,0.3-1.6S78.8,118.8,78.8,118.8z M72.7,110.7
		c0-0.5,0.2,0.2,0.4,0.7c0.2,0.5,0.7,0.8,1.3,1c0.7,0.2-0.1,0.4-0.1,0.4C72.6,113.4,72.7,110.7,72.7,110.7z M69.7,104.1
		c0.3,0,0.5,0.2,0.5,0.4S70,105,69.7,105c-0.3,0-0.5-0.2-0.5-0.4S69.4,104.1,69.7,104.1z M67.8,100.2c0.3-0.2,0.6-0.3,0.9-0.2
		c0.3,0,0.6,0.2,0.8,0.4c-0.3-0.1-0.5-0.1-0.8-0.1c-0.3,0-0.5,0.1-0.7,0.2c-0.5,0.3-0.8,0.7-1.2,1.1
		C66.9,101.1,67.3,100.6,67.8,100.2z M64.1,112c0.1-0.2,0.2-0.3,0.5-0.4c0.1,0,0.3,0,0.4,0.1c0.1,0.1,0.1,0.2,0.2,0.3
		c0.1,0.2,0.1,0.4,0,0.6c-0.1-0.1-0.2-0.3-0.3-0.4c-0.1-0.1-0.2-0.2-0.2-0.1c-0.1,0-0.2,0.1-0.3,0.2c-0.1,0.1-0.2,0.2-0.4,0.4
		C64,112.4,64,112.2,64.1,112z M66.5,139c-0.2-0.1-0.5-0.3-0.6-0.5c-0.2-0.2-0.2-0.5-0.2-0.8c0-0.3,0.2-0.5,0.4-0.7
		c0,0.5,0.1,0.9,0.3,1.2c0.2,0.3,0.6,0.6,0.9,1C67,139.1,66.7,139.1,66.5,139z M67.9,134.9c-0.6-0.4-1-1-1.3-1.6
		c-0.6-1.2-0.9-2.5-0.7-3.8c0.6,1.2,1,2.4,1.5,3.5c0.3,0.5,0.6,1,1,1.4c0.4,0.4,0.9,0.6,1.6,0.6C69.4,135.3,68.5,135.3,67.9,134.9z
		 M73.6,136.3c-0.1,0.1-0.2,0.1-0.4,0.2c-0.2,0-0.4-0.1-0.5-0.2c-0.2-0.2-0.3-0.5-0.3-0.7c0-0.2,0-0.5,0.1-0.7
		c0.1,0.2,0.2,0.4,0.3,0.6c0.1,0.2,0.2,0.4,0.3,0.5c0.1,0.1,0.1,0.1,0.3,0c0.2,0,0.4-0.2,0.6-0.2C73.9,136,73.8,136.2,73.6,136.3z
		 M75.2,118.6c-0.1,0.8-0.1,1.5-0.1,2.1c0.1,1.5-0.4,5.3-1.3,8.4c-0.1,2.2,0.9,3.7,0.9,3.7s-0.5,2.3-1.2,2.3c-0.6,0,0.2-1.4,0.2-1.4
		c-0.2-1.2-0.8-1.2-1.3-0.9c-0.2,0.4-0.4,0.7-0.7,1c-0.5,0.5-1,0.7-1.5,0.7c-1.6,0-2.5-2.1-3-3.9c-0.1-0.4-0.3-0.8-0.4-1.3
		c-0.3-0.8-0.6-1.6-0.8-2.6c-0.2-0.2-0.4-0.5-0.7-0.6c-0.6-0.3-1.5-1.5-0.6-1.7c0.5-0.1,0.8-0.4,0.9-0.8c0-0.2,0-0.4,0-0.7
		c0-0.1,0-0.1,0-0.2c-0.9-2-0.9-3.6-0.4-5c0-0.5-0.1-0.9-0.4-1.3c-0.7-0.8-0.6-1.6-0.3-3.1c0.3-1.5,0.3,0.3,0.5,1.2
		c0.2,0.7,1.9,0.1,2.7-0.3c0.3-0.3,0.6-0.6,0.9-0.8c0.6-0.5,1.3-1.6,1.5-2.5c0,0,0-0.1,0-0.1l0,0c0,0,0.8-1.4,0.7-3.9
		c0-1,1.2,3.8,1.2,3.8l0,0c0.1,0.1,0.1,0.2,0.1,0.4c0.1,0.3,0.2,0.6,0.3,0.9c0.3,1.3,0.4,1.7,1.7,1.7c0.3,0,0.6,0.1,0.8,0.4
		C75.4,114.6,75.4,115.7,75.2,118.6z M78.3,132.9c0.2-0.7,0.3-1.4,0.4-2.1c0.1-0.7,0.2-1.4,0.2-2.2c0.1-0.7,0.1-1.5,0.1-2.2
		c0.2,0.7,0.3,1.5,0.4,2.2c0,0.7,0,1.5-0.1,2.2c-0.2,1.5-0.8,2.9-1.7,4.1C77.9,134.3,78.2,133.6,78.3,132.9z"/>
	<linearGradient id="SVGID_6_" gradientUnits="userSpaceOnUse" x1="156.4423" y1="118.9361" x2="156.4423" y2="97.2628">
		<stop  offset="2.801804e-03" style="stop-color:#6C853F"/>
		<stop  offset="0.4237" style="stop-color:#92A723"/>
		<stop  offset="0.9048" style="stop-color:#C3D100"/>
	</linearGradient>
	<path class="st9" d="M159,105.4c0.3-2,0.3-3.6-0.2-5.9c0-0.1,0-0.1,0-0.2c-0.1-1.1-0.1-1.7-0.2-2c0,0,0,0,0,0c0,0-0.1,0-0.2,0
		c-0.7,0-1.8,0.4-2.1,0.7c-0.2,0.2-0.4,0.3-0.7,0.3c-0.1,0-0.1,0-0.2,0c-0.1,0.1-0.3,0.4-0.5,0.8c-0.2,0.3-0.5,0.5-0.9,0.5
		c-0.1,0-0.1,0-0.2,0c-0.1,0.1-0.1,0.3-0.1,0.4c1.9,1.1,1.5,2.8,1.2,4.1c-0.2,0.8-0.4,1.7-0.2,2.5c0.5,1.9,0.6,3.6,0.7,5.3
		c0,0,0-0.1,0-0.1s0.1,1.4,0.8,1.2c0.7-0.3,1,0.2,0.6,0.5c-0.3,0.2-1,0-1.4,0.6c0,0.1,0,0.2,0,0.3c0,1.3,0,2.7,0.1,4.1
		c0,0.1,0,0.2,0,0.3c0,0.1,0,0.2,0,0.3c0,0,0,0,0,0c0.1,0,0.2-0.1,0.3-0.1c0.1-0.1,0.2-0.2,0.3-0.3c2.2-1.1,2.9-3.3,2.4-7.4
		l-0.3-0.8c-0.1-0.2-0.1-0.3,0-0.5c0.1-0.6,0.2-1.1,0.3-1.6c-0.5-0.3-1.2-0.1-1.2-0.1C157.7,108.2,158.7,106,159,105.4z
		 M155.3,106.4c-0.1-0.3-0.1-0.7-0.1-1.1c0-0.7,0.1-1.4,0.3-2.1l0,1c0,0.3,0,0.7,0,1c0,0.7,0.1,1.4,0.3,2
		C155.5,107.1,155.4,106.8,155.3,106.4z M156.3,115.9c-0.2,0-0.4-0.2-0.4-0.3c0-0.2,0.2-0.3,0.4-0.3s0.4,0.2,0.4,0.3
		C156.7,115.8,156.5,115.9,156.3,115.9z M157.8,110.4c0,0,0.2-1.3-0.8-1.4C157,109,158.6,107.9,157.8,110.4z M156.5,98.3
		c0,0,1.9-1.6,1.7,1.3C158.2,99.5,158.1,98.2,156.5,98.3z"/>
	<g>
		<path d="M99,67.6c-0.6,0.7-0.8,0.1-0.9-0.4c0.1-0.2,0.3-0.6,0.4-1.1c0.2-0.9,0.7-0.9,1-1.2c0.3-0.3,0-0.6-0.2-0.4
			c-0.2,0.2-0.6-0.1-0.7-0.3c-0.1-0.1-0.2-0.2-0.3-0.3c0-1.3-0.1-2.8-0.3-4.2c0.1-0.4,0.2-1.2,0.1-2.1c-0.2-1.4,0.4-1.5,0.3-2.3
			s-0.7-0.7-0.6,0.4c0.1,1.2-0.6-0.1-0.6-0.1l0,0c-0.3-1.1-0.7-2.1-1.2-2.7l0,0c-0.4-1-1.2-4.2-1.2-3.2c0,0.7-1,2.6-1.5,3.5
			c-0.2,0.2-0.3,0.4-0.4,0.7c-0.2-0.1-0.8-0.3-0.9-0.8c0-0.2-0.1-0.4-0.3-0.5c0-0.2-0.1-0.3-0.1-0.5c0-0.1-0.1-0.2-0.2-0.3
			c0-0.1-0.1-0.1-0.2-0.2c-0.1,0-0.2-0.1-0.2-0.1c-0.1,0-0.2-0.1-0.3-0.3c-0.1-0.2-0.1-0.4-0.2-0.6c-0.1,0.2-0.1,0.4-0.1,0.6
			c0,0.2,0.2,0.5,0.4,0.6c0.1,0.1,0.1,0.2,0.2,0.3c0.1,0.2,0.1,0.3,0.2,0.5l0,0c0,0.2,0.1,0.4,0.2,0.7c0.8,1.9,0.2,3.8,0.2,3.8
			l0.2-0.5c-0.3,1.3-0.4,2.7-0.4,3.8c-0.1,0.5-0.2,1-0.6,1.4c-0.9,0.9,0.4,2.9,0.6,3.2c0,0.7,0.1,1.3,0.2,1.9c0,0.6-0.2,1.4-1.3,1.2
			c-1.1-0.2-1.3-0.7-1.3-1c-0.1,0.5-0.1,1.8,1.2,1.8c1,0,1.7,0,2.1,0c0.6,0.7,1.4,0.8,2.8,0.1c0.9,0.7,1.6,0.6,2.2,0l0,0
			c0,0,0.8-0.4,1-0.5s1.3-0.1,1.4-1C99.7,66.6,99.9,66.5,99,67.6z M95.2,55.9C95.2,55.9,95.2,55.9,95.2,55.9
			C95.2,55.9,95.2,55.9,95.2,55.9C95.2,55.9,95.2,55.9,95.2,55.9z M96.5,63.5c-0.1,0.7-0.2,1.4-0.6,1.9c-0.3,0.5-1,0.7-1.5,0.7
			c-0.3-0.1-0.4-0.1-0.5-0.3c-0.1-0.2-0.3-0.4-0.4-0.7c-0.2-0.6-0.2-1.4-0.1-2.1c0.1-0.8,0.2-1.5,0.4-2.3c0.2-0.8,0.4-1.6,0.6-2.2
			l0-0.3c0.1-0.7,0.3-1.3,0.6-1.7c0-0.1,0.1-0.1,0.1-0.2c0,0,0,0,0.1,0c0.1,0.1,0.2,0.1,0.4,0.3c0.1,0.2,0.3,0.5,0.3,0.8
			c0.1,0.3,0.1,0.8,0.1,1l0,0.5C96.3,60.3,96.6,62,96.5,63.5z"/>
		<path d="M89.1,67.1c0-0.1,0-0.2,0-0.2S89.1,67,89.1,67.1z"/>
		<path d="M107.7,66.5l-0.3-7.5l-0.3-7.5c0-1.6-0.2-3.1-0.6-4.6l-0.2-0.8c0,0-0.6-5.1-1.8-7.9c-0.3-0.8-1.1-6.5-0.6-7.6
			c0.6-1.1,1.6-2.5,0.3-3.1c-2.2-1.1-2.4,0.9-2.3,1.5c0.1,0.7,0.5,1.4,0.5,3.3c0,1.9-0.1,3.5-1.4,4.6c-1.3,1.1-3.5-1-3.5-1
			c-0.2,0-1.6-5.6-0.5-7.6c1-1.8-0.1-2.2-1.8-2s-0.8,1.9-0.8,1.9l0.6,2.5c0.8,8-5,6.3-5,6.3c-0.8,0.1-2.5-3.7-1.2-7.7
			c0.9-2.7-0.9-2.7-1.4-2.5s-1.1,1.7-0.7,3.2c0.8,2.9-0.1,6.6-0.6,9.6c-0.3,1.8-0.6,3.3-0.8,4.5c-0.2,0.8-0.4,1.5-0.6,2.3
			c-0.3,1.6-0.5,3.2-0.6,4.7c-0.6,6.2-0.8,12.3-0.7,18.5c0,1.5,0,3.1,0.1,4.6l0.1,2.3l0.1,1.2l0.1,0.7c0,0.2,0.1,0.3,0.1,0.5
			c0.1,0.2,0.2,0.5,0.3,0.8c0.2,0.3,0.5,0.6,0.8,0.8c0.3,0.2,0.7,0.3,0.9,0.3c0.5,0.1,0.9,0,1.2-0.1c0.6-0.1,1-0.3,1.4-0.5l2.1-0.9
			c1.3-0.5,2.6-0.9,3.8-0.9l0.1,0l0.1,0c0.7-0.1,1.6-0.1,2.4,0c0.8,0,1.6,0.1,2.4,0.3c0.8,0.2,1.5,0.4,2.3,0.7c0.7,0.3,1.3,0.6,2,1
			c0.1,0.1,0.2,0.2,0.3,0.3c0.2,0.2,0.5,0.4,1.1,0.6c0.3,0.1,0.7,0,1-0.1c0.2-0.1,0.3-0.1,0.4-0.2c0.1-0.1,0.2-0.2,0.3-0.2
			c0.3-0.3,0.4-0.6,0.5-0.8c0.3-0.9,0.4-1.5,0.5-2.2c0.1-1.3,0.1-2.6,0.1-3.9C107.8,71.5,107.8,69,107.7,66.5z M103.8,80.6
			C103.8,80.6,103.8,80.6,103.8,80.6L103.8,80.6L103.8,80.6z M104.6,64.1c-0.4-0.1-0.7-0.4-0.8-0.8c-0.4-1.4-1.5,0.6-1.1,0.6
			s0.8,2.5,0.8,2.5l0.7,4c-0.2,0.8-0.4,1.6-0.7,2.2c0,0-0.1,0-0.1,0.1c-1.7,1.8-2.3-1.1-2.3-1.1s-1,0.2-0.7,1.9
			c0.3,1.4-1.7,0.4-2.5,0c-0.5-0.3-1-0.5-1.5-0.5c-0.4-0.3-0.8-0.8-1-1.5c-0.4-1.4-1.2-0.3-1.2,0.1c0.1,0.9-1.5,1.4-1.5,1.4l0.1,0
			c-0.9,0.2-1.7,0.5-1.8,0.7c-1.1,1.7-3.5,1.8-3.9,0.1c-0.4-1.9-0.8-3.9-1.1-5.9c0,0,0,0,0,0c0.1-1.9,1-3,1-3c0.5-0.5,0.5-1,0.4-1.4
			c0,0,0,0,0-0.1l0,0c0,0,0-0.1,0-0.1c0-0.1,0.1-0.1,0.2-0.2c0.2-0.2,0.6-0.4,0.9-0.5l0,0l0.1,0c0.3-0.2,0.5-0.5,0.6-0.8
			c0.1-0.3,0.1-0.6,0-0.9c0,0.3,0,0.6-0.1,0.8c-0.1,0.2-0.3,0.4-0.5,0.5c-0.4-0.1-0.8-0.1-1.3,0c-0.1,0-0.3,0.1-0.4,0.1
			c-0.5,0.2-1-0.3-1.3-0.8c0-0.6,0-1.1,0-1.7c0-0.2,0.1-0.4,0.1-0.7c0-1.3,0.4-2.1,0.6-2.4c0.3,0.1,0.6,0.2,0.7,0.4
			c0.1,0.3,0.3,1.1,0.4,0.9c0.1-0.1,0.1-0.5,0-0.9l0,0c0,0-0.3-0.9-0.3-1.8c0.2-0.5,0.3-1,0-1.7c-0.4-1-0.5-2.3-0.5-3.1
			c0.2-0.9,0.5-1.8,0.8-2.6c0.2-0.3,0.7-0.9,1.3-1.1c0.8-0.3,1.5-0.7,2.1-1c0.6-0.3,0.5-1.3,0.2-1c-0.3,0.4-1,1-1.5,0.7
			c-0.3-0.2-0.1-1,0-1.5c0.4-0.5,0.7-1,1.1-1.3l0.3-0.2c0.8-0.3,2.3-0.6,2.1,1.2c-0.1,1,1.3,0.9,1.3-0.1s1.9-1.5,2.4-0.4
			s0.3,1.5,1.2,1.8c1,0.3,0.8-1.9,1.9-1.8c0.8,0.7,1.5,1.6,2.1,2.6c0.2,0.8,0.4,1.8-0.1,2.5c0,0-2.4,1.3-0.1,1.4
			c0,0,0.8-1.4,1.9-0.6c0.6,1.4,0.9,2.9,1.2,4.5c0,0.2-0.1,0.7-0.5,1.2c-0.2,0.4-0.9,0.6-1.2,1.1c0,0,0,0.1-0.1,0.2c0,0,0,0-0.1,0
			c0,0-0.1,0-0.1,0.1c-0.1,0-0.2,0-0.3,0c-0.2,0-0.4-0.1-0.7-0.3c0.1,0.2,0.3,0.4,0.6,0.5c0.1,0.1,0.3,0.1,0.4,0.1
			c0.1,0,0.2,0,0.2,0c0,0,0.1,0,0.1-0.1c0.1,0,0.2-0.1,0.4-0.3c0.9-0.8,1.4,0.2,1.4,0.2l0,0C105.3,58.5,104.8,61.6,104.6,64.1z"/>
		<path d="M89.3,73.9c-0.3,0.1-0.5-0.1-0.7-0.3c-0.2-0.3-0.4-0.7-0.5-1c-0.2-0.8-0.3-1.6-0.4-2.4c-0.1,0.8-0.1,1.6,0.1,2.4
			c0.1,0.4,0.2,0.8,0.4,1.2l0.2,0.3c0.1,0.1,0.2,0.2,0.3,0.3c0.2,0.1,0.5,0.2,0.8,0.2l0.1,0l0,0c0.3-0.2,0.6-0.4,0.8-0.6
			c0.2-0.2,0.5-0.5,0.5-0.8c-0.2,0.3-0.5,0.4-0.7,0.5C89.8,73.7,89.5,73.8,89.3,73.9z"/>
		<path d="M96.9,49.7l-1.2-2.6c0-0.1-0.1-0.1-0.1-0.2c-0.2-0.1-0.5-0.1-0.6,0.1l-1.7,2.3l1.9-1.3L96.9,49.7z"/>
		<path d="M95.1,69.7c-0.2,0-0.4,0.2-0.4,0.4c0,0.2,0.2,0.4,0.4,0.4c0.2,0,0.4-0.2,0.4-0.4C95.5,69.9,95.3,69.7,95.1,69.7z"/>
		<path d="M103.1,49.9c0.2,0.1,0.2,0.3,0.3,0.5c0.2,0.4,0.2,0.8,0.3,1.2c0.1,0.8,0.2,1.7,0.3,2.6c0-0.9,0-1.7-0.1-2.6
			c-0.1-0.4-0.1-0.9-0.4-1.3c-0.1-0.2-0.2-0.4-0.5-0.5c-0.3-0.1-0.5,0.1-0.6,0.3C102.7,49.9,103,49.8,103.1,49.9z"/>
		<path d="M90.5,44c-0.2,0-0.4,0.2-0.4,0.3c0,0.2,0.2,0.3,0.4,0.3s0.4-0.2,0.4-0.3C90.9,44.1,90.8,44,90.5,44z"/>
		<path d="M87.8,48.9c-0.3,0.6-0.4,1.2-0.4,1.9l0.1,0c0.2-0.6,0.3-1.2,0.6-1.7c0.3-0.5,0.6-1,0.9-1.6C88.5,47.9,88.1,48.4,87.8,48.9
			z"/>
		<path d="M102.4,62.1c-0.2,0-0.4,0.2-0.4,0.4c0,0.2,0.2,0.4,0.4,0.4s0.4-0.2,0.4-0.4C102.8,62.3,102.6,62.1,102.4,62.1z"/>
		<path d="M95.6,45.3c0.1,0,0.4,0.2,0.6,0.4c0.2,0.3,0.4,0.5,0.7,0.8c0-0.4-0.1-0.7-0.2-1.1c-0.1-0.2-0.2-0.3-0.3-0.5
			c-0.1-0.2-0.4-0.3-0.7-0.3c-0.5,0-0.8,0.2-1.1,0.4c-0.3,0.2-0.5,0.6-0.6,0.9c0.3-0.2,0.6-0.3,0.9-0.5C95,45.5,95.4,45.4,95.6,45.3
			z"/>
	</g>
	<linearGradient id="SVGID_7_" gradientUnits="userSpaceOnUse" x1="95.4288" y1="75.0337" x2="95.4288" y2="42.3507">
		<stop  offset="0" style="stop-color:#C3D100"/>
		<stop  offset="1" style="stop-color:#6C853F"/>
	</linearGradient>
	<path class="st10" d="M105.1,56.4L105.1,56.4c0,0-0.6-1-1.4-0.2c-0.2,0.2-0.3,0.2-0.4,0.3c0,0-0.1,0-0.1,0.1c-0.1,0-0.1,0-0.2,0
		c-0.2,0-0.3,0-0.4-0.1c-0.3-0.1-0.5-0.3-0.6-0.5c0.2,0.1,0.4,0.2,0.7,0.3c0.1,0,0.2,0,0.3,0c0,0,0.1,0,0.1-0.1c0,0,0,0,0.1,0
		c0-0.1,0.1-0.2,0.1-0.2c0.3-0.5,1-0.7,1.2-1.1c0.3-0.5,0.4-1,0.5-1.2c0,0,0,0,0,0c-0.1-0.6-0.2-1.3-0.4-1.9
		c-0.1-0.3-0.1-0.5-0.2-0.8c-0.1-0.2-0.1-0.4-0.2-0.6c-0.1-0.5-0.3-0.9-0.5-1.3c-1-0.7-1.9,0.6-1.9,0.6c-2.3-0.1,0.1-1.4,0.1-1.4
		c0.5-0.7,0.4-1.7,0.1-2.5c0,0,0,0,0,0c-0.3-0.5-0.7-1-1-1.4c0,0,0,0,0-0.1c-0.2-0.2-0.3-0.4-0.5-0.6c-0.1-0.1-0.2-0.2-0.3-0.3
		c-0.1-0.1-0.2-0.2-0.3-0.3c-1.1-0.1-0.9,2.1-1.9,1.8c-1-0.3-0.8-0.7-1.2-1.8s-2.4-0.6-2.4,0.4s-1.4,1.1-1.3,0.1
		c0.2-1.7-1.3-1.5-2.1-1.2l-0.3,0.2c-0.2,0.2-0.4,0.4-0.6,0.6c0,0,0,0,0,0c-0.2,0.2-0.4,0.5-0.6,0.7c0,0,0,0,0,0
		c-0.1,0.3-0.2,0.6-0.2,0.9s0,0.5,0.2,0.6c0.5,0.3,1.2-0.4,1.5-0.7c0.3-0.4,0.4,0.6-0.2,1c-0.6,0.3-1.3,0.8-2.1,1
		c-0.6,0.2-1,0.8-1.3,1.1c0,0,0,0,0,0c-0.3,0.8-0.6,1.7-0.8,2.6c0,0.8,0.1,2.1,0.5,3.1c0.3,0.6,0.2,1.2,0,1.7c0,0.9,0.3,1.8,0.3,1.8
		l0,0c0.1,0.4,0,0.8,0,0.9c-0.1,0.1-0.3-0.7-0.4-0.9c-0.1-0.2-0.4-0.3-0.7-0.4c-0.2,0.4-0.6,1.2-0.6,2.4c0,0.3,0,0.5-0.1,0.7
		c0,0.5,0,1.1,0,1.7c0.3,0.4,0.7,1,1.3,0.8c0.1-0.1,0.3-0.1,0.4-0.1c0.5-0.1,0.9,0,1.3,0c0.2-0.1,0.4-0.3,0.5-0.5
		c0.1-0.2,0.2-0.5,0.1-0.8c0.1,0.3,0.1,0.6,0,0.9c-0.1,0.3-0.3,0.6-0.6,0.8l-0.1,0l0,0c-0.4,0.1-0.7,0.3-0.9,0.5
		c-0.1,0.1-0.1,0.1-0.2,0.2c0,0,0,0.1,0,0.1l0,0c0,0,0,0,0,0.1c0.1,0.5,0.1,1-0.4,1.4c0,0-0.8,1.1-1,3c0,0,0,0,0,0c0,0,0,0,0,0
		c0.1,0.4,0.1,0.7,0.2,1.1c0.1,0.6,0.2,1.3,0.3,1.9c0,0,0,0.1,0,0.1c0.2,1,0.4,1.9,0.6,2.8c0.4,1.7,2.8,1.6,3.9-0.1
		c0,0,0.1-0.1,0.1-0.1c0,0,0,0,0,0c0,0,0,0,0,0c0.1,0,0.1-0.1,0.2-0.1c0,0,0,0,0,0c0,0,0.1,0,0.1,0l0,0c0.3-0.1,0.8-0.3,1.3-0.4
		c0,0,0,0,0,0c0,0,0,0,0,0l-0.1,0c0,0,1.6-0.4,1.5-1.4c-0.1-0.4,0.7-1.5,1.2-0.1c0.2,0.7,0.6,1.2,1,1.5c0.1,0,0.3,0.1,0.4,0.1
		c0,0,0,0,0,0c0,0,0,0,0,0c0.2,0,0.3,0.1,0.5,0.2c0,0,0.1,0,0.1,0.1c0.2,0.1,0.3,0.1,0.5,0.2c0,0,0,0,0,0c0.5,0.3,1.4,0.7,2,0.7
		c0,0,0.1,0,0.1,0c0.1,0,0.1,0,0.2,0c0.2-0.1,0.2-0.3,0.2-0.6c-0.3-1.7,0.7-1.9,0.7-1.9s0.6,2.9,2.3,1.1c0.1-0.1,0.1-0.1,0.1-0.1
		c0.3-0.7,0.5-1.4,0.7-2.2l-0.7-4c0,0-0.4-2.5-0.8-2.5s0.7-2,1.1-0.6c0.1,0.4,0.4,0.7,0.8,0.8c0-0.5,0.1-1.1,0.2-1.6
		c0-0.1,0-0.1,0-0.2C105,60.2,105.3,58,105.1,56.4z M103.2,49.8c0.3,0.1,0.4,0.3,0.5,0.5c0.2,0.4,0.3,0.8,0.4,1.3
		c0.1,0.9,0.1,1.7,0.1,2.6c-0.1-0.9-0.2-1.7-0.3-2.6c-0.1-0.4-0.2-0.8-0.3-1.2c-0.1-0.2-0.2-0.4-0.3-0.5c-0.2-0.1-0.4,0-0.5,0.2
		C102.7,49.9,102.9,49.7,103.2,49.8z M90.5,44.6c-0.2,0-0.4-0.2-0.4-0.3c0-0.2,0.2-0.3,0.4-0.3s0.4,0.2,0.4,0.3
		C90.9,44.5,90.8,44.6,90.5,44.6z M88.1,49.1c-0.3,0.5-0.5,1.1-0.6,1.7l-0.1,0c-0.1-0.6,0.1-1.3,0.4-1.9c0.3-0.6,0.7-1.1,1.3-1.4
		C88.7,48.1,88.4,48.6,88.1,49.1z M94.5,45.1c0.3-0.2,0.7-0.4,1.1-0.4c0.3,0,0.5,0.1,0.7,0.3c0.2,0.2,0.3,0.3,0.3,0.5
		c0.2,0.3,0.2,0.7,0.2,1.1c-0.2-0.3-0.5-0.6-0.7-0.8c-0.2-0.3-0.4-0.4-0.6-0.4c-0.2,0-0.6,0.1-0.9,0.2c-0.3,0.1-0.6,0.3-0.9,0.5
		C94,45.7,94.2,45.3,94.5,45.1z M94.9,47c0.1-0.2,0.4-0.2,0.6-0.1c0.1,0,0.1,0.1,0.1,0.2l1.2,2.6L95.2,48l-1.9,1.3L94.9,47z
		 M90.3,73.9c-0.2,0.2-0.5,0.4-0.8,0.6l0,0l-0.1,0c-0.3,0-0.5-0.1-0.8-0.2c-0.1-0.1-0.2-0.2-0.3-0.3l-0.2-0.3
		c-0.2-0.4-0.3-0.8-0.4-1.2c-0.1-0.8-0.1-1.6-0.1-2.4c0,0.8,0.2,1.6,0.4,2.4c0.1,0.4,0.3,0.7,0.5,1c0.2,0.3,0.5,0.4,0.7,0.3
		c0.3-0.1,0.5-0.2,0.8-0.3c0.3-0.1,0.5-0.3,0.7-0.5C90.7,73.4,90.5,73.7,90.3,73.9z M95.1,70.4c-0.2,0-0.4-0.2-0.4-0.4
		c0-0.2,0.2-0.4,0.4-0.4c0.2,0,0.4,0.2,0.4,0.4C95.5,70.3,95.3,70.4,95.1,70.4z M99.6,67.5c-0.1,0.9-1.2,0.9-1.4,1s-1,0.5-1,0.5l0,0
		c-0.1,0.1-0.2,0.2-0.4,0.3l0,0c0,0-0.1,0-0.1,0.1c0,0,0,0,0,0c0,0-0.1,0-0.1,0c-0.2,0.1-0.4,0.1-0.7,0.1c0,0,0,0,0,0
		c0,0-0.1,0-0.1,0c-0.1,0-0.2-0.1-0.3-0.1h0c0,0,0,0,0,0c-0.2-0.1-0.3-0.2-0.5-0.3c-0.6,0.3-1.1,0.5-1.5,0.5h0c0,0,0,0,0,0
		c-0.1,0-0.3,0-0.4,0c0,0-0.1,0-0.1,0c0,0,0,0,0,0c-0.1,0-0.1,0-0.2-0.1c0,0,0,0,0,0h0c-0.1,0-0.3-0.1-0.4-0.2h0l0,0
		c0,0,0,0-0.1-0.1c-0.1-0.1-0.1-0.1-0.2-0.2c-0.4,0-1.1,0-2.1,0c-1.3,0-1.2-1.3-1.2-1.8c0-0.1,0-0.2,0-0.2s0,0.1,0,0.2
		c0,0.3,0.2,0.8,1.3,1c1.1,0.2,1.2-0.6,1.3-1.2c-0.1-0.6-0.1-1.2-0.2-1.9c0-0.1-0.1-0.2-0.3-0.4c-0.1-0.1-0.2-0.3-0.3-0.5
		c0,0,0,0,0,0c-0.2-0.4-0.4-1-0.4-1.5c0-0.3,0.1-0.6,0.3-0.8c0.1-0.1,0.2-0.2,0.3-0.3c0.2-0.3,0.3-0.7,0.4-1.1c0-0.4,0-0.8,0.1-1.2
		c0-0.1,0-0.2,0-0.3c0.1-0.7,0.2-1.5,0.3-2.3l-0.2,0.5c0,0,0.7-1.9-0.2-3.8c-0.1-0.3-0.2-0.5-0.2-0.7l0,0c0-0.2-0.1-0.4-0.2-0.5
		c-0.1-0.2-0.1-0.3-0.2-0.3c-0.2-0.1-0.4-0.4-0.4-0.6c0-0.2,0-0.4,0.1-0.6c0.1,0.2,0.1,0.4,0.2,0.6c0.1,0.2,0.2,0.2,0.3,0.3
		c0,0,0.1,0,0.2,0.1c0.1,0,0.1,0.1,0.2,0.2c0.1,0.1,0.1,0.2,0.2,0.3c0.1,0.2,0.1,0.3,0.1,0.5c0.1,0.2,0.3,0.4,0.3,0.5
		c0,0.1,0.1,0.2,0.1,0.3c0.2,0.3,0.6,0.5,0.7,0.5c0.1-0.2,0.3-0.5,0.4-0.7c0,0,0,0,0,0c0.5-0.8,1.5-2.7,1.5-3.5c0-1,0.8,2.3,1.2,3.2
		l0,0c0.3,0.5,0.7,1.1,0.9,1.9c0.1,0.3,0.2,0.5,0.3,0.8l0,0c0,0,0.7,1.2,0.6,0.1c-0.1-1.1,0.4-1.2,0.6-0.4s-0.4,1-0.3,2.3
		c0.1,0.9,0,1.7-0.1,2.1c0.1,0.5,0.1,1.1,0.2,1.7c0,0.1,0,0.3,0,0.4c0,0,0,0,0,0c0,0,0,0,0,0.1c0,0,0,0,0,0c0,0.7,0.1,1.4,0.1,2
		c0,0,0,0,0,0c0.1,0.1,0.2,0.2,0.3,0.3c0.2,0.2,0.6,0.5,0.7,0.3c0.2-0.2,0.5,0.1,0.2,0.4c-0.3,0.3-0.7,0.3-1,1.2
		c-0.2,0.5-0.3,0.9-0.4,1.1c0.1,0.4,0.3,1.1,0.9,0.4C99.9,66.5,99.7,66.6,99.6,67.5z M102.4,62.9c-0.2,0-0.4-0.2-0.4-0.4
		c0-0.2,0.2-0.4,0.4-0.4s0.4,0.2,0.4,0.4C102.8,62.7,102.6,62.9,102.4,62.9z"/>
	<g>
		<path d="M146.6,110.6c0-0.9-0.6-1.5-1-2c-0.2-0.2-0.4-0.4-0.5-0.6c-0.1-0.2-0.3-0.4-0.5-0.5c-0.3-0.2-0.6-0.3-0.9-0.3
			c-0.2,0-0.4,0-0.5,0c-0.1,0-0.3,0-0.4,0c-0.2,0-0.7,0-1.5-1.1c-0.2-0.3-0.5-0.4-0.8-0.4c-0.1,0-0.2,0-0.3,0
			c-0.4,0.1-0.7,0.5-0.7,0.9c-0.1,2.8-0.2,5.3-0.3,7.5c-0.2,2.9-0.3,5.5-0.2,7.9c0,0.1,0,0.1,0,0.2c0,0.5,0.1,1.9,0.5,3.6
			c0,0,0,0,0,0.8c0,0.8,0.2-1.1,2.1-1.6c0,0,0.1,0,0.1,0c0,0,0,0,0,0c0.1,0,0.3,0,0.4-0.1c5-2.1,4.8-10,4.7-14.2L146.6,110.6z
			 M144,117l0,0.2c-0.5,2.5-1.4,3.5-1.9,3.8l-0.4-0.4c-0.6-0.5-0.5-2.7-0.2-4l0-0.1l0-0.1c-0.3-3.9,0.5-5,0.8-5.3
			c0.2-0.2,0.4-0.2,0.4-0.2C145.7,112.1,144.1,116.8,144,117z"/>
		<path d="M149,98.2c-0.2-0.1-0.3-0.3-0.5-0.4l0,0c-2.6-2.2-9.7-1.3-11.3-1.1c-1.5-0.4-2.4,0-3,0.5c-1.7,1.3-1.5,4.2-1.4,4.5
			c0,1.3,0.4,33.1,0.9,38c0.1,1.1,0.3,2.1,0.7,2.7c0.5,2.2,1.3,6.1,0.7,8.2c-0.2,0.6-1,2.7,0.7,2.1c0.8-0.3,1.9-0.5,1-2.5
			c-0.9-1.9,0.2-6.6,1.1-7.3s1.4-2.1,2.9-0.8c1.3,1.1,1.4,2.1,1,3.3c0,0-1,1.7,0.1,1.7c1.1,0,1.9-1,1.4-2.4
			c-0.4-1.4-0.2-5.7,1.2-7.4c0.4-0.5,0.9-1.5,1.3-2.4c0.3-0.2,0.6-0.3,0.9,0c0.7,0.6,1.2,3.9,0.9,4.4c-0.5,0.9-0.3,1.9,0.5,1.9
			c0,0,2-0.8,1-2.9c-1-2,0.6-11.3,1-13.8c0.7-2.4,1.3-5,1.6-7.9C153.2,102.4,151.7,100.4,149,98.2z M149.5,116.5
			c-0.2,1.6-0.5,3.1-0.8,4.5c-0.2,0.1-0.4,0.3-0.6,0.4c0,0-0.6,0.2,0.3,0.9c-0.1,0.5-0.3,1.1-0.4,1.6c-0.3,0.5-0.7,0.9-1,1.4
			c-0.3,0.3-0.5,0.7-0.8,1c-0.1,0.1-0.1,0.2-0.1,0.3l0,0.1c-0.9,3.1-1.4,3.8-1.8,3.8c0,0-0.1,0-0.3-0.1c-0.7-0.5-1.2-0.7-1.6-0.7
			c-1.3,0-1.5,1.3-1.6,2c-0.2,0.9-0.4,2-1.4,2.9l-0.2,0.1c-0.2-0.6-0.6-1-1.2-1c-0.6,0-1,0.4-1.2,1c0,0,0,0,0,0
			c-0.1-0.2-0.2-0.4-0.2-0.5c0.4-2.9,0.1-5.4-0.3-7.8c0.1-0.3,0.3-0.6,0.7-0.9c1.1-1,0.1-1.8,0.1-1.8c-0.5,0.6-1.3-1.6-1.8-3
			c0-0.3-0.1-0.5-0.1-0.8c0-0.8,0-1.6,0-2.4c0.1-1.3,0.3-2.8,0.9-4.3c1-2.8,0-4.1-0.7-4.9c-0.2-0.2-0.3-0.3-0.3-0.5
			c0-0.1,0-0.3,0-0.4c0.1-0.1,0.2-0.3,0.3-0.5c0.5-0.7,0.4-1.8,0.3-3.2c-0.1-1.3-0.3-3,0.3-3.7c0.1-0.1,0.4-0.4,1.3-0.4
			c0.1,0,0.3,0,0.4,0c0.1,0,0.2,0,0.3,0c0.2,0,0.3,0,0.4,0c0.6,0,1-0.3,1.7-0.8c0,0,0.1,0,0.1,0c0.2,0,0.9,0.7,1.3,2.2
			c0,0.1,0.1,0.2,0.2,0.3c0.2,0.4,0.6,1.1,0.6,1.2c0,0,0.1,0.5,0.5-0.4l0.5-0.7c0.1-0.1,0.1-0.2,0.2-0.2l0,0l0,0
			c0.1-0.1,0.1-0.3,0.1-0.5c0.1-0.8,0.3-1,0.3-1.1c1,0.1,1.1,0.1,1.1,0.1c0,0,0.1,0,0.1,0c0,0,0.1,0,0.1,0c0.9,0,1.4,0.3,1.4,1
			c0,1.7,1.7,2.1,2.4,2.3c0.1,0,0.2,0,0.3,0.1c0.7,1.1,1,2.8,1.2,4.4C150.2,109.5,150,112.5,149.5,116.5z"/>
		<path d="M144,100.7c0.1,0,0.1,0,0.2,0c0.2,0,0.4-0.1,0.4-0.3c0-0.1,0-0.1,0-0.2s0-0.1,0-0.2c-0.1-0.2-0.2-0.3-0.4-0.3
			c-0.1,0-0.1,0-0.2,0c-0.2,0.1-0.3,0.2-0.3,0.4C143.7,100.5,143.8,100.7,144,100.7z"/>
		<path d="M136.5,100.5c-0.3,0.4-0.4,0.8-0.5,1.3c0,0.5,0,0.9,0.1,1.3c0.1,0.4,0.2,0.9,0.4,1.3c0-0.9-0.2-1.7-0.1-2.5
			c0-0.4,0.1-0.8,0.3-1.1c0.2-0.3,0.6-0.5,1-0.6C137.3,100,136.8,100.1,136.5,100.5z"/>
		<path d="M142.3,106.8c0.2,0.1,0.5,0.1,0.7,0.1c0.2-0.1,0.4-0.2,0.6-0.4c-0.5-0.1-0.8-0.1-1.1-0.2c-0.3-0.1-0.5-0.4-0.8-0.7
			c-0.1,0.2-0.1,0.5,0,0.7C141.9,106.5,142.1,106.7,142.3,106.8z"/>
		<path d="M148.9,106.4c0.1,0.5,0.1,1.1,0.1,1.6c0,0.5-0.1,1.1-0.1,1.6c0.2-0.5,0.4-1,0.5-1.6c0.1-0.6,0.1-1.1,0.1-1.7
			c-0.1-0.6-0.2-1.1-0.4-1.7c-0.2-0.5-0.5-1-0.9-1.4C148.5,104.3,148.8,105.4,148.9,106.4z"/>
		<path d="M144.4,128.8c-0.4,0.3-1.1,0.1-1.1,0.1c0.1,0.6,0.5,0.7,1.2,0.7c0.7,0,0.6-2.3,0.6-2.3
			C144.8,127.7,144.7,128.5,144.4,128.8z"/>
		<path d="M139.5,127.9c-0.3,0-0.5,0.2-0.5,0.5s0.2,0.5,0.5,0.5c0.3,0,0.5-0.2,0.5-0.5S139.8,127.9,139.5,127.9z"/>
	</g>
	<g>
		<path d="M89.8,115.7c0-0.1-0.1-0.3-0.2-0.4c-0.1-0.1-0.3-0.1-0.5-0.2c-0.3,0-0.6,0.1-0.9,0.3c-0.2,0.2-0.5,0.4-0.6,0.7
			c-0.1,0.3-0.2,0.6-0.1,0.9c0.2-0.5,0.5-0.9,0.9-1.1c0.2-0.1,0.4-0.2,0.6-0.3C89.3,115.4,89.6,115.5,89.8,115.7z"/>
		<path d="M103.3,145.2c-0.5,0.6-1.6,0.6-1.6,0.6s1.3,0.1,2.1,0.1s-0.3-2.8-0.3-2.8C103.6,143.9,103.6,144.8,103.3,145.2z"/>
		<path d="M92.9,140.3c-0.9,0.4-0.9-0.3-0.9-0.3c-0.5,0.1,0,1.4,0.7,1C93.4,140.5,92.9,140.3,92.9,140.3z"/>
		<path d="M99.6,137.1c0.1,0.4,0.2,0.8,0.1,1.2c-0.1,0.4-0.2,0.8-0.4,1.1l0,0l0,0c-0.1,0.2-0.2,0.4-0.5,0.5
			c-0.3,0.1-0.6,0.2-0.9,0.3c0.3,0.1,0.7,0.1,1,0.1c0.3-0.1,0.7-0.3,0.8-0.7c0.2-0.4,0.4-0.8,0.4-1.3
			C100,137.9,99.9,137.4,99.6,137.1z"/>
		<path d="M98.4,118c-0.2,0-0.4,0.2-0.4,0.4s0.2,0.4,0.4,0.4s0.4-0.2,0.4-0.4S98.7,118,98.4,118z"/>
		<path d="M86.5,134.5c-0.1,0-0.2-0.1-0.2-0.3c-0.1-0.3-0.1-0.6-0.1-1c0-0.7,0.1-1.3,0.2-2c-0.2,0.7-0.3,1.3-0.3,2c0,0.3,0,0.7,0,1
			c0,0.2,0.1,0.4,0.4,0.4c0.2,0,0.4-0.2,0.5-0.3c0,0,0,0,0,0c0,0,0,0,0,0C86.7,134.4,86.6,134.5,86.5,134.5z"/>
		<path d="M88.9,123.3c-0.1,0-0.2,0-0.2,0c-0.1-0.1-0.2-0.4-0.3-0.6c-0.1,0.1-0.1,0.3-0.1,0.4c0,0.2,0.1,0.3,0.2,0.5
			c0.2,0.1,0.4,0.1,0.6,0.1c0.1-0.1,0.3-0.2,0.3-0.3C89.1,123.3,89,123.3,88.9,123.3z"/>
		<path d="M107.7,144.8c-0.7-4.4-1.1-13-1.1-22.8c0.7-9.9-0.9-12.2-1.9-12.7c-0.4-0.2-1.2-0.4-2.3,0.4c-1,0.5-2.9,1.1-3.9,1
			c-0.7-0.1-1.3,0.1-1.8,0.6c-0.9,0.9-1.9,3.1-0.6,12c0.1,5.2-0.4,10.3-1.1,11.2c-0.8-0.2-1.9-2-1.7-10.6c0-2.1,0.3-4.2,0.5-6
			c0.5-3.9,0.9-7-1.6-7.5l-0.1,0l-0.1,0c-0.5,0-2-0.1-2.8-0.6c-1.1-0.7-2-0.8-2.7-0.4c-1.3,0.7-1.3,2.6-1.4,4c0,0.3,0,0.5,0,0.7
			l0,0.1c-0.1,1.1-2,26.8-1.5,30.3c0,0.3,0.1,0.6,0.2,1c0.2,1.3,0.6,3.6,1.1,5.7c0.6,2.9,1.9,7.1,0.8,10.2c-0.5,1.5,0.1,3.1,0.6,3.2
			c0.5,0.2,2.5,0.3,1.7-2.5c-1.3-4.1,0.8-8.4,1.7-8.3c0,0,6.5-1.5,5.2,6.6l-0.7,2.8c0,0-1.1,1.7,0.7,2c1.8,0.3,3-0.1,2.1-1.9
			c-1.1-2.1,0.6-7.9,0.9-7.9c0,0,2.6-2,4-0.8c1.4,1.2,1.4,2.9,1.2,4.8c-0.1,1.9-0.6,2.8-0.7,3.5s0,2.7,2.5,1.7
			c1.5-0.6,0.5-2-0.1-3.2c-0.6-1.2,0.6-7.1,1-7.9c0.4-0.8,0.7-1.5,1-2.1C107.9,149.9,108.2,147.7,107.7,144.8z M103.7,146.4
			c-0.2,0-0.4,0-0.5,0c-0.2,0-0.4,0-0.6,0c-0.7,0-1.7,0.1-2.5,0.8c-0.6,0.5-1,0.6-1.2,0.6c-0.4,0-0.7-0.1-1.1-0.3
			c-1.4-0.6-1.4-1.6-1.4-1.7c0-0.2,0-0.4-0.1-0.5c-0.3-1.4-1.3-2.6-1.3-2.6c0,1-0.7,3.4-0.7,3.4s0,0,0,0c0,0.1-0.1,0.2-0.1,0.4
			c-0.1,0.3-0.2,0.4-0.3,0.4c0,0,0,0,0,0c-0.3,0-0.8-0.2-1.2-0.4c-0.4-0.2-0.9-0.4-1.4-0.5c-0.1,0-0.2-0.1-0.3-0.1
			c-0.7-0.7-0.5-1.7-0.5-1.7c0.1-1.9-0.4-0.9-0.4-0.9c-1.1,1.4-2.7-0.8-2.9-1.2c-0.1-0.3-0.3-0.6-0.4-0.9c0-0.6-0.1-2.6,0.4-3.1
			c0.5-0.5,0.7-1.3,1.2-2.9c0.8-2.7-1.6,0.6-2.3,0.2c-0.2-0.1-0.3-0.3-0.4-0.4c0.1-1.6,0.2-3.2,0.3-4.9c0.1-0.5,0.2-1.1,0.3-1.6
			c0-0.1,0.1-0.2,0.1-0.2l-0.1,0.2c0.1-0.8,0.3-1.6,0.5-2.4c0.2-1,0.2-2,0.2-2.9c0-0.3,0-0.8,0-0.9c0.1-0.3,0.2-0.4,0.2-0.4
			c0,0,0,0,0,0c0,0,0.1,0,0.1,0c0.1,0,0.1,0,0.1,0c0.1,0,0.1,0,0.1,0c0.3,0.1,0.9,0.3,1.2,0.9c0.5,1,0.8-1.6-0.5-2.6
			c-0.1-0.2-0.3-0.5-0.5-0.8c-1-1.5-1.2-2.8-0.7-3.6c0.3-0.6,1.1-1,1.9-1h0c0.4,0,1.7,0.1,1.9,1.6c0.3,1.6,0.2,4.2,0.1,7
			c0,0.6,0,1.2-0.1,1.8l0,0c0,0,0,2.5-1.4,2.7c0,0-0.3,0.1-0.3,0.2c-0.1,0.2-0.1,0.5,0.5,0.4c1-0.3,1.2,1.1,1.2,1.1l0,0
			c0.1,2.4,0.2,4.3,0.9,6l0,0.2c0,0,0.6,2.7,0.5,3.3c-0.1,0.6,0.5,1.1,0.8,0.3c0.3-0.8,0.9-0.8,1.3-0.7c0.4,0.2,0.7,0.3,1.2,0.3
			c0.1,0,0.4,0.1,0.7,0.2c0.7,0.3,1.2,0.4,1.6,0.4c0.7,0,1-0.4,1.1-0.6c0.5-0.9,0-1.7-0.3-2.3c-0.2-0.3-0.3-0.7-0.4-1
			c0-0.6-0.1-1.1-0.1-1.7c-0.1-1.7-0.2-3.4,0.3-5.1c1.5-5.1,0.8-8.4-0.4-9.2c-0.1-0.1-0.3-0.3-0.4-0.6c0-0.3,0-0.6-0.1-0.9
			c0,0,0-0.1,0-0.1c0.1-0.3,0.3-0.5,0.6-0.5c0.3,0,0.6-0.2,0.8-0.4c0.2-0.3,0.2-0.6,0.1-0.9c-0.2-0.6-0.2-1-0.1-1.1
			c0.1-0.1,0.3-0.2,0.8-0.3l0,0c0,0,1.1,0.7,1,1.4s0,0.9,0.4,0.7c0.4-0.1,0.2-1.8,1-1.6l0-0.1c0.2,0.1,0.3,0.2,0.4,0.2l0,0.1
			c0.6,1.7,1,2.6,0.9,4.5c-0.2,1-0.5,2.4-1,3c0,0-1,0.3,0,0.9c0.5,0.3,0.8,0.4,0.9,0.7c0.1,2.3,0.1,4.6-0.8,5.6
			c-0.6,0.6-0.7,1.2-0.7,1.6c0,1,0.8,1.7,1.3,2.1c0.1,0.1,0.2,0.1,0.2,0.2c0.1,0.1,0.2,0.2,0.3,0.2c0.4,0.2,0.2,1.9,0.1,3.1
			c-0.2,1.6-0.4,3.3,0.1,4.6c0.4,1.3,0.8,2.7,0.8,3.9C104.5,146.3,104.2,146.4,103.7,146.4z"/>
	</g>
	<g>
		<path d="M127.5,140.1c-0.1,0-0.2,0-0.3,0c-0.2-0.1-0.5-0.2-0.7-0.3c0.1,0.3,0.3,0.6,0.6,0.7c0.2,0.1,0.4,0.1,0.6,0.1
			c0.2-0.1,0.3-0.2,0.4-0.3c0.5-0.4,0.7-1,0.7-1.6c-0.2,0.5-0.6,1-1,1.3C127.7,140,127.6,140.1,127.5,140.1z"/>
		<path d="M120.5,122.1c-0.2,0-0.3,0.2-0.3,0.3c0,0.2,0.1,0.3,0.3,0.3s0.3-0.2,0.3-0.3C120.8,122.2,120.6,122.1,120.5,122.1z"/>
		<path d="M117.3,119.9c-0.3-0.1-0.6-0.2-0.8-0.4c-0.2-0.2-0.4-0.5-0.4-0.9c-0.1,0.3-0.1,0.8,0.1,1.1c0.2,0.3,0.6,0.5,1,0.6
			c0.2,0,0.4,0.1,0.6,0.1c0.2,0,0.4,0,0.6-0.1c0.4-0.2,0.6-0.6,0.6-1c-0.2,0.3-0.5,0.5-0.8,0.5C117.9,120,117.6,120,117.3,119.9z"/>
		<path d="M114,105.5c-0.4,1.3,0.4,0.6,0.4,0.6c0.5-2.2,0.9-0.6,1.2-0.2c0.3,0.3,0.3-0.4,0.3-0.4C115.1,101.5,114,105.5,114,105.5z"
			/>
		<path d="M127.8,126.6c0.2-0.2,0.3-0.4,0.4-0.6c0.2-0.4,0.2-0.9,0.3-1.4l0.1-1.4c0-0.5,0.1-0.9,0.2-1.4c-0.4,0.9-0.4,1.8-0.5,2.7
			c0,0.5-0.1,0.9-0.2,1.3C127.9,126.1,127.8,126.3,127.8,126.6c-0.2,0.1-0.4,0.3-0.6,0.1l0,0C127.3,126.8,127.6,126.7,127.8,126.6z"
			/>
		<path d="M128.5,104.8c0.1-0.3,0.2-0.7,0.2-1c0-0.7-0.2-1.3-0.5-1.9c0,0.3,0.1,0.6,0.1,1c0,0.3,0,0.6,0,0.9c0,0.3-0.1,0.6-0.2,0.9
			c-0.1,0.3-0.2,0.6-0.5,0.8C128,105.4,128.3,105.1,128.5,104.8z"/>
		<path d="M126,99.6c-0.2-0.2-0.6-0.1-0.7,0.1s-0.1,0.5,0.2,0.7c0.2,0.2,0.6,0.1,0.7-0.1S126.2,99.8,126,99.6z"/>
		<path d="M131.7,152.2c-0.5-0.7-0.2-2.3-0.1-5c0-2.6-0.3-8.9-0.3-8.9c0,0,0,0,0,0c0-1.7,0-3.8-0.1-6.3c-0.1-1.5-0.1-2.9-0.1-3.9
			c0-4-0.1-23.2-0.1-24.4c0.7-6.1,0-7.6-0.7-8.1c-0.3-0.2-0.5-0.3-0.9-0.3c-3-0.4-5.1-0.1-6.4,1c-1.2,1-1.4,2.4-1.4,3.4
			c0,0.6,0,1.6,0.1,2.8c0.1,2,0.5,7.3-0.2,8c-0.2,0-0.4,0.1-0.5,0c-0.1-0.1-0.4-0.4-0.8-2c-0.5-2.5-1-8.4-1.1-8.4l0-0.2l-0.1-0.2
			c-1.6-3-3-4.2-4.3-4c-1.5,0.3-1.9,2.2-2,2.7c-1.1,4.8-3.1,7-4.1,8.1c-0.3,0.3-0.5,0.5-0.6,0.7c-0.3,0.5-0.4,0.6,0.5,22.8l0,0.8
			c0.1,2.1,0.5,11.7,1,15.5l-0.1,0c0,0,0.9,4.2,1,7.5c0.1,2.5,0.2,4.7-0.1,5.6c-0.3,0.9-0.7,2.2,0.6,2.9c2,1.1,3.2-0.8,1.9-2.3
			c-1.3-1.6-0.7-6.8,0.6-8c0,0,2.1-1.4,2.9,0.4c0.8,1.8,1.8,4.6,0.7,6.9c-0.4,0.9-0.3,1,0.3,1.8c0.7,0.9,3.7,0.8,2.2-1.7
			s-0.5-9.9-0.5-9.9l0-4.3c0.1-2.1-0.1-5.1-0.8-9.1c0-1.2,0.6-1.6,1-1.8c0.4,0.5,0.8,1.7,1.1,3l1.1,7c0,0,1.6,10.8,1,12.2
			c-0.7,1.4,0.1,3,2.1,2.4c1.4-0.4,0.3-2.9,0.3-2.9c-1.4-3.2-1.2-7-0.4-8.5c0.3-0.6,0.9-0.6,1.3-0.6c2.4,0.6,3.5,2.7,3.5,2.7
			s1,1.7,0.1,3.7c-0.9,1.9,1.2,2.6,1.9,2.1C131.7,155,132.8,153.8,131.7,152.2z M129.2,140.1c0,0.1-0.1,0.2-0.1,0.3
			c-0.5,1.2-0.8,1.4-0.8,1.4c-0.2,0-0.6-0.3-0.8-0.4c-0.4-0.3-0.7-0.5-1.2-0.6c-0.1-0.1-0.1-0.1-0.2-0.1c-0.1-0.1-0.2-0.2-0.3-0.3
			l-0.2-0.1c0-0.2-0.1-0.4-0.2-0.5c-0.2-0.3-0.4-0.4-0.7-0.4l-0.4,0c-0.3-0.3-0.3-0.8-0.1-1.7l0,0c0,0,0.6-1.4,0.8-2.4s0-2.7-0.2-1
			c-0.2,1.4-1,1.2-1.3,1.2c-0.6-0.3-0.7-0.7-0.8-1.4c-0.1-0.4-0.2-0.9-0.4-1.4c0-0.6-0.2-2.8-0.8-3.9c-0.7-1.3-0.8-5-0.8-5l-0.8,3.4
			c-0.4,1.4-0.9,1.8-1.4,1.9c-0.4,0-0.6-0.1-0.8-0.2c0,0,0,0,0,0l0,0c0,0-0.1,0-0.1-0.1c0,0,0.1,0,0.1,0.1l-0.4-0.3
			c-0.6-0.7-0.4-1.9-1.1-2.1c-0.9-0.3-0.3,3.2-0.1,4.4c-0.6,2.5-0.5,5.1-0.4,7.5c0.1,1.6,0.1,3.2,0,4.7c0,0.1,0,0.2,0,0.3
			c0.1,0.2,0.1,0.4,0.1,0.6c0-0.1-0.1-0.1-0.1-0.2c-0.1-0.2-0.3-0.4-0.4-0.6c-0.2-0.2-0.5-0.4-0.8-0.4c0,0,0,0,0,0
			c-0.3,0-0.6,0.1-0.8,0.4c-0.1,0.1-1.2,1.6-1.5,2.3c-0.1,0.4-0.3,0.6-0.4,0.9l-0.1,0c-0.1-0.8-0.3-2.2-0.4-4c0-0.4,0-0.9,0.1-1.3
			c0.2-0.6,0.7-1.4,1.2-1.9c0.8-0.8,2.7-3.8-0.1-1.9c-0.3,0.2-0.5-0.7-0.5-1.5c0-0.3,0.1-0.6,0.1-1c0-0.1,0-0.2,0-0.3
			c-1.7-11.4,0-14.6,1.1-15.5c0.3-0.2,0.4-0.6,0.4-0.9s-0.3-0.7-0.6-0.8c-1.8-0.7-1.6-4.1-1.4-5.6l0-0.1c0-0.1,0-0.1,0.1-0.2
			l0.1-0.1c0,0,0.2-0.4,0.7-0.4c0.5,0,0.6,0.1,0.7,0.5c0.2,0.7,0.2,1.4,0.5,0.2c0.1-0.6-0.4-1.4-0.4-1.4c-0.9-0.5,0-2.1,0.2-2.5
			c0,0,0,0,0,0c0.2-0.3,0.4-0.9,0.6-1.8c0.1-0.5,0.3-1.3,0.4-1.5c0.9-1.3,1.2-1.5,1.3-1.5c0,0,0.1,0,0.2,0.1c0,0.1,0.1,0.2,0.1,0.3
			c0.2,0.3,0.5,1,0.6,1.2c0.2,0.5,0.2,0.8,0.1,1.2c0,0.4,0,0.9,0.2,1.7c0.4,1.3,0.4,1.4,0.3,1.8c-0.1,0.2-0.2,0.6-0.2,1.1
			c-0.4,2.8-0.1,4.6,0.8,5.7c0.1,0.2,0.3,0.3,0.4,0.4c0,0.3-0.1,0.5-0.2,0.8c0,0,0,1.7-0.3,1.7c-0.3,0-1.1,0.6,0.2,1
			c1.3,0.5,0.8-1,0.8-1s1.1-1.6,2-2.1c0.5-0.1,1.1-0.4,1.7-0.7c0,0,0.1,0,0.1,0c0.3,0.2,1.3,1,0.9,2.8c0,0,0.3,2.4,1.4-2.2
			c0.2-0.7,0.3-1.1,0.4-1.5c0.5-0.3,0.8-0.6,0.9-1c0.2-0.7-0.3-1.2-0.6-1.6c-0.3-0.3-0.5-0.5-0.6-1c-0.4-2.7-0.1-6.3,1-7.8
			c0.5-0.8,0.1-1.6-0.3-2.1c-0.6-1-0.6-1.2-0.2-1.5c0.6-0.5,1-0.8,1.4-0.8c0.1,0,0.3,0,0.4,0.1c0.5,0.2,1.1,0.8,1.6,1.7
			c0.3,0.5,0.5,1.1,0.7,1.8c0,0.4-0.1,0.9-0.1,1.4l0,0.1c0,0,0,0.7,0,1.7c-2.1,1.9-1.6,3.5-1,6.1c0.2,0.8,0.5,1.8,0.7,2.9
			c0.2,0.8,0.3,1.7,0.4,2.6c0,2.3,0,4.5,0,6.4c-0.2,1.8-0.4,3.2-0.7,3.7c-0.1,0.1-0.3,0.1-0.4,0.2c-0.6,0.2-1.4-0.1-1.5-0.3
			c-0.2-0.4-1-0.1,0.5,1.3l0.4,0.6c0.1,0.3,0.3,0.5,0.6,0.9c0.4,0.6,1,1.4,1.3,2.1c0,0.1,0,0.2,0,0.3c0,0.4,0,0.9,0.1,1.4
			c-0.5,0.5-0.7,1.1-0.4,2.2l0.1,0.2c0.1,0.4,0.2,0.7,0.2,1c0.1,0.2,0.1,0.4,0.1,0.6C129.2,138.5,129.2,139.4,129.2,140.1z"/>
	</g>
	<linearGradient id="SVGID_8_" gradientUnits="userSpaceOnUse" x1="37.8502" y1="76.9693" x2="37.8061" y2="76.9439">
		<stop  offset="2.801804e-03" style="stop-color:#6C853F"/>
		<stop  offset="1" style="stop-color:#C3D100"/>
	</linearGradient>
	<path class="st11" d="M38,76.7l-0.3,0.6C37.8,77.1,37.9,76.9,38,76.7z"/>
	<g>
		<path d="M83,80.7c-0.1-1.6-0.4-3-0.6-4.3c-0.1-0.3-0.2-0.6-0.2-0.9c0,0,0-0.1,0-0.1c0,0,0,0,0,0.1l0,0l0-0.1l0-0.1
			c0-0.2,0-0.4,0-0.6c0-0.7-0.1-1.4-0.1-2.2c-0.1-1.4-0.1-2.8-0.1-4.2c0-1.4,0.2-2.8,0.3-4.2c0.1-1.4,0.2-2.8,0.3-4.2
			c0.2-2.8,0.3-5.7,0.2-8.5c0-1.4-0.1-2.9-0.4-4.4c-0.1-0.7-0.3-1.5-0.5-2.3c-0.1-0.4-0.1-0.5-0.2-0.7c0,0,0-0.1,0-0.2l0,0
			c0,0-1.1-3.6-1.1-6.4c-0.1-2.1,0-5.3,0.3-6c0.3-0.7,0.8-1.8-0.5-2.6c-1.9-1.1-3.2,0.3-2,1.8c1.2,1.5,0.4,7.9-0.9,8.7
			c0,0-1.9,1.5-2.7-0.1c-0.7-1.6-1.7-4.8-0.6-6.6c0.5-0.7,0.3-0.8-0.2-1.5c-0.7-0.9-3.7-1.1-2.2,1.2c1.5,2.4,0.1,7.9,0.1,7.9l-0.8,4
			c0,0,0,0,0,0.1c-0.3,0.7-0.3,1.1-0.3,1.3c0,0.3,0,0.5,0,0.7c0.1,0.7,0.1,1.2,0,1.7c0,0.2-0.1,0.5-0.2,0.9
			c-0.1,0.4-0.1,0.7-0.1,1.1c-0.1,1.5,0.1,2.9,0.2,4.4c0.2,1.5,0.3,2.9,0.3,4.3c0,1.4-0.1,2.8,0,4.2c0.1,2.8,0.2,5.6,0.3,8.4l0,0
			l0,0c0.2,1.1,0.3,2.3,0.2,3.4c0,0.5-0.1,1.1-0.3,1.6c-0.2,0.5-0.5,0.9-0.8,1c-0.7,0.1-1.4-0.2-1.6-0.9c-0.3-0.7-0.3-1.5-0.2-2.3
			c0.2-1.7,0.3-3.3,0.4-5c0.2-3.3,0.4-6.6,0.5-9.9c0-1.7-0.2-3.3,0.1-5.1c0.1-0.4,0.2-0.9,0.2-1.3l0.1-1.3c0-0.5,0.1-0.9,0.1-1.4
			c0-0.5,0-1,0.1-1.9c0-0.2,0-0.4-0.1-0.7c0-0.5,0-1,0-1.3c-0.2-1.7-1.1-10.1-0.3-11.3c0.9-1.2,0.1-2.8-2.3-2.4
			c-1.7,0.3-0.5,2.6-0.5,2.6c1.5,3.1,0.6,6.3-0.1,7.9c-0.2,0.5-0.8,0.7-1.4,0.9c-2.1-0.8-2.9-2.6-2.9-2.6s-0.8-1.7,0.1-3.4
			c1-1.7-1-2.5-1.7-2.1c-0.7,0.4-1.7,1.5-0.8,3c0.4,0.7,0,2.1-0.2,4.6c-0.2,2.4-1.6,8.8-1.6,8.8c0,0,0,0,0,0c0,0.2,0,0.4-0.1,0.5
			c0,0.4,0,0.7,0,1.2l0.2,1.9l0.2,2.1c0.1,1.4,0.2,2.7,0.3,4.1c0.2,2.8,0,5.5,0,8.3l-0.3,8.4L58.7,81l0,1.1c0,0.4,0,0.7,0,1.2
			c0.2,1.4,0.3,2.9,0.7,4.4c0.4,1.5,1,3.1,2.3,4.5c0.7,0.7,1.6,1.2,2.5,1.5c0.8,0.2,1.6,0.4,2.4,0.5c1.5,0.2,3,0.2,4.6,0.1
			c1.5-0.1,3.1-0.4,4.7-1.1c0.8-0.4,1.6-0.9,2.3-1.8c0.3-0.4,0.7-1.1,0.8-1.3l0.5-0.9c0.6-1.2,1.2-2.4,1.9-3.5
			c0.2-0.3,0.4-0.5,0.5-0.8l0.3-0.4c0.2-0.3,0.4-0.7,0.5-1C83.1,82.3,83.1,81.5,83,80.7z M77.4,78.1c0,0-0.8-0.4-0.1,1.3
			c0.7,1.6,1.6,0.9,1.1,3.1c-0.3,0.5-0.8,0.9-1.2,1.4l-1,0.7c-0.7,0.6-2.5-0.7-2.5-0.7c-0.2-1.8-0.4-0.7-0.4-0.7s-0.5,1.4,0.6,2
			c0.7,0.4,1.1,0.8,1.4,1.1c0.1,0.4,0.2,1-0.1,1.4c-0.6,1-0.6,1.1-1.7,1.6c-1.9,0.9-1.3-0.1-1.6-0.7l-0.2-0.9c0.7-2-0.4-2.5-0.4-2.5
			l0.1,1.2c-0.1,1-0.7,1.7-1.1,2.1c-1.8,0.4-4.5,1.4-5.2-0.9c0,0,0,0,0,0c-0.2-0.5-1.1-3.2-1-3.7l-0.1-1c0,0,0.6-1-0.2-0.2
			c-0.9,0.8,0.3,1.6-1.3,1.8c-0.3,0-0.3,0.2-0.2,0.4c0,0-0.1,0-0.1,0.1c0,0,0,0,0,0c0,0,0,0,0,0c-0.1,0.1-0.2,0.1-0.2,0.1
			c0,0,0,0-0.1,0c0,0-0.1,0-0.1-0.1c0,0-0.1,0-0.1-0.1c0,0-0.1-0.1-0.1-0.1c0,0-0.1-0.1-0.1-0.1c0-0.1,0-0.1-0.1-0.2
			c-0.1-0.3-0.2-0.7-0.3-1.2c0,0,0,0,0,0c0-0.2,0-0.4-0.1-0.6c0,0,0,0,0,0c0.2-1,1.2-1.6,1.2-1.6c0.6-1.6,0-2,0-1.3
			s-0.5,0.7-0.5,0.7c-0.3,1-0.6-0.4-0.8-1.1c0,0,0,0,0,0c0-0.5,0-1.1,0-1.6c0-0.1,0-0.2,0-0.3c0-1.1,0.1-2.3,0.1-3.5
			c0-0.1,0-0.3,0-0.4c0-0.6,0.1-1.2,0.1-1.8c0-0.9,0.1-1.8,0.1-2.7c0.2-0.8,0.8-2.5,0.8-2.7c0.1-0.2,0.6-1.2,0.4-2
			c-0.1-0.4-0.5-0.9-0.7-1.4l0.1,0.1c-0.5-1.1,0.9-1,0.9-1c2.3-0.4,0.1-1.1,0.1-1.1c-0.7-0.3-0.9-1.7-0.9-2.3c0,0,0-0.1,0-0.1
			c0-0.2,0.1-0.3,0.1-0.4c0-0.1,0.1-0.2,0.1-0.3c0.1-0.5,0.3-0.8,0.5-0.8c0-0.1-0.2-0.2-0.4-0.5c-0.1-0.1-0.2-0.2-0.3-0.4
			c0,0,0,0,0,0c0-0.1-0.1-0.1-0.1-0.2c0,0,0,0,0,0c0-0.1-0.1-0.1-0.1-0.2c0,0,0,0,0,0c0-0.1,0-0.1,0-0.2c0,0,0,0,0,0
			c0-0.2,0.2-0.4,0.5-0.6c0.2-0.1,0.4-0.2,0.7-0.3c1.6-0.4-1-2-0.8-3.1c0,0,0,0,0,0c0,0,0-0.1,0.1-0.1c0,0,0,0,0,0
			c0-0.1,0.1-0.2,0.2-0.2c0,0,0,0,0,0c0,0,0.1-0.1,0.1-0.1c0,0,0,0,0.1,0c0.1,0,0.1-0.1,0.2-0.1c0,0,0,0,0,0
			c0.1-0.1,0.3-0.1,0.5-0.2c0.1,0,0.1,0,0.2,0c0.1,0,0.2,0,0.3-0.1c0.1,0,0.2,0,0.2,0c0.1,0,0.2,0,0.3,0c0.4,0.3,0.7,0.9,0.6,2
			c0,0,0.5-0.2,0.7-0.8c0,0-0.5-1,0.6-1.6h0c0.4,0.1,0.6,0.4,0.8,0.8c0,0,0,0,0,0c0.1,0.3,0.1,0.6,0.2,0.9c0,0,0,0,0,0
			c0,0.3,0,0.6,0,0.8c0,0,0,0,0,0.1c0,0.1,0,0.2,0,0.3c0-0.1,0-0.1,0-0.1c0,0,0,0,0,0c0,0,0,0,0,0c0,0,0,0,0,0c0,0,0,0.1,0,0.1
			c0,0,0,0.1,0,0.1c0,0,0,0.1,0,0.1c0,0.1,0,0.1,0,0.2c0,0.1,0,0.1,0,0.2c0,0.1,0,0.2,0,0.3c0,0.5,0,1.1,0,1.8
			c-0.1,0.6-0.5,1.5-1.1,2.2c0,0-0.3,0.5-0.5,1.2c0,0.1,0.1,0.5,0.3,0.3c0.2-0.2,1-1.3,1.3-1.2c-0.1,1.6-0.1,3.2-0.2,4.6
			c0,0.4-0.1,1-0.1,1.6l0,0c0,0-0.3,2-1,2.6c0,0-0.4,0.4,0,1c0,0,0.3,1.2,0.4,1.9c-0.3,3.5-0.4,7.3,0.7,9.7c0.2,0.4,0.4,0.8,0.6,1.1
			c0.5,1.3,0.3,2.5,0.3,2.5s0.3,2.6,0.5,0.7c0.2-1.3,0.8-1.8,1.1-1.9c0.4,0.1,0.9,0.2,1.4,0.1c1,0-0.2-1.5,0.5-1.6
			c0.7-0.1,0.9,1,1.4,0.5c0.8-0.9,1-2.4,0.9-4l0.1,0.1c0,0,0.3-2.1,0.8-2.4c0.6-0.3,1.3-1.5,1.1-2.1c-0.1-0.6-0.5-0.3-0.9,0.3
			c-0.3,0.7-0.8,1.9-1.4,0.3c0-0.1-0.1-0.2-0.1-0.2c0-0.1,0-0.3,0-0.4c0-0.2-0.1-0.5-0.1-0.9c0.3-1,0.8-1.9,0.8-1.9
			c1.4-0.9,0.4-3.6,0.4-3.6c-0.7-0.2-1.2-1.1-1.5-1.7c0.1-0.1,0.2-0.1,0.4-0.1c0.5,0.2,0.9-0.3,1.3-0.7c0.4-0.4,0.2-0.7-0.1-0.2
			c-0.3,0.4-0.6,0.1-0.6,0.1c-0.6-0.3-1-1-1.2-1.5c0.1-1.1,0.4-1.1,0.4-2.6c0-1.1-0.7-1.3-0.8-2.4c0-0.3,0-0.6,0-0.9
			c0-0.1,0-0.2,0-0.3c0-0.2,0-0.4,0-0.5c0-0.1,0-0.2,0-0.4c0-0.2,0-0.3,0-0.5c0-0.1,0-0.2,0-0.3c0-0.3,0-0.5,0-0.7
			c0-0.1,0-0.1,0-0.2c0-0.2,0-0.3,0-0.5c0-0.1,0-0.2,0-0.2c0-0.2,0-0.3,0-0.5c0-0.1,0-0.1,0-0.2c0-0.2,0-0.4,0-0.6c0,0,0-0.1,0-0.1
			c0-0.1,0-0.3,0-0.4c0.1-0.5,0.1-0.9,0.2-1.1c0,0,0,0,0,0c0-0.1,0.1-0.1,0.1-0.2c0,0,0,0,0,0c0,0,0.1-0.1,0.1,0l0.4-0.1
			c0.1,0.2,0.2,0.4,0.3,0.5c0,0,0,0.1,0.1,0.1c0.1,0.1,0.2,0.2,0.2,0.3c0,0,0,0,0,0c0.1,0.1,0.2,0.1,0.2,0.2c0,0,0,0,0,0
			c0.1,0,0.2,0,0.2,0c0.2-0.1,0.3-0.3,0.2-0.8c0-0.1,0-0.3-0.1-0.5c-0.1-0.3-0.1-0.6-0.1-0.8c0-0.1,0-0.3,0-0.4c0-0.1,0-0.2,0-0.3
			c0-0.2,0.1-0.3,0.1-0.4c0,0,0,0,0-0.1c0.1-0.1,0.2-0.3,0.2-0.4c0.4-0.5,1.1-0.6,1.6-0.5c2,0.1,2.6,1.9,2.7,3.3
			c0,0.8-0.1,2.5-0.6,2.8c-0.6,0.4-0.6,0.9,0,1.4s0.5,1.8,0.5,1.8s-0.5,1-0.3,1.4c0.2,0.5,0.4,0.8,0.4,1.6c0,1.8-4.1-1.2-0.2,3.2
			c0.1,0.2,0.2,0.4,0.2,0.7c-0.1,0.7-0.4,1.4-0.8,1.7c0,0-0.7,0.1-0.7,0.7s0.2,0.8,0.7,0.4c0.6-0.4,0.9,0.1,1,0.4c0,2.5,0,5.2,0,7.8
			l0,0c0,0.2,0,0.4,0,0.6c0,0.5,0,1,0,1.4c0,0.6,0,1.2,0,1.8c0,0.1,0,0.2,0,0.3C79,78.3,78.5,79.6,77.4,78.1z"/>
		<ellipse cx="70.9" cy="84.2" rx="0.2" ry="0.5"/>
		<path d="M63.9,53.4c0,0.2,0.1,0.4,0.1,0.6c0,0.2,0,0.3-0.1,0.4c-0.1,0.3-0.4,0.4-0.9,0.6c0.2,0.1,0.4,0.2,0.7,0.1
			c0.2,0,0.5-0.2,0.7-0.4c0.2-0.2,0.2-0.6,0-0.8C64.3,53.6,64.2,53.5,63.9,53.4z"/>
		<path d="M66.5,79.9c-0.2-0.3-0.3-0.7-0.4-1.1c-0.2-0.8-0.3-1.6-0.5-2.4c-0.1,0.4-0.2,0.8-0.2,1.3c0,0.4,0,0.9,0.2,1.3
			c0.1,0.4,0.3,0.9,0.6,1.2c0.3,0.3,0.7,0.6,1.2,0.6C67,80.6,66.7,80.3,66.5,79.9z"/>
		<path d="M62.5,78.1c-0.1,0-0.2,0.2-0.2,0.3s0.1,0.3,0.2,0.3s0.2-0.2,0.2-0.3S62.7,78.1,62.5,78.1z"/>
		<path d="M74.1,51c-0.2,0-0.8-0.5-0.7-0.3c0,0.2,0.6,0.9,0.8,0.9c0.2,0,0.5-0.9,0.5-1.1C74.7,50.2,74.3,51,74.1,51z"/>
		<path d="M78.5,76.1l0,1.1c0,0.3,0,0.7-0.1,1c0,0.1-0.1,0.1-0.3,0c-0.1-0.1-0.3-0.2-0.4-0.4c0.1,0.2,0.1,0.3,0.3,0.5
			c0.1,0.1,0.1,0.2,0.3,0.2c0.2,0,0.3-0.1,0.3-0.2c0.2-0.4,0.2-0.7,0.2-1.1c0-0.7,0-1.4-0.2-2.1C78.6,75.4,78.5,75.8,78.5,76.1z"/>
		<path d="M78,65.9c0.2-0.3-0.7,0.3-1,0.2s-0.1-1.3-0.3-0.9c-0.2,0.3-0.4,1.3-0.1,1.4C76.9,66.7,77.9,66.2,78,65.9z"/>
		<path d="M77,77c-0.2,0-0.4,0.2-0.4,0.4c0,0.2,0.2,0.4,0.4,0.4c0.2,0,0.4-0.2,0.4-0.4C77.4,77.1,77.2,77,77,77z"/>
		<path d="M77.7,47.7c0.2,0.2,0.3,0.5,0.5,0.8c0-0.2,0-0.3-0.1-0.5c0-0.2-0.1-0.3-0.2-0.5c-0.2-0.3-0.4-0.6-0.7-0.8
			c-0.3-0.2-0.7-0.2-1-0.1c-0.3,0.1-0.6,0.3-0.8,0.5c0.6-0.2,1.2-0.4,1.7-0.1C77.4,47.2,77.5,47.4,77.7,47.7z"/>
	</g>
	<g>
		<path d="M119.5,68.2c0.1-0.2,0.1-0.5,0.2-0.7C119.6,67.6,119.6,67.8,119.5,68.2z"/>
		<path d="M137.4,57.8c0.1-0.6,0.3-1.8,0-3.2c-0.2-2.9-0.6-9.6,0.5-12.1c0.6-1.2-0.3-2.6-1-2.5c0,0-2.3-0.8-1.1,2.1
			c1.2,2.9-0.4,6.6-1.5,6c0,0-1.1-1.1-1.2-2.1c-0.1-1.2-0.5-5.2,0.1-6.2c0.6-0.9,0.7-2.5-0.9-3.1c-1.6-0.6-1.9,0.7-1.2,2.2
			c0.7,1.4,0.9,8-1.2,7.4c0,0-0.8,0.4-1.5-0.6c-1.6-2.4-0.6-9-0.3-9.3c0.3-0.3,1.2-1.8-0.1-2.1c-1.3-0.3-2.9,0.3-1.9,2
			c0.9,1.7-0.1,10.4-0.5,11.1l-0.4,3.1c-0.6,0.9-0.9,2.2-1.1,3.6c-0.3,0-0.6,0-0.8-0.1c-0.4-0.2-0.7-0.9-0.9-1.4
			c0.3-0.8,0.7-2.1,0.8-3.4c0,0,0,0,0,0c0-0.1,0-0.3,0-0.5c0-0.4,0-0.9,0-1.3c-0.2-3.7-1-11.4-0.3-13.2c0.9-2.2-1.2-2.8-1.2-2.8
			c-0.8,0.1-0.9,1.2-0.3,2c0.3,0.4-0.1,7.2-0.7,7.9c-0.6,0.6-1.2,0.2-1.8-0.4c-0.8-3-1.3-7.8-1-8.9c0.4-1.5-0.5-2.3-1.6-2.3
			s0,1.7,0,1.7c0.5,1.2,0.3,3.9-0.2,5.6c-0.7,2.4-1.2,2.7-3.5,1.6c-1-0.5-2-5.7-1.2-7.7c0.8-2-0.3-2.2-1.1-2.4
			c-1.7-0.5-0.7,1.6-0.5,2.2c0.9,2.3-0.1,9-0.5,11.7c-0.7,2.1-1.3,6.6,0,17.6c-0.2,8.8-0.5,18.7-0.7,20c-0.5,1.8,0.8,3.5,1.4,4.3
			c0.3,0.6,1.2,2.4,1.8,4.2c1.1,2.9,3.1,2.9,3.7,2.9c1.4-0.1,2.6-1.3,2.9-2.9v0c0.1-0.4,0.1-1,0.2-2.1c0.1-1.1,0.3-3.7,0.6-5.4
			c1.1,2.3,2.6,2.8,3.6,2.7c1,0,1.9-0.6,2.5-1.3c-0.5,7.5,0.1,8.7,0.3,9.1c0.6,1.2,2.7,2.8,5.1,2.8c0.6,0,1.3-0.1,1.9-0.4
			c0.4-0.2,1,0,1.6,0.1c0.8,0.2,1.9,0.4,2.9-0.3c0.6-0.4,0.9-1,1-1.8C138.4,90.4,137.7,67.8,137.4,57.8z M134.9,88.4l-0.1,0.5l0,0.2
			c-0.1,0.4-0.1,0.5-0.2,0.6c-0.2,0.1-0.3,0.2-0.4,0.2c-0.1,0-0.1,0.1-0.1,0.1c0,0-0.1,0-0.2,0c-0.4-0.2-0.7-0.5-0.7-0.9
			c-0.4-1.8-1.1-2.5-1.2-1.4c-0.1,0.6-1,1.5-1.8,2.2c0,0,0,0,0,0c-0.7-0.3-0.8-1.3-0.8-2.4l0-0.1c0-0.7,0.1-1.7,0.2-2.8
			c0.4-4.1,0.9-9.1-2.1-10.9c-0.1,0-0.1-0.1-0.2-0.1l-0.6-0.6c-1-2.3-1.4-1.8-1.4-1.8c0.9,1.3,0.9,2.3,0.8,2.9
			c0,0.1-0.1,0.2-0.1,0.3c0,0.1,0,0.1,0,0.2c0,0.1-0.1,0.2-0.1,0.2l0.1,0c0,0.4-0.1,0.7-0.1,1c-0.5,0.4-1.1,0.9-1.1,0.4
			c0,0-1.2-1.3-0.8,0.6c0.2,0.9,1,1.7,0.7,2.3c-0.3,0.3-0.7,0.6-1.3,0.7c-1.3-0.4-1.4-0.8-1.5-1.6c-0.1-0.5-0.2-1.1-0.6-1.7
			c-0.9-2.2-0.8-3.5-0.8-4c0-0.3,0-0.7-0.3-1.1c-0.1-0.1-0.2-0.2-0.4-0.2c-0.6-0.8-0.4-2.1-0.3-2.8c-0.4,1.1-1.2,2.8-1.6,3.6
			c-0.3,0.3-0.4,0.7-0.6,1.3l0,0c0,0,0,0,0,0.1c-0.1,0.3-0.1,0.6-0.2,1c-0.2,0.8-0.6,1.9-1.3,2.1c-1,0.3-0.6,1.1,0,1.4
			c1,0.4,0.4,2.3,0.4,2.3l0.5,1.2c-0.1,2.1-0.2,4.2-0.4,5.1c-0.2,0.9-0.6,1.4-0.8,1.4l-0.6-0.1c-0.4-1.4-0.8-2.3-1.6-3.3
			c0.1-0.7,0.2-1.3,0.2-1.3c0.1-3.3-0.5-1.6-0.5-1.1c0,0.4-0.8,0.7-0.9,0.7c-0.2-0.5-0.5-1.1-0.7-1.7c0.1-0.3,0.2-0.7,0.3-1
			c0.2-0.7,0.2-1.6,0.3-2.6c0.2-0.6,0.3-1.5,0.3-2.7c0.1-0.3,0.3-0.5,0.5-0.6c1.2-0.3,3.5-2.6,0.6-2.6c-0.7,0-1.1-0.4-1.3-0.9
			c-0.1-0.9-0.1-1.9-0.1-2.9c0.1-1.3,2.5-2.4,1.8-3.4c-0.4-0.7-0.8-3.1-0.9-3.7c0,0,0-0.1,0-0.1c0.7-0.8,1.5-4.5,1.5-4.5
			c0.6-4.6-0.3-2.2-0.3-2.2c-0.1,2.2-1,2.4-1.7,2.4c0,0,0-0.1-0.1-0.1c-0.9-1.4-0.8-2.7-0.5-3.5c0-0.1,0-0.1,0-0.1
			c0.1-0.5,0.2-1.3,0.3-2.2c0.3-4,0.8-5,1.1-5c0.2,0,0.3,0.1,0.6,0.5c0.3,0.4,0.7,0.9,1.4,1c0.1,0,0.2,0,0.3,0
			c0.5,0,0.8-0.2,1.1-0.3c0.1-0.1,0.3-0.1,0.4-0.1c0,0,0.1,0,0.4,0.2c0.3,0.2,0.4,0.4,0.6,0.6c0.1,0.4,0,0.9-0.3,1
			c-0.9,0.3-0.8,1.2-0.3,1.2s1.2,0.3,1.4,1.6l0.1-0.1c0,0,0,0,0,0.1c0,0,0,0,0,0c0,0.6-0.1,1.4-0.2,2.2c0,0.3-0.1,0.6-0.1,0.9l0,0
			c0,0-0.1,0.3-0.2,0.9c-0.3,0.8-1.5-0.7-2.1-0.9c-0.4-0.1,0.1,1.9,0.9,2.3c1,0.6,1.2,3.7,1.2,3.7l0-0.1c0,0.1,0,0.2,0,0.3
			c0,0,0.7,1.3,0.7-0.7c0-0.9,0.3-1.2,0.6-1.4c0.2,0.1,0.3,0.1,0.5,0.1c0.4,0,0.8-0.2,1.2-0.4c0.4-0.2,0.7-0.4,1.2-0.4
			c0.1,0,0.1,0,0.2,0c0.7,0.1,1,0.5,1.1,0.7c0.2,0.3,0.2,0.7,0.1,0.8c-0.4,0.7-0.3,1.7,0.3,2.7c0.5,0.9,1.5,1.9,2.5,1.9
			c0.6,0,1.2-0.4,1.4-1.1c0-0.1,0.1-0.3,0-0.4c-0.3-2-0.4-3.3-0.4-4.1l0.1,0.1c1.4-1.2,2.2-0.6,2.2-0.6c-0.9-0.6-1.2-2.6-1.2-3.1
			c0,0,0,0,0-0.1c0.2-0.3,0.4-0.5,0.5-0.5c0,0,0.1,0,0.3,0.1c0.1,0.1,0.3,0.1,0.4,0.1c0.3,0,0.7-0.2,0.8-0.5c0,0,0.2-0.4,0.7-0.7
			l0.4,0.4c0,0,0,0,0.1,0.1c0,0.1,0,0.1,0.1,0.2c0.2,0.5,0.5,1.5,1.9,1.7c0,0,0.2,0.1,0.5,0.7c-0.3,2-0.8,4.3-1.6,3.9
			c-1.5-0.7-1.1,1.1-0.5,1.2c0.6,0.1,2.1-1.6,2,1.9c0,1.1,0.1,1.8,0.2,2.2c-1,3.7-2.6,3-2.6,3s-2.4,0.8,0,1.6
			c1.5,0.5,2.1,2.8,2.3,4.7c0,0.2,0,0.3,0,0.5c0,0,0,0.1,0,0.1c0.1,0.4,0.1,0.8,0.2,1.2c0,0.5,0,0.8,0,0.8s0-0.2,0-0.5
			c0,0.3,0.1,0.6,0.1,0.9l0,0.4c0,1.5-0.7,1.5-1.4,2.7c-1.6,2.8,0.5-0.3,1.2-0.2c0.2,0,0.4,0.6,0.5,1.3
			C134.9,84,134.9,86.3,134.9,88.4z"/>
		<path d="M130.1,74.2c-0.4-0.6-1-1.1-1.6-1.4c0.6,0.4,1.1,0.9,1.4,1.5c0.4,0.6,0.6,1.2,0.8,1.9c0.2,0.7,0.2,1.4,0.3,2.1l0,1l-0.1,1
			l0.2-1c0-0.3,0.1-0.7,0.1-1.1c0-0.7,0-1.4-0.2-2.1C130.7,75.5,130.5,74.8,130.1,74.2z"/>
		<path d="M129.6,64.8c0.1-0.3,0.1-0.6,0.1-0.9c0-0.6-0.2-1.1-0.4-1.6c0,0.5-0.1,1-0.2,1.5c-0.1,0.5-0.3,0.9-0.5,1.1
			c-0.3,0.2-0.7,0.3-1.1,0.2c-0.4-0.1-0.9-0.3-1.3-0.6c0.2,0.5,0.6,1,1.1,1.2c0.6,0.2,1.3,0.1,1.8-0.3
			C129.3,65.4,129.5,65.1,129.6,64.8z"/>
		<path d="M118.7,61.5c-0.2,0-0.3,0.2-0.4,0.4c0,0.1,0,0.2,0,0.3s0,0.2,0,0.3c0.1,0.2,0.2,0.4,0.4,0.4c0.3,0,0.5-0.3,0.5-0.7
			S119,61.5,118.7,61.5z"/>
		<path d="M130.3,55.2c0-0.3-0.2-0.5-0.5-0.5s-0.5,0.2-0.5,0.5c0,0.3,0.2,0.5,0.5,0.5S130.3,55.5,130.3,55.2z"/>
		<path d="M114.3,46.9c-0.2-0.2-0.3-0.5-0.7-0.6c-0.1,0-0.3,0-0.4,0.1c-0.1,0.1-0.2,0.2-0.2,0.2c-0.1,0.2-0.1,0.3-0.1,0.5
			c-0.1,1.2,0.1,2.2,0,3.3c0.2-0.5,0.2-1.1,0.2-1.6c0-0.5,0.1-1.1,0.1-1.6c0-0.1,0.1-0.3,0.1-0.3c0.1-0.1,0-0.1,0.1-0.1
			c0.1,0.1,0.3,0.3,0.5,0.5c0.2,0.2,0.5,0.4,0.8,0.4c0.3,0,0.6-0.2,0.8-0.4C115.1,47.5,114.6,47.3,114.3,46.9z"/>
		<path d="M117.2,53.6c0.2,0,0.3,0,0.4-0.1c0.2-0.1,0.4-0.4,0.4-0.7c0-0.3-0.1-0.5-0.3-0.6c0,0.2,0,0.4-0.1,0.5
			c-0.1,0.1-0.1,0.2-0.3,0.3c-0.2,0-0.1,0.1-0.3,0c-0.1-0.1-0.3-0.3-0.6-0.3c0.1,0.2,0.1,0.4,0.2,0.6
			C116.9,53.4,117,53.5,117.2,53.6z"/>
		<path d="M115.4,86.7c0.3,0,1-3.2,0.5-2.2c-0.5,0.9-0.4,0.8-1.5-0.1C113.3,83.4,115.1,86.7,115.4,86.7z"/>
	</g>
	<linearGradient id="SVGID_9_" gradientUnits="userSpaceOnUse" x1="147.4844" y1="90.9818" x2="152.5877" y2="62.0393">
		<stop  offset="0" style="stop-color:#C3D100"/>
		<stop  offset="0.9" style="stop-color:#6C853F"/>
	</linearGradient>
	<path class="st12" d="M158.5,81.4c0.1-1.1,0.2-1.7,0.2-2.1c0.1-0.5,0.1-0.8,0.1-1.8c0-0.2-0.2-0.3-0.6-0.7c-0.4-0.3-1-0.7-1.1-1.5
		c-0.1-0.5,0.1-1.1,0.5-1.7c0.5-1,0.1-1.8-0.7-2.9l-0.1-0.2l-1.7-2.3c0,0,0,0,0,0c-0.1-0.1-0.2-0.2-0.3-0.3c-0.1,0-0.1,0-0.2-0.1
		c-0.3-0.1-0.6-0.2-1.2-0.6c-0.1,0.2-0.2,0.4-0.2,0.8c0,0.5-0.1,0.9-0.2,1.3c-0.2,0.9-0.2,1.5,0.1,2.7c0.1,0.2,0.1,0.4,0,0.6
		c-0.1,0.4-0.2,0.7-0.2,1.1c0,0.1,0,0.2,0,0.3c0,0.4-0.1,0.8-0.1,1.2c0,0,0,0,0,0c0,0.1,0,0.2,0.1,0.5c0.2,2.2,0.5,3.2,0.9,3.3
		c0.3,0.1,0.6-0.1,0.8-0.2c0.1-0.1,0.1-0.3,0.2-0.4c0-0.1,0.1-0.2,0.1-0.3c0-0.1,0.2-0.2,0.3-0.2c-0.1,0-0.2,0.1-0.2,0.2
		c0,0.1,0,0.2,0,0.3c0,0.2-0.1,0.4-0.2,0.7l0,0c0,0,0,0,0,0c-0.1,0.7-0.2,1.2-0.6,1.7c-0.1,0.1-0.2,0.5-0.3,1
		c0.1,0.4,0.5,1.5,0.3,1.8c0,0-0.1,0.2-0.6,1c-0.1,0.8,0,1.8,0.5,2.6c1.6,2.7,0.6,2.5,0.6,2.4c-0.3-0.8-2.9-1.7-4-2.1
		c-2.1-0.4-3.1-1.4-3.7-2.8c-0.3-0.1-0.8,0.1-1.2,1.4c0,0-0.4-0.5,0.4-1.9l0.2-2.6c0-0.4,0-0.8,0-1.1c0-0.6,0-1.1-0.1-1.7
		c0,0,0-0.1,0-0.1c0.1-1.9-0.1-3-0.2-3.8c-0.1-0.7-0.2-1.4-0.1-2.3c-0.1-0.3-0.3-0.6-0.6-0.9c-1.9-1.3-0.9-2.5-0.5-1.7
		c0.9,1.7,1.2,0.5,1.3-0.6c0-0.2,0-0.4,0-0.6l0-0.7c0,0,0,0.2,0,0.5c0-0.3,0-0.6,0.1-0.9c0-0.3,0.1-0.6,0.1-1c0-1.1-0.1-1.5-0.2-1.9
		c-0.1-0.2-0.2-0.5-0.2-0.8c-0.2-0.4-0.5-0.8-0.7-1.2c0,0-0.1,0-0.1,0c-0.1,0.1-0.2,0.1-0.4,0.1c-0.1,0-0.2,0-0.3,0
		c-1.3,0-1.6-1.2-1.8-1.9c-0.1-0.2-0.1-0.5-0.2-0.6l-0.2,0c-0.2,0.6-0.4,1.4-0.4,1.9c0,0.1,0,0.2-0.1,0.3c0,0,0,0.1,0,0.2
		c0,0,0,0,0,0.1c0,0.1,0,0.1,0,0.2c0,0,0,0,0,0.1c0,0.1,0,0.2,0,0.3c0,0,0,0,0,0c0,0.1,0,0.3,0,0.4c0,0,0,0,0,0
		c-0.1,0.7-0.1,1.5-0.2,2.5c0.1,0.5,0.3,1.1,0.8,1.2c0.8,0.3,0.4,1.3-0.2,1.3c-0.4,0-0.5,0.9-0.6,1.4c0.1,0.4,0.2,0.9,0.6,1.1
		c0.9,0.5,1.7,2.7-0.1,0.5c-0.4-0.4-0.3,0.2-0.4,0.6c0.3,1.2,0.8,3,1.2,3.4c0.7,0.6,1.6,2.1,0.1,2.3c-1.3,0.2-0.5,4.7-0.3,5.8
		c0.3,1.5,0.7,2.8,1,3.7c0,0,0,0,0,0c0.6,1.6,1.4,2.5,2.1,2.7c0.3-0.1,0.7-0.4,0.4-1.3c-0.3-1.4,1.7-0.8,1,0.1
		c-0.7,0.8-0.6,1.5,0,1.8c0.1,0,0.3,0.1,0.4,0.1c0,0,0,0,0,0c0.1,0,0.3,0,0.4,0c0.6,0,1.3-0.2,1.9-0.5c0.7-0.3,1.5-0.6,2.3-0.6
		c0.9,0,1.7,0.3,2.5,1c0.1,0.1,0.2,0.3,0.3,0.5c0.1,0,0.3,0.1,0.6,0.1c0.2,0,0.4,0,0.4,0c0,0,0.1,0,0.1,0c0.4-0.1,0.7-0.1,0.9-0.1
		c0.1,0,0.1,0,0.2,0c0,0,0.1,0,0.3-0.2c0-0.1,0.1-0.3,0.1-0.3c0.1-0.3,0.2-0.5,0.4-0.7c0.2-0.6,0.6-1.1,0.9-1.5
		c0.4-0.5,0.7-0.9,0.8-1.6C157.6,86.1,157.4,84.5,158.5,81.4z M144.4,64.4c0,0.4,0.1,0.7,0.2,1c0.1,0.3,0.2,0.5,0.5,0.6
		c0.2,0.1,0.4,0.2,0.5,0.4c0.2,0.2,0.2,0.5,0.1,0.7c-0.1,0.4-0.3,0.7-0.5,1c0-0.4,0.1-0.7,0.1-1c0-0.2,0-0.3-0.1-0.3
		c-0.1-0.1-0.2-0.1-0.4-0.2c-0.2-0.1-0.4-0.2-0.5-0.4c-0.1-0.2-0.2-0.4-0.2-0.6C144.2,65.1,144.2,64.7,144.4,64.4z M142.8,64.5
		c-0.3,0-0.9-0.1-0.7,0.5c0.1,0.2-0.3,0.1-0.3-0.6c0-0.3,0.4-0.4,0.6-0.4S143,64.5,142.8,64.5z M142.9,85.3
		c-0.2-0.5-0.3-1.1-0.4-1.6c-0.2-1.1-0.3-2.2-0.3-3.3c0.2,1.1,0.3,2.2,0.5,3.3c0.1,0.5,0.2,1.1,0.4,1.6c0.2,0.5,0.3,1.1,0.7,1.4
		C143.3,86.4,143.1,85.8,142.9,85.3z M153.2,74.6c0.1-0.5,0.2-1.1,0.3-1.6c-0.1,0.5-0.2,1.1-0.2,1.6c0,0.3-0.1,0.5-0.1,0.8
		c0,0.3,0,0.5,0.1,0.8c-0.2-0.2-0.2-0.5-0.2-0.8C153.2,75.2,153.2,74.9,153.2,74.6z M153.5,77.1c-0.1,0-0.2-0.1-0.2-0.3
		s0.1-0.3,0.2-0.3s0.2,0.1,0.2,0.3S153.6,77.1,153.5,77.1z M153.9,69.6c0,0.7-0.2,1.5-0.4,1.1s-0.2-0.5-0.2-0.8c0,0,0.1-1.9,0.4-1.8
		s0.9,0.1,1.5,0.7C155.1,68.8,153.8,68.5,153.9,69.6z M155.3,90.7c-0.1,0.1-0.9-0.4-1-0.6s0.5,0,0.6,0c0.1-0.1,0.2-0.8,0.4-0.5
		C155.4,89.7,155.4,90.6,155.3,90.7z M158.4,78.4c0,0.3,0,0.5-0.1,0.8c-0.1,0.3-0.2,0.5-0.3,0.7c0.1-0.5,0.2-1,0.1-1.5
		c0-0.5-0.2-1-0.6-1.3C158.1,77.3,158.3,77.8,158.4,78.4z M158.3,87.9c0.1-0.3,0.1-0.5,0.1-0.7c-0.1-0.2-0.2-0.4-0.4-0.7
		c0.3,0,0.6,0.2,0.7,0.5c0.1,0.2,0.1,0.4,0,0.5C158.6,87.8,158.5,87.9,158.3,87.9z"/>
	<g>
		<path d="M74.1,113.7c-1.3,0-1.4-0.5-1.7-1.7c-0.1-0.3-0.2-0.6-0.3-0.9c0-0.1,0-0.3-0.1-0.4l0,0c0,0-1.2-4.8-1.2-3.8
			c0.1,2.5-0.7,3.9-0.7,3.9l0,0c0,0,0,0.1,0,0.1c-0.2,0.9-0.9,1.9-1.5,2.5c-0.3,0.3-0.6,0.6-0.9,0.8c-0.8,0.4-2.5,1-2.7,0.3
			c-0.3-1-0.2-2.7-0.5-1.2c-0.3,1.5-0.4,2.3,0.3,3.1c0.3,0.4,0.4,0.8,0.4,1.3c-0.5,1.4-0.5,3,0.4,5c0,0.1,0,0.1,0,0.2
			c0,0.2,0,0.5,0,0.7c-0.1,0.4-0.4,0.7-0.9,0.8c-0.9,0.2,0,1.4,0.6,1.7c0.3,0.1,0.5,0.4,0.7,0.6c0.2,0.9,0.5,1.8,0.8,2.6
			c0.2,0.5,0.3,0.9,0.4,1.3c0.5,1.8,1.4,3.9,3,3.9c0.5,0,1.1-0.2,1.5-0.7c0.2-0.2,0.5-0.6,0.7-1c0.5-0.3,1.1-0.3,1.3,0.9
			c0,0-0.8,1.4-0.2,1.4c0.6,0,1.2-2.3,1.2-2.3s-1-1.5-0.9-3.7c0.9-3.2,1.4-6.9,1.3-8.4c0-0.5,0.1-1.3,0.1-2.1c0.2-2.9,0.2-4-0.3-4.6
			C74.7,113.8,74.4,113.7,74.1,113.7z M71.7,123.5c-0.1,1.4-0.2,2.9-0.5,4.2c-0.2,0.7-0.3,1.3-0.6,1.9c-0.1,0.3-0.3,0.5-0.4,0.7
			c-0.1,0.1-0.2,0.2-0.2,0.2c0,0,0,0,0,0c-0.3-0.1-0.7-0.4-0.9-0.9c-0.3-0.6-0.4-1.5-0.5-2.3c-0.1-0.8-0.1-1.7,0-2.5
			c0.1-0.8,0.1-1.7,0.3-2.5c0-0.1,0-0.1,0-0.2l0,0c0-0.6,0-1.1,0.1-1.7c0.1-0.5,0.1-1.1,0.3-1.6c0.1-0.5,0.3-1,0.6-1.3
			c0.1-0.2,0.3-0.4,0.4-0.5c0.1-0.1,0.2-0.1,0.2-0.2c0,0,0,0,0,0c0.5,0.1,0.8,0.3,1,0.5c0,0.1,0.1,0.1,0.1,0.2c0,0,0,0.1,0,0.1
			l0,0.3l0.1,1.1C71.7,120.6,71.7,122,71.7,123.5z"/>
		<path d="M83.4,109.7c0-0.7-0.1-1.3-0.2-2c0-0.3-0.1-0.7-0.2-1.1c-0.1-0.4-0.2-0.8-0.6-1.3c-1-1.2-1.8-2.7-2.5-4.3
			c-0.2-0.4-0.3-0.8-0.4-1.2l-0.2-0.6c-0.2-0.5-0.4-0.7-0.6-0.9c-0.8-0.8-1.7-1.2-2.6-1.6c-1.8-0.7-3.6-1.1-5.5-1.1
			c-1.9,0-3.9,0.5-5.5,1.7c-0.8,0.4-1.4,0.9-2,1.5c-0.6,0.6-1.2,1.3-1.7,2c-1,1.4-1.7,2.9-2.2,4.5c-1,3.2-1.3,6.5-1.3,9.7
			c0,3.2,0.2,6.4,0.5,9.6c0.3,3.2,0.6,6.4,1.1,9.5c0.5,3.2,1.1,6.3,2.4,9.4c0.1,0.3,0.3,0.6,0.5,0.9c0.5,2.1,1.6,7.2,0.3,9.6
			c-0.7,1.2-0.1,2.9,0.6,2.9c0,0,2.4,0.7,1.5-2.2c-0.9-3,1.1-6.1,1.8-5.7c0,0,1.6,0,3,2.2c0.6,1,0.7,5.3,0,6.2
			c-0.7,0.9-0.9,2.4,0.6,3.1s2-0.5,1.4-2c-0.5-1.5-0.3-7.9,0.4-7.5c0,0,2-1.4,4,0.7c2,2.1,0.9,8.5,0.6,8.8s-1.4,1.7-0.1,2.1
			c1.3,0.4,2.9-0.1,2.1-1.9c-0.8-1.8,0.7-9.4,1.2-10l1.3-7.6c0.1-0.3,0.2-0.7,0.3-1c0.3-1.6,0.5-3.2,0.5-4.9
			c0.5-5.2,1-10.4,1.4-15.6c0.2-2.6,0.3-5.2,0.3-7.9C83.5,112.3,83.5,111,83.4,109.7z M80.2,117.9c0,0.1-0.1,0.2-0.1,0.4
			c-0.1,0.3-0.5,0.9-1.3,0.6c0,0-0.5,0-0.4-0.9s-1.1,0.2-0.3,1.6c0.7,1.4,1.2,2.3,1.2,2.3l0.1-0.1c-0.1,1.1,0,2.4,0.4,4
			c1.1,4-0.4,10.7-5.2,16c-0.1,0.1-0.1,0.1-0.2,0.2c0,0,0,0,0,0c-0.1-0.1-0.2-0.3-0.4-0.5c-0.2-0.3-0.4-0.4-0.7-0.5l0.1-0.1
			c0,0-0.1,0.2-0.5-0.4c-0.3-0.6-0.6-0.8-0.6-0.7c0,0.2-0.2,0.8-0.2,1.4c0,0.3,0,0.5,0.1,0.7c0,0.1,0,0.2,0,0.3l0.1,0.4
			c-0.1,0.1-0.2,0.2-0.3,0.3c-0.2,0-0.3,0-0.5,0c-0.6,0-0.9-0.1-1.3-0.3c-0.6-0.5-1.1-0.9-1.7-1.3c-1.3-0.9-2.4-1.7-3-2.8
			c-0.1-0.6-0.3-1.9,0-2.5c0.4-0.9-0.5-1.9-1.5-2.2c-0.7-0.2-1.3-1.5-1.6-2.4c-0.4-1.2-0.7-2.5-1-3.7l0,0c0,0,0-0.1-0.1-0.2
			c-0.1-0.7-0.3-1.4-0.4-2.1c-0.1-0.9,0-1.9,0.5-2.5c1.1-1.3,0.2-3.1,0.2-3.1c-0.8-0.2-1.1-1.2-1.1-2.2c0.2-3.2,0.7-5.7,1.7-6.9
			c0.4-0.4,0.3-1-0.1-1.4c-0.5-0.5-0.1-1.3,0.9-2.6c0.5-0.5,1.9-1.6,2.7,1.1c0,0,0.5-0.5,0.5-2.7c0.1-1.3-0.3-1.9-0.4-2.5
			c0-0.1,0-0.3,0-0.4c0-1.7,1.5-2.8,2.4-2.8c0.1,0,0.2,0,0.3,0.1c0.8,0.3,0.9,0.3,1.3,1.1c0.2,0.6,0.6,1.6,0.4,2.1
			c-0.3,0.8,0,1.4,1.1-0.5c0.3-0.6,0.5-0.9,0.6-1.1c0,0,0,0,0.1,0c0.4,0.1,1.2,0.5,2.4,1.3c0,0,0.1,0.1,0.1,0.1
			c0.6,3.7,1.8,5,2.9,6.1C79.1,109.8,80.3,111,80.2,117.9z"/>
		<path d="M67.4,132.9c-0.5-1.1-1-2.3-1.5-3.5c-0.1,1.3,0.2,2.6,0.7,3.8c0.3,0.6,0.7,1.2,1.3,1.6c0.6,0.4,1.5,0.4,2,0
			c-0.7,0-1.2-0.2-1.6-0.6C67.9,134,67.6,133.5,67.4,132.9z"/>
		<path d="M79.3,130.9c0.1-0.7,0.2-1.5,0.1-2.2c0-0.7-0.1-1.5-0.4-2.2c0,0.7,0,1.5-0.1,2.2c-0.1,0.7-0.1,1.5-0.2,2.2
			c-0.1,0.7-0.3,1.4-0.4,2.1c-0.2,0.7-0.4,1.4-0.7,2.1C78.6,133.8,79.1,132.3,79.3,130.9z"/>
		<path d="M66.1,137c-0.2,0.2-0.3,0.4-0.4,0.7c-0.1,0.3,0,0.6,0.2,0.8c0.1,0.3,0.4,0.4,0.6,0.5c0.2,0.1,0.5,0.2,0.8,0.1
			c-0.3-0.4-0.7-0.7-0.9-1C66.1,137.8,66,137.5,66.1,137z"/>
		<path d="M74.4,112.8c0,0,0.8-0.2,0.1-0.4c-0.7-0.2-1.1-0.5-1.3-1c-0.2-0.5-0.5-1.2-0.4-0.7C72.7,110.7,72.6,113.4,74.4,112.8z"/>
		<path d="M68,100.5c0.2-0.1,0.5-0.2,0.7-0.2c0.3,0,0.5,0,0.8,0.1c-0.2-0.2-0.5-0.4-0.8-0.4c-0.3,0-0.6,0.1-0.9,0.2
			c-0.5,0.3-0.9,0.8-1.1,1.3C67.1,101.2,67.5,100.8,68,100.5z"/>
		<path d="M64.7,112c0,0,0.1,0,0.2,0.1c0.1,0.1,0.2,0.3,0.3,0.4c0-0.2,0-0.4,0-0.6c0-0.1-0.1-0.2-0.2-0.3c-0.1-0.1-0.3-0.1-0.4-0.1
			c-0.3,0.1-0.4,0.3-0.5,0.4c-0.1,0.2-0.1,0.4-0.1,0.5c0.1-0.1,0.3-0.2,0.4-0.4C64.5,112.1,64.6,112,64.7,112z"/>
		<path d="M73,135.9c-0.1-0.1-0.2-0.3-0.3-0.5c-0.1-0.2-0.2-0.4-0.3-0.6c-0.1,0.2-0.1,0.5-0.1,0.7c0,0.2,0.1,0.5,0.3,0.7
			c0.1,0.1,0.3,0.2,0.5,0.2c0.2,0,0.3-0.1,0.4-0.2c0.2-0.2,0.3-0.4,0.4-0.6c-0.2,0.1-0.4,0.2-0.6,0.2C73.2,136,73.1,136,73,135.9z"
			/>
		<ellipse cx="69.7" cy="104.5" rx="0.5" ry="0.4"/>
	</g>
	<linearGradient id="SVGID_10_" gradientUnits="userSpaceOnUse" x1="120.1103" y1="146.0359" x2="120.1103" y2="98.5882">
		<stop  offset="2.801804e-03" style="stop-color:#6C853F"/>
		<stop  offset="0.1259" style="stop-color:#7C9334"/>
		<stop  offset="0.4652" style="stop-color:#A2B518"/>
		<stop  offset="0.7367" style="stop-color:#BAC906"/>
		<stop  offset="0.9048" style="stop-color:#C3D100"/>
	</linearGradient>
	<path class="st13" d="M129.1,137c-0.1-0.3-0.2-0.6-0.2-1l-0.1-0.2c-0.3-1.1-0.1-1.7,0.4-2.2c0-0.5,0-1-0.1-1.4c0-0.1,0-0.2,0-0.3
		c-0.2-0.7-0.8-1.5-1.3-2.1c-0.2-0.3-0.4-0.6-0.6-0.9l-0.4-0.6c-1.5-1.4-0.7-1.7-0.5-1.3c0.1,0.2,0.9,0.5,1.5,0.3
		c0.1,0,0.3-0.1,0.4-0.2c0.3-0.5,0.6-1.9,0.7-3.7c0-1.9,0-4.1,0-6.4c-0.1-0.9-0.2-1.8-0.4-2.6c-0.2-1.2-0.5-2.1-0.7-2.9
		c-0.7-2.5-1.1-4.2,1-6.1c0-1,0-1.7,0-1.7l0-0.1c0.1-0.5,0.1-1,0.1-1.4c-0.1-0.7-0.3-1.3-0.7-1.8c-0.5-0.9-1.1-1.5-1.6-1.7
		c-0.1-0.1-0.3-0.1-0.4-0.1c-0.4,0-0.8,0.2-1.4,0.8c-0.4,0.3-0.4,0.5,0.2,1.5c0.3,0.6,0.8,1.4,0.3,2.1c-1.1,1.5-1.3,5.1-1,7.8
		c0.1,0.4,0.3,0.7,0.6,1c0.3,0.3,0.8,0.8,0.6,1.6c-0.1,0.4-0.4,0.7-0.9,1c-0.1,0.4-0.2,0.9-0.4,1.5c-1.1,4.6-1.4,2.2-1.4,2.2
		c0.4-1.8-0.6-2.6-0.9-2.8c0,0-0.1,0-0.1,0c-0.6,0.4-1.2,0.6-1.7,0.7c-0.9,0.6-2,2.1-2,2.1s0.5,1.5-0.8,1c-1.3-0.5-0.5-1-0.2-1
		c0.3,0,0.3-1.7,0.3-1.7c0.2-0.3,0.2-0.5,0.2-0.8c-0.2-0.1-0.3-0.2-0.4-0.4c-0.9-1.1-1.2-2.9-0.8-5.7c0.1-0.5,0.2-0.8,0.2-1.1
		c0.1-0.4,0.1-0.5-0.3-1.8c-0.2-0.7-0.2-1.2-0.2-1.7c0-0.4,0-0.7-0.1-1.2c-0.1-0.2-0.4-0.9-0.6-1.2c0-0.1-0.1-0.2-0.1-0.3
		c-0.2-0.1-0.2-0.1-0.2-0.1c-0.1,0-0.4,0.2-1.3,1.5c-0.1,0.2-0.3,1-0.4,1.5c-0.2,1-0.4,1.5-0.6,1.8c0,0,0,0,0,0
		c-0.2,0.3-1,2-0.2,2.5c0,0,0.6,0.8,0.4,1.4c-0.3,1.2-0.3,0.5-0.5-0.2c-0.1-0.4-0.2-0.4-0.7-0.5c-0.5,0-0.7,0.4-0.7,0.4l-0.1,0.1
		c0,0.1,0,0.1-0.1,0.2l0,0.1c-0.1,1.5-0.4,4.9,1.4,5.6c0.3,0.1,0.6,0.4,0.6,0.8s-0.1,0.7-0.4,0.9c-1.2,0.9-2.9,4.1-1.1,15.5
		c0,0.1,0,0.2,0,0.3c0,0.3-0.1,0.7-0.1,1c0.1,0.8,0.2,1.7,0.5,1.5c2.9-1.9,1,1.1,0.1,1.9c-0.5,0.5-0.9,1.4-1.2,1.9
		c0,0.4-0.1,0.9-0.1,1.3c0.1,1.9,0.3,3.2,0.4,4l0.1,0c0.2-0.3,0.3-0.6,0.4-0.9c0.2-0.7,1.3-2.2,1.5-2.3c0.2-0.2,0.5-0.4,0.8-0.4
		c0,0,0,0,0,0c0.3,0,0.6,0.1,0.8,0.4c0.2,0.2,0.3,0.4,0.4,0.6c0,0.1,0.1,0.1,0.1,0.2c0-0.2,0-0.4-0.1-0.6c0-0.1,0-0.2,0-0.3
		c0.1-1.5,0.1-3.1,0-4.7c-0.1-2.4-0.2-5,0.4-7.5c-0.2-1.3-0.8-4.7,0.1-4.4c0.7,0.2,0.5,1.4,1.1,2.1l0.4,0.3c0,0,0,0,0,0
		c0.2,0.1,0.5,0.2,0.8,0.2c0.5,0,1-0.5,1.4-1.9l0.8-3.4c0,0,0.1,3.7,0.8,5c0.6,1.1,0.8,3.3,0.8,3.9c0.2,0.5,0.3,1,0.4,1.4
		c0.1,0.7,0.2,1.1,0.8,1.4c0.3,0.1,1.1,0.2,1.3-1.2c0.2-1.6,0.4,0,0.2,1s-0.8,2.4-0.8,2.4l0,0c-0.2,0.8-0.2,1.3,0.1,1.7l0.4,0
		c0.3,0,0.6,0.2,0.7,0.4c0.1,0.2,0.2,0.4,0.2,0.5l0.2,0.1c0.1,0.1,0.3,0.2,0.3,0.3c0.1,0,0.1,0.1,0.2,0.1c0.4,0.1,0.8,0.3,1.2,0.6
		c0.2,0.2,0.6,0.4,0.8,0.4c0,0,0.4-0.1,0.8-1.4c0-0.1,0.1-0.2,0.1-0.3c0.1-0.7,0.1-1.6,0.1-2.5C129.2,137.4,129.2,137.2,129.1,137z
		 M128.2,104.7c0.1-0.3,0.1-0.6,0.2-0.9c0-0.3,0-0.6,0-0.9c0-0.3-0.1-0.6-0.1-1c0.3,0.6,0.5,1.2,0.5,1.9c0,0.3-0.1,0.7-0.2,1
		c-0.2,0.3-0.4,0.6-0.8,0.6C127.9,105.3,128.1,105,128.2,104.7z M127.1,126.7c0.2,0.1,0.5,0,0.6-0.2c0.1-0.2,0.2-0.4,0.2-0.6
		c0.1-0.4,0.1-0.9,0.2-1.3c0.1-0.9,0.2-1.9,0.5-2.7c-0.1,0.5-0.1,0.9-0.2,1.4l-0.1,1.4c0,0.5-0.1,0.9-0.3,1.4
		c-0.1,0.2-0.2,0.4-0.4,0.6C127.6,126.7,127.3,126.8,127.1,126.7L127.1,126.7z M115.6,105.9c-0.3-0.3-0.7-1.9-1.2,0.2
		c0,0-0.8,0.7-0.4-0.6c0,0,1.1-4.1,1.9,0C115.9,105.5,115.9,106.2,115.6,105.9z M118.3,120.4c-0.2,0.1-0.4,0.1-0.6,0.1
		c-0.2,0-0.4,0-0.6-0.1c-0.4-0.1-0.7-0.3-1-0.6c-0.2-0.3-0.3-0.8-0.1-1.1c0,0.4,0.2,0.7,0.4,0.9c0.2,0.2,0.5,0.3,0.8,0.4
		c0.3,0.1,0.7,0.1,0.9,0c0.3,0,0.5-0.2,0.8-0.5C119,119.8,118.8,120.2,118.3,120.4z M120.5,122.8c-0.2,0-0.3-0.2-0.3-0.3
		c0-0.2,0.1-0.3,0.3-0.3c0.2,0,0.3,0.2,0.3,0.3C120.8,122.6,120.6,122.8,120.5,122.8z M125.4,100.4c-0.2-0.2-0.3-0.5-0.2-0.7
		s0.5-0.3,0.7-0.1c0.2,0.2,0.3,0.5,0.2,0.7S125.7,100.6,125.4,100.4z M128.1,140.2c-0.1,0.1-0.3,0.2-0.4,0.3c-0.2,0.1-0.4,0-0.6-0.1
		c-0.3-0.2-0.5-0.4-0.6-0.7c0.3,0.1,0.5,0.3,0.7,0.3c0.1,0,0.2,0,0.3,0c0.1,0,0.2-0.1,0.3-0.2c0.4-0.3,0.7-0.8,1-1.3
		C128.8,139.2,128.6,139.8,128.1,140.2z"/>
	<linearGradient id="SVGID_11_" gradientUnits="userSpaceOnUse" x1="142.5348" y1="134.5608" x2="142.5348" y2="98.6352">
		<stop  offset="2.801804e-03" style="stop-color:#6C853F"/>
		<stop  offset="0.378" style="stop-color:#97AA20"/>
		<stop  offset="0.7177" style="stop-color:#B7C609"/>
		<stop  offset="0.9048" style="stop-color:#C3D100"/>
	</linearGradient>
	<path class="st14" d="M150.2,107.3c0-0.4-0.1-0.8-0.2-1.1c0-0.1,0-0.1,0-0.2c-0.1-0.3-0.1-0.6-0.2-0.9c0-0.1,0-0.2-0.1-0.3
		c-0.1-0.3-0.2-0.5-0.2-0.8c0-0.1-0.1-0.2-0.1-0.3c-0.1-0.3-0.3-0.6-0.4-0.9c-0.1,0-0.2-0.1-0.3-0.1c-0.7-0.2-2.4-0.6-2.4-2.3
		c0-0.6-0.5-1-1.4-1c0,0-0.1,0-0.1,0c0,0-0.1,0-0.1,0c-0.1,0-0.2,0-1.1-0.1c-0.1,0.1-0.2,0.4-0.3,1.1c0,0.2-0.1,0.3-0.1,0.5l0,0l0,0
		c0,0.1-0.1,0.2-0.2,0.2l-0.5,0.7c-0.4,0.9-0.5,0.4-0.5,0.4c0-0.2-0.4-0.9-0.6-1.2c-0.1-0.1-0.1-0.2-0.2-0.3
		c-0.4-1.5-1.1-2.2-1.3-2.2c0,0,0,0-0.1,0c-0.7,0.5-1.1,0.8-1.7,0.8c-0.1,0-0.2,0-0.4,0c-0.1,0-0.2,0-0.3,0c-0.2,0-0.3,0-0.4,0
		c-0.9,0-1.2,0.3-1.3,0.4c-0.6,0.7-0.5,2.3-0.3,3.7c0.1,1.4,0.2,2.4-0.3,3.2c-0.1,0.1-0.1,0.2-0.2,0.3c0,0,0,0,0,0
		c-0.1,0.1-0.1,0.2-0.1,0.2c0,0.1,0,0.3,0,0.4c0,0,0,0,0,0c0,0.1,0.1,0.1,0.1,0.2c0,0,0,0,0,0c0.1,0.1,0.1,0.2,0.2,0.3
		c0.7,0.8,1.7,2.1,0.7,4.9c-0.2,0.5-0.3,0.9-0.4,1.4c0,0.2-0.1,0.3-0.1,0.5c-0.1,0.3-0.1,0.6-0.2,0.8c0,0.2-0.1,0.4-0.1,0.6
		c0,0.4-0.1,0.7-0.1,1.1c0,0.8,0,1.6,0,2.4c0,0,0,0,0,0c0,0.3,0.1,0.5,0.1,0.8c0.5,1.4,1.4,3.6,1.8,3c0,0,1,0.8-0.1,1.8
		c-0.4,0.3-0.6,0.7-0.7,0.9c0,0,0,0,0,0c0,0.2,0.1,0.4,0.1,0.6c0,0.1,0,0.3,0.1,0.4c0,0.2,0.1,0.4,0.1,0.6c0,0.2,0.1,0.4,0.1,0.6
		c0,0.2,0,0.3,0.1,0.5c0,0.3,0.1,0.7,0.1,1c0,0.1,0,0.2,0,0.4c0,0.3,0,0.5,0,0.8c0,0.1,0,0.3,0,0.4c0,0.3,0,0.5,0,0.8
		c0,0.1,0,0.3,0,0.4c0,0.4-0.1,0.8-0.1,1.2c0.1,0.1,0.1,0.3,0.2,0.5c0,0,0,0,0,0c0.2-0.6,0.6-1,1.2-1c0.6,0,1,0.4,1.2,1l0.2-0.1
		c1-0.9,1.2-2,1.4-2.9c0.1-0.8,0.4-2,1.6-2c0.5,0,1,0.2,1.6,0.7c0.2,0.1,0.3,0.1,0.3,0.1c0.3,0,0.9-0.7,1.8-3.8l0-0.1
		c0-0.1,0.1-0.2,0.1-0.3c0.2-0.3,0.5-0.7,0.8-1c0.4-0.5,0.7-0.9,1-1.4c0,0,0,0,0,0c0.2-0.5,0.3-1,0.4-1.6c-0.8-0.7-0.3-0.9-0.3-0.9
		c0.2-0.1,0.4-0.3,0.6-0.4c0.3-1.4,0.6-2.9,0.8-4.5C150,112.5,150.2,109.5,150.2,107.3C150.2,107.3,150.2,107.3,150.2,107.3z
		 M136.7,100.7c-0.2,0.3-0.3,0.7-0.3,1.1c-0.1,0.8,0,1.7,0.1,2.5c-0.2-0.4-0.3-0.8-0.4-1.3c-0.1-0.4-0.1-0.9-0.1-1.3
		c0-0.4,0.2-0.9,0.5-1.3c0.3-0.4,0.8-0.5,1.3-0.4C137.3,100.1,136.9,100.4,136.7,100.7z M144,99.9c0.1,0,0.1,0,0.2,0
		c0.2,0,0.4,0.1,0.4,0.3c0,0.1,0,0.1,0,0.2s0,0.1,0,0.2c-0.1,0.2-0.2,0.3-0.4,0.3c-0.1,0-0.1,0-0.2,0c-0.2-0.1-0.3-0.2-0.3-0.4
		C143.7,100.1,143.8,100,144,99.9z M141.8,105.6c0.3,0.4,0.5,0.6,0.8,0.7c0.3,0.1,0.6,0.1,1.1,0.2c-0.1,0.2-0.3,0.3-0.6,0.4
		c-0.2,0.1-0.5,0-0.7-0.1c-0.2-0.1-0.4-0.3-0.5-0.6C141.7,106,141.7,105.8,141.8,105.6z M139.5,128.9c-0.3,0-0.5-0.2-0.5-0.5
		s0.2-0.5,0.5-0.5c0.3,0,0.5,0.2,0.5,0.5S139.8,128.9,139.5,128.9z M144.5,129.6c-0.7,0-1.1-0.1-1.2-0.7c0,0,0.7,0.2,1.1-0.1
		c0.4-0.3,0.4-1.1,0.7-1.5C145.1,127.3,145.2,129.6,144.5,129.6z M141.9,124.9c-0.1,0.1-0.2,0.1-0.4,0.1c0,0,0,0,0,0
		c0,0-0.1,0-0.1,0c-1.9,0.6-2.1,2.4-2.1,1.6c0-0.8,0-0.8,0-0.8c-0.4-1.7-0.5-3-0.5-3.6c0-0.1,0-0.1,0-0.2c-0.1-2.5,0.1-5,0.2-7.9
		c0.1-2.2,0.3-4.6,0.3-7.5c0-0.4,0.3-0.8,0.7-0.9c0.1,0,0.2,0,0.3,0c0.3,0,0.6,0.1,0.8,0.4c0.8,1.1,1.3,1.1,1.5,1.1
		c0.1,0,0.3,0,0.4,0c0.2,0,0.3,0,0.5,0c0.4,0,0.7,0.1,0.9,0.3c0.2,0.1,0.4,0.3,0.5,0.5c0.1,0.2,0.3,0.4,0.5,0.6c0.5,0.5,1,1.1,1,2
		l0,0.2C146.7,114.9,146.9,122.8,141.9,124.9z M149.4,108.1c-0.1,0.6-0.3,1.1-0.5,1.6c0-0.6,0.1-1.1,0.1-1.6c0-0.5,0-1.1-0.1-1.6
		c-0.1-1.1-0.4-2.1-0.8-3.1c0.4,0.4,0.7,0.9,0.9,1.4c0.2,0.5,0.4,1.1,0.4,1.7C149.5,106.9,149.5,107.5,149.4,108.1z"/>
	<g>
		<path d="M155.4,104.3l0-1c-0.3,0.7-0.3,1.4-0.3,2.1c0,0.4,0,0.7,0.1,1.1c0.1,0.3,0.2,0.7,0.4,1c-0.2-0.7-0.3-1.3-0.3-2
			C155.4,105,155.4,104.7,155.4,104.3z"/>
		<path d="M156.5,98.3c1.6-0.1,1.7,1.3,1.7,1.3C158.4,96.6,156.5,98.3,156.5,98.3z"/>
		<path d="M156.3,115.3c-0.2,0-0.4,0.2-0.4,0.3c0,0.2,0.2,0.3,0.4,0.3s0.4-0.2,0.4-0.3C156.7,115.4,156.5,115.3,156.3,115.3z"/>
		<path d="M157,109c1,0.1,0.8,1.4,0.8,1.4C158.6,107.9,157,109,157,109z"/>
	</g>
	<path d="M95.8,83.8c-7.3,0-13.2,5-13.2,11.1c0,6.1,5.9,11.1,13.2,11.1c7.3,0,13.2-5,13.2-11.1C109,88.8,103.1,83.8,95.8,83.8z
		 M96,98.6c-4.4,0.1-3.8-2.1-3.7-3.8c0-1.2,0.7-3.6,3.5-3.9C99.6,91.1,102,98.9,96,98.6z"/>
	<linearGradient id="SVGID_12_" gradientUnits="userSpaceOnUse" x1="68.9054" y1="106.5592" x2="28.5877" y2="83.2818">
		<stop  offset="2.801804e-03" style="stop-color:#6C853F"/>
		<stop  offset="1" style="stop-color:#C3D100"/>
	</linearGradient>
	<path class="st15" d="M53.1,133.7c0.3-1.3-0.1-2.9-0.5-4.6c-0.5-2.3-0.9-4.6,0.4-6.3c0-0.7-0.5-1.8-0.9-2.6
		c-0.3-0.7-0.6-1.3-0.3-1.4c0.2,0,0.7,0.2,1.6,0.9l0.5-9.3c-2.3-3.6,2.4-20.9-0.7-18.6c-0.2,0.3-0.4,0.3-0.5,0.1
		c-0.4-0.2-0.2-1.6-0.2-2.5c0-1.4,1.1-2.7-0.7-1.6c-0.6,0.3-0.6,0-0.6-0.4c-0.1,0-0.1,0.1-0.2,0.1c-0.3,0.3-0.3,1-0.3,1.7
		c0,0.7,0.1,1.3-0.1,1.5c-0.2,0.2-0.4,0.1-1-0.3c0,0,0,0,0.1,0c0.2,0,0.4-0.1-0.1-0.9c-0.1-0.5-0.1-1.1-0.2-1.6
		c0-0.2-0.1-0.4-0.2-0.6c-0.2-0.3-0.4-0.6-0.8-0.7c-1,0.4-1.9,1.1-2.7,2c-0.8,0.9-1.6,1.8-2.2,2.6l0.1,2.3c0,0-0.1-0.3-0.3-0.7
		L43.1,92c0,0,0-0.1-0.1-0.1l-0.2-0.5c0-0.1-0.1-0.2-0.1-0.2v0l0,0c0-0.2,0.1-1.6,0.1-1.8c-0.7,0-1.3-0.2-1.7-0.7
		c-0.4-0.4-0.7-1-0.7-1.7c0-0.2,0-0.4,0.1-0.6c0.1-0.2,0.2-0.4,0.4-0.6c0.1-0.1,0.2-0.2,0.3-0.3c0.5-0.4,1.1-0.9,0.9-1.6
		c0-0.2-0.1-0.3-0.2-0.5c-0.1-0.3-0.3-0.5-0.5-0.8c-0.4-0.6-1-1.2-1.1-1.9c0-0.3,0-0.5,0.1-0.8c0,0,0,0,0-0.1
		c0.4-0.7,0.8-1.7,1.3-2.3c0.4-0.4,1-0.6,1.9,0c0.4,0,0.6-0.2,0.8-0.5c0.3-0.5,0.4-1.5,0.3-2.3c0-0.8-0.1-1.5,0-1.8
		c0-0.1,0-0.1,0-0.2c0,0,0,0,0,0c0,0,0.1-0.1,0.1-0.1c0.3,0.6,0.3,1.3,0.5,1.9c0.1,0.3,0.2,0.6,0.4,0.9c0.1,0.2,0.3,0.4,0.5,0.6
		c0.1,0.1,0.2,0.2,0.3,0.3c0,0,1.1,0.4,1.3,0.9c0.8-0.1,1.6-0.3,2.4-0.5c0.9-0.7,0.7-2.1,1.2-3.6c0,0,0,0,0,0
		c0.1-0.2,0.3-0.3,0.5-0.1c0,0.1,0.1,0.1,0.1,0.2c0.1,0.3,0,0.8-0.3,1.5c-0.8,1.6,0.4,1.4,0.7,1.4c0.6-1.8,0.9-3.6,1.1-5.3
		c0.1-1,0.2-2,0.2-3c0-0.2,0-0.4,0-0.7c0-0.5,0-0.9-0.1-1.4c0,0,0,0,0,0c-0.1-0.7-0.1-1.4-0.3-2.1c-0.2-1.4-0.6-2.8-1-4.2l0,0
		c-0.7-4-3.2-2.9-3.2-2.9l0,0c-0.4,0.2-0.9,0.5-1.3,0.7c-0.5,0.3-1,0.6-1.5,1c-0.3,0.2-0.6,0.4-0.9,0.6c-0.4,0.3-0.8,0.6-1.2,0.9
		c-0.4,0.3-0.7,0.6-1.1,0.9c-0.8,0.6-1.5,1.3-2.2,1.9l0,4.2l-0.6,0l-0.3-1c0.2-0.7-0.3-1-0.8-1c-0.9,0.9-1.6,2.1-2,3.5
		c-0.3,0.9-0.5,1.9-0.7,2.9c-0.2,1.4-0.2,2.8,0,3.9c0,0,0,0.3-0.2,0.7c-0.2,0.6-0.5,1.3-0.9,1c-0.2-0.1-0.4-0.3-0.6-0.7
		C35,76.1,35,76,34.9,76c-1.1-1.7-1.8,0-2.2,3c0,0.1,0,0.1,0,0.2c0,0,0,0.1,0,0.1c-0.5,3.8-0.4,9.5,0,12.5c0.2,1.3,0.4,2.1,0.8,2.1
		l-0.4-2.8c0.5,0.6,0.9,1,1.3,1.2c0,0,0,0,0,0c0.1,0,0.2,0.1,0.3,0.1c0.5,0.1,0.8-0.2,1-0.6c0.2-0.3,0.3-0.5,0.5-0.4
		c0.1,0.1,0.1,0.2,0.2,0.4c0.3,0.5,0.3,0.9,0.2,1.4c-0.1,0.5-0.4,1.1-0.3,1.9c0,0,0,0,0,0c0,0.1,0,0.2,0.1,0.4
		c0.2,0.6,0.5,1.2,1.2,2c0,0,0,0,0,0c0,0,0,0.1,0.1,0.1c0.4,0.8,0.6,1.6,0.9,2.2c0.1,0.2,0.3,0.5,0.4,0.7c0.4,0.4,0.9,0.7,1.8,0.8
		c0.3-0.4,0.6-0.9,0.5-1.3c-0.3-1.1,0.9-0.8,1.1-0.3c0.2,0.3,0.2,1.3,0.5,1.9c0.4,0,0.9,0.1,1.3,0.1c0.6,0,1.2,0.1,1.8,0.2
		c0.2-0.1,0.3-0.2,0.4-0.3c0.1-0.2,0.2-0.5,0.2-0.8c0-0.3,0-0.6,0.1-0.8c-0.3-0.7-0.6-1.4-0.9-2.1l0.1,0c-0.3-0.2-0.3-0.6-0.1-0.8
		c0.1-0.2,0.4-0.3,0.6-0.1c0.1,0,0.1,0.1,0.2,0.1c0,0,0,0,0,0c0.3,0.9,0.5,1.8,0.9,2.7c0.7,0.8,0.2,2.7,0.8,3.6c0,0,0.1,0.1,0.2,0.2
		c0.3,0.2,0.7,0.4,0.3,0.3c0.6,0.3,0.8,0.8,0.8,1.2c0,0.4-0.1,0.8-0.2,1.2c0,0.2-0.1,0.3-0.1,0.5c-0.1,0.3-0.1,0.5-0.1,0.8
		c0.1,1.2,0.5,2.3,0.8,3.5c0.2,1,0.3,2-0.1,3.1c0,0.8-0.3,1.6-0.8,2.1c-0.5,0.6-1.2,0.9-2.1,0.6c-0.5,0.3-1,0.6-1.3,0.9
		c0,0-0.1,0.1-0.1,0.1c-0.3,0.4-0.6,0.8-0.7,1.4c0,0,0.1,0.2,0.3,0.4c0.1,0.1,0.2,0.3,0.3,0.4c0.1,0.1,0.1,0.1,0.1,0.2
		c0,0.1,0.1,0.1,0.1,0.1c0,0,0,0,0,0c0.1,0.1,0.1,0.2,0,0.5c-0.1,0.1-0.2,0.3-0.3,0.5c-0.4,0.6-0.9,1.3-1,1.5l0.3-2
		c-0.1-0.2-0.5-0.6-0.8-1c0,0,0-0.1-0.1-0.1c0,0,0,0,0,0c0-0.1,0-0.1-0.1-0.1c0,0,0-0.1,0-0.1c0,0,0,0,0,0c0-0.1,0-0.2,0-0.2
		c0-0.4,0.1-0.9,0.2-1.3c0.2-1.6,0.4-2.9-1.2-3.7c-0.1,0.5-0.1,1.3-0.2,2.5c-0.1,3.3-0.7,1.5-0.7,1.5s0.4-2.1-0.7-2.3
		c-1-0.2-0.9-1.6-1.5-2.2c-0.6-0.6-0.5,0.3-0.5,0.3c-0.2,2.9-1.1,0-1.1,0c0.7-0.4,0.5-1.2,0-1.7c-0.4-0.2-0.7-0.2-1-0.3
		c-0.3,0-0.6,0-0.9,0.1c0,0,0,0,0,0c-0.2,0-0.3,0.1-0.5,0.1c0,0,0,0,0,0c0,0,0,0,0,0c-0.4,0.1-0.9,0.3-1.3,0.4
		c-0.4,0.2-0.8,0.6-1.1,1c0.3,0.4,0.5,0.7,0.7,1c0.2,0.4,0.3,0.7-0.3,1.4c-0.2,0.3-0.4,0.6-0.7,1.1c0,0.1-0.1,0.2-0.1,0.4
		c0,0,0,0,0,0c0,0,0,0,0,0.1c0,0.3,0.1,0.6,0.2,0.9c0,0,0,0.1,0.1,0.1c0,0.1,0.1,0.2,0.1,0.3c0.4,0.8,1.2,1.5,2,1.9
		c0.1,0,0.1,0.1,0.2,0.1c0,0,0.1,0,0.1,0c0.8,0.3,1.5,0.1,1.9-0.7c0.3-1.1,0.4-1.3,0.5-0.8c0,0.1,0.1,0.2,0.1,0.4c0,0,0,0,0,0.1
		c0.2,1.4,0.2,4.7,0.7,5.2c1.2,1.6,2,3.1,2.7,4c0.7,0.9,1.4,1.2,2.4,0.3c0.6-0.6,1.3-1.6,2.3-3.1c0,0.7-0.1,1.4-0.3,2l0-0.1
		c-0.2,3.4,2.7,6.8,5.7,7.8C52.4,135.3,52.9,134.5,53.1,133.7z M48.5,58.3c1.8-1.3,4,0.8,2.9,2.7l0,0c-0.6-1.9-1.4-2.4-3.4-2.2
		C48,58.5,48.3,58.5,48.5,58.3z M34.3,81.8c-0.5,2.8-0.2,5.6,0.1,8.3c-1-3.5-1.6-7.9,0.8-11C34.7,80,34.4,80.9,34.3,81.8z M39,77.9
		c-1-0.1-1.8-0.1-2.6,0.5c0.5-0.2,0.9-0.6,1.2-1c0.1-0.5,0.1-3.1,0.8-1.7C38.5,76.4,39.6,77.4,39,77.9z M45.7,100.1
		c-0.1,0.6-0.3,1.1-1.2,0.7c-1.5-0.8,0.7-0.5,1-1.7C45.6,98.5,45.9,99.5,45.7,100.1z M37.7,118.4c-0.5,0-0.5-1.6,0-1.5
		C38.2,116.9,38.2,118.4,37.7,118.4z M46.2,125.6c-0.4,0-0.4-1.2,0-1.2C46.6,124.4,46.6,125.6,46.2,125.6z M50.9,91.8
		c0.8,0,0.8,1.4,0,1.3C50.2,93.1,50.2,91.7,50.9,91.8z M49.6,133.8c0.8,0.2,1.6,0.2,2-0.6c0.4-0.7,0.6-1.6,0.8-2.3
		C53.1,132.6,51.5,135.6,49.6,133.8z"/>
</g>
</svg>
