<?xml version="1.0" encoding="utf-8"?>
<!-- Generator: Adobe Illustrator 25.2.1, SVG Export Plug-In . SVG Version: 6.00 Build 0)  -->
<svg version="1.1" id="Layer_2" xmlns="http://www.w3.org/2000/svg" xmlns:xlink="http://www.w3.org/1999/xlink" x="0px" y="0px"
	 viewBox="0 0 293.2 186.4" style="enable-background:new 0 0 293.2 186.4;" xml:space="preserve">
<style type="text/css">
	.st0{fill:#231F20;}
</style>
<path class="st0" d="M129.9,0.4h-2.6c-0.9,0-1.5,0.1-1.9,0.4c-0.4,0.3-0.8,0.8-1.1,1.4L90.7,74.4c-0.1,0.3-0.7,0.3-0.8,0L56.3,2.3
	c-0.3-0.7-0.7-1.2-1.1-1.4c-0.4-0.3-1-0.4-1.9-0.4h-2.6c-0.4,0-0.8,0.1-1,0.3c-0.2,0.2-0.3,0.4-0.3,0.7c0,0.3,0.1,0.5,0.1,0.5
	l37.3,80c0.4,1,0.7,1.4,0.9,1.5c0,0,0,0,0,0c0.2,0.1,0.5,0.3,1.4,0.3h2.4c0.9,0,1.2-0.2,1.4-0.3c0.2-0.2,0.5-0.6,0.9-1.5l37.3-80
	c0.3-0.6,0.1-0.9,0-1.1C130.8,0.6,130.4,0.4,129.9,0.4z"/>
<g>
	<path d="M231.7,0.2h-2.6c-0.9,0-1.5,0.1-1.9,0.4c-0.4,0.3-0.8,0.8-1.1,1.4l-33.6,72.1c-0.1,0.3-0.7,0.3-0.8,0L158.2,2.1
		c-0.3-0.7-0.7-1.2-1.1-1.4c-0.4-0.3-1-0.4-1.9-0.4h-2.6c-0.4,0-0.8,0.1-1,0.3c-0.2,0.2-0.3,0.4-0.3,0.7c0,0.3,0.1,0.5,0.1,0.5
		l37.3,80c0.4,1,0.7,1.4,0.9,1.5c0,0,0,0,0,0c0.2,0.1,0.5,0.3,1.4,0.3h2.4c0.9,0,1.2-0.2,1.4-0.3c0.2-0.2,0.5-0.6,0.9-1.5l37.3-80
		c0.3-0.6,0.1-0.9,0-1.1C232.7,0.4,232.3,0.2,231.7,0.2z"/>
	<path class="st0" d="M232.9,1.8l-37.3,80c-0.4,1-0.7,1.4-0.9,1.5c-0.2,0.1-0.5,0.3-1.4,0.3h-2.4c-0.9,0-1.2-0.2-1.4-0.3
		c0,0,0,0,0,0c-0.2-0.2-0.5-0.6-0.9-1.5l-37.3-80c0,0-0.1-0.2-0.1-0.5c0-0.3,0.1-0.5,0.3-0.7c0.2-0.2,0.6-0.3,1-0.3h2.6
		c0.9,0,1.5,0.1,1.9,0.4c0.4,0.3,0.8,0.8,1.1,1.4l33.6,72.2c0.1,0.3,0.7,0.3,0.8,0l33.6-72.1c0.3-0.7,0.7-1.2,1.1-1.4
		c0.4-0.3,1-0.4,1.9-0.4h2.6c0.6,0,1,0.2,1.2,0.5C233,0.9,233.2,1.2,232.9,1.8z"/>
</g>
<g>
	<path class="st0" d="M57,126l-0.8-0.4c-1.2-0.6-1.9-0.6-2.8,0.2l-29.5,23l2.6-37.3c0.1-0.7,0-1.2-0.3-1.6c-0.2-0.3-0.6-0.6-1.1-0.9
		l-0.8-0.4c-0.6-0.3-1.2-0.4-1.8-0.3c-0.6,0.2-1,0.6-1.3,1.2L2.7,144.3l0,0c-0.7,1.3-0.3,2.5,1,3.1l0.4,0.2c0.6,0.3,1.2,0.4,1.8,0.3
		c0.6-0.2,1-0.6,1.3-1.2l13.7-25.8l-2.2,32.9c-0.1,1,0.4,1.8,1.3,2.3c0.9,0.5,1.8,0.4,2.6-0.2l26.1-20.2L35,161.4
		c-0.7,1.3-0.3,2.5,1,3.1l0.4,0.2c0.4,0.2,0.7,0.3,1.1,0.3c0.2,0,0.5,0,0.7-0.1c0.6-0.2,1-0.6,1.3-1.2L58,129.1
		C58.7,127.8,58.3,126.7,57,126z"/>
	<path class="st0" d="M82.4,134.8c-0.1-0.6-0.2-1-0.3-1.3c-0.2-0.4-0.6-0.7-1.2-0.8l-1.1-0.3c-0.6-0.2-1.1-0.1-1.5,0.1
		c-0.3,0.2-0.6,0.5-0.9,0.9l-26.8,34.2c-0.4,0.5-0.5,1-0.3,1.6c0.2,0.6,0.6,0.9,1.2,1.1l1.1,0.3c0.6,0.2,1.2,0.2,1.6,0
		c0.4-0.2,0.7-0.5,1.1-0.9l22.9-29.3l5.1,36.8c0.1,0.6,0.2,1,0.5,1.3c0.3,0.4,0.7,0.7,1.4,0.8l1.1,0.3c0.2,0,0.3,0.1,0.5,0.1
		c0.4,0,0.7-0.1,0.9-0.2c0.4-0.2,0.6-0.6,0.8-1c0.1-0.3,0.1-0.6,0.1-0.7L82.4,134.8z"/>
	<path class="st0" d="M132.9,179c-0.4-0.8-0.9-0.9-1.2-0.9c-0.3,0-0.5,0.1-0.9,0.3c-1.5,0.9-3.1,1.5-5,1.9c-1.9,0.4-4.1,0.6-6.7,0.5
		c-5.1-0.1-9.2-1.7-12.2-4.7c-3-3-4.5-7.7-4.4-13.8c0.1-6.2,1.7-10.8,4.7-13.7c3-2.9,7.2-4.3,12.5-4.2c2.3,0,4.4,0.3,6.3,0.8
		c1.8,0.5,3.3,1.1,4.5,1.9c0.4,0.2,0.6,0.3,0.9,0.3c0.3,0,0.9-0.1,1.2-0.8l0.9-1.4c0.2-0.5,0.3-0.9,0.2-1.2
		c-0.1-0.3-0.4-0.6-0.8-0.9c-1.6-1.1-3.6-1.9-5.9-2.4c-2.3-0.5-4.7-0.8-7.2-0.9c-6.9-0.1-12.4,1.8-16.2,5.8c-3.8,4-5.9,9.6-6,16.7
		c-0.1,7.1,1.7,12.8,5.4,16.9c3.7,4.1,9.1,6.2,16,6.3c0.3,0,0.5,0,0.8,0c2.7,0,5-0.2,7.1-0.6c2.3-0.5,4.4-1.3,6.1-2.4
		c0.8-0.4,0.9-1,0.9-1.3c0-0.2,0-0.4-0.2-0.7L132.9,179z"/>
	<path class="st0" d="M146.8,143.8c-0.1-0.7-0.3-1.3-0.8-1.6c-0.5-0.4-1-0.5-1.8-0.4l-0.5,0.1c-0.7,0.1-1.3,0.3-1.6,0.8
		c-0.4,0.5-0.5,1-0.4,1.8l4.3,39.1c0.1,0.7,0.3,1.3,0.8,1.6c0.4,0.3,0.8,0.5,1.4,0.5c0.1,0,0.2,0,0.4,0l0.5-0.1
		c0.7-0.1,1.3-0.3,1.6-0.8c0.4-0.5,0.5-1,0.4-1.8L146.8,143.8z"/>
	<path class="st0" d="M176.4,140.5c-0.1-0.7-0.3-1.3-0.8-1.6c-0.4-0.4-1-0.5-1.8-0.4l-0.5,0.1c-0.7,0.1-1.3,0.3-1.6,0.8
		c-0.4,0.5-0.5,1-0.4,1.8l4.3,39.1c0.1,0.7,0.3,1.3,0.8,1.6c0.4,0.3,0.8,0.4,1.4,0.4c0.1,0,0.2,0,0.4,0l0.5-0.1
		c1.4-0.2,2.2-1.1,2.1-2.6L176.4,140.5z"/>
	<path class="st0" d="M194.2,138.2c-0.2-1.4-1.2-2.1-2.7-1.9l-0.5,0.1c-0.7,0.1-1.2,0.4-1.6,0.9c-0.3,0.5-0.4,1.1-0.3,1.8l6.5,38.7
		c0.1,0.7,0.4,1.2,0.9,1.6c0.3,0.2,0.8,0.4,1.2,0.4c0.2,0,0.4,0,0.6,0l0.5-0.1c0.7-0.1,1.2-0.4,1.6-0.9c0.3-0.5,0.4-1.1,0.3-1.8
		L194.2,138.2z"/>
	<path class="st0" d="M240.6,123.3c-0.4-1.4-1.5-2-2.9-1.5l-0.5,0.1c-0.7,0.2-1.2,0.6-1.4,1.1c-0.3,0.5-0.3,1.1-0.1,1.8l9.7,31.5
		l-33.9-25.2c-0.5-0.3-0.9-0.5-1.2-0.6c-0.4-0.1-0.8-0.1-1.4,0.1l-0.8,0.3c-1.4,0.4-2,1.5-1.5,2.9l11.5,37.6
		c0.2,0.7,0.6,1.2,1.1,1.4c0.3,0.2,0.6,0.2,1,0.2c0.3,0,0.6,0,0.9-0.1l0.5-0.1c1.4-0.4,2-1.5,1.5-2.9l-9.6-31.4l33.8,25.1
		c0.5,0.3,0.9,0.5,1.2,0.6c0.4,0.1,0.9,0.1,1.4-0.1l0.8-0.3c1.4-0.4,2-1.5,1.5-2.9L240.6,123.3z"/>
	<path class="st0" d="M292.7,141.1C292.7,141.1,292.7,141.1,292.7,141.1l-0.2-0.4c-0.7-1.3-1.8-1.6-3.1-0.9l-20.3,10.7l-15.9-30.4
		l20.3-10.7c0.6-0.3,1-0.8,1.2-1.3c0.2-0.6,0.1-1.1-0.2-1.8l-0.2-0.4c-0.3-0.6-0.8-1-1.4-1.2c-0.5-0.1-1.1,0-1.7,0.3l-22.8,12
		c-0.6,0.3-1,0.8-1.2,1.3s-0.1,1.2,0.2,1.8l18.2,34.8c0.5,0.9,1.1,1.3,1.9,1.3c0.4,0,0.8-0.1,1.2-0.3l22.8-12c0.6-0.3,1-0.7,1.2-1.2
		C293.1,142.3,293,141.7,292.7,141.1z"/>
</g>
<path class="st0" d="M143.3,168.5c-0.9,0-1.9,0-2.8,0c-54.4-2-97.1-14.9-138.5-42c-1.2-0.8-1.6-2.5-0.8-3.7c0.8-1.2,2.5-1.6,3.7-0.8
	c40.6,26.5,82.4,39.2,135.7,41.2c51.7,0.5,101.7-14,141-40.8c1.2-0.8,2.9-0.5,3.7,0.7c0.8,1.2,0.5,2.9-0.7,3.7
	C245.1,153.7,195,168.5,143.3,168.5z"/>
</svg>
