<?xml version="1.0" encoding="UTF-8" standalone="no"?>
<!-- Created with Inkscape (http://www.inkscape.org/) -->

<svg
   xmlns:dc="http://purl.org/dc/elements/1.1/"
   xmlns:cc="http://creativecommons.org/ns#"
   xmlns:rdf="http://www.w3.org/1999/02/22-rdf-syntax-ns#"
   xmlns:svg="http://www.w3.org/2000/svg"
   xmlns="http://www.w3.org/2000/svg"
   xmlns:sodipodi="http://sodipodi.sourceforge.net/DTD/sodipodi-0.dtd"
   xmlns:inkscape="http://www.inkscape.org/namespaces/inkscape"
   version="1.1"
   id="svg2"
   xml:space="preserve"
   width="438"
   height="274"
   viewBox="0 0 438 274"
   sodipodi:docname="YÖ RY logo.svg"
   inkscape:version="0.92.3 (2405546, 2018-03-11)"><metadata
     id="metadata8"><rdf:RDF><cc:Work
         rdf:about=""><dc:format>image/svg+xml</dc:format><dc:type
           rdf:resource="http://purl.org/dc/dcmitype/StillImage" /><dc:title></dc:title></cc:Work></rdf:RDF></metadata><defs
     id="defs6"><clipPath
       clipPathUnits="userSpaceOnUse"
       id="clipPath18"><path
         d="M 0,0 H 413.858 V 283.465 H 0 Z"
         id="path16"
         inkscape:connector-curvature="0" /></clipPath></defs><sodipodi:namedview
     pagecolor="#ffffff"
     bordercolor="#666666"
     borderopacity="1"
     objecttolerance="10"
     gridtolerance="10"
     guidetolerance="10"
     inkscape:pageopacity="0"
     inkscape:pageshadow="2"
     inkscape:window-width="1920"
     inkscape:window-height="1011"
     id="namedview4"
     showgrid="false"
     inkscape:zoom="1.6063667"
     inkscape:cx="197.98314"
     inkscape:cy="134.40521"
     inkscape:window-x="0"
     inkscape:window-y="0"
     inkscape:window-maximized="1"
     inkscape:current-layer="g10" /><g
     id="g10"
     inkscape:groupmode="layer"
     inkscape:label="YÖ RY logo - RGB Black"
     transform="matrix(1.3333333,0,0,-1.3333333,0,273.99999)"
     style="display:inline"><g
       id="g12"
       transform="translate(-43.155096,-41.653505)"><g
         id="g14"
         clip-path="url(#clipPath18)"><g
           id="g20"
           transform="translate(68.4411,53.1483)"><path
             d="m 0,0 h 3.952 v 8.121 l 7.167,11.228 H 6.513 L 1.962,12.018 -2.562,19.349 H -7.14 L 0,8.148 Z m 76.139,23.082 c 0,1.145 -0.927,2.071 -2.044,2.071 -1.145,0 -2.072,-0.926 -2.072,-2.071 0,-1.117 0.927,-2.044 2.072,-2.044 1.117,0 2.044,0.927 2.044,2.044 m 6.404,0 c 0,1.145 -0.927,2.071 -2.044,2.071 -1.145,0 -2.071,-0.926 -2.071,-2.071 0,-1.117 0.926,-2.044 2.071,-2.044 1.117,0 2.044,0.927 2.044,2.044 M 87.285,9.674 c 0,5.533 -4.47,10.002 -10.002,10.002 -5.532,0 -10.001,-4.469 -10.001,-10.002 0,-5.532 4.469,-10.001 10.001,-10.001 5.532,0 10.002,4.469 10.002,10.001 m -16.025,0 c 0,3.38 2.644,6.187 6.023,6.187 3.379,0 6.023,-2.807 6.023,-6.187 0,-3.379 -2.644,-6.186 -6.023,-6.186 -3.379,0 -6.023,2.807 -6.023,6.186 M 195.159,0 h 3.952 v 8.148 h 0.981 L 206.714,0 h 4.769 l -6.949,8.584 c 2.561,0.818 3.978,2.453 3.978,5.042 0,3.216 -2.316,5.723 -5.94,5.723 h -7.413 z m 3.952,11.528 v 4.196 h 2.997 c 1.472,0 2.48,-0.763 2.48,-2.098 0,-1.308 -1.008,-2.098 -2.48,-2.098 z M 273.949,0 h 3.952 v 8.121 l 7.167,11.228 h -4.606 l -4.551,-7.331 -4.523,7.331 h -4.579 l 7.14,-11.201 z"
             style="fill:#000000;fill-opacity:1;fill-rule:nonzero;stroke:none"
             id="path22"
             inkscape:connector-curvature="0" /></g><g
           id="g24"
           transform="translate(145.4239,129.588)"><path
             d="m 0,0 c 3.508,-2.383 8.284,-1.47 10.667,2.038 2.382,3.508 1.47,8.284 -2.038,10.667 C 5.12,15.087 0.345,14.175 -2.038,10.667 -4.421,7.158 -3.508,2.383 0,0"
             style="fill:#000000;fill-opacity:1;fill-rule:nonzero;stroke:none"
             id="path26"
             inkscape:connector-curvature="0" /></g><g
           id="g28"
           transform="translate(191.7647,197.821)"><path
             d="m 0,0 c 3.508,-2.383 8.284,-1.47 10.667,2.038 2.382,3.508 1.47,8.284 -2.039,10.667 C 5.12,15.088 0.344,14.175 -2.038,10.667 -4.421,7.158 -3.508,2.383 0,0"
             style="fill:#000000;fill-opacity:1;fill-rule:nonzero;stroke:none"
             id="path30"
             inkscape:connector-curvature="0" /></g><g
           id="g32"
           transform="translate(346.4975,132.8777)"><path
             d="m 0,0 -0.921,10.206 -91.171,-8.22 c 4.952,19.523 -2.637,40.718 -19.92,52.456 -10.799,7.334 -23.806,10.025 -36.633,7.574 -12.824,-2.45 -23.926,-9.748 -31.259,-20.547 -9.649,-14.205 -10.939,-32.452 -3.991,-47.759 l -34.943,-3.151 53.831,78.827 -8.462,5.779 -14.983,-21.94 -25.575,49.883 -9.117,-4.675 28.116,-54.838 -44.518,-65.19 z m -171.428,35.712 c 5.796,8.536 14.571,14.303 24.705,16.24 10.139,1.936 20.421,-0.19 28.955,-5.987 14.709,-9.99 20.506,-28.637 14.638,-44.974 l -69.791,-6.292 c -7.301,12.689 -6.832,28.756 1.493,41.013"
             style="fill:#000000;fill-opacity:1;fill-rule:nonzero;stroke:none"
             id="path34"
             inkscape:connector-curvature="0" /></g></g></g></g></svg>